{
  "header": {
    "PPQ": 480,
    "timeSignature": [
      4,
      4
    ],
    "bpm": 130.00013000013,
    "name": ""
  },
  "tempo": [
    {
      "absoluteTime": 0,
      "seconds": 0,
      "bpm": 130.00013000013
    }
  ],
  "timeSignature": [
    {
      "absoluteTime": 0,
      "seconds": 0,
      "numerator": 4,
      "denominator": 2,
      "click": 24,
      "notesQ": 8
    }
  ],
  "startTime": 0,
  "duration": 17.86055906249998,
  "tracks": [
    {
      "startTime": 0,
      "duration": 0,
      "length": 0,
      "notes": [],
      "controlChanges": {},
      "id": 0
    },
    {
      "startTime": 0,
      "duration": 17.86055906249998,
      "length": 78,
      "notes": [
        {
          "name": "A3",
          "midi": 57,
          "time": 0,
          "velocity": 0.7322834645669292,
          "duration": 0.09134606249999999
        },
        {
          "name": "A#3",
          "midi": 58,
          "time": 0.23076899999999997,
          "velocity": 0.7322834645669292,
          "duration": 0.09134606250000002
        },
        {
          "name": "D4",
          "midi": 62,
          "time": 0.461538,
          "velocity": 0.7322834645669292,
          "duration": 0.09134606249999999
        },
        {
          "name": "F4",
          "midi": 65,
          "time": 0.692307,
          "velocity": 0.7322834645669292,
          "duration": 0.09134606249999999
        },
        {
          "name": "A4",
          "midi": 69,
          "time": 0.923076,
          "velocity": 0.7322834645669292,
          "duration": 0.09134606249999999
        },
        {
          "name": "F4",
          "midi": 65,
          "time": 1.153845,
          "velocity": 0.7322834645669292,
          "duration": 0.09134606249999999
        },
        {
          "name": "G4",
          "midi": 67,
          "time": 1.384614,
          "velocity": 0.7322834645669292,
          "duration": 0.09134606249999999
        },
        {
          "name": "G3",
          "midi": 55,
          "time": 1.615383,
          "velocity": 0.7322834645669292,
          "duration": 0.09134606249999999
        },
        {
          "name": "A3",
          "midi": 57,
          "time": 1.846152,
          "velocity": 0.7322834645669292,
          "duration": 0.09134606249999999
        },
        {
          "name": "A#3",
          "midi": 58,
          "time": 2.076921,
          "velocity": 0.7322834645669292,
          "duration": 0.09134606249999999
        },
        {
          "name": "D4",
          "midi": 62,
          "time": 2.30769,
          "velocity": 0.7322834645669292,
          "duration": 0.09134606249999999
        },
        {
          "name": "F4",
          "midi": 65,
          "time": 2.538459,
          "velocity": 0.7322834645669292,
          "duration": 0.09134606249999999
        },
        {
          "name": "A4",
          "midi": 69,
          "time": 2.769228,
          "velocity": 0.7322834645669292,
          "duration": 0.09134606249999999
        },
        {
          "name": "F4",
          "midi": 65,
          "time": 2.999997,
          "velocity": 0.7322834645669292,
          "duration": 0.09134606249999999
        },
        {
          "name": "G4",
          "midi": 67,
          "time": 3.230766,
          "velocity": 0.7322834645669292,
          "duration": 0.09134606249999999
        },
        {
          "name": "G3",
          "midi": 55,
          "time": 3.461535,
          "velocity": 0.7322834645669292,
          "duration": 0.09134606249999999
        },
        {
          "name": "A3",
          "midi": 57,
          "time": 3.692304,
          "velocity": 0.7322834645669292,
          "duration": 0.09134606249999999
        },
        {
          "name": "A#3",
          "midi": 58,
          "time": 3.923073,
          "velocity": 0.7322834645669292,
          "duration": 0.09134606249999999
        },
        {
          "name": "D4",
          "midi": 62,
          "time": 4.153842,
          "velocity": 0.7322834645669292,
          "duration": 0.09134606250000044
        },
        {
          "name": "F4",
          "midi": 65,
          "time": 4.3846110000000005,
          "velocity": 0.7322834645669292,
          "duration": 0.09134606250000044
        },
        {
          "name": "A4",
          "midi": 69,
          "time": 4.615380000000001,
          "velocity": 0.7322834645669292,
          "duration": 0.09134606250000044
        },
        {
          "name": "F4",
          "midi": 65,
          "time": 4.846149000000001,
          "velocity": 0.7322834645669292,
          "duration": 0.09134606250000044
        },
        {
          "name": "G4",
          "midi": 67,
          "time": 5.076918000000002,
          "velocity": 0.7322834645669292,
          "duration": 0.09134606250000044
        },
        {
          "name": "G3",
          "midi": 55,
          "time": 5.307687000000002,
          "velocity": 0.7322834645669292,
          "duration": 0.09134606250000044
        },
        {
          "name": "A3",
          "midi": 57,
          "time": 5.538456000000003,
          "velocity": 0.7322834645669292,
          "duration": 0.09134606250000044
        },
        {
          "name": "A#3",
          "midi": 58,
          "time": 5.769225000000003,
          "velocity": 0.7322834645669292,
          "duration": 0.09134606250000044
        },
        {
          "name": "D4",
          "midi": 62,
          "time": 5.999994000000004,
          "velocity": 0.7322834645669292,
          "duration": 0.09134606250000044
        },
        {
          "name": "F4",
          "midi": 65,
          "time": 6.230763000000004,
          "velocity": 0.7322834645669292,
          "duration": 0.09134606250000044
        },
        {
          "name": "A4",
          "midi": 69,
          "time": 6.4615320000000045,
          "velocity": 0.7322834645669292,
          "duration": 0.09134606250000044
        },
        {
          "name": "F4",
          "midi": 65,
          "time": 6.692301000000005,
          "velocity": 0.7322834645669292,
          "duration": 0.09134606250000044
        },
        {
          "name": "G4",
          "midi": 67,
          "time": 6.923070000000005,
          "velocity": 0.7322834645669292,
          "duration": 0.09134606250000044
        },
        {
          "name": "G3",
          "midi": 55,
          "time": 7.153839000000006,
          "velocity": 0.7322834645669292,
          "duration": 0.09134606250000044
        },
        {
          "name": "A3",
          "midi": 57,
          "time": 7.384608000000006,
          "velocity": 0.7322834645669292,
          "duration": 0.09134606250000044
        },
        {
          "name": "A#3",
          "midi": 58,
          "time": 7.615377000000007,
          "velocity": 0.7322834645669292,
          "duration": 0.09134606250000044
        },
        {
          "name": "D4",
          "midi": 62,
          "time": 7.846146000000007,
          "velocity": 0.7322834645669292,
          "duration": 0.09134606250000044
        },
        {
          "name": "F4",
          "midi": 65,
          "time": 8.076915000000007,
          "velocity": 0.7322834645669292,
          "duration": 0.09134606249999955
        },
        {
          "name": "A4",
          "midi": 69,
          "time": 8.307684000000005,
          "velocity": 0.7322834645669292,
          "duration": 0.09134606249999955
        },
        {
          "name": "F4",
          "midi": 65,
          "time": 8.538453000000004,
          "velocity": 0.7322834645669292,
          "duration": 0.09134606249999955
        },
        {
          "name": "G4",
          "midi": 67,
          "time": 8.769222000000003,
          "velocity": 0.7322834645669292,
          "duration": 0.09134606249999955
        },
        {
          "name": "G3",
          "midi": 55,
          "time": 8.999991000000001,
          "velocity": 0.7322834645669292,
          "duration": 0.09134606249999955
        },
        {
          "name": "A3",
          "midi": 57,
          "time": 9.23076,
          "velocity": 0.7322834645669292,
          "duration": 0.09134606249999955
        },
        {
          "name": "A#3",
          "midi": 58,
          "time": 9.461528999999999,
          "velocity": 0.7322834645669292,
          "duration": 0.09134606249999955
        },
        {
          "name": "D4",
          "midi": 62,
          "time": 9.692297999999997,
          "velocity": 0.7322834645669292,
          "duration": 0.09134606249999955
        },
        {
          "name": "F4",
          "midi": 65,
          "time": 9.923066999999996,
          "velocity": 0.7322834645669292,
          "duration": 0.09134606249999955
        },
        {
          "name": "A4",
          "midi": 69,
          "time": 10.153835999999995,
          "velocity": 0.7322834645669292,
          "duration": 0.09134606249999955
        },
        {
          "name": "F4",
          "midi": 65,
          "time": 10.384604999999993,
          "velocity": 0.7322834645669292,
          "duration": 0.09134606249999955
        },
        {
          "name": "G4",
          "midi": 67,
          "time": 10.615373999999992,
          "velocity": 0.7322834645669292,
          "duration": 0.09134606249999955
        },
        {
          "name": "G3",
          "midi": 55,
          "time": 10.84614299999999,
          "velocity": 0.7322834645669292,
          "duration": 0.09134606249999955
        },
        {
          "name": "A3",
          "midi": 57,
          "time": 11.07691199999999,
          "velocity": 0.7322834645669292,
          "duration": 0.09134606249999955
        },
        {
          "name": "A#3",
          "midi": 58,
          "time": 11.307680999999988,
          "velocity": 0.7322834645669292,
          "duration": 0.09134606249999955
        },
        {
          "name": "D4",
          "midi": 62,
          "time": 11.538449999999987,
          "velocity": 0.7322834645669292,
          "duration": 0.09134606249999955
        },
        {
          "name": "F4",
          "midi": 65,
          "time": 11.769218999999985,
          "velocity": 0.7322834645669292,
          "duration": 0.09134606249999955
        },
        {
          "name": "A4",
          "midi": 69,
          "time": 11.999987999999984,
          "velocity": 0.7322834645669292,
          "duration": 0.09134606249999955
        },
        {
          "name": "F4",
          "midi": 65,
          "time": 12.230756999999983,
          "velocity": 0.7322834645669292,
          "duration": 0.09134606249999955
        },
        {
          "name": "G4",
          "midi": 67,
          "time": 12.461525999999981,
          "velocity": 0.7322834645669292,
          "duration": 0.09134606249999955
        },
        {
          "name": "G3",
          "midi": 55,
          "time": 12.69229499999998,
          "velocity": 0.7322834645669292,
          "duration": 0.09134606249999955
        },
        {
          "name": "A3",
          "midi": 57,
          "time": 12.923063999999979,
          "velocity": 0.7322834645669292,
          "duration": 0.09134606249999955
        },
        {
          "name": "A#3",
          "midi": 58,
          "time": 13.153832999999977,
          "velocity": 0.7322834645669292,
          "duration": 0.09134606249999955
        },
        {
          "name": "D4",
          "midi": 62,
          "time": 13.384601999999976,
          "velocity": 0.7322834645669292,
          "duration": 0.09134606249999955
        },
        {
          "name": "F4",
          "midi": 65,
          "time": 13.615370999999975,
          "velocity": 0.7322834645669292,
          "duration": 0.09134606249999955
        },
        {
          "name": "A4",
          "midi": 69,
          "time": 13.846139999999973,
          "velocity": 0.7322834645669292,
          "duration": 0.09134606249999955
        },
        {
          "name": "F4",
          "midi": 65,
          "time": 14.076908999999972,
          "velocity": 0.7322834645669292,
          "duration": 0.09134606249999955
        },
        {
          "name": "G4",
          "midi": 67,
          "time": 14.30767799999997,
          "velocity": 0.7322834645669292,
          "duration": 0.09134606249999955
        },
        {
          "name": "G3",
          "midi": 55,
          "time": 14.53844699999997,
          "velocity": 0.7322834645669292,
          "duration": 0.09134606249999955
        },
        {
          "name": "A3",
          "midi": 57,
          "time": 14.769215999999968,
          "velocity": 0.7322834645669292,
          "duration": 0.09134606249999955
        },
        {
          "name": "A#3",
          "midi": 58,
          "time": 14.999984999999967,
          "velocity": 0.7322834645669292,
          "duration": 0.09134606249999955
        },
        {
          "name": "D4",
          "midi": 62,
          "time": 15.230753999999965,
          "velocity": 0.7322834645669292,
          "duration": 0.09134606249999955
        },
        {
          "name": "F4",
          "midi": 65,
          "time": 15.461522999999964,
          "velocity": 0.7322834645669292,
          "duration": 0.09134606249999955
        },
        {
          "name": "A4",
          "midi": 69,
          "time": 15.692291999999963,
          "velocity": 0.7322834645669292,
          "duration": 0.09134606249999955
        },
        {
          "name": "F4",
          "midi": 65,
          "time": 15.923060999999961,
          "velocity": 0.7322834645669292,
          "duration": 0.09134606250000132
        },
        {
          "name": "G4",
          "midi": 67,
          "time": 16.153829999999964,
          "velocity": 0.7322834645669292,
          "duration": 0.09134606250000132
        },
        {
          "name": "G3",
          "midi": 55,
          "time": 16.384598999999966,
          "velocity": 0.7322834645669292,
          "duration": 0.09134606250000132
        },
        {
          "name": "A3",
          "midi": 57,
          "time": 16.615367999999968,
          "velocity": 0.7322834645669292,
          "duration": 0.09134606250000132
        },
        {
          "name": "A#3",
          "midi": 58,
          "time": 16.84613699999997,
          "velocity": 0.7322834645669292,
          "duration": 0.09134606250000132
        },
        {
          "name": "D4",
          "midi": 62,
          "time": 17.076905999999973,
          "velocity": 0.7322834645669292,
          "duration": 0.09134606250000132
        },
        {
          "name": "F4",
          "midi": 65,
          "time": 17.307674999999975,
          "velocity": 0.7322834645669292,
          "duration": 0.09134606250000132
        },
        {
          "name": "A4",
          "midi": 69,
          "time": 17.538443999999977,
          "velocity": 0.7322834645669292,
          "duration": 0.09134606250000132
        },
        {
          "name": "F4",
          "midi": 65,
          "time": 17.76921299999998,
          "velocity": 0.7322834645669292,
          "duration": 0.09134606250000132
        }
      ],
      "controlChanges": {},
      "id": 1,
      "name": "Vintage Pluck",
      "channelNumber": 0,
      "isPercussion": false
    },
    {
      "startTime": 6.923069999999999,
      "duration": 17.85382830000001,
      "length": 45,
      "notes": [
        {
          "name": "G3",
          "midi": 55,
          "time": 6.923069999999999,
          "velocity": 1,
          "duration": 0.461538
        },
        {
          "name": "D4",
          "midi": 62,
          "time": 7.384607999999999,
          "velocity": 1,
          "duration": 0.08269222499999973
        },
        {
          "name": "G4",
          "midi": 67,
          "time": 7.384607999999999,
          "velocity": 1,
          "duration": 0.0846152999999994
        },
        {
          "name": "D4",
          "midi": 62,
          "time": 8.076914999999998,
          "velocity": 1,
          "duration": 0.08269222500000062
        },
        {
          "name": "G4",
          "midi": 67,
          "time": 8.076914999999998,
          "velocity": 1,
          "duration": 0.08461530000000117
        },
        {
          "name": "D4",
          "midi": 62,
          "time": 8.538452999999999,
          "velocity": 1,
          "duration": 0.08269222500000062
        },
        {
          "name": "G4",
          "midi": 67,
          "time": 8.538452999999999,
          "velocity": 1,
          "duration": 0.08461530000000117
        },
        {
          "name": "D4",
          "midi": 62,
          "time": 8.999991,
          "velocity": 1,
          "duration": 0.08269222500000062
        },
        {
          "name": "G4",
          "midi": 67,
          "time": 8.999991,
          "velocity": 1,
          "duration": 0.08461530000000117
        },
        {
          "name": "D4",
          "midi": 62,
          "time": 9.23076,
          "velocity": 1,
          "duration": 0.08269222500000062
        },
        {
          "name": "G4",
          "midi": 67,
          "time": 9.23076,
          "velocity": 1,
          "duration": 0.08461530000000117
        },
        {
          "name": "D4",
          "midi": 62,
          "time": 9.923067000000001,
          "velocity": 1,
          "duration": 0.08269222500000062
        },
        {
          "name": "G4",
          "midi": 67,
          "time": 9.923067000000001,
          "velocity": 1,
          "duration": 0.08461530000000117
        },
        {
          "name": "D4",
          "midi": 62,
          "time": 10.384605000000002,
          "velocity": 1,
          "duration": 0.08269222500000062
        },
        {
          "name": "G4",
          "midi": 67,
          "time": 10.384605000000002,
          "velocity": 1,
          "duration": 0.08461530000000117
        },
        {
          "name": "G3",
          "midi": 55,
          "time": 10.615374000000003,
          "velocity": 1,
          "duration": 0.4615379999999991
        },
        {
          "name": "D4",
          "midi": 62,
          "time": 11.076912000000002,
          "velocity": 1,
          "duration": 0.08269222500000062
        },
        {
          "name": "G4",
          "midi": 67,
          "time": 11.076912000000002,
          "velocity": 1,
          "duration": 0.08461530000000117
        },
        {
          "name": "D4",
          "midi": 62,
          "time": 11.769219000000003,
          "velocity": 1,
          "duration": 0.08269222500000062
        },
        {
          "name": "G4",
          "midi": 67,
          "time": 11.769219000000003,
          "velocity": 1,
          "duration": 0.08461530000000117
        },
        {
          "name": "D4",
          "midi": 62,
          "time": 12.230757000000004,
          "velocity": 1,
          "duration": 0.08269222500000062
        },
        {
          "name": "G4",
          "midi": 67,
          "time": 12.230757000000004,
          "velocity": 1,
          "duration": 0.08461530000000117
        },
        {
          "name": "D4",
          "midi": 62,
          "time": 12.692295000000005,
          "velocity": 1,
          "duration": 0.08269222500000062
        },
        {
          "name": "G4",
          "midi": 67,
          "time": 12.692295000000005,
          "velocity": 1,
          "duration": 0.08461530000000117
        },
        {
          "name": "D4",
          "midi": 62,
          "time": 12.923064000000005,
          "velocity": 1,
          "duration": 0.08269222500000062
        },
        {
          "name": "G4",
          "midi": 67,
          "time": 12.923064000000005,
          "velocity": 1,
          "duration": 0.08461530000000117
        },
        {
          "name": "D4",
          "midi": 62,
          "time": 13.615371000000007,
          "velocity": 1,
          "duration": 0.08269222500000062
        },
        {
          "name": "G4",
          "midi": 67,
          "time": 13.615371000000007,
          "velocity": 1,
          "duration": 0.08461530000000117
        },
        {
          "name": "D4",
          "midi": 62,
          "time": 14.076909000000008,
          "velocity": 1,
          "duration": 0.08269222500000062
        },
        {
          "name": "G4",
          "midi": 67,
          "time": 14.076909000000008,
          "velocity": 1,
          "duration": 0.08461530000000117
        },
        {
          "name": "G3",
          "midi": 55,
          "time": 14.307678000000008,
          "velocity": 1,
          "duration": 0.4615379999999991
        },
        {
          "name": "D4",
          "midi": 62,
          "time": 14.769216000000007,
          "velocity": 1,
          "duration": 0.08269222500000062
        },
        {
          "name": "G4",
          "midi": 67,
          "time": 14.769216000000007,
          "velocity": 1,
          "duration": 0.08461530000000117
        },
        {
          "name": "D4",
          "midi": 62,
          "time": 15.461523000000009,
          "velocity": 1,
          "duration": 0.08269222500000062
        },
        {
          "name": "G4",
          "midi": 67,
          "time": 15.461523000000009,
          "velocity": 1,
          "duration": 0.08461530000000117
        },
        {
          "name": "D4",
          "midi": 62,
          "time": 15.92306100000001,
          "velocity": 1,
          "duration": 0.08269222500000062
        },
        {
          "name": "G4",
          "midi": 67,
          "time": 15.92306100000001,
          "velocity": 1,
          "duration": 0.08461530000000117
        },
        {
          "name": "D4",
          "midi": 62,
          "time": 16.384599000000012,
          "velocity": 1,
          "duration": 0.08269222499999884
        },
        {
          "name": "G4",
          "midi": 67,
          "time": 16.384599000000012,
          "velocity": 1,
          "duration": 0.0846152999999994
        },
        {
          "name": "D4",
          "midi": 62,
          "time": 16.61536800000001,
          "velocity": 1,
          "duration": 0.08269222499999884
        },
        {
          "name": "G4",
          "midi": 67,
          "time": 16.61536800000001,
          "velocity": 1,
          "duration": 0.0846152999999994
        },
        {
          "name": "D4",
          "midi": 62,
          "time": 17.30767500000001,
          "velocity": 1,
          "duration": 0.08269222499999884
        },
        {
          "name": "G4",
          "midi": 67,
          "time": 17.30767500000001,
          "velocity": 1,
          "duration": 0.0846152999999994
        },
        {
          "name": "D4",
          "midi": 62,
          "time": 17.76921300000001,
          "velocity": 1,
          "duration": 0.08269222499999884
        },
        {
          "name": "G4",
          "midi": 67,
          "time": 17.76921300000001,
          "velocity": 1,
          "duration": 0.0846152999999994
        }
      ],
      "controlChanges": {},
      "id": 2,
      "name": "After Party",
      "channelNumber": 0,
      "isPercussion": false
    }
  ]
}