{
  "header": {
    "PPQ": 480,
    "timeSignature": [
      4,
      4
    ],
    "bpm": 260.00026000026,
    "name": ""
  },
  "tempo": [
    {
      "absoluteTime": 0,
      "seconds": 0,
      "bpm": 260.00026000026
    }
  ],
  "timeSignature": [
    {
      "absoluteTime": 0,
      "seconds": 0,
      "numerator": 1,
      "denominator": 2,
      "click": 24,
      "notesQ": 8
    },
    {
      "absoluteTime": 480,
      "seconds": 0.23076899999999997,
      "numerator": 4,
      "denominator": 2,
      "click": 24,
      "notesQ": 8
    }
  ],
  "startTime": 0,
  "duration": 41.87832350625007,
  "tracks": [
    {
      "startTime": 0,
      "duration": 41.87832350625007,
      "length": 240,
      "notes": [
        {
          "name": "A#4",
          "midi": 70,
          "time": 0,
          "velocity": 0.6299212598425197,
          "duration": 0.10913450624999999
        },
        {
          "name": "F4",
          "midi": 65,
          "time": 0.23076899999999997,
          "velocity": 0.6299212598425197,
          "duration": 0.10913450625000001
        },
        {
          "name": "C#5",
          "midi": 73,
          "time": 0.461538,
          "velocity": 0.6299212598425197,
          "duration": 0.10913450624999999
        },
        {
          "name": "C5",
          "midi": 72,
          "time": 0.692307,
          "velocity": 0.6299212598425197,
          "duration": 0.10913450624999999
        },
        {
          "name": "A#4",
          "midi": 70,
          "time": 0.8076915,
          "velocity": 0.6299212598425197,
          "duration": 0.10913450624999999
        },
        {
          "name": "A4",
          "midi": 69,
          "time": 0.923076,
          "velocity": 0.6299212598425197,
          "duration": 0.10913450624999999
        },
        {
          "name": "G4",
          "midi": 67,
          "time": 1.0384605,
          "velocity": 0.6299212598425197,
          "duration": 0.10913450624999999
        },
        {
          "name": "A4",
          "midi": 69,
          "time": 1.153845,
          "velocity": 0.6299212598425197,
          "duration": 0.10913450624999999
        },
        {
          "name": "F4",
          "midi": 65,
          "time": 1.384614,
          "velocity": 0.6299212598425197,
          "duration": 0.10913450624999999
        },
        {
          "name": "A#4",
          "midi": 70,
          "time": 1.615383,
          "velocity": 0.6299212598425197,
          "duration": 0.10913450624999999
        },
        {
          "name": "C#4",
          "midi": 61,
          "time": 1.846152,
          "velocity": 0.6299212598425197,
          "duration": 6.801435506250002
        },
        {
          "name": "F#4",
          "midi": 66,
          "time": 2.076921,
          "velocity": 0.6299212598425197,
          "duration": 0.4379803312499999
        },
        {
          "name": "F4",
          "midi": 65,
          "time": 2.538459,
          "velocity": 0.6299212598425197,
          "duration": 0.2187497812500001
        },
        {
          "name": "A4",
          "midi": 69,
          "time": 2.769228,
          "velocity": 0.6299212598425197,
          "duration": 0.2187497812500001
        },
        {
          "name": "A#4",
          "midi": 70,
          "time": 2.999997,
          "velocity": 0.6299212598425197,
          "duration": 0.10913450624999976
        },
        {
          "name": "F5",
          "midi": 77,
          "time": 3.2307659999999996,
          "velocity": 0.6299212598425197,
          "duration": 0.10913450624999976
        },
        {
          "name": "D#5",
          "midi": 75,
          "time": 3.461534999999999,
          "velocity": 0.6299212598425197,
          "duration": 0.10913450624999976
        },
        {
          "name": "C#5",
          "midi": 73,
          "time": 3.576919499999999,
          "velocity": 0.6299212598425197,
          "duration": 0.10913450625000021
        },
        {
          "name": "C5",
          "midi": 72,
          "time": 3.692303999999999,
          "velocity": 0.6299212598425197,
          "duration": 0.10913450625000021
        },
        {
          "name": "A#4",
          "midi": 70,
          "time": 3.8076884999999994,
          "velocity": 0.6299212598425197,
          "duration": 0.10913450625000021
        },
        {
          "name": "C5",
          "midi": 72,
          "time": 3.9230729999999996,
          "velocity": 0.6299212598425197,
          "duration": 0.10913450625000021
        },
        {
          "name": "F#5",
          "midi": 78,
          "time": 4.153842,
          "velocity": 0.6299212598425197,
          "duration": 0.10913450625000021
        },
        {
          "name": "F5",
          "midi": 77,
          "time": 4.3846110000000005,
          "velocity": 0.6299212598425197,
          "duration": 0.10913450625000021
        },
        {
          "name": "D#5",
          "midi": 75,
          "time": 4.499995500000001,
          "velocity": 0.6299212598425197,
          "duration": 0.10913450625000021
        },
        {
          "name": "C#5",
          "midi": 73,
          "time": 4.615380000000001,
          "velocity": 0.6299212598425197,
          "duration": 0.10913450625000021
        },
        {
          "name": "C5",
          "midi": 72,
          "time": 4.730764500000001,
          "velocity": 0.6299212598425197,
          "duration": 0.10913450625000021
        },
        {
          "name": "C#5",
          "midi": 73,
          "time": 4.846149000000001,
          "velocity": 0.6299212598425197,
          "duration": 0.10913450625000021
        },
        {
          "name": "A#5",
          "midi": 82,
          "time": 5.076918000000002,
          "velocity": 0.6299212598425197,
          "duration": 0.10913450625000021
        },
        {
          "name": "A5",
          "midi": 81,
          "time": 5.307687000000002,
          "velocity": 0.6299212598425197,
          "duration": 0.10913450625000021
        },
        {
          "name": "F#5",
          "midi": 78,
          "time": 5.4230715000000025,
          "velocity": 0.6299212598425197,
          "duration": 0.10913450625000021
        },
        {
          "name": "F5",
          "midi": 77,
          "time": 5.538456000000003,
          "velocity": 0.6299212598425197,
          "duration": 0.10913450625000021
        },
        {
          "name": "E5",
          "midi": 76,
          "time": 5.653840500000003,
          "velocity": 0.6299212598425197,
          "duration": 0.10913450625000021
        },
        {
          "name": "D#5",
          "midi": 75,
          "time": 5.769225000000003,
          "velocity": 0.6299212598425197,
          "duration": 0.43798033125000035
        },
        {
          "name": "A#5",
          "midi": 82,
          "time": 5.769225000000003,
          "velocity": 0.6299212598425197,
          "duration": 0.43798033125000035
        },
        {
          "name": "C#6",
          "midi": 85,
          "time": 5.769225000000003,
          "velocity": 0.6299212598425197,
          "duration": 0.43798033125000035
        },
        {
          "name": "F5",
          "midi": 77,
          "time": 6.230763000000003,
          "velocity": 0.6299212598425197,
          "duration": 0.43798033125000035
        },
        {
          "name": "A5",
          "midi": 81,
          "time": 6.230763000000003,
          "velocity": 0.6299212598425197,
          "duration": 0.43798033125000035
        },
        {
          "name": "C6",
          "midi": 84,
          "time": 6.230763000000003,
          "velocity": 0.6299212598425197,
          "duration": 0.43798033125000035
        },
        {
          "name": "D#5",
          "midi": 75,
          "time": 7.384608000000004,
          "velocity": 0.6299212598425197,
          "duration": 0.10913450625000021
        },
        {
          "name": "A5",
          "midi": 81,
          "time": 7.384608000000004,
          "velocity": 0.6299212598425197,
          "duration": 0.10913450625000021
        },
        {
          "name": "C6",
          "midi": 84,
          "time": 7.384608000000004,
          "velocity": 0.6299212598425197,
          "duration": 0.10913450625000021
        },
        {
          "name": "F#5",
          "midi": 78,
          "time": 8.307684000000004,
          "velocity": 0.6299212598425197,
          "duration": 0.10913450624999932
        },
        {
          "name": "A5",
          "midi": 81,
          "time": 8.307684000000004,
          "velocity": 0.6299212598425197,
          "duration": 0.10913450624999932
        },
        {
          "name": "C6",
          "midi": 84,
          "time": 8.307684000000004,
          "velocity": 0.6299212598425197,
          "duration": 0.10913450624999932
        },
        {
          "name": "D#6",
          "midi": 87,
          "time": 8.307684000000004,
          "velocity": 0.6299212598425197,
          "duration": 0.10913450624999932
        },
        {
          "name": "C#4",
          "midi": 61,
          "time": 8.538453000000002,
          "velocity": 0.6299212598425197,
          "duration": 33.339870506250065
        },
        {
          "name": "A#4",
          "midi": 70,
          "time": 8.769222000000001,
          "velocity": 0.6299212598425197,
          "duration": 0.10913450624999932
        },
        {
          "name": "C5",
          "midi": 72,
          "time": 8.999991,
          "velocity": 0.6299212598425197,
          "duration": 0.10913450624999932
        },
        {
          "name": "D#5",
          "midi": 75,
          "time": 9.230759999999998,
          "velocity": 0.6299212598425197,
          "duration": 0.10913450624999932
        },
        {
          "name": "C#5",
          "midi": 73,
          "time": 9.461528999999997,
          "velocity": 0.6299212598425197,
          "duration": 0.10913450624999932
        },
        {
          "name": "F#5",
          "midi": 78,
          "time": 9.692297999999996,
          "velocity": 0.6299212598425197,
          "duration": 0.10913450624999932
        },
        {
          "name": "F5",
          "midi": 77,
          "time": 9.923066999999994,
          "velocity": 0.6299212598425197,
          "duration": 0.10913450624999932
        },
        {
          "name": "A5",
          "midi": 81,
          "time": 10.153835999999993,
          "velocity": 0.6299212598425197,
          "duration": 0.10913450624999932
        },
        {
          "name": "A#5",
          "midi": 82,
          "time": 10.384604999999992,
          "velocity": 0.6299212598425197,
          "duration": 0.10913450624999932
        },
        {
          "name": "F5",
          "midi": 77,
          "time": 10.61537399999999,
          "velocity": 0.6299212598425197,
          "duration": 0.10913450624999932
        },
        {
          "name": "F#5",
          "midi": 78,
          "time": 10.73075849999999,
          "velocity": 0.6299212598425197,
          "duration": 0.10913450624999932
        },
        {
          "name": "F5",
          "midi": 77,
          "time": 10.846142999999989,
          "velocity": 0.6299212598425197,
          "duration": 0.10913450624999932
        },
        {
          "name": "D#5",
          "midi": 75,
          "time": 10.961527499999988,
          "velocity": 0.6299212598425197,
          "duration": 0.10913450624999932
        },
        {
          "name": "C#5",
          "midi": 73,
          "time": 11.076911999999988,
          "velocity": 0.6299212598425197,
          "duration": 0.10913450624999932
        },
        {
          "name": "C5",
          "midi": 72,
          "time": 11.192296499999987,
          "velocity": 0.6299212598425197,
          "duration": 0.10913450624999932
        },
        {
          "name": "A#5",
          "midi": 82,
          "time": 11.307680999999986,
          "velocity": 0.6299212598425197,
          "duration": 0.10913450624999932
        },
        {
          "name": "F5",
          "midi": 77,
          "time": 11.538449999999985,
          "velocity": 0.6299212598425197,
          "duration": 0.10913450624999932
        },
        {
          "name": "F#5",
          "midi": 78,
          "time": 11.653834499999984,
          "velocity": 0.6299212598425197,
          "duration": 0.10913450624999932
        },
        {
          "name": "F5",
          "midi": 77,
          "time": 11.769218999999984,
          "velocity": 0.6299212598425197,
          "duration": 0.10913450624999932
        },
        {
          "name": "D#5",
          "midi": 75,
          "time": 11.884603499999983,
          "velocity": 0.6299212598425197,
          "duration": 0.10913450624999932
        },
        {
          "name": "C#5",
          "midi": 73,
          "time": 11.999987999999982,
          "velocity": 0.6299212598425197,
          "duration": 0.10913450624999932
        },
        {
          "name": "C5",
          "midi": 72,
          "time": 12.115372499999982,
          "velocity": 0.6299212598425197,
          "duration": 0.10913450624999932
        },
        {
          "name": "C6",
          "midi": 84,
          "time": 12.230756999999981,
          "velocity": 0.6299212598425197,
          "duration": 0.10913450624999932
        },
        {
          "name": "D#5",
          "midi": 75,
          "time": 12.46152599999998,
          "velocity": 0.6299212598425197,
          "duration": 0.10913450624999932
        },
        {
          "name": "F5",
          "midi": 77,
          "time": 12.576910499999979,
          "velocity": 0.6299212598425197,
          "duration": 0.10913450624999932
        },
        {
          "name": "D#5",
          "midi": 75,
          "time": 12.692294999999978,
          "velocity": 0.6299212598425197,
          "duration": 0.10913450624999932
        },
        {
          "name": "C#5",
          "midi": 73,
          "time": 12.807679499999978,
          "velocity": 0.6299212598425197,
          "duration": 0.10913450624999932
        },
        {
          "name": "C5",
          "midi": 72,
          "time": 12.923063999999977,
          "velocity": 0.6299212598425197,
          "duration": 0.10913450624999932
        },
        {
          "name": "A#4",
          "midi": 70,
          "time": 13.038448499999976,
          "velocity": 0.6299212598425197,
          "duration": 0.10913450624999932
        },
        {
          "name": "C6",
          "midi": 84,
          "time": 13.153832999999976,
          "velocity": 0.6299212598425197,
          "duration": 0.10913450624999932
        },
        {
          "name": "D#6",
          "midi": 87,
          "time": 13.384601999999974,
          "velocity": 0.6299212598425197,
          "duration": 0.10913450624999932
        },
        {
          "name": "C#6",
          "midi": 85,
          "time": 13.499986499999974,
          "velocity": 0.6299212598425197,
          "duration": 0.10913450624999932
        },
        {
          "name": "D#6",
          "midi": 87,
          "time": 13.615370999999973,
          "velocity": 0.6299212598425197,
          "duration": 0.10913450624999932
        },
        {
          "name": "F#6",
          "midi": 90,
          "time": 13.730755499999972,
          "velocity": 0.6299212598425197,
          "duration": 0.10913450624999932
        },
        {
          "name": "F6",
          "midi": 89,
          "time": 13.846139999999972,
          "velocity": 0.6299212598425197,
          "duration": 0.10913450624999932
        },
        {
          "name": "D#6",
          "midi": 87,
          "time": 13.961524499999971,
          "velocity": 0.6299212598425197,
          "duration": 0.10913450624999932
        },
        {
          "name": "C#6",
          "midi": 85,
          "time": 14.07690899999997,
          "velocity": 0.6299212598425197,
          "duration": 0.10913450624999932
        },
        {
          "name": "C#6",
          "midi": 85,
          "time": 14.307677999999969,
          "velocity": 0.6299212598425197,
          "duration": 0.10913450624999932
        },
        {
          "name": "C6",
          "midi": 84,
          "time": 14.423062499999968,
          "velocity": 0.6299212598425197,
          "duration": 0.10913450624999932
        },
        {
          "name": "C#6",
          "midi": 85,
          "time": 14.538446999999968,
          "velocity": 0.6299212598425197,
          "duration": 0.10913450624999932
        },
        {
          "name": "C6",
          "midi": 84,
          "time": 14.653831499999967,
          "velocity": 0.6299212598425197,
          "duration": 0.10913450624999932
        },
        {
          "name": "D#6",
          "midi": 87,
          "time": 14.769215999999966,
          "velocity": 0.6299212598425197,
          "duration": 0.10913450624999932
        },
        {
          "name": "C6",
          "midi": 84,
          "time": 14.884600499999966,
          "velocity": 0.6299212598425197,
          "duration": 0.10913450624999932
        },
        {
          "name": "C#6",
          "midi": 85,
          "time": 14.999984999999965,
          "velocity": 0.6299212598425197,
          "duration": 0.10913450624999932
        },
        {
          "name": "C#6",
          "midi": 85,
          "time": 15.230753999999964,
          "velocity": 0.6299212598425197,
          "duration": 0.10913450624999932
        },
        {
          "name": "C6",
          "midi": 84,
          "time": 15.346138499999963,
          "velocity": 0.6299212598425197,
          "duration": 0.10913450624999932
        },
        {
          "name": "C#6",
          "midi": 85,
          "time": 15.461522999999962,
          "velocity": 0.6299212598425197,
          "duration": 0.10913450624999932
        },
        {
          "name": "C6",
          "midi": 84,
          "time": 15.576907499999962,
          "velocity": 0.6299212598425197,
          "duration": 0.10913450624999932
        },
        {
          "name": "F6",
          "midi": 89,
          "time": 15.692291999999961,
          "velocity": 0.6299212598425197,
          "duration": 0.10913450624999932
        },
        {
          "name": "C#6",
          "midi": 85,
          "time": 15.80767649999996,
          "velocity": 0.6299212598425197,
          "duration": 0.10913450624999932
        },
        {
          "name": "C6",
          "midi": 84,
          "time": 15.92306099999996,
          "velocity": 0.6299212598425197,
          "duration": 0.10913450624999932
        },
        {
          "name": "C6",
          "midi": 84,
          "time": 16.15382999999996,
          "velocity": 0.6299212598425197,
          "duration": 0.1091345062500011
        },
        {
          "name": "A#5",
          "midi": 82,
          "time": 16.26921449999996,
          "velocity": 0.6299212598425197,
          "duration": 0.1091345062500011
        },
        {
          "name": "C6",
          "midi": 84,
          "time": 16.384598999999962,
          "velocity": 0.6299212598425197,
          "duration": 0.1091345062500011
        },
        {
          "name": "D#6",
          "midi": 87,
          "time": 16.499983499999963,
          "velocity": 0.6299212598425197,
          "duration": 0.1091345062500011
        },
        {
          "name": "C#6",
          "midi": 85,
          "time": 16.615367999999965,
          "velocity": 0.6299212598425197,
          "duration": 0.1091345062500011
        },
        {
          "name": "C6",
          "midi": 84,
          "time": 16.730752499999966,
          "velocity": 0.6299212598425197,
          "duration": 0.1091345062500011
        },
        {
          "name": "C6",
          "midi": 84,
          "time": 16.846136999999967,
          "velocity": 0.6299212598425197,
          "duration": 0.1091345062500011
        },
        {
          "name": "C6",
          "midi": 84,
          "time": 17.07690599999997,
          "velocity": 0.6299212598425197,
          "duration": 0.1091345062500011
        },
        {
          "name": "C#6",
          "midi": 85,
          "time": 17.19229049999997,
          "velocity": 0.6299212598425197,
          "duration": 0.1091345062500011
        },
        {
          "name": "D#6",
          "midi": 87,
          "time": 17.30767499999997,
          "velocity": 0.6299212598425197,
          "duration": 0.1091345062500011
        },
        {
          "name": "F#6",
          "midi": 90,
          "time": 17.423059499999972,
          "velocity": 0.6299212598425197,
          "duration": 0.1091345062500011
        },
        {
          "name": "F6",
          "midi": 89,
          "time": 17.538443999999973,
          "velocity": 0.6299212598425197,
          "duration": 0.1091345062500011
        },
        {
          "name": "D#6",
          "midi": 87,
          "time": 17.653828499999975,
          "velocity": 0.6299212598425197,
          "duration": 0.1091345062500011
        },
        {
          "name": "C#6",
          "midi": 85,
          "time": 17.769212999999976,
          "velocity": 0.6299212598425197,
          "duration": 0.1091345062500011
        },
        {
          "name": "F5",
          "midi": 77,
          "time": 17.999981999999978,
          "velocity": 0.6299212598425197,
          "duration": 0.1091345062500011
        },
        {
          "name": "A#4",
          "midi": 70,
          "time": 18.23075099999998,
          "velocity": 0.6299212598425197,
          "duration": 0.1091345062500011
        },
        {
          "name": "A#5",
          "midi": 82,
          "time": 18.461519999999982,
          "velocity": 0.6299212598425197,
          "duration": 0.1091345062500011
        },
        {
          "name": "G#5",
          "midi": 80,
          "time": 18.692288999999985,
          "velocity": 0.6299212598425197,
          "duration": 0.1091345062500011
        },
        {
          "name": "F#5",
          "midi": 78,
          "time": 18.807673499999986,
          "velocity": 0.6299212598425197,
          "duration": 0.1091345062500011
        },
        {
          "name": "F5",
          "midi": 77,
          "time": 18.923057999999987,
          "velocity": 0.6299212598425197,
          "duration": 0.1091345062500011
        },
        {
          "name": "D#5",
          "midi": 75,
          "time": 19.038442499999988,
          "velocity": 0.6299212598425197,
          "duration": 0.1091345062500011
        },
        {
          "name": "F5",
          "midi": 77,
          "time": 19.15382699999999,
          "velocity": 0.6299212598425197,
          "duration": 0.1091345062500011
        },
        {
          "name": "F5",
          "midi": 77,
          "time": 20.76920999999999,
          "velocity": 0.6299212598425197,
          "duration": 0.16394214374999905
        },
        {
          "name": "F5",
          "midi": 77,
          "time": 20.94228674999999,
          "velocity": 0.6299212598425197,
          "duration": 0.05432686874999959
        },
        {
          "name": "A#4",
          "midi": 70,
          "time": 20.99997899999999,
          "velocity": 0.6299212598425197,
          "duration": 0.1091345062500011
        },
        {
          "name": "A#5",
          "midi": 82,
          "time": 21.23074799999999,
          "velocity": 0.6299212598425197,
          "duration": 0.1091345062500011
        },
        {
          "name": "G#5",
          "midi": 80,
          "time": 21.461516999999994,
          "velocity": 0.6299212598425197,
          "duration": 0.1091345062500011
        },
        {
          "name": "F#5",
          "midi": 78,
          "time": 21.576901499999995,
          "velocity": 0.6299212598425197,
          "duration": 0.1091345062500011
        },
        {
          "name": "F5",
          "midi": 77,
          "time": 21.692285999999996,
          "velocity": 0.6299212598425197,
          "duration": 0.1091345062500011
        },
        {
          "name": "F#5",
          "midi": 78,
          "time": 21.807670499999997,
          "velocity": 0.6299212598425197,
          "duration": 0.1091345062500011
        },
        {
          "name": "F5",
          "midi": 77,
          "time": 21.923054999999998,
          "velocity": 0.6299212598425197,
          "duration": 0.1091345062500011
        },
        {
          "name": "F#4",
          "midi": 66,
          "time": 23.769206999999998,
          "velocity": 0.6299212598425197,
          "duration": 0.1091345062500011
        },
        {
          "name": "A4",
          "midi": 69,
          "time": 23.769206999999998,
          "velocity": 0.6299212598425197,
          "duration": 0.1091345062500011
        },
        {
          "name": "C5",
          "midi": 72,
          "time": 23.769206999999998,
          "velocity": 0.6299212598425197,
          "duration": 0.1091345062500011
        },
        {
          "name": "A#4",
          "midi": 70,
          "time": 24.692283,
          "velocity": 0.6299212598425197,
          "duration": 0.1091345062500011
        },
        {
          "name": "C#5",
          "midi": 73,
          "time": 24.692283,
          "velocity": 0.6299212598425197,
          "duration": 0.1091345062500011
        },
        {
          "name": "D#5",
          "midi": 75,
          "time": 25.615359,
          "velocity": 0.6299212598425197,
          "duration": 0.1091345062500011
        },
        {
          "name": "F#5",
          "midi": 78,
          "time": 25.615359,
          "velocity": 0.6299212598425197,
          "duration": 0.1091345062500011
        },
        {
          "name": "C6",
          "midi": 84,
          "time": 25.615359,
          "velocity": 0.6299212598425197,
          "duration": 0.1091345062500011
        },
        {
          "name": "D#5",
          "midi": 75,
          "time": 25.846128000000004,
          "velocity": 0.6299212598425197,
          "duration": 0.1091345062500011
        },
        {
          "name": "F#5",
          "midi": 78,
          "time": 25.846128000000004,
          "velocity": 0.6299212598425197,
          "duration": 0.1091345062500011
        },
        {
          "name": "A#5",
          "midi": 82,
          "time": 25.846128000000004,
          "velocity": 0.6299212598425197,
          "duration": 0.1091345062500011
        },
        {
          "name": "F#5",
          "midi": 78,
          "time": 26.076897000000006,
          "velocity": 0.6299212598425197,
          "duration": 0.43798033124999947
        },
        {
          "name": "A#5",
          "midi": 82,
          "time": 26.076897000000006,
          "velocity": 0.6299212598425197,
          "duration": 0.43798033124999947
        },
        {
          "name": "F5",
          "midi": 77,
          "time": 26.538435000000007,
          "velocity": 0.6299212598425197,
          "duration": 0.437980331250003
        },
        {
          "name": "A5",
          "midi": 81,
          "time": 26.538435000000007,
          "velocity": 0.6299212598425197,
          "duration": 0.437980331250003
        },
        {
          "name": "C#6",
          "midi": 85,
          "time": 26.538435000000007,
          "velocity": 0.6299212598425197,
          "duration": 0.21874978125000055
        },
        {
          "name": "C6",
          "midi": 84,
          "time": 26.76920400000001,
          "velocity": 0.6299212598425197,
          "duration": 0.21874978125000055
        },
        {
          "name": "A#5",
          "midi": 82,
          "time": 26.99997300000001,
          "velocity": 0.6299212598425197,
          "duration": 0.1091345062500011
        },
        {
          "name": "A5",
          "midi": 81,
          "time": 27.115357500000012,
          "velocity": 0.6299212598425197,
          "duration": 0.1091345062500011
        },
        {
          "name": "A#5",
          "midi": 82,
          "time": 27.230742000000014,
          "velocity": 0.6299212598425197,
          "duration": 0.1091345062500011
        },
        {
          "name": "F5",
          "midi": 77,
          "time": 27.346126500000015,
          "velocity": 0.6299212598425197,
          "duration": 0.1091345062500011
        },
        {
          "name": "D#5",
          "midi": 75,
          "time": 27.461511000000016,
          "velocity": 0.6299212598425197,
          "duration": 0.1091345062500011
        },
        {
          "name": "F#5",
          "midi": 78,
          "time": 27.576895500000017,
          "velocity": 0.6299212598425197,
          "duration": 0.1091345062500011
        },
        {
          "name": "F5",
          "midi": 77,
          "time": 27.692280000000018,
          "velocity": 0.6299212598425197,
          "duration": 0.1091345062500011
        },
        {
          "name": "D#5",
          "midi": 75,
          "time": 27.80766450000002,
          "velocity": 0.6299212598425197,
          "duration": 0.1091345062500011
        },
        {
          "name": "F5",
          "midi": 77,
          "time": 27.92304900000002,
          "velocity": 0.6299212598425197,
          "duration": 0.1091345062500011
        },
        {
          "name": "A5",
          "midi": 81,
          "time": 28.03843350000002,
          "velocity": 0.6299212598425197,
          "duration": 0.1091345062500011
        },
        {
          "name": "C6",
          "midi": 84,
          "time": 28.153818000000022,
          "velocity": 0.6299212598425197,
          "duration": 0.1091345062500011
        },
        {
          "name": "F6",
          "midi": 89,
          "time": 28.269202500000024,
          "velocity": 0.6299212598425197,
          "duration": 0.1091345062500011
        },
        {
          "name": "C#6",
          "midi": 85,
          "time": 28.384587000000025,
          "velocity": 0.6299212598425197,
          "duration": 0.1091345062500011
        },
        {
          "name": "C6",
          "midi": 84,
          "time": 28.499971500000026,
          "velocity": 0.6299212598425197,
          "duration": 0.1091345062500011
        },
        {
          "name": "A#5",
          "midi": 82,
          "time": 28.615356000000027,
          "velocity": 0.6299212598425197,
          "duration": 0.1091345062500011
        },
        {
          "name": "F5",
          "midi": 77,
          "time": 28.730740500000028,
          "velocity": 0.6299212598425197,
          "duration": 0.1091345062500011
        },
        {
          "name": "A#5",
          "midi": 82,
          "time": 28.84612500000003,
          "velocity": 0.6299212598425197,
          "duration": 0.1091345062500011
        },
        {
          "name": "A5",
          "midi": 81,
          "time": 28.96150950000003,
          "velocity": 0.6299212598425197,
          "duration": 0.1091345062500011
        },
        {
          "name": "A#5",
          "midi": 82,
          "time": 29.07689400000003,
          "velocity": 0.6299212598425197,
          "duration": 0.1091345062500011
        },
        {
          "name": "F5",
          "midi": 77,
          "time": 29.192278500000032,
          "velocity": 0.6299212598425197,
          "duration": 0.1091345062500011
        },
        {
          "name": "D#5",
          "midi": 75,
          "time": 29.307663000000034,
          "velocity": 0.6299212598425197,
          "duration": 0.1091345062500011
        },
        {
          "name": "F#5",
          "midi": 78,
          "time": 29.423047500000035,
          "velocity": 0.6299212598425197,
          "duration": 0.1091345062500011
        },
        {
          "name": "F5",
          "midi": 77,
          "time": 29.538432000000036,
          "velocity": 0.6299212598425197,
          "duration": 0.1091345062500011
        },
        {
          "name": "D#5",
          "midi": 75,
          "time": 29.653816500000037,
          "velocity": 0.6299212598425197,
          "duration": 0.1091345062500011
        },
        {
          "name": "F5",
          "midi": 77,
          "time": 29.769201000000038,
          "velocity": 0.6299212598425197,
          "duration": 0.1091345062500011
        },
        {
          "name": "A5",
          "midi": 81,
          "time": 29.88458550000004,
          "velocity": 0.6299212598425197,
          "duration": 0.1091345062500011
        },
        {
          "name": "C6",
          "midi": 84,
          "time": 29.99997000000004,
          "velocity": 0.6299212598425197,
          "duration": 0.1091345062500011
        },
        {
          "name": "C#6",
          "midi": 85,
          "time": 30.11535450000004,
          "velocity": 0.6299212598425197,
          "duration": 0.1091345062500011
        },
        {
          "name": "D#6",
          "midi": 87,
          "time": 30.230739000000042,
          "velocity": 0.6299212598425197,
          "duration": 0.1091345062500011
        },
        {
          "name": "F#6",
          "midi": 90,
          "time": 30.346123500000044,
          "velocity": 0.6299212598425197,
          "duration": 0.1091345062500011
        },
        {
          "name": "F6",
          "midi": 89,
          "time": 30.461508000000045,
          "velocity": 0.6299212598425197,
          "duration": 0.1091345062500011
        },
        {
          "name": "D#6",
          "midi": 87,
          "time": 30.576892500000046,
          "velocity": 0.6299212598425197,
          "duration": 0.1091345062500011
        },
        {
          "name": "C#6",
          "midi": 85,
          "time": 30.692277000000047,
          "velocity": 0.6299212598425197,
          "duration": 0.1091345062500011
        },
        {
          "name": "C6",
          "midi": 84,
          "time": 30.807661500000048,
          "velocity": 0.6299212598425197,
          "duration": 0.1091345062500011
        },
        {
          "name": "C#6",
          "midi": 85,
          "time": 30.92304600000005,
          "velocity": 0.6299212598425197,
          "duration": 0.1091345062500011
        },
        {
          "name": "F#5",
          "midi": 78,
          "time": 31.03843050000005,
          "velocity": 0.6299212598425197,
          "duration": 0.1091345062500011
        },
        {
          "name": "F5",
          "midi": 77,
          "time": 31.15381500000005,
          "velocity": 0.6299212598425197,
          "duration": 0.1091345062500011
        },
        {
          "name": "A#5",
          "midi": 82,
          "time": 31.269199500000052,
          "velocity": 0.6299212598425197,
          "duration": 0.1091345062500011
        },
        {
          "name": "C6",
          "midi": 84,
          "time": 31.384584000000054,
          "velocity": 0.6299212598425197,
          "duration": 0.1091345062500011
        },
        {
          "name": "C#6",
          "midi": 85,
          "time": 31.499968500000055,
          "velocity": 0.6299212598425197,
          "duration": 0.1091345062500011
        },
        {
          "name": "C#6",
          "midi": 85,
          "time": 31.615353000000056,
          "velocity": 0.6299212598425197,
          "duration": 0.1091345062500011
        },
        {
          "name": "C6",
          "midi": 84,
          "time": 31.730737500000057,
          "velocity": 0.6299212598425197,
          "duration": 0.1091345062500011
        },
        {
          "name": "C#6",
          "midi": 85,
          "time": 31.846122000000058,
          "velocity": 0.6299212598425197,
          "duration": 0.1091345062500011
        },
        {
          "name": "F5",
          "midi": 77,
          "time": 31.96150650000006,
          "velocity": 0.6299212598425197,
          "duration": 0.10913450624999754
        },
        {
          "name": "F5",
          "midi": 77,
          "time": 32.07689100000005,
          "velocity": 0.6299212598425197,
          "duration": 0.1091345062500011
        },
        {
          "name": "A#5",
          "midi": 82,
          "time": 32.19227550000005,
          "velocity": 0.6299212598425197,
          "duration": 0.1091345062500011
        },
        {
          "name": "C6",
          "midi": 84,
          "time": 32.30766000000005,
          "velocity": 0.6299212598425197,
          "duration": 0.1091345062500011
        },
        {
          "name": "C#6",
          "midi": 85,
          "time": 32.423044500000046,
          "velocity": 0.6299212598425197,
          "duration": 0.1091345062500011
        },
        {
          "name": "D#6",
          "midi": 87,
          "time": 32.53842900000004,
          "velocity": 0.6299212598425197,
          "duration": 0.1091345062500011
        },
        {
          "name": "C#6",
          "midi": 85,
          "time": 32.65381350000004,
          "velocity": 0.6299212598425197,
          "duration": 0.1091345062500011
        },
        {
          "name": "D#6",
          "midi": 87,
          "time": 32.76919800000004,
          "velocity": 0.6299212598425197,
          "duration": 0.1091345062500011
        },
        {
          "name": "F#5",
          "midi": 78,
          "time": 32.884582500000036,
          "velocity": 0.6299212598425197,
          "duration": 0.1091345062500011
        },
        {
          "name": "F#5",
          "midi": 78,
          "time": 32.999967000000034,
          "velocity": 0.6299212598425197,
          "duration": 0.1091345062500011
        },
        {
          "name": "A#5",
          "midi": 82,
          "time": 33.11535150000003,
          "velocity": 0.6299212598425197,
          "duration": 0.1091345062500011
        },
        {
          "name": "C6",
          "midi": 84,
          "time": 33.23073600000003,
          "velocity": 0.6299212598425197,
          "duration": 0.1091345062500011
        },
        {
          "name": "D#6",
          "midi": 87,
          "time": 33.346120500000026,
          "velocity": 0.6299212598425197,
          "duration": 0.1091345062500011
        },
        {
          "name": "F6",
          "midi": 89,
          "time": 33.461505000000024,
          "velocity": 0.6299212598425197,
          "duration": 0.1091345062500011
        },
        {
          "name": "D#6",
          "midi": 87,
          "time": 33.57688950000002,
          "velocity": 0.6299212598425197,
          "duration": 0.1091345062500011
        },
        {
          "name": "F6",
          "midi": 89,
          "time": 33.69227400000002,
          "velocity": 0.6299212598425197,
          "duration": 0.1091345062500011
        },
        {
          "name": "F#5",
          "midi": 78,
          "time": 33.80765850000002,
          "velocity": 0.6299212598425197,
          "duration": 0.1091345062500011
        },
        {
          "name": "F5",
          "midi": 77,
          "time": 33.923043000000014,
          "velocity": 0.6299212598425197,
          "duration": 0.05432686875000314
        },
        {
          "name": "F#5",
          "midi": 78,
          "time": 33.980735250000016,
          "velocity": 0.6299212598425197,
          "duration": 0.05432686875000314
        },
        {
          "name": "A5",
          "midi": 81,
          "time": 34.03842750000002,
          "velocity": 0.6299212598425197,
          "duration": 0.05432686875000314
        },
        {
          "name": "A#5",
          "midi": 82,
          "time": 34.09611975000002,
          "velocity": 0.6299212598425197,
          "duration": 0.05432686875000314
        },
        {
          "name": "C6",
          "midi": 84,
          "time": 34.15381200000002,
          "velocity": 0.6299212598425197,
          "duration": 0.05432686875000314
        },
        {
          "name": "C#6",
          "midi": 85,
          "time": 34.211504250000026,
          "velocity": 0.6299212598425197,
          "duration": 0.05432686875000314
        },
        {
          "name": "D#6",
          "midi": 87,
          "time": 34.26919650000003,
          "velocity": 0.6299212598425197,
          "duration": 0.05432686875000314
        },
        {
          "name": "F6",
          "midi": 89,
          "time": 34.32688875000003,
          "velocity": 0.6299212598425197,
          "duration": 0.05432686875000314
        },
        {
          "name": "A#4",
          "midi": 70,
          "time": 34.38458100000003,
          "velocity": 0.6299212598425197,
          "duration": 0.437980331250003
        },
        {
          "name": "C#5",
          "midi": 73,
          "time": 34.38458100000003,
          "velocity": 0.6299212598425197,
          "duration": 0.437980331250003
        },
        {
          "name": "F5",
          "midi": 77,
          "time": 34.38458100000003,
          "velocity": 0.6299212598425197,
          "duration": 0.437980331250003
        },
        {
          "name": "A#5",
          "midi": 82,
          "time": 34.38458100000003,
          "velocity": 0.6299212598425197,
          "duration": 0.437980331250003
        },
        {
          "name": "A#4",
          "midi": 70,
          "time": 35.53842600000004,
          "velocity": 0.6299212598425197,
          "duration": 0.1091345062500011
        },
        {
          "name": "F4",
          "midi": 65,
          "time": 35.76919500000004,
          "velocity": 0.6299212598425197,
          "duration": 0.1091345062500011
        },
        {
          "name": "C5",
          "midi": 72,
          "time": 35.99996400000004,
          "velocity": 0.6299212598425197,
          "duration": 0.1091345062500011
        },
        {
          "name": "C#5",
          "midi": 73,
          "time": 36.23073300000004,
          "velocity": 0.6299212598425197,
          "duration": 0.437980331250003
        },
        {
          "name": "F5",
          "midi": 77,
          "time": 36.23073300000004,
          "velocity": 0.6299212598425197,
          "duration": 0.437980331250003
        },
        {
          "name": "C6",
          "midi": 84,
          "time": 36.23073300000004,
          "velocity": 0.6299212598425197,
          "duration": 0.437980331250003
        },
        {
          "name": "C#5",
          "midi": 73,
          "time": 37.38457800000005,
          "velocity": 0.6299212598425197,
          "duration": 0.1091345062500011
        },
        {
          "name": "F4",
          "midi": 65,
          "time": 37.61534700000005,
          "velocity": 0.6299212598425197,
          "duration": 0.1091345062500011
        },
        {
          "name": "C5",
          "midi": 72,
          "time": 37.84611600000005,
          "velocity": 0.6299212598425197,
          "duration": 0.1091345062500011
        },
        {
          "name": "C#5",
          "midi": 73,
          "time": 38.076885000000054,
          "velocity": 0.6299212598425197,
          "duration": 0.437980331250003
        },
        {
          "name": "F5",
          "midi": 77,
          "time": 38.076885000000054,
          "velocity": 0.6299212598425197,
          "duration": 0.437980331250003
        },
        {
          "name": "A#5",
          "midi": 82,
          "time": 38.076885000000054,
          "velocity": 0.6299212598425197,
          "duration": 0.437980331250003
        },
        {
          "name": "C#6",
          "midi": 85,
          "time": 38.076885000000054,
          "velocity": 0.6299212598425197,
          "duration": 0.437980331250003
        },
        {
          "name": "C#5",
          "midi": 73,
          "time": 39.23073000000006,
          "velocity": 0.6299212598425197,
          "duration": 0.1091345062500011
        },
        {
          "name": "A#4",
          "midi": 70,
          "time": 39.46149900000006,
          "velocity": 0.6299212598425197,
          "duration": 0.1091345062500011
        },
        {
          "name": "D#5",
          "midi": 75,
          "time": 39.69226800000006,
          "velocity": 0.6299212598425197,
          "duration": 0.1091345062500011
        },
        {
          "name": "F5",
          "midi": 77,
          "time": 39.923037000000065,
          "velocity": 0.6299212598425197,
          "duration": 0.437980331250003
        },
        {
          "name": "A5",
          "midi": 81,
          "time": 39.923037000000065,
          "velocity": 0.6299212598425197,
          "duration": 0.437980331250003
        },
        {
          "name": "C6",
          "midi": 84,
          "time": 39.923037000000065,
          "velocity": 0.6299212598425197,
          "duration": 0.437980331250003
        },
        {
          "name": "C5",
          "midi": 72,
          "time": 41.538420000000066,
          "velocity": 0.6299212598425197,
          "duration": 0.1091345062500011
        },
        {
          "name": "D#5",
          "midi": 75,
          "time": 41.538420000000066,
          "velocity": 0.6299212598425197,
          "duration": 0.1091345062500011
        },
        {
          "name": "F5",
          "midi": 77,
          "time": 41.538420000000066,
          "velocity": 0.6299212598425197,
          "duration": 0.1091345062500011
        },
        {
          "name": "C#4",
          "midi": 61,
          "time": 41.76918900000007,
          "velocity": 0.6299212598425197,
          "duration": 0
        },
        {
          "name": "A#4",
          "midi": 70,
          "time": 41.76918900000007,
          "velocity": 0.6299212598425197,
          "duration": 0.1091345062500011
        }
      ],
      "controlChanges": {
        "7": [
          {
            "number": 7,
            "time": 0,
            "value": 0.7874015748031497
          }
        ],
        "10": [
          {
            "number": 10,
            "time": 0,
            "value": 0.5039370078740157
          }
        ],
        "91": [
          {
            "number": 91,
            "time": 0,
            "value": 0
          }
        ],
        "93": [
          {
            "number": 93,
            "time": 0,
            "value": 0
          }
        ],
        "121": [
          {
            "number": 121,
            "time": 0,
            "value": 0
          }
        ]
      },
      "id": 0,
      "name": "Grand Piano",
      "instrumentNumber": 0,
      "instrument": "acoustic grand piano",
      "instrumentFamily": "piano",
      "channelNumber": 0,
      "isPercussion": false
    },
    {
      "startTime": 1.3846139999999998,
      "duration": 41.87832350624994,
      "length": 238,
      "notes": [
        {
          "name": "A#3",
          "midi": 58,
          "time": 1.3846139999999998,
          "velocity": 0.6299212598425197,
          "duration": 0.10913450624999999
        },
        {
          "name": "F3",
          "midi": 53,
          "time": 1.6153829999999998,
          "velocity": 0.6299212598425197,
          "duration": 0.10913450624999999
        },
        {
          "name": "C#4",
          "midi": 61,
          "time": 1.8461519999999998,
          "velocity": 0.6299212598425197,
          "duration": 0.10913450624999999
        },
        {
          "name": "C4",
          "midi": 60,
          "time": 2.0769209999999996,
          "velocity": 0.6299212598425197,
          "duration": 0.10913450625000021
        },
        {
          "name": "A#3",
          "midi": 58,
          "time": 2.1923055,
          "velocity": 0.6299212598425197,
          "duration": 0.10913450625000021
        },
        {
          "name": "A3",
          "midi": 57,
          "time": 2.30769,
          "velocity": 0.6299212598425197,
          "duration": 0.10913450625000021
        },
        {
          "name": "G3",
          "midi": 55,
          "time": 2.4230745000000002,
          "velocity": 0.6299212598425197,
          "duration": 0.10913450625000021
        },
        {
          "name": "A3",
          "midi": 57,
          "time": 2.5384590000000005,
          "velocity": 0.6299212598425197,
          "duration": 0.10913450625000021
        },
        {
          "name": "F3",
          "midi": 53,
          "time": 2.7692280000000005,
          "velocity": 0.6299212598425197,
          "duration": 0.10913450624999976
        },
        {
          "name": "A#3",
          "midi": 58,
          "time": 2.999997,
          "velocity": 0.6299212598425197,
          "duration": 0.10913450624999976
        },
        {
          "name": "C#3",
          "midi": 49,
          "time": 3.2307659999999996,
          "velocity": 0.6299212598425197,
          "duration": 0.10913450624999976
        },
        {
          "name": "C3",
          "midi": 48,
          "time": 3.461534999999999,
          "velocity": 0.6299212598425197,
          "duration": 0.10913450624999976
        },
        {
          "name": "A#2",
          "midi": 46,
          "time": 3.6923039999999987,
          "velocity": 0.6299212598425197,
          "duration": 0.10913450624999976
        },
        {
          "name": "A2",
          "midi": 45,
          "time": 3.9230729999999983,
          "velocity": 0.6299212598425197,
          "duration": 0.10913450624999976
        },
        {
          "name": "C3",
          "midi": 48,
          "time": 4.153841999999998,
          "velocity": 0.6299212598425197,
          "duration": 0.10913450625000021
        },
        {
          "name": "D#3",
          "midi": 51,
          "time": 4.384610999999999,
          "velocity": 0.6299212598425197,
          "duration": 0.10913450625000021
        },
        {
          "name": "F#3",
          "midi": 54,
          "time": 4.615379999999999,
          "velocity": 0.6299212598425197,
          "duration": 0.10913450625000021
        },
        {
          "name": "F3",
          "midi": 53,
          "time": 4.846149,
          "velocity": 0.6299212598425197,
          "duration": 0.10913450625000021
        },
        {
          "name": "C#4",
          "midi": 61,
          "time": 5.076918,
          "velocity": 0.6299212598425197,
          "duration": 0.10913450625000021
        },
        {
          "name": "F3",
          "midi": 53,
          "time": 5.3076870000000005,
          "velocity": 0.6299212598425197,
          "duration": 0.10913450625000021
        },
        {
          "name": "F#4",
          "midi": 66,
          "time": 5.538456000000001,
          "velocity": 0.6299212598425197,
          "duration": 0.10913450625000021
        },
        {
          "name": "F4",
          "midi": 65,
          "time": 5.769225000000001,
          "velocity": 0.6299212598425197,
          "duration": 0.21874978124999966
        },
        {
          "name": "F4",
          "midi": 65,
          "time": 5.999994000000001,
          "velocity": 0.6299212598425197,
          "duration": 0.21874978124999966
        },
        {
          "name": "F4",
          "midi": 65,
          "time": 6.2307630000000005,
          "velocity": 0.6299212598425197,
          "duration": 0.21874978124999966
        },
        {
          "name": "D#4",
          "midi": 63,
          "time": 6.461532,
          "velocity": 0.6299212598425197,
          "duration": 0.21874978124999966
        },
        {
          "name": "C#3",
          "midi": 49,
          "time": 6.692301,
          "velocity": 0.6299212598425197,
          "duration": 0.34615350000000067
        },
        {
          "name": "F3",
          "midi": 53,
          "time": 6.8076855,
          "velocity": 0.6299212598425197,
          "duration": 0.10913450625000021
        },
        {
          "name": "D#3",
          "midi": 51,
          "time": 6.92307,
          "velocity": 0.6299212598425197,
          "duration": 0.10913450625000021
        },
        {
          "name": "C#3",
          "midi": 49,
          "time": 7.0384545,
          "velocity": 0.6299212598425197,
          "duration": 0.10913450625000021
        },
        {
          "name": "A3",
          "midi": 57,
          "time": 7.1538390000000005,
          "velocity": 0.6299212598425197,
          "duration": 0.10913450625000021
        },
        {
          "name": "F3",
          "midi": 53,
          "time": 7.269223500000001,
          "velocity": 0.6299212598425197,
          "duration": 0.10913450625000021
        },
        {
          "name": "D#3",
          "midi": 51,
          "time": 7.384608000000001,
          "velocity": 0.6299212598425197,
          "duration": 0.10913450625000021
        },
        {
          "name": "C#3",
          "midi": 49,
          "time": 7.499992500000001,
          "velocity": 0.6299212598425197,
          "duration": 0.10913450625000021
        },
        {
          "name": "C3",
          "midi": 48,
          "time": 7.615377000000001,
          "velocity": 0.6299212598425197,
          "duration": 0.43798033125000035
        },
        {
          "name": "A#3",
          "midi": 58,
          "time": 7.730761500000002,
          "velocity": 0.6299212598425197,
          "duration": 0.10913450625000021
        },
        {
          "name": "A3",
          "midi": 57,
          "time": 7.846146000000002,
          "velocity": 0.6299212598425197,
          "duration": 0.10913450625000021
        },
        {
          "name": "F#3",
          "midi": 54,
          "time": 7.961530500000002,
          "velocity": 0.6299212598425197,
          "duration": 0.10913450624999932
        },
        {
          "name": "C#4",
          "midi": 61,
          "time": 8.076915000000001,
          "velocity": 0.6299212598425197,
          "duration": 0.10913450624999932
        },
        {
          "name": "C4",
          "midi": 60,
          "time": 8.1922995,
          "velocity": 0.6299212598425197,
          "duration": 0.10913450624999932
        },
        {
          "name": "A#3",
          "midi": 58,
          "time": 8.307684,
          "velocity": 0.6299212598425197,
          "duration": 0.10913450624999932
        },
        {
          "name": "A3",
          "midi": 57,
          "time": 8.4230685,
          "velocity": 0.6299212598425197,
          "duration": 0.10913450624999932
        },
        {
          "name": "A#2",
          "midi": 46,
          "time": 8.538452999999999,
          "velocity": 0.6299212598425197,
          "duration": 0.4379803312499977
        },
        {
          "name": "F3",
          "midi": 53,
          "time": 8.653837499999998,
          "velocity": 0.6299212598425197,
          "duration": 0.10913450624999932
        },
        {
          "name": "D#3",
          "midi": 51,
          "time": 8.769221999999997,
          "velocity": 0.6299212598425197,
          "duration": 0.10913450624999932
        },
        {
          "name": "C#3",
          "midi": 49,
          "time": 8.884606499999997,
          "velocity": 0.6299212598425197,
          "duration": 0.10913450624999932
        },
        {
          "name": "C3",
          "midi": 48,
          "time": 8.999990999999996,
          "velocity": 0.6299212598425197,
          "duration": 0.10913450624999932
        },
        {
          "name": "A#2",
          "midi": 46,
          "time": 9.115375499999995,
          "velocity": 0.6299212598425197,
          "duration": 0.10913450624999932
        },
        {
          "name": "F3",
          "midi": 53,
          "time": 9.230759999999995,
          "velocity": 0.6299212598425197,
          "duration": 0.10913450624999932
        },
        {
          "name": "D#3",
          "midi": 51,
          "time": 9.346144499999994,
          "velocity": 0.6299212598425197,
          "duration": 0.10913450624999932
        },
        {
          "name": "A#2",
          "midi": 46,
          "time": 9.461528999999993,
          "velocity": 0.6299212598425197,
          "duration": 0.4379803312499977
        },
        {
          "name": "F3",
          "midi": 53,
          "time": 9.576913499999993,
          "velocity": 0.6299212598425197,
          "duration": 0.10913450624999932
        },
        {
          "name": "D#3",
          "midi": 51,
          "time": 9.692297999999992,
          "velocity": 0.6299212598425197,
          "duration": 0.10913450624999932
        },
        {
          "name": "C#3",
          "midi": 49,
          "time": 9.807682499999991,
          "velocity": 0.6299212598425197,
          "duration": 0.10913450624999932
        },
        {
          "name": "C3",
          "midi": 48,
          "time": 9.92306699999999,
          "velocity": 0.6299212598425197,
          "duration": 0.10913450624999932
        },
        {
          "name": "A#2",
          "midi": 46,
          "time": 10.03845149999999,
          "velocity": 0.6299212598425197,
          "duration": 0.10913450624999932
        },
        {
          "name": "F3",
          "midi": 53,
          "time": 10.15383599999999,
          "velocity": 0.6299212598425197,
          "duration": 0.10913450624999932
        },
        {
          "name": "D#3",
          "midi": 51,
          "time": 10.269220499999989,
          "velocity": 0.6299212598425197,
          "duration": 0.10913450624999932
        },
        {
          "name": "A#2",
          "midi": 46,
          "time": 10.384604999999988,
          "velocity": 0.6299212598425197,
          "duration": 0.4379803312499977
        },
        {
          "name": "F3",
          "midi": 53,
          "time": 10.499989499999987,
          "velocity": 0.6299212598425197,
          "duration": 0.10913450624999932
        },
        {
          "name": "D#3",
          "midi": 51,
          "time": 10.615373999999987,
          "velocity": 0.6299212598425197,
          "duration": 0.10913450624999932
        },
        {
          "name": "C#3",
          "midi": 49,
          "time": 10.730758499999986,
          "velocity": 0.6299212598425197,
          "duration": 0.10913450624999932
        },
        {
          "name": "C3",
          "midi": 48,
          "time": 10.846142999999985,
          "velocity": 0.6299212598425197,
          "duration": 0.10913450624999932
        },
        {
          "name": "A#2",
          "midi": 46,
          "time": 10.961527499999985,
          "velocity": 0.6299212598425197,
          "duration": 0.10913450624999932
        },
        {
          "name": "A2",
          "midi": 45,
          "time": 11.076911999999984,
          "velocity": 0.6299212598425197,
          "duration": 0.10913450624999932
        },
        {
          "name": "F#2",
          "midi": 42,
          "time": 11.192296499999983,
          "velocity": 0.6299212598425197,
          "duration": 0.10913450624999932
        },
        {
          "name": "A#2",
          "midi": 46,
          "time": 11.307680999999983,
          "velocity": 0.6299212598425197,
          "duration": 0.4379803312499977
        },
        {
          "name": "F3",
          "midi": 53,
          "time": 11.423065499999982,
          "velocity": 0.6299212598425197,
          "duration": 0.10913450624999932
        },
        {
          "name": "D#3",
          "midi": 51,
          "time": 11.538449999999981,
          "velocity": 0.6299212598425197,
          "duration": 0.10913450624999932
        },
        {
          "name": "C#3",
          "midi": 49,
          "time": 11.65383449999998,
          "velocity": 0.6299212598425197,
          "duration": 0.10913450624999932
        },
        {
          "name": "C3",
          "midi": 48,
          "time": 11.76921899999998,
          "velocity": 0.6299212598425197,
          "duration": 0.10913450624999932
        },
        {
          "name": "A#2",
          "midi": 46,
          "time": 11.88460349999998,
          "velocity": 0.6299212598425197,
          "duration": 0.10913450624999932
        },
        {
          "name": "A2",
          "midi": 45,
          "time": 11.999987999999979,
          "velocity": 0.6299212598425197,
          "duration": 0.10913450624999932
        },
        {
          "name": "F#2",
          "midi": 42,
          "time": 12.115372499999978,
          "velocity": 0.6299212598425197,
          "duration": 0.10913450624999932
        },
        {
          "name": "A2",
          "midi": 45,
          "time": 12.230756999999977,
          "velocity": 0.6299212598425197,
          "duration": 0.4379803312499977
        },
        {
          "name": "F3",
          "midi": 53,
          "time": 12.346141499999977,
          "velocity": 0.6299212598425197,
          "duration": 0.10913450624999932
        },
        {
          "name": "D#3",
          "midi": 51,
          "time": 12.461525999999976,
          "velocity": 0.6299212598425197,
          "duration": 0.10913450624999932
        },
        {
          "name": "C#3",
          "midi": 49,
          "time": 12.576910499999975,
          "velocity": 0.6299212598425197,
          "duration": 0.10913450624999932
        },
        {
          "name": "C3",
          "midi": 48,
          "time": 12.692294999999975,
          "velocity": 0.6299212598425197,
          "duration": 0.10913450624999932
        },
        {
          "name": "A#2",
          "midi": 46,
          "time": 12.807679499999974,
          "velocity": 0.6299212598425197,
          "duration": 0.10913450624999932
        },
        {
          "name": "A2",
          "midi": 45,
          "time": 12.923063999999973,
          "velocity": 0.6299212598425197,
          "duration": 0.10913450624999932
        },
        {
          "name": "F#2",
          "midi": 42,
          "time": 13.038448499999973,
          "velocity": 0.6299212598425197,
          "duration": 0.10913450624999932
        },
        {
          "name": "A2",
          "midi": 45,
          "time": 13.153832999999972,
          "velocity": 0.6299212598425197,
          "duration": 0.4379803312499977
        },
        {
          "name": "F3",
          "midi": 53,
          "time": 13.269217499999971,
          "velocity": 0.6299212598425197,
          "duration": 0.10913450624999932
        },
        {
          "name": "D#3",
          "midi": 51,
          "time": 13.38460199999997,
          "velocity": 0.6299212598425197,
          "duration": 0.10913450624999932
        },
        {
          "name": "C#3",
          "midi": 49,
          "time": 13.49998649999997,
          "velocity": 0.6299212598425197,
          "duration": 0.10913450624999932
        },
        {
          "name": "C3",
          "midi": 48,
          "time": 13.61537099999997,
          "velocity": 0.6299212598425197,
          "duration": 0.10913450624999932
        },
        {
          "name": "A#2",
          "midi": 46,
          "time": 13.730755499999969,
          "velocity": 0.6299212598425197,
          "duration": 0.10913450624999932
        },
        {
          "name": "A2",
          "midi": 45,
          "time": 13.846139999999968,
          "velocity": 0.6299212598425197,
          "duration": 0.10913450624999932
        },
        {
          "name": "F#2",
          "midi": 42,
          "time": 13.961524499999967,
          "velocity": 0.6299212598425197,
          "duration": 0.10913450624999932
        },
        {
          "name": "F#1",
          "midi": 30,
          "time": 14.076908999999967,
          "velocity": 0.6299212598425197,
          "duration": 0.4379803312499977
        },
        {
          "name": "F3",
          "midi": 53,
          "time": 14.192293499999966,
          "velocity": 0.6299212598425197,
          "duration": 0.10913450624999932
        },
        {
          "name": "D#3",
          "midi": 51,
          "time": 14.307677999999965,
          "velocity": 0.6299212598425197,
          "duration": 0.10913450624999932
        },
        {
          "name": "C#3",
          "midi": 49,
          "time": 14.423062499999965,
          "velocity": 0.6299212598425197,
          "duration": 0.10913450624999932
        },
        {
          "name": "C3",
          "midi": 48,
          "time": 14.538446999999964,
          "velocity": 0.6299212598425197,
          "duration": 0.10913450624999932
        },
        {
          "name": "A#2",
          "midi": 46,
          "time": 14.653831499999963,
          "velocity": 0.6299212598425197,
          "duration": 0.10913450624999932
        },
        {
          "name": "G#2",
          "midi": 44,
          "time": 14.769215999999963,
          "velocity": 0.6299212598425197,
          "duration": 0.10913450624999932
        },
        {
          "name": "F#2",
          "midi": 42,
          "time": 14.884600499999962,
          "velocity": 0.6299212598425197,
          "duration": 0.10913450624999932
        },
        {
          "name": "F#1",
          "midi": 30,
          "time": 14.999984999999961,
          "velocity": 0.6299212598425197,
          "duration": 0.4379803312499977
        },
        {
          "name": "F3",
          "midi": 53,
          "time": 15.11536949999996,
          "velocity": 0.6299212598425197,
          "duration": 0.10913450624999932
        },
        {
          "name": "D#3",
          "midi": 51,
          "time": 15.23075399999996,
          "velocity": 0.6299212598425197,
          "duration": 0.10913450624999932
        },
        {
          "name": "C#3",
          "midi": 49,
          "time": 15.34613849999996,
          "velocity": 0.6299212598425197,
          "duration": 0.10913450624999932
        },
        {
          "name": "C3",
          "midi": 48,
          "time": 15.461522999999959,
          "velocity": 0.6299212598425197,
          "duration": 0.10913450624999932
        },
        {
          "name": "A#2",
          "midi": 46,
          "time": 15.576907499999958,
          "velocity": 0.6299212598425197,
          "duration": 0.10913450624999932
        },
        {
          "name": "G#2",
          "midi": 44,
          "time": 15.692291999999957,
          "velocity": 0.6299212598425197,
          "duration": 0.10913450624999932
        },
        {
          "name": "F#2",
          "midi": 42,
          "time": 15.807676499999957,
          "velocity": 0.6299212598425197,
          "duration": 0.10913450624999932
        },
        {
          "name": "F2",
          "midi": 41,
          "time": 15.923060999999956,
          "velocity": 0.6299212598425197,
          "duration": 0.43798033125000124
        },
        {
          "name": "F3",
          "midi": 53,
          "time": 16.038445499999956,
          "velocity": 0.6299212598425197,
          "duration": 0.1091345062500011
        },
        {
          "name": "D#3",
          "midi": 51,
          "time": 16.153829999999957,
          "velocity": 0.6299212598425197,
          "duration": 0.1091345062500011
        },
        {
          "name": "C#3",
          "midi": 49,
          "time": 16.269214499999958,
          "velocity": 0.6299212598425197,
          "duration": 0.1091345062500011
        },
        {
          "name": "C3",
          "midi": 48,
          "time": 16.38459899999996,
          "velocity": 0.6299212598425197,
          "duration": 0.1091345062500011
        },
        {
          "name": "A#2",
          "midi": 46,
          "time": 16.49998349999996,
          "velocity": 0.6299212598425197,
          "duration": 0.1091345062500011
        },
        {
          "name": "A2",
          "midi": 45,
          "time": 16.61536799999996,
          "velocity": 0.6299212598425197,
          "duration": 0.1091345062500011
        },
        {
          "name": "F#2",
          "midi": 42,
          "time": 16.730752499999962,
          "velocity": 0.6299212598425197,
          "duration": 0.1091345062500011
        },
        {
          "name": "F1",
          "midi": 29,
          "time": 16.846136999999963,
          "velocity": 0.6299212598425197,
          "duration": 0.437980331250003
        },
        {
          "name": "F#2",
          "midi": 42,
          "time": 16.961521499999964,
          "velocity": 0.6299212598425197,
          "duration": 0.1091345062500011
        },
        {
          "name": "A2",
          "midi": 45,
          "time": 17.076905999999966,
          "velocity": 0.6299212598425197,
          "duration": 0.1091345062500011
        },
        {
          "name": "C3",
          "midi": 48,
          "time": 17.192290499999967,
          "velocity": 0.6299212598425197,
          "duration": 0.1091345062500011
        },
        {
          "name": "D#3",
          "midi": 51,
          "time": 17.307674999999968,
          "velocity": 0.6299212598425197,
          "duration": 0.1091345062500011
        },
        {
          "name": "F#3",
          "midi": 54,
          "time": 17.42305949999997,
          "velocity": 0.6299212598425197,
          "duration": 0.1091345062500011
        },
        {
          "name": "C4",
          "midi": 60,
          "time": 17.53844399999997,
          "velocity": 0.6299212598425197,
          "duration": 0.1091345062500011
        },
        {
          "name": "A3",
          "midi": 57,
          "time": 17.65382849999997,
          "velocity": 0.6299212598425197,
          "duration": 0.1091345062500011
        },
        {
          "name": "A#2",
          "midi": 46,
          "time": 17.769212999999972,
          "velocity": 0.6299212598425197,
          "duration": 0.43798033124999947
        },
        {
          "name": "F3",
          "midi": 53,
          "time": 19.38459599999997,
          "velocity": 0.6299212598425197,
          "duration": 0.1091345062500011
        },
        {
          "name": "A#2",
          "midi": 46,
          "time": 19.615364999999972,
          "velocity": 0.6299212598425197,
          "duration": 0.1091345062500011
        },
        {
          "name": "A#3",
          "midi": 58,
          "time": 19.846133999999974,
          "velocity": 0.6299212598425197,
          "duration": 0.1091345062500011
        },
        {
          "name": "G#3",
          "midi": 56,
          "time": 20.076902999999977,
          "velocity": 0.6299212598425197,
          "duration": 0.1091345062500011
        },
        {
          "name": "F#3",
          "midi": 54,
          "time": 20.192287499999978,
          "velocity": 0.6299212598425197,
          "duration": 0.1091345062500011
        },
        {
          "name": "F3",
          "midi": 53,
          "time": 20.30767199999998,
          "velocity": 0.6299212598425197,
          "duration": 0.1091345062500011
        },
        {
          "name": "D#3",
          "midi": 51,
          "time": 20.42305649999998,
          "velocity": 0.6299212598425197,
          "duration": 0.1091345062500011
        },
        {
          "name": "F3",
          "midi": 53,
          "time": 20.53844099999998,
          "velocity": 0.6299212598425197,
          "duration": 0.1091345062500011
        },
        {
          "name": "F3",
          "midi": 53,
          "time": 22.153823999999982,
          "velocity": 0.6299212598425197,
          "duration": 0.16394214374999905
        },
        {
          "name": "F3",
          "midi": 53,
          "time": 22.326900749999982,
          "velocity": 0.6299212598425197,
          "duration": 0.05432686874999959
        },
        {
          "name": "A#2",
          "midi": 46,
          "time": 22.38459299999998,
          "velocity": 0.6299212598425197,
          "duration": 0.1091345062500011
        },
        {
          "name": "A#3",
          "midi": 58,
          "time": 22.615361999999983,
          "velocity": 0.6299212598425197,
          "duration": 0.1091345062500011
        },
        {
          "name": "G#3",
          "midi": 56,
          "time": 22.846130999999986,
          "velocity": 0.6299212598425197,
          "duration": 0.1091345062500011
        },
        {
          "name": "F#3",
          "midi": 54,
          "time": 22.961515499999987,
          "velocity": 0.6299212598425197,
          "duration": 0.1091345062500011
        },
        {
          "name": "F3",
          "midi": 53,
          "time": 23.076899999999988,
          "velocity": 0.6299212598425197,
          "duration": 0.1091345062500011
        },
        {
          "name": "F#3",
          "midi": 54,
          "time": 23.19228449999999,
          "velocity": 0.6299212598425197,
          "duration": 0.1091345062500011
        },
        {
          "name": "F3",
          "midi": 53,
          "time": 23.30766899999999,
          "velocity": 0.6299212598425197,
          "duration": 0.1091345062500011
        },
        {
          "name": "F#3",
          "midi": 54,
          "time": 23.538437999999992,
          "velocity": 0.6299212598425197,
          "duration": 0.1091345062500011
        },
        {
          "name": "A3",
          "midi": 57,
          "time": 23.538437999999992,
          "velocity": 0.6299212598425197,
          "duration": 0.1091345062500011
        },
        {
          "name": "C4",
          "midi": 60,
          "time": 23.538437999999992,
          "velocity": 0.6299212598425197,
          "duration": 0.1091345062500011
        },
        {
          "name": "F3",
          "midi": 53,
          "time": 23.769206999999994,
          "velocity": 0.6299212598425197,
          "duration": 0.1091345062500011
        },
        {
          "name": "D#3",
          "midi": 51,
          "time": 23.999975999999997,
          "velocity": 0.6299212598425197,
          "duration": 0.1091345062500011
        },
        {
          "name": "F3",
          "midi": 53,
          "time": 24.230745,
          "velocity": 0.6299212598425197,
          "duration": 0.1091345062500011
        },
        {
          "name": "A#3",
          "midi": 58,
          "time": 24.461514,
          "velocity": 0.6299212598425197,
          "duration": 0.1091345062500011
        },
        {
          "name": "C#4",
          "midi": 61,
          "time": 24.461514,
          "velocity": 0.6299212598425197,
          "duration": 0.1091345062500011
        },
        {
          "name": "F3",
          "midi": 53,
          "time": 24.692283000000003,
          "velocity": 0.6299212598425197,
          "duration": 0.1091345062500011
        },
        {
          "name": "D#3",
          "midi": 51,
          "time": 24.923052000000006,
          "velocity": 0.6299212598425197,
          "duration": 0.1091345062500011
        },
        {
          "name": "F3",
          "midi": 53,
          "time": 25.153821000000008,
          "velocity": 0.6299212598425197,
          "duration": 0.1091345062500011
        },
        {
          "name": "C4",
          "midi": 60,
          "time": 25.38459000000001,
          "velocity": 0.6299212598425197,
          "duration": 0.1091345062500011
        },
        {
          "name": "D#4",
          "midi": 63,
          "time": 25.38459000000001,
          "velocity": 0.6299212598425197,
          "duration": 0.1091345062500011
        },
        {
          "name": "F4",
          "midi": 65,
          "time": 25.38459000000001,
          "velocity": 0.6299212598425197,
          "duration": 0.1091345062500011
        },
        {
          "name": "F3",
          "midi": 53,
          "time": 25.615359000000012,
          "velocity": 0.6299212598425197,
          "duration": 0.1091345062500011
        },
        {
          "name": "D#3",
          "midi": 51,
          "time": 25.846128000000014,
          "velocity": 0.6299212598425197,
          "duration": 0.1091345062500011
        },
        {
          "name": "D#3",
          "midi": 51,
          "time": 26.076897000000017,
          "velocity": 0.6299212598425197,
          "duration": 0.1091345062500011
        },
        {
          "name": "A#3",
          "midi": 58,
          "time": 26.30766600000002,
          "velocity": 0.6299212598425197,
          "duration": 0.1091345062500011
        },
        {
          "name": "C#4",
          "midi": 61,
          "time": 26.30766600000002,
          "velocity": 0.6299212598425197,
          "duration": 0.1091345062500011
        },
        {
          "name": "F3",
          "midi": 53,
          "time": 26.53843500000002,
          "velocity": 0.6299212598425197,
          "duration": 0.1091345062500011
        },
        {
          "name": "A3",
          "midi": 57,
          "time": 26.769204000000023,
          "velocity": 0.6299212598425197,
          "duration": 0.1091345062500011
        },
        {
          "name": "A#1",
          "midi": 34,
          "time": 26.999973000000026,
          "velocity": 0.6299212598425197,
          "duration": 0.8764414312500008
        },
        {
          "name": "A#2",
          "midi": 46,
          "time": 26.999973000000026,
          "velocity": 0.6299212598425197,
          "duration": 0.8764414312500008
        },
        {
          "name": "A#1",
          "midi": 34,
          "time": 27.923049000000027,
          "velocity": 0.6299212598425197,
          "duration": 0.43798033124999947
        },
        {
          "name": "A#2",
          "midi": 46,
          "time": 27.923049000000027,
          "velocity": 0.6299212598425197,
          "duration": 0.43798033124999947
        },
        {
          "name": "A#1",
          "midi": 34,
          "time": 28.846125000000026,
          "velocity": 0.6299212598425197,
          "duration": 0.8764414312500008
        },
        {
          "name": "A#2",
          "midi": 46,
          "time": 28.846125000000026,
          "velocity": 0.6299212598425197,
          "duration": 0.8764414312500008
        },
        {
          "name": "A#1",
          "midi": 34,
          "time": 29.769201000000027,
          "velocity": 0.6299212598425197,
          "duration": 0.43798033124999947
        },
        {
          "name": "A#2",
          "midi": 46,
          "time": 29.769201000000027,
          "velocity": 0.6299212598425197,
          "duration": 0.43798033124999947
        },
        {
          "name": "C2",
          "midi": 36,
          "time": 30.23073900000003,
          "velocity": 0.6299212598425197,
          "duration": 0.43798033124999947
        },
        {
          "name": "C3",
          "midi": 48,
          "time": 30.23073900000003,
          "velocity": 0.6299212598425197,
          "duration": 0.43798033124999947
        },
        {
          "name": "C#2",
          "midi": 37,
          "time": 30.69227700000003,
          "velocity": 0.6299212598425197,
          "duration": 0.8764414312500008
        },
        {
          "name": "C#3",
          "midi": 49,
          "time": 30.69227700000003,
          "velocity": 0.6299212598425197,
          "duration": 0.8764414312500008
        },
        {
          "name": "C#2",
          "midi": 37,
          "time": 31.61535300000003,
          "velocity": 0.6299212598425197,
          "duration": 0.43798033124999947
        },
        {
          "name": "C#3",
          "midi": 49,
          "time": 31.61535300000003,
          "velocity": 0.6299212598425197,
          "duration": 0.43798033124999947
        },
        {
          "name": "D#2",
          "midi": 39,
          "time": 32.53842900000003,
          "velocity": 0.6299212598425197,
          "duration": 0.8764414312500008
        },
        {
          "name": "D#3",
          "midi": 51,
          "time": 32.53842900000003,
          "velocity": 0.6299212598425197,
          "duration": 0.8764414312500008
        },
        {
          "name": "F#2",
          "midi": 42,
          "time": 33.46150500000003,
          "velocity": 0.6299212598425197,
          "duration": 0.437980331250003
        },
        {
          "name": "F#3",
          "midi": 54,
          "time": 33.46150500000003,
          "velocity": 0.6299212598425197,
          "duration": 0.437980331250003
        },
        {
          "name": "F2",
          "midi": 41,
          "time": 33.923043000000035,
          "velocity": 0.6299212598425197,
          "duration": 0.437980331250003
        },
        {
          "name": "F3",
          "midi": 53,
          "time": 33.923043000000035,
          "velocity": 0.6299212598425197,
          "duration": 0.437980331250003
        },
        {
          "name": "A#2",
          "midi": 46,
          "time": 34.38458100000004,
          "velocity": 0.6299212598425197,
          "duration": 0.1091345062500011
        },
        {
          "name": "A2",
          "midi": 45,
          "time": 34.49996550000004,
          "velocity": 0.6299212598425197,
          "duration": 0.1091345062500011
        },
        {
          "name": "A#2",
          "midi": 46,
          "time": 34.615350000000035,
          "velocity": 0.6299212598425197,
          "duration": 0.1091345062500011
        },
        {
          "name": "F#2",
          "midi": 42,
          "time": 34.73073450000003,
          "velocity": 0.6299212598425197,
          "duration": 0.1091345062500011
        },
        {
          "name": "F2",
          "midi": 41,
          "time": 34.84611900000003,
          "velocity": 0.6299212598425197,
          "duration": 0.1091345062500011
        },
        {
          "name": "F#2",
          "midi": 42,
          "time": 34.96150350000003,
          "velocity": 0.6299212598425197,
          "duration": 0.1091345062500011
        },
        {
          "name": "F2",
          "midi": 41,
          "time": 35.076888000000025,
          "velocity": 0.6299212598425197,
          "duration": 0.1091345062500011
        },
        {
          "name": "A2",
          "midi": 45,
          "time": 35.19227250000002,
          "velocity": 0.6299212598425197,
          "duration": 0.1091345062500011
        },
        {
          "name": "A#2",
          "midi": 46,
          "time": 35.30765700000002,
          "velocity": 0.6299212598425197,
          "duration": 0.1091345062500011
        },
        {
          "name": "A2",
          "midi": 45,
          "time": 35.42304150000002,
          "velocity": 0.6299212598425197,
          "duration": 0.1091345062500011
        },
        {
          "name": "A#2",
          "midi": 46,
          "time": 35.538426000000015,
          "velocity": 0.6299212598425197,
          "duration": 0.1091345062500011
        },
        {
          "name": "F#2",
          "midi": 42,
          "time": 35.65381050000001,
          "velocity": 0.6299212598425197,
          "duration": 0.1091345062500011
        },
        {
          "name": "F2",
          "midi": 41,
          "time": 35.76919500000001,
          "velocity": 0.6299212598425197,
          "duration": 0.1091345062500011
        },
        {
          "name": "A2",
          "midi": 45,
          "time": 35.88457950000001,
          "velocity": 0.6299212598425197,
          "duration": 0.1091345062500011
        },
        {
          "name": "C3",
          "midi": 48,
          "time": 35.999964000000006,
          "velocity": 0.6299212598425197,
          "duration": 0.1091345062500011
        },
        {
          "name": "F3",
          "midi": 53,
          "time": 36.1153485,
          "velocity": 0.6299212598425197,
          "duration": 0.1091345062500011
        },
        {
          "name": "A#2",
          "midi": 46,
          "time": 36.230733,
          "velocity": 0.6299212598425197,
          "duration": 0.1091345062500011
        },
        {
          "name": "A2",
          "midi": 45,
          "time": 36.3461175,
          "velocity": 0.6299212598425197,
          "duration": 0.1091345062500011
        },
        {
          "name": "A#2",
          "midi": 46,
          "time": 36.461501999999996,
          "velocity": 0.6299212598425197,
          "duration": 0.1091345062500011
        },
        {
          "name": "F#2",
          "midi": 42,
          "time": 36.57688649999999,
          "velocity": 0.6299212598425197,
          "duration": 0.1091345062500011
        },
        {
          "name": "F2",
          "midi": 41,
          "time": 36.69227099999999,
          "velocity": 0.6299212598425197,
          "duration": 0.1091345062500011
        },
        {
          "name": "F#2",
          "midi": 42,
          "time": 36.80765549999999,
          "velocity": 0.6299212598425197,
          "duration": 0.1091345062500011
        },
        {
          "name": "F2",
          "midi": 41,
          "time": 36.923039999999986,
          "velocity": 0.6299212598425197,
          "duration": 0.1091345062500011
        },
        {
          "name": "A2",
          "midi": 45,
          "time": 37.038424499999984,
          "velocity": 0.6299212598425197,
          "duration": 0.1091345062500011
        },
        {
          "name": "A#2",
          "midi": 46,
          "time": 37.15380899999998,
          "velocity": 0.6299212598425197,
          "duration": 0.1091345062500011
        },
        {
          "name": "A2",
          "midi": 45,
          "time": 37.26919349999998,
          "velocity": 0.6299212598425197,
          "duration": 0.1091345062500011
        },
        {
          "name": "A#2",
          "midi": 46,
          "time": 37.384577999999976,
          "velocity": 0.6299212598425197,
          "duration": 0.1091345062500011
        },
        {
          "name": "F#2",
          "midi": 42,
          "time": 37.499962499999974,
          "velocity": 0.6299212598425197,
          "duration": 0.1091345062500011
        },
        {
          "name": "F2",
          "midi": 41,
          "time": 37.61534699999997,
          "velocity": 0.6299212598425197,
          "duration": 0.1091345062500011
        },
        {
          "name": "A2",
          "midi": 45,
          "time": 37.73073149999997,
          "velocity": 0.6299212598425197,
          "duration": 0.1091345062500011
        },
        {
          "name": "C3",
          "midi": 48,
          "time": 37.84611599999997,
          "velocity": 0.6299212598425197,
          "duration": 0.1091345062500011
        },
        {
          "name": "F3",
          "midi": 53,
          "time": 37.961500499999964,
          "velocity": 0.6299212598425197,
          "duration": 0.1091345062500011
        },
        {
          "name": "C#3",
          "midi": 49,
          "time": 38.07688499999996,
          "velocity": 0.6299212598425197,
          "duration": 0.1091345062500011
        },
        {
          "name": "C3",
          "midi": 48,
          "time": 38.19226949999996,
          "velocity": 0.6299212598425197,
          "duration": 0.1091345062500011
        },
        {
          "name": "C#3",
          "midi": 49,
          "time": 38.30765399999996,
          "velocity": 0.6299212598425197,
          "duration": 0.1091345062500011
        },
        {
          "name": "G#2",
          "midi": 44,
          "time": 38.423038499999954,
          "velocity": 0.6299212598425197,
          "duration": 0.1091345062500011
        },
        {
          "name": "A#2",
          "midi": 46,
          "time": 38.53842299999995,
          "velocity": 0.6299212598425197,
          "duration": 0.1091345062500011
        },
        {
          "name": "C3",
          "midi": 48,
          "time": 38.65380749999995,
          "velocity": 0.6299212598425197,
          "duration": 0.1091345062500011
        },
        {
          "name": "C#3",
          "midi": 49,
          "time": 38.76919199999995,
          "velocity": 0.6299212598425197,
          "duration": 0.1091345062500011
        },
        {
          "name": "D#3",
          "midi": 51,
          "time": 38.884576499999945,
          "velocity": 0.6299212598425197,
          "duration": 0.1091345062500011
        },
        {
          "name": "C#3",
          "midi": 49,
          "time": 38.99996099999994,
          "velocity": 0.6299212598425197,
          "duration": 0.1091345062500011
        },
        {
          "name": "C3",
          "midi": 48,
          "time": 39.11534549999994,
          "velocity": 0.6299212598425197,
          "duration": 0.1091345062500011
        },
        {
          "name": "C#3",
          "midi": 49,
          "time": 39.23072999999994,
          "velocity": 0.6299212598425197,
          "duration": 0.1091345062500011
        },
        {
          "name": "G#2",
          "midi": 44,
          "time": 39.346114499999935,
          "velocity": 0.6299212598425197,
          "duration": 0.1091345062500011
        },
        {
          "name": "A#2",
          "midi": 46,
          "time": 39.46149899999993,
          "velocity": 0.6299212598425197,
          "duration": 0.1091345062500011
        },
        {
          "name": "C3",
          "midi": 48,
          "time": 39.57688349999993,
          "velocity": 0.6299212598425197,
          "duration": 0.1091345062500011
        },
        {
          "name": "C#3",
          "midi": 49,
          "time": 39.69226799999993,
          "velocity": 0.6299212598425197,
          "duration": 0.1091345062500011
        },
        {
          "name": "D#3",
          "midi": 51,
          "time": 39.807652499999925,
          "velocity": 0.6299212598425197,
          "duration": 0.1091345062500011
        },
        {
          "name": "F3",
          "midi": 53,
          "time": 39.92303699999992,
          "velocity": 0.6299212598425197,
          "duration": 0.1091345062500011
        },
        {
          "name": "F3",
          "midi": 53,
          "time": 40.153805999999925,
          "velocity": 0.6299212598425197,
          "duration": 0.1091345062500011
        },
        {
          "name": "F3",
          "midi": 53,
          "time": 40.38457499999993,
          "velocity": 0.6299212598425197,
          "duration": 0.1091345062500011
        },
        {
          "name": "C4",
          "midi": 60,
          "time": 40.61534399999993,
          "velocity": 0.6299212598425197,
          "duration": 0.1091345062500011
        },
        {
          "name": "A#3",
          "midi": 58,
          "time": 40.84611299999993,
          "velocity": 0.6299212598425197,
          "duration": 0.32836505625
        },
        {
          "name": "C4",
          "midi": 60,
          "time": 41.19226649999993,
          "velocity": 0.6299212598425197,
          "duration": 0.05432686875000314
        },
        {
          "name": "A#3",
          "midi": 58,
          "time": 41.249958749999934,
          "velocity": 0.6299212598425197,
          "duration": 0.05432686875000314
        },
        {
          "name": "A3",
          "midi": 57,
          "time": 41.307650999999936,
          "velocity": 0.6299212598425197,
          "duration": 0.1091345062500011
        },
        {
          "name": "F3",
          "midi": 53,
          "time": 41.53841999999994,
          "velocity": 0.6299212598425197,
          "duration": 0.1091345062500011
        },
        {
          "name": "A#2",
          "midi": 46,
          "time": 41.76918899999994,
          "velocity": 0.6299212598425197,
          "duration": 0.1091345062500011
        }
      ],
      "controlChanges": {},
      "id": 1,
      "name": "Grand Piano",
      "channelNumber": 0,
      "isPercussion": false
    }
  ]
}