{
  "header": {
    "PPQ": 480,
    "timeSignature": [
      4,
      4
    ],
    "bpm": 150,
    "name": ""
  },
  "tempo": [
    {
      "absoluteTime": 0,
      "seconds": 0,
      "bpm": 150
    }
  ],
  "timeSignature": [
    {
      "absoluteTime": 0,
      "seconds": 0,
      "numerator": 4,
      "denominator": 2,
      "click": 24,
      "notesQ": 8
    }
  ],
  "startTime": 0,
  "duration": 86.40000000000019,
  "tracks": [
    {
      "startTime": 0,
      "duration": 0,
      "length": 0,
      "notes": [],
      "controlChanges": {},
      "id": 0
    },
    {
      "startTime": 0,
      "duration": 86.39749999999935,
      "length": 601,
      "notes": [
        {
          "name": "C4",
          "midi": 60,
          "time": 0,
          "velocity": 0.8267716535433071,
          "duration": 0.2
        },
        {
          "name": "D4",
          "midi": 62,
          "time": 0.2,
          "velocity": 0.8267716535433071,
          "duration": 0.2
        },
        {
          "name": "D#4",
          "midi": 63,
          "time": 0.4,
          "velocity": 0.889763779527559,
          "duration": 0.19999999999999996
        },
        {
          "name": "C4",
          "midi": 60,
          "time": 0.5975,
          "velocity": 0.84251968503937,
          "duration": 0.10249999999999992
        },
        {
          "name": "D4",
          "midi": 62,
          "time": 0.7,
          "velocity": 0.905511811023622,
          "duration": 0.09999999999999998
        },
        {
          "name": "D#4",
          "midi": 63,
          "time": 0.7999999999999999,
          "velocity": 0.937007874015748,
          "duration": 0.09750000000000003
        },
        {
          "name": "G4",
          "midi": 67,
          "time": 0.8999999999999999,
          "velocity": 0.937007874015748,
          "duration": 0.09750000000000003
        },
        {
          "name": "C5",
          "midi": 72,
          "time": 0.9999999999999999,
          "velocity": 0.8661417322834646,
          "duration": 0.09750000000000003
        },
        {
          "name": "D5",
          "midi": 74,
          "time": 1.0999999999999999,
          "velocity": 0.8661417322834646,
          "duration": 0.09416666666666673
        },
        {
          "name": "D#5",
          "midi": 75,
          "time": 1.2,
          "velocity": 0.889763779527559,
          "duration": 0.09749999999999992
        },
        {
          "name": "G5",
          "midi": 79,
          "time": 1.2999999999999998,
          "velocity": 0.889763779527559,
          "duration": 0.09749999999999992
        },
        {
          "name": "C6",
          "midi": 84,
          "time": 1.3974999999999997,
          "velocity": 0.937007874015748,
          "duration": 0.09666666666666668
        },
        {
          "name": "D6",
          "midi": 86,
          "time": 1.4999999999999998,
          "velocity": 0.9763779527559056,
          "duration": 0.09749999999999992
        },
        {
          "name": "D#6",
          "midi": 87,
          "time": 1.5999999999999996,
          "velocity": 0.9763779527559056,
          "duration": 0.09749999999999992
        },
        {
          "name": "D6",
          "midi": 86,
          "time": 1.6974999999999996,
          "velocity": 0.9763779527559056,
          "duration": 0.09666666666666668
        },
        {
          "name": "C6",
          "midi": 84,
          "time": 1.7999999999999996,
          "velocity": 0.937007874015748,
          "duration": 0.09749999999999992
        },
        {
          "name": "G5",
          "midi": 79,
          "time": 1.8974999999999995,
          "velocity": 0.889763779527559,
          "duration": 0.10250000000000004
        },
        {
          "name": "F5",
          "midi": 77,
          "time": 1.9999999999999996,
          "velocity": 0.889763779527559,
          "duration": 0.10000000000000009
        },
        {
          "name": "D#5",
          "midi": 75,
          "time": 2.0999999999999996,
          "velocity": 0.952755905511811,
          "duration": 0.10000000000000009
        },
        {
          "name": "D5",
          "midi": 74,
          "time": 2.1999999999999997,
          "velocity": 0.8661417322834646,
          "duration": 0.09750000000000014
        },
        {
          "name": "A#4",
          "midi": 70,
          "time": 2.3,
          "velocity": 0.8503937007874016,
          "duration": 0.09416666666666673
        },
        {
          "name": "C5",
          "midi": 72,
          "time": 2.3941666666666666,
          "velocity": 0.8661417322834646,
          "duration": 0.09750000000000014
        },
        {
          "name": "G4",
          "midi": 67,
          "time": 2.5,
          "velocity": 0.937007874015748,
          "duration": 0.10000000000000009
        },
        {
          "name": "F4",
          "midi": 65,
          "time": 2.6,
          "velocity": 0.937007874015748,
          "duration": 0.09750000000000014
        },
        {
          "name": "D#4",
          "midi": 63,
          "time": 2.7,
          "velocity": 0.937007874015748,
          "duration": 0.10000000000000009
        },
        {
          "name": "F4",
          "midi": 65,
          "time": 2.8000000000000003,
          "velocity": 0.937007874015748,
          "duration": 0.10000000000000009
        },
        {
          "name": "D#4",
          "midi": 63,
          "time": 2.8975000000000004,
          "velocity": 0.8582677165354331,
          "duration": 0.09666666666666668
        },
        {
          "name": "D4",
          "midi": 62,
          "time": 3.0000000000000004,
          "velocity": 0.8582677165354331,
          "duration": 0.10000000000000009
        },
        {
          "name": "A#3",
          "midi": 58,
          "time": 3.1000000000000005,
          "velocity": 0.8582677165354331,
          "duration": 0.09750000000000014
        },
        {
          "name": "C4",
          "midi": 60,
          "time": 3.2000000000000006,
          "velocity": 0.8267716535433071,
          "duration": 0.20000000000000018
        },
        {
          "name": "D4",
          "midi": 62,
          "time": 3.400000000000001,
          "velocity": 0.8267716535433071,
          "duration": 0.20000000000000018
        },
        {
          "name": "D#4",
          "midi": 63,
          "time": 3.600000000000001,
          "velocity": 0.889763779527559,
          "duration": 0.20000000000000018
        },
        {
          "name": "C4",
          "midi": 60,
          "time": 3.797500000000001,
          "velocity": 0.84251968503937,
          "duration": 0.10250000000000004
        },
        {
          "name": "D4",
          "midi": 62,
          "time": 3.9000000000000012,
          "velocity": 0.905511811023622,
          "duration": 0.09999999999999964
        },
        {
          "name": "D#4",
          "midi": 63,
          "time": 4.000000000000001,
          "velocity": 0.937007874015748,
          "duration": 0.09750000000000014
        },
        {
          "name": "G4",
          "midi": 67,
          "time": 4.100000000000001,
          "velocity": 0.937007874015748,
          "duration": 0.09750000000000014
        },
        {
          "name": "C5",
          "midi": 72,
          "time": 4.200000000000002,
          "velocity": 0.8661417322834646,
          "duration": 0.09750000000000014
        },
        {
          "name": "D5",
          "midi": 74,
          "time": 4.3000000000000025,
          "velocity": 0.8661417322834646,
          "duration": 0.09416666666666629
        },
        {
          "name": "D#5",
          "midi": 75,
          "time": 4.400000000000002,
          "velocity": 0.889763779527559,
          "duration": 0.09750000000000014
        },
        {
          "name": "G5",
          "midi": 79,
          "time": 4.500000000000003,
          "velocity": 0.889763779527559,
          "duration": 0.09750000000000014
        },
        {
          "name": "C6",
          "midi": 84,
          "time": 4.597500000000003,
          "velocity": 0.937007874015748,
          "duration": 0.09666666666666668
        },
        {
          "name": "D6",
          "midi": 86,
          "time": 4.700000000000003,
          "velocity": 0.9763779527559056,
          "duration": 0.09750000000000014
        },
        {
          "name": "D#6",
          "midi": 87,
          "time": 4.800000000000003,
          "velocity": 0.9763779527559056,
          "duration": 0.09750000000000014
        },
        {
          "name": "D6",
          "midi": 86,
          "time": 4.8975000000000035,
          "velocity": 0.9763779527559056,
          "duration": 0.09666666666666668
        },
        {
          "name": "C6",
          "midi": 84,
          "time": 5.0000000000000036,
          "velocity": 0.937007874015748,
          "duration": 0.09750000000000014
        },
        {
          "name": "G5",
          "midi": 79,
          "time": 5.097500000000004,
          "velocity": 0.889763779527559,
          "duration": 0.10250000000000004
        },
        {
          "name": "F5",
          "midi": 77,
          "time": 5.200000000000004,
          "velocity": 0.889763779527559,
          "duration": 0.09999999999999964
        },
        {
          "name": "D#5",
          "midi": 75,
          "time": 5.300000000000003,
          "velocity": 0.952755905511811,
          "duration": 0.09999999999999964
        },
        {
          "name": "D5",
          "midi": 74,
          "time": 5.400000000000003,
          "velocity": 0.8661417322834646,
          "duration": 0.09750000000000014
        },
        {
          "name": "A#4",
          "midi": 70,
          "time": 5.5000000000000036,
          "velocity": 0.8503937007874016,
          "duration": 0.09416666666666629
        },
        {
          "name": "C5",
          "midi": 72,
          "time": 5.59416666666667,
          "velocity": 0.8661417322834646,
          "duration": 0.09750000000000014
        },
        {
          "name": "G4",
          "midi": 67,
          "time": 5.700000000000004,
          "velocity": 0.937007874015748,
          "duration": 0.09999999999999964
        },
        {
          "name": "F4",
          "midi": 65,
          "time": 5.800000000000003,
          "velocity": 0.937007874015748,
          "duration": 0.09750000000000014
        },
        {
          "name": "D#4",
          "midi": 63,
          "time": 5.900000000000004,
          "velocity": 0.937007874015748,
          "duration": 0.09999999999999964
        },
        {
          "name": "F4",
          "midi": 65,
          "time": 6.0000000000000036,
          "velocity": 0.937007874015748,
          "duration": 0.10000000000000053
        },
        {
          "name": "D#4",
          "midi": 63,
          "time": 6.097500000000004,
          "velocity": 0.8582677165354331,
          "duration": 0.09666666666666668
        },
        {
          "name": "D4",
          "midi": 62,
          "time": 6.200000000000004,
          "velocity": 0.8582677165354331,
          "duration": 0.09999999999999964
        },
        {
          "name": "A#3",
          "midi": 58,
          "time": 6.300000000000003,
          "velocity": 0.8582677165354331,
          "duration": 0.09750000000000014
        },
        {
          "name": "C4",
          "midi": 60,
          "time": 6.400000000000004,
          "velocity": 0.8267716535433071,
          "duration": 0.20000000000000018
        },
        {
          "name": "D4",
          "midi": 62,
          "time": 6.600000000000004,
          "velocity": 0.8267716535433071,
          "duration": 0.20000000000000018
        },
        {
          "name": "D#4",
          "midi": 63,
          "time": 6.800000000000004,
          "velocity": 0.889763779527559,
          "duration": 0.20000000000000018
        },
        {
          "name": "C4",
          "midi": 60,
          "time": 6.997500000000004,
          "velocity": 0.84251968503937,
          "duration": 0.10250000000000004
        },
        {
          "name": "D#4",
          "midi": 63,
          "time": 7.100000000000004,
          "velocity": 0.905511811023622,
          "duration": 0.09999999999999964
        },
        {
          "name": "G4",
          "midi": 67,
          "time": 7.200000000000004,
          "velocity": 0.937007874015748,
          "duration": 0.09750000000000014
        },
        {
          "name": "G#4",
          "midi": 68,
          "time": 7.300000000000004,
          "velocity": 0.937007874015748,
          "duration": 0.09750000000000014
        },
        {
          "name": "C5",
          "midi": 72,
          "time": 7.400000000000005,
          "velocity": 0.8661417322834646,
          "duration": 0.09750000000000014
        },
        {
          "name": "D#5",
          "midi": 75,
          "time": 7.500000000000005,
          "velocity": 0.8661417322834646,
          "duration": 0.09416666666666629
        },
        {
          "name": "G5",
          "midi": 79,
          "time": 7.600000000000005,
          "velocity": 0.889763779527559,
          "duration": 0.09750000000000014
        },
        {
          "name": "G#5",
          "midi": 80,
          "time": 7.7000000000000055,
          "velocity": 0.889763779527559,
          "duration": 0.09750000000000014
        },
        {
          "name": "C6",
          "midi": 84,
          "time": 7.797500000000006,
          "velocity": 0.937007874015748,
          "duration": 0.09666666666666668
        },
        {
          "name": "D#6",
          "midi": 87,
          "time": 7.900000000000006,
          "velocity": 0.9763779527559056,
          "duration": 0.09750000000000014
        },
        {
          "name": "G6",
          "midi": 91,
          "time": 8.000000000000005,
          "velocity": 0.9763779527559056,
          "duration": 0.09750000000000014
        },
        {
          "name": "D#6",
          "midi": 87,
          "time": 8.097500000000005,
          "velocity": 0.9763779527559056,
          "duration": 0.09666666666666579
        },
        {
          "name": "C6",
          "midi": 84,
          "time": 8.200000000000005,
          "velocity": 0.937007874015748,
          "duration": 0.09750000000000014
        },
        {
          "name": "A#5",
          "midi": 82,
          "time": 8.297500000000005,
          "velocity": 0.889763779527559,
          "duration": 0.10249999999999915
        },
        {
          "name": "G5",
          "midi": 79,
          "time": 8.400000000000004,
          "velocity": 0.889763779527559,
          "duration": 0.09999999999999964
        },
        {
          "name": "D#5",
          "midi": 75,
          "time": 8.500000000000004,
          "velocity": 0.952755905511811,
          "duration": 0.09999999999999964
        },
        {
          "name": "C5",
          "midi": 72,
          "time": 8.600000000000003,
          "velocity": 0.8661417322834646,
          "duration": 0.09750000000000014
        },
        {
          "name": "A#4",
          "midi": 70,
          "time": 8.700000000000003,
          "velocity": 0.8503937007874016,
          "duration": 0.09416666666666629
        },
        {
          "name": "C5",
          "midi": 72,
          "time": 8.79416666666667,
          "velocity": 0.8661417322834646,
          "duration": 0.09750000000000014
        },
        {
          "name": "G#4",
          "midi": 68,
          "time": 8.900000000000002,
          "velocity": 0.937007874015748,
          "duration": 0.09999999999999964
        },
        {
          "name": "G4",
          "midi": 67,
          "time": 9.000000000000002,
          "velocity": 0.937007874015748,
          "duration": 0.09750000000000014
        },
        {
          "name": "D#4",
          "midi": 63,
          "time": 9.100000000000001,
          "velocity": 0.937007874015748,
          "duration": 0.09999999999999964
        },
        {
          "name": "G4",
          "midi": 67,
          "time": 9.200000000000001,
          "velocity": 0.937007874015748,
          "duration": 0.09999999999999964
        },
        {
          "name": "D#4",
          "midi": 63,
          "time": 9.297500000000001,
          "velocity": 0.8582677165354331,
          "duration": 0.09666666666666579
        },
        {
          "name": "C4",
          "midi": 60,
          "time": 9.4,
          "velocity": 0.8582677165354331,
          "duration": 0.09999999999999964
        },
        {
          "name": "A#3",
          "midi": 58,
          "time": 9.5,
          "velocity": 0.8582677165354331,
          "duration": 0.09750000000000014
        },
        {
          "name": "C4",
          "midi": 60,
          "time": 9.6,
          "velocity": 0.8267716535433071,
          "duration": 0.1999999999999993
        },
        {
          "name": "D4",
          "midi": 62,
          "time": 9.799999999999999,
          "velocity": 0.8267716535433071,
          "duration": 0.1999999999999993
        },
        {
          "name": "D#4",
          "midi": 63,
          "time": 9.999999999999998,
          "velocity": 0.889763779527559,
          "duration": 0.1999999999999993
        },
        {
          "name": "C4",
          "midi": 60,
          "time": 10.197499999999998,
          "velocity": 0.84251968503937,
          "duration": 0.10249999999999915
        },
        {
          "name": "G4",
          "midi": 67,
          "time": 10.299999999999997,
          "velocity": 0.905511811023622,
          "duration": 0.09999999999999964
        },
        {
          "name": "C4",
          "midi": 60,
          "time": 10.399999999999997,
          "velocity": 0.937007874015748,
          "duration": 0.09750000000000014
        },
        {
          "name": "D#4",
          "midi": 63,
          "time": 10.499999999999996,
          "velocity": 0.937007874015748,
          "duration": 0.09750000000000014
        },
        {
          "name": "G4",
          "midi": 67,
          "time": 10.599999999999996,
          "velocity": 0.8661417322834646,
          "duration": 0.09750000000000014
        },
        {
          "name": "D#5",
          "midi": 75,
          "time": 10.699999999999996,
          "velocity": 0.8661417322834646,
          "duration": 0.09416666666666629
        },
        {
          "name": "C5",
          "midi": 72,
          "time": 10.799999999999995,
          "velocity": 0.889763779527559,
          "duration": 0.09750000000000014
        },
        {
          "name": "D#5",
          "midi": 75,
          "time": 10.899999999999995,
          "velocity": 0.889763779527559,
          "duration": 0.09750000000000014
        },
        {
          "name": "G5",
          "midi": 79,
          "time": 10.999999999999995,
          "velocity": 0.937007874015748,
          "duration": 0.09416666666666629
        },
        {
          "name": "C6",
          "midi": 84,
          "time": 11.099999999999994,
          "velocity": 0.9763779527559056,
          "duration": 0.09750000000000014
        },
        {
          "name": "A#3",
          "midi": 58,
          "time": 11.199999999999994,
          "velocity": 0.9763779527559056,
          "duration": 0.09750000000000014
        },
        {
          "name": "D4",
          "midi": 62,
          "time": 11.297499999999994,
          "velocity": 0.9763779527559056,
          "duration": 0.09666666666666579
        },
        {
          "name": "F4",
          "midi": 65,
          "time": 11.399999999999993,
          "velocity": 0.937007874015748,
          "duration": 0.09750000000000014
        },
        {
          "name": "G4",
          "midi": 67,
          "time": 11.497499999999993,
          "velocity": 0.889763779527559,
          "duration": 0.10249999999999915
        },
        {
          "name": "D4",
          "midi": 62,
          "time": 11.599999999999993,
          "velocity": 0.889763779527559,
          "duration": 0.09999999999999964
        },
        {
          "name": "F4",
          "midi": 65,
          "time": 11.699999999999992,
          "velocity": 0.952755905511811,
          "duration": 0.09999999999999964
        },
        {
          "name": "G4",
          "midi": 67,
          "time": 11.799999999999992,
          "velocity": 0.8661417322834646,
          "duration": 0.09750000000000014
        },
        {
          "name": "A#4",
          "midi": 70,
          "time": 11.899999999999991,
          "velocity": 0.8503937007874016,
          "duration": 0.09416666666666629
        },
        {
          "name": "F4",
          "midi": 65,
          "time": 11.994166666666658,
          "velocity": 0.8661417322834646,
          "duration": 0.09750000000000014
        },
        {
          "name": "G4",
          "midi": 67,
          "time": 12.09999999999999,
          "velocity": 0.937007874015748,
          "duration": 0.09999999999999964
        },
        {
          "name": "A#4",
          "midi": 70,
          "time": 12.19999999999999,
          "velocity": 0.937007874015748,
          "duration": 0.09750000000000014
        },
        {
          "name": "D5",
          "midi": 74,
          "time": 12.29999999999999,
          "velocity": 0.937007874015748,
          "duration": 0.09999999999999964
        },
        {
          "name": "G4",
          "midi": 67,
          "time": 12.39999999999999,
          "velocity": 0.937007874015748,
          "duration": 0.09999999999999964
        },
        {
          "name": "A#4",
          "midi": 70,
          "time": 12.49749999999999,
          "velocity": 0.8582677165354331,
          "duration": 0.09666666666666579
        },
        {
          "name": "D5",
          "midi": 74,
          "time": 12.599999999999989,
          "velocity": 0.8582677165354331,
          "duration": 0.09999999999999964
        },
        {
          "name": "G5",
          "midi": 79,
          "time": 12.699999999999989,
          "velocity": 0.8582677165354331,
          "duration": 0.09750000000000014
        },
        {
          "name": "C4",
          "midi": 60,
          "time": 12.799999999999988,
          "velocity": 0.8267716535433071,
          "duration": 0.1999999999999993
        },
        {
          "name": "D4",
          "midi": 62,
          "time": 12.999999999999988,
          "velocity": 0.8267716535433071,
          "duration": 0.1999999999999993
        },
        {
          "name": "D#4",
          "midi": 63,
          "time": 13.199999999999987,
          "velocity": 0.889763779527559,
          "duration": 0.1999999999999993
        },
        {
          "name": "C4",
          "midi": 60,
          "time": 13.397499999999987,
          "velocity": 0.84251968503937,
          "duration": 0.10249999999999915
        },
        {
          "name": "D4",
          "midi": 62,
          "time": 13.499999999999986,
          "velocity": 0.905511811023622,
          "duration": 0.09999999999999964
        },
        {
          "name": "D#4",
          "midi": 63,
          "time": 13.599999999999985,
          "velocity": 0.937007874015748,
          "duration": 0.09750000000000014
        },
        {
          "name": "G4",
          "midi": 67,
          "time": 13.699999999999985,
          "velocity": 0.937007874015748,
          "duration": 0.09750000000000014
        },
        {
          "name": "C5",
          "midi": 72,
          "time": 13.799999999999985,
          "velocity": 0.8661417322834646,
          "duration": 0.09750000000000014
        },
        {
          "name": "D5",
          "midi": 74,
          "time": 13.899999999999984,
          "velocity": 0.8661417322834646,
          "duration": 0.09416666666666629
        },
        {
          "name": "D#5",
          "midi": 75,
          "time": 13.999999999999984,
          "velocity": 0.889763779527559,
          "duration": 0.09750000000000014
        },
        {
          "name": "G5",
          "midi": 79,
          "time": 14.099999999999984,
          "velocity": 0.889763779527559,
          "duration": 0.09750000000000014
        },
        {
          "name": "C6",
          "midi": 84,
          "time": 14.197499999999984,
          "velocity": 0.937007874015748,
          "duration": 0.09666666666666757
        },
        {
          "name": "D6",
          "midi": 86,
          "time": 14.299999999999985,
          "velocity": 0.9763779527559056,
          "duration": 0.09750000000000014
        },
        {
          "name": "D#6",
          "midi": 87,
          "time": 14.399999999999984,
          "velocity": 0.9763779527559056,
          "duration": 0.09750000000000014
        },
        {
          "name": "D6",
          "midi": 86,
          "time": 14.497499999999985,
          "velocity": 0.9763779527559056,
          "duration": 0.09666666666666757
        },
        {
          "name": "C6",
          "midi": 84,
          "time": 14.599999999999985,
          "velocity": 0.937007874015748,
          "duration": 0.09750000000000014
        },
        {
          "name": "G5",
          "midi": 79,
          "time": 14.697499999999986,
          "velocity": 0.889763779527559,
          "duration": 0.10249999999999915
        },
        {
          "name": "F5",
          "midi": 77,
          "time": 14.799999999999985,
          "velocity": 0.889763779527559,
          "duration": 0.09999999999999964
        },
        {
          "name": "D#5",
          "midi": 75,
          "time": 14.899999999999984,
          "velocity": 0.952755905511811,
          "duration": 0.09999999999999964
        },
        {
          "name": "D5",
          "midi": 74,
          "time": 14.999999999999984,
          "velocity": 0.8661417322834646,
          "duration": 0.09750000000000014
        },
        {
          "name": "A#4",
          "midi": 70,
          "time": 15.099999999999984,
          "velocity": 0.8503937007874016,
          "duration": 0.09416666666666629
        },
        {
          "name": "C5",
          "midi": 72,
          "time": 15.19416666666665,
          "velocity": 0.8661417322834646,
          "duration": 0.09750000000000014
        },
        {
          "name": "G4",
          "midi": 67,
          "time": 15.299999999999983,
          "velocity": 0.937007874015748,
          "duration": 0.09999999999999964
        },
        {
          "name": "F4",
          "midi": 65,
          "time": 15.399999999999983,
          "velocity": 0.937007874015748,
          "duration": 0.09750000000000014
        },
        {
          "name": "D#4",
          "midi": 63,
          "time": 15.499999999999982,
          "velocity": 0.937007874015748,
          "duration": 0.09999999999999964
        },
        {
          "name": "F4",
          "midi": 65,
          "time": 15.599999999999982,
          "velocity": 0.937007874015748,
          "duration": 0.09999999999999964
        },
        {
          "name": "D#4",
          "midi": 63,
          "time": 15.697499999999982,
          "velocity": 0.8582677165354331,
          "duration": 0.09666666666666579
        },
        {
          "name": "D4",
          "midi": 62,
          "time": 15.799999999999981,
          "velocity": 0.8582677165354331,
          "duration": 0.09999999999999964
        },
        {
          "name": "A#3",
          "midi": 58,
          "time": 15.89999999999998,
          "velocity": 0.8582677165354331,
          "duration": 0.09750000000000014
        },
        {
          "name": "C4",
          "midi": 60,
          "time": 15.99999999999998,
          "velocity": 0.8267716535433071,
          "duration": 0.20000000000000107
        },
        {
          "name": "D4",
          "midi": 62,
          "time": 16.19999999999998,
          "velocity": 0.8267716535433071,
          "duration": 0.1999999999999993
        },
        {
          "name": "D#4",
          "midi": 63,
          "time": 16.39999999999998,
          "velocity": 0.889763779527559,
          "duration": 0.20000000000000284
        },
        {
          "name": "C4",
          "midi": 60,
          "time": 16.597499999999982,
          "velocity": 0.84251968503937,
          "duration": 0.1025000000000027
        },
        {
          "name": "D4",
          "midi": 62,
          "time": 16.699999999999985,
          "velocity": 0.905511811023622,
          "duration": 0.10000000000000142
        },
        {
          "name": "D#4",
          "midi": 63,
          "time": 16.799999999999986,
          "velocity": 0.937007874015748,
          "duration": 0.09750000000000014
        },
        {
          "name": "G4",
          "midi": 67,
          "time": 16.899999999999988,
          "velocity": 0.937007874015748,
          "duration": 0.09750000000000014
        },
        {
          "name": "C5",
          "midi": 72,
          "time": 16.99999999999999,
          "velocity": 0.8661417322834646,
          "duration": 0.09750000000000014
        },
        {
          "name": "D5",
          "midi": 74,
          "time": 17.09999999999999,
          "velocity": 0.8661417322834646,
          "duration": 0.09416666666666629
        },
        {
          "name": "D#5",
          "midi": 75,
          "time": 17.19999999999999,
          "velocity": 0.889763779527559,
          "duration": 0.09750000000000014
        },
        {
          "name": "G5",
          "midi": 79,
          "time": 17.29999999999999,
          "velocity": 0.889763779527559,
          "duration": 0.09750000000000014
        },
        {
          "name": "C6",
          "midi": 84,
          "time": 17.39749999999999,
          "velocity": 0.937007874015748,
          "duration": 0.09666666666666757
        },
        {
          "name": "D6",
          "midi": 86,
          "time": 17.49999999999999,
          "velocity": 0.9763779527559056,
          "duration": 0.09750000000000014
        },
        {
          "name": "D#6",
          "midi": 87,
          "time": 17.59999999999999,
          "velocity": 0.9763779527559056,
          "duration": 0.09750000000000014
        },
        {
          "name": "D6",
          "midi": 86,
          "time": 17.69749999999999,
          "velocity": 0.9763779527559056,
          "duration": 0.09666666666666757
        },
        {
          "name": "C6",
          "midi": 84,
          "time": 17.79999999999999,
          "velocity": 0.937007874015748,
          "duration": 0.09750000000000014
        },
        {
          "name": "G5",
          "midi": 79,
          "time": 17.89749999999999,
          "velocity": 0.889763779527559,
          "duration": 0.10249999999999915
        },
        {
          "name": "F5",
          "midi": 77,
          "time": 17.99999999999999,
          "velocity": 0.889763779527559,
          "duration": 0.10000000000000142
        },
        {
          "name": "D#5",
          "midi": 75,
          "time": 18.09999999999999,
          "velocity": 0.952755905511811,
          "duration": 0.10000000000000142
        },
        {
          "name": "D5",
          "midi": 74,
          "time": 18.199999999999992,
          "velocity": 0.8661417322834646,
          "duration": 0.09750000000000014
        },
        {
          "name": "A#4",
          "midi": 70,
          "time": 18.299999999999994,
          "velocity": 0.8503937007874016,
          "duration": 0.09416666666666629
        },
        {
          "name": "C5",
          "midi": 72,
          "time": 18.39416666666666,
          "velocity": 0.8661417322834646,
          "duration": 0.09750000000000014
        },
        {
          "name": "G4",
          "midi": 67,
          "time": 18.499999999999993,
          "velocity": 0.937007874015748,
          "duration": 0.10000000000000142
        },
        {
          "name": "F4",
          "midi": 65,
          "time": 18.599999999999994,
          "velocity": 0.937007874015748,
          "duration": 0.09750000000000014
        },
        {
          "name": "D#4",
          "midi": 63,
          "time": 18.699999999999996,
          "velocity": 0.937007874015748,
          "duration": 0.10000000000000142
        },
        {
          "name": "F4",
          "midi": 65,
          "time": 18.799999999999997,
          "velocity": 0.937007874015748,
          "duration": 0.10000000000000142
        },
        {
          "name": "D#4",
          "midi": 63,
          "time": 18.897499999999997,
          "velocity": 0.8582677165354331,
          "duration": 0.09666666666666757
        },
        {
          "name": "D4",
          "midi": 62,
          "time": 18.999999999999996,
          "velocity": 0.8582677165354331,
          "duration": 0.10000000000000142
        },
        {
          "name": "A#3",
          "midi": 58,
          "time": 19.099999999999998,
          "velocity": 0.8582677165354331,
          "duration": 0.09750000000000014
        },
        {
          "name": "C4",
          "midi": 60,
          "time": 19.2,
          "velocity": 0.8267716535433071,
          "duration": 0.1999999999999993
        },
        {
          "name": "D4",
          "midi": 62,
          "time": 19.4,
          "velocity": 0.8267716535433071,
          "duration": 0.1999999999999993
        },
        {
          "name": "D#4",
          "midi": 63,
          "time": 19.599999999999998,
          "velocity": 0.889763779527559,
          "duration": 0.20000000000000284
        },
        {
          "name": "C4",
          "midi": 60,
          "time": 19.7975,
          "velocity": 0.84251968503937,
          "duration": 0.1025000000000027
        },
        {
          "name": "D#4",
          "midi": 63,
          "time": 19.900000000000002,
          "velocity": 0.905511811023622,
          "duration": 0.10000000000000142
        },
        {
          "name": "G4",
          "midi": 67,
          "time": 20.000000000000004,
          "velocity": 0.937007874015748,
          "duration": 0.09750000000000014
        },
        {
          "name": "G#4",
          "midi": 68,
          "time": 20.100000000000005,
          "velocity": 0.937007874015748,
          "duration": 0.09750000000000014
        },
        {
          "name": "C5",
          "midi": 72,
          "time": 20.200000000000006,
          "velocity": 0.8661417322834646,
          "duration": 0.09750000000000014
        },
        {
          "name": "D#5",
          "midi": 75,
          "time": 20.300000000000008,
          "velocity": 0.8661417322834646,
          "duration": 0.09416666666666629
        },
        {
          "name": "G5",
          "midi": 79,
          "time": 20.400000000000006,
          "velocity": 0.889763779527559,
          "duration": 0.09750000000000014
        },
        {
          "name": "G#5",
          "midi": 80,
          "time": 20.500000000000007,
          "velocity": 0.889763779527559,
          "duration": 0.09750000000000014
        },
        {
          "name": "C6",
          "midi": 84,
          "time": 20.597500000000007,
          "velocity": 0.937007874015748,
          "duration": 0.09666666666666757
        },
        {
          "name": "D#6",
          "midi": 87,
          "time": 20.700000000000006,
          "velocity": 0.9763779527559056,
          "duration": 0.09750000000000014
        },
        {
          "name": "G6",
          "midi": 91,
          "time": 20.800000000000008,
          "velocity": 0.9763779527559056,
          "duration": 0.09750000000000014
        },
        {
          "name": "D#6",
          "midi": 87,
          "time": 20.897500000000008,
          "velocity": 0.9763779527559056,
          "duration": 0.09666666666666757
        },
        {
          "name": "C6",
          "midi": 84,
          "time": 21.000000000000007,
          "velocity": 0.937007874015748,
          "duration": 0.09750000000000014
        },
        {
          "name": "A#5",
          "midi": 82,
          "time": 21.097500000000007,
          "velocity": 0.889763779527559,
          "duration": 0.10249999999999915
        },
        {
          "name": "G5",
          "midi": 79,
          "time": 21.200000000000006,
          "velocity": 0.889763779527559,
          "duration": 0.10000000000000142
        },
        {
          "name": "D#5",
          "midi": 75,
          "time": 21.300000000000008,
          "velocity": 0.952755905511811,
          "duration": 0.10000000000000142
        },
        {
          "name": "C5",
          "midi": 72,
          "time": 21.40000000000001,
          "velocity": 0.8661417322834646,
          "duration": 0.09750000000000014
        },
        {
          "name": "A#4",
          "midi": 70,
          "time": 21.50000000000001,
          "velocity": 0.8503937007874016,
          "duration": 0.09416666666666629
        },
        {
          "name": "C5",
          "midi": 72,
          "time": 21.594166666666677,
          "velocity": 0.8661417322834646,
          "duration": 0.09750000000000014
        },
        {
          "name": "G#4",
          "midi": 68,
          "time": 21.70000000000001,
          "velocity": 0.937007874015748,
          "duration": 0.10000000000000142
        },
        {
          "name": "G4",
          "midi": 67,
          "time": 21.80000000000001,
          "velocity": 0.937007874015748,
          "duration": 0.09750000000000014
        },
        {
          "name": "D#4",
          "midi": 63,
          "time": 21.900000000000013,
          "velocity": 0.937007874015748,
          "duration": 0.10000000000000142
        },
        {
          "name": "G4",
          "midi": 67,
          "time": 22.000000000000014,
          "velocity": 0.937007874015748,
          "duration": 0.10000000000000142
        },
        {
          "name": "D#4",
          "midi": 63,
          "time": 22.097500000000014,
          "velocity": 0.8582677165354331,
          "duration": 0.09666666666666757
        },
        {
          "name": "C4",
          "midi": 60,
          "time": 22.200000000000014,
          "velocity": 0.8582677165354331,
          "duration": 0.10000000000000142
        },
        {
          "name": "A#3",
          "midi": 58,
          "time": 22.300000000000015,
          "velocity": 0.8582677165354331,
          "duration": 0.09750000000000014
        },
        {
          "name": "C4",
          "midi": 60,
          "time": 22.400000000000016,
          "velocity": 0.8267716535433071,
          "duration": 0.1999999999999993
        },
        {
          "name": "D4",
          "midi": 62,
          "time": 22.600000000000016,
          "velocity": 0.8267716535433071,
          "duration": 0.1999999999999993
        },
        {
          "name": "D#4",
          "midi": 63,
          "time": 22.800000000000015,
          "velocity": 0.889763779527559,
          "duration": 0.20000000000000284
        },
        {
          "name": "C4",
          "midi": 60,
          "time": 22.997500000000016,
          "velocity": 0.84251968503937,
          "duration": 0.1025000000000027
        },
        {
          "name": "G4",
          "midi": 67,
          "time": 23.10000000000002,
          "velocity": 0.905511811023622,
          "duration": 0.10000000000000142
        },
        {
          "name": "C4",
          "midi": 60,
          "time": 23.20000000000002,
          "velocity": 0.937007874015748,
          "duration": 0.09750000000000014
        },
        {
          "name": "D#4",
          "midi": 63,
          "time": 23.300000000000022,
          "velocity": 0.937007874015748,
          "duration": 0.09750000000000014
        },
        {
          "name": "G4",
          "midi": 67,
          "time": 23.400000000000023,
          "velocity": 0.8661417322834646,
          "duration": 0.09750000000000014
        },
        {
          "name": "D#5",
          "midi": 75,
          "time": 23.500000000000025,
          "velocity": 0.8661417322834646,
          "duration": 0.09416666666666629
        },
        {
          "name": "C5",
          "midi": 72,
          "time": 23.600000000000023,
          "velocity": 0.889763779527559,
          "duration": 0.09750000000000014
        },
        {
          "name": "D#5",
          "midi": 75,
          "time": 23.700000000000024,
          "velocity": 0.889763779527559,
          "duration": 0.09750000000000014
        },
        {
          "name": "G5",
          "midi": 79,
          "time": 23.800000000000026,
          "velocity": 0.937007874015748,
          "duration": 0.09416666666666629
        },
        {
          "name": "C6",
          "midi": 84,
          "time": 23.900000000000023,
          "velocity": 0.9763779527559056,
          "duration": 0.09750000000000014
        },
        {
          "name": "A#3",
          "midi": 58,
          "time": 24.000000000000025,
          "velocity": 0.9763779527559056,
          "duration": 0.09750000000000014
        },
        {
          "name": "D4",
          "midi": 62,
          "time": 24.097500000000025,
          "velocity": 0.9763779527559056,
          "duration": 0.09666666666666757
        },
        {
          "name": "F4",
          "midi": 65,
          "time": 24.200000000000024,
          "velocity": 0.937007874015748,
          "duration": 0.09750000000000014
        },
        {
          "name": "G4",
          "midi": 67,
          "time": 24.297500000000024,
          "velocity": 0.889763779527559,
          "duration": 0.10249999999999915
        },
        {
          "name": "D4",
          "midi": 62,
          "time": 24.400000000000023,
          "velocity": 0.889763779527559,
          "duration": 0.10000000000000142
        },
        {
          "name": "F4",
          "midi": 65,
          "time": 24.500000000000025,
          "velocity": 0.952755905511811,
          "duration": 0.10000000000000142
        },
        {
          "name": "G4",
          "midi": 67,
          "time": 24.600000000000026,
          "velocity": 0.8661417322834646,
          "duration": 0.09750000000000014
        },
        {
          "name": "A#4",
          "midi": 70,
          "time": 24.700000000000028,
          "velocity": 0.8503937007874016,
          "duration": 0.09416666666666629
        },
        {
          "name": "F4",
          "midi": 65,
          "time": 24.794166666666694,
          "velocity": 0.8661417322834646,
          "duration": 0.09750000000000014
        },
        {
          "name": "G4",
          "midi": 67,
          "time": 24.900000000000027,
          "velocity": 0.937007874015748,
          "duration": 0.10000000000000142
        },
        {
          "name": "A#4",
          "midi": 70,
          "time": 25.00000000000003,
          "velocity": 0.937007874015748,
          "duration": 0.09750000000000014
        },
        {
          "name": "D5",
          "midi": 74,
          "time": 25.10000000000003,
          "velocity": 0.937007874015748,
          "duration": 0.10000000000000142
        },
        {
          "name": "G4",
          "midi": 67,
          "time": 25.20000000000003,
          "velocity": 0.937007874015748,
          "duration": 0.10000000000000142
        },
        {
          "name": "A#4",
          "midi": 70,
          "time": 25.29750000000003,
          "velocity": 0.8582677165354331,
          "duration": 0.09666666666666757
        },
        {
          "name": "D5",
          "midi": 74,
          "time": 25.40000000000003,
          "velocity": 0.8582677165354331,
          "duration": 0.10000000000000142
        },
        {
          "name": "G5",
          "midi": 79,
          "time": 25.500000000000032,
          "velocity": 0.8582677165354331,
          "duration": 0.09750000000000014
        },
        {
          "name": "C7",
          "midi": 96,
          "time": 25.600000000000033,
          "velocity": 1,
          "duration": 0.1999999999999993
        },
        {
          "name": "A#6",
          "midi": 94,
          "time": 25.800000000000033,
          "velocity": 1,
          "duration": 0.09999999999999787
        },
        {
          "name": "C7",
          "midi": 96,
          "time": 25.898333333333365,
          "velocity": 0.952755905511811,
          "duration": 0.10166666666666302
        },
        {
          "name": "G6",
          "midi": 91,
          "time": 25.998333333333363,
          "velocity": 0.8740157480314961,
          "duration": 0.20166666666666444
        },
        {
          "name": "D#6",
          "midi": 87,
          "time": 26.200000000000028,
          "velocity": 1,
          "duration": 0.10000000000000142
        },
        {
          "name": "G6",
          "midi": 91,
          "time": 26.30000000000003,
          "velocity": 0.8976377952755905,
          "duration": 0.10000000000000142
        },
        {
          "name": "D6",
          "midi": 86,
          "time": 26.40000000000003,
          "velocity": 0.8976377952755905,
          "duration": 0.10000000000000142
        },
        {
          "name": "A#5",
          "midi": 82,
          "time": 26.500000000000032,
          "velocity": 0.8976377952755905,
          "duration": 0.10000000000000142
        },
        {
          "name": "G5",
          "midi": 79,
          "time": 26.600000000000033,
          "velocity": 0.8976377952755905,
          "duration": 0.10000000000000142
        },
        {
          "name": "D#5",
          "midi": 75,
          "time": 26.700000000000035,
          "velocity": 0.8976377952755905,
          "duration": 0.10000000000000142
        },
        {
          "name": "D5",
          "midi": 74,
          "time": 26.800000000000036,
          "velocity": 0.8976377952755905,
          "duration": 0.10000000000000142
        },
        {
          "name": "A#4",
          "midi": 70,
          "time": 26.900000000000038,
          "velocity": 0.8976377952755905,
          "duration": 0.10000000000000142
        },
        {
          "name": "G4",
          "midi": 67,
          "time": 27.00000000000004,
          "velocity": 0.8976377952755905,
          "duration": 0.10000000000000142
        },
        {
          "name": "D#4",
          "midi": 63,
          "time": 27.10000000000004,
          "velocity": 0.8976377952755905,
          "duration": 0.10000000000000142
        },
        {
          "name": "D4",
          "midi": 62,
          "time": 27.200000000000042,
          "velocity": 0.8976377952755905,
          "duration": 0.10000000000000142
        },
        {
          "name": "A#3",
          "midi": 58,
          "time": 27.300000000000043,
          "velocity": 0.8976377952755905,
          "duration": 0.10000000000000142
        },
        {
          "name": "G3",
          "midi": 55,
          "time": 27.400000000000045,
          "velocity": 0.8976377952755905,
          "duration": 0.10000000000000142
        },
        {
          "name": "D#3",
          "midi": 51,
          "time": 27.500000000000046,
          "velocity": 0.8976377952755905,
          "duration": 0.10000000000000142
        },
        {
          "name": "D3",
          "midi": 50,
          "time": 27.600000000000048,
          "velocity": 0.8976377952755905,
          "duration": 0.10000000000000142
        },
        {
          "name": "A#2",
          "midi": 46,
          "time": 27.70000000000005,
          "velocity": 0.8976377952755905,
          "duration": 0.10000000000000142
        },
        {
          "name": "G2",
          "midi": 43,
          "time": 27.80000000000005,
          "velocity": 0.8976377952755905,
          "duration": 0.10000000000000142
        },
        {
          "name": "A#2",
          "midi": 46,
          "time": 27.900000000000052,
          "velocity": 0.8976377952755905,
          "duration": 0.10000000000000142
        },
        {
          "name": "D3",
          "midi": 50,
          "time": 28.000000000000053,
          "velocity": 0.8976377952755905,
          "duration": 0.10000000000000142
        },
        {
          "name": "D#3",
          "midi": 51,
          "time": 28.100000000000055,
          "velocity": 0.8976377952755905,
          "duration": 0.10000000000000142
        },
        {
          "name": "G3",
          "midi": 55,
          "time": 28.200000000000056,
          "velocity": 0.8976377952755905,
          "duration": 0.10000000000000142
        },
        {
          "name": "A#3",
          "midi": 58,
          "time": 28.300000000000058,
          "velocity": 0.8976377952755905,
          "duration": 0.10000000000000142
        },
        {
          "name": "D4",
          "midi": 62,
          "time": 28.40000000000006,
          "velocity": 0.8976377952755905,
          "duration": 0.10000000000000142
        },
        {
          "name": "D#4",
          "midi": 63,
          "time": 28.50000000000006,
          "velocity": 0.8976377952755905,
          "duration": 0.10000000000000142
        },
        {
          "name": "G4",
          "midi": 67,
          "time": 28.600000000000062,
          "velocity": 0.8976377952755905,
          "duration": 0.10000000000000142
        },
        {
          "name": "A#4",
          "midi": 70,
          "time": 28.700000000000063,
          "velocity": 0.8976377952755905,
          "duration": 0.10000000000000142
        },
        {
          "name": "C5",
          "midi": 72,
          "time": 28.800000000000065,
          "velocity": 0.8976377952755905,
          "duration": 0.10000000000000142
        },
        {
          "name": "C4",
          "midi": 60,
          "time": 30.400000000000066,
          "velocity": 0.8503937007874016,
          "duration": 0.6000000000000014
        },
        {
          "name": "G#3",
          "midi": 56,
          "time": 31.000000000000068,
          "velocity": 0.8976377952755905,
          "duration": 0.3999999999999986
        },
        {
          "name": "G3",
          "midi": 55,
          "time": 31.400000000000066,
          "velocity": 0.8818897637795275,
          "duration": 0.5999999999999979
        },
        {
          "name": "C3",
          "midi": 48,
          "time": 32.000000000000064,
          "velocity": 0.889763779527559,
          "duration": 1.6000000000000014
        },
        {
          "name": "D#3",
          "midi": 51,
          "time": 32.000000000000064,
          "velocity": 0.889763779527559,
          "duration": 1.6000000000000014
        },
        {
          "name": "A#3",
          "midi": 58,
          "time": 33.600000000000065,
          "velocity": 0.84251968503937,
          "duration": 0.6000000000000014
        },
        {
          "name": "D4",
          "midi": 62,
          "time": 33.600000000000065,
          "velocity": 0.889763779527559,
          "duration": 0.6000000000000014
        },
        {
          "name": "C4",
          "midi": 60,
          "time": 34.20000000000007,
          "velocity": 0.8267716535433071,
          "duration": 0.6000000000000014
        },
        {
          "name": "D#4",
          "midi": 63,
          "time": 34.20000000000007,
          "velocity": 0.8976377952755905,
          "duration": 0.6000000000000014
        },
        {
          "name": "G3",
          "midi": 55,
          "time": 34.80000000000007,
          "velocity": 0.8346456692913385,
          "duration": 1.2000000000000028
        },
        {
          "name": "D4",
          "midi": 62,
          "time": 34.80000000000007,
          "velocity": 0.889763779527559,
          "duration": 1.1991666666666703
        },
        {
          "name": "F4",
          "midi": 65,
          "time": 34.80000000000007,
          "velocity": 0.889763779527559,
          "duration": 1.1991666666666703
        },
        {
          "name": "F5",
          "midi": 77,
          "time": 37.00000000000007,
          "velocity": 0.8110236220472441,
          "duration": 0.20000000000000284
        },
        {
          "name": "G5",
          "midi": 79,
          "time": 37.200000000000074,
          "velocity": 0.8110236220472441,
          "duration": 0.20000000000000284
        },
        {
          "name": "A#5",
          "midi": 82,
          "time": 37.40000000000008,
          "velocity": 0.889763779527559,
          "duration": 0.20000000000000284
        },
        {
          "name": "C6",
          "midi": 84,
          "time": 37.60000000000008,
          "velocity": 1,
          "duration": 0.20000000000000284
        },
        {
          "name": "F6",
          "midi": 89,
          "time": 37.80000000000008,
          "velocity": 1,
          "duration": 0.20000000000000284
        },
        {
          "name": "G6",
          "midi": 91,
          "time": 38.000000000000085,
          "velocity": 1,
          "duration": 0.20000000000000284
        },
        {
          "name": "A#5",
          "midi": 82,
          "time": 38.20000000000009,
          "velocity": 0.9448818897637795,
          "duration": 1.3000000000000043
        },
        {
          "name": "D6",
          "midi": 86,
          "time": 38.20000000000009,
          "velocity": 0.9448818897637795,
          "duration": 1.3000000000000043
        },
        {
          "name": "C6",
          "midi": 84,
          "time": 39.40000000000009,
          "velocity": 1,
          "duration": 0.20000000000000284
        },
        {
          "name": "A#5",
          "midi": 82,
          "time": 39.600000000000094,
          "velocity": 1,
          "duration": 0.20000000000000284
        },
        {
          "name": "G5",
          "midi": 79,
          "time": 39.8000000000001,
          "velocity": 0.8976377952755905,
          "duration": 0.20000000000000284
        },
        {
          "name": "A#5",
          "midi": 82,
          "time": 40.0000000000001,
          "velocity": 1,
          "duration": 0.10000000000000142
        },
        {
          "name": "G5",
          "midi": 79,
          "time": 40.1000000000001,
          "velocity": 0.889763779527559,
          "duration": 0.10000000000000142
        },
        {
          "name": "F5",
          "midi": 77,
          "time": 40.2000000000001,
          "velocity": 0.8267716535433071,
          "duration": 0.10000000000000142
        },
        {
          "name": "G5",
          "midi": 79,
          "time": 40.300000000000104,
          "velocity": 0.8031496062992126,
          "duration": 0.10000000000000142
        },
        {
          "name": "F5",
          "midi": 77,
          "time": 40.400000000000105,
          "velocity": 0.8346456692913385,
          "duration": 0.10000000000000142
        },
        {
          "name": "D#5",
          "midi": 75,
          "time": 40.50000000000011,
          "velocity": 0.8110236220472441,
          "duration": 0.10000000000000142
        },
        {
          "name": "F5",
          "midi": 77,
          "time": 40.60000000000011,
          "velocity": 0.7637795275590551,
          "duration": 0.10000000000000142
        },
        {
          "name": "D#5",
          "midi": 75,
          "time": 40.70000000000011,
          "velocity": 0.7165354330708661,
          "duration": 0.10000000000000142
        },
        {
          "name": "C5",
          "midi": 72,
          "time": 40.80000000000011,
          "velocity": 0.6850393700787402,
          "duration": 0.10000000000000142
        },
        {
          "name": "D#5",
          "midi": 75,
          "time": 40.90000000000011,
          "velocity": 0.7322834645669292,
          "duration": 0.10000000000000142
        },
        {
          "name": "C5",
          "midi": 72,
          "time": 41.000000000000114,
          "velocity": 0.6692913385826772,
          "duration": 0.10000000000000142
        },
        {
          "name": "A#4",
          "midi": 70,
          "time": 41.100000000000115,
          "velocity": 0.7244094488188977,
          "duration": 0.10000000000000142
        },
        {
          "name": "G4",
          "midi": 67,
          "time": 41.20000000000012,
          "velocity": 0.7244094488188977,
          "duration": 0.10000000000000142
        },
        {
          "name": "A#4",
          "midi": 70,
          "time": 41.30000000000012,
          "velocity": 0.6850393700787402,
          "duration": 0.10000000000000142
        },
        {
          "name": "C5",
          "midi": 72,
          "time": 41.40000000000012,
          "velocity": 0.8031496062992126,
          "duration": 0.10000000000000142
        },
        {
          "name": "G4",
          "midi": 67,
          "time": 41.50000000000012,
          "velocity": 0.6535433070866141,
          "duration": 0.10000000000000142
        },
        {
          "name": "C4",
          "midi": 60,
          "time": 43.200000000000124,
          "velocity": 0.8503937007874016,
          "duration": 0.6000000000000014
        },
        {
          "name": "G#3",
          "midi": 56,
          "time": 43.800000000000125,
          "velocity": 0.8976377952755905,
          "duration": 0.3999999999999986
        },
        {
          "name": "G3",
          "midi": 55,
          "time": 44.200000000000124,
          "velocity": 0.8818897637795275,
          "duration": 0.6000000000000014
        },
        {
          "name": "C3",
          "midi": 48,
          "time": 44.800000000000125,
          "velocity": 0.889763779527559,
          "duration": 1.6000000000000014
        },
        {
          "name": "A#3",
          "midi": 58,
          "time": 46.40000000000013,
          "velocity": 0.84251968503937,
          "duration": 0.6000000000000014
        },
        {
          "name": "D4",
          "midi": 62,
          "time": 46.40000000000013,
          "velocity": 0.889763779527559,
          "duration": 0.6000000000000014
        },
        {
          "name": "C4",
          "midi": 60,
          "time": 47.00000000000013,
          "velocity": 0.8267716535433071,
          "duration": 0.6000000000000014
        },
        {
          "name": "D#4",
          "midi": 63,
          "time": 47.00000000000013,
          "velocity": 0.8976377952755905,
          "duration": 0.6000000000000014
        },
        {
          "name": "G3",
          "midi": 55,
          "time": 47.60000000000013,
          "velocity": 0.8346456692913385,
          "duration": 0.3999999999999986
        },
        {
          "name": "D4",
          "midi": 62,
          "time": 47.60000000000013,
          "velocity": 0.889763779527559,
          "duration": 0.3999999999999986
        },
        {
          "name": "F4",
          "midi": 65,
          "time": 47.60000000000013,
          "velocity": 0.889763779527559,
          "duration": 0.3999999999999986
        },
        {
          "name": "C4",
          "midi": 60,
          "time": 48.00000000000013,
          "velocity": 0.889763779527559,
          "duration": 1.2000000000000028
        },
        {
          "name": "D#4",
          "midi": 63,
          "time": 48.00000000000013,
          "velocity": 0.889763779527559,
          "duration": 1.2000000000000028
        },
        {
          "name": "A#3",
          "midi": 58,
          "time": 49.60000000000013,
          "velocity": 0.8503937007874016,
          "duration": 0.6083333333333343
        },
        {
          "name": "D4",
          "midi": 62,
          "time": 49.60000000000013,
          "velocity": 0.8661417322834646,
          "duration": 0.6000000000000014
        },
        {
          "name": "C4",
          "midi": 60,
          "time": 50.20000000000013,
          "velocity": 0.8346456692913385,
          "duration": 0.6000000000000014
        },
        {
          "name": "D#4",
          "midi": 63,
          "time": 50.20000000000013,
          "velocity": 0.8976377952755905,
          "duration": 0.6000000000000014
        },
        {
          "name": "D4",
          "midi": 62,
          "time": 50.80000000000013,
          "velocity": 0.8503937007874016,
          "duration": 0.3999999999999986
        },
        {
          "name": "F4",
          "midi": 65,
          "time": 50.80000000000013,
          "velocity": 0.8818897637795275,
          "duration": 0.3999999999999986
        },
        {
          "name": "A#3",
          "midi": 58,
          "time": 51.20000000000013,
          "velocity": 0.7952755905511811,
          "duration": 1.2974999999999994
        },
        {
          "name": "D4",
          "midi": 62,
          "time": 51.20000000000013,
          "velocity": 0.8267716535433071,
          "duration": 1.2833333333333314
        },
        {
          "name": "F4",
          "midi": 65,
          "time": 51.20000000000013,
          "velocity": 0.8582677165354331,
          "duration": 1.2566666666666677
        },
        {
          "name": "A#3",
          "midi": 58,
          "time": 52.80000000000013,
          "velocity": 0.7952755905511811,
          "duration": 1.2974999999999994
        },
        {
          "name": "D4",
          "midi": 62,
          "time": 52.80000000000013,
          "velocity": 0.8267716535433071,
          "duration": 1.2833333333333314
        },
        {
          "name": "F4",
          "midi": 65,
          "time": 52.80000000000013,
          "velocity": 0.8582677165354331,
          "duration": 1.2566666666666677
        },
        {
          "name": "G5",
          "midi": 79,
          "time": 54.400000000000134,
          "velocity": 1,
          "duration": 0.20000000000000284
        },
        {
          "name": "D7",
          "midi": 98,
          "time": 54.80000000000014,
          "velocity": 1,
          "duration": 0.29999999999999716
        },
        {
          "name": "D7",
          "midi": 98,
          "time": 55.100000000000136,
          "velocity": 1,
          "duration": 0.10000000000000142
        },
        {
          "name": "A6",
          "midi": 93,
          "time": 55.20000000000014,
          "velocity": 1,
          "duration": 0.30000000000000426
        },
        {
          "name": "D7",
          "midi": 98,
          "time": 55.20000000000014,
          "velocity": 0.7874015748031497,
          "duration": 0.20000000000000284
        },
        {
          "name": "D7",
          "midi": 98,
          "time": 55.40000000000014,
          "velocity": 0.8976377952755905,
          "duration": 0.10000000000000142
        },
        {
          "name": "A6",
          "midi": 93,
          "time": 55.50000000000014,
          "velocity": 1,
          "duration": 0.10000000000000142
        },
        {
          "name": "F6",
          "midi": 89,
          "time": 55.60000000000014,
          "velocity": 1,
          "duration": 0.30000000000000426
        },
        {
          "name": "A6",
          "midi": 93,
          "time": 55.60000000000014,
          "velocity": 0.8661417322834646,
          "duration": 0.20000000000000284
        },
        {
          "name": "A6",
          "midi": 93,
          "time": 55.800000000000146,
          "velocity": 0.8740157480314961,
          "duration": 0.10000000000000142
        },
        {
          "name": "D7",
          "midi": 98,
          "time": 55.800000000000146,
          "velocity": 0.9448818897637795,
          "duration": 0.10000000000000142
        },
        {
          "name": "F6",
          "midi": 89,
          "time": 55.90000000000015,
          "velocity": 1,
          "duration": 0.10000000000000142
        },
        {
          "name": "G6",
          "midi": 91,
          "time": 56.00000000000015,
          "velocity": 0.7795275590551181,
          "duration": 0.29999999999999716
        },
        {
          "name": "G6",
          "midi": 91,
          "time": 56.300000000000146,
          "velocity": 0.8661417322834646,
          "duration": 0.10000000000000142
        },
        {
          "name": "D5",
          "midi": 74,
          "time": 56.40000000000015,
          "velocity": 0.7401574803149606,
          "duration": 0.20000000000000284
        },
        {
          "name": "F6",
          "midi": 89,
          "time": 56.40000000000015,
          "velocity": 0.8582677165354331,
          "duration": 0.20000000000000284
        },
        {
          "name": "F5",
          "midi": 77,
          "time": 56.60000000000015,
          "velocity": 0.7874015748031497,
          "duration": 0.20000000000000284
        },
        {
          "name": "D6",
          "midi": 86,
          "time": 56.60000000000015,
          "velocity": 0.8740157480314961,
          "duration": 0.20000000000000284
        },
        {
          "name": "A5",
          "midi": 81,
          "time": 56.80000000000015,
          "velocity": 0.8582677165354331,
          "duration": 0.20000000000000284
        },
        {
          "name": "C6",
          "midi": 84,
          "time": 56.80000000000015,
          "velocity": 0.8503937007874016,
          "duration": 0.20000000000000284
        },
        {
          "name": "F5",
          "midi": 77,
          "time": 57.000000000000156,
          "velocity": 0.8188976377952756,
          "duration": 0.20000000000000284
        },
        {
          "name": "A5",
          "midi": 81,
          "time": 57.000000000000156,
          "velocity": 0.8110236220472441,
          "duration": 0.20000000000000284
        },
        {
          "name": "D5",
          "midi": 74,
          "time": 57.20000000000016,
          "velocity": 0.7637795275590551,
          "duration": 0.20000000000000284
        },
        {
          "name": "G5",
          "midi": 79,
          "time": 57.20000000000016,
          "velocity": 0.7401574803149606,
          "duration": 0.20000000000000284
        },
        {
          "name": "A4",
          "midi": 69,
          "time": 57.40000000000016,
          "velocity": 0.7637795275590551,
          "duration": 0.20000000000000284
        },
        {
          "name": "F5",
          "midi": 77,
          "time": 57.40000000000016,
          "velocity": 0.7165354330708661,
          "duration": 0.20000000000000284
        },
        {
          "name": "G3",
          "midi": 55,
          "time": 57.600000000000165,
          "velocity": 0.6614173228346457,
          "duration": 0.3999999999999986
        },
        {
          "name": "G3",
          "midi": 55,
          "time": 57.600000000000165,
          "velocity": 0.6614173228346457,
          "duration": 0.3999999999999986
        },
        {
          "name": "D5",
          "midi": 74,
          "time": 57.600000000000165,
          "velocity": 1,
          "duration": 0.3999999999999986
        },
        {
          "name": "D5",
          "midi": 74,
          "time": 57.600000000000165,
          "velocity": 0.5669291338582677,
          "duration": 0.3999999999999986
        },
        {
          "name": "D3",
          "midi": 50,
          "time": 58.00000000000016,
          "velocity": 0.7480314960629921,
          "duration": 0.20000000000000284
        },
        {
          "name": "G3",
          "midi": 55,
          "time": 58.200000000000166,
          "velocity": 0.7559055118110236,
          "duration": 0.20000000000000284
        },
        {
          "name": "A3",
          "midi": 57,
          "time": 58.40000000000017,
          "velocity": 0.937007874015748,
          "duration": 0.20000000000000284
        },
        {
          "name": "C4",
          "midi": 60,
          "time": 58.60000000000017,
          "velocity": 0.9291338582677166,
          "duration": 0.20000000000000284
        },
        {
          "name": "D4",
          "midi": 62,
          "time": 58.800000000000175,
          "velocity": 0.5511811023622047,
          "duration": 0.20000000000000284
        },
        {
          "name": "G4",
          "midi": 67,
          "time": 58.800000000000175,
          "velocity": 0.8110236220472441,
          "duration": 0.20000000000000284
        },
        {
          "name": "A3",
          "midi": 57,
          "time": 59.00000000000018,
          "velocity": 0.8740157480314961,
          "duration": 0.20000000000000284
        },
        {
          "name": "A4",
          "midi": 69,
          "time": 59.00000000000018,
          "velocity": 0.8110236220472441,
          "duration": 0.20000000000000284
        },
        {
          "name": "G5",
          "midi": 79,
          "time": 59.00000000000018,
          "velocity": 0.8110236220472441,
          "duration": 0.20000000000000284
        },
        {
          "name": "B3",
          "midi": 59,
          "time": 59.20000000000018,
          "velocity": 0.8110236220472441,
          "duration": 0.7999999999999972
        },
        {
          "name": "B4",
          "midi": 71,
          "time": 59.20000000000018,
          "velocity": 0.8110236220472441,
          "duration": 0.7999999999999972
        },
        {
          "name": "D5",
          "midi": 74,
          "time": 59.20000000000018,
          "velocity": 0.8110236220472441,
          "duration": 0.7999999999999972
        },
        {
          "name": "C4",
          "midi": 60,
          "time": 60.800000000000175,
          "velocity": 0.8267716535433071,
          "duration": 0.20000000000000284
        },
        {
          "name": "D4",
          "midi": 62,
          "time": 61.00000000000018,
          "velocity": 0.8267716535433071,
          "duration": 0.20000000000000284
        },
        {
          "name": "D#4",
          "midi": 63,
          "time": 61.20000000000018,
          "velocity": 0.889763779527559,
          "duration": 0.19999999999999574
        },
        {
          "name": "C4",
          "midi": 60,
          "time": 61.39750000000018,
          "velocity": 0.84251968503937,
          "duration": 0.10249999999999915
        },
        {
          "name": "D4",
          "midi": 62,
          "time": 61.50000000000018,
          "velocity": 0.905511811023622,
          "duration": 0.10000000000000142
        },
        {
          "name": "D#4",
          "midi": 63,
          "time": 61.60000000000018,
          "velocity": 0.937007874015748,
          "duration": 0.09749999999999659
        },
        {
          "name": "G4",
          "midi": 67,
          "time": 61.70000000000017,
          "velocity": 0.937007874015748,
          "duration": 0.09749999999999659
        },
        {
          "name": "C5",
          "midi": 72,
          "time": 61.80000000000017,
          "velocity": 0.8661417322834646,
          "duration": 0.09749999999999659
        },
        {
          "name": "D5",
          "midi": 74,
          "time": 61.90000000000016,
          "velocity": 0.8661417322834646,
          "duration": 0.09416666666666629
        },
        {
          "name": "D#5",
          "midi": 75,
          "time": 62.00000000000016,
          "velocity": 0.889763779527559,
          "duration": 0.09749999999999659
        },
        {
          "name": "G5",
          "midi": 79,
          "time": 62.10000000000016,
          "velocity": 0.889763779527559,
          "duration": 0.09749999999999659
        },
        {
          "name": "C6",
          "midi": 84,
          "time": 62.197500000000154,
          "velocity": 0.937007874015748,
          "duration": 0.09666666666666401
        },
        {
          "name": "D6",
          "midi": 86,
          "time": 62.30000000000015,
          "velocity": 0.9763779527559056,
          "duration": 0.09749999999999659
        },
        {
          "name": "D#6",
          "midi": 87,
          "time": 62.40000000000015,
          "velocity": 0.9763779527559056,
          "duration": 0.09749999999999659
        },
        {
          "name": "D6",
          "midi": 86,
          "time": 62.497500000000144,
          "velocity": 0.9763779527559056,
          "duration": 0.09666666666666401
        },
        {
          "name": "C6",
          "midi": 84,
          "time": 62.60000000000014,
          "velocity": 0.937007874015748,
          "duration": 0.09749999999999659
        },
        {
          "name": "G5",
          "midi": 79,
          "time": 62.69750000000014,
          "velocity": 0.889763779527559,
          "duration": 0.10249999999999915
        },
        {
          "name": "F5",
          "midi": 77,
          "time": 62.80000000000014,
          "velocity": 0.889763779527559,
          "duration": 0.10000000000000142
        },
        {
          "name": "D#5",
          "midi": 75,
          "time": 62.90000000000014,
          "velocity": 0.952755905511811,
          "duration": 0.10000000000000142
        },
        {
          "name": "D5",
          "midi": 74,
          "time": 63.00000000000014,
          "velocity": 0.8661417322834646,
          "duration": 0.09749999999999659
        },
        {
          "name": "A#4",
          "midi": 70,
          "time": 63.100000000000136,
          "velocity": 0.8503937007874016,
          "duration": 0.09416666666666629
        },
        {
          "name": "C5",
          "midi": 72,
          "time": 63.1941666666668,
          "velocity": 0.8661417322834646,
          "duration": 0.09749999999999659
        },
        {
          "name": "G4",
          "midi": 67,
          "time": 63.30000000000013,
          "velocity": 0.937007874015748,
          "duration": 0.10000000000000142
        },
        {
          "name": "F4",
          "midi": 65,
          "time": 63.400000000000134,
          "velocity": 0.937007874015748,
          "duration": 0.09749999999999659
        },
        {
          "name": "D#4",
          "midi": 63,
          "time": 63.50000000000013,
          "velocity": 0.937007874015748,
          "duration": 0.10000000000000142
        },
        {
          "name": "F4",
          "midi": 65,
          "time": 63.60000000000013,
          "velocity": 0.937007874015748,
          "duration": 0.09999999999999432
        },
        {
          "name": "D#4",
          "midi": 63,
          "time": 63.697500000000126,
          "velocity": 0.8582677165354331,
          "duration": 0.09666666666666401
        },
        {
          "name": "D4",
          "midi": 62,
          "time": 63.800000000000125,
          "velocity": 0.8582677165354331,
          "duration": 0.10000000000000142
        },
        {
          "name": "A#3",
          "midi": 58,
          "time": 63.90000000000013,
          "velocity": 0.8582677165354331,
          "duration": 0.09749999999999659
        },
        {
          "name": "C4",
          "midi": 60,
          "time": 64.00000000000013,
          "velocity": 0.8267716535433071,
          "duration": 0.20000000000000284
        },
        {
          "name": "D4",
          "midi": 62,
          "time": 64.20000000000013,
          "velocity": 0.8267716535433071,
          "duration": 0.20000000000000284
        },
        {
          "name": "D#4",
          "midi": 63,
          "time": 64.40000000000013,
          "velocity": 0.889763779527559,
          "duration": 0.20000000000000284
        },
        {
          "name": "C4",
          "midi": 60,
          "time": 64.59750000000014,
          "velocity": 0.84251968503937,
          "duration": 0.10249999999999204
        },
        {
          "name": "D4",
          "midi": 62,
          "time": 64.70000000000013,
          "velocity": 0.905511811023622,
          "duration": 0.09999999999999432
        },
        {
          "name": "D#4",
          "midi": 63,
          "time": 64.80000000000013,
          "velocity": 0.937007874015748,
          "duration": 0.09749999999999659
        },
        {
          "name": "G4",
          "midi": 67,
          "time": 64.90000000000012,
          "velocity": 0.937007874015748,
          "duration": 0.09749999999999659
        },
        {
          "name": "C5",
          "midi": 72,
          "time": 65.00000000000011,
          "velocity": 0.8661417322834646,
          "duration": 0.09749999999999659
        },
        {
          "name": "D5",
          "midi": 74,
          "time": 65.10000000000011,
          "velocity": 0.8661417322834646,
          "duration": 0.09416666666666629
        },
        {
          "name": "D#5",
          "midi": 75,
          "time": 65.2000000000001,
          "velocity": 0.889763779527559,
          "duration": 0.09749999999999659
        },
        {
          "name": "G5",
          "midi": 79,
          "time": 65.3000000000001,
          "velocity": 0.889763779527559,
          "duration": 0.09749999999999659
        },
        {
          "name": "C6",
          "midi": 84,
          "time": 65.3975000000001,
          "velocity": 0.937007874015748,
          "duration": 0.09666666666666401
        },
        {
          "name": "D6",
          "midi": 86,
          "time": 65.50000000000009,
          "velocity": 0.9763779527559056,
          "duration": 0.09749999999999659
        },
        {
          "name": "D#6",
          "midi": 87,
          "time": 65.60000000000008,
          "velocity": 0.9763779527559056,
          "duration": 0.09749999999999659
        },
        {
          "name": "D6",
          "midi": 86,
          "time": 65.69750000000008,
          "velocity": 0.9763779527559056,
          "duration": 0.09666666666666401
        },
        {
          "name": "C6",
          "midi": 84,
          "time": 65.80000000000007,
          "velocity": 0.937007874015748,
          "duration": 0.09749999999999659
        },
        {
          "name": "G5",
          "midi": 79,
          "time": 65.89750000000006,
          "velocity": 0.889763779527559,
          "duration": 0.10250000000000625
        },
        {
          "name": "F5",
          "midi": 77,
          "time": 66.00000000000007,
          "velocity": 0.889763779527559,
          "duration": 0.09999999999999432
        },
        {
          "name": "D#5",
          "midi": 75,
          "time": 66.10000000000007,
          "velocity": 0.952755905511811,
          "duration": 0.09999999999999432
        },
        {
          "name": "D5",
          "midi": 74,
          "time": 66.20000000000006,
          "velocity": 0.8661417322834646,
          "duration": 0.09749999999999659
        },
        {
          "name": "A#4",
          "midi": 70,
          "time": 66.30000000000005,
          "velocity": 0.8503937007874016,
          "duration": 0.09416666666666629
        },
        {
          "name": "C5",
          "midi": 72,
          "time": 66.39416666666672,
          "velocity": 0.8661417322834646,
          "duration": 0.09749999999999659
        },
        {
          "name": "G4",
          "midi": 67,
          "time": 66.50000000000006,
          "velocity": 0.937007874015748,
          "duration": 0.09999999999999432
        },
        {
          "name": "F4",
          "midi": 65,
          "time": 66.60000000000005,
          "velocity": 0.937007874015748,
          "duration": 0.09749999999999659
        },
        {
          "name": "D#4",
          "midi": 63,
          "time": 66.70000000000005,
          "velocity": 0.937007874015748,
          "duration": 0.09999999999999432
        },
        {
          "name": "F4",
          "midi": 65,
          "time": 66.80000000000004,
          "velocity": 0.937007874015748,
          "duration": 0.09999999999999432
        },
        {
          "name": "D#4",
          "midi": 63,
          "time": 66.89750000000004,
          "velocity": 0.8582677165354331,
          "duration": 0.09666666666666401
        },
        {
          "name": "D4",
          "midi": 62,
          "time": 67.00000000000003,
          "velocity": 0.8582677165354331,
          "duration": 0.09999999999999432
        },
        {
          "name": "A#3",
          "midi": 58,
          "time": 67.10000000000002,
          "velocity": 0.8582677165354331,
          "duration": 0.09749999999999659
        },
        {
          "name": "C4",
          "midi": 60,
          "time": 67.20000000000002,
          "velocity": 0.8267716535433071,
          "duration": 0.20000000000000284
        },
        {
          "name": "D4",
          "midi": 62,
          "time": 67.40000000000002,
          "velocity": 0.8267716535433071,
          "duration": 0.20000000000000284
        },
        {
          "name": "D#4",
          "midi": 63,
          "time": 67.60000000000002,
          "velocity": 0.889763779527559,
          "duration": 0.20000000000000284
        },
        {
          "name": "C4",
          "midi": 60,
          "time": 67.79750000000003,
          "velocity": 0.84251968503937,
          "duration": 0.10249999999999204
        },
        {
          "name": "D#4",
          "midi": 63,
          "time": 67.90000000000002,
          "velocity": 0.905511811023622,
          "duration": 0.09999999999999432
        },
        {
          "name": "G4",
          "midi": 67,
          "time": 68.00000000000001,
          "velocity": 0.937007874015748,
          "duration": 0.09749999999999659
        },
        {
          "name": "G#4",
          "midi": 68,
          "time": 68.10000000000001,
          "velocity": 0.937007874015748,
          "duration": 0.09749999999999659
        },
        {
          "name": "C5",
          "midi": 72,
          "time": 68.2,
          "velocity": 0.8661417322834646,
          "duration": 0.09749999999999659
        },
        {
          "name": "D#5",
          "midi": 75,
          "time": 68.3,
          "velocity": 0.8661417322834646,
          "duration": 0.09416666666666629
        },
        {
          "name": "G5",
          "midi": 79,
          "time": 68.39999999999999,
          "velocity": 0.889763779527559,
          "duration": 0.09749999999999659
        },
        {
          "name": "G#5",
          "midi": 80,
          "time": 68.49999999999999,
          "velocity": 0.889763779527559,
          "duration": 0.09749999999999659
        },
        {
          "name": "C6",
          "midi": 84,
          "time": 68.59749999999998,
          "velocity": 0.937007874015748,
          "duration": 0.09666666666666401
        },
        {
          "name": "D#6",
          "midi": 87,
          "time": 68.69999999999997,
          "velocity": 0.9763779527559056,
          "duration": 0.09749999999999659
        },
        {
          "name": "G6",
          "midi": 91,
          "time": 68.79999999999997,
          "velocity": 0.9763779527559056,
          "duration": 0.09749999999999659
        },
        {
          "name": "D#6",
          "midi": 87,
          "time": 68.89749999999997,
          "velocity": 0.9763779527559056,
          "duration": 0.09666666666666401
        },
        {
          "name": "C6",
          "midi": 84,
          "time": 68.99999999999996,
          "velocity": 0.937007874015748,
          "duration": 0.09749999999999659
        },
        {
          "name": "A#5",
          "midi": 82,
          "time": 69.09749999999995,
          "velocity": 0.889763779527559,
          "duration": 0.10250000000000625
        },
        {
          "name": "G5",
          "midi": 79,
          "time": 69.19999999999996,
          "velocity": 0.889763779527559,
          "duration": 0.09999999999999432
        },
        {
          "name": "D#5",
          "midi": 75,
          "time": 69.29999999999995,
          "velocity": 0.952755905511811,
          "duration": 0.09999999999999432
        },
        {
          "name": "C5",
          "midi": 72,
          "time": 69.39999999999995,
          "velocity": 0.8661417322834646,
          "duration": 0.09749999999999659
        },
        {
          "name": "A#4",
          "midi": 70,
          "time": 69.49999999999994,
          "velocity": 0.8503937007874016,
          "duration": 0.09416666666666629
        },
        {
          "name": "C5",
          "midi": 72,
          "time": 69.59416666666661,
          "velocity": 0.8661417322834646,
          "duration": 0.09749999999999659
        },
        {
          "name": "G#4",
          "midi": 68,
          "time": 69.69999999999995,
          "velocity": 0.937007874015748,
          "duration": 0.09999999999999432
        },
        {
          "name": "G4",
          "midi": 67,
          "time": 69.79999999999994,
          "velocity": 0.937007874015748,
          "duration": 0.09749999999999659
        },
        {
          "name": "D#4",
          "midi": 63,
          "time": 69.89999999999993,
          "velocity": 0.937007874015748,
          "duration": 0.09999999999999432
        },
        {
          "name": "G4",
          "midi": 67,
          "time": 69.99999999999993,
          "velocity": 0.937007874015748,
          "duration": 0.09999999999999432
        },
        {
          "name": "D#4",
          "midi": 63,
          "time": 70.09749999999993,
          "velocity": 0.8582677165354331,
          "duration": 0.09666666666666401
        },
        {
          "name": "C4",
          "midi": 60,
          "time": 70.19999999999992,
          "velocity": 0.8582677165354331,
          "duration": 0.09999999999999432
        },
        {
          "name": "A#3",
          "midi": 58,
          "time": 70.29999999999991,
          "velocity": 0.8582677165354331,
          "duration": 0.09749999999999659
        },
        {
          "name": "C4",
          "midi": 60,
          "time": 70.3999999999999,
          "velocity": 0.8267716535433071,
          "duration": 0.20000000000000284
        },
        {
          "name": "D4",
          "midi": 62,
          "time": 70.59999999999991,
          "velocity": 0.8267716535433071,
          "duration": 0.20000000000000284
        },
        {
          "name": "D#4",
          "midi": 63,
          "time": 70.79999999999991,
          "velocity": 0.889763779527559,
          "duration": 0.20000000000000284
        },
        {
          "name": "C4",
          "midi": 60,
          "time": 70.99749999999992,
          "velocity": 0.84251968503937,
          "duration": 0.10249999999999204
        },
        {
          "name": "G4",
          "midi": 67,
          "time": 71.09999999999991,
          "velocity": 0.905511811023622,
          "duration": 0.09999999999999432
        },
        {
          "name": "C4",
          "midi": 60,
          "time": 71.1999999999999,
          "velocity": 0.937007874015748,
          "duration": 0.09749999999999659
        },
        {
          "name": "D#4",
          "midi": 63,
          "time": 71.2999999999999,
          "velocity": 0.937007874015748,
          "duration": 0.09749999999999659
        },
        {
          "name": "G4",
          "midi": 67,
          "time": 71.39999999999989,
          "velocity": 0.8661417322834646,
          "duration": 0.09749999999999659
        },
        {
          "name": "D#5",
          "midi": 75,
          "time": 71.49999999999989,
          "velocity": 0.8661417322834646,
          "duration": 0.09416666666666629
        },
        {
          "name": "C5",
          "midi": 72,
          "time": 71.59999999999988,
          "velocity": 0.889763779527559,
          "duration": 0.09749999999999659
        },
        {
          "name": "D#5",
          "midi": 75,
          "time": 71.69999999999987,
          "velocity": 0.889763779527559,
          "duration": 0.09749999999999659
        },
        {
          "name": "G5",
          "midi": 79,
          "time": 71.79999999999987,
          "velocity": 0.937007874015748,
          "duration": 0.09416666666666629
        },
        {
          "name": "C6",
          "midi": 84,
          "time": 71.89999999999986,
          "velocity": 0.9763779527559056,
          "duration": 0.09749999999999659
        },
        {
          "name": "A#3",
          "midi": 58,
          "time": 71.99999999999986,
          "velocity": 0.9763779527559056,
          "duration": 0.09749999999999659
        },
        {
          "name": "D4",
          "midi": 62,
          "time": 72.09749999999985,
          "velocity": 0.9763779527559056,
          "duration": 0.09666666666666401
        },
        {
          "name": "F4",
          "midi": 65,
          "time": 72.19999999999985,
          "velocity": 0.937007874015748,
          "duration": 0.09749999999999659
        },
        {
          "name": "G4",
          "midi": 67,
          "time": 72.29749999999984,
          "velocity": 0.889763779527559,
          "duration": 0.10250000000000625
        },
        {
          "name": "D4",
          "midi": 62,
          "time": 72.39999999999985,
          "velocity": 0.889763779527559,
          "duration": 0.09999999999999432
        },
        {
          "name": "F4",
          "midi": 65,
          "time": 72.49999999999984,
          "velocity": 0.952755905511811,
          "duration": 0.09999999999999432
        },
        {
          "name": "G4",
          "midi": 67,
          "time": 72.59999999999984,
          "velocity": 0.8661417322834646,
          "duration": 0.09749999999999659
        },
        {
          "name": "A#4",
          "midi": 70,
          "time": 72.69999999999983,
          "velocity": 0.8503937007874016,
          "duration": 0.09416666666666629
        },
        {
          "name": "F4",
          "midi": 65,
          "time": 72.7941666666665,
          "velocity": 0.8661417322834646,
          "duration": 0.09749999999999659
        },
        {
          "name": "G4",
          "midi": 67,
          "time": 72.89999999999984,
          "velocity": 0.937007874015748,
          "duration": 0.09999999999999432
        },
        {
          "name": "A#4",
          "midi": 70,
          "time": 72.99999999999983,
          "velocity": 0.937007874015748,
          "duration": 0.09749999999999659
        },
        {
          "name": "D5",
          "midi": 74,
          "time": 73.09999999999982,
          "velocity": 0.937007874015748,
          "duration": 0.09999999999999432
        },
        {
          "name": "G4",
          "midi": 67,
          "time": 73.19999999999982,
          "velocity": 0.937007874015748,
          "duration": 0.09999999999999432
        },
        {
          "name": "A#4",
          "midi": 70,
          "time": 73.29749999999981,
          "velocity": 0.8582677165354331,
          "duration": 0.09666666666666401
        },
        {
          "name": "D5",
          "midi": 74,
          "time": 73.3999999999998,
          "velocity": 0.8582677165354331,
          "duration": 0.09999999999999432
        },
        {
          "name": "G5",
          "midi": 79,
          "time": 73.4999999999998,
          "velocity": 0.8582677165354331,
          "duration": 0.09749999999999659
        },
        {
          "name": "C4",
          "midi": 60,
          "time": 73.5999999999998,
          "velocity": 0.8267716535433071,
          "duration": 0.20000000000000284
        },
        {
          "name": "D4",
          "midi": 62,
          "time": 73.7999999999998,
          "velocity": 0.8267716535433071,
          "duration": 0.20000000000000284
        },
        {
          "name": "D#4",
          "midi": 63,
          "time": 73.9999999999998,
          "velocity": 0.889763779527559,
          "duration": 0.20000000000000284
        },
        {
          "name": "C4",
          "midi": 60,
          "time": 74.1974999999998,
          "velocity": 0.84251968503937,
          "duration": 0.10249999999999204
        },
        {
          "name": "D4",
          "midi": 62,
          "time": 74.2999999999998,
          "velocity": 0.905511811023622,
          "duration": 0.09999999999999432
        },
        {
          "name": "D#4",
          "midi": 63,
          "time": 74.39999999999979,
          "velocity": 0.937007874015748,
          "duration": 0.09749999999999659
        },
        {
          "name": "G4",
          "midi": 67,
          "time": 74.49999999999979,
          "velocity": 0.937007874015748,
          "duration": 0.09749999999999659
        },
        {
          "name": "C5",
          "midi": 72,
          "time": 74.59999999999978,
          "velocity": 0.8661417322834646,
          "duration": 0.09749999999999659
        },
        {
          "name": "D5",
          "midi": 74,
          "time": 74.69999999999978,
          "velocity": 0.8661417322834646,
          "duration": 0.09416666666666629
        },
        {
          "name": "D#5",
          "midi": 75,
          "time": 74.79999999999977,
          "velocity": 0.889763779527559,
          "duration": 0.09749999999999659
        },
        {
          "name": "G5",
          "midi": 79,
          "time": 74.89999999999976,
          "velocity": 0.889763779527559,
          "duration": 0.09749999999999659
        },
        {
          "name": "C6",
          "midi": 84,
          "time": 74.99749999999976,
          "velocity": 0.937007874015748,
          "duration": 0.09666666666666401
        },
        {
          "name": "D6",
          "midi": 86,
          "time": 75.09999999999975,
          "velocity": 0.9763779527559056,
          "duration": 0.09749999999999659
        },
        {
          "name": "D#6",
          "midi": 87,
          "time": 75.19999999999975,
          "velocity": 0.9763779527559056,
          "duration": 0.09749999999999659
        },
        {
          "name": "D6",
          "midi": 86,
          "time": 75.29749999999974,
          "velocity": 0.9763779527559056,
          "duration": 0.09666666666666401
        },
        {
          "name": "C6",
          "midi": 84,
          "time": 75.39999999999974,
          "velocity": 0.937007874015748,
          "duration": 0.09749999999999659
        },
        {
          "name": "G5",
          "midi": 79,
          "time": 75.49749999999973,
          "velocity": 0.889763779527559,
          "duration": 0.10250000000000625
        },
        {
          "name": "F5",
          "midi": 77,
          "time": 75.59999999999974,
          "velocity": 0.889763779527559,
          "duration": 0.09999999999999432
        },
        {
          "name": "D#5",
          "midi": 75,
          "time": 75.69999999999973,
          "velocity": 0.952755905511811,
          "duration": 0.09999999999999432
        },
        {
          "name": "D5",
          "midi": 74,
          "time": 75.79999999999973,
          "velocity": 0.8661417322834646,
          "duration": 0.09749999999999659
        },
        {
          "name": "A#4",
          "midi": 70,
          "time": 75.89999999999972,
          "velocity": 0.8503937007874016,
          "duration": 0.09416666666666629
        },
        {
          "name": "C5",
          "midi": 72,
          "time": 75.99416666666639,
          "velocity": 0.8661417322834646,
          "duration": 0.09749999999999659
        },
        {
          "name": "G4",
          "midi": 67,
          "time": 76.09999999999972,
          "velocity": 0.937007874015748,
          "duration": 0.09999999999999432
        },
        {
          "name": "F4",
          "midi": 65,
          "time": 76.19999999999972,
          "velocity": 0.937007874015748,
          "duration": 0.09749999999999659
        },
        {
          "name": "D#4",
          "midi": 63,
          "time": 76.29999999999971,
          "velocity": 0.937007874015748,
          "duration": 0.09999999999999432
        },
        {
          "name": "F4",
          "midi": 65,
          "time": 76.39999999999971,
          "velocity": 0.937007874015748,
          "duration": 0.09999999999999432
        },
        {
          "name": "D#4",
          "midi": 63,
          "time": 76.4974999999997,
          "velocity": 0.8582677165354331,
          "duration": 0.09666666666666401
        },
        {
          "name": "D4",
          "midi": 62,
          "time": 76.5999999999997,
          "velocity": 0.8582677165354331,
          "duration": 0.09999999999999432
        },
        {
          "name": "A#3",
          "midi": 58,
          "time": 76.69999999999969,
          "velocity": 0.8582677165354331,
          "duration": 0.09749999999999659
        },
        {
          "name": "C4",
          "midi": 60,
          "time": 76.79999999999968,
          "velocity": 0.8267716535433071,
          "duration": 0.20000000000000284
        },
        {
          "name": "D4",
          "midi": 62,
          "time": 76.99999999999969,
          "velocity": 0.8267716535433071,
          "duration": 0.20000000000000284
        },
        {
          "name": "D#4",
          "midi": 63,
          "time": 77.19999999999969,
          "velocity": 0.889763779527559,
          "duration": 0.20000000000000284
        },
        {
          "name": "C4",
          "midi": 60,
          "time": 77.3974999999997,
          "velocity": 0.84251968503937,
          "duration": 0.10249999999999204
        },
        {
          "name": "D4",
          "midi": 62,
          "time": 77.49999999999969,
          "velocity": 0.905511811023622,
          "duration": 0.09999999999999432
        },
        {
          "name": "D#4",
          "midi": 63,
          "time": 77.59999999999968,
          "velocity": 0.937007874015748,
          "duration": 0.09749999999999659
        },
        {
          "name": "G4",
          "midi": 67,
          "time": 77.69999999999968,
          "velocity": 0.937007874015748,
          "duration": 0.09749999999999659
        },
        {
          "name": "C5",
          "midi": 72,
          "time": 77.79999999999967,
          "velocity": 0.8661417322834646,
          "duration": 0.09749999999999659
        },
        {
          "name": "D5",
          "midi": 74,
          "time": 77.89999999999966,
          "velocity": 0.8661417322834646,
          "duration": 0.09416666666666629
        },
        {
          "name": "D#5",
          "midi": 75,
          "time": 77.99999999999966,
          "velocity": 0.889763779527559,
          "duration": 0.09749999999999659
        },
        {
          "name": "G5",
          "midi": 79,
          "time": 78.09999999999965,
          "velocity": 0.889763779527559,
          "duration": 0.09749999999999659
        },
        {
          "name": "C6",
          "midi": 84,
          "time": 78.19749999999965,
          "velocity": 0.937007874015748,
          "duration": 0.09666666666666401
        },
        {
          "name": "D6",
          "midi": 86,
          "time": 78.29999999999964,
          "velocity": 0.9763779527559056,
          "duration": 0.09749999999999659
        },
        {
          "name": "D#6",
          "midi": 87,
          "time": 78.39999999999964,
          "velocity": 0.9763779527559056,
          "duration": 0.09749999999999659
        },
        {
          "name": "D6",
          "midi": 86,
          "time": 78.49749999999963,
          "velocity": 0.9763779527559056,
          "duration": 0.09666666666666401
        },
        {
          "name": "C6",
          "midi": 84,
          "time": 78.59999999999962,
          "velocity": 0.937007874015748,
          "duration": 0.09749999999999659
        },
        {
          "name": "G5",
          "midi": 79,
          "time": 78.69749999999962,
          "velocity": 0.889763779527559,
          "duration": 0.10250000000000625
        },
        {
          "name": "F5",
          "midi": 77,
          "time": 78.79999999999963,
          "velocity": 0.889763779527559,
          "duration": 0.09999999999999432
        },
        {
          "name": "D#5",
          "midi": 75,
          "time": 78.89999999999962,
          "velocity": 0.952755905511811,
          "duration": 0.09999999999999432
        },
        {
          "name": "D5",
          "midi": 74,
          "time": 78.99999999999962,
          "velocity": 0.8661417322834646,
          "duration": 0.09749999999999659
        },
        {
          "name": "A#4",
          "midi": 70,
          "time": 79.09999999999961,
          "velocity": 0.8503937007874016,
          "duration": 0.09416666666666629
        },
        {
          "name": "C5",
          "midi": 72,
          "time": 79.19416666666628,
          "velocity": 0.8661417322834646,
          "duration": 0.09749999999999659
        },
        {
          "name": "G4",
          "midi": 67,
          "time": 79.29999999999961,
          "velocity": 0.937007874015748,
          "duration": 0.09999999999999432
        },
        {
          "name": "F4",
          "midi": 65,
          "time": 79.39999999999961,
          "velocity": 0.937007874015748,
          "duration": 0.09749999999999659
        },
        {
          "name": "D#4",
          "midi": 63,
          "time": 79.4999999999996,
          "velocity": 0.937007874015748,
          "duration": 0.09999999999999432
        },
        {
          "name": "F4",
          "midi": 65,
          "time": 79.5999999999996,
          "velocity": 0.937007874015748,
          "duration": 0.09999999999999432
        },
        {
          "name": "D#4",
          "midi": 63,
          "time": 79.6974999999996,
          "velocity": 0.8582677165354331,
          "duration": 0.09666666666666401
        },
        {
          "name": "D4",
          "midi": 62,
          "time": 79.79999999999959,
          "velocity": 0.8582677165354331,
          "duration": 0.09999999999999432
        },
        {
          "name": "A#3",
          "midi": 58,
          "time": 79.89999999999958,
          "velocity": 0.8582677165354331,
          "duration": 0.09749999999999659
        },
        {
          "name": "C4",
          "midi": 60,
          "time": 79.99999999999957,
          "velocity": 0.8267716535433071,
          "duration": 0.20000000000000284
        },
        {
          "name": "D4",
          "midi": 62,
          "time": 80.19999999999958,
          "velocity": 0.8267716535433071,
          "duration": 0.20000000000000284
        },
        {
          "name": "D#4",
          "midi": 63,
          "time": 80.39999999999958,
          "velocity": 0.889763779527559,
          "duration": 0.20000000000000284
        },
        {
          "name": "C4",
          "midi": 60,
          "time": 80.59749999999958,
          "velocity": 0.84251968503937,
          "duration": 0.10249999999999204
        },
        {
          "name": "D#4",
          "midi": 63,
          "time": 80.69999999999958,
          "velocity": 0.905511811023622,
          "duration": 0.09999999999999432
        },
        {
          "name": "G4",
          "midi": 67,
          "time": 80.79999999999957,
          "velocity": 0.937007874015748,
          "duration": 0.09749999999999659
        },
        {
          "name": "G#4",
          "midi": 68,
          "time": 80.89999999999957,
          "velocity": 0.937007874015748,
          "duration": 0.09749999999999659
        },
        {
          "name": "C5",
          "midi": 72,
          "time": 80.99999999999956,
          "velocity": 0.8661417322834646,
          "duration": 0.09749999999999659
        },
        {
          "name": "D#5",
          "midi": 75,
          "time": 81.09999999999955,
          "velocity": 0.8661417322834646,
          "duration": 0.09416666666666629
        },
        {
          "name": "G5",
          "midi": 79,
          "time": 81.19999999999955,
          "velocity": 0.889763779527559,
          "duration": 0.09749999999999659
        },
        {
          "name": "G#5",
          "midi": 80,
          "time": 81.29999999999954,
          "velocity": 0.889763779527559,
          "duration": 0.09749999999999659
        },
        {
          "name": "C6",
          "midi": 84,
          "time": 81.39749999999954,
          "velocity": 0.937007874015748,
          "duration": 0.09666666666666401
        },
        {
          "name": "D#6",
          "midi": 87,
          "time": 81.49999999999953,
          "velocity": 0.9763779527559056,
          "duration": 0.09749999999999659
        },
        {
          "name": "G6",
          "midi": 91,
          "time": 81.59999999999953,
          "velocity": 0.9763779527559056,
          "duration": 0.09749999999999659
        },
        {
          "name": "D#6",
          "midi": 87,
          "time": 81.69749999999952,
          "velocity": 0.9763779527559056,
          "duration": 0.09666666666666401
        },
        {
          "name": "C6",
          "midi": 84,
          "time": 81.79999999999951,
          "velocity": 0.937007874015748,
          "duration": 0.09749999999999659
        },
        {
          "name": "A#5",
          "midi": 82,
          "time": 81.89749999999951,
          "velocity": 0.889763779527559,
          "duration": 0.10250000000000625
        },
        {
          "name": "G5",
          "midi": 79,
          "time": 81.99999999999952,
          "velocity": 0.889763779527559,
          "duration": 0.09999999999999432
        },
        {
          "name": "D#5",
          "midi": 75,
          "time": 82.09999999999951,
          "velocity": 0.952755905511811,
          "duration": 0.09999999999999432
        },
        {
          "name": "C5",
          "midi": 72,
          "time": 82.1999999999995,
          "velocity": 0.8661417322834646,
          "duration": 0.09749999999999659
        },
        {
          "name": "A#4",
          "midi": 70,
          "time": 82.2999999999995,
          "velocity": 0.8503937007874016,
          "duration": 0.09416666666666629
        },
        {
          "name": "C5",
          "midi": 72,
          "time": 82.39416666666617,
          "velocity": 0.8661417322834646,
          "duration": 0.09749999999999659
        },
        {
          "name": "G#4",
          "midi": 68,
          "time": 82.4999999999995,
          "velocity": 0.937007874015748,
          "duration": 0.09999999999999432
        },
        {
          "name": "G4",
          "midi": 67,
          "time": 82.5999999999995,
          "velocity": 0.937007874015748,
          "duration": 0.09749999999999659
        },
        {
          "name": "D#4",
          "midi": 63,
          "time": 82.69999999999949,
          "velocity": 0.937007874015748,
          "duration": 0.09999999999999432
        },
        {
          "name": "G4",
          "midi": 67,
          "time": 82.79999999999949,
          "velocity": 0.937007874015748,
          "duration": 0.09999999999999432
        },
        {
          "name": "D#4",
          "midi": 63,
          "time": 82.89749999999948,
          "velocity": 0.8582677165354331,
          "duration": 0.09666666666666401
        },
        {
          "name": "C4",
          "midi": 60,
          "time": 82.99999999999947,
          "velocity": 0.8582677165354331,
          "duration": 0.09999999999999432
        },
        {
          "name": "A#3",
          "midi": 58,
          "time": 83.09999999999947,
          "velocity": 0.8582677165354331,
          "duration": 0.09749999999999659
        },
        {
          "name": "C4",
          "midi": 60,
          "time": 83.19999999999946,
          "velocity": 0.8267716535433071,
          "duration": 0.20000000000000284
        },
        {
          "name": "D4",
          "midi": 62,
          "time": 83.39999999999947,
          "velocity": 0.8267716535433071,
          "duration": 0.20000000000000284
        },
        {
          "name": "D#4",
          "midi": 63,
          "time": 83.59999999999947,
          "velocity": 0.889763779527559,
          "duration": 0.20000000000000284
        },
        {
          "name": "C4",
          "midi": 60,
          "time": 83.79749999999947,
          "velocity": 0.84251968503937,
          "duration": 0.10249999999999204
        },
        {
          "name": "G4",
          "midi": 67,
          "time": 83.89999999999947,
          "velocity": 0.905511811023622,
          "duration": 0.09999999999999432
        },
        {
          "name": "C4",
          "midi": 60,
          "time": 83.99999999999946,
          "velocity": 0.937007874015748,
          "duration": 0.09749999999999659
        },
        {
          "name": "D#4",
          "midi": 63,
          "time": 84.09999999999945,
          "velocity": 0.937007874015748,
          "duration": 0.09749999999999659
        },
        {
          "name": "G4",
          "midi": 67,
          "time": 84.19999999999945,
          "velocity": 0.8661417322834646,
          "duration": 0.09749999999999659
        },
        {
          "name": "D#5",
          "midi": 75,
          "time": 84.29999999999944,
          "velocity": 0.8661417322834646,
          "duration": 0.09416666666666629
        },
        {
          "name": "C5",
          "midi": 72,
          "time": 84.39999999999944,
          "velocity": 0.889763779527559,
          "duration": 0.09749999999999659
        },
        {
          "name": "D#5",
          "midi": 75,
          "time": 84.49999999999943,
          "velocity": 0.889763779527559,
          "duration": 0.09749999999999659
        },
        {
          "name": "G5",
          "midi": 79,
          "time": 84.59999999999943,
          "velocity": 0.937007874015748,
          "duration": 0.09416666666666629
        },
        {
          "name": "C6",
          "midi": 84,
          "time": 84.69999999999942,
          "velocity": 0.9763779527559056,
          "duration": 0.09749999999999659
        },
        {
          "name": "A#3",
          "midi": 58,
          "time": 84.79999999999941,
          "velocity": 0.9763779527559056,
          "duration": 0.09749999999999659
        },
        {
          "name": "D4",
          "midi": 62,
          "time": 84.89749999999941,
          "velocity": 0.9763779527559056,
          "duration": 0.09666666666666401
        },
        {
          "name": "F4",
          "midi": 65,
          "time": 84.9999999999994,
          "velocity": 0.937007874015748,
          "duration": 0.09749999999999659
        },
        {
          "name": "G4",
          "midi": 67,
          "time": 85.0974999999994,
          "velocity": 0.889763779527559,
          "duration": 0.10250000000000625
        },
        {
          "name": "D4",
          "midi": 62,
          "time": 85.1999999999994,
          "velocity": 0.889763779527559,
          "duration": 0.09999999999999432
        },
        {
          "name": "F4",
          "midi": 65,
          "time": 85.2999999999994,
          "velocity": 0.952755905511811,
          "duration": 0.09999999999999432
        },
        {
          "name": "G4",
          "midi": 67,
          "time": 85.3999999999994,
          "velocity": 0.8661417322834646,
          "duration": 0.09749999999999659
        },
        {
          "name": "A#4",
          "midi": 70,
          "time": 85.49999999999939,
          "velocity": 0.8503937007874016,
          "duration": 0.09416666666666629
        },
        {
          "name": "F4",
          "midi": 65,
          "time": 85.59416666666606,
          "velocity": 0.8661417322834646,
          "duration": 0.09749999999999659
        },
        {
          "name": "G4",
          "midi": 67,
          "time": 85.69999999999939,
          "velocity": 0.937007874015748,
          "duration": 0.09999999999999432
        },
        {
          "name": "A#4",
          "midi": 70,
          "time": 85.79999999999939,
          "velocity": 0.937007874015748,
          "duration": 0.09749999999999659
        },
        {
          "name": "D5",
          "midi": 74,
          "time": 85.89999999999938,
          "velocity": 0.937007874015748,
          "duration": 0.09999999999999432
        },
        {
          "name": "G4",
          "midi": 67,
          "time": 85.99999999999937,
          "velocity": 0.937007874015748,
          "duration": 0.09999999999999432
        },
        {
          "name": "A#4",
          "midi": 70,
          "time": 86.09749999999937,
          "velocity": 0.8582677165354331,
          "duration": 0.09666666666666401
        },
        {
          "name": "D5",
          "midi": 74,
          "time": 86.19999999999936,
          "velocity": 0.8582677165354331,
          "duration": 0.09999999999999432
        },
        {
          "name": "G5",
          "midi": 79,
          "time": 86.29999999999936,
          "velocity": 0.8582677165354331,
          "duration": 0.09749999999999659
        }
      ],
      "controlChanges": {},
      "id": 1,
      "name": "piano1",
      "channelNumber": 0,
      "isPercussion": false
    },
    {
      "startTime": 30.400000000000002,
      "duration": 59.999999999999986,
      "length": 106,
      "notes": [
        {
          "name": "C5",
          "midi": 72,
          "time": 30.400000000000002,
          "velocity": 0.8503937007874016,
          "duration": 0.6000000000000014
        },
        {
          "name": "G#4",
          "midi": 68,
          "time": 31.000000000000004,
          "velocity": 0.8976377952755905,
          "duration": 0.3999999999999986
        },
        {
          "name": "G4",
          "midi": 67,
          "time": 31.400000000000002,
          "velocity": 0.8818897637795275,
          "duration": 0.5999999999999979
        },
        {
          "name": "C4",
          "midi": 60,
          "time": 32,
          "velocity": 0.889763779527559,
          "duration": 1.6000000000000014
        },
        {
          "name": "D#4",
          "midi": 63,
          "time": 32,
          "velocity": 0.889763779527559,
          "duration": 1.6000000000000014
        },
        {
          "name": "A#3",
          "midi": 58,
          "time": 33.6,
          "velocity": 0.84251968503937,
          "duration": 0.6000000000000014
        },
        {
          "name": "D4",
          "midi": 62,
          "time": 33.6,
          "velocity": 0.889763779527559,
          "duration": 0.6000000000000014
        },
        {
          "name": "C4",
          "midi": 60,
          "time": 34.2,
          "velocity": 0.8267716535433071,
          "duration": 0.6000000000000014
        },
        {
          "name": "D#4",
          "midi": 63,
          "time": 34.2,
          "velocity": 0.8976377952755905,
          "duration": 0.6000000000000014
        },
        {
          "name": "G3",
          "midi": 55,
          "time": 34.800000000000004,
          "velocity": 0.8346456692913385,
          "duration": 1.1999999999999957
        },
        {
          "name": "D4",
          "midi": 62,
          "time": 34.800000000000004,
          "velocity": 0.889763779527559,
          "duration": 1.1991666666666632
        },
        {
          "name": "F5",
          "midi": 77,
          "time": 37.2,
          "velocity": 0.8110236220472441,
          "duration": 0.20000000000000284
        },
        {
          "name": "G5",
          "midi": 79,
          "time": 37.400000000000006,
          "velocity": 0.8110236220472441,
          "duration": 0.20000000000000284
        },
        {
          "name": "A#5",
          "midi": 82,
          "time": 37.60000000000001,
          "velocity": 0.889763779527559,
          "duration": 0.20000000000000284
        },
        {
          "name": "C6",
          "midi": 84,
          "time": 37.80000000000001,
          "velocity": 1,
          "duration": 0.20000000000000284
        },
        {
          "name": "F6",
          "midi": 89,
          "time": 38.000000000000014,
          "velocity": 1,
          "duration": 0.20000000000000284
        },
        {
          "name": "G6",
          "midi": 91,
          "time": 38.20000000000002,
          "velocity": 1,
          "duration": 0.20000000000000284
        },
        {
          "name": "A#5",
          "midi": 82,
          "time": 38.40000000000002,
          "velocity": 0.9448818897637795,
          "duration": 1.2999999999999972
        },
        {
          "name": "D6",
          "midi": 86,
          "time": 38.40000000000002,
          "velocity": 0.9448818897637795,
          "duration": 1.2999999999999972
        },
        {
          "name": "G6",
          "midi": 91,
          "time": 41.600000000000016,
          "velocity": 1,
          "duration": 0.20000000000000284
        },
        {
          "name": "G#5",
          "midi": 80,
          "time": 41.80000000000002,
          "velocity": 0.8976377952755905,
          "duration": 0.19999999999999574
        },
        {
          "name": "C6",
          "midi": 84,
          "time": 41.99750000000002,
          "velocity": 0.9763779527559056,
          "duration": 0.20250000000000057
        },
        {
          "name": "G#5",
          "midi": 80,
          "time": 42.20500000000002,
          "velocity": 0.889763779527559,
          "duration": 0.20666666666666345
        },
        {
          "name": "G6",
          "midi": 91,
          "time": 42.40000000000002,
          "velocity": 1,
          "duration": 0.19999999999999574
        },
        {
          "name": "G#5",
          "midi": 80,
          "time": 42.600000000000016,
          "velocity": 0.8976377952755905,
          "duration": 0.19999999999999574
        },
        {
          "name": "C6",
          "midi": 84,
          "time": 42.797500000000014,
          "velocity": 0.9763779527559056,
          "duration": 0.20250000000000057
        },
        {
          "name": "G#5",
          "midi": 80,
          "time": 43.00500000000002,
          "velocity": 0.889763779527559,
          "duration": 0.20666666666666345
        },
        {
          "name": "F6",
          "midi": 89,
          "time": 43.20000000000002,
          "velocity": 1,
          "duration": 0.19999999999999574
        },
        {
          "name": "G#5",
          "midi": 80,
          "time": 43.40000000000001,
          "velocity": 0.8976377952755905,
          "duration": 0.19999999999999574
        },
        {
          "name": "C6",
          "midi": 84,
          "time": 43.59750000000001,
          "velocity": 0.9763779527559056,
          "duration": 0.20250000000000057
        },
        {
          "name": "G#5",
          "midi": 80,
          "time": 43.805000000000014,
          "velocity": 0.889763779527559,
          "duration": 0.20666666666666345
        },
        {
          "name": "F6",
          "midi": 89,
          "time": 44.000000000000014,
          "velocity": 1,
          "duration": 0.19999999999999574
        },
        {
          "name": "G#5",
          "midi": 80,
          "time": 44.20000000000001,
          "velocity": 0.8976377952755905,
          "duration": 0.19999999999999574
        },
        {
          "name": "C6",
          "midi": 84,
          "time": 44.39750000000001,
          "velocity": 0.9763779527559056,
          "duration": 0.20250000000000057
        },
        {
          "name": "G#5",
          "midi": 80,
          "time": 44.60500000000001,
          "velocity": 0.889763779527559,
          "duration": 0.20666666666666345
        },
        {
          "name": "A#6",
          "midi": 94,
          "time": 44.80000000000001,
          "velocity": 1,
          "duration": 0.19999999999999574
        },
        {
          "name": "D6",
          "midi": 86,
          "time": 45.00000000000001,
          "velocity": 0.8976377952755905,
          "duration": 0.19999999999999574
        },
        {
          "name": "D#6",
          "midi": 87,
          "time": 45.197500000000005,
          "velocity": 0.9763779527559056,
          "duration": 0.20250000000000057
        },
        {
          "name": "D6",
          "midi": 86,
          "time": 45.40500000000001,
          "velocity": 0.889763779527559,
          "duration": 0.20666666666666345
        },
        {
          "name": "A#6",
          "midi": 94,
          "time": 45.60000000000001,
          "velocity": 1,
          "duration": 0.19999999999999574
        },
        {
          "name": "D6",
          "midi": 86,
          "time": 45.800000000000004,
          "velocity": 0.8976377952755905,
          "duration": 0.19999999999999574
        },
        {
          "name": "D#6",
          "midi": 87,
          "time": 45.9975,
          "velocity": 0.9763779527559056,
          "duration": 0.20250000000000057
        },
        {
          "name": "D6",
          "midi": 86,
          "time": 46.205000000000005,
          "velocity": 0.889763779527559,
          "duration": 0.20666666666666345
        },
        {
          "name": "G6",
          "midi": 91,
          "time": 46.400000000000006,
          "velocity": 1,
          "duration": 0.19999999999999574
        },
        {
          "name": "C6",
          "midi": 84,
          "time": 46.6,
          "velocity": 0.8976377952755905,
          "duration": 0.19999999999999574
        },
        {
          "name": "D6",
          "midi": 86,
          "time": 46.7975,
          "velocity": 0.9763779527559056,
          "duration": 0.20250000000000057
        },
        {
          "name": "D#6",
          "midi": 87,
          "time": 47.005,
          "velocity": 0.889763779527559,
          "duration": 0.20666666666666345
        },
        {
          "name": "G6",
          "midi": 91,
          "time": 47.2,
          "velocity": 1,
          "duration": 0.19999999999999574
        },
        {
          "name": "C6",
          "midi": 84,
          "time": 47.4,
          "velocity": 0.8976377952755905,
          "duration": 0.19999999999999574
        },
        {
          "name": "D6",
          "midi": 86,
          "time": 47.5975,
          "velocity": 0.9763779527559056,
          "duration": 0.20250000000000057
        },
        {
          "name": "D#6",
          "midi": 87,
          "time": 47.805,
          "velocity": 0.889763779527559,
          "duration": 0.20666666666666345
        },
        {
          "name": "G6",
          "midi": 91,
          "time": 48,
          "velocity": 1,
          "duration": 0.19999999999999574
        },
        {
          "name": "G#5",
          "midi": 80,
          "time": 48.199999999999996,
          "velocity": 0.8976377952755905,
          "duration": 0.19999999999999574
        },
        {
          "name": "C6",
          "midi": 84,
          "time": 48.397499999999994,
          "velocity": 0.9763779527559056,
          "duration": 0.20250000000000057
        },
        {
          "name": "G#5",
          "midi": 80,
          "time": 48.605,
          "velocity": 0.889763779527559,
          "duration": 0.20666666666666345
        },
        {
          "name": "G6",
          "midi": 91,
          "time": 48.8,
          "velocity": 1,
          "duration": 0.19999999999999574
        },
        {
          "name": "G#5",
          "midi": 80,
          "time": 48.99999999999999,
          "velocity": 0.8976377952755905,
          "duration": 0.19999999999999574
        },
        {
          "name": "C6",
          "midi": 84,
          "time": 49.19749999999999,
          "velocity": 0.9763779527559056,
          "duration": 0.20250000000000057
        },
        {
          "name": "G#5",
          "midi": 80,
          "time": 49.404999999999994,
          "velocity": 0.889763779527559,
          "duration": 0.20666666666666345
        },
        {
          "name": "F6",
          "midi": 89,
          "time": 49.599999999999994,
          "velocity": 1,
          "duration": 0.19999999999999574
        },
        {
          "name": "G#5",
          "midi": 80,
          "time": 49.79999999999999,
          "velocity": 0.8976377952755905,
          "duration": 0.19999999999999574
        },
        {
          "name": "C6",
          "midi": 84,
          "time": 49.99749999999999,
          "velocity": 0.9763779527559056,
          "duration": 0.20250000000000057
        },
        {
          "name": "G#5",
          "midi": 80,
          "time": 50.20499999999999,
          "velocity": 0.889763779527559,
          "duration": 0.20666666666666345
        },
        {
          "name": "F6",
          "midi": 89,
          "time": 50.39999999999999,
          "velocity": 1,
          "duration": 0.19999999999999574
        },
        {
          "name": "G#5",
          "midi": 80,
          "time": 50.59999999999999,
          "velocity": 0.8976377952755905,
          "duration": 0.19999999999999574
        },
        {
          "name": "C6",
          "midi": 84,
          "time": 50.797499999999985,
          "velocity": 0.9763779527559056,
          "duration": 0.20250000000000057
        },
        {
          "name": "G#5",
          "midi": 80,
          "time": 51.00499999999999,
          "velocity": 0.889763779527559,
          "duration": 0.20666666666666345
        },
        {
          "name": "F6",
          "midi": 89,
          "time": 51.19999999999999,
          "velocity": 1,
          "duration": 0.19999999999999574
        },
        {
          "name": "A#5",
          "midi": 82,
          "time": 51.399999999999984,
          "velocity": 0.8976377952755905,
          "duration": 0.19999999999999574
        },
        {
          "name": "C6",
          "midi": 84,
          "time": 51.59749999999998,
          "velocity": 0.9763779527559056,
          "duration": 0.20250000000000057
        },
        {
          "name": "D#6",
          "midi": 87,
          "time": 51.804999999999986,
          "velocity": 0.889763779527559,
          "duration": 0.20666666666666345
        },
        {
          "name": "F6",
          "midi": 89,
          "time": 51.999999999999986,
          "velocity": 1,
          "duration": 0.19999999999999574
        },
        {
          "name": "A#5",
          "midi": 82,
          "time": 52.19999999999998,
          "velocity": 0.8976377952755905,
          "duration": 0.19999999999999574
        },
        {
          "name": "C6",
          "midi": 84,
          "time": 52.39749999999998,
          "velocity": 0.9763779527559056,
          "duration": 0.20250000000000057
        },
        {
          "name": "D#6",
          "midi": 87,
          "time": 52.60499999999998,
          "velocity": 0.889763779527559,
          "duration": 0.20666666666666345
        },
        {
          "name": "D6",
          "midi": 86,
          "time": 52.79999999999998,
          "velocity": 0.889763779527559,
          "duration": 0.20749999999999602
        },
        {
          "name": "F6",
          "midi": 89,
          "time": 52.79999999999998,
          "velocity": 1,
          "duration": 0.19999999999999574
        },
        {
          "name": "A#5",
          "midi": 82,
          "time": 52.99999999999998,
          "velocity": 0.8976377952755905,
          "duration": 0.19999999999999574
        },
        {
          "name": "C6",
          "midi": 84,
          "time": 53.19749999999998,
          "velocity": 0.9763779527559056,
          "duration": 0.20250000000000057
        },
        {
          "name": "D#6",
          "midi": 87,
          "time": 53.40499999999998,
          "velocity": 0.889763779527559,
          "duration": 0.20666666666666345
        },
        {
          "name": "F6",
          "midi": 89,
          "time": 53.59999999999998,
          "velocity": 1,
          "duration": 0.19999999999999574
        },
        {
          "name": "A#6",
          "midi": 94,
          "time": 53.59999999999998,
          "velocity": 1,
          "duration": 0.19999999999999574
        },
        {
          "name": "A#5",
          "midi": 82,
          "time": 53.799999999999976,
          "velocity": 0.8976377952755905,
          "duration": 0.19999999999999574
        },
        {
          "name": "D6",
          "midi": 86,
          "time": 53.997499999999974,
          "velocity": 0.9763779527559056,
          "duration": 0.20250000000000057
        },
        {
          "name": "F6",
          "midi": 89,
          "time": 54.20499999999998,
          "velocity": 0.889763779527559,
          "duration": 0.20666666666666345
        },
        {
          "name": "G5",
          "midi": 79,
          "time": 54.39999999999998,
          "velocity": 1,
          "duration": 0.19999999999999574
        },
        {
          "name": "F5",
          "midi": 77,
          "time": 54.799999999999976,
          "velocity": 1,
          "duration": 0.29999999999999716
        },
        {
          "name": "F5",
          "midi": 77,
          "time": 55.09999999999997,
          "velocity": 1,
          "duration": 0.10000000000000142
        },
        {
          "name": "D5",
          "midi": 74,
          "time": 55.199999999999974,
          "velocity": 1,
          "duration": 0.29999999999999716
        },
        {
          "name": "D5",
          "midi": 74,
          "time": 55.49999999999997,
          "velocity": 1,
          "duration": 0.10000000000000142
        },
        {
          "name": "G3",
          "midi": 55,
          "time": 57.59999999999997,
          "velocity": 0.6614173228346457,
          "duration": 0.3999999999999986
        },
        {
          "name": "G3",
          "midi": 55,
          "time": 57.59999999999997,
          "velocity": 0.6614173228346457,
          "duration": 0.3999999999999986
        },
        {
          "name": "D5",
          "midi": 74,
          "time": 57.59999999999997,
          "velocity": 1,
          "duration": 0.3999999999999986
        },
        {
          "name": "D5",
          "midi": 74,
          "time": 57.59999999999997,
          "velocity": 1,
          "duration": 0.3999999999999986
        },
        {
          "name": "D3",
          "midi": 50,
          "time": 57.99999999999997,
          "velocity": 0.7480314960629921,
          "duration": 0.20000000000000284
        },
        {
          "name": "G3",
          "midi": 55,
          "time": 58.199999999999974,
          "velocity": 0.7559055118110236,
          "duration": 0.20000000000000284
        },
        {
          "name": "A3",
          "midi": 57,
          "time": 58.39999999999998,
          "velocity": 0.937007874015748,
          "duration": 0.20000000000000284
        },
        {
          "name": "C4",
          "midi": 60,
          "time": 58.59999999999998,
          "velocity": 0.9291338582677166,
          "duration": 0.20000000000000284
        },
        {
          "name": "D4",
          "midi": 62,
          "time": 58.79999999999998,
          "velocity": 1,
          "duration": 0.20000000000000284
        },
        {
          "name": "G4",
          "midi": 67,
          "time": 58.79999999999998,
          "velocity": 0.8110236220472441,
          "duration": 0.20000000000000284
        },
        {
          "name": "A3",
          "midi": 57,
          "time": 58.999999999999986,
          "velocity": 0.8740157480314961,
          "duration": 0.20000000000000284
        },
        {
          "name": "A4",
          "midi": 69,
          "time": 58.999999999999986,
          "velocity": 0.8110236220472441,
          "duration": 0.20000000000000284
        },
        {
          "name": "G5",
          "midi": 79,
          "time": 58.999999999999986,
          "velocity": 0.8110236220472441,
          "duration": 0.20000000000000284
        },
        {
          "name": "B3",
          "midi": 59,
          "time": 59.19999999999999,
          "velocity": 0.8110236220472441,
          "duration": 0.7999999999999972
        },
        {
          "name": "B4",
          "midi": 71,
          "time": 59.19999999999999,
          "velocity": 0.8110236220472441,
          "duration": 0.7999999999999972
        },
        {
          "name": "D5",
          "midi": 74,
          "time": 59.19999999999999,
          "velocity": 0.8110236220472441,
          "duration": 0.7999999999999972
        }
      ],
      "controlChanges": {},
      "id": 2,
      "name": "piano2",
      "channelNumber": 0,
      "isPercussion": false
    },
    {
      "startTime": 15.200000000000001,
      "duration": 86.39999999999976,
      "length": 161,
      "notes": [
        {
          "name": "A#2",
          "midi": 46,
          "time": 15.200000000000001,
          "velocity": 0.952755905511811,
          "duration": 0.09999999999999964
        },
        {
          "name": "C3",
          "midi": 48,
          "time": 15.3,
          "velocity": 0.952755905511811,
          "duration": 0.09999999999999964
        },
        {
          "name": "D#3",
          "midi": 51,
          "time": 15.4,
          "velocity": 0.952755905511811,
          "duration": 0.09999999999999964
        },
        {
          "name": "F3",
          "midi": 53,
          "time": 15.5,
          "velocity": 0.952755905511811,
          "duration": 0.09999999999999964
        },
        {
          "name": "G3",
          "midi": 55,
          "time": 15.6,
          "velocity": 0.952755905511811,
          "duration": 0.09999999999999964
        },
        {
          "name": "A#3",
          "midi": 58,
          "time": 15.7,
          "velocity": 0.952755905511811,
          "duration": 0.09999999999999964
        },
        {
          "name": "G4",
          "midi": 67,
          "time": 15.799999999999999,
          "velocity": 0.952755905511811,
          "duration": 0.09999999999999964
        },
        {
          "name": "D#4",
          "midi": 63,
          "time": 15.899999999999999,
          "velocity": 0.952755905511811,
          "duration": 0.09999999999999964
        },
        {
          "name": "A#3",
          "midi": 58,
          "time": 15.999999999999998,
          "velocity": 0.952755905511811,
          "duration": 0.29999999999999893
        },
        {
          "name": "A#3",
          "midi": 58,
          "time": 16.4,
          "velocity": 0.952755905511811,
          "duration": 0.10000000000000142
        },
        {
          "name": "A#3",
          "midi": 58,
          "time": 16.6,
          "velocity": 0.952755905511811,
          "duration": 0.6000000000000014
        },
        {
          "name": "A#4",
          "midi": 70,
          "time": 17.200000000000003,
          "velocity": 0.952755905511811,
          "duration": 0.10000000000000142
        },
        {
          "name": "C5",
          "midi": 72,
          "time": 17.300000000000004,
          "velocity": 0.952755905511811,
          "duration": 0.10000000000000142
        },
        {
          "name": "G4",
          "midi": 67,
          "time": 17.400000000000006,
          "velocity": 0.952755905511811,
          "duration": 0.10000000000000142
        },
        {
          "name": "D#4",
          "midi": 63,
          "time": 17.500000000000007,
          "velocity": 0.952755905511811,
          "duration": 0.10000000000000142
        },
        {
          "name": "F4",
          "midi": 65,
          "time": 17.60000000000001,
          "velocity": 0.952755905511811,
          "duration": 0.10000000000000142
        },
        {
          "name": "C4",
          "midi": 60,
          "time": 17.70000000000001,
          "velocity": 0.952755905511811,
          "duration": 0.10000000000000142
        },
        {
          "name": "D#4",
          "midi": 63,
          "time": 17.80000000000001,
          "velocity": 0.952755905511811,
          "duration": 0.10000000000000142
        },
        {
          "name": "F4",
          "midi": 65,
          "time": 17.900000000000013,
          "velocity": 0.952755905511811,
          "duration": 0.10000000000000142
        },
        {
          "name": "C4",
          "midi": 60,
          "time": 18.000000000000014,
          "velocity": 0.952755905511811,
          "duration": 0.10000000000000142
        },
        {
          "name": "D#4",
          "midi": 63,
          "time": 18.100000000000016,
          "velocity": 0.952755905511811,
          "duration": 0.10000000000000142
        },
        {
          "name": "G4",
          "midi": 67,
          "time": 18.200000000000017,
          "velocity": 0.952755905511811,
          "duration": 0.10000000000000142
        },
        {
          "name": "A#4",
          "midi": 70,
          "time": 18.30000000000002,
          "velocity": 0.952755905511811,
          "duration": 0.10000000000000142
        },
        {
          "name": "D#5",
          "midi": 75,
          "time": 18.40000000000002,
          "velocity": 0.952755905511811,
          "duration": 0.10333333333333528
        },
        {
          "name": "D5",
          "midi": 74,
          "time": 18.50000000000002,
          "velocity": 0.952755905511811,
          "duration": 0.08999999999999986
        },
        {
          "name": "G4",
          "midi": 67,
          "time": 18.600000000000023,
          "velocity": 0.952755905511811,
          "duration": 0.08999999999999986
        },
        {
          "name": "A#4",
          "midi": 70,
          "time": 18.70750000000002,
          "velocity": 0.952755905511811,
          "duration": 0.10000000000000142
        },
        {
          "name": "C5",
          "midi": 72,
          "time": 18.800000000000022,
          "velocity": 0.952755905511811,
          "duration": 0.10000000000000142
        },
        {
          "name": "A#4",
          "midi": 70,
          "time": 18.912500000000023,
          "velocity": 0.952755905511811,
          "duration": 0.09999999999999787
        },
        {
          "name": "G4",
          "midi": 67,
          "time": 19.00000000000002,
          "velocity": 0.952755905511811,
          "duration": 0.09999999999999787
        },
        {
          "name": "F4",
          "midi": 65,
          "time": 19.10000000000002,
          "velocity": 0.952755905511811,
          "duration": 0.10000000000000142
        },
        {
          "name": "D#4",
          "midi": 63,
          "time": 19.20000000000002,
          "velocity": 0.952755905511811,
          "duration": 0.1999999999999993
        },
        {
          "name": "C6",
          "midi": 84,
          "time": 19.20000000000002,
          "velocity": 0.952755905511811,
          "duration": 0.3000000000000007
        },
        {
          "name": "F4",
          "midi": 65,
          "time": 19.40000000000002,
          "velocity": 0.952755905511811,
          "duration": 0.4000000000000057
        },
        {
          "name": "C6",
          "midi": 84,
          "time": 19.600000000000023,
          "velocity": 0.952755905511811,
          "duration": 0.10000000000000142
        },
        {
          "name": "C6",
          "midi": 84,
          "time": 19.800000000000026,
          "velocity": 0.952755905511811,
          "duration": 0.5999999999999979
        },
        {
          "name": "A#4",
          "midi": 70,
          "time": 19.800833333333358,
          "velocity": 0.952755905511811,
          "duration": 0.399166666666666
        },
        {
          "name": "C5",
          "midi": 72,
          "time": 20.200000000000024,
          "velocity": 0.952755905511811,
          "duration": 0.1999999999999993
        },
        {
          "name": "G4",
          "midi": 67,
          "time": 20.39916666666669,
          "velocity": 0.952755905511811,
          "duration": 0.20083333333333186
        },
        {
          "name": "D#4",
          "midi": 63,
          "time": 20.600000000000023,
          "velocity": 0.952755905511811,
          "duration": 0.20166666666666444
        },
        {
          "name": "D#4",
          "midi": 63,
          "time": 20.800000000000022,
          "velocity": 0.952755905511811,
          "duration": 0.20166666666666444
        },
        {
          "name": "F4",
          "midi": 65,
          "time": 21.00000000000002,
          "velocity": 0.952755905511811,
          "duration": 0.3999999999999986
        },
        {
          "name": "A#4",
          "midi": 70,
          "time": 21.400833333333352,
          "velocity": 0.952755905511811,
          "duration": 0.399166666666666
        },
        {
          "name": "C5",
          "midi": 72,
          "time": 21.80000000000002,
          "velocity": 0.952755905511811,
          "duration": 0.1999999999999993
        },
        {
          "name": "D#5",
          "midi": 75,
          "time": 21.999166666666685,
          "velocity": 0.952755905511811,
          "duration": 0.20083333333333186
        },
        {
          "name": "D5",
          "midi": 74,
          "time": 22.200000000000017,
          "velocity": 0.952755905511811,
          "duration": 0.20166666666666444
        },
        {
          "name": "A#4",
          "midi": 70,
          "time": 22.400000000000016,
          "velocity": 0.952755905511811,
          "duration": 0.40000000000000213
        },
        {
          "name": "D#6",
          "midi": 87,
          "time": 22.400000000000016,
          "velocity": 0.952755905511811,
          "duration": 0.09999999999999787
        },
        {
          "name": "D6",
          "midi": 86,
          "time": 22.500000000000014,
          "velocity": 0.952755905511811,
          "duration": 0.10000000000000142
        },
        {
          "name": "G5",
          "midi": 79,
          "time": 22.600000000000016,
          "velocity": 0.952755905511811,
          "duration": 0.10000000000000142
        },
        {
          "name": "A#5",
          "midi": 82,
          "time": 22.700000000000017,
          "velocity": 0.952755905511811,
          "duration": 0.10000000000000142
        },
        {
          "name": "C6",
          "midi": 84,
          "time": 22.80000000000002,
          "velocity": 0.952755905511811,
          "duration": 0.10000000000000142
        },
        {
          "name": "F5",
          "midi": 77,
          "time": 22.90000000000002,
          "velocity": 0.952755905511811,
          "duration": 0.10000000000000142
        },
        {
          "name": "G5",
          "midi": 79,
          "time": 23.00000000000002,
          "velocity": 0.952755905511811,
          "duration": 0.10000000000000142
        },
        {
          "name": "D#5",
          "midi": 75,
          "time": 23.100000000000023,
          "velocity": 0.952755905511811,
          "duration": 0.10000000000000142
        },
        {
          "name": "D5",
          "midi": 74,
          "time": 23.200000000000024,
          "velocity": 0.952755905511811,
          "duration": 0.10000000000000142
        },
        {
          "name": "G4",
          "midi": 67,
          "time": 23.300000000000026,
          "velocity": 0.952755905511811,
          "duration": 0.10000000000000142
        },
        {
          "name": "A#4",
          "midi": 70,
          "time": 23.400000000000027,
          "velocity": 0.952755905511811,
          "duration": 0.10000000000000142
        },
        {
          "name": "C5",
          "midi": 72,
          "time": 23.50000000000003,
          "velocity": 0.952755905511811,
          "duration": 0.10000000000000142
        },
        {
          "name": "F4",
          "midi": 65,
          "time": 23.60000000000003,
          "velocity": 0.952755905511811,
          "duration": 0.10000000000000142
        },
        {
          "name": "G4",
          "midi": 67,
          "time": 23.70000000000003,
          "velocity": 0.952755905511811,
          "duration": 0.10000000000000142
        },
        {
          "name": "D#4",
          "midi": 63,
          "time": 23.800000000000033,
          "velocity": 0.952755905511811,
          "duration": 0.10000000000000142
        },
        {
          "name": "D4",
          "midi": 62,
          "time": 23.900000000000034,
          "velocity": 0.952755905511811,
          "duration": 0.10000000000000142
        },
        {
          "name": "A#3",
          "midi": 58,
          "time": 24.000000000000036,
          "velocity": 0.952755905511811,
          "duration": 0.10000000000000142
        },
        {
          "name": "G4",
          "midi": 67,
          "time": 24.000000000000036,
          "velocity": 0.952755905511811,
          "duration": 0.30000000000000426
        },
        {
          "name": "D#5",
          "midi": 75,
          "time": 24.000000000000036,
          "velocity": 0.952755905511811,
          "duration": 0.10000000000000142
        },
        {
          "name": "C4",
          "midi": 60,
          "time": 24.100000000000037,
          "velocity": 0.952755905511811,
          "duration": 0.10000000000000142
        },
        {
          "name": "D5",
          "midi": 74,
          "time": 24.100000000000037,
          "velocity": 0.952755905511811,
          "duration": 0.10000000000000142
        },
        {
          "name": "G4",
          "midi": 67,
          "time": 24.20000000000004,
          "velocity": 0.952755905511811,
          "duration": 0.4000000000000057
        },
        {
          "name": "A#4",
          "midi": 70,
          "time": 24.30000000000004,
          "velocity": 0.952755905511811,
          "duration": 0.10000000000000142
        },
        {
          "name": "C5",
          "midi": 72,
          "time": 24.40000000000004,
          "velocity": 0.952755905511811,
          "duration": 0.10000000000000142
        },
        {
          "name": "F4",
          "midi": 65,
          "time": 24.500000000000043,
          "velocity": 0.952755905511811,
          "duration": 0.10000000000000142
        },
        {
          "name": "G4",
          "midi": 67,
          "time": 24.600000000000044,
          "velocity": 0.952755905511811,
          "duration": 0.10000000000000142
        },
        {
          "name": "G5",
          "midi": 79,
          "time": 24.600000000000044,
          "velocity": 0.952755905511811,
          "duration": 0.6000000000000085
        },
        {
          "name": "D#4",
          "midi": 63,
          "time": 24.700000000000045,
          "velocity": 0.952755905511811,
          "duration": 0.10000000000000142
        },
        {
          "name": "D4",
          "midi": 62,
          "time": 24.800000000000047,
          "velocity": 0.952755905511811,
          "duration": 0.10000000000000142
        },
        {
          "name": "A#3",
          "midi": 58,
          "time": 24.90000000000005,
          "velocity": 0.952755905511811,
          "duration": 0.10000000000000142
        },
        {
          "name": "C4",
          "midi": 60,
          "time": 25.00000000000005,
          "velocity": 0.952755905511811,
          "duration": 0.10000000000000142
        },
        {
          "name": "G3",
          "midi": 55,
          "time": 25.200000000000053,
          "velocity": 0.952755905511811,
          "duration": 0.1999999999999993
        },
        {
          "name": "G5",
          "midi": 79,
          "time": 25.400000000000052,
          "velocity": 0.952755905511811,
          "duration": 0.1999999999999993
        },
        {
          "name": "A#2",
          "midi": 46,
          "time": 76.00000000000006,
          "velocity": 0.952755905511811,
          "duration": 0.09999999999999432
        },
        {
          "name": "C3",
          "midi": 48,
          "time": 76.10000000000005,
          "velocity": 0.952755905511811,
          "duration": 0.09999999999999432
        },
        {
          "name": "D#3",
          "midi": 51,
          "time": 76.20000000000005,
          "velocity": 0.952755905511811,
          "duration": 0.09999999999999432
        },
        {
          "name": "F3",
          "midi": 53,
          "time": 76.30000000000004,
          "velocity": 0.952755905511811,
          "duration": 0.09999999999999432
        },
        {
          "name": "G3",
          "midi": 55,
          "time": 76.40000000000003,
          "velocity": 0.952755905511811,
          "duration": 0.09999999999999432
        },
        {
          "name": "A#3",
          "midi": 58,
          "time": 76.50000000000003,
          "velocity": 0.952755905511811,
          "duration": 0.09999999999999432
        },
        {
          "name": "G4",
          "midi": 67,
          "time": 76.60000000000002,
          "velocity": 0.952755905511811,
          "duration": 0.09999999999999432
        },
        {
          "name": "D#4",
          "midi": 63,
          "time": 76.70000000000002,
          "velocity": 0.952755905511811,
          "duration": 0.09999999999999432
        },
        {
          "name": "A#3",
          "midi": 58,
          "time": 76.80000000000001,
          "velocity": 0.952755905511811,
          "duration": 0.29999999999999716
        },
        {
          "name": "A#3",
          "midi": 58,
          "time": 77.2,
          "velocity": 0.952755905511811,
          "duration": 0.09999999999999432
        },
        {
          "name": "A#3",
          "midi": 58,
          "time": 77.39999999999999,
          "velocity": 0.952755905511811,
          "duration": 0.5999999999999943
        },
        {
          "name": "A#4",
          "midi": 70,
          "time": 77.99999999999999,
          "velocity": 0.952755905511811,
          "duration": 0.09999999999999432
        },
        {
          "name": "C5",
          "midi": 72,
          "time": 78.09999999999998,
          "velocity": 0.952755905511811,
          "duration": 0.09999999999999432
        },
        {
          "name": "G4",
          "midi": 67,
          "time": 78.19999999999997,
          "velocity": 0.952755905511811,
          "duration": 0.09999999999999432
        },
        {
          "name": "D#4",
          "midi": 63,
          "time": 78.29999999999997,
          "velocity": 0.952755905511811,
          "duration": 0.09999999999999432
        },
        {
          "name": "F4",
          "midi": 65,
          "time": 78.39999999999996,
          "velocity": 0.952755905511811,
          "duration": 0.09999999999999432
        },
        {
          "name": "C4",
          "midi": 60,
          "time": 78.49999999999996,
          "velocity": 0.952755905511811,
          "duration": 0.09999999999999432
        },
        {
          "name": "D#4",
          "midi": 63,
          "time": 78.59999999999995,
          "velocity": 0.952755905511811,
          "duration": 0.09999999999999432
        },
        {
          "name": "F4",
          "midi": 65,
          "time": 78.69999999999995,
          "velocity": 0.952755905511811,
          "duration": 0.09999999999999432
        },
        {
          "name": "C4",
          "midi": 60,
          "time": 78.79999999999994,
          "velocity": 0.952755905511811,
          "duration": 0.09999999999999432
        },
        {
          "name": "D#4",
          "midi": 63,
          "time": 78.89999999999993,
          "velocity": 0.952755905511811,
          "duration": 0.09999999999999432
        },
        {
          "name": "G4",
          "midi": 67,
          "time": 78.99999999999993,
          "velocity": 0.952755905511811,
          "duration": 0.09999999999999432
        },
        {
          "name": "A#4",
          "midi": 70,
          "time": 79.09999999999992,
          "velocity": 0.952755905511811,
          "duration": 0.09999999999999432
        },
        {
          "name": "D#5",
          "midi": 75,
          "time": 79.19999999999992,
          "velocity": 0.952755905511811,
          "duration": 0.10333333333332462
        },
        {
          "name": "D5",
          "midi": 74,
          "time": 79.29999999999991,
          "velocity": 0.952755905511811,
          "duration": 0.09000000000000341
        },
        {
          "name": "G4",
          "midi": 67,
          "time": 79.39999999999992,
          "velocity": 0.952755905511811,
          "duration": 0.09000000000000341
        },
        {
          "name": "A#4",
          "midi": 70,
          "time": 79.50749999999992,
          "velocity": 0.952755905511811,
          "duration": 0.09999999999999432
        },
        {
          "name": "C5",
          "midi": 72,
          "time": 79.59999999999992,
          "velocity": 0.952755905511811,
          "duration": 0.09999999999999432
        },
        {
          "name": "A#4",
          "midi": 70,
          "time": 79.71249999999992,
          "velocity": 0.952755905511811,
          "duration": 0.10000000000000853
        },
        {
          "name": "G4",
          "midi": 67,
          "time": 79.79999999999993,
          "velocity": 0.952755905511811,
          "duration": 0.10000000000000853
        },
        {
          "name": "F4",
          "midi": 65,
          "time": 79.89999999999993,
          "velocity": 0.952755905511811,
          "duration": 0.09999999999999432
        },
        {
          "name": "D#4",
          "midi": 63,
          "time": 79.99999999999993,
          "velocity": 0.952755905511811,
          "duration": 0.20000000000000284
        },
        {
          "name": "C6",
          "midi": 84,
          "time": 79.99999999999993,
          "velocity": 0.952755905511811,
          "duration": 0.29999999999999716
        },
        {
          "name": "F4",
          "midi": 65,
          "time": 80.19999999999993,
          "velocity": 0.952755905511811,
          "duration": 0.39999999999997726
        },
        {
          "name": "C6",
          "midi": 84,
          "time": 80.39999999999992,
          "velocity": 0.952755905511811,
          "duration": 0.09999999999999432
        },
        {
          "name": "C6",
          "midi": 84,
          "time": 80.59999999999991,
          "velocity": 0.952755905511811,
          "duration": 0.6000000000000085
        },
        {
          "name": "A#4",
          "midi": 70,
          "time": 80.60083333333324,
          "velocity": 0.952755905511811,
          "duration": 0.3991666666666731
        },
        {
          "name": "C5",
          "midi": 72,
          "time": 80.99999999999991,
          "velocity": 0.952755905511811,
          "duration": 0.20000000000000284
        },
        {
          "name": "G4",
          "midi": 67,
          "time": 81.19916666666659,
          "velocity": 0.952755905511811,
          "duration": 0.20083333333333542
        },
        {
          "name": "D#4",
          "midi": 63,
          "time": 81.39999999999992,
          "velocity": 0.952755905511811,
          "duration": 0.201666666666668
        },
        {
          "name": "D#4",
          "midi": 63,
          "time": 81.59999999999992,
          "velocity": 0.952755905511811,
          "duration": 0.201666666666668
        },
        {
          "name": "F4",
          "midi": 65,
          "time": 81.79999999999993,
          "velocity": 0.952755905511811,
          "duration": 0.3999999999999915
        },
        {
          "name": "A#4",
          "midi": 70,
          "time": 82.20083333333325,
          "velocity": 0.952755905511811,
          "duration": 0.3991666666666731
        },
        {
          "name": "C5",
          "midi": 72,
          "time": 82.59999999999992,
          "velocity": 0.952755905511811,
          "duration": 0.20000000000000284
        },
        {
          "name": "D#5",
          "midi": 75,
          "time": 82.7991666666666,
          "velocity": 0.952755905511811,
          "duration": 0.20083333333333542
        },
        {
          "name": "D5",
          "midi": 74,
          "time": 82.99999999999993,
          "velocity": 0.952755905511811,
          "duration": 0.201666666666668
        },
        {
          "name": "A#4",
          "midi": 70,
          "time": 83.19999999999993,
          "velocity": 0.952755905511811,
          "duration": 0.39999999999997726
        },
        {
          "name": "D#6",
          "midi": 87,
          "time": 83.19999999999993,
          "velocity": 0.952755905511811,
          "duration": 0.09999999999999432
        },
        {
          "name": "D6",
          "midi": 86,
          "time": 83.29999999999993,
          "velocity": 0.952755905511811,
          "duration": 0.09999999999999432
        },
        {
          "name": "G5",
          "midi": 79,
          "time": 83.39999999999992,
          "velocity": 0.952755905511811,
          "duration": 0.09999999999999432
        },
        {
          "name": "A#5",
          "midi": 82,
          "time": 83.49999999999991,
          "velocity": 0.952755905511811,
          "duration": 0.09999999999999432
        },
        {
          "name": "C6",
          "midi": 84,
          "time": 83.59999999999991,
          "velocity": 0.952755905511811,
          "duration": 0.09999999999999432
        },
        {
          "name": "F5",
          "midi": 77,
          "time": 83.6999999999999,
          "velocity": 0.952755905511811,
          "duration": 0.09999999999999432
        },
        {
          "name": "G5",
          "midi": 79,
          "time": 83.7999999999999,
          "velocity": 0.952755905511811,
          "duration": 0.09999999999999432
        },
        {
          "name": "D#5",
          "midi": 75,
          "time": 83.89999999999989,
          "velocity": 0.952755905511811,
          "duration": 0.09999999999999432
        },
        {
          "name": "D5",
          "midi": 74,
          "time": 83.99999999999989,
          "velocity": 0.952755905511811,
          "duration": 0.09999999999999432
        },
        {
          "name": "G4",
          "midi": 67,
          "time": 84.09999999999988,
          "velocity": 0.952755905511811,
          "duration": 0.09999999999999432
        },
        {
          "name": "A#4",
          "midi": 70,
          "time": 84.19999999999987,
          "velocity": 0.952755905511811,
          "duration": 0.09999999999999432
        },
        {
          "name": "C5",
          "midi": 72,
          "time": 84.29999999999987,
          "velocity": 0.952755905511811,
          "duration": 0.09999999999999432
        },
        {
          "name": "F4",
          "midi": 65,
          "time": 84.39999999999986,
          "velocity": 0.952755905511811,
          "duration": 0.09999999999999432
        },
        {
          "name": "G4",
          "midi": 67,
          "time": 84.49999999999986,
          "velocity": 0.952755905511811,
          "duration": 0.09999999999999432
        },
        {
          "name": "D#4",
          "midi": 63,
          "time": 84.59999999999985,
          "velocity": 0.952755905511811,
          "duration": 0.09999999999999432
        },
        {
          "name": "D4",
          "midi": 62,
          "time": 84.69999999999985,
          "velocity": 0.952755905511811,
          "duration": 0.09999999999999432
        },
        {
          "name": "A#3",
          "midi": 58,
          "time": 84.79999999999984,
          "velocity": 0.952755905511811,
          "duration": 0.09999999999999432
        },
        {
          "name": "G4",
          "midi": 67,
          "time": 84.79999999999984,
          "velocity": 0.952755905511811,
          "duration": 0.29999999999998295
        },
        {
          "name": "D#5",
          "midi": 75,
          "time": 84.79999999999984,
          "velocity": 0.952755905511811,
          "duration": 0.09999999999999432
        },
        {
          "name": "C4",
          "midi": 60,
          "time": 84.89999999999984,
          "velocity": 0.952755905511811,
          "duration": 0.09999999999999432
        },
        {
          "name": "D5",
          "midi": 74,
          "time": 84.89999999999984,
          "velocity": 0.952755905511811,
          "duration": 0.09999999999999432
        },
        {
          "name": "G4",
          "midi": 67,
          "time": 84.99999999999983,
          "velocity": 0.952755905511811,
          "duration": 0.39999999999997726
        },
        {
          "name": "A#4",
          "midi": 70,
          "time": 85.09999999999982,
          "velocity": 0.952755905511811,
          "duration": 0.09999999999999432
        },
        {
          "name": "C5",
          "midi": 72,
          "time": 85.19999999999982,
          "velocity": 0.952755905511811,
          "duration": 0.09999999999999432
        },
        {
          "name": "F4",
          "midi": 65,
          "time": 85.29999999999981,
          "velocity": 0.952755905511811,
          "duration": 0.09999999999999432
        },
        {
          "name": "G4",
          "midi": 67,
          "time": 85.3999999999998,
          "velocity": 0.952755905511811,
          "duration": 0.09999999999999432
        },
        {
          "name": "G5",
          "midi": 79,
          "time": 85.3999999999998,
          "velocity": 0.952755905511811,
          "duration": 0.5999999999999659
        },
        {
          "name": "D#4",
          "midi": 63,
          "time": 85.4999999999998,
          "velocity": 0.952755905511811,
          "duration": 0.09999999999999432
        },
        {
          "name": "D4",
          "midi": 62,
          "time": 85.5999999999998,
          "velocity": 0.952755905511811,
          "duration": 0.09999999999999432
        },
        {
          "name": "A#3",
          "midi": 58,
          "time": 85.69999999999979,
          "velocity": 0.952755905511811,
          "duration": 0.09999999999999432
        },
        {
          "name": "C4",
          "midi": 60,
          "time": 85.79999999999978,
          "velocity": 0.952755905511811,
          "duration": 0.09999999999999432
        },
        {
          "name": "G3",
          "midi": 55,
          "time": 85.99999999999977,
          "velocity": 0.952755905511811,
          "duration": 0.19999999999998863
        },
        {
          "name": "A#-1",
          "midi": 10,
          "time": 86.00166666666644,
          "velocity": 0.8740157480314961,
          "duration": 0.06666666666666288
        },
        {
          "name": "G5",
          "midi": 79,
          "time": 86.19999999999976,
          "velocity": 0.952755905511811,
          "duration": 0.20000000000000284
        }
      ],
      "controlChanges": {},
      "id": 3,
      "name": "piano3",
      "channelNumber": 0,
      "isPercussion": false
    },
    {
      "startTime": 25.6,
      "duration": 86.39749999999908,
      "length": 374,
      "notes": [
        {
          "name": "C7",
          "midi": 96,
          "time": 25.6,
          "velocity": 1,
          "duration": 0.1999999999999993
        },
        {
          "name": "A#6",
          "midi": 94,
          "time": 25.8,
          "velocity": 1,
          "duration": 0.09999999999999787
        },
        {
          "name": "C7",
          "midi": 96,
          "time": 25.898333333333333,
          "velocity": 0.952755905511811,
          "duration": 0.10166666666666302
        },
        {
          "name": "G6",
          "midi": 91,
          "time": 25.99833333333333,
          "velocity": 0.8740157480314961,
          "duration": 0.20166666666666444
        },
        {
          "name": "D#6",
          "midi": 87,
          "time": 26.199999999999996,
          "velocity": 1,
          "duration": 0.10000000000000142
        },
        {
          "name": "G6",
          "midi": 91,
          "time": 26.299999999999997,
          "velocity": 0.8976377952755905,
          "duration": 0.10000000000000142
        },
        {
          "name": "D6",
          "midi": 86,
          "time": 26.4,
          "velocity": 0.8976377952755905,
          "duration": 0.10000000000000142
        },
        {
          "name": "A#5",
          "midi": 82,
          "time": 26.5,
          "velocity": 0.8976377952755905,
          "duration": 0.10000000000000142
        },
        {
          "name": "G5",
          "midi": 79,
          "time": 26.6,
          "velocity": 0.8976377952755905,
          "duration": 0.10000000000000142
        },
        {
          "name": "D#5",
          "midi": 75,
          "time": 26.700000000000003,
          "velocity": 0.8976377952755905,
          "duration": 0.10000000000000142
        },
        {
          "name": "D5",
          "midi": 74,
          "time": 26.800000000000004,
          "velocity": 0.8976377952755905,
          "duration": 0.10000000000000142
        },
        {
          "name": "A#4",
          "midi": 70,
          "time": 26.900000000000006,
          "velocity": 0.8976377952755905,
          "duration": 0.10000000000000142
        },
        {
          "name": "G4",
          "midi": 67,
          "time": 27.000000000000007,
          "velocity": 0.8976377952755905,
          "duration": 0.10000000000000142
        },
        {
          "name": "D#4",
          "midi": 63,
          "time": 27.10000000000001,
          "velocity": 0.8976377952755905,
          "duration": 0.10000000000000142
        },
        {
          "name": "D4",
          "midi": 62,
          "time": 27.20000000000001,
          "velocity": 0.8976377952755905,
          "duration": 0.10000000000000142
        },
        {
          "name": "A#3",
          "midi": 58,
          "time": 27.30000000000001,
          "velocity": 0.8976377952755905,
          "duration": 0.10000000000000142
        },
        {
          "name": "G3",
          "midi": 55,
          "time": 27.400000000000013,
          "velocity": 0.8976377952755905,
          "duration": 0.10000000000000142
        },
        {
          "name": "D#3",
          "midi": 51,
          "time": 27.500000000000014,
          "velocity": 0.8976377952755905,
          "duration": 0.10000000000000142
        },
        {
          "name": "D3",
          "midi": 50,
          "time": 27.600000000000016,
          "velocity": 0.8976377952755905,
          "duration": 0.10000000000000142
        },
        {
          "name": "A#2",
          "midi": 46,
          "time": 27.700000000000017,
          "velocity": 0.8976377952755905,
          "duration": 0.10000000000000142
        },
        {
          "name": "G2",
          "midi": 43,
          "time": 27.80000000000002,
          "velocity": 0.8976377952755905,
          "duration": 0.10000000000000142
        },
        {
          "name": "A#2",
          "midi": 46,
          "time": 27.90000000000002,
          "velocity": 0.8976377952755905,
          "duration": 0.10000000000000142
        },
        {
          "name": "D3",
          "midi": 50,
          "time": 28.00000000000002,
          "velocity": 0.8976377952755905,
          "duration": 0.10000000000000142
        },
        {
          "name": "D#3",
          "midi": 51,
          "time": 28.100000000000023,
          "velocity": 0.8976377952755905,
          "duration": 0.10000000000000142
        },
        {
          "name": "G3",
          "midi": 55,
          "time": 28.200000000000024,
          "velocity": 0.8976377952755905,
          "duration": 0.10000000000000142
        },
        {
          "name": "A#3",
          "midi": 58,
          "time": 28.300000000000026,
          "velocity": 0.8976377952755905,
          "duration": 0.10000000000000142
        },
        {
          "name": "D4",
          "midi": 62,
          "time": 28.400000000000027,
          "velocity": 0.8976377952755905,
          "duration": 0.10000000000000142
        },
        {
          "name": "D#4",
          "midi": 63,
          "time": 28.50000000000003,
          "velocity": 0.8976377952755905,
          "duration": 0.10000000000000142
        },
        {
          "name": "G4",
          "midi": 67,
          "time": 28.60000000000003,
          "velocity": 0.8976377952755905,
          "duration": 0.10000000000000142
        },
        {
          "name": "A#4",
          "midi": 70,
          "time": 28.70000000000003,
          "velocity": 0.8976377952755905,
          "duration": 0.10000000000000142
        },
        {
          "name": "C5",
          "midi": 72,
          "time": 28.800000000000033,
          "velocity": 0.8976377952755905,
          "duration": 0.10000000000000142
        },
        {
          "name": "G6",
          "midi": 91,
          "time": 41.60000000000004,
          "velocity": 1,
          "duration": 0.20000000000000284
        },
        {
          "name": "G#5",
          "midi": 80,
          "time": 41.80000000000004,
          "velocity": 0.8976377952755905,
          "duration": 0.19999999999999574
        },
        {
          "name": "C6",
          "midi": 84,
          "time": 41.99750000000004,
          "velocity": 0.9763779527559056,
          "duration": 0.20250000000000057
        },
        {
          "name": "G#5",
          "midi": 80,
          "time": 42.20500000000004,
          "velocity": 0.889763779527559,
          "duration": 0.20666666666666345
        },
        {
          "name": "G6",
          "midi": 91,
          "time": 42.40000000000004,
          "velocity": 1,
          "duration": 0.19999999999999574
        },
        {
          "name": "G#5",
          "midi": 80,
          "time": 42.60000000000004,
          "velocity": 0.8976377952755905,
          "duration": 0.19999999999999574
        },
        {
          "name": "C6",
          "midi": 84,
          "time": 42.797500000000035,
          "velocity": 0.9763779527559056,
          "duration": 0.20250000000000057
        },
        {
          "name": "G#5",
          "midi": 80,
          "time": 43.00500000000004,
          "velocity": 0.889763779527559,
          "duration": 0.20666666666666345
        },
        {
          "name": "F6",
          "midi": 89,
          "time": 43.20000000000004,
          "velocity": 1,
          "duration": 0.19999999999999574
        },
        {
          "name": "G#5",
          "midi": 80,
          "time": 43.400000000000034,
          "velocity": 0.8976377952755905,
          "duration": 0.19999999999999574
        },
        {
          "name": "C6",
          "midi": 84,
          "time": 43.59750000000003,
          "velocity": 0.9763779527559056,
          "duration": 0.20250000000000057
        },
        {
          "name": "G#5",
          "midi": 80,
          "time": 43.805000000000035,
          "velocity": 0.889763779527559,
          "duration": 0.20666666666666345
        },
        {
          "name": "F6",
          "midi": 89,
          "time": 44.000000000000036,
          "velocity": 1,
          "duration": 0.19999999999999574
        },
        {
          "name": "G#5",
          "midi": 80,
          "time": 44.20000000000003,
          "velocity": 0.8976377952755905,
          "duration": 0.19999999999999574
        },
        {
          "name": "C6",
          "midi": 84,
          "time": 44.39750000000003,
          "velocity": 0.9763779527559056,
          "duration": 0.20250000000000057
        },
        {
          "name": "G#5",
          "midi": 80,
          "time": 44.60500000000003,
          "velocity": 0.889763779527559,
          "duration": 0.20666666666666345
        },
        {
          "name": "A#6",
          "midi": 94,
          "time": 44.80000000000003,
          "velocity": 1,
          "duration": 0.19999999999999574
        },
        {
          "name": "D6",
          "midi": 86,
          "time": 45.00000000000003,
          "velocity": 0.8976377952755905,
          "duration": 0.19999999999999574
        },
        {
          "name": "D#6",
          "midi": 87,
          "time": 45.197500000000026,
          "velocity": 0.9763779527559056,
          "duration": 0.20250000000000057
        },
        {
          "name": "D6",
          "midi": 86,
          "time": 45.40500000000003,
          "velocity": 0.889763779527559,
          "duration": 0.20666666666666345
        },
        {
          "name": "A#6",
          "midi": 94,
          "time": 45.60000000000003,
          "velocity": 1,
          "duration": 0.19999999999999574
        },
        {
          "name": "D6",
          "midi": 86,
          "time": 45.800000000000026,
          "velocity": 0.8976377952755905,
          "duration": 0.19999999999999574
        },
        {
          "name": "D#6",
          "midi": 87,
          "time": 45.997500000000024,
          "velocity": 0.9763779527559056,
          "duration": 0.20250000000000057
        },
        {
          "name": "D6",
          "midi": 86,
          "time": 46.20500000000003,
          "velocity": 0.889763779527559,
          "duration": 0.20666666666666345
        },
        {
          "name": "G6",
          "midi": 91,
          "time": 46.40000000000003,
          "velocity": 1,
          "duration": 0.19999999999999574
        },
        {
          "name": "C6",
          "midi": 84,
          "time": 46.60000000000002,
          "velocity": 0.8976377952755905,
          "duration": 0.19999999999999574
        },
        {
          "name": "D6",
          "midi": 86,
          "time": 46.79750000000002,
          "velocity": 0.9763779527559056,
          "duration": 0.20250000000000057
        },
        {
          "name": "D#6",
          "midi": 87,
          "time": 47.005000000000024,
          "velocity": 0.889763779527559,
          "duration": 0.20666666666666345
        },
        {
          "name": "G6",
          "midi": 91,
          "time": 47.200000000000024,
          "velocity": 1,
          "duration": 0.19999999999999574
        },
        {
          "name": "C6",
          "midi": 84,
          "time": 47.40000000000002,
          "velocity": 0.8976377952755905,
          "duration": 0.19999999999999574
        },
        {
          "name": "D6",
          "midi": 86,
          "time": 47.59750000000002,
          "velocity": 0.9763779527559056,
          "duration": 0.20250000000000057
        },
        {
          "name": "D#6",
          "midi": 87,
          "time": 47.80500000000002,
          "velocity": 0.889763779527559,
          "duration": 0.20666666666666345
        },
        {
          "name": "G6",
          "midi": 91,
          "time": 48.00000000000002,
          "velocity": 1,
          "duration": 0.19999999999999574
        },
        {
          "name": "G#5",
          "midi": 80,
          "time": 48.20000000000002,
          "velocity": 0.8976377952755905,
          "duration": 0.19999999999999574
        },
        {
          "name": "C6",
          "midi": 84,
          "time": 48.397500000000015,
          "velocity": 0.9763779527559056,
          "duration": 0.20250000000000057
        },
        {
          "name": "G#5",
          "midi": 80,
          "time": 48.60500000000002,
          "velocity": 0.889763779527559,
          "duration": 0.20666666666666345
        },
        {
          "name": "G6",
          "midi": 91,
          "time": 48.80000000000002,
          "velocity": 1,
          "duration": 0.19999999999999574
        },
        {
          "name": "G#5",
          "midi": 80,
          "time": 49.000000000000014,
          "velocity": 0.8976377952755905,
          "duration": 0.19999999999999574
        },
        {
          "name": "C6",
          "midi": 84,
          "time": 49.19750000000001,
          "velocity": 0.9763779527559056,
          "duration": 0.20250000000000057
        },
        {
          "name": "G#5",
          "midi": 80,
          "time": 49.405000000000015,
          "velocity": 0.889763779527559,
          "duration": 0.20666666666666345
        },
        {
          "name": "F6",
          "midi": 89,
          "time": 49.600000000000016,
          "velocity": 1,
          "duration": 0.19999999999999574
        },
        {
          "name": "G#5",
          "midi": 80,
          "time": 49.80000000000001,
          "velocity": 0.8976377952755905,
          "duration": 0.19999999999999574
        },
        {
          "name": "C6",
          "midi": 84,
          "time": 49.99750000000001,
          "velocity": 0.9763779527559056,
          "duration": 0.20250000000000057
        },
        {
          "name": "G#5",
          "midi": 80,
          "time": 50.20500000000001,
          "velocity": 0.889763779527559,
          "duration": 0.20666666666666345
        },
        {
          "name": "F6",
          "midi": 89,
          "time": 50.40000000000001,
          "velocity": 1,
          "duration": 0.19999999999999574
        },
        {
          "name": "G#5",
          "midi": 80,
          "time": 50.60000000000001,
          "velocity": 0.8976377952755905,
          "duration": 0.19999999999999574
        },
        {
          "name": "C6",
          "midi": 84,
          "time": 50.79750000000001,
          "velocity": 0.9763779527559056,
          "duration": 0.20250000000000057
        },
        {
          "name": "G#5",
          "midi": 80,
          "time": 51.00500000000001,
          "velocity": 0.889763779527559,
          "duration": 0.20666666666666345
        },
        {
          "name": "F6",
          "midi": 89,
          "time": 51.20000000000001,
          "velocity": 1,
          "duration": 0.19999999999999574
        },
        {
          "name": "A#5",
          "midi": 82,
          "time": 51.400000000000006,
          "velocity": 0.8976377952755905,
          "duration": 0.19999999999999574
        },
        {
          "name": "C6",
          "midi": 84,
          "time": 51.597500000000004,
          "velocity": 0.9763779527559056,
          "duration": 0.20250000000000057
        },
        {
          "name": "D#6",
          "midi": 87,
          "time": 51.80500000000001,
          "velocity": 0.889763779527559,
          "duration": 0.20666666666666345
        },
        {
          "name": "F6",
          "midi": 89,
          "time": 52.00000000000001,
          "velocity": 1,
          "duration": 0.19999999999999574
        },
        {
          "name": "A#5",
          "midi": 82,
          "time": 52.2,
          "velocity": 0.8976377952755905,
          "duration": 0.19999999999999574
        },
        {
          "name": "C6",
          "midi": 84,
          "time": 52.3975,
          "velocity": 0.9763779527559056,
          "duration": 0.20250000000000057
        },
        {
          "name": "D#6",
          "midi": 87,
          "time": 52.605000000000004,
          "velocity": 0.889763779527559,
          "duration": 0.20666666666666345
        },
        {
          "name": "D6",
          "midi": 86,
          "time": 52.800000000000004,
          "velocity": 0.889763779527559,
          "duration": 0.20749999999999602
        },
        {
          "name": "F6",
          "midi": 89,
          "time": 52.800000000000004,
          "velocity": 1,
          "duration": 0.19999999999999574
        },
        {
          "name": "A#5",
          "midi": 82,
          "time": 53,
          "velocity": 0.8976377952755905,
          "duration": 0.19999999999999574
        },
        {
          "name": "C6",
          "midi": 84,
          "time": 53.1975,
          "velocity": 0.9763779527559056,
          "duration": 0.20250000000000057
        },
        {
          "name": "D#6",
          "midi": 87,
          "time": 53.405,
          "velocity": 0.889763779527559,
          "duration": 0.20666666666666345
        },
        {
          "name": "F6",
          "midi": 89,
          "time": 53.6,
          "velocity": 1,
          "duration": 0.19999999999999574
        },
        {
          "name": "A#6",
          "midi": 94,
          "time": 53.6,
          "velocity": 1,
          "duration": 0.19999999999999574
        },
        {
          "name": "A#5",
          "midi": 82,
          "time": 53.8,
          "velocity": 0.8976377952755905,
          "duration": 0.19999999999999574
        },
        {
          "name": "D6",
          "midi": 86,
          "time": 53.997499999999995,
          "velocity": 0.9763779527559056,
          "duration": 0.20250000000000057
        },
        {
          "name": "F6",
          "midi": 89,
          "time": 54.205,
          "velocity": 0.889763779527559,
          "duration": 0.20666666666666345
        },
        {
          "name": "G5",
          "midi": 79,
          "time": 54.4,
          "velocity": 1,
          "duration": 0.19999999999999574
        },
        {
          "name": "F5",
          "midi": 77,
          "time": 54.8,
          "velocity": 1,
          "duration": 0.29999999999999716
        },
        {
          "name": "F5",
          "midi": 77,
          "time": 55.099999999999994,
          "velocity": 1,
          "duration": 0.10000000000000142
        },
        {
          "name": "D5",
          "midi": 74,
          "time": 55.199999999999996,
          "velocity": 1,
          "duration": 0.29999999999999716
        },
        {
          "name": "D5",
          "midi": 74,
          "time": 55.49999999999999,
          "velocity": 1,
          "duration": 0.10000000000000142
        },
        {
          "name": "G3",
          "midi": 55,
          "time": 57.599999999999994,
          "velocity": 0.6614173228346457,
          "duration": 0.3999999999999986
        },
        {
          "name": "G3",
          "midi": 55,
          "time": 57.599999999999994,
          "velocity": 0.6614173228346457,
          "duration": 0.3999999999999986
        },
        {
          "name": "D5",
          "midi": 74,
          "time": 57.599999999999994,
          "velocity": 1,
          "duration": 0.3999999999999986
        },
        {
          "name": "D5",
          "midi": 74,
          "time": 57.599999999999994,
          "velocity": 1,
          "duration": 0.3999999999999986
        },
        {
          "name": "D3",
          "midi": 50,
          "time": 57.99999999999999,
          "velocity": 0.7480314960629921,
          "duration": 0.20000000000000284
        },
        {
          "name": "G3",
          "midi": 55,
          "time": 58.199999999999996,
          "velocity": 0.7559055118110236,
          "duration": 0.20000000000000284
        },
        {
          "name": "A3",
          "midi": 57,
          "time": 58.4,
          "velocity": 0.937007874015748,
          "duration": 0.20000000000000284
        },
        {
          "name": "C4",
          "midi": 60,
          "time": 58.6,
          "velocity": 0.9291338582677166,
          "duration": 0.20000000000000284
        },
        {
          "name": "D4",
          "midi": 62,
          "time": 58.800000000000004,
          "velocity": 1,
          "duration": 0.20000000000000284
        },
        {
          "name": "G4",
          "midi": 67,
          "time": 58.800000000000004,
          "velocity": 0.8110236220472441,
          "duration": 0.20000000000000284
        },
        {
          "name": "A3",
          "midi": 57,
          "time": 59.00000000000001,
          "velocity": 0.8740157480314961,
          "duration": 0.20000000000000284
        },
        {
          "name": "A4",
          "midi": 69,
          "time": 59.00000000000001,
          "velocity": 0.8110236220472441,
          "duration": 0.20000000000000284
        },
        {
          "name": "G5",
          "midi": 79,
          "time": 59.00000000000001,
          "velocity": 0.8110236220472441,
          "duration": 0.20000000000000284
        },
        {
          "name": "B3",
          "midi": 59,
          "time": 59.20000000000001,
          "velocity": 0.8110236220472441,
          "duration": 0.7999999999999972
        },
        {
          "name": "B4",
          "midi": 71,
          "time": 59.20000000000001,
          "velocity": 0.8110236220472441,
          "duration": 0.7999999999999972
        },
        {
          "name": "D5",
          "midi": 74,
          "time": 59.20000000000001,
          "velocity": 0.8110236220472441,
          "duration": 0.7999999999999972
        },
        {
          "name": "D#7",
          "midi": 99,
          "time": 60.800000000000004,
          "velocity": 0.9763779527559056,
          "duration": 0.09749999999999659
        },
        {
          "name": "D7",
          "midi": 98,
          "time": 60.8975,
          "velocity": 0.9763779527559056,
          "duration": 0.09666666666666401
        },
        {
          "name": "C7",
          "midi": 96,
          "time": 61,
          "velocity": 0.937007874015748,
          "duration": 0.09749999999999659
        },
        {
          "name": "G6",
          "midi": 91,
          "time": 61.0975,
          "velocity": 0.889763779527559,
          "duration": 0.10249999999999915
        },
        {
          "name": "F6",
          "midi": 89,
          "time": 61.199999999999996,
          "velocity": 0.889763779527559,
          "duration": 0.10000000000000142
        },
        {
          "name": "D#6",
          "midi": 87,
          "time": 61.3,
          "velocity": 0.952755905511811,
          "duration": 0.10000000000000142
        },
        {
          "name": "D6",
          "midi": 86,
          "time": 61.4,
          "velocity": 0.8661417322834646,
          "duration": 0.09749999999999659
        },
        {
          "name": "A#5",
          "midi": 82,
          "time": 61.49999999999999,
          "velocity": 0.8503937007874016,
          "duration": 0.09416666666666629
        },
        {
          "name": "C6",
          "midi": 84,
          "time": 61.59416666666666,
          "velocity": 0.8661417322834646,
          "duration": 0.09749999999999659
        },
        {
          "name": "G5",
          "midi": 79,
          "time": 61.69999999999999,
          "velocity": 0.937007874015748,
          "duration": 0.10000000000000142
        },
        {
          "name": "F5",
          "midi": 77,
          "time": 61.79999999999999,
          "velocity": 0.937007874015748,
          "duration": 0.09749999999999659
        },
        {
          "name": "D#5",
          "midi": 75,
          "time": 61.899999999999984,
          "velocity": 0.937007874015748,
          "duration": 0.10000000000000142
        },
        {
          "name": "F5",
          "midi": 77,
          "time": 61.999999999999986,
          "velocity": 0.937007874015748,
          "duration": 0.09999999999999432
        },
        {
          "name": "D#5",
          "midi": 75,
          "time": 62.09749999999998,
          "velocity": 0.8582677165354331,
          "duration": 0.09666666666666401
        },
        {
          "name": "D5",
          "midi": 74,
          "time": 62.19999999999998,
          "velocity": 0.8582677165354331,
          "duration": 0.10000000000000142
        },
        {
          "name": "A#4",
          "midi": 70,
          "time": 62.29999999999998,
          "velocity": 0.8582677165354331,
          "duration": 0.09749999999999659
        },
        {
          "name": "D#7",
          "midi": 99,
          "time": 62.39999999999998,
          "velocity": 0.9763779527559056,
          "duration": 0.09749999999999659
        },
        {
          "name": "D7",
          "midi": 98,
          "time": 62.497499999999974,
          "velocity": 0.9763779527559056,
          "duration": 0.09666666666666401
        },
        {
          "name": "C7",
          "midi": 96,
          "time": 62.59999999999997,
          "velocity": 0.937007874015748,
          "duration": 0.09749999999999659
        },
        {
          "name": "G6",
          "midi": 91,
          "time": 62.69749999999997,
          "velocity": 0.889763779527559,
          "duration": 0.10249999999999915
        },
        {
          "name": "F6",
          "midi": 89,
          "time": 62.79999999999997,
          "velocity": 0.889763779527559,
          "duration": 0.10000000000000142
        },
        {
          "name": "D#6",
          "midi": 87,
          "time": 62.89999999999997,
          "velocity": 0.952755905511811,
          "duration": 0.10000000000000142
        },
        {
          "name": "D6",
          "midi": 86,
          "time": 62.99999999999997,
          "velocity": 0.8661417322834646,
          "duration": 0.09749999999999659
        },
        {
          "name": "A#5",
          "midi": 82,
          "time": 63.099999999999966,
          "velocity": 0.8503937007874016,
          "duration": 0.09416666666666629
        },
        {
          "name": "C6",
          "midi": 84,
          "time": 63.19416666666663,
          "velocity": 0.8661417322834646,
          "duration": 0.09749999999999659
        },
        {
          "name": "G5",
          "midi": 79,
          "time": 63.29999999999996,
          "velocity": 0.937007874015748,
          "duration": 0.10000000000000142
        },
        {
          "name": "F5",
          "midi": 77,
          "time": 63.39999999999996,
          "velocity": 0.937007874015748,
          "duration": 0.09749999999999659
        },
        {
          "name": "D#5",
          "midi": 75,
          "time": 63.49999999999996,
          "velocity": 0.937007874015748,
          "duration": 0.10000000000000142
        },
        {
          "name": "F5",
          "midi": 77,
          "time": 63.59999999999996,
          "velocity": 0.937007874015748,
          "duration": 0.09999999999999432
        },
        {
          "name": "D#5",
          "midi": 75,
          "time": 63.697499999999955,
          "velocity": 0.8582677165354331,
          "duration": 0.09666666666666401
        },
        {
          "name": "D5",
          "midi": 74,
          "time": 63.799999999999955,
          "velocity": 0.8582677165354331,
          "duration": 0.10000000000000142
        },
        {
          "name": "A#4",
          "midi": 70,
          "time": 63.899999999999956,
          "velocity": 0.8582677165354331,
          "duration": 0.09749999999999659
        },
        {
          "name": "D#7",
          "midi": 99,
          "time": 63.99999999999995,
          "velocity": 0.9763779527559056,
          "duration": 0.0975000000000037
        },
        {
          "name": "D7",
          "midi": 98,
          "time": 64.09749999999995,
          "velocity": 0.9763779527559056,
          "duration": 0.09666666666666401
        },
        {
          "name": "C7",
          "midi": 96,
          "time": 64.19999999999995,
          "velocity": 0.937007874015748,
          "duration": 0.09749999999999659
        },
        {
          "name": "G6",
          "midi": 91,
          "time": 64.29749999999994,
          "velocity": 0.889763779527559,
          "duration": 0.10250000000000625
        },
        {
          "name": "F6",
          "midi": 89,
          "time": 64.39999999999995,
          "velocity": 0.889763779527559,
          "duration": 0.09999999999999432
        },
        {
          "name": "D#6",
          "midi": 87,
          "time": 64.49999999999994,
          "velocity": 0.952755905511811,
          "duration": 0.09999999999999432
        },
        {
          "name": "D6",
          "midi": 86,
          "time": 64.59999999999994,
          "velocity": 0.8661417322834646,
          "duration": 0.09749999999999659
        },
        {
          "name": "A#5",
          "midi": 82,
          "time": 64.69999999999993,
          "velocity": 0.8503937007874016,
          "duration": 0.09416666666666629
        },
        {
          "name": "C6",
          "midi": 84,
          "time": 64.7941666666666,
          "velocity": 0.8661417322834646,
          "duration": 0.09749999999999659
        },
        {
          "name": "G5",
          "midi": 79,
          "time": 64.89999999999993,
          "velocity": 0.937007874015748,
          "duration": 0.09999999999999432
        },
        {
          "name": "F5",
          "midi": 77,
          "time": 64.99999999999993,
          "velocity": 0.937007874015748,
          "duration": 0.09749999999999659
        },
        {
          "name": "D#5",
          "midi": 75,
          "time": 65.09999999999992,
          "velocity": 0.937007874015748,
          "duration": 0.09999999999999432
        },
        {
          "name": "F5",
          "midi": 77,
          "time": 65.19999999999992,
          "velocity": 0.937007874015748,
          "duration": 0.09999999999999432
        },
        {
          "name": "D#5",
          "midi": 75,
          "time": 65.29749999999991,
          "velocity": 0.8582677165354331,
          "duration": 0.09666666666666401
        },
        {
          "name": "D5",
          "midi": 74,
          "time": 65.3999999999999,
          "velocity": 0.8582677165354331,
          "duration": 0.09999999999999432
        },
        {
          "name": "A#4",
          "midi": 70,
          "time": 65.4999999999999,
          "velocity": 0.8582677165354331,
          "duration": 0.09749999999999659
        },
        {
          "name": "D#7",
          "midi": 99,
          "time": 65.5999999999999,
          "velocity": 0.9763779527559056,
          "duration": 0.09749999999999659
        },
        {
          "name": "D7",
          "midi": 98,
          "time": 65.69749999999989,
          "velocity": 0.9763779527559056,
          "duration": 0.09666666666666401
        },
        {
          "name": "C7",
          "midi": 96,
          "time": 65.79999999999988,
          "velocity": 0.937007874015748,
          "duration": 0.09749999999999659
        },
        {
          "name": "G6",
          "midi": 91,
          "time": 65.89749999999988,
          "velocity": 0.889763779527559,
          "duration": 0.10250000000000625
        },
        {
          "name": "F6",
          "midi": 89,
          "time": 65.99999999999989,
          "velocity": 0.889763779527559,
          "duration": 0.09999999999999432
        },
        {
          "name": "D#6",
          "midi": 87,
          "time": 66.09999999999988,
          "velocity": 0.952755905511811,
          "duration": 0.09999999999999432
        },
        {
          "name": "D6",
          "midi": 86,
          "time": 66.19999999999987,
          "velocity": 0.8661417322834646,
          "duration": 0.09749999999999659
        },
        {
          "name": "A#5",
          "midi": 82,
          "time": 66.29999999999987,
          "velocity": 0.8503937007874016,
          "duration": 0.09416666666666629
        },
        {
          "name": "C6",
          "midi": 84,
          "time": 66.39416666666654,
          "velocity": 0.8661417322834646,
          "duration": 0.09749999999999659
        },
        {
          "name": "G5",
          "midi": 79,
          "time": 66.49999999999987,
          "velocity": 0.937007874015748,
          "duration": 0.09999999999999432
        },
        {
          "name": "F5",
          "midi": 77,
          "time": 66.59999999999987,
          "velocity": 0.937007874015748,
          "duration": 0.09749999999999659
        },
        {
          "name": "D#5",
          "midi": 75,
          "time": 66.69999999999986,
          "velocity": 0.937007874015748,
          "duration": 0.09999999999999432
        },
        {
          "name": "F5",
          "midi": 77,
          "time": 66.79999999999986,
          "velocity": 0.937007874015748,
          "duration": 0.09999999999999432
        },
        {
          "name": "D#5",
          "midi": 75,
          "time": 66.89749999999985,
          "velocity": 0.8582677165354331,
          "duration": 0.09666666666666401
        },
        {
          "name": "D5",
          "midi": 74,
          "time": 66.99999999999984,
          "velocity": 0.8582677165354331,
          "duration": 0.09999999999999432
        },
        {
          "name": "A#4",
          "midi": 70,
          "time": 67.09999999999984,
          "velocity": 0.8582677165354331,
          "duration": 0.09749999999999659
        },
        {
          "name": "D#7",
          "midi": 99,
          "time": 67.19999999999983,
          "velocity": 0.9763779527559056,
          "duration": 0.09749999999999659
        },
        {
          "name": "D7",
          "midi": 98,
          "time": 67.29749999999983,
          "velocity": 0.9763779527559056,
          "duration": 0.09666666666666401
        },
        {
          "name": "C7",
          "midi": 96,
          "time": 67.39999999999982,
          "velocity": 0.937007874015748,
          "duration": 0.09749999999999659
        },
        {
          "name": "G6",
          "midi": 91,
          "time": 67.49749999999982,
          "velocity": 0.889763779527559,
          "duration": 0.10250000000000625
        },
        {
          "name": "F6",
          "midi": 89,
          "time": 67.59999999999982,
          "velocity": 0.889763779527559,
          "duration": 0.09999999999999432
        },
        {
          "name": "D#6",
          "midi": 87,
          "time": 67.69999999999982,
          "velocity": 0.952755905511811,
          "duration": 0.09999999999999432
        },
        {
          "name": "D6",
          "midi": 86,
          "time": 67.79999999999981,
          "velocity": 0.8661417322834646,
          "duration": 0.09749999999999659
        },
        {
          "name": "A#5",
          "midi": 82,
          "time": 67.8999999999998,
          "velocity": 0.8503937007874016,
          "duration": 0.09416666666666629
        },
        {
          "name": "C6",
          "midi": 84,
          "time": 67.99416666666647,
          "velocity": 0.8661417322834646,
          "duration": 0.09749999999999659
        },
        {
          "name": "G5",
          "midi": 79,
          "time": 68.09999999999981,
          "velocity": 0.937007874015748,
          "duration": 0.09999999999999432
        },
        {
          "name": "F5",
          "midi": 77,
          "time": 68.1999999999998,
          "velocity": 0.937007874015748,
          "duration": 0.09749999999999659
        },
        {
          "name": "D#5",
          "midi": 75,
          "time": 68.2999999999998,
          "velocity": 0.937007874015748,
          "duration": 0.09999999999999432
        },
        {
          "name": "F5",
          "midi": 77,
          "time": 68.39999999999979,
          "velocity": 0.937007874015748,
          "duration": 0.09999999999999432
        },
        {
          "name": "D#5",
          "midi": 75,
          "time": 68.49749999999979,
          "velocity": 0.8582677165354331,
          "duration": 0.09666666666666401
        },
        {
          "name": "D5",
          "midi": 74,
          "time": 68.59999999999978,
          "velocity": 0.8582677165354331,
          "duration": 0.09999999999999432
        },
        {
          "name": "A#4",
          "midi": 70,
          "time": 68.69999999999978,
          "velocity": 0.8582677165354331,
          "duration": 0.09749999999999659
        },
        {
          "name": "D#7",
          "midi": 99,
          "time": 68.79999999999977,
          "velocity": 0.9763779527559056,
          "duration": 0.09749999999999659
        },
        {
          "name": "D7",
          "midi": 98,
          "time": 68.89749999999977,
          "velocity": 0.9763779527559056,
          "duration": 0.09666666666666401
        },
        {
          "name": "C7",
          "midi": 96,
          "time": 68.99999999999976,
          "velocity": 0.937007874015748,
          "duration": 0.09749999999999659
        },
        {
          "name": "G6",
          "midi": 91,
          "time": 69.09749999999976,
          "velocity": 0.889763779527559,
          "duration": 0.10250000000000625
        },
        {
          "name": "F6",
          "midi": 89,
          "time": 69.19999999999976,
          "velocity": 0.889763779527559,
          "duration": 0.09999999999999432
        },
        {
          "name": "D#6",
          "midi": 87,
          "time": 69.29999999999976,
          "velocity": 0.952755905511811,
          "duration": 0.09999999999999432
        },
        {
          "name": "D6",
          "midi": 86,
          "time": 69.39999999999975,
          "velocity": 0.8661417322834646,
          "duration": 0.09749999999999659
        },
        {
          "name": "A#5",
          "midi": 82,
          "time": 69.49999999999974,
          "velocity": 0.8503937007874016,
          "duration": 0.09416666666666629
        },
        {
          "name": "C6",
          "midi": 84,
          "time": 69.59416666666641,
          "velocity": 0.8661417322834646,
          "duration": 0.09749999999999659
        },
        {
          "name": "G5",
          "midi": 79,
          "time": 69.69999999999975,
          "velocity": 0.937007874015748,
          "duration": 0.09999999999999432
        },
        {
          "name": "F5",
          "midi": 77,
          "time": 69.79999999999974,
          "velocity": 0.937007874015748,
          "duration": 0.09749999999999659
        },
        {
          "name": "D#5",
          "midi": 75,
          "time": 69.89999999999974,
          "velocity": 0.937007874015748,
          "duration": 0.09999999999999432
        },
        {
          "name": "F5",
          "midi": 77,
          "time": 69.99999999999973,
          "velocity": 0.937007874015748,
          "duration": 0.09999999999999432
        },
        {
          "name": "D#5",
          "midi": 75,
          "time": 70.09749999999973,
          "velocity": 0.8582677165354331,
          "duration": 0.09666666666666401
        },
        {
          "name": "D5",
          "midi": 74,
          "time": 70.19999999999972,
          "velocity": 0.8582677165354331,
          "duration": 0.09999999999999432
        },
        {
          "name": "A#4",
          "midi": 70,
          "time": 70.29999999999971,
          "velocity": 0.8582677165354331,
          "duration": 0.09749999999999659
        },
        {
          "name": "D#7",
          "midi": 99,
          "time": 70.39999999999971,
          "velocity": 0.9763779527559056,
          "duration": 0.09749999999999659
        },
        {
          "name": "D7",
          "midi": 98,
          "time": 70.4974999999997,
          "velocity": 0.9763779527559056,
          "duration": 0.09666666666666401
        },
        {
          "name": "C7",
          "midi": 96,
          "time": 70.5999999999997,
          "velocity": 0.937007874015748,
          "duration": 0.09749999999999659
        },
        {
          "name": "G6",
          "midi": 91,
          "time": 70.69749999999969,
          "velocity": 0.889763779527559,
          "duration": 0.10250000000000625
        },
        {
          "name": "F6",
          "midi": 89,
          "time": 70.7999999999997,
          "velocity": 0.889763779527559,
          "duration": 0.09999999999999432
        },
        {
          "name": "D#6",
          "midi": 87,
          "time": 70.8999999999997,
          "velocity": 0.952755905511811,
          "duration": 0.09999999999999432
        },
        {
          "name": "D6",
          "midi": 86,
          "time": 70.99999999999969,
          "velocity": 0.8661417322834646,
          "duration": 0.09749999999999659
        },
        {
          "name": "A#5",
          "midi": 82,
          "time": 71.09999999999968,
          "velocity": 0.8503937007874016,
          "duration": 0.09416666666666629
        },
        {
          "name": "C6",
          "midi": 84,
          "time": 71.19416666666635,
          "velocity": 0.8661417322834646,
          "duration": 0.09749999999999659
        },
        {
          "name": "G5",
          "midi": 79,
          "time": 71.29999999999968,
          "velocity": 0.937007874015748,
          "duration": 0.09999999999999432
        },
        {
          "name": "F5",
          "midi": 77,
          "time": 71.39999999999968,
          "velocity": 0.937007874015748,
          "duration": 0.09749999999999659
        },
        {
          "name": "D#5",
          "midi": 75,
          "time": 71.49999999999967,
          "velocity": 0.937007874015748,
          "duration": 0.09999999999999432
        },
        {
          "name": "F5",
          "midi": 77,
          "time": 71.59999999999967,
          "velocity": 0.937007874015748,
          "duration": 0.09999999999999432
        },
        {
          "name": "D#5",
          "midi": 75,
          "time": 71.69749999999966,
          "velocity": 0.8582677165354331,
          "duration": 0.09666666666666401
        },
        {
          "name": "D5",
          "midi": 74,
          "time": 71.79999999999966,
          "velocity": 0.8582677165354331,
          "duration": 0.09999999999999432
        },
        {
          "name": "A#4",
          "midi": 70,
          "time": 71.89999999999965,
          "velocity": 0.8582677165354331,
          "duration": 0.09749999999999659
        },
        {
          "name": "D#7",
          "midi": 99,
          "time": 71.99999999999964,
          "velocity": 0.9763779527559056,
          "duration": 0.09749999999999659
        },
        {
          "name": "D7",
          "midi": 98,
          "time": 72.09749999999964,
          "velocity": 0.9763779527559056,
          "duration": 0.09666666666666401
        },
        {
          "name": "C7",
          "midi": 96,
          "time": 72.19999999999963,
          "velocity": 0.937007874015748,
          "duration": 0.09749999999999659
        },
        {
          "name": "G6",
          "midi": 91,
          "time": 72.29749999999963,
          "velocity": 0.889763779527559,
          "duration": 0.10250000000000625
        },
        {
          "name": "F6",
          "midi": 89,
          "time": 72.39999999999964,
          "velocity": 0.889763779527559,
          "duration": 0.09999999999999432
        },
        {
          "name": "D#6",
          "midi": 87,
          "time": 72.49999999999963,
          "velocity": 0.952755905511811,
          "duration": 0.09999999999999432
        },
        {
          "name": "D6",
          "midi": 86,
          "time": 72.59999999999962,
          "velocity": 0.8661417322834646,
          "duration": 0.09749999999999659
        },
        {
          "name": "A#5",
          "midi": 82,
          "time": 72.69999999999962,
          "velocity": 0.8503937007874016,
          "duration": 0.09416666666666629
        },
        {
          "name": "C6",
          "midi": 84,
          "time": 72.79416666666629,
          "velocity": 0.8661417322834646,
          "duration": 0.09749999999999659
        },
        {
          "name": "G5",
          "midi": 79,
          "time": 72.89999999999962,
          "velocity": 0.937007874015748,
          "duration": 0.09999999999999432
        },
        {
          "name": "F5",
          "midi": 77,
          "time": 72.99999999999962,
          "velocity": 0.937007874015748,
          "duration": 0.09749999999999659
        },
        {
          "name": "D#5",
          "midi": 75,
          "time": 73.09999999999961,
          "velocity": 0.937007874015748,
          "duration": 0.09999999999999432
        },
        {
          "name": "F5",
          "midi": 77,
          "time": 73.1999999999996,
          "velocity": 0.937007874015748,
          "duration": 0.09999999999999432
        },
        {
          "name": "D#5",
          "midi": 75,
          "time": 73.2974999999996,
          "velocity": 0.8582677165354331,
          "duration": 0.09666666666666401
        },
        {
          "name": "D5",
          "midi": 74,
          "time": 73.3999999999996,
          "velocity": 0.8582677165354331,
          "duration": 0.09999999999999432
        },
        {
          "name": "A#4",
          "midi": 70,
          "time": 73.49999999999959,
          "velocity": 0.8582677165354331,
          "duration": 0.09749999999999659
        },
        {
          "name": "D#7",
          "midi": 99,
          "time": 73.59999999999958,
          "velocity": 0.9763779527559056,
          "duration": 0.09749999999999659
        },
        {
          "name": "D7",
          "midi": 98,
          "time": 73.69749999999958,
          "velocity": 0.9763779527559056,
          "duration": 0.09666666666666401
        },
        {
          "name": "C7",
          "midi": 96,
          "time": 73.79999999999957,
          "velocity": 0.937007874015748,
          "duration": 0.09749999999999659
        },
        {
          "name": "G6",
          "midi": 91,
          "time": 73.89749999999957,
          "velocity": 0.889763779527559,
          "duration": 0.10250000000000625
        },
        {
          "name": "F6",
          "midi": 89,
          "time": 73.99999999999957,
          "velocity": 0.889763779527559,
          "duration": 0.09999999999999432
        },
        {
          "name": "D#6",
          "midi": 87,
          "time": 74.09999999999957,
          "velocity": 0.952755905511811,
          "duration": 0.09999999999999432
        },
        {
          "name": "D6",
          "midi": 86,
          "time": 74.19999999999956,
          "velocity": 0.8661417322834646,
          "duration": 0.09749999999999659
        },
        {
          "name": "A#5",
          "midi": 82,
          "time": 74.29999999999956,
          "velocity": 0.8503937007874016,
          "duration": 0.09416666666666629
        },
        {
          "name": "C6",
          "midi": 84,
          "time": 74.39416666666622,
          "velocity": 0.8661417322834646,
          "duration": 0.09749999999999659
        },
        {
          "name": "G5",
          "midi": 79,
          "time": 74.49999999999956,
          "velocity": 0.937007874015748,
          "duration": 0.09999999999999432
        },
        {
          "name": "F5",
          "midi": 77,
          "time": 74.59999999999955,
          "velocity": 0.937007874015748,
          "duration": 0.09749999999999659
        },
        {
          "name": "D#5",
          "midi": 75,
          "time": 74.69999999999955,
          "velocity": 0.937007874015748,
          "duration": 0.09999999999999432
        },
        {
          "name": "F5",
          "midi": 77,
          "time": 74.79999999999954,
          "velocity": 0.937007874015748,
          "duration": 0.09999999999999432
        },
        {
          "name": "D#5",
          "midi": 75,
          "time": 74.89749999999954,
          "velocity": 0.8582677165354331,
          "duration": 0.09666666666666401
        },
        {
          "name": "D5",
          "midi": 74,
          "time": 74.99999999999953,
          "velocity": 0.8582677165354331,
          "duration": 0.09999999999999432
        },
        {
          "name": "A#4",
          "midi": 70,
          "time": 75.09999999999953,
          "velocity": 0.8582677165354331,
          "duration": 0.09749999999999659
        },
        {
          "name": "D#7",
          "midi": 99,
          "time": 75.19999999999952,
          "velocity": 0.9763779527559056,
          "duration": 0.09749999999999659
        },
        {
          "name": "D7",
          "midi": 98,
          "time": 75.29749999999952,
          "velocity": 0.9763779527559056,
          "duration": 0.09666666666666401
        },
        {
          "name": "C7",
          "midi": 96,
          "time": 75.39999999999951,
          "velocity": 0.937007874015748,
          "duration": 0.09749999999999659
        },
        {
          "name": "G6",
          "midi": 91,
          "time": 75.4974999999995,
          "velocity": 0.889763779527559,
          "duration": 0.10250000000000625
        },
        {
          "name": "F6",
          "midi": 89,
          "time": 75.59999999999951,
          "velocity": 0.889763779527559,
          "duration": 0.09999999999999432
        },
        {
          "name": "D#6",
          "midi": 87,
          "time": 75.6999999999995,
          "velocity": 0.952755905511811,
          "duration": 0.09999999999999432
        },
        {
          "name": "D6",
          "midi": 86,
          "time": 75.7999999999995,
          "velocity": 0.8661417322834646,
          "duration": 0.09749999999999659
        },
        {
          "name": "A#5",
          "midi": 82,
          "time": 75.8999999999995,
          "velocity": 0.8503937007874016,
          "duration": 0.09416666666666629
        },
        {
          "name": "C6",
          "midi": 84,
          "time": 75.99416666666616,
          "velocity": 0.8661417322834646,
          "duration": 0.09749999999999659
        },
        {
          "name": "G5",
          "midi": 79,
          "time": 76.0999999999995,
          "velocity": 0.937007874015748,
          "duration": 0.09999999999999432
        },
        {
          "name": "F5",
          "midi": 77,
          "time": 76.19999999999949,
          "velocity": 0.937007874015748,
          "duration": 0.09749999999999659
        },
        {
          "name": "D#5",
          "midi": 75,
          "time": 76.29999999999949,
          "velocity": 0.937007874015748,
          "duration": 0.09999999999999432
        },
        {
          "name": "F5",
          "midi": 77,
          "time": 76.39999999999948,
          "velocity": 0.937007874015748,
          "duration": 0.09999999999999432
        },
        {
          "name": "D#5",
          "midi": 75,
          "time": 76.49749999999948,
          "velocity": 0.8582677165354331,
          "duration": 0.09666666666666401
        },
        {
          "name": "D5",
          "midi": 74,
          "time": 76.59999999999947,
          "velocity": 0.8582677165354331,
          "duration": 0.09999999999999432
        },
        {
          "name": "A#4",
          "midi": 70,
          "time": 76.69999999999946,
          "velocity": 0.8582677165354331,
          "duration": 0.09749999999999659
        },
        {
          "name": "D#7",
          "midi": 99,
          "time": 76.79999999999946,
          "velocity": 0.9763779527559056,
          "duration": 0.09749999999999659
        },
        {
          "name": "D7",
          "midi": 98,
          "time": 76.89749999999945,
          "velocity": 0.9763779527559056,
          "duration": 0.09666666666666401
        },
        {
          "name": "C7",
          "midi": 96,
          "time": 76.99999999999945,
          "velocity": 0.937007874015748,
          "duration": 0.09749999999999659
        },
        {
          "name": "G6",
          "midi": 91,
          "time": 77.09749999999944,
          "velocity": 0.889763779527559,
          "duration": 0.10250000000000625
        },
        {
          "name": "F6",
          "midi": 89,
          "time": 77.19999999999945,
          "velocity": 0.889763779527559,
          "duration": 0.09999999999999432
        },
        {
          "name": "D#6",
          "midi": 87,
          "time": 77.29999999999944,
          "velocity": 0.952755905511811,
          "duration": 0.09999999999999432
        },
        {
          "name": "D6",
          "midi": 86,
          "time": 77.39999999999944,
          "velocity": 0.8661417322834646,
          "duration": 0.09749999999999659
        },
        {
          "name": "A#5",
          "midi": 82,
          "time": 77.49999999999943,
          "velocity": 0.8503937007874016,
          "duration": 0.09416666666666629
        },
        {
          "name": "C6",
          "midi": 84,
          "time": 77.5941666666661,
          "velocity": 0.8661417322834646,
          "duration": 0.09749999999999659
        },
        {
          "name": "G5",
          "midi": 79,
          "time": 77.69999999999943,
          "velocity": 0.937007874015748,
          "duration": 0.09999999999999432
        },
        {
          "name": "F5",
          "midi": 77,
          "time": 77.79999999999943,
          "velocity": 0.937007874015748,
          "duration": 0.09749999999999659
        },
        {
          "name": "D#5",
          "midi": 75,
          "time": 77.89999999999942,
          "velocity": 0.937007874015748,
          "duration": 0.09999999999999432
        },
        {
          "name": "F5",
          "midi": 77,
          "time": 77.99999999999942,
          "velocity": 0.937007874015748,
          "duration": 0.09999999999999432
        },
        {
          "name": "D#5",
          "midi": 75,
          "time": 78.09749999999941,
          "velocity": 0.8582677165354331,
          "duration": 0.09666666666666401
        },
        {
          "name": "D5",
          "midi": 74,
          "time": 78.1999999999994,
          "velocity": 0.8582677165354331,
          "duration": 0.09999999999999432
        },
        {
          "name": "A#4",
          "midi": 70,
          "time": 78.2999999999994,
          "velocity": 0.8582677165354331,
          "duration": 0.09749999999999659
        },
        {
          "name": "D#7",
          "midi": 99,
          "time": 78.3999999999994,
          "velocity": 0.9763779527559056,
          "duration": 0.09749999999999659
        },
        {
          "name": "D7",
          "midi": 98,
          "time": 78.49749999999939,
          "velocity": 0.9763779527559056,
          "duration": 0.09666666666666401
        },
        {
          "name": "C7",
          "midi": 96,
          "time": 78.59999999999938,
          "velocity": 0.937007874015748,
          "duration": 0.09749999999999659
        },
        {
          "name": "G6",
          "midi": 91,
          "time": 78.69749999999938,
          "velocity": 0.889763779527559,
          "duration": 0.10250000000000625
        },
        {
          "name": "F6",
          "midi": 89,
          "time": 78.79999999999939,
          "velocity": 0.889763779527559,
          "duration": 0.09999999999999432
        },
        {
          "name": "D#6",
          "midi": 87,
          "time": 78.89999999999938,
          "velocity": 0.952755905511811,
          "duration": 0.09999999999999432
        },
        {
          "name": "D6",
          "midi": 86,
          "time": 78.99999999999937,
          "velocity": 0.8661417322834646,
          "duration": 0.09749999999999659
        },
        {
          "name": "A#5",
          "midi": 82,
          "time": 79.09999999999937,
          "velocity": 0.8503937007874016,
          "duration": 0.09416666666666629
        },
        {
          "name": "C6",
          "midi": 84,
          "time": 79.19416666666604,
          "velocity": 0.8661417322834646,
          "duration": 0.09749999999999659
        },
        {
          "name": "G5",
          "midi": 79,
          "time": 79.29999999999937,
          "velocity": 0.937007874015748,
          "duration": 0.09999999999999432
        },
        {
          "name": "F5",
          "midi": 77,
          "time": 79.39999999999937,
          "velocity": 0.937007874015748,
          "duration": 0.09749999999999659
        },
        {
          "name": "D#5",
          "midi": 75,
          "time": 79.49999999999936,
          "velocity": 0.937007874015748,
          "duration": 0.09999999999999432
        },
        {
          "name": "F5",
          "midi": 77,
          "time": 79.59999999999935,
          "velocity": 0.937007874015748,
          "duration": 0.09999999999999432
        },
        {
          "name": "D#5",
          "midi": 75,
          "time": 79.69749999999935,
          "velocity": 0.8582677165354331,
          "duration": 0.09666666666666401
        },
        {
          "name": "D5",
          "midi": 74,
          "time": 79.79999999999934,
          "velocity": 0.8582677165354331,
          "duration": 0.09999999999999432
        },
        {
          "name": "A#4",
          "midi": 70,
          "time": 79.89999999999934,
          "velocity": 0.8582677165354331,
          "duration": 0.09749999999999659
        },
        {
          "name": "D#7",
          "midi": 99,
          "time": 79.99999999999933,
          "velocity": 0.9763779527559056,
          "duration": 0.09749999999999659
        },
        {
          "name": "D7",
          "midi": 98,
          "time": 80.09749999999933,
          "velocity": 0.9763779527559056,
          "duration": 0.09666666666666401
        },
        {
          "name": "C7",
          "midi": 96,
          "time": 80.19999999999932,
          "velocity": 0.937007874015748,
          "duration": 0.09749999999999659
        },
        {
          "name": "G6",
          "midi": 91,
          "time": 80.29749999999932,
          "velocity": 0.889763779527559,
          "duration": 0.10250000000000625
        },
        {
          "name": "F6",
          "midi": 89,
          "time": 80.39999999999932,
          "velocity": 0.889763779527559,
          "duration": 0.09999999999999432
        },
        {
          "name": "D#6",
          "midi": 87,
          "time": 80.49999999999932,
          "velocity": 0.952755905511811,
          "duration": 0.09999999999999432
        },
        {
          "name": "D6",
          "midi": 86,
          "time": 80.59999999999931,
          "velocity": 0.8661417322834646,
          "duration": 0.09749999999999659
        },
        {
          "name": "A#5",
          "midi": 82,
          "time": 80.6999999999993,
          "velocity": 0.8503937007874016,
          "duration": 0.09416666666666629
        },
        {
          "name": "C6",
          "midi": 84,
          "time": 80.79416666666597,
          "velocity": 0.8661417322834646,
          "duration": 0.09749999999999659
        },
        {
          "name": "G5",
          "midi": 79,
          "time": 80.89999999999931,
          "velocity": 0.937007874015748,
          "duration": 0.09999999999999432
        },
        {
          "name": "F5",
          "midi": 77,
          "time": 80.9999999999993,
          "velocity": 0.937007874015748,
          "duration": 0.09749999999999659
        },
        {
          "name": "D#5",
          "midi": 75,
          "time": 81.0999999999993,
          "velocity": 0.937007874015748,
          "duration": 0.09999999999999432
        },
        {
          "name": "F5",
          "midi": 77,
          "time": 81.19999999999929,
          "velocity": 0.937007874015748,
          "duration": 0.09999999999999432
        },
        {
          "name": "D#5",
          "midi": 75,
          "time": 81.29749999999929,
          "velocity": 0.8582677165354331,
          "duration": 0.09666666666666401
        },
        {
          "name": "D5",
          "midi": 74,
          "time": 81.39999999999928,
          "velocity": 0.8582677165354331,
          "duration": 0.09999999999999432
        },
        {
          "name": "A#4",
          "midi": 70,
          "time": 81.49999999999928,
          "velocity": 0.8582677165354331,
          "duration": 0.09749999999999659
        },
        {
          "name": "D#7",
          "midi": 99,
          "time": 81.59999999999927,
          "velocity": 0.9763779527559056,
          "duration": 0.09749999999999659
        },
        {
          "name": "D7",
          "midi": 98,
          "time": 81.69749999999927,
          "velocity": 0.9763779527559056,
          "duration": 0.09666666666666401
        },
        {
          "name": "C7",
          "midi": 96,
          "time": 81.79999999999926,
          "velocity": 0.937007874015748,
          "duration": 0.09749999999999659
        },
        {
          "name": "G6",
          "midi": 91,
          "time": 81.89749999999925,
          "velocity": 0.889763779527559,
          "duration": 0.10250000000000625
        },
        {
          "name": "F6",
          "midi": 89,
          "time": 81.99999999999926,
          "velocity": 0.889763779527559,
          "duration": 0.09999999999999432
        },
        {
          "name": "D#6",
          "midi": 87,
          "time": 82.09999999999926,
          "velocity": 0.952755905511811,
          "duration": 0.09999999999999432
        },
        {
          "name": "D6",
          "midi": 86,
          "time": 82.19999999999925,
          "velocity": 0.8661417322834646,
          "duration": 0.09749999999999659
        },
        {
          "name": "A#5",
          "midi": 82,
          "time": 82.29999999999924,
          "velocity": 0.8503937007874016,
          "duration": 0.09416666666666629
        },
        {
          "name": "C6",
          "midi": 84,
          "time": 82.39416666666591,
          "velocity": 0.8661417322834646,
          "duration": 0.09749999999999659
        },
        {
          "name": "G5",
          "midi": 79,
          "time": 82.49999999999925,
          "velocity": 0.937007874015748,
          "duration": 0.09999999999999432
        },
        {
          "name": "F5",
          "midi": 77,
          "time": 82.59999999999924,
          "velocity": 0.937007874015748,
          "duration": 0.09749999999999659
        },
        {
          "name": "D#5",
          "midi": 75,
          "time": 82.69999999999924,
          "velocity": 0.937007874015748,
          "duration": 0.09999999999999432
        },
        {
          "name": "F5",
          "midi": 77,
          "time": 82.79999999999923,
          "velocity": 0.937007874015748,
          "duration": 0.09999999999999432
        },
        {
          "name": "D#5",
          "midi": 75,
          "time": 82.89749999999923,
          "velocity": 0.8582677165354331,
          "duration": 0.09666666666666401
        },
        {
          "name": "D5",
          "midi": 74,
          "time": 82.99999999999922,
          "velocity": 0.8582677165354331,
          "duration": 0.09999999999999432
        },
        {
          "name": "A#4",
          "midi": 70,
          "time": 83.09999999999921,
          "velocity": 0.8582677165354331,
          "duration": 0.09749999999999659
        },
        {
          "name": "D#7",
          "midi": 99,
          "time": 83.1999999999992,
          "velocity": 0.9763779527559056,
          "duration": 0.09749999999999659
        },
        {
          "name": "D7",
          "midi": 98,
          "time": 83.2974999999992,
          "velocity": 0.9763779527559056,
          "duration": 0.09666666666666401
        },
        {
          "name": "C7",
          "midi": 96,
          "time": 83.3999999999992,
          "velocity": 0.937007874015748,
          "duration": 0.09749999999999659
        },
        {
          "name": "G6",
          "midi": 91,
          "time": 83.49749999999919,
          "velocity": 0.889763779527559,
          "duration": 0.10250000000000625
        },
        {
          "name": "F6",
          "midi": 89,
          "time": 83.5999999999992,
          "velocity": 0.889763779527559,
          "duration": 0.09999999999999432
        },
        {
          "name": "D#6",
          "midi": 87,
          "time": 83.69999999999919,
          "velocity": 0.952755905511811,
          "duration": 0.09999999999999432
        },
        {
          "name": "D6",
          "midi": 86,
          "time": 83.79999999999919,
          "velocity": 0.8661417322834646,
          "duration": 0.09749999999999659
        },
        {
          "name": "A#5",
          "midi": 82,
          "time": 83.89999999999918,
          "velocity": 0.8503937007874016,
          "duration": 0.09416666666666629
        },
        {
          "name": "C6",
          "midi": 84,
          "time": 83.99416666666585,
          "velocity": 0.8661417322834646,
          "duration": 0.09749999999999659
        },
        {
          "name": "G5",
          "midi": 79,
          "time": 84.09999999999918,
          "velocity": 0.937007874015748,
          "duration": 0.09999999999999432
        },
        {
          "name": "F5",
          "midi": 77,
          "time": 84.19999999999918,
          "velocity": 0.937007874015748,
          "duration": 0.09749999999999659
        },
        {
          "name": "D#5",
          "midi": 75,
          "time": 84.29999999999917,
          "velocity": 0.937007874015748,
          "duration": 0.09999999999999432
        },
        {
          "name": "F5",
          "midi": 77,
          "time": 84.39999999999917,
          "velocity": 0.937007874015748,
          "duration": 0.09999999999999432
        },
        {
          "name": "D#5",
          "midi": 75,
          "time": 84.49749999999916,
          "velocity": 0.8582677165354331,
          "duration": 0.09666666666666401
        },
        {
          "name": "D5",
          "midi": 74,
          "time": 84.59999999999916,
          "velocity": 0.8582677165354331,
          "duration": 0.09999999999999432
        },
        {
          "name": "A#4",
          "midi": 70,
          "time": 84.69999999999915,
          "velocity": 0.8582677165354331,
          "duration": 0.09749999999999659
        },
        {
          "name": "D#7",
          "midi": 99,
          "time": 84.79999999999914,
          "velocity": 0.9763779527559056,
          "duration": 0.09749999999999659
        },
        {
          "name": "D7",
          "midi": 98,
          "time": 84.89749999999914,
          "velocity": 0.9763779527559056,
          "duration": 0.09666666666666401
        },
        {
          "name": "C7",
          "midi": 96,
          "time": 84.99999999999913,
          "velocity": 0.937007874015748,
          "duration": 0.09749999999999659
        },
        {
          "name": "G6",
          "midi": 91,
          "time": 85.09749999999913,
          "velocity": 0.889763779527559,
          "duration": 0.10250000000000625
        },
        {
          "name": "F6",
          "midi": 89,
          "time": 85.19999999999914,
          "velocity": 0.889763779527559,
          "duration": 0.09999999999999432
        },
        {
          "name": "D#6",
          "midi": 87,
          "time": 85.29999999999913,
          "velocity": 0.952755905511811,
          "duration": 0.09999999999999432
        },
        {
          "name": "D6",
          "midi": 86,
          "time": 85.39999999999912,
          "velocity": 0.8661417322834646,
          "duration": 0.09749999999999659
        },
        {
          "name": "A#5",
          "midi": 82,
          "time": 85.49999999999912,
          "velocity": 0.8503937007874016,
          "duration": 0.09416666666666629
        },
        {
          "name": "C6",
          "midi": 84,
          "time": 85.59416666666579,
          "velocity": 0.8661417322834646,
          "duration": 0.09749999999999659
        },
        {
          "name": "G5",
          "midi": 79,
          "time": 85.69999999999912,
          "velocity": 0.937007874015748,
          "duration": 0.09999999999999432
        },
        {
          "name": "F5",
          "midi": 77,
          "time": 85.79999999999912,
          "velocity": 0.937007874015748,
          "duration": 0.09749999999999659
        },
        {
          "name": "D#5",
          "midi": 75,
          "time": 85.89999999999911,
          "velocity": 0.937007874015748,
          "duration": 0.09999999999999432
        },
        {
          "name": "F5",
          "midi": 77,
          "time": 85.9999999999991,
          "velocity": 0.937007874015748,
          "duration": 0.09999999999999432
        },
        {
          "name": "D#5",
          "midi": 75,
          "time": 86.0974999999991,
          "velocity": 0.8582677165354331,
          "duration": 0.09666666666666401
        },
        {
          "name": "D5",
          "midi": 74,
          "time": 86.1999999999991,
          "velocity": 0.8582677165354331,
          "duration": 0.09999999999999432
        },
        {
          "name": "A#4",
          "midi": 70,
          "time": 86.29999999999909,
          "velocity": 0.8582677165354331,
          "duration": 0.09749999999999659
        }
      ],
      "controlChanges": {},
      "id": 4,
      "name": "pluck",
      "channelNumber": 0,
      "isPercussion": false
    },
    {
      "startTime": 0,
      "duration": 86.39999999999998,
      "length": 104,
      "notes": [
        {
          "name": "C4",
          "midi": 60,
          "time": 0,
          "velocity": 0.9133858267716536,
          "duration": 1.0175
        },
        {
          "name": "A#3",
          "midi": 58,
          "time": 1.0016666666666667,
          "velocity": 0.8582677165354331,
          "duration": 0.5983333333333334
        },
        {
          "name": "C4",
          "midi": 60,
          "time": 1.5975000000000001,
          "velocity": 0.8818897637795275,
          "duration": 1.0025
        },
        {
          "name": "A#3",
          "midi": 58,
          "time": 2.6,
          "velocity": 0.8976377952755905,
          "duration": 0.6000000000000001
        },
        {
          "name": "G#3",
          "midi": 56,
          "time": 3.2,
          "velocity": 0.8503937007874016,
          "duration": 1
        },
        {
          "name": "G3",
          "midi": 55,
          "time": 4.2,
          "velocity": 0.8346456692913385,
          "duration": 0.6000000000000005
        },
        {
          "name": "G#3",
          "midi": 56,
          "time": 4.801666666666668,
          "velocity": 0.8582677165354331,
          "duration": 0.9983333333333331
        },
        {
          "name": "G3",
          "midi": 55,
          "time": 5.805833333333334,
          "velocity": 0.8661417322834646,
          "duration": 0.5941666666666663
        },
        {
          "name": "F3",
          "midi": 53,
          "time": 6.4,
          "velocity": 0.8818897637795275,
          "duration": 1.0183333333333335
        },
        {
          "name": "G4",
          "midi": 67,
          "time": 7.4,
          "velocity": 0.9291338582677166,
          "duration": 0.5999999999999996
        },
        {
          "name": "F4",
          "midi": 65,
          "time": 8,
          "velocity": 0.8976377952755905,
          "duration": 1.0166666666666675
        },
        {
          "name": "C5",
          "midi": 72,
          "time": 9,
          "velocity": 0.9448818897637795,
          "duration": 0.40000000000000036
        },
        {
          "name": "A#4",
          "midi": 70,
          "time": 9.4,
          "velocity": 0.8740157480314961,
          "duration": 0.1999999999999993
        },
        {
          "name": "G#4",
          "midi": 68,
          "time": 9.6,
          "velocity": 0.8661417322834646,
          "duration": 0.956666666666667
        },
        {
          "name": "G#4",
          "midi": 68,
          "time": 10.6,
          "velocity": 0.9133858267716536,
          "duration": 0.5791666666666675
        },
        {
          "name": "G4",
          "midi": 67,
          "time": 11.200000000000001,
          "velocity": 0.9212598425196851,
          "duration": 0.5999999999999996
        },
        {
          "name": "D4",
          "midi": 62,
          "time": 11.8,
          "velocity": 0.8740157480314961,
          "duration": 0.40000000000000036
        },
        {
          "name": "G4",
          "midi": 67,
          "time": 12.200000000000001,
          "velocity": 0.8976377952755905,
          "duration": 0.40000000000000036
        },
        {
          "name": "D4",
          "midi": 62,
          "time": 12.600000000000001,
          "velocity": 0.8503937007874016,
          "duration": 0.1999999999999993
        },
        {
          "name": "C4",
          "midi": 60,
          "time": 12.8,
          "velocity": 0.9133858267716536,
          "duration": 1.0175
        },
        {
          "name": "A#3",
          "midi": 58,
          "time": 13.801666666666668,
          "velocity": 0.8582677165354331,
          "duration": 0.5983333333333327
        },
        {
          "name": "C4",
          "midi": 60,
          "time": 14.3975,
          "velocity": 0.8818897637795275,
          "duration": 1.0024999999999995
        },
        {
          "name": "A#3",
          "midi": 58,
          "time": 15.4,
          "velocity": 0.8976377952755905,
          "duration": 0.5999999999999996
        },
        {
          "name": "G#3",
          "midi": 56,
          "time": 16,
          "velocity": 0.8503937007874016,
          "duration": 1
        },
        {
          "name": "G3",
          "midi": 55,
          "time": 17,
          "velocity": 0.8346456692913385,
          "duration": 0.6000000000000014
        },
        {
          "name": "G#3",
          "midi": 56,
          "time": 17.601666666666667,
          "velocity": 0.8582677165354331,
          "duration": 0.9983333333333348
        },
        {
          "name": "G3",
          "midi": 55,
          "time": 18.605833333333333,
          "velocity": 0.8661417322834646,
          "duration": 0.5941666666666663
        },
        {
          "name": "F3",
          "midi": 53,
          "time": 19.2,
          "velocity": 0.8818897637795275,
          "duration": 1.0183333333333344
        },
        {
          "name": "G3",
          "midi": 55,
          "time": 20.2,
          "velocity": 0.9291338582677166,
          "duration": 0.6000000000000014
        },
        {
          "name": "F3",
          "midi": 53,
          "time": 20.8,
          "velocity": 0.8976377952755905,
          "duration": 1.0166666666666657
        },
        {
          "name": "C4",
          "midi": 60,
          "time": 21.8,
          "velocity": 0.9448818897637795,
          "duration": 0.3999999999999986
        },
        {
          "name": "A#3",
          "midi": 58,
          "time": 22.2,
          "velocity": 0.8740157480314961,
          "duration": 0.1999999999999993
        },
        {
          "name": "G#3",
          "midi": 56,
          "time": 22.4,
          "velocity": 0.8661417322834646,
          "duration": 0.956666666666667
        },
        {
          "name": "G#3",
          "midi": 56,
          "time": 23.4,
          "velocity": 0.9133858267716536,
          "duration": 0.5791666666666657
        },
        {
          "name": "G3",
          "midi": 55,
          "time": 23.999999999999996,
          "velocity": 0.9212598425196851,
          "duration": 0.6000000000000014
        },
        {
          "name": "D3",
          "midi": 50,
          "time": 24.599999999999998,
          "velocity": 0.8740157480314961,
          "duration": 0.3999999999999986
        },
        {
          "name": "G3",
          "midi": 55,
          "time": 24.999999999999996,
          "velocity": 0.8976377952755905,
          "duration": 0.3999999999999986
        },
        {
          "name": "D3",
          "midi": 50,
          "time": 25.399999999999995,
          "velocity": 0.8503937007874016,
          "duration": 0.1999999999999993
        },
        {
          "name": "C4",
          "midi": 60,
          "time": 25.606666666666662,
          "velocity": 0.9212598425196851,
          "duration": 3.193333333333335
        },
        {
          "name": "F4",
          "midi": 65,
          "time": 28.806666666666665,
          "velocity": 0.9212598425196851,
          "duration": 3.193333333333335
        },
        {
          "name": "C4",
          "midi": 60,
          "time": 32,
          "velocity": 0.9212598425196851,
          "duration": 3.200000000000003
        },
        {
          "name": "F4",
          "midi": 65,
          "time": 33.6,
          "velocity": 0.905511811023622,
          "duration": 0.6000000000000014
        },
        {
          "name": "D#4",
          "midi": 63,
          "time": 34.2,
          "velocity": 0.8582677165354331,
          "duration": 0.5
        },
        {
          "name": "C4",
          "midi": 60,
          "time": 34.7,
          "velocity": 0.7952755905511811,
          "duration": 0.5266666666666637
        },
        {
          "name": "F4",
          "midi": 65,
          "time": 35.2,
          "velocity": 0.889763779527559,
          "duration": 1.1999999999999957
        },
        {
          "name": "C4",
          "midi": 60,
          "time": 36.4,
          "velocity": 0.7952755905511811,
          "duration": 0.3999999999999986
        },
        {
          "name": "G4",
          "midi": 67,
          "time": 36.8,
          "velocity": 0.8188976377952756,
          "duration": 0.6000000000000014
        },
        {
          "name": "F4",
          "midi": 65,
          "time": 37.4,
          "velocity": 0.8661417322834646,
          "duration": 0.6000000000000014
        },
        {
          "name": "D#4",
          "midi": 63,
          "time": 38,
          "velocity": 0.8503937007874016,
          "duration": 0.3999999999999986
        },
        {
          "name": "C4",
          "midi": 60,
          "time": 38.43333333333333,
          "velocity": 0.9212598425196851,
          "duration": 3.1666666666666714
        },
        {
          "name": "F4",
          "midi": 65,
          "time": 40,
          "velocity": 0.905511811023622,
          "duration": 0.6000000000000014
        },
        {
          "name": "D#4",
          "midi": 63,
          "time": 40.6,
          "velocity": 0.8582677165354331,
          "duration": 0.5
        },
        {
          "name": "C4",
          "midi": 60,
          "time": 41.1,
          "velocity": 0.7952755905511811,
          "duration": 0.5266666666666708
        },
        {
          "name": "F4",
          "midi": 65,
          "time": 41.60666666666667,
          "velocity": 0.9212598425196851,
          "duration": 3.193333333333335
        },
        {
          "name": "C4",
          "midi": 60,
          "time": 44.833333333333336,
          "velocity": 0.9212598425196851,
          "duration": 3.1666666666666714
        },
        {
          "name": "F4",
          "midi": 65,
          "time": 46.400000000000006,
          "velocity": 0.905511811023622,
          "duration": 0.6000000000000014
        },
        {
          "name": "D#4",
          "midi": 63,
          "time": 47.00000000000001,
          "velocity": 0.8582677165354331,
          "duration": 0.5
        },
        {
          "name": "C4",
          "midi": 60,
          "time": 47.50000000000001,
          "velocity": 0.7952755905511811,
          "duration": 0.5266666666666637
        },
        {
          "name": "G#3",
          "midi": 56,
          "time": 48.00000000000001,
          "velocity": 0.9212598425196851,
          "duration": 3.193333333333328
        },
        {
          "name": "C4",
          "midi": 60,
          "time": 49.2,
          "velocity": 0.9212598425196851,
          "duration": 0.3999999999999986
        },
        {
          "name": "G4",
          "midi": 67,
          "time": 49.6,
          "velocity": 0.905511811023622,
          "duration": 0.6000000000000014
        },
        {
          "name": "F4",
          "midi": 65,
          "time": 50.2,
          "velocity": 0.8582677165354331,
          "duration": 0.5
        },
        {
          "name": "C4",
          "midi": 60,
          "time": 50.7,
          "velocity": 0.7952755905511811,
          "duration": 0.5
        },
        {
          "name": "A#3",
          "midi": 58,
          "time": 51.2,
          "velocity": 0.7952755905511811,
          "duration": 3.200000000000003
        },
        {
          "name": "G3",
          "midi": 55,
          "time": 54.40666666666667,
          "velocity": 0.9212598425196851,
          "duration": 3.193333333333335
        },
        {
          "name": "G3",
          "midi": 55,
          "time": 57.606666666666676,
          "velocity": 0.9212598425196851,
          "duration": 3.193333333333335
        },
        {
          "name": "C5",
          "midi": 72,
          "time": 60.80000000000001,
          "velocity": 0.9133858267716536,
          "duration": 1.0174999999999983
        },
        {
          "name": "A#4",
          "midi": 70,
          "time": 61.80166666666668,
          "velocity": 0.8582677165354331,
          "duration": 0.5983333333333292
        },
        {
          "name": "C5",
          "midi": 72,
          "time": 62.39750000000001,
          "velocity": 0.8818897637795275,
          "duration": 1.0024999999999977
        },
        {
          "name": "A#4",
          "midi": 70,
          "time": 63.400000000000006,
          "velocity": 0.8976377952755905,
          "duration": 0.5999999999999943
        },
        {
          "name": "G#4",
          "midi": 68,
          "time": 64,
          "velocity": 0.8503937007874016,
          "duration": 1
        },
        {
          "name": "G4",
          "midi": 67,
          "time": 65,
          "velocity": 0.8346456692913385,
          "duration": 0.5999999999999943
        },
        {
          "name": "G#4",
          "midi": 68,
          "time": 65.60166666666666,
          "velocity": 0.8582677165354331,
          "duration": 0.9983333333333348
        },
        {
          "name": "G4",
          "midi": 67,
          "time": 66.60583333333332,
          "velocity": 0.8661417322834646,
          "duration": 0.5941666666666663
        },
        {
          "name": "F4",
          "midi": 65,
          "time": 67.19999999999999,
          "velocity": 0.8818897637795275,
          "duration": 1.0183333333333309
        },
        {
          "name": "G5",
          "midi": 79,
          "time": 68.19999999999999,
          "velocity": 0.9291338582677166,
          "duration": 0.5999999999999943
        },
        {
          "name": "F5",
          "midi": 77,
          "time": 68.79999999999998,
          "velocity": 0.8976377952755905,
          "duration": 1.0166666666666657
        },
        {
          "name": "C6",
          "midi": 84,
          "time": 69.79999999999998,
          "velocity": 0.9448818897637795,
          "duration": 0.4000000000000057
        },
        {
          "name": "A#5",
          "midi": 82,
          "time": 70.19999999999999,
          "velocity": 0.8740157480314961,
          "duration": 0.20000000000000284
        },
        {
          "name": "G#5",
          "midi": 80,
          "time": 70.39999999999999,
          "velocity": 0.8661417322834646,
          "duration": 0.9566666666666634
        },
        {
          "name": "G#5",
          "midi": 80,
          "time": 71.39999999999999,
          "velocity": 0.9133858267716536,
          "duration": 0.5791666666666657
        },
        {
          "name": "G5",
          "midi": 79,
          "time": 71.99999999999999,
          "velocity": 0.9212598425196851,
          "duration": 0.5999999999999943
        },
        {
          "name": "D5",
          "midi": 74,
          "time": 72.59999999999998,
          "velocity": 0.8740157480314961,
          "duration": 0.4000000000000057
        },
        {
          "name": "G5",
          "midi": 79,
          "time": 72.99999999999999,
          "velocity": 0.8976377952755905,
          "duration": 0.4000000000000057
        },
        {
          "name": "D5",
          "midi": 74,
          "time": 73.39999999999999,
          "velocity": 0.8503937007874016,
          "duration": 0.20000000000000284
        },
        {
          "name": "C4",
          "midi": 60,
          "time": 73.6,
          "velocity": 0.9133858267716536,
          "duration": 1.0174999999999983
        },
        {
          "name": "A#3",
          "midi": 58,
          "time": 74.60166666666666,
          "velocity": 0.8582677165354331,
          "duration": 0.5983333333333292
        },
        {
          "name": "C4",
          "midi": 60,
          "time": 75.19749999999999,
          "velocity": 0.8818897637795275,
          "duration": 1.0024999999999977
        },
        {
          "name": "A#3",
          "midi": 58,
          "time": 76.19999999999999,
          "velocity": 0.8976377952755905,
          "duration": 0.5999999999999943
        },
        {
          "name": "G#3",
          "midi": 56,
          "time": 76.79999999999998,
          "velocity": 0.8503937007874016,
          "duration": 1
        },
        {
          "name": "G3",
          "midi": 55,
          "time": 77.79999999999998,
          "velocity": 0.8346456692913385,
          "duration": 0.5999999999999943
        },
        {
          "name": "G#3",
          "midi": 56,
          "time": 78.40166666666664,
          "velocity": 0.8582677165354331,
          "duration": 0.9983333333333348
        },
        {
          "name": "G3",
          "midi": 55,
          "time": 79.4058333333333,
          "velocity": 0.8661417322834646,
          "duration": 0.5941666666666663
        },
        {
          "name": "F3",
          "midi": 53,
          "time": 79.99999999999997,
          "velocity": 0.8818897637795275,
          "duration": 1.0183333333333309
        },
        {
          "name": "G4",
          "midi": 67,
          "time": 80.99999999999997,
          "velocity": 0.9291338582677166,
          "duration": 0.5999999999999943
        },
        {
          "name": "F4",
          "midi": 65,
          "time": 81.59999999999997,
          "velocity": 0.8976377952755905,
          "duration": 1.0166666666666657
        },
        {
          "name": "C5",
          "midi": 72,
          "time": 82.59999999999997,
          "velocity": 0.9448818897637795,
          "duration": 0.4000000000000057
        },
        {
          "name": "A#4",
          "midi": 70,
          "time": 82.99999999999997,
          "velocity": 0.8740157480314961,
          "duration": 0.20000000000000284
        },
        {
          "name": "G#4",
          "midi": 68,
          "time": 83.19999999999997,
          "velocity": 0.8661417322834646,
          "duration": 0.9566666666666634
        },
        {
          "name": "G#4",
          "midi": 68,
          "time": 84.19999999999997,
          "velocity": 0.9133858267716536,
          "duration": 0.5791666666666657
        },
        {
          "name": "G4",
          "midi": 67,
          "time": 84.79999999999997,
          "velocity": 0.9212598425196851,
          "duration": 0.5999999999999943
        },
        {
          "name": "D4",
          "midi": 62,
          "time": 85.39999999999996,
          "velocity": 0.8740157480314961,
          "duration": 0.4000000000000057
        },
        {
          "name": "G4",
          "midi": 67,
          "time": 85.79999999999997,
          "velocity": 0.8976377952755905,
          "duration": 0.4000000000000057
        },
        {
          "name": "D4",
          "midi": 62,
          "time": 86.19999999999997,
          "velocity": 0.8503937007874016,
          "duration": 0.20000000000000284
        }
      ],
      "controlChanges": {},
      "id": 5,
      "name": "deep bass",
      "channelNumber": 0,
      "isPercussion": false
    },
    {
      "startTime": 14.4,
      "duration": 86.39999999999978,
      "length": 328,
      "notes": [
        {
          "name": "G4",
          "midi": 67,
          "time": 14.4,
          "velocity": 0.952755905511811,
          "duration": 0.5
        },
        {
          "name": "G4",
          "midi": 67,
          "time": 15,
          "velocity": 0.952755905511811,
          "duration": 0.1999999999999993
        },
        {
          "name": "A#4",
          "midi": 70,
          "time": 15.2,
          "velocity": 0.952755905511811,
          "duration": 0.09999999999999964
        },
        {
          "name": "C5",
          "midi": 72,
          "time": 15.299999999999999,
          "velocity": 0.952755905511811,
          "duration": 0.09999999999999964
        },
        {
          "name": "D#5",
          "midi": 75,
          "time": 15.399999999999999,
          "velocity": 0.952755905511811,
          "duration": 0.09999999999999964
        },
        {
          "name": "F5",
          "midi": 77,
          "time": 15.499999999999998,
          "velocity": 0.952755905511811,
          "duration": 0.09999999999999964
        },
        {
          "name": "G5",
          "midi": 79,
          "time": 15.599999999999998,
          "velocity": 0.952755905511811,
          "duration": 0.09999999999999964
        },
        {
          "name": "A#5",
          "midi": 82,
          "time": 15.699999999999998,
          "velocity": 0.952755905511811,
          "duration": 0.09999999999999964
        },
        {
          "name": "D6",
          "midi": 86,
          "time": 15.799999999999997,
          "velocity": 0.952755905511811,
          "duration": 0.09999999999999964
        },
        {
          "name": "D#6",
          "midi": 87,
          "time": 15.899999999999997,
          "velocity": 0.952755905511811,
          "duration": 0.09999999999999964
        },
        {
          "name": "G#4",
          "midi": 68,
          "time": 15.999999999999996,
          "velocity": 0.952755905511811,
          "duration": 0.3000000000000007
        },
        {
          "name": "G#4",
          "midi": 68,
          "time": 16.4,
          "velocity": 0.952755905511811,
          "duration": 0.10000000000000142
        },
        {
          "name": "G#4",
          "midi": 68,
          "time": 16.6,
          "velocity": 0.952755905511811,
          "duration": 0.6000000000000014
        },
        {
          "name": "A#5",
          "midi": 82,
          "time": 17.200000000000003,
          "velocity": 0.952755905511811,
          "duration": 0.10000000000000142
        },
        {
          "name": "C6",
          "midi": 84,
          "time": 17.300000000000004,
          "velocity": 0.952755905511811,
          "duration": 0.10000000000000142
        },
        {
          "name": "G5",
          "midi": 79,
          "time": 17.400000000000006,
          "velocity": 0.952755905511811,
          "duration": 0.10000000000000142
        },
        {
          "name": "D#5",
          "midi": 75,
          "time": 17.500000000000007,
          "velocity": 0.952755905511811,
          "duration": 0.10000000000000142
        },
        {
          "name": "F5",
          "midi": 77,
          "time": 17.60000000000001,
          "velocity": 0.952755905511811,
          "duration": 0.10000000000000142
        },
        {
          "name": "C5",
          "midi": 72,
          "time": 17.70000000000001,
          "velocity": 0.952755905511811,
          "duration": 0.10000000000000142
        },
        {
          "name": "D#5",
          "midi": 75,
          "time": 17.80000000000001,
          "velocity": 0.952755905511811,
          "duration": 0.10000000000000142
        },
        {
          "name": "F5",
          "midi": 77,
          "time": 17.900000000000013,
          "velocity": 0.952755905511811,
          "duration": 0.10000000000000142
        },
        {
          "name": "C5",
          "midi": 72,
          "time": 18.000000000000014,
          "velocity": 0.952755905511811,
          "duration": 0.10000000000000142
        },
        {
          "name": "D#5",
          "midi": 75,
          "time": 18.100000000000016,
          "velocity": 0.952755905511811,
          "duration": 0.10000000000000142
        },
        {
          "name": "G#4",
          "midi": 68,
          "time": 18.200000000000017,
          "velocity": 0.952755905511811,
          "duration": 0.10000000000000142
        },
        {
          "name": "C5",
          "midi": 72,
          "time": 18.290000000000017,
          "velocity": 0.952755905511811,
          "duration": 0.10000000000000142
        },
        {
          "name": "D#5",
          "midi": 75,
          "time": 18.39000000000002,
          "velocity": 0.952755905511811,
          "duration": 0.10000000000000142
        },
        {
          "name": "G5",
          "midi": 79,
          "time": 18.49000000000002,
          "velocity": 0.952755905511811,
          "duration": 0.10000000000000142
        },
        {
          "name": "A#5",
          "midi": 82,
          "time": 18.59000000000002,
          "velocity": 0.952755905511811,
          "duration": 0.10000000000000142
        },
        {
          "name": "C6",
          "midi": 84,
          "time": 18.70750000000002,
          "velocity": 0.952755905511811,
          "duration": 0.10000000000000142
        },
        {
          "name": "D#6",
          "midi": 87,
          "time": 18.800000000000022,
          "velocity": 0.952755905511811,
          "duration": 0.10000000000000142
        },
        {
          "name": "D6",
          "midi": 86,
          "time": 18.912500000000023,
          "velocity": 0.952755905511811,
          "duration": 0.09999999999999787
        },
        {
          "name": "A#5",
          "midi": 82,
          "time": 19.00000000000002,
          "velocity": 0.952755905511811,
          "duration": 0.09999999999999787
        },
        {
          "name": "D#5",
          "midi": 75,
          "time": 19.10000000000002,
          "velocity": 0.952755905511811,
          "duration": 0.10000000000000142
        },
        {
          "name": "F5",
          "midi": 77,
          "time": 19.20000000000002,
          "velocity": 0.952755905511811,
          "duration": 0.6000000000000014
        },
        {
          "name": "G#4",
          "midi": 68,
          "time": 19.800000000000022,
          "velocity": 0.952755905511811,
          "duration": 0.6000000000000014
        },
        {
          "name": "G5",
          "midi": 79,
          "time": 20.400000000000023,
          "velocity": 0.952755905511811,
          "duration": 0.6000000000000014
        },
        {
          "name": "G#5",
          "midi": 80,
          "time": 21.000000000000025,
          "velocity": 0.952755905511811,
          "duration": 0.6000000000000014
        },
        {
          "name": "A#5",
          "midi": 82,
          "time": 21.600000000000026,
          "velocity": 0.952755905511811,
          "duration": 0.6000000000000014
        },
        {
          "name": "C6",
          "midi": 84,
          "time": 22.200000000000028,
          "velocity": 0.952755905511811,
          "duration": 0.6000000000000014
        },
        {
          "name": "A#5",
          "midi": 82,
          "time": 22.80000000000003,
          "velocity": 0.952755905511811,
          "duration": 0.6000000000000014
        },
        {
          "name": "G#5",
          "midi": 80,
          "time": 23.40000000000003,
          "velocity": 0.952755905511811,
          "duration": 0.6000000000000014
        },
        {
          "name": "G5",
          "midi": 79,
          "time": 24.000000000000032,
          "velocity": 0.952755905511811,
          "duration": 0.30000000000000426
        },
        {
          "name": "D#6",
          "midi": 87,
          "time": 24.000000000000032,
          "velocity": 0.952755905511811,
          "duration": 0.10000000000000142
        },
        {
          "name": "D6",
          "midi": 86,
          "time": 24.100000000000033,
          "velocity": 0.952755905511811,
          "duration": 0.10000000000000142
        },
        {
          "name": "G5",
          "midi": 79,
          "time": 24.200000000000035,
          "velocity": 0.952755905511811,
          "duration": 0.4000000000000057
        },
        {
          "name": "A#5",
          "midi": 82,
          "time": 24.300000000000036,
          "velocity": 0.952755905511811,
          "duration": 0.10000000000000142
        },
        {
          "name": "C6",
          "midi": 84,
          "time": 24.400000000000038,
          "velocity": 0.952755905511811,
          "duration": 0.10000000000000142
        },
        {
          "name": "F5",
          "midi": 77,
          "time": 24.50000000000004,
          "velocity": 0.952755905511811,
          "duration": 0.10000000000000142
        },
        {
          "name": "G5",
          "midi": 79,
          "time": 24.60000000000004,
          "velocity": 0.952755905511811,
          "duration": 0.10000000000000142
        },
        {
          "name": "G6",
          "midi": 91,
          "time": 24.60000000000004,
          "velocity": 0.952755905511811,
          "duration": 0.6000000000000085
        },
        {
          "name": "D#5",
          "midi": 75,
          "time": 24.700000000000042,
          "velocity": 0.952755905511811,
          "duration": 0.10000000000000142
        },
        {
          "name": "D5",
          "midi": 74,
          "time": 24.800000000000043,
          "velocity": 0.952755905511811,
          "duration": 0.10000000000000142
        },
        {
          "name": "A#4",
          "midi": 70,
          "time": 24.900000000000045,
          "velocity": 0.952755905511811,
          "duration": 0.10000000000000142
        },
        {
          "name": "C5",
          "midi": 72,
          "time": 25.000000000000046,
          "velocity": 0.952755905511811,
          "duration": 0.10000000000000142
        },
        {
          "name": "G4",
          "midi": 67,
          "time": 25.20000000000005,
          "velocity": 0.952755905511811,
          "duration": 0.3999999999999986
        },
        {
          "name": "F6",
          "midi": 89,
          "time": 28.800000000000047,
          "velocity": 0.952755905511811,
          "duration": 0.6000000000000014
        },
        {
          "name": "F6",
          "midi": 89,
          "time": 29.40000000000005,
          "velocity": 0.952755905511811,
          "duration": 0.1999999999999993
        },
        {
          "name": "F6",
          "midi": 89,
          "time": 29.800000000000047,
          "velocity": 0.952755905511811,
          "duration": 0.10000000000000142
        },
        {
          "name": "C6",
          "midi": 84,
          "time": 29.90000000000005,
          "velocity": 0.952755905511811,
          "duration": 0.10000000000000142
        },
        {
          "name": "D#6",
          "midi": 87,
          "time": 30.00000000000005,
          "velocity": 0.952755905511811,
          "duration": 0.10000000000000142
        },
        {
          "name": "F6",
          "midi": 89,
          "time": 30.10000000000005,
          "velocity": 0.952755905511811,
          "duration": 0.10000000000000142
        },
        {
          "name": "G#6",
          "midi": 92,
          "time": 30.200000000000053,
          "velocity": 0.952755905511811,
          "duration": 0.10000000000000142
        },
        {
          "name": "A#6",
          "midi": 94,
          "time": 30.300000000000054,
          "velocity": 0.952755905511811,
          "duration": 0.10000000000000142
        },
        {
          "name": "F6",
          "midi": 89,
          "time": 30.400000000000055,
          "velocity": 0.952755905511811,
          "duration": 0.10000000000000142
        },
        {
          "name": "C6",
          "midi": 84,
          "time": 30.500000000000057,
          "velocity": 0.952755905511811,
          "duration": 0.10000000000000142
        },
        {
          "name": "D#6",
          "midi": 87,
          "time": 30.60000000000006,
          "velocity": 0.952755905511811,
          "duration": 0.10000000000000142
        },
        {
          "name": "A#5",
          "midi": 82,
          "time": 30.70000000000006,
          "velocity": 0.952755905511811,
          "duration": 0.10000000000000142
        },
        {
          "name": "C6",
          "midi": 84,
          "time": 30.80000000000006,
          "velocity": 0.952755905511811,
          "duration": 0.10000000000000142
        },
        {
          "name": "G#5",
          "midi": 80,
          "time": 30.900000000000063,
          "velocity": 0.952755905511811,
          "duration": 0.10000000000000142
        },
        {
          "name": "G5",
          "midi": 79,
          "time": 31.000000000000064,
          "velocity": 0.952755905511811,
          "duration": 0.10000000000000142
        },
        {
          "name": "D#5",
          "midi": 75,
          "time": 31.100000000000065,
          "velocity": 0.952755905511811,
          "duration": 0.10000000000000142
        },
        {
          "name": "C5",
          "midi": 72,
          "time": 31.200000000000067,
          "velocity": 0.952755905511811,
          "duration": 0.3000000000000007
        },
        {
          "name": "D#5",
          "midi": 75,
          "time": 31.500000000000068,
          "velocity": 0.952755905511811,
          "duration": 0.1999999999999993
        },
        {
          "name": "E5",
          "midi": 76,
          "time": 31.700000000000067,
          "velocity": 0.952755905511811,
          "duration": 0.09999999999999787
        },
        {
          "name": "F5",
          "midi": 77,
          "time": 31.799166666666732,
          "velocity": 0.952755905511811,
          "duration": 0.09999999999999787
        },
        {
          "name": "C5",
          "midi": 72,
          "time": 31.900000000000063,
          "velocity": 0.952755905511811,
          "duration": 0.09916666666666529
        },
        {
          "name": "C5",
          "midi": 72,
          "time": 32.000000000000064,
          "velocity": 0.952755905511811,
          "duration": 0.29999999999999716
        },
        {
          "name": "C5",
          "midi": 72,
          "time": 32.40000000000006,
          "velocity": 0.952755905511811,
          "duration": 0.29999999999999716
        },
        {
          "name": "C5",
          "midi": 72,
          "time": 32.80000000000006,
          "velocity": 0.952755905511811,
          "duration": 0.20000000000000284
        },
        {
          "name": "G4",
          "midi": 67,
          "time": 33.000000000000064,
          "velocity": 0.952755905511811,
          "duration": 0.20000000000000284
        },
        {
          "name": "A#4",
          "midi": 70,
          "time": 33.20000000000007,
          "velocity": 0.952755905511811,
          "duration": 0.20000000000000284
        },
        {
          "name": "C5",
          "midi": 72,
          "time": 33.40000000000007,
          "velocity": 0.952755905511811,
          "duration": 0.3999999999999986
        },
        {
          "name": "D#5",
          "midi": 75,
          "time": 33.80000000000007,
          "velocity": 0.952755905511811,
          "duration": 0.20000000000000284
        },
        {
          "name": "F5",
          "midi": 77,
          "time": 34.00000000000007,
          "velocity": 0.952755905511811,
          "duration": 0.20000000000000284
        },
        {
          "name": "G5",
          "midi": 79,
          "time": 34.200000000000074,
          "velocity": 0.952755905511811,
          "duration": 0.20000000000000284
        },
        {
          "name": "A#5",
          "midi": 82,
          "time": 34.40000000000008,
          "velocity": 0.952755905511811,
          "duration": 0.20000000000000284
        },
        {
          "name": "C6",
          "midi": 84,
          "time": 34.60000000000008,
          "velocity": 0.952755905511811,
          "duration": 0.20000000000000284
        },
        {
          "name": "G5",
          "midi": 79,
          "time": 34.80000000000008,
          "velocity": 0.952755905511811,
          "duration": 0.20000000000000284
        },
        {
          "name": "D#5",
          "midi": 75,
          "time": 35.000000000000085,
          "velocity": 0.952755905511811,
          "duration": 0.20000000000000284
        },
        {
          "name": "F6",
          "midi": 89,
          "time": 35.20000000000009,
          "velocity": 0.952755905511811,
          "duration": 0.6000000000000014
        },
        {
          "name": "F6",
          "midi": 89,
          "time": 35.80000000000009,
          "velocity": 0.952755905511811,
          "duration": 0.20000000000000284
        },
        {
          "name": "F6",
          "midi": 89,
          "time": 36.200000000000095,
          "velocity": 0.952755905511811,
          "duration": 0.10000000000000142
        },
        {
          "name": "C6",
          "midi": 84,
          "time": 36.3000000000001,
          "velocity": 0.952755905511811,
          "duration": 0.10000000000000142
        },
        {
          "name": "D#6",
          "midi": 87,
          "time": 36.4000000000001,
          "velocity": 0.952755905511811,
          "duration": 0.10000000000000142
        },
        {
          "name": "F6",
          "midi": 89,
          "time": 36.5000000000001,
          "velocity": 0.952755905511811,
          "duration": 0.10000000000000142
        },
        {
          "name": "G#6",
          "midi": 92,
          "time": 36.6000000000001,
          "velocity": 0.952755905511811,
          "duration": 0.10000000000000142
        },
        {
          "name": "A#6",
          "midi": 94,
          "time": 36.7000000000001,
          "velocity": 0.952755905511811,
          "duration": 0.10000000000000142
        },
        {
          "name": "F6",
          "midi": 89,
          "time": 36.800000000000104,
          "velocity": 0.952755905511811,
          "duration": 0.10000000000000142
        },
        {
          "name": "C6",
          "midi": 84,
          "time": 36.900000000000105,
          "velocity": 0.952755905511811,
          "duration": 0.10000000000000142
        },
        {
          "name": "D#6",
          "midi": 87,
          "time": 37.00000000000011,
          "velocity": 0.952755905511811,
          "duration": 0.10000000000000142
        },
        {
          "name": "A#5",
          "midi": 82,
          "time": 37.10000000000011,
          "velocity": 0.952755905511811,
          "duration": 0.10000000000000142
        },
        {
          "name": "C6",
          "midi": 84,
          "time": 37.20000000000011,
          "velocity": 0.952755905511811,
          "duration": 0.10000000000000142
        },
        {
          "name": "G#5",
          "midi": 80,
          "time": 37.30000000000011,
          "velocity": 0.952755905511811,
          "duration": 0.10000000000000142
        },
        {
          "name": "G5",
          "midi": 79,
          "time": 37.40000000000011,
          "velocity": 0.952755905511811,
          "duration": 0.10000000000000142
        },
        {
          "name": "D#5",
          "midi": 75,
          "time": 37.500000000000114,
          "velocity": 0.952755905511811,
          "duration": 0.10000000000000142
        },
        {
          "name": "C5",
          "midi": 72,
          "time": 37.600000000000115,
          "velocity": 0.952755905511811,
          "duration": 0.29999999999999716
        },
        {
          "name": "D#5",
          "midi": 75,
          "time": 37.90000000000011,
          "velocity": 0.952755905511811,
          "duration": 0.20000000000000284
        },
        {
          "name": "E5",
          "midi": 76,
          "time": 38.100000000000115,
          "velocity": 0.952755905511811,
          "duration": 0.10000000000000142
        },
        {
          "name": "F5",
          "midi": 77,
          "time": 38.199166666666784,
          "velocity": 0.952755905511811,
          "duration": 0.10000000000000142
        },
        {
          "name": "C5",
          "midi": 72,
          "time": 38.30000000000012,
          "velocity": 0.952755905511811,
          "duration": 0.09916666666666885
        },
        {
          "name": "C5",
          "midi": 72,
          "time": 38.40000000000012,
          "velocity": 0.952755905511811,
          "duration": 0.29999999999999716
        },
        {
          "name": "C5",
          "midi": 72,
          "time": 38.80000000000012,
          "velocity": 0.952755905511811,
          "duration": 0.29999999999999716
        },
        {
          "name": "C5",
          "midi": 72,
          "time": 39.20000000000012,
          "velocity": 0.952755905511811,
          "duration": 0.20000000000000284
        },
        {
          "name": "G4",
          "midi": 67,
          "time": 39.40000000000012,
          "velocity": 0.952755905511811,
          "duration": 0.20000000000000284
        },
        {
          "name": "A#4",
          "midi": 70,
          "time": 39.60000000000012,
          "velocity": 0.952755905511811,
          "duration": 0.20000000000000284
        },
        {
          "name": "C5",
          "midi": 72,
          "time": 39.800000000000125,
          "velocity": 0.952755905511811,
          "duration": 0.3999999999999986
        },
        {
          "name": "D#5",
          "midi": 75,
          "time": 40.200000000000124,
          "velocity": 0.952755905511811,
          "duration": 0.20000000000000284
        },
        {
          "name": "F5",
          "midi": 77,
          "time": 40.40000000000013,
          "velocity": 0.952755905511811,
          "duration": 0.20000000000000284
        },
        {
          "name": "G5",
          "midi": 79,
          "time": 40.60000000000013,
          "velocity": 0.952755905511811,
          "duration": 0.20000000000000284
        },
        {
          "name": "A#5",
          "midi": 82,
          "time": 40.80000000000013,
          "velocity": 0.952755905511811,
          "duration": 0.20000000000000284
        },
        {
          "name": "C6",
          "midi": 84,
          "time": 41.000000000000135,
          "velocity": 0.952755905511811,
          "duration": 0.20000000000000284
        },
        {
          "name": "G5",
          "midi": 79,
          "time": 41.20000000000014,
          "velocity": 0.952755905511811,
          "duration": 0.20000000000000284
        },
        {
          "name": "D#5",
          "midi": 75,
          "time": 41.40000000000014,
          "velocity": 0.952755905511811,
          "duration": 0.20000000000000284
        },
        {
          "name": "F6",
          "midi": 89,
          "time": 41.60000000000014,
          "velocity": 0.952755905511811,
          "duration": 0.6000000000000014
        },
        {
          "name": "F6",
          "midi": 89,
          "time": 42.200000000000145,
          "velocity": 0.952755905511811,
          "duration": 0.20000000000000284
        },
        {
          "name": "F6",
          "midi": 89,
          "time": 42.60000000000015,
          "velocity": 0.952755905511811,
          "duration": 0.10000000000000142
        },
        {
          "name": "C6",
          "midi": 84,
          "time": 42.70000000000015,
          "velocity": 0.952755905511811,
          "duration": 0.10000000000000142
        },
        {
          "name": "D#6",
          "midi": 87,
          "time": 42.80000000000015,
          "velocity": 0.952755905511811,
          "duration": 0.10000000000000142
        },
        {
          "name": "F6",
          "midi": 89,
          "time": 42.900000000000155,
          "velocity": 0.952755905511811,
          "duration": 0.10000000000000142
        },
        {
          "name": "G#6",
          "midi": 92,
          "time": 43.000000000000156,
          "velocity": 0.952755905511811,
          "duration": 0.10000000000000142
        },
        {
          "name": "A#6",
          "midi": 94,
          "time": 43.10000000000016,
          "velocity": 0.952755905511811,
          "duration": 0.10000000000000142
        },
        {
          "name": "F6",
          "midi": 89,
          "time": 43.20000000000016,
          "velocity": 0.952755905511811,
          "duration": 0.10000000000000142
        },
        {
          "name": "C6",
          "midi": 84,
          "time": 43.30000000000016,
          "velocity": 0.952755905511811,
          "duration": 0.10000000000000142
        },
        {
          "name": "D#6",
          "midi": 87,
          "time": 43.40000000000016,
          "velocity": 0.952755905511811,
          "duration": 0.10000000000000142
        },
        {
          "name": "A#5",
          "midi": 82,
          "time": 43.50000000000016,
          "velocity": 0.952755905511811,
          "duration": 0.10000000000000142
        },
        {
          "name": "C6",
          "midi": 84,
          "time": 43.600000000000165,
          "velocity": 0.952755905511811,
          "duration": 0.10000000000000142
        },
        {
          "name": "G#5",
          "midi": 80,
          "time": 43.700000000000166,
          "velocity": 0.952755905511811,
          "duration": 0.10000000000000142
        },
        {
          "name": "G5",
          "midi": 79,
          "time": 43.80000000000017,
          "velocity": 0.952755905511811,
          "duration": 0.10000000000000142
        },
        {
          "name": "D#5",
          "midi": 75,
          "time": 43.90000000000017,
          "velocity": 0.952755905511811,
          "duration": 0.10000000000000142
        },
        {
          "name": "C5",
          "midi": 72,
          "time": 44.00000000000017,
          "velocity": 0.952755905511811,
          "duration": 0.29999999999999716
        },
        {
          "name": "D#5",
          "midi": 75,
          "time": 44.30000000000017,
          "velocity": 0.952755905511811,
          "duration": 0.20000000000000284
        },
        {
          "name": "E5",
          "midi": 76,
          "time": 44.50000000000017,
          "velocity": 0.952755905511811,
          "duration": 0.10000000000000142
        },
        {
          "name": "F5",
          "midi": 77,
          "time": 44.59916666666684,
          "velocity": 0.952755905511811,
          "duration": 0.10000000000000142
        },
        {
          "name": "C5",
          "midi": 72,
          "time": 44.70000000000017,
          "velocity": 0.952755905511811,
          "duration": 0.09916666666666885
        },
        {
          "name": "C5",
          "midi": 72,
          "time": 44.800000000000175,
          "velocity": 0.952755905511811,
          "duration": 0.29999999999999716
        },
        {
          "name": "C5",
          "midi": 72,
          "time": 45.20000000000017,
          "velocity": 0.952755905511811,
          "duration": 0.29999999999999716
        },
        {
          "name": "C5",
          "midi": 72,
          "time": 45.60000000000017,
          "velocity": 0.952755905511811,
          "duration": 0.20000000000000284
        },
        {
          "name": "G4",
          "midi": 67,
          "time": 45.800000000000175,
          "velocity": 0.952755905511811,
          "duration": 0.20000000000000284
        },
        {
          "name": "A#4",
          "midi": 70,
          "time": 46.00000000000018,
          "velocity": 0.952755905511811,
          "duration": 0.20000000000000284
        },
        {
          "name": "C5",
          "midi": 72,
          "time": 46.20000000000018,
          "velocity": 0.952755905511811,
          "duration": 0.3999999999999986
        },
        {
          "name": "D#5",
          "midi": 75,
          "time": 46.60000000000018,
          "velocity": 0.952755905511811,
          "duration": 0.20000000000000284
        },
        {
          "name": "F5",
          "midi": 77,
          "time": 46.80000000000018,
          "velocity": 0.952755905511811,
          "duration": 0.20000000000000284
        },
        {
          "name": "G5",
          "midi": 79,
          "time": 47.000000000000185,
          "velocity": 0.952755905511811,
          "duration": 0.20000000000000284
        },
        {
          "name": "A#5",
          "midi": 82,
          "time": 47.20000000000019,
          "velocity": 0.952755905511811,
          "duration": 0.20000000000000284
        },
        {
          "name": "C6",
          "midi": 84,
          "time": 47.40000000000019,
          "velocity": 0.952755905511811,
          "duration": 0.20000000000000284
        },
        {
          "name": "G5",
          "midi": 79,
          "time": 47.60000000000019,
          "velocity": 0.952755905511811,
          "duration": 0.20000000000000284
        },
        {
          "name": "D#5",
          "midi": 75,
          "time": 47.800000000000196,
          "velocity": 0.952755905511811,
          "duration": 0.20000000000000284
        },
        {
          "name": "G#4",
          "midi": 68,
          "time": 48.0000000000002,
          "velocity": 0.9212598425196851,
          "duration": 3.193333333333335
        },
        {
          "name": "C5",
          "midi": 72,
          "time": 49.2000000000002,
          "velocity": 0.9212598425196851,
          "duration": 0.3999999999999986
        },
        {
          "name": "G5",
          "midi": 79,
          "time": 49.6000000000002,
          "velocity": 0.905511811023622,
          "duration": 0.6000000000000014
        },
        {
          "name": "F5",
          "midi": 77,
          "time": 50.2000000000002,
          "velocity": 0.8582677165354331,
          "duration": 0.5
        },
        {
          "name": "C5",
          "midi": 72,
          "time": 50.7000000000002,
          "velocity": 0.7952755905511811,
          "duration": 0.5
        },
        {
          "name": "A#4",
          "midi": 70,
          "time": 51.2000000000002,
          "velocity": 0.7952755905511811,
          "duration": 3.200000000000003
        },
        {
          "name": "G4",
          "midi": 67,
          "time": 62.400000000000205,
          "velocity": 0.952755905511811,
          "duration": 0.5
        },
        {
          "name": "G4",
          "midi": 67,
          "time": 63.000000000000206,
          "velocity": 0.952755905511811,
          "duration": 0.20000000000000284
        },
        {
          "name": "A#4",
          "midi": 70,
          "time": 63.20000000000021,
          "velocity": 0.952755905511811,
          "duration": 0.10000000000000142
        },
        {
          "name": "C5",
          "midi": 72,
          "time": 63.30000000000021,
          "velocity": 0.952755905511811,
          "duration": 0.10000000000000142
        },
        {
          "name": "D#5",
          "midi": 75,
          "time": 63.40000000000021,
          "velocity": 0.952755905511811,
          "duration": 0.10000000000000142
        },
        {
          "name": "F5",
          "midi": 77,
          "time": 63.50000000000021,
          "velocity": 0.952755905511811,
          "duration": 0.10000000000000142
        },
        {
          "name": "G5",
          "midi": 79,
          "time": 63.600000000000215,
          "velocity": 0.952755905511811,
          "duration": 0.10000000000000142
        },
        {
          "name": "A#5",
          "midi": 82,
          "time": 63.700000000000216,
          "velocity": 0.952755905511811,
          "duration": 0.10000000000000142
        },
        {
          "name": "D6",
          "midi": 86,
          "time": 63.80000000000022,
          "velocity": 0.952755905511811,
          "duration": 0.10000000000000142
        },
        {
          "name": "D#6",
          "midi": 87,
          "time": 63.90000000000022,
          "velocity": 0.952755905511811,
          "duration": 0.09999999999999432
        },
        {
          "name": "G#4",
          "midi": 68,
          "time": 64.00000000000021,
          "velocity": 0.952755905511811,
          "duration": 0.29999999999999716
        },
        {
          "name": "G#4",
          "midi": 68,
          "time": 64.4000000000002,
          "velocity": 0.952755905511811,
          "duration": 0.09999999999999432
        },
        {
          "name": "G#4",
          "midi": 68,
          "time": 64.6000000000002,
          "velocity": 0.952755905511811,
          "duration": 0.5999999999999943
        },
        {
          "name": "A#5",
          "midi": 82,
          "time": 65.20000000000019,
          "velocity": 0.952755905511811,
          "duration": 0.09999999999999432
        },
        {
          "name": "C6",
          "midi": 84,
          "time": 65.30000000000018,
          "velocity": 0.952755905511811,
          "duration": 0.09999999999999432
        },
        {
          "name": "G5",
          "midi": 79,
          "time": 65.40000000000018,
          "velocity": 0.952755905511811,
          "duration": 0.09999999999999432
        },
        {
          "name": "D#5",
          "midi": 75,
          "time": 65.50000000000017,
          "velocity": 0.952755905511811,
          "duration": 0.09999999999999432
        },
        {
          "name": "F5",
          "midi": 77,
          "time": 65.60000000000016,
          "velocity": 0.952755905511811,
          "duration": 0.09999999999999432
        },
        {
          "name": "C5",
          "midi": 72,
          "time": 65.70000000000016,
          "velocity": 0.952755905511811,
          "duration": 0.09999999999999432
        },
        {
          "name": "D#5",
          "midi": 75,
          "time": 65.80000000000015,
          "velocity": 0.952755905511811,
          "duration": 0.09999999999999432
        },
        {
          "name": "F5",
          "midi": 77,
          "time": 65.90000000000015,
          "velocity": 0.952755905511811,
          "duration": 0.09999999999999432
        },
        {
          "name": "C5",
          "midi": 72,
          "time": 66.00000000000014,
          "velocity": 0.952755905511811,
          "duration": 0.09999999999999432
        },
        {
          "name": "D#5",
          "midi": 75,
          "time": 66.10000000000014,
          "velocity": 0.952755905511811,
          "duration": 0.09999999999999432
        },
        {
          "name": "G#4",
          "midi": 68,
          "time": 66.20000000000013,
          "velocity": 0.952755905511811,
          "duration": 0.10000000000000853
        },
        {
          "name": "C5",
          "midi": 72,
          "time": 66.29000000000013,
          "velocity": 0.952755905511811,
          "duration": 0.10000000000000853
        },
        {
          "name": "D#5",
          "midi": 75,
          "time": 66.39000000000014,
          "velocity": 0.952755905511811,
          "duration": 0.09999999999999432
        },
        {
          "name": "G5",
          "midi": 79,
          "time": 66.49000000000014,
          "velocity": 0.952755905511811,
          "duration": 0.09999999999999432
        },
        {
          "name": "A#5",
          "midi": 82,
          "time": 66.59000000000013,
          "velocity": 0.952755905511811,
          "duration": 0.09999999999999432
        },
        {
          "name": "C6",
          "midi": 84,
          "time": 66.70750000000012,
          "velocity": 0.952755905511811,
          "duration": 0.09999999999999432
        },
        {
          "name": "D#6",
          "midi": 87,
          "time": 66.80000000000013,
          "velocity": 0.952755905511811,
          "duration": 0.09999999999999432
        },
        {
          "name": "D6",
          "midi": 86,
          "time": 66.91250000000012,
          "velocity": 0.952755905511811,
          "duration": 0.10000000000000853
        },
        {
          "name": "A#5",
          "midi": 82,
          "time": 67.00000000000013,
          "velocity": 0.952755905511811,
          "duration": 0.10000000000000853
        },
        {
          "name": "D#5",
          "midi": 75,
          "time": 67.10000000000014,
          "velocity": 0.952755905511811,
          "duration": 0.09999999999999432
        },
        {
          "name": "F5",
          "midi": 77,
          "time": 67.20000000000013,
          "velocity": 0.952755905511811,
          "duration": 0.5999999999999943
        },
        {
          "name": "G#4",
          "midi": 68,
          "time": 67.80000000000013,
          "velocity": 0.952755905511811,
          "duration": 0.5999999999999943
        },
        {
          "name": "G5",
          "midi": 79,
          "time": 68.40000000000012,
          "velocity": 0.952755905511811,
          "duration": 0.5999999999999943
        },
        {
          "name": "G#5",
          "midi": 80,
          "time": 69.00000000000011,
          "velocity": 0.952755905511811,
          "duration": 0.5999999999999943
        },
        {
          "name": "A#5",
          "midi": 82,
          "time": 69.60000000000011,
          "velocity": 0.952755905511811,
          "duration": 0.5999999999999943
        },
        {
          "name": "C6",
          "midi": 84,
          "time": 70.2000000000001,
          "velocity": 0.952755905511811,
          "duration": 0.5999999999999943
        },
        {
          "name": "A#5",
          "midi": 82,
          "time": 70.8000000000001,
          "velocity": 0.952755905511811,
          "duration": 0.5999999999999943
        },
        {
          "name": "G#5",
          "midi": 80,
          "time": 71.40000000000009,
          "velocity": 0.952755905511811,
          "duration": 0.5999999999999943
        },
        {
          "name": "G5",
          "midi": 79,
          "time": 72.00000000000009,
          "velocity": 0.952755905511811,
          "duration": 0.29999999999998295
        },
        {
          "name": "D#6",
          "midi": 87,
          "time": 72.00000000000009,
          "velocity": 0.952755905511811,
          "duration": 0.09999999999999432
        },
        {
          "name": "D6",
          "midi": 86,
          "time": 72.10000000000008,
          "velocity": 0.952755905511811,
          "duration": 0.09999999999999432
        },
        {
          "name": "G5",
          "midi": 79,
          "time": 72.20000000000007,
          "velocity": 0.952755905511811,
          "duration": 0.39999999999997726
        },
        {
          "name": "A#5",
          "midi": 82,
          "time": 72.30000000000007,
          "velocity": 0.952755905511811,
          "duration": 0.09999999999999432
        },
        {
          "name": "C6",
          "midi": 84,
          "time": 72.40000000000006,
          "velocity": 0.952755905511811,
          "duration": 0.09999999999999432
        },
        {
          "name": "F5",
          "midi": 77,
          "time": 72.50000000000006,
          "velocity": 0.952755905511811,
          "duration": 0.09999999999999432
        },
        {
          "name": "G5",
          "midi": 79,
          "time": 72.60000000000005,
          "velocity": 0.952755905511811,
          "duration": 0.09999999999999432
        },
        {
          "name": "G6",
          "midi": 91,
          "time": 72.60000000000005,
          "velocity": 0.952755905511811,
          "duration": 0.5999999999999659
        },
        {
          "name": "D#5",
          "midi": 75,
          "time": 72.70000000000005,
          "velocity": 0.952755905511811,
          "duration": 0.09999999999999432
        },
        {
          "name": "D5",
          "midi": 74,
          "time": 72.80000000000004,
          "velocity": 0.952755905511811,
          "duration": 0.09999999999999432
        },
        {
          "name": "A#4",
          "midi": 70,
          "time": 72.90000000000003,
          "velocity": 0.952755905511811,
          "duration": 0.09999999999999432
        },
        {
          "name": "C5",
          "midi": 72,
          "time": 73.00000000000003,
          "velocity": 0.952755905511811,
          "duration": 0.09999999999999432
        },
        {
          "name": "G4",
          "midi": 67,
          "time": 73.20000000000002,
          "velocity": 0.952755905511811,
          "duration": 0.4000000000000057
        },
        {
          "name": "G4",
          "midi": 67,
          "time": 75.20000000000002,
          "velocity": 0.952755905511811,
          "duration": 0.5
        },
        {
          "name": "G5",
          "midi": 79,
          "time": 75.20000000000002,
          "velocity": 0.952755905511811,
          "duration": 0.5
        },
        {
          "name": "G4",
          "midi": 67,
          "time": 75.80000000000001,
          "velocity": 0.952755905511811,
          "duration": 0.20000000000000284
        },
        {
          "name": "G5",
          "midi": 79,
          "time": 75.80000000000001,
          "velocity": 0.952755905511811,
          "duration": 0.20000000000000284
        },
        {
          "name": "A#4",
          "midi": 70,
          "time": 76.00000000000001,
          "velocity": 0.952755905511811,
          "duration": 0.09999999999999432
        },
        {
          "name": "A#5",
          "midi": 82,
          "time": 76.00000000000001,
          "velocity": 0.952755905511811,
          "duration": 0.09999999999999432
        },
        {
          "name": "C5",
          "midi": 72,
          "time": 76.10000000000001,
          "velocity": 0.952755905511811,
          "duration": 0.09999999999999432
        },
        {
          "name": "C6",
          "midi": 84,
          "time": 76.10000000000001,
          "velocity": 0.952755905511811,
          "duration": 0.09999999999999432
        },
        {
          "name": "D#5",
          "midi": 75,
          "time": 76.2,
          "velocity": 0.952755905511811,
          "duration": 0.09999999999999432
        },
        {
          "name": "D#6",
          "midi": 87,
          "time": 76.2,
          "velocity": 0.952755905511811,
          "duration": 0.09999999999999432
        },
        {
          "name": "F5",
          "midi": 77,
          "time": 76.3,
          "velocity": 0.952755905511811,
          "duration": 0.09999999999999432
        },
        {
          "name": "F6",
          "midi": 89,
          "time": 76.3,
          "velocity": 0.952755905511811,
          "duration": 0.09999999999999432
        },
        {
          "name": "G5",
          "midi": 79,
          "time": 76.39999999999999,
          "velocity": 0.952755905511811,
          "duration": 0.09999999999999432
        },
        {
          "name": "G6",
          "midi": 91,
          "time": 76.39999999999999,
          "velocity": 0.952755905511811,
          "duration": 0.09999999999999432
        },
        {
          "name": "A#5",
          "midi": 82,
          "time": 76.49999999999999,
          "velocity": 0.952755905511811,
          "duration": 0.09999999999999432
        },
        {
          "name": "A#6",
          "midi": 94,
          "time": 76.49999999999999,
          "velocity": 0.952755905511811,
          "duration": 0.09999999999999432
        },
        {
          "name": "D6",
          "midi": 86,
          "time": 76.59999999999998,
          "velocity": 0.952755905511811,
          "duration": 0.09999999999999432
        },
        {
          "name": "D7",
          "midi": 98,
          "time": 76.59999999999998,
          "velocity": 0.952755905511811,
          "duration": 0.09999999999999432
        },
        {
          "name": "D#6",
          "midi": 87,
          "time": 76.69999999999997,
          "velocity": 0.952755905511811,
          "duration": 0.09999999999999432
        },
        {
          "name": "D#7",
          "midi": 99,
          "time": 76.69999999999997,
          "velocity": 0.952755905511811,
          "duration": 0.09999999999999432
        },
        {
          "name": "G#4",
          "midi": 68,
          "time": 76.79999999999997,
          "velocity": 0.952755905511811,
          "duration": 0.29999999999999716
        },
        {
          "name": "G#5",
          "midi": 80,
          "time": 76.79999999999997,
          "velocity": 0.952755905511811,
          "duration": 0.29999999999999716
        },
        {
          "name": "G#4",
          "midi": 68,
          "time": 77.19999999999996,
          "velocity": 0.952755905511811,
          "duration": 0.09999999999999432
        },
        {
          "name": "G#5",
          "midi": 80,
          "time": 77.19999999999996,
          "velocity": 0.952755905511811,
          "duration": 0.09999999999999432
        },
        {
          "name": "G#4",
          "midi": 68,
          "time": 77.39999999999995,
          "velocity": 0.952755905511811,
          "duration": 0.5999999999999943
        },
        {
          "name": "G#5",
          "midi": 80,
          "time": 77.39999999999995,
          "velocity": 0.952755905511811,
          "duration": 0.5999999999999943
        },
        {
          "name": "A#5",
          "midi": 82,
          "time": 77.99999999999994,
          "velocity": 0.952755905511811,
          "duration": 0.09999999999999432
        },
        {
          "name": "A#6",
          "midi": 94,
          "time": 77.99999999999994,
          "velocity": 0.952755905511811,
          "duration": 0.09999999999999432
        },
        {
          "name": "C6",
          "midi": 84,
          "time": 78.09999999999994,
          "velocity": 0.952755905511811,
          "duration": 0.09999999999999432
        },
        {
          "name": "C7",
          "midi": 96,
          "time": 78.09999999999994,
          "velocity": 0.952755905511811,
          "duration": 0.09999999999999432
        },
        {
          "name": "G5",
          "midi": 79,
          "time": 78.19999999999993,
          "velocity": 0.952755905511811,
          "duration": 0.09999999999999432
        },
        {
          "name": "G6",
          "midi": 91,
          "time": 78.19999999999993,
          "velocity": 0.952755905511811,
          "duration": 0.09999999999999432
        },
        {
          "name": "D#5",
          "midi": 75,
          "time": 78.29999999999993,
          "velocity": 0.952755905511811,
          "duration": 0.09999999999999432
        },
        {
          "name": "D#6",
          "midi": 87,
          "time": 78.29999999999993,
          "velocity": 0.952755905511811,
          "duration": 0.09999999999999432
        },
        {
          "name": "F5",
          "midi": 77,
          "time": 78.39999999999992,
          "velocity": 0.952755905511811,
          "duration": 0.09999999999999432
        },
        {
          "name": "F6",
          "midi": 89,
          "time": 78.39999999999992,
          "velocity": 0.952755905511811,
          "duration": 0.09999999999999432
        },
        {
          "name": "C5",
          "midi": 72,
          "time": 78.49999999999991,
          "velocity": 0.952755905511811,
          "duration": 0.09999999999999432
        },
        {
          "name": "C6",
          "midi": 84,
          "time": 78.49999999999991,
          "velocity": 0.952755905511811,
          "duration": 0.09999999999999432
        },
        {
          "name": "D#5",
          "midi": 75,
          "time": 78.59999999999991,
          "velocity": 0.952755905511811,
          "duration": 0.09999999999999432
        },
        {
          "name": "D#6",
          "midi": 87,
          "time": 78.59999999999991,
          "velocity": 0.952755905511811,
          "duration": 0.09999999999999432
        },
        {
          "name": "F5",
          "midi": 77,
          "time": 78.6999999999999,
          "velocity": 0.952755905511811,
          "duration": 0.09999999999999432
        },
        {
          "name": "F6",
          "midi": 89,
          "time": 78.6999999999999,
          "velocity": 0.952755905511811,
          "duration": 0.09999999999999432
        },
        {
          "name": "C5",
          "midi": 72,
          "time": 78.7999999999999,
          "velocity": 0.952755905511811,
          "duration": 0.09999999999999432
        },
        {
          "name": "C6",
          "midi": 84,
          "time": 78.7999999999999,
          "velocity": 0.952755905511811,
          "duration": 0.09999999999999432
        },
        {
          "name": "D#5",
          "midi": 75,
          "time": 78.89999999999989,
          "velocity": 0.952755905511811,
          "duration": 0.09999999999999432
        },
        {
          "name": "D#6",
          "midi": 87,
          "time": 78.89999999999989,
          "velocity": 0.952755905511811,
          "duration": 0.09999999999999432
        },
        {
          "name": "G#4",
          "midi": 68,
          "time": 78.99999999999989,
          "velocity": 0.952755905511811,
          "duration": 0.10000000000000853
        },
        {
          "name": "G#5",
          "midi": 80,
          "time": 78.99999999999989,
          "velocity": 0.952755905511811,
          "duration": 0.10000000000000853
        },
        {
          "name": "C5",
          "midi": 72,
          "time": 79.08999999999989,
          "velocity": 0.952755905511811,
          "duration": 0.10000000000000853
        },
        {
          "name": "C6",
          "midi": 84,
          "time": 79.08999999999989,
          "velocity": 0.952755905511811,
          "duration": 0.10000000000000853
        },
        {
          "name": "D#5",
          "midi": 75,
          "time": 79.1899999999999,
          "velocity": 0.952755905511811,
          "duration": 0.09999999999999432
        },
        {
          "name": "D#6",
          "midi": 87,
          "time": 79.1899999999999,
          "velocity": 0.952755905511811,
          "duration": 0.09999999999999432
        },
        {
          "name": "G5",
          "midi": 79,
          "time": 79.28999999999989,
          "velocity": 0.952755905511811,
          "duration": 0.09999999999999432
        },
        {
          "name": "G6",
          "midi": 91,
          "time": 79.28999999999989,
          "velocity": 0.952755905511811,
          "duration": 0.09999999999999432
        },
        {
          "name": "A#5",
          "midi": 82,
          "time": 79.38999999999989,
          "velocity": 0.952755905511811,
          "duration": 0.09999999999999432
        },
        {
          "name": "A#6",
          "midi": 94,
          "time": 79.38999999999989,
          "velocity": 0.952755905511811,
          "duration": 0.09999999999999432
        },
        {
          "name": "C6",
          "midi": 84,
          "time": 79.50749999999988,
          "velocity": 0.952755905511811,
          "duration": 0.09999999999999432
        },
        {
          "name": "C7",
          "midi": 96,
          "time": 79.50749999999988,
          "velocity": 0.952755905511811,
          "duration": 0.09999999999999432
        },
        {
          "name": "D#6",
          "midi": 87,
          "time": 79.59999999999988,
          "velocity": 0.952755905511811,
          "duration": 0.09999999999999432
        },
        {
          "name": "D#7",
          "midi": 99,
          "time": 79.59999999999988,
          "velocity": 0.952755905511811,
          "duration": 0.09999999999999432
        },
        {
          "name": "D6",
          "midi": 86,
          "time": 79.71249999999988,
          "velocity": 0.952755905511811,
          "duration": 0.10000000000000853
        },
        {
          "name": "D7",
          "midi": 98,
          "time": 79.71249999999988,
          "velocity": 0.952755905511811,
          "duration": 0.10000000000000853
        },
        {
          "name": "A#5",
          "midi": 82,
          "time": 79.79999999999988,
          "velocity": 0.952755905511811,
          "duration": 0.10000000000000853
        },
        {
          "name": "A#6",
          "midi": 94,
          "time": 79.79999999999988,
          "velocity": 0.952755905511811,
          "duration": 0.10000000000000853
        },
        {
          "name": "D#5",
          "midi": 75,
          "time": 79.89999999999989,
          "velocity": 0.952755905511811,
          "duration": 0.09999999999999432
        },
        {
          "name": "D#6",
          "midi": 87,
          "time": 79.89999999999989,
          "velocity": 0.952755905511811,
          "duration": 0.09999999999999432
        },
        {
          "name": "F5",
          "midi": 77,
          "time": 79.99999999999989,
          "velocity": 0.952755905511811,
          "duration": 0.5999999999999943
        },
        {
          "name": "F6",
          "midi": 89,
          "time": 79.99999999999989,
          "velocity": 0.952755905511811,
          "duration": 0.5999999999999943
        },
        {
          "name": "G#4",
          "midi": 68,
          "time": 80.59999999999988,
          "velocity": 0.952755905511811,
          "duration": 0.5999999999999943
        },
        {
          "name": "G#5",
          "midi": 80,
          "time": 80.59999999999988,
          "velocity": 0.952755905511811,
          "duration": 0.5999999999999943
        },
        {
          "name": "G5",
          "midi": 79,
          "time": 81.19999999999987,
          "velocity": 0.952755905511811,
          "duration": 0.5999999999999943
        },
        {
          "name": "G6",
          "midi": 91,
          "time": 81.19999999999987,
          "velocity": 0.952755905511811,
          "duration": 0.5999999999999943
        },
        {
          "name": "G#5",
          "midi": 80,
          "time": 81.79999999999987,
          "velocity": 0.952755905511811,
          "duration": 0.5999999999999943
        },
        {
          "name": "G#6",
          "midi": 92,
          "time": 81.79999999999987,
          "velocity": 0.952755905511811,
          "duration": 0.5999999999999943
        },
        {
          "name": "A#5",
          "midi": 82,
          "time": 82.39999999999986,
          "velocity": 0.952755905511811,
          "duration": 0.5999999999999943
        },
        {
          "name": "A#6",
          "midi": 94,
          "time": 82.39999999999986,
          "velocity": 0.952755905511811,
          "duration": 0.5999999999999943
        },
        {
          "name": "C6",
          "midi": 84,
          "time": 82.99999999999986,
          "velocity": 0.952755905511811,
          "duration": 0.5999999999999943
        },
        {
          "name": "C7",
          "midi": 96,
          "time": 82.99999999999986,
          "velocity": 0.952755905511811,
          "duration": 0.5999999999999943
        },
        {
          "name": "A#5",
          "midi": 82,
          "time": 83.59999999999985,
          "velocity": 0.952755905511811,
          "duration": 0.5999999999999943
        },
        {
          "name": "A#6",
          "midi": 94,
          "time": 83.59999999999985,
          "velocity": 0.952755905511811,
          "duration": 0.5999999999999943
        },
        {
          "name": "G#5",
          "midi": 80,
          "time": 84.19999999999985,
          "velocity": 0.952755905511811,
          "duration": 0.5999999999999943
        },
        {
          "name": "G#6",
          "midi": 92,
          "time": 84.19999999999985,
          "velocity": 0.952755905511811,
          "duration": 0.5999999999999943
        },
        {
          "name": "G5",
          "midi": 79,
          "time": 84.79999999999984,
          "velocity": 0.952755905511811,
          "duration": 0.29999999999998295
        },
        {
          "name": "D#6",
          "midi": 87,
          "time": 84.79999999999984,
          "velocity": 0.952755905511811,
          "duration": 0.09999999999999432
        },
        {
          "name": "G6",
          "midi": 91,
          "time": 84.79999999999984,
          "velocity": 0.952755905511811,
          "duration": 0.29999999999998295
        },
        {
          "name": "D#7",
          "midi": 99,
          "time": 84.79999999999984,
          "velocity": 0.952755905511811,
          "duration": 0.09999999999999432
        },
        {
          "name": "D6",
          "midi": 86,
          "time": 84.89999999999984,
          "velocity": 0.952755905511811,
          "duration": 0.09999999999999432
        },
        {
          "name": "D7",
          "midi": 98,
          "time": 84.89999999999984,
          "velocity": 0.952755905511811,
          "duration": 0.09999999999999432
        },
        {
          "name": "G5",
          "midi": 79,
          "time": 84.99999999999983,
          "velocity": 0.952755905511811,
          "duration": 0.39999999999997726
        },
        {
          "name": "G6",
          "midi": 91,
          "time": 84.99999999999983,
          "velocity": 0.952755905511811,
          "duration": 0.39999999999997726
        },
        {
          "name": "A#5",
          "midi": 82,
          "time": 85.09999999999982,
          "velocity": 0.952755905511811,
          "duration": 0.09999999999999432
        },
        {
          "name": "A#6",
          "midi": 94,
          "time": 85.09999999999982,
          "velocity": 0.952755905511811,
          "duration": 0.09999999999999432
        },
        {
          "name": "C6",
          "midi": 84,
          "time": 85.19999999999982,
          "velocity": 0.952755905511811,
          "duration": 0.09999999999999432
        },
        {
          "name": "C7",
          "midi": 96,
          "time": 85.19999999999982,
          "velocity": 0.952755905511811,
          "duration": 0.09999999999999432
        },
        {
          "name": "F5",
          "midi": 77,
          "time": 85.29999999999981,
          "velocity": 0.952755905511811,
          "duration": 0.09999999999999432
        },
        {
          "name": "F6",
          "midi": 89,
          "time": 85.29999999999981,
          "velocity": 0.952755905511811,
          "duration": 0.09999999999999432
        },
        {
          "name": "G5",
          "midi": 79,
          "time": 85.3999999999998,
          "velocity": 0.952755905511811,
          "duration": 0.09999999999999432
        },
        {
          "name": "G6",
          "midi": 91,
          "time": 85.3999999999998,
          "velocity": 0.952755905511811,
          "duration": 0.09999999999999432
        },
        {
          "name": "G6",
          "midi": 91,
          "time": 85.3999999999998,
          "velocity": 0.952755905511811,
          "duration": 0.5999999999999659
        },
        {
          "name": "G7",
          "midi": 103,
          "time": 85.3999999999998,
          "velocity": 0.952755905511811,
          "duration": 0.5999999999999659
        },
        {
          "name": "D#5",
          "midi": 75,
          "time": 85.4999999999998,
          "velocity": 0.952755905511811,
          "duration": 0.09999999999999432
        },
        {
          "name": "D#6",
          "midi": 87,
          "time": 85.4999999999998,
          "velocity": 0.952755905511811,
          "duration": 0.09999999999999432
        },
        {
          "name": "D5",
          "midi": 74,
          "time": 85.5999999999998,
          "velocity": 0.952755905511811,
          "duration": 0.09999999999999432
        },
        {
          "name": "D6",
          "midi": 86,
          "time": 85.5999999999998,
          "velocity": 0.952755905511811,
          "duration": 0.09999999999999432
        },
        {
          "name": "A#4",
          "midi": 70,
          "time": 85.69999999999979,
          "velocity": 0.952755905511811,
          "duration": 0.09999999999999432
        },
        {
          "name": "A#5",
          "midi": 82,
          "time": 85.69999999999979,
          "velocity": 0.952755905511811,
          "duration": 0.09999999999999432
        },
        {
          "name": "C5",
          "midi": 72,
          "time": 85.79999999999978,
          "velocity": 0.952755905511811,
          "duration": 0.09999999999999432
        },
        {
          "name": "C6",
          "midi": 84,
          "time": 85.79999999999978,
          "velocity": 0.952755905511811,
          "duration": 0.09999999999999432
        },
        {
          "name": "G4",
          "midi": 67,
          "time": 85.99999999999977,
          "velocity": 0.952755905511811,
          "duration": 0.4000000000000057
        },
        {
          "name": "G5",
          "midi": 79,
          "time": 85.99999999999977,
          "velocity": 0.952755905511811,
          "duration": 0.4000000000000057
        }
      ],
      "controlChanges": {},
      "id": 6,
      "name": "electric bass",
      "channelNumber": 0,
      "isPercussion": false
    },
    {
      "startTime": 0,
      "duration": 86.00000000000007,
      "length": 189,
      "notes": [
        {
          "name": "C2",
          "midi": 36,
          "time": 0,
          "velocity": 1,
          "duration": 0.2
        },
        {
          "name": "C2",
          "midi": 36,
          "time": 0.9000000000000001,
          "velocity": 0.8818897637795275,
          "duration": 0.10000000000000009
        },
        {
          "name": "C2",
          "midi": 36,
          "time": 1.0000000000000002,
          "velocity": 1,
          "duration": 0.19999999999999996
        },
        {
          "name": "C2",
          "midi": 36,
          "time": 1.0000000000000002,
          "velocity": 1,
          "duration": 0.19999999999999996
        },
        {
          "name": "C2",
          "midi": 36,
          "time": 1.6,
          "velocity": 1,
          "duration": 0.19999999999999996
        },
        {
          "name": "C2",
          "midi": 36,
          "time": 2.4000000000000004,
          "velocity": 0.8818897637795275,
          "duration": 0.10000000000000009
        },
        {
          "name": "C2",
          "midi": 36,
          "time": 2.5000000000000004,
          "velocity": 0.8818897637795275,
          "duration": 0.10000000000000009
        },
        {
          "name": "C2",
          "midi": 36,
          "time": 2.6000000000000005,
          "velocity": 1,
          "duration": 0.20000000000000018
        },
        {
          "name": "C2",
          "midi": 36,
          "time": 3.2000000000000006,
          "velocity": 1,
          "duration": 0.20000000000000018
        },
        {
          "name": "C2",
          "midi": 36,
          "time": 4.1000000000000005,
          "velocity": 0.8818897637795275,
          "duration": 0.09999999999999964
        },
        {
          "name": "C2",
          "midi": 36,
          "time": 4.2,
          "velocity": 1,
          "duration": 0.20000000000000018
        },
        {
          "name": "C2",
          "midi": 36,
          "time": 4.2,
          "velocity": 1,
          "duration": 0.20000000000000018
        },
        {
          "name": "C2",
          "midi": 36,
          "time": 4.800000000000001,
          "velocity": 1,
          "duration": 0.20000000000000018
        },
        {
          "name": "C2",
          "midi": 36,
          "time": 5.600000000000001,
          "velocity": 0.8818897637795275,
          "duration": 0.09999999999999964
        },
        {
          "name": "C2",
          "midi": 36,
          "time": 5.700000000000001,
          "velocity": 0.8818897637795275,
          "duration": 0.09999999999999964
        },
        {
          "name": "C2",
          "midi": 36,
          "time": 5.800000000000001,
          "velocity": 1,
          "duration": 0.20000000000000018
        },
        {
          "name": "C2",
          "midi": 36,
          "time": 6.400000000000001,
          "velocity": 1,
          "duration": 0.20000000000000018
        },
        {
          "name": "C2",
          "midi": 36,
          "time": 7.300000000000002,
          "velocity": 0.8818897637795275,
          "duration": 0.09999999999999964
        },
        {
          "name": "C2",
          "midi": 36,
          "time": 7.400000000000001,
          "velocity": 1,
          "duration": 0.20000000000000018
        },
        {
          "name": "C2",
          "midi": 36,
          "time": 7.400000000000001,
          "velocity": 1,
          "duration": 0.20000000000000018
        },
        {
          "name": "C2",
          "midi": 36,
          "time": 8.000000000000002,
          "velocity": 1,
          "duration": 0.1999999999999993
        },
        {
          "name": "C2",
          "midi": 36,
          "time": 8.8,
          "velocity": 0.8818897637795275,
          "duration": 0.09999999999999964
        },
        {
          "name": "C2",
          "midi": 36,
          "time": 8.9,
          "velocity": 0.8818897637795275,
          "duration": 0.09999999999999964
        },
        {
          "name": "C2",
          "midi": 36,
          "time": 9,
          "velocity": 1,
          "duration": 0.1999999999999993
        },
        {
          "name": "C2",
          "midi": 36,
          "time": 9.6,
          "velocity": 1,
          "duration": 0.1999999999999993
        },
        {
          "name": "C2",
          "midi": 36,
          "time": 10.499999999999998,
          "velocity": 0.8818897637795275,
          "duration": 0.09999999999999964
        },
        {
          "name": "C2",
          "midi": 36,
          "time": 10.599999999999998,
          "velocity": 1,
          "duration": 0.1999999999999993
        },
        {
          "name": "C2",
          "midi": 36,
          "time": 10.599999999999998,
          "velocity": 1,
          "duration": 0.1999999999999993
        },
        {
          "name": "C2",
          "midi": 36,
          "time": 11.199999999999998,
          "velocity": 1,
          "duration": 0.1999999999999993
        },
        {
          "name": "C2",
          "midi": 36,
          "time": 11.999999999999996,
          "velocity": 0.8818897637795275,
          "duration": 0.09999999999999964
        },
        {
          "name": "C2",
          "midi": 36,
          "time": 12.099999999999996,
          "velocity": 0.8818897637795275,
          "duration": 0.09999999999999964
        },
        {
          "name": "C2",
          "midi": 36,
          "time": 12.199999999999996,
          "velocity": 1,
          "duration": 0.1999999999999993
        },
        {
          "name": "C2",
          "midi": 36,
          "time": 12.799999999999995,
          "velocity": 1,
          "duration": 0.1999999999999993
        },
        {
          "name": "C2",
          "midi": 36,
          "time": 13.699999999999994,
          "velocity": 0.8818897637795275,
          "duration": 0.09999999999999964
        },
        {
          "name": "C2",
          "midi": 36,
          "time": 13.799999999999994,
          "velocity": 1,
          "duration": 0.1999999999999993
        },
        {
          "name": "C2",
          "midi": 36,
          "time": 13.799999999999994,
          "velocity": 1,
          "duration": 0.1999999999999993
        },
        {
          "name": "C2",
          "midi": 36,
          "time": 14.399999999999993,
          "velocity": 1,
          "duration": 0.1999999999999993
        },
        {
          "name": "C2",
          "midi": 36,
          "time": 15.199999999999992,
          "velocity": 0.8818897637795275,
          "duration": 0.09999999999999964
        },
        {
          "name": "C2",
          "midi": 36,
          "time": 15.299999999999992,
          "velocity": 0.8818897637795275,
          "duration": 0.09999999999999964
        },
        {
          "name": "C2",
          "midi": 36,
          "time": 15.399999999999991,
          "velocity": 1,
          "duration": 0.1999999999999993
        },
        {
          "name": "C2",
          "midi": 36,
          "time": 15.999999999999991,
          "velocity": 1,
          "duration": 0.20000000000000107
        },
        {
          "name": "C2",
          "midi": 36,
          "time": 16.89999999999999,
          "velocity": 0.8818897637795275,
          "duration": 0.10000000000000142
        },
        {
          "name": "C2",
          "midi": 36,
          "time": 16.999999999999993,
          "velocity": 1,
          "duration": 0.1999999999999993
        },
        {
          "name": "C2",
          "midi": 36,
          "time": 16.999999999999993,
          "velocity": 1,
          "duration": 0.1999999999999993
        },
        {
          "name": "C2",
          "midi": 36,
          "time": 17.59999999999999,
          "velocity": 1,
          "duration": 0.1999999999999993
        },
        {
          "name": "C2",
          "midi": 36,
          "time": 18.39999999999999,
          "velocity": 0.8818897637795275,
          "duration": 0.10000000000000142
        },
        {
          "name": "C2",
          "midi": 36,
          "time": 18.499999999999993,
          "velocity": 0.8818897637795275,
          "duration": 0.10000000000000142
        },
        {
          "name": "C2",
          "midi": 36,
          "time": 18.599999999999994,
          "velocity": 1,
          "duration": 0.1999999999999993
        },
        {
          "name": "C2",
          "midi": 36,
          "time": 19.199999999999992,
          "velocity": 1,
          "duration": 0.1999999999999993
        },
        {
          "name": "C2",
          "midi": 36,
          "time": 20.09999999999999,
          "velocity": 0.8818897637795275,
          "duration": 0.10000000000000142
        },
        {
          "name": "C2",
          "midi": 36,
          "time": 20.199999999999992,
          "velocity": 1,
          "duration": 0.1999999999999993
        },
        {
          "name": "C2",
          "midi": 36,
          "time": 20.199999999999992,
          "velocity": 1,
          "duration": 0.1999999999999993
        },
        {
          "name": "C2",
          "midi": 36,
          "time": 20.79999999999999,
          "velocity": 1,
          "duration": 0.1999999999999993
        },
        {
          "name": "C2",
          "midi": 36,
          "time": 21.59999999999999,
          "velocity": 0.8818897637795275,
          "duration": 0.10000000000000142
        },
        {
          "name": "C2",
          "midi": 36,
          "time": 21.699999999999992,
          "velocity": 0.8818897637795275,
          "duration": 0.10000000000000142
        },
        {
          "name": "C2",
          "midi": 36,
          "time": 21.799999999999994,
          "velocity": 1,
          "duration": 0.1999999999999993
        },
        {
          "name": "C2",
          "midi": 36,
          "time": 22.39999999999999,
          "velocity": 1,
          "duration": 0.1999999999999993
        },
        {
          "name": "C2",
          "midi": 36,
          "time": 23.29999999999999,
          "velocity": 0.8818897637795275,
          "duration": 0.10000000000000142
        },
        {
          "name": "C2",
          "midi": 36,
          "time": 23.39999999999999,
          "velocity": 1,
          "duration": 0.1999999999999993
        },
        {
          "name": "C2",
          "midi": 36,
          "time": 23.39999999999999,
          "velocity": 1,
          "duration": 0.1999999999999993
        },
        {
          "name": "C2",
          "midi": 36,
          "time": 23.99999999999999,
          "velocity": 1,
          "duration": 0.1999999999999993
        },
        {
          "name": "C2",
          "midi": 36,
          "time": 24.79999999999999,
          "velocity": 0.8818897637795275,
          "duration": 0.10000000000000142
        },
        {
          "name": "C2",
          "midi": 36,
          "time": 24.89999999999999,
          "velocity": 0.8818897637795275,
          "duration": 0.10000000000000142
        },
        {
          "name": "C2",
          "midi": 36,
          "time": 24.999999999999993,
          "velocity": 1,
          "duration": 0.1999999999999993
        },
        {
          "name": "C2",
          "midi": 36,
          "time": 25.59999999999999,
          "velocity": 1,
          "duration": 0.1999999999999993
        },
        {
          "name": "C2",
          "midi": 36,
          "time": 26.39999999999999,
          "velocity": 1,
          "duration": 0.1999999999999993
        },
        {
          "name": "C2",
          "midi": 36,
          "time": 26.39999999999999,
          "velocity": 1,
          "duration": 0.1999999999999993
        },
        {
          "name": "C2",
          "midi": 36,
          "time": 26.99999999999999,
          "velocity": 0.937007874015748,
          "duration": 0.1999999999999993
        },
        {
          "name": "C2",
          "midi": 36,
          "time": 27.19999999999999,
          "velocity": 0.937007874015748,
          "duration": 0.1999999999999993
        },
        {
          "name": "C2",
          "midi": 36,
          "time": 27.399999999999988,
          "velocity": 0.937007874015748,
          "duration": 0.10000000000000142
        },
        {
          "name": "C2",
          "midi": 36,
          "time": 27.49999999999999,
          "velocity": 0.937007874015748,
          "duration": 0.10000000000000142
        },
        {
          "name": "C2",
          "midi": 36,
          "time": 27.59999999999999,
          "velocity": 0.937007874015748,
          "duration": 0.1999999999999993
        },
        {
          "name": "C2",
          "midi": 36,
          "time": 27.99999999999999,
          "velocity": 0.8818897637795275,
          "duration": 0.1999999999999993
        },
        {
          "name": "C2",
          "midi": 36,
          "time": 28.79999999999999,
          "velocity": 1,
          "duration": 0.1999999999999993
        },
        {
          "name": "C2",
          "midi": 36,
          "time": 29.79999999999999,
          "velocity": 1,
          "duration": 0.1999999999999993
        },
        {
          "name": "C2",
          "midi": 36,
          "time": 29.79999999999999,
          "velocity": 1,
          "duration": 0.1999999999999993
        },
        {
          "name": "C2",
          "midi": 36,
          "time": 30.399999999999988,
          "velocity": 1,
          "duration": 0.1999999999999993
        },
        {
          "name": "C2",
          "midi": 36,
          "time": 31.399999999999988,
          "velocity": 1,
          "duration": 0.1999999999999993
        },
        {
          "name": "C2",
          "midi": 36,
          "time": 31.999999999999986,
          "velocity": 1,
          "duration": 0.20000000000000284
        },
        {
          "name": "C2",
          "midi": 36,
          "time": 32.999999999999986,
          "velocity": 1,
          "duration": 0.20000000000000284
        },
        {
          "name": "C2",
          "midi": 36,
          "time": 32.999999999999986,
          "velocity": 1,
          "duration": 0.20000000000000284
        },
        {
          "name": "C2",
          "midi": 36,
          "time": 33.59999999999999,
          "velocity": 1,
          "duration": 0.20000000000000284
        },
        {
          "name": "C2",
          "midi": 36,
          "time": 34.59999999999999,
          "velocity": 1,
          "duration": 0.20000000000000284
        },
        {
          "name": "C2",
          "midi": 36,
          "time": 35.19999999999999,
          "velocity": 1,
          "duration": 0.20000000000000284
        },
        {
          "name": "C2",
          "midi": 36,
          "time": 36.19999999999999,
          "velocity": 1,
          "duration": 0.20000000000000284
        },
        {
          "name": "C2",
          "midi": 36,
          "time": 36.19999999999999,
          "velocity": 1,
          "duration": 0.20000000000000284
        },
        {
          "name": "C2",
          "midi": 36,
          "time": 36.79999999999999,
          "velocity": 1,
          "duration": 0.20000000000000284
        },
        {
          "name": "C2",
          "midi": 36,
          "time": 37.79999999999999,
          "velocity": 1,
          "duration": 0.20000000000000284
        },
        {
          "name": "C2",
          "midi": 36,
          "time": 38.39999999999999,
          "velocity": 1,
          "duration": 0.20000000000000284
        },
        {
          "name": "C2",
          "midi": 36,
          "time": 39.39999999999999,
          "velocity": 1,
          "duration": 0.20000000000000284
        },
        {
          "name": "C2",
          "midi": 36,
          "time": 39.39999999999999,
          "velocity": 1,
          "duration": 0.20000000000000284
        },
        {
          "name": "C2",
          "midi": 36,
          "time": 39.99999999999999,
          "velocity": 1,
          "duration": 0.20000000000000284
        },
        {
          "name": "C2",
          "midi": 36,
          "time": 40.99999999999999,
          "velocity": 1,
          "duration": 0.20000000000000284
        },
        {
          "name": "C2",
          "midi": 36,
          "time": 41.599999999999994,
          "velocity": 1,
          "duration": 0.20000000000000284
        },
        {
          "name": "C2",
          "midi": 36,
          "time": 42.599999999999994,
          "velocity": 1,
          "duration": 0.20000000000000284
        },
        {
          "name": "C2",
          "midi": 36,
          "time": 42.599999999999994,
          "velocity": 1,
          "duration": 0.20000000000000284
        },
        {
          "name": "C2",
          "midi": 36,
          "time": 43.199999999999996,
          "velocity": 1,
          "duration": 0.20000000000000284
        },
        {
          "name": "C2",
          "midi": 36,
          "time": 44.199999999999996,
          "velocity": 1,
          "duration": 0.20000000000000284
        },
        {
          "name": "C2",
          "midi": 36,
          "time": 44.8,
          "velocity": 1,
          "duration": 0.20000000000000284
        },
        {
          "name": "C2",
          "midi": 36,
          "time": 45.8,
          "velocity": 1,
          "duration": 0.20000000000000284
        },
        {
          "name": "C2",
          "midi": 36,
          "time": 45.8,
          "velocity": 1,
          "duration": 0.20000000000000284
        },
        {
          "name": "C2",
          "midi": 36,
          "time": 46.4,
          "velocity": 1,
          "duration": 0.20000000000000284
        },
        {
          "name": "C2",
          "midi": 36,
          "time": 47.4,
          "velocity": 1,
          "duration": 0.20000000000000284
        },
        {
          "name": "C2",
          "midi": 36,
          "time": 48,
          "velocity": 1,
          "duration": 0.20000000000000284
        },
        {
          "name": "C2",
          "midi": 36,
          "time": 49,
          "velocity": 1,
          "duration": 0.20000000000000284
        },
        {
          "name": "C2",
          "midi": 36,
          "time": 49,
          "velocity": 1,
          "duration": 0.20000000000000284
        },
        {
          "name": "C2",
          "midi": 36,
          "time": 49.6,
          "velocity": 1,
          "duration": 0.20000000000000284
        },
        {
          "name": "C2",
          "midi": 36,
          "time": 50.6,
          "velocity": 1,
          "duration": 0.20000000000000284
        },
        {
          "name": "C2",
          "midi": 36,
          "time": 51.2,
          "velocity": 1,
          "duration": 0.20000000000000284
        },
        {
          "name": "C2",
          "midi": 36,
          "time": 52.2,
          "velocity": 1,
          "duration": 0.20000000000000284
        },
        {
          "name": "C2",
          "midi": 36,
          "time": 52.2,
          "velocity": 1,
          "duration": 0.20000000000000284
        },
        {
          "name": "C2",
          "midi": 36,
          "time": 52.800000000000004,
          "velocity": 1,
          "duration": 0.20000000000000284
        },
        {
          "name": "C2",
          "midi": 36,
          "time": 53.800000000000004,
          "velocity": 1,
          "duration": 0.20000000000000284
        },
        {
          "name": "C2",
          "midi": 36,
          "time": 54.400000000000006,
          "velocity": 1,
          "duration": 0.20000000000000284
        },
        {
          "name": "C2",
          "midi": 36,
          "time": 55.80000000000001,
          "velocity": 1,
          "duration": 0.20000000000000284
        },
        {
          "name": "C2",
          "midi": 36,
          "time": 57.100000000000016,
          "velocity": 1,
          "duration": 0.10000000000000142
        },
        {
          "name": "C2",
          "midi": 36,
          "time": 57.600000000000016,
          "velocity": 1,
          "duration": 0.20000000000000284
        },
        {
          "name": "C2",
          "midi": 36,
          "time": 58.30000000000002,
          "velocity": 0.8503937007874016,
          "duration": 0.10000000000000142
        },
        {
          "name": "C2",
          "midi": 36,
          "time": 58.40000000000002,
          "velocity": 0.8503937007874016,
          "duration": 0.10000000000000142
        },
        {
          "name": "C2",
          "midi": 36,
          "time": 59.00000000000002,
          "velocity": 0.8503937007874016,
          "duration": 0.20000000000000284
        },
        {
          "name": "C2",
          "midi": 36,
          "time": 59.200000000000024,
          "velocity": 0.937007874015748,
          "duration": 0.20000000000000284
        },
        {
          "name": "C2",
          "midi": 36,
          "time": 59.40000000000003,
          "velocity": 0.937007874015748,
          "duration": 0.10000000000000142
        },
        {
          "name": "C2",
          "midi": 36,
          "time": 59.50000000000003,
          "velocity": 0.937007874015748,
          "duration": 0.10000000000000142
        },
        {
          "name": "C2",
          "midi": 36,
          "time": 59.60000000000003,
          "velocity": 0.937007874015748,
          "duration": 0.20000000000000284
        },
        {
          "name": "C2",
          "midi": 36,
          "time": 60.000000000000036,
          "velocity": 0.937007874015748,
          "duration": 0.20000000000000284
        },
        {
          "name": "C2",
          "midi": 36,
          "time": 60.80000000000004,
          "velocity": 1,
          "duration": 0.20000000000000284
        },
        {
          "name": "C2",
          "midi": 36,
          "time": 61.700000000000045,
          "velocity": 0.8818897637795275,
          "duration": 0.10000000000000142
        },
        {
          "name": "C2",
          "midi": 36,
          "time": 61.80000000000005,
          "velocity": 1,
          "duration": 0.20000000000000284
        },
        {
          "name": "C2",
          "midi": 36,
          "time": 61.80000000000005,
          "velocity": 1,
          "duration": 0.20000000000000284
        },
        {
          "name": "C2",
          "midi": 36,
          "time": 62.40000000000005,
          "velocity": 1,
          "duration": 0.20000000000000284
        },
        {
          "name": "C2",
          "midi": 36,
          "time": 63.20000000000005,
          "velocity": 0.8818897637795275,
          "duration": 0.10000000000000142
        },
        {
          "name": "C2",
          "midi": 36,
          "time": 63.300000000000054,
          "velocity": 0.8818897637795275,
          "duration": 0.10000000000000142
        },
        {
          "name": "C2",
          "midi": 36,
          "time": 63.400000000000055,
          "velocity": 1,
          "duration": 0.20000000000000284
        },
        {
          "name": "C2",
          "midi": 36,
          "time": 64.00000000000006,
          "velocity": 1,
          "duration": 0.20000000000000284
        },
        {
          "name": "C2",
          "midi": 36,
          "time": 64.90000000000006,
          "velocity": 0.8818897637795275,
          "duration": 0.09999999999999432
        },
        {
          "name": "C2",
          "midi": 36,
          "time": 65.00000000000006,
          "velocity": 1,
          "duration": 0.20000000000000284
        },
        {
          "name": "C2",
          "midi": 36,
          "time": 65.00000000000006,
          "velocity": 1,
          "duration": 0.20000000000000284
        },
        {
          "name": "C2",
          "midi": 36,
          "time": 65.60000000000007,
          "velocity": 1,
          "duration": 0.20000000000000284
        },
        {
          "name": "C2",
          "midi": 36,
          "time": 66.40000000000006,
          "velocity": 0.8818897637795275,
          "duration": 0.09999999999999432
        },
        {
          "name": "C2",
          "midi": 36,
          "time": 66.50000000000006,
          "velocity": 0.8818897637795275,
          "duration": 0.09999999999999432
        },
        {
          "name": "C2",
          "midi": 36,
          "time": 66.60000000000005,
          "velocity": 1,
          "duration": 0.20000000000000284
        },
        {
          "name": "C2",
          "midi": 36,
          "time": 67.20000000000006,
          "velocity": 1,
          "duration": 0.20000000000000284
        },
        {
          "name": "C2",
          "midi": 36,
          "time": 68.10000000000007,
          "velocity": 0.8818897637795275,
          "duration": 0.09999999999999432
        },
        {
          "name": "C2",
          "midi": 36,
          "time": 68.20000000000006,
          "velocity": 1,
          "duration": 0.20000000000000284
        },
        {
          "name": "C2",
          "midi": 36,
          "time": 68.20000000000006,
          "velocity": 1,
          "duration": 0.20000000000000284
        },
        {
          "name": "C2",
          "midi": 36,
          "time": 68.80000000000007,
          "velocity": 1,
          "duration": 0.20000000000000284
        },
        {
          "name": "C2",
          "midi": 36,
          "time": 69.60000000000007,
          "velocity": 0.8818897637795275,
          "duration": 0.09999999999999432
        },
        {
          "name": "C2",
          "midi": 36,
          "time": 69.70000000000006,
          "velocity": 0.8818897637795275,
          "duration": 0.09999999999999432
        },
        {
          "name": "C2",
          "midi": 36,
          "time": 69.80000000000005,
          "velocity": 1,
          "duration": 0.20000000000000284
        },
        {
          "name": "C2",
          "midi": 36,
          "time": 70.40000000000006,
          "velocity": 1,
          "duration": 0.20000000000000284
        },
        {
          "name": "C2",
          "midi": 36,
          "time": 71.30000000000007,
          "velocity": 0.8818897637795275,
          "duration": 0.09999999999999432
        },
        {
          "name": "C2",
          "midi": 36,
          "time": 71.40000000000006,
          "velocity": 1,
          "duration": 0.20000000000000284
        },
        {
          "name": "C2",
          "midi": 36,
          "time": 71.40000000000006,
          "velocity": 1,
          "duration": 0.20000000000000284
        },
        {
          "name": "C2",
          "midi": 36,
          "time": 72.00000000000007,
          "velocity": 1,
          "duration": 0.20000000000000284
        },
        {
          "name": "C2",
          "midi": 36,
          "time": 72.80000000000007,
          "velocity": 0.8818897637795275,
          "duration": 0.09999999999999432
        },
        {
          "name": "C2",
          "midi": 36,
          "time": 72.90000000000006,
          "velocity": 0.8818897637795275,
          "duration": 0.09999999999999432
        },
        {
          "name": "C2",
          "midi": 36,
          "time": 73.00000000000006,
          "velocity": 1,
          "duration": 0.20000000000000284
        },
        {
          "name": "C2",
          "midi": 36,
          "time": 73.60000000000007,
          "velocity": 1,
          "duration": 0.20000000000000284
        },
        {
          "name": "C2",
          "midi": 36,
          "time": 74.50000000000007,
          "velocity": 0.8818897637795275,
          "duration": 0.09999999999999432
        },
        {
          "name": "C2",
          "midi": 36,
          "time": 74.60000000000007,
          "velocity": 1,
          "duration": 0.20000000000000284
        },
        {
          "name": "C2",
          "midi": 36,
          "time": 74.60000000000007,
          "velocity": 1,
          "duration": 0.20000000000000284
        },
        {
          "name": "C2",
          "midi": 36,
          "time": 75.20000000000007,
          "velocity": 1,
          "duration": 0.20000000000000284
        },
        {
          "name": "C2",
          "midi": 36,
          "time": 76.00000000000007,
          "velocity": 0.8818897637795275,
          "duration": 0.09999999999999432
        },
        {
          "name": "C2",
          "midi": 36,
          "time": 76.10000000000007,
          "velocity": 0.8818897637795275,
          "duration": 0.09999999999999432
        },
        {
          "name": "C2",
          "midi": 36,
          "time": 76.20000000000006,
          "velocity": 1,
          "duration": 0.20000000000000284
        },
        {
          "name": "C2",
          "midi": 36,
          "time": 76.80000000000007,
          "velocity": 1,
          "duration": 0.20000000000000284
        },
        {
          "name": "C2",
          "midi": 36,
          "time": 77.70000000000007,
          "velocity": 0.8818897637795275,
          "duration": 0.09999999999999432
        },
        {
          "name": "C2",
          "midi": 36,
          "time": 77.80000000000007,
          "velocity": 1,
          "duration": 0.20000000000000284
        },
        {
          "name": "C2",
          "midi": 36,
          "time": 77.80000000000007,
          "velocity": 1,
          "duration": 0.20000000000000284
        },
        {
          "name": "C2",
          "midi": 36,
          "time": 78.40000000000008,
          "velocity": 1,
          "duration": 0.20000000000000284
        },
        {
          "name": "C2",
          "midi": 36,
          "time": 79.20000000000007,
          "velocity": 0.8818897637795275,
          "duration": 0.09999999999999432
        },
        {
          "name": "C2",
          "midi": 36,
          "time": 79.30000000000007,
          "velocity": 0.8818897637795275,
          "duration": 0.09999999999999432
        },
        {
          "name": "C2",
          "midi": 36,
          "time": 79.40000000000006,
          "velocity": 1,
          "duration": 0.20000000000000284
        },
        {
          "name": "C2",
          "midi": 36,
          "time": 80.00000000000007,
          "velocity": 1,
          "duration": 0.20000000000000284
        },
        {
          "name": "C2",
          "midi": 36,
          "time": 80.90000000000008,
          "velocity": 0.8818897637795275,
          "duration": 0.09999999999999432
        },
        {
          "name": "C2",
          "midi": 36,
          "time": 81.00000000000007,
          "velocity": 1,
          "duration": 0.20000000000000284
        },
        {
          "name": "C2",
          "midi": 36,
          "time": 81.00000000000007,
          "velocity": 1,
          "duration": 0.20000000000000284
        },
        {
          "name": "C2",
          "midi": 36,
          "time": 81.60000000000008,
          "velocity": 1,
          "duration": 0.20000000000000284
        },
        {
          "name": "C2",
          "midi": 36,
          "time": 82.40000000000008,
          "velocity": 0.8818897637795275,
          "duration": 0.09999999999999432
        },
        {
          "name": "C2",
          "midi": 36,
          "time": 82.50000000000007,
          "velocity": 0.8818897637795275,
          "duration": 0.09999999999999432
        },
        {
          "name": "C2",
          "midi": 36,
          "time": 82.60000000000007,
          "velocity": 1,
          "duration": 0.20000000000000284
        },
        {
          "name": "C2",
          "midi": 36,
          "time": 83.20000000000007,
          "velocity": 1,
          "duration": 0.20000000000000284
        },
        {
          "name": "C2",
          "midi": 36,
          "time": 84.10000000000008,
          "velocity": 0.8818897637795275,
          "duration": 0.09999999999999432
        },
        {
          "name": "C2",
          "midi": 36,
          "time": 84.20000000000007,
          "velocity": 1,
          "duration": 0.20000000000000284
        },
        {
          "name": "C2",
          "midi": 36,
          "time": 84.20000000000007,
          "velocity": 1,
          "duration": 0.20000000000000284
        },
        {
          "name": "C2",
          "midi": 36,
          "time": 84.80000000000008,
          "velocity": 1,
          "duration": 0.20000000000000284
        },
        {
          "name": "C2",
          "midi": 36,
          "time": 85.60000000000008,
          "velocity": 0.8818897637795275,
          "duration": 0.09999999999999432
        },
        {
          "name": "C2",
          "midi": 36,
          "time": 85.70000000000007,
          "velocity": 0.8818897637795275,
          "duration": 0.09999999999999432
        },
        {
          "name": "C2",
          "midi": 36,
          "time": 85.80000000000007,
          "velocity": 1,
          "duration": 0.20000000000000284
        }
      ],
      "controlChanges": {},
      "id": 7,
      "name": "kick",
      "channelNumber": 0,
      "isPercussion": false
    },
    {
      "startTime": 0.4,
      "duration": 86.40000000000019,
      "length": 201,
      "notes": [
        {
          "name": "D2",
          "midi": 38,
          "time": 0.4,
          "velocity": 0.937007874015748,
          "duration": 0.20000000000000007
        },
        {
          "name": "D2",
          "midi": 38,
          "time": 1.2000000000000002,
          "velocity": 0.8503937007874016,
          "duration": 0.19999999999999996
        },
        {
          "name": "D2",
          "midi": 38,
          "time": 2,
          "velocity": 0.937007874015748,
          "duration": 0.20000000000000018
        },
        {
          "name": "D2",
          "midi": 38,
          "time": 2.8000000000000003,
          "velocity": 0.8976377952755905,
          "duration": 0.20000000000000018
        },
        {
          "name": "A#3",
          "midi": 58,
          "time": 2.8000000000000003,
          "velocity": 1,
          "duration": 0.20000000000000018
        },
        {
          "name": "A#3",
          "midi": 58,
          "time": 3.0000000000000004,
          "velocity": 1,
          "duration": 0.20000000000000018
        },
        {
          "name": "D2",
          "midi": 38,
          "time": 3.6000000000000005,
          "velocity": 0.937007874015748,
          "duration": 0.20000000000000018
        },
        {
          "name": "D2",
          "midi": 38,
          "time": 4.4,
          "velocity": 0.8503937007874016,
          "duration": 0.20000000000000018
        },
        {
          "name": "D2",
          "midi": 38,
          "time": 5.200000000000001,
          "velocity": 0.937007874015748,
          "duration": 0.20000000000000018
        },
        {
          "name": "D2",
          "midi": 38,
          "time": 6.000000000000002,
          "velocity": 0.8976377952755905,
          "duration": 0.20000000000000018
        },
        {
          "name": "A#3",
          "midi": 58,
          "time": 6.000000000000002,
          "velocity": 1,
          "duration": 0.20000000000000018
        },
        {
          "name": "A#3",
          "midi": 58,
          "time": 6.200000000000002,
          "velocity": 1,
          "duration": 0.20000000000000018
        },
        {
          "name": "D2",
          "midi": 38,
          "time": 6.8000000000000025,
          "velocity": 0.937007874015748,
          "duration": 0.20000000000000018
        },
        {
          "name": "D2",
          "midi": 38,
          "time": 7.600000000000003,
          "velocity": 0.8503937007874016,
          "duration": 0.20000000000000018
        },
        {
          "name": "D2",
          "midi": 38,
          "time": 8.400000000000004,
          "velocity": 0.937007874015748,
          "duration": 0.1999999999999993
        },
        {
          "name": "D2",
          "midi": 38,
          "time": 9.200000000000003,
          "velocity": 0.8976377952755905,
          "duration": 0.1999999999999993
        },
        {
          "name": "A#3",
          "midi": 58,
          "time": 9.200000000000003,
          "velocity": 1,
          "duration": 0.1999999999999993
        },
        {
          "name": "A#3",
          "midi": 58,
          "time": 9.400000000000002,
          "velocity": 1,
          "duration": 0.1999999999999993
        },
        {
          "name": "D2",
          "midi": 38,
          "time": 10.000000000000002,
          "velocity": 0.937007874015748,
          "duration": 0.1999999999999993
        },
        {
          "name": "D2",
          "midi": 38,
          "time": 10.8,
          "velocity": 0.8503937007874016,
          "duration": 0.1999999999999993
        },
        {
          "name": "D2",
          "midi": 38,
          "time": 11.6,
          "velocity": 0.937007874015748,
          "duration": 0.1999999999999993
        },
        {
          "name": "D2",
          "midi": 38,
          "time": 12.399999999999999,
          "velocity": 0.8976377952755905,
          "duration": 0.1999999999999993
        },
        {
          "name": "A#3",
          "midi": 58,
          "time": 12.399999999999999,
          "velocity": 1,
          "duration": 0.1999999999999993
        },
        {
          "name": "A#3",
          "midi": 58,
          "time": 12.599999999999998,
          "velocity": 1,
          "duration": 0.1999999999999993
        },
        {
          "name": "D2",
          "midi": 38,
          "time": 13.199999999999998,
          "velocity": 0.937007874015748,
          "duration": 0.1999999999999993
        },
        {
          "name": "D2",
          "midi": 38,
          "time": 13.999999999999996,
          "velocity": 0.8503937007874016,
          "duration": 0.1999999999999993
        },
        {
          "name": "D2",
          "midi": 38,
          "time": 14.799999999999995,
          "velocity": 0.937007874015748,
          "duration": 0.1999999999999993
        },
        {
          "name": "D2",
          "midi": 38,
          "time": 15.599999999999994,
          "velocity": 0.8976377952755905,
          "duration": 0.1999999999999993
        },
        {
          "name": "A#3",
          "midi": 58,
          "time": 15.599999999999994,
          "velocity": 1,
          "duration": 0.1999999999999993
        },
        {
          "name": "A#3",
          "midi": 58,
          "time": 15.799999999999994,
          "velocity": 1,
          "duration": 0.1999999999999993
        },
        {
          "name": "D2",
          "midi": 38,
          "time": 16.39999999999999,
          "velocity": 0.937007874015748,
          "duration": 0.1999999999999993
        },
        {
          "name": "D2",
          "midi": 38,
          "time": 17.199999999999992,
          "velocity": 0.8503937007874016,
          "duration": 0.1999999999999993
        },
        {
          "name": "D2",
          "midi": 38,
          "time": 17.999999999999993,
          "velocity": 0.937007874015748,
          "duration": 0.1999999999999993
        },
        {
          "name": "D2",
          "midi": 38,
          "time": 18.799999999999994,
          "velocity": 0.8976377952755905,
          "duration": 0.1999999999999993
        },
        {
          "name": "A#3",
          "midi": 58,
          "time": 18.799999999999994,
          "velocity": 1,
          "duration": 0.1999999999999993
        },
        {
          "name": "A#3",
          "midi": 58,
          "time": 18.999999999999993,
          "velocity": 1,
          "duration": 0.1999999999999993
        },
        {
          "name": "D2",
          "midi": 38,
          "time": 19.59999999999999,
          "velocity": 0.937007874015748,
          "duration": 0.1999999999999993
        },
        {
          "name": "D2",
          "midi": 38,
          "time": 20.39999999999999,
          "velocity": 0.8503937007874016,
          "duration": 0.1999999999999993
        },
        {
          "name": "D2",
          "midi": 38,
          "time": 21.199999999999992,
          "velocity": 0.937007874015748,
          "duration": 0.1999999999999993
        },
        {
          "name": "D2",
          "midi": 38,
          "time": 21.999999999999993,
          "velocity": 0.8976377952755905,
          "duration": 0.1999999999999993
        },
        {
          "name": "A#3",
          "midi": 58,
          "time": 21.999999999999993,
          "velocity": 1,
          "duration": 0.1999999999999993
        },
        {
          "name": "A#3",
          "midi": 58,
          "time": 22.199999999999992,
          "velocity": 1,
          "duration": 0.1999999999999993
        },
        {
          "name": "D2",
          "midi": 38,
          "time": 22.79999999999999,
          "velocity": 0.937007874015748,
          "duration": 0.1999999999999993
        },
        {
          "name": "D2",
          "midi": 38,
          "time": 23.59999999999999,
          "velocity": 0.8503937007874016,
          "duration": 0.1999999999999993
        },
        {
          "name": "D2",
          "midi": 38,
          "time": 24.39999999999999,
          "velocity": 0.937007874015748,
          "duration": 0.1999999999999993
        },
        {
          "name": "D2",
          "midi": 38,
          "time": 25.199999999999992,
          "velocity": 0.8976377952755905,
          "duration": 0.1999999999999993
        },
        {
          "name": "A#3",
          "midi": 58,
          "time": 25.199999999999992,
          "velocity": 1,
          "duration": 0.1999999999999993
        },
        {
          "name": "A#3",
          "midi": 58,
          "time": 25.39999999999999,
          "velocity": 1,
          "duration": 0.1999999999999993
        },
        {
          "name": "D2",
          "midi": 38,
          "time": 25.99999999999999,
          "velocity": 0.937007874015748,
          "duration": 0.1999999999999993
        },
        {
          "name": "D2",
          "midi": 38,
          "time": 26.29999999999999,
          "velocity": 0.8818897637795275,
          "duration": 0.10000000000000142
        },
        {
          "name": "D2",
          "midi": 38,
          "time": 26.79999999999999,
          "velocity": 0.937007874015748,
          "duration": 0.1999999999999993
        },
        {
          "name": "D2",
          "midi": 38,
          "time": 28.399999999999988,
          "velocity": 0.8976377952755905,
          "duration": 0.1999999999999993
        },
        {
          "name": "A#3",
          "midi": 58,
          "time": 28.399999999999988,
          "velocity": 1,
          "duration": 0.1999999999999993
        },
        {
          "name": "D2",
          "midi": 38,
          "time": 28.599999999999987,
          "velocity": 0.937007874015748,
          "duration": 0.10000000000000142
        },
        {
          "name": "A#3",
          "midi": 58,
          "time": 28.599999999999987,
          "velocity": 1,
          "duration": 0.20000000000000284
        },
        {
          "name": "D2",
          "midi": 38,
          "time": 28.69999999999999,
          "velocity": 0.937007874015748,
          "duration": 0.10000000000000142
        },
        {
          "name": "D2",
          "midi": 38,
          "time": 29.19999999999999,
          "velocity": 0.937007874015748,
          "duration": 0.1999999999999993
        },
        {
          "name": "D2",
          "midi": 38,
          "time": 29.99999999999999,
          "velocity": 0.8503937007874016,
          "duration": 0.20000000000000284
        },
        {
          "name": "A#3",
          "midi": 58,
          "time": 29.99999999999999,
          "velocity": 1,
          "duration": 0.10000000000000142
        },
        {
          "name": "D2",
          "midi": 38,
          "time": 30.799999999999994,
          "velocity": 0.937007874015748,
          "duration": 0.1999999999999993
        },
        {
          "name": "A#3",
          "midi": 58,
          "time": 31.39999999999999,
          "velocity": 1,
          "duration": 0.10000000000000142
        },
        {
          "name": "D2",
          "midi": 38,
          "time": 31.599999999999994,
          "velocity": 0.8976377952755905,
          "duration": 0.20000000000000284
        },
        {
          "name": "A#3",
          "midi": 58,
          "time": 31.599999999999994,
          "velocity": 1,
          "duration": 0.10000000000000142
        },
        {
          "name": "A#3",
          "midi": 58,
          "time": 31.699999999999996,
          "velocity": 1,
          "duration": 0.10000000000000142
        },
        {
          "name": "A#3",
          "midi": 58,
          "time": 31.9,
          "velocity": 1,
          "duration": 0.10000000000000142
        },
        {
          "name": "D2",
          "midi": 38,
          "time": 32.4,
          "velocity": 0.937007874015748,
          "duration": 0.20000000000000284
        },
        {
          "name": "D2",
          "midi": 38,
          "time": 33.2,
          "velocity": 0.8503937007874016,
          "duration": 0.20000000000000284
        },
        {
          "name": "A#3",
          "midi": 58,
          "time": 33.2,
          "velocity": 1,
          "duration": 0.10000000000000142
        },
        {
          "name": "D2",
          "midi": 38,
          "time": 34.00000000000001,
          "velocity": 0.937007874015748,
          "duration": 0.20000000000000284
        },
        {
          "name": "A#3",
          "midi": 58,
          "time": 34.60000000000001,
          "velocity": 1,
          "duration": 0.10000000000000142
        },
        {
          "name": "D2",
          "midi": 38,
          "time": 34.80000000000001,
          "velocity": 0.8976377952755905,
          "duration": 0.20000000000000284
        },
        {
          "name": "A#3",
          "midi": 58,
          "time": 34.80000000000001,
          "velocity": 1,
          "duration": 0.10000000000000142
        },
        {
          "name": "A#3",
          "midi": 58,
          "time": 34.90000000000001,
          "velocity": 1,
          "duration": 0.10000000000000142
        },
        {
          "name": "A#3",
          "midi": 58,
          "time": 35.100000000000016,
          "velocity": 1,
          "duration": 0.10000000000000142
        },
        {
          "name": "D2",
          "midi": 38,
          "time": 35.600000000000016,
          "velocity": 0.937007874015748,
          "duration": 0.20000000000000284
        },
        {
          "name": "D2",
          "midi": 38,
          "time": 36.40000000000002,
          "velocity": 0.8503937007874016,
          "duration": 0.20000000000000284
        },
        {
          "name": "A#3",
          "midi": 58,
          "time": 36.40000000000002,
          "velocity": 1,
          "duration": 0.10000000000000142
        },
        {
          "name": "D2",
          "midi": 38,
          "time": 37.200000000000024,
          "velocity": 0.937007874015748,
          "duration": 0.20000000000000284
        },
        {
          "name": "A#3",
          "midi": 58,
          "time": 37.800000000000026,
          "velocity": 1,
          "duration": 0.10000000000000142
        },
        {
          "name": "D2",
          "midi": 38,
          "time": 38.00000000000003,
          "velocity": 0.8976377952755905,
          "duration": 0.20000000000000284
        },
        {
          "name": "A#3",
          "midi": 58,
          "time": 38.00000000000003,
          "velocity": 1,
          "duration": 0.10000000000000142
        },
        {
          "name": "A#3",
          "midi": 58,
          "time": 38.10000000000003,
          "velocity": 1,
          "duration": 0.10000000000000142
        },
        {
          "name": "A#3",
          "midi": 58,
          "time": 38.30000000000003,
          "velocity": 1,
          "duration": 0.10000000000000142
        },
        {
          "name": "D2",
          "midi": 38,
          "time": 38.80000000000003,
          "velocity": 0.937007874015748,
          "duration": 0.20000000000000284
        },
        {
          "name": "D2",
          "midi": 38,
          "time": 39.60000000000004,
          "velocity": 0.8503937007874016,
          "duration": 0.20000000000000284
        },
        {
          "name": "A#3",
          "midi": 58,
          "time": 39.60000000000004,
          "velocity": 1,
          "duration": 0.10000000000000142
        },
        {
          "name": "D2",
          "midi": 38,
          "time": 40.40000000000004,
          "velocity": 0.937007874015748,
          "duration": 0.20000000000000284
        },
        {
          "name": "A#3",
          "midi": 58,
          "time": 41.00000000000004,
          "velocity": 1,
          "duration": 0.10000000000000142
        },
        {
          "name": "D2",
          "midi": 38,
          "time": 41.200000000000045,
          "velocity": 0.8976377952755905,
          "duration": 0.20000000000000284
        },
        {
          "name": "A#3",
          "midi": 58,
          "time": 41.200000000000045,
          "velocity": 1,
          "duration": 0.10000000000000142
        },
        {
          "name": "A#3",
          "midi": 58,
          "time": 41.30000000000005,
          "velocity": 1,
          "duration": 0.10000000000000142
        },
        {
          "name": "A#3",
          "midi": 58,
          "time": 41.50000000000005,
          "velocity": 1,
          "duration": 0.10000000000000142
        },
        {
          "name": "D2",
          "midi": 38,
          "time": 42.00000000000005,
          "velocity": 0.937007874015748,
          "duration": 0.20000000000000284
        },
        {
          "name": "D2",
          "midi": 38,
          "time": 42.800000000000054,
          "velocity": 0.8503937007874016,
          "duration": 0.20000000000000284
        },
        {
          "name": "A#3",
          "midi": 58,
          "time": 42.800000000000054,
          "velocity": 1,
          "duration": 0.10000000000000142
        },
        {
          "name": "D2",
          "midi": 38,
          "time": 43.60000000000006,
          "velocity": 0.937007874015748,
          "duration": 0.20000000000000284
        },
        {
          "name": "A#3",
          "midi": 58,
          "time": 44.20000000000006,
          "velocity": 1,
          "duration": 0.10000000000000142
        },
        {
          "name": "D2",
          "midi": 38,
          "time": 44.40000000000006,
          "velocity": 0.8976377952755905,
          "duration": 0.20000000000000284
        },
        {
          "name": "A#3",
          "midi": 58,
          "time": 44.40000000000006,
          "velocity": 1,
          "duration": 0.10000000000000142
        },
        {
          "name": "A#3",
          "midi": 58,
          "time": 44.500000000000064,
          "velocity": 1,
          "duration": 0.10000000000000142
        },
        {
          "name": "A#3",
          "midi": 58,
          "time": 44.70000000000007,
          "velocity": 1,
          "duration": 0.10000000000000142
        },
        {
          "name": "D2",
          "midi": 38,
          "time": 45.20000000000007,
          "velocity": 0.937007874015748,
          "duration": 0.20000000000000284
        },
        {
          "name": "D2",
          "midi": 38,
          "time": 46.00000000000007,
          "velocity": 0.8503937007874016,
          "duration": 0.20000000000000284
        },
        {
          "name": "A#3",
          "midi": 58,
          "time": 46.00000000000007,
          "velocity": 1,
          "duration": 0.10000000000000142
        },
        {
          "name": "D2",
          "midi": 38,
          "time": 46.800000000000075,
          "velocity": 0.937007874015748,
          "duration": 0.20000000000000284
        },
        {
          "name": "A#3",
          "midi": 58,
          "time": 47.40000000000008,
          "velocity": 1,
          "duration": 0.10000000000000142
        },
        {
          "name": "D2",
          "midi": 38,
          "time": 47.60000000000008,
          "velocity": 0.8976377952755905,
          "duration": 0.20000000000000284
        },
        {
          "name": "A#3",
          "midi": 58,
          "time": 47.60000000000008,
          "velocity": 1,
          "duration": 0.10000000000000142
        },
        {
          "name": "A#3",
          "midi": 58,
          "time": 47.70000000000008,
          "velocity": 1,
          "duration": 0.10000000000000142
        },
        {
          "name": "A#3",
          "midi": 58,
          "time": 47.900000000000084,
          "velocity": 1,
          "duration": 0.10000000000000142
        },
        {
          "name": "D2",
          "midi": 38,
          "time": 48.400000000000084,
          "velocity": 0.937007874015748,
          "duration": 0.20000000000000284
        },
        {
          "name": "D2",
          "midi": 38,
          "time": 49.20000000000009,
          "velocity": 0.8503937007874016,
          "duration": 0.20000000000000284
        },
        {
          "name": "A#3",
          "midi": 58,
          "time": 49.20000000000009,
          "velocity": 1,
          "duration": 0.10000000000000142
        },
        {
          "name": "D2",
          "midi": 38,
          "time": 50.00000000000009,
          "velocity": 0.937007874015748,
          "duration": 0.20000000000000284
        },
        {
          "name": "A#3",
          "midi": 58,
          "time": 50.600000000000094,
          "velocity": 1,
          "duration": 0.10000000000000142
        },
        {
          "name": "D2",
          "midi": 38,
          "time": 50.8000000000001,
          "velocity": 0.8976377952755905,
          "duration": 0.20000000000000284
        },
        {
          "name": "A#3",
          "midi": 58,
          "time": 50.8000000000001,
          "velocity": 1,
          "duration": 0.10000000000000142
        },
        {
          "name": "A#3",
          "midi": 58,
          "time": 50.9000000000001,
          "velocity": 1,
          "duration": 0.10000000000000142
        },
        {
          "name": "A#3",
          "midi": 58,
          "time": 51.1000000000001,
          "velocity": 1,
          "duration": 0.10000000000000142
        },
        {
          "name": "D2",
          "midi": 38,
          "time": 51.6000000000001,
          "velocity": 0.937007874015748,
          "duration": 0.20000000000000284
        },
        {
          "name": "D2",
          "midi": 38,
          "time": 52.400000000000105,
          "velocity": 0.8503937007874016,
          "duration": 0.20000000000000284
        },
        {
          "name": "A#3",
          "midi": 58,
          "time": 52.400000000000105,
          "velocity": 1,
          "duration": 0.10000000000000142
        },
        {
          "name": "D2",
          "midi": 38,
          "time": 53.20000000000011,
          "velocity": 0.937007874015748,
          "duration": 0.20000000000000284
        },
        {
          "name": "A#3",
          "midi": 58,
          "time": 53.80000000000011,
          "velocity": 1,
          "duration": 0.10000000000000142
        },
        {
          "name": "D2",
          "midi": 38,
          "time": 54.000000000000114,
          "velocity": 0.8976377952755905,
          "duration": 0.20000000000000284
        },
        {
          "name": "A#3",
          "midi": 58,
          "time": 54.000000000000114,
          "velocity": 1,
          "duration": 0.10000000000000142
        },
        {
          "name": "A#3",
          "midi": 58,
          "time": 54.100000000000115,
          "velocity": 1,
          "duration": 0.10000000000000142
        },
        {
          "name": "A#3",
          "midi": 58,
          "time": 54.30000000000012,
          "velocity": 1,
          "duration": 0.10000000000000142
        },
        {
          "name": "D2",
          "midi": 38,
          "time": 54.80000000000012,
          "velocity": 0.937007874015748,
          "duration": 0.20000000000000284
        },
        {
          "name": "D2",
          "midi": 38,
          "time": 55.10000000000012,
          "velocity": 0.8503937007874016,
          "duration": 0.10000000000000142
        },
        {
          "name": "D2",
          "midi": 38,
          "time": 55.200000000000124,
          "velocity": 0.8503937007874016,
          "duration": 0.20000000000000284
        },
        {
          "name": "D2",
          "midi": 38,
          "time": 55.50000000000013,
          "velocity": 0.8503937007874016,
          "duration": 0.10000000000000142
        },
        {
          "name": "A#3",
          "midi": 58,
          "time": 55.60000000000013,
          "velocity": 1,
          "duration": 0.10000000000000142
        },
        {
          "name": "D2",
          "midi": 38,
          "time": 55.70000000000013,
          "velocity": 0.8503937007874016,
          "duration": 0.20000000000000284
        },
        {
          "name": "D2",
          "midi": 38,
          "time": 56.183333333333465,
          "velocity": 0.937007874015748,
          "duration": 0.20000000000000284
        },
        {
          "name": "D2",
          "midi": 38,
          "time": 56.600000000000136,
          "velocity": 0.937007874015748,
          "duration": 0.20000000000000284
        },
        {
          "name": "D2",
          "midi": 38,
          "time": 57.20000000000014,
          "velocity": 0.8976377952755905,
          "duration": 0.20000000000000284
        },
        {
          "name": "D2",
          "midi": 38,
          "time": 57.50000000000014,
          "velocity": 0.8503937007874016,
          "duration": 0.10000000000000142
        },
        {
          "name": "D2",
          "midi": 38,
          "time": 58.00000000000014,
          "velocity": 0.937007874015748,
          "duration": 0.20000000000000284
        },
        {
          "name": "D2",
          "midi": 38,
          "time": 58.200000000000145,
          "velocity": 0.8503937007874016,
          "duration": 0.10000000000000142
        },
        {
          "name": "D2",
          "midi": 38,
          "time": 58.800000000000146,
          "velocity": 0.937007874015748,
          "duration": 0.20000000000000284
        },
        {
          "name": "A#3",
          "midi": 58,
          "time": 58.800000000000146,
          "velocity": 1,
          "duration": 0.10000000000000142
        },
        {
          "name": "D2",
          "midi": 38,
          "time": 59.800000000000146,
          "velocity": 0.937007874015748,
          "duration": 0.10000000000000142
        },
        {
          "name": "D2",
          "midi": 38,
          "time": 59.90000000000015,
          "velocity": 0.937007874015748,
          "duration": 0.10000000000000142
        },
        {
          "name": "D2",
          "midi": 38,
          "time": 60.20000000000015,
          "velocity": 0.937007874015748,
          "duration": 0.10000000000000142
        },
        {
          "name": "A#3",
          "midi": 58,
          "time": 60.20000000000015,
          "velocity": 1,
          "duration": 0.10000000000000142
        },
        {
          "name": "D2",
          "midi": 38,
          "time": 60.30000000000015,
          "velocity": 0.937007874015748,
          "duration": 0.10000000000000142
        },
        {
          "name": "D2",
          "midi": 38,
          "time": 60.400000000000155,
          "velocity": 0.937007874015748,
          "duration": 0.20000000000000284
        },
        {
          "name": "A#3",
          "midi": 58,
          "time": 60.400000000000155,
          "velocity": 1,
          "duration": 0.10000000000000142
        },
        {
          "name": "A#3",
          "midi": 58,
          "time": 60.500000000000156,
          "velocity": 1,
          "duration": 0.10000000000000142
        },
        {
          "name": "D2",
          "midi": 38,
          "time": 60.60000000000016,
          "velocity": 0.937007874015748,
          "duration": 0.10000000000000142
        },
        {
          "name": "D2",
          "midi": 38,
          "time": 60.70000000000016,
          "velocity": 0.937007874015748,
          "duration": 0.10000000000000142
        },
        {
          "name": "A#3",
          "midi": 58,
          "time": 60.70000000000016,
          "velocity": 1,
          "duration": 0.10000000000000142
        },
        {
          "name": "D2",
          "midi": 38,
          "time": 61.20000000000016,
          "velocity": 0.937007874015748,
          "duration": 0.20000000000000284
        },
        {
          "name": "D2",
          "midi": 38,
          "time": 62.00000000000016,
          "velocity": 0.8503937007874016,
          "duration": 0.20000000000000284
        },
        {
          "name": "D2",
          "midi": 38,
          "time": 62.80000000000017,
          "velocity": 0.937007874015748,
          "duration": 0.20000000000000284
        },
        {
          "name": "D2",
          "midi": 38,
          "time": 63.60000000000017,
          "velocity": 0.8976377952755905,
          "duration": 0.20000000000000284
        },
        {
          "name": "A#3",
          "midi": 58,
          "time": 63.60000000000017,
          "velocity": 1,
          "duration": 0.20000000000000284
        },
        {
          "name": "A#3",
          "midi": 58,
          "time": 63.800000000000175,
          "velocity": 1,
          "duration": 0.19999999999999574
        },
        {
          "name": "D2",
          "midi": 38,
          "time": 64.40000000000018,
          "velocity": 0.937007874015748,
          "duration": 0.20000000000000284
        },
        {
          "name": "D2",
          "midi": 38,
          "time": 65.20000000000017,
          "velocity": 0.8503937007874016,
          "duration": 0.20000000000000284
        },
        {
          "name": "D2",
          "midi": 38,
          "time": 66.00000000000017,
          "velocity": 0.937007874015748,
          "duration": 0.20000000000000284
        },
        {
          "name": "D2",
          "midi": 38,
          "time": 66.80000000000017,
          "velocity": 0.8976377952755905,
          "duration": 0.20000000000000284
        },
        {
          "name": "A#3",
          "midi": 58,
          "time": 66.80000000000017,
          "velocity": 1,
          "duration": 0.20000000000000284
        },
        {
          "name": "A#3",
          "midi": 58,
          "time": 67.00000000000017,
          "velocity": 1,
          "duration": 0.20000000000000284
        },
        {
          "name": "D2",
          "midi": 38,
          "time": 67.60000000000018,
          "velocity": 0.937007874015748,
          "duration": 0.20000000000000284
        },
        {
          "name": "D2",
          "midi": 38,
          "time": 68.40000000000018,
          "velocity": 0.8503937007874016,
          "duration": 0.20000000000000284
        },
        {
          "name": "D2",
          "midi": 38,
          "time": 69.20000000000017,
          "velocity": 0.937007874015748,
          "duration": 0.20000000000000284
        },
        {
          "name": "D2",
          "midi": 38,
          "time": 70.00000000000017,
          "velocity": 0.8976377952755905,
          "duration": 0.20000000000000284
        },
        {
          "name": "A#3",
          "midi": 58,
          "time": 70.00000000000017,
          "velocity": 1,
          "duration": 0.20000000000000284
        },
        {
          "name": "A#3",
          "midi": 58,
          "time": 70.20000000000017,
          "velocity": 1,
          "duration": 0.20000000000000284
        },
        {
          "name": "D2",
          "midi": 38,
          "time": 70.80000000000018,
          "velocity": 0.937007874015748,
          "duration": 0.20000000000000284
        },
        {
          "name": "D2",
          "midi": 38,
          "time": 71.60000000000018,
          "velocity": 0.8503937007874016,
          "duration": 0.20000000000000284
        },
        {
          "name": "D2",
          "midi": 38,
          "time": 72.40000000000018,
          "velocity": 0.937007874015748,
          "duration": 0.20000000000000284
        },
        {
          "name": "D2",
          "midi": 38,
          "time": 73.20000000000017,
          "velocity": 0.8976377952755905,
          "duration": 0.20000000000000284
        },
        {
          "name": "A#3",
          "midi": 58,
          "time": 73.20000000000017,
          "velocity": 1,
          "duration": 0.20000000000000284
        },
        {
          "name": "A#3",
          "midi": 58,
          "time": 73.40000000000018,
          "velocity": 1,
          "duration": 0.20000000000000284
        },
        {
          "name": "D2",
          "midi": 38,
          "time": 74.00000000000018,
          "velocity": 0.937007874015748,
          "duration": 0.20000000000000284
        },
        {
          "name": "D2",
          "midi": 38,
          "time": 74.80000000000018,
          "velocity": 0.8503937007874016,
          "duration": 0.20000000000000284
        },
        {
          "name": "D2",
          "midi": 38,
          "time": 75.60000000000018,
          "velocity": 0.937007874015748,
          "duration": 0.20000000000000284
        },
        {
          "name": "D2",
          "midi": 38,
          "time": 76.40000000000018,
          "velocity": 0.8976377952755905,
          "duration": 0.20000000000000284
        },
        {
          "name": "A#3",
          "midi": 58,
          "time": 76.40000000000018,
          "velocity": 1,
          "duration": 0.20000000000000284
        },
        {
          "name": "A#3",
          "midi": 58,
          "time": 76.60000000000018,
          "velocity": 1,
          "duration": 0.20000000000000284
        },
        {
          "name": "D2",
          "midi": 38,
          "time": 77.20000000000019,
          "velocity": 0.937007874015748,
          "duration": 0.20000000000000284
        },
        {
          "name": "D2",
          "midi": 38,
          "time": 78.00000000000018,
          "velocity": 0.8503937007874016,
          "duration": 0.20000000000000284
        },
        {
          "name": "D2",
          "midi": 38,
          "time": 78.80000000000018,
          "velocity": 0.937007874015748,
          "duration": 0.20000000000000284
        },
        {
          "name": "D2",
          "midi": 38,
          "time": 79.60000000000018,
          "velocity": 0.8976377952755905,
          "duration": 0.20000000000000284
        },
        {
          "name": "A#3",
          "midi": 58,
          "time": 79.60000000000018,
          "velocity": 1,
          "duration": 0.20000000000000284
        },
        {
          "name": "A#3",
          "midi": 58,
          "time": 79.80000000000018,
          "velocity": 1,
          "duration": 0.20000000000000284
        },
        {
          "name": "D2",
          "midi": 38,
          "time": 80.40000000000019,
          "velocity": 0.937007874015748,
          "duration": 0.20000000000000284
        },
        {
          "name": "D2",
          "midi": 38,
          "time": 81.20000000000019,
          "velocity": 0.8503937007874016,
          "duration": 0.20000000000000284
        },
        {
          "name": "D2",
          "midi": 38,
          "time": 82.00000000000018,
          "velocity": 0.937007874015748,
          "duration": 0.20000000000000284
        },
        {
          "name": "D2",
          "midi": 38,
          "time": 82.80000000000018,
          "velocity": 0.8976377952755905,
          "duration": 0.20000000000000284
        },
        {
          "name": "A#3",
          "midi": 58,
          "time": 82.80000000000018,
          "velocity": 1,
          "duration": 0.20000000000000284
        },
        {
          "name": "A#3",
          "midi": 58,
          "time": 83.00000000000018,
          "velocity": 1,
          "duration": 0.20000000000000284
        },
        {
          "name": "D2",
          "midi": 38,
          "time": 83.6000000000002,
          "velocity": 0.937007874015748,
          "duration": 0.20000000000000284
        },
        {
          "name": "D2",
          "midi": 38,
          "time": 84.40000000000019,
          "velocity": 0.8503937007874016,
          "duration": 0.20000000000000284
        },
        {
          "name": "D2",
          "midi": 38,
          "time": 85.20000000000019,
          "velocity": 0.937007874015748,
          "duration": 0.20000000000000284
        },
        {
          "name": "D2",
          "midi": 38,
          "time": 86.00000000000018,
          "velocity": 0.8976377952755905,
          "duration": 0.20000000000000284
        },
        {
          "name": "A#3",
          "midi": 58,
          "time": 86.00000000000018,
          "velocity": 1,
          "duration": 0.20000000000000284
        },
        {
          "name": "A#3",
          "midi": 58,
          "time": 86.20000000000019,
          "velocity": 1,
          "duration": 0.20000000000000284
        }
      ],
      "controlChanges": {},
      "id": 8,
      "name": "snare",
      "channelNumber": 0,
      "isPercussion": false
    },
    {
      "startTime": 0,
      "duration": 86.39999999999979,
      "length": 646,
      "notes": [
        {
          "name": "F#2",
          "midi": 42,
          "time": 0,
          "velocity": 0.8031496062992126,
          "duration": 0.2
        },
        {
          "name": "F#2",
          "midi": 42,
          "time": 0.2,
          "velocity": 0.8031496062992126,
          "duration": 0.2
        },
        {
          "name": "F#2",
          "midi": 42,
          "time": 0.4,
          "velocity": 0.8031496062992126,
          "duration": 0.20000000000000007
        },
        {
          "name": "F#2",
          "midi": 42,
          "time": 0.6000000000000001,
          "velocity": 0.9212598425196851,
          "duration": 0.09999999999999998
        },
        {
          "name": "F#2",
          "midi": 42,
          "time": 0.7000000000000001,
          "velocity": 0.9212598425196851,
          "duration": 0.09999999999999998
        },
        {
          "name": "F#2",
          "midi": 42,
          "time": 0.8,
          "velocity": 0.9212598425196851,
          "duration": 0.09999999999999998
        },
        {
          "name": "F#2",
          "midi": 42,
          "time": 0.9,
          "velocity": 0.9212598425196851,
          "duration": 0.09999999999999998
        },
        {
          "name": "F#2",
          "midi": 42,
          "time": 1,
          "velocity": 0.9212598425196851,
          "duration": 0.10000000000000009
        },
        {
          "name": "F#2",
          "midi": 42,
          "time": 1.1,
          "velocity": 0.9212598425196851,
          "duration": 0.10000000000000009
        },
        {
          "name": "F#2",
          "midi": 42,
          "time": 1.2000000000000002,
          "velocity": 0.9212598425196851,
          "duration": 0.10000000000000009
        },
        {
          "name": "F#2",
          "midi": 42,
          "time": 1.3000000000000003,
          "velocity": 0.9212598425196851,
          "duration": 0.10000000000000009
        },
        {
          "name": "F#2",
          "midi": 42,
          "time": 1.4000000000000004,
          "velocity": 0.9212598425196851,
          "duration": 0.10000000000000009
        },
        {
          "name": "F#2",
          "midi": 42,
          "time": 1.5000000000000004,
          "velocity": 0.9212598425196851,
          "duration": 0.10000000000000009
        },
        {
          "name": "F#2",
          "midi": 42,
          "time": 1.6000000000000005,
          "velocity": 0.8503937007874016,
          "duration": 0.19999999999999996
        },
        {
          "name": "F#2",
          "midi": 42,
          "time": 1.8000000000000005,
          "velocity": 0.8503937007874016,
          "duration": 0.19999999999999996
        },
        {
          "name": "F#2",
          "midi": 42,
          "time": 2.0000000000000004,
          "velocity": 0.8503937007874016,
          "duration": 0.20000000000000018
        },
        {
          "name": "F#2",
          "midi": 42,
          "time": 2.2000000000000006,
          "velocity": 0.9212598425196851,
          "duration": 0.10000000000000009
        },
        {
          "name": "F#2",
          "midi": 42,
          "time": 2.3000000000000007,
          "velocity": 0.9212598425196851,
          "duration": 0.10000000000000009
        },
        {
          "name": "F#2",
          "midi": 42,
          "time": 2.400000000000001,
          "velocity": 0.9212598425196851,
          "duration": 0.10000000000000009
        },
        {
          "name": "F#2",
          "midi": 42,
          "time": 2.500000000000001,
          "velocity": 0.9212598425196851,
          "duration": 0.10000000000000009
        },
        {
          "name": "F#2",
          "midi": 42,
          "time": 2.600000000000001,
          "velocity": 0.9212598425196851,
          "duration": 0.10000000000000009
        },
        {
          "name": "F#2",
          "midi": 42,
          "time": 2.700000000000001,
          "velocity": 0.9212598425196851,
          "duration": 0.10000000000000009
        },
        {
          "name": "F#2",
          "midi": 42,
          "time": 2.800000000000001,
          "velocity": 0.9212598425196851,
          "duration": 0.10000000000000009
        },
        {
          "name": "F#2",
          "midi": 42,
          "time": 2.9000000000000012,
          "velocity": 0.9212598425196851,
          "duration": 0.10000000000000009
        },
        {
          "name": "F#2",
          "midi": 42,
          "time": 3.0000000000000013,
          "velocity": 0.9212598425196851,
          "duration": 0.10000000000000009
        },
        {
          "name": "F#2",
          "midi": 42,
          "time": 3.1000000000000014,
          "velocity": 0.9212598425196851,
          "duration": 0.10000000000000009
        },
        {
          "name": "F#2",
          "midi": 42,
          "time": 3.2000000000000015,
          "velocity": 0.8031496062992126,
          "duration": 0.20000000000000018
        },
        {
          "name": "F#2",
          "midi": 42,
          "time": 3.4000000000000017,
          "velocity": 0.8031496062992126,
          "duration": 0.20000000000000018
        },
        {
          "name": "F#2",
          "midi": 42,
          "time": 3.600000000000002,
          "velocity": 0.8031496062992126,
          "duration": 0.20000000000000018
        },
        {
          "name": "F#2",
          "midi": 42,
          "time": 3.800000000000002,
          "velocity": 0.9212598425196851,
          "duration": 0.10000000000000009
        },
        {
          "name": "F#2",
          "midi": 42,
          "time": 3.900000000000002,
          "velocity": 0.9212598425196851,
          "duration": 0.09999999999999964
        },
        {
          "name": "F#2",
          "midi": 42,
          "time": 4.000000000000002,
          "velocity": 0.9212598425196851,
          "duration": 0.09999999999999964
        },
        {
          "name": "F#2",
          "midi": 42,
          "time": 4.100000000000001,
          "velocity": 0.9212598425196851,
          "duration": 0.09999999999999964
        },
        {
          "name": "F#2",
          "midi": 42,
          "time": 4.200000000000001,
          "velocity": 0.9212598425196851,
          "duration": 0.09999999999999964
        },
        {
          "name": "F#2",
          "midi": 42,
          "time": 4.300000000000001,
          "velocity": 0.9212598425196851,
          "duration": 0.09999999999999964
        },
        {
          "name": "F#2",
          "midi": 42,
          "time": 4.4,
          "velocity": 0.9212598425196851,
          "duration": 0.09999999999999964
        },
        {
          "name": "F#2",
          "midi": 42,
          "time": 4.5,
          "velocity": 0.9212598425196851,
          "duration": 0.09999999999999964
        },
        {
          "name": "F#2",
          "midi": 42,
          "time": 4.6,
          "velocity": 0.9212598425196851,
          "duration": 0.09999999999999964
        },
        {
          "name": "F#2",
          "midi": 42,
          "time": 4.699999999999999,
          "velocity": 0.9212598425196851,
          "duration": 0.09999999999999964
        },
        {
          "name": "F#2",
          "midi": 42,
          "time": 4.799999999999999,
          "velocity": 0.8503937007874016,
          "duration": 0.20000000000000018
        },
        {
          "name": "F#2",
          "midi": 42,
          "time": 4.999999999999999,
          "velocity": 0.8503937007874016,
          "duration": 0.20000000000000018
        },
        {
          "name": "F#2",
          "midi": 42,
          "time": 5.199999999999999,
          "velocity": 0.8503937007874016,
          "duration": 0.20000000000000018
        },
        {
          "name": "F#2",
          "midi": 42,
          "time": 5.3999999999999995,
          "velocity": 0.9212598425196851,
          "duration": 0.09999999999999964
        },
        {
          "name": "F#2",
          "midi": 42,
          "time": 5.499999999999999,
          "velocity": 0.9212598425196851,
          "duration": 0.09999999999999964
        },
        {
          "name": "F#2",
          "midi": 42,
          "time": 5.599999999999999,
          "velocity": 0.9212598425196851,
          "duration": 0.09999999999999964
        },
        {
          "name": "F#2",
          "midi": 42,
          "time": 5.699999999999998,
          "velocity": 0.9212598425196851,
          "duration": 0.09999999999999964
        },
        {
          "name": "F#2",
          "midi": 42,
          "time": 5.799999999999998,
          "velocity": 0.9212598425196851,
          "duration": 0.09999999999999964
        },
        {
          "name": "F#2",
          "midi": 42,
          "time": 5.899999999999998,
          "velocity": 0.9212598425196851,
          "duration": 0.09999999999999964
        },
        {
          "name": "F#2",
          "midi": 42,
          "time": 5.999999999999997,
          "velocity": 0.9212598425196851,
          "duration": 0.09999999999999964
        },
        {
          "name": "F#2",
          "midi": 42,
          "time": 6.099999999999997,
          "velocity": 0.9212598425196851,
          "duration": 0.09999999999999964
        },
        {
          "name": "F#2",
          "midi": 42,
          "time": 6.199999999999997,
          "velocity": 0.9212598425196851,
          "duration": 0.09999999999999964
        },
        {
          "name": "F#2",
          "midi": 42,
          "time": 6.299999999999996,
          "velocity": 0.9212598425196851,
          "duration": 0.09999999999999964
        },
        {
          "name": "F#2",
          "midi": 42,
          "time": 6.399999999999996,
          "velocity": 0.8031496062992126,
          "duration": 0.20000000000000018
        },
        {
          "name": "F#2",
          "midi": 42,
          "time": 6.599999999999996,
          "velocity": 0.8031496062992126,
          "duration": 0.20000000000000018
        },
        {
          "name": "F#2",
          "midi": 42,
          "time": 6.799999999999996,
          "velocity": 0.8031496062992126,
          "duration": 0.20000000000000018
        },
        {
          "name": "F#2",
          "midi": 42,
          "time": 6.9999999999999964,
          "velocity": 0.9212598425196851,
          "duration": 0.09999999999999964
        },
        {
          "name": "F#2",
          "midi": 42,
          "time": 7.099999999999996,
          "velocity": 0.9212598425196851,
          "duration": 0.09999999999999964
        },
        {
          "name": "F#2",
          "midi": 42,
          "time": 7.199999999999996,
          "velocity": 0.9212598425196851,
          "duration": 0.09999999999999964
        },
        {
          "name": "F#2",
          "midi": 42,
          "time": 7.299999999999995,
          "velocity": 0.9212598425196851,
          "duration": 0.09999999999999964
        },
        {
          "name": "F#2",
          "midi": 42,
          "time": 7.399999999999995,
          "velocity": 0.9212598425196851,
          "duration": 0.09999999999999964
        },
        {
          "name": "F#2",
          "midi": 42,
          "time": 7.499999999999995,
          "velocity": 0.9212598425196851,
          "duration": 0.09999999999999964
        },
        {
          "name": "F#2",
          "midi": 42,
          "time": 7.599999999999994,
          "velocity": 0.9212598425196851,
          "duration": 0.09999999999999964
        },
        {
          "name": "F#2",
          "midi": 42,
          "time": 7.699999999999994,
          "velocity": 0.9212598425196851,
          "duration": 0.09999999999999964
        },
        {
          "name": "F#2",
          "midi": 42,
          "time": 7.799999999999994,
          "velocity": 0.9212598425196851,
          "duration": 0.09999999999999964
        },
        {
          "name": "F#2",
          "midi": 42,
          "time": 7.899999999999993,
          "velocity": 0.9212598425196851,
          "duration": 0.09999999999999964
        },
        {
          "name": "F#2",
          "midi": 42,
          "time": 7.999999999999993,
          "velocity": 0.8503937007874016,
          "duration": 0.1999999999999993
        },
        {
          "name": "F#2",
          "midi": 42,
          "time": 8.199999999999992,
          "velocity": 0.8503937007874016,
          "duration": 0.1999999999999993
        },
        {
          "name": "F#2",
          "midi": 42,
          "time": 8.399999999999991,
          "velocity": 0.8503937007874016,
          "duration": 0.1999999999999993
        },
        {
          "name": "F#2",
          "midi": 42,
          "time": 8.59999999999999,
          "velocity": 0.9212598425196851,
          "duration": 0.09999999999999964
        },
        {
          "name": "F#2",
          "midi": 42,
          "time": 8.69999999999999,
          "velocity": 0.9212598425196851,
          "duration": 0.09999999999999964
        },
        {
          "name": "F#2",
          "midi": 42,
          "time": 8.79999999999999,
          "velocity": 0.9212598425196851,
          "duration": 0.09999999999999964
        },
        {
          "name": "F#2",
          "midi": 42,
          "time": 8.89999999999999,
          "velocity": 0.9212598425196851,
          "duration": 0.09999999999999964
        },
        {
          "name": "F#2",
          "midi": 42,
          "time": 8.99999999999999,
          "velocity": 0.9212598425196851,
          "duration": 0.09999999999999964
        },
        {
          "name": "F#2",
          "midi": 42,
          "time": 9.099999999999989,
          "velocity": 0.9212598425196851,
          "duration": 0.09999999999999964
        },
        {
          "name": "F#2",
          "midi": 42,
          "time": 9.199999999999989,
          "velocity": 0.9212598425196851,
          "duration": 0.09999999999999964
        },
        {
          "name": "F#2",
          "midi": 42,
          "time": 9.299999999999988,
          "velocity": 0.9212598425196851,
          "duration": 0.09999999999999964
        },
        {
          "name": "F#2",
          "midi": 42,
          "time": 9.399999999999988,
          "velocity": 0.9212598425196851,
          "duration": 0.09999999999999964
        },
        {
          "name": "F#2",
          "midi": 42,
          "time": 9.499999999999988,
          "velocity": 0.9212598425196851,
          "duration": 0.09999999999999964
        },
        {
          "name": "F#2",
          "midi": 42,
          "time": 9.599999999999987,
          "velocity": 0.8031496062992126,
          "duration": 0.1999999999999993
        },
        {
          "name": "F#2",
          "midi": 42,
          "time": 9.799999999999986,
          "velocity": 0.8031496062992126,
          "duration": 0.1999999999999993
        },
        {
          "name": "F#2",
          "midi": 42,
          "time": 9.999999999999986,
          "velocity": 0.8031496062992126,
          "duration": 0.1999999999999993
        },
        {
          "name": "F#2",
          "midi": 42,
          "time": 10.199999999999985,
          "velocity": 0.9212598425196851,
          "duration": 0.09999999999999964
        },
        {
          "name": "F#2",
          "midi": 42,
          "time": 10.299999999999985,
          "velocity": 0.9212598425196851,
          "duration": 0.09999999999999964
        },
        {
          "name": "F#2",
          "midi": 42,
          "time": 10.399999999999984,
          "velocity": 0.9212598425196851,
          "duration": 0.09999999999999964
        },
        {
          "name": "F#2",
          "midi": 42,
          "time": 10.499999999999984,
          "velocity": 0.9212598425196851,
          "duration": 0.09999999999999964
        },
        {
          "name": "F#2",
          "midi": 42,
          "time": 10.599999999999984,
          "velocity": 0.9212598425196851,
          "duration": 0.09999999999999964
        },
        {
          "name": "F#2",
          "midi": 42,
          "time": 10.699999999999983,
          "velocity": 0.9212598425196851,
          "duration": 0.09999999999999964
        },
        {
          "name": "F#2",
          "midi": 42,
          "time": 10.799999999999983,
          "velocity": 0.9212598425196851,
          "duration": 0.09999999999999964
        },
        {
          "name": "F#2",
          "midi": 42,
          "time": 10.899999999999983,
          "velocity": 0.9212598425196851,
          "duration": 0.09999999999999964
        },
        {
          "name": "F#2",
          "midi": 42,
          "time": 10.999999999999982,
          "velocity": 0.9212598425196851,
          "duration": 0.09999999999999964
        },
        {
          "name": "F#2",
          "midi": 42,
          "time": 11.099999999999982,
          "velocity": 0.9212598425196851,
          "duration": 0.09999999999999964
        },
        {
          "name": "F#2",
          "midi": 42,
          "time": 11.199999999999982,
          "velocity": 0.8503937007874016,
          "duration": 0.1999999999999993
        },
        {
          "name": "F#2",
          "midi": 42,
          "time": 11.39999999999998,
          "velocity": 0.8503937007874016,
          "duration": 0.1999999999999993
        },
        {
          "name": "F#2",
          "midi": 42,
          "time": 11.59999999999998,
          "velocity": 0.8503937007874016,
          "duration": 0.1999999999999993
        },
        {
          "name": "F#2",
          "midi": 42,
          "time": 11.79999999999998,
          "velocity": 0.9212598425196851,
          "duration": 0.09999999999999964
        },
        {
          "name": "F#2",
          "midi": 42,
          "time": 11.899999999999979,
          "velocity": 0.9212598425196851,
          "duration": 0.09999999999999964
        },
        {
          "name": "F#2",
          "midi": 42,
          "time": 11.999999999999979,
          "velocity": 0.9212598425196851,
          "duration": 0.09999999999999964
        },
        {
          "name": "F#2",
          "midi": 42,
          "time": 12.099999999999978,
          "velocity": 0.9212598425196851,
          "duration": 0.09999999999999964
        },
        {
          "name": "F#2",
          "midi": 42,
          "time": 12.199999999999978,
          "velocity": 0.9212598425196851,
          "duration": 0.09999999999999964
        },
        {
          "name": "F#2",
          "midi": 42,
          "time": 12.299999999999978,
          "velocity": 0.9212598425196851,
          "duration": 0.09999999999999964
        },
        {
          "name": "F#2",
          "midi": 42,
          "time": 12.399999999999977,
          "velocity": 0.9212598425196851,
          "duration": 0.09999999999999964
        },
        {
          "name": "F#2",
          "midi": 42,
          "time": 12.499999999999977,
          "velocity": 0.9212598425196851,
          "duration": 0.09999999999999964
        },
        {
          "name": "F#2",
          "midi": 42,
          "time": 12.599999999999977,
          "velocity": 0.9212598425196851,
          "duration": 0.09999999999999964
        },
        {
          "name": "F#2",
          "midi": 42,
          "time": 12.699999999999976,
          "velocity": 0.9212598425196851,
          "duration": 0.09999999999999964
        },
        {
          "name": "F#2",
          "midi": 42,
          "time": 12.799999999999976,
          "velocity": 0.8031496062992126,
          "duration": 0.1999999999999993
        },
        {
          "name": "F#2",
          "midi": 42,
          "time": 12.999999999999975,
          "velocity": 0.8031496062992126,
          "duration": 0.1999999999999993
        },
        {
          "name": "F#2",
          "midi": 42,
          "time": 13.199999999999974,
          "velocity": 0.8031496062992126,
          "duration": 0.1999999999999993
        },
        {
          "name": "F#2",
          "midi": 42,
          "time": 13.399999999999974,
          "velocity": 0.9212598425196851,
          "duration": 0.09999999999999964
        },
        {
          "name": "F#2",
          "midi": 42,
          "time": 13.499999999999973,
          "velocity": 0.9212598425196851,
          "duration": 0.09999999999999964
        },
        {
          "name": "F#2",
          "midi": 42,
          "time": 13.599999999999973,
          "velocity": 0.9212598425196851,
          "duration": 0.09999999999999964
        },
        {
          "name": "F#2",
          "midi": 42,
          "time": 13.699999999999973,
          "velocity": 0.9212598425196851,
          "duration": 0.09999999999999964
        },
        {
          "name": "F#2",
          "midi": 42,
          "time": 13.799999999999972,
          "velocity": 0.9212598425196851,
          "duration": 0.09999999999999964
        },
        {
          "name": "F#2",
          "midi": 42,
          "time": 13.899999999999972,
          "velocity": 0.9212598425196851,
          "duration": 0.09999999999999964
        },
        {
          "name": "F#2",
          "midi": 42,
          "time": 13.999999999999972,
          "velocity": 0.9212598425196851,
          "duration": 0.09999999999999964
        },
        {
          "name": "F#2",
          "midi": 42,
          "time": 14.099999999999971,
          "velocity": 0.9212598425196851,
          "duration": 0.09999999999999964
        },
        {
          "name": "F#2",
          "midi": 42,
          "time": 14.19999999999997,
          "velocity": 0.9212598425196851,
          "duration": 0.09999999999999964
        },
        {
          "name": "F#2",
          "midi": 42,
          "time": 14.29999999999997,
          "velocity": 0.9212598425196851,
          "duration": 0.09999999999999964
        },
        {
          "name": "F#2",
          "midi": 42,
          "time": 14.39999999999997,
          "velocity": 0.8503937007874016,
          "duration": 0.1999999999999993
        },
        {
          "name": "F#2",
          "midi": 42,
          "time": 14.59999999999997,
          "velocity": 0.8503937007874016,
          "duration": 0.1999999999999993
        },
        {
          "name": "F#2",
          "midi": 42,
          "time": 14.799999999999969,
          "velocity": 0.8503937007874016,
          "duration": 0.1999999999999993
        },
        {
          "name": "F#2",
          "midi": 42,
          "time": 14.999999999999968,
          "velocity": 0.9212598425196851,
          "duration": 0.09999999999999964
        },
        {
          "name": "F#2",
          "midi": 42,
          "time": 15.099999999999968,
          "velocity": 0.9212598425196851,
          "duration": 0.09999999999999964
        },
        {
          "name": "F#2",
          "midi": 42,
          "time": 15.199999999999967,
          "velocity": 0.9212598425196851,
          "duration": 0.09999999999999964
        },
        {
          "name": "F#2",
          "midi": 42,
          "time": 15.299999999999967,
          "velocity": 0.9212598425196851,
          "duration": 0.09999999999999964
        },
        {
          "name": "F#2",
          "midi": 42,
          "time": 15.399999999999967,
          "velocity": 0.9212598425196851,
          "duration": 0.09999999999999964
        },
        {
          "name": "F#2",
          "midi": 42,
          "time": 15.499999999999966,
          "velocity": 0.9212598425196851,
          "duration": 0.09999999999999964
        },
        {
          "name": "F#2",
          "midi": 42,
          "time": 15.599999999999966,
          "velocity": 0.9212598425196851,
          "duration": 0.09999999999999964
        },
        {
          "name": "F#2",
          "midi": 42,
          "time": 15.699999999999966,
          "velocity": 0.9212598425196851,
          "duration": 0.09999999999999964
        },
        {
          "name": "F#2",
          "midi": 42,
          "time": 15.799999999999965,
          "velocity": 0.9212598425196851,
          "duration": 0.09999999999999964
        },
        {
          "name": "F#2",
          "midi": 42,
          "time": 15.899999999999965,
          "velocity": 0.9212598425196851,
          "duration": 0.09999999999999964
        },
        {
          "name": "F#2",
          "midi": 42,
          "time": 15.999999999999964,
          "velocity": 0.8031496062992126,
          "duration": 0.1999999999999993
        },
        {
          "name": "F#2",
          "midi": 42,
          "time": 16.199999999999964,
          "velocity": 0.8031496062992126,
          "duration": 0.1999999999999993
        },
        {
          "name": "F#2",
          "midi": 42,
          "time": 16.399999999999963,
          "velocity": 0.8031496062992126,
          "duration": 0.1999999999999993
        },
        {
          "name": "F#2",
          "midi": 42,
          "time": 16.599999999999962,
          "velocity": 0.9212598425196851,
          "duration": 0.10000000000000142
        },
        {
          "name": "F#2",
          "midi": 42,
          "time": 16.699999999999964,
          "velocity": 0.9212598425196851,
          "duration": 0.10000000000000142
        },
        {
          "name": "F#2",
          "midi": 42,
          "time": 16.799999999999965,
          "velocity": 0.9212598425196851,
          "duration": 0.10000000000000142
        },
        {
          "name": "F#2",
          "midi": 42,
          "time": 16.899999999999967,
          "velocity": 0.9212598425196851,
          "duration": 0.10000000000000142
        },
        {
          "name": "F#2",
          "midi": 42,
          "time": 16.999999999999968,
          "velocity": 0.9212598425196851,
          "duration": 0.10000000000000142
        },
        {
          "name": "F#2",
          "midi": 42,
          "time": 17.09999999999997,
          "velocity": 0.9212598425196851,
          "duration": 0.10000000000000142
        },
        {
          "name": "F#2",
          "midi": 42,
          "time": 17.19999999999997,
          "velocity": 0.9212598425196851,
          "duration": 0.10000000000000142
        },
        {
          "name": "F#2",
          "midi": 42,
          "time": 17.299999999999972,
          "velocity": 0.9212598425196851,
          "duration": 0.10000000000000142
        },
        {
          "name": "F#2",
          "midi": 42,
          "time": 17.399999999999974,
          "velocity": 0.9212598425196851,
          "duration": 0.10000000000000142
        },
        {
          "name": "F#2",
          "midi": 42,
          "time": 17.499999999999975,
          "velocity": 0.9212598425196851,
          "duration": 0.10000000000000142
        },
        {
          "name": "F#2",
          "midi": 42,
          "time": 17.599999999999977,
          "velocity": 0.8503937007874016,
          "duration": 0.1999999999999993
        },
        {
          "name": "F#2",
          "midi": 42,
          "time": 17.799999999999976,
          "velocity": 0.8503937007874016,
          "duration": 0.1999999999999993
        },
        {
          "name": "F#2",
          "midi": 42,
          "time": 17.999999999999975,
          "velocity": 0.8503937007874016,
          "duration": 0.1999999999999993
        },
        {
          "name": "F#2",
          "midi": 42,
          "time": 18.199999999999974,
          "velocity": 0.9212598425196851,
          "duration": 0.10000000000000142
        },
        {
          "name": "F#2",
          "midi": 42,
          "time": 18.299999999999976,
          "velocity": 0.9212598425196851,
          "duration": 0.10000000000000142
        },
        {
          "name": "F#2",
          "midi": 42,
          "time": 18.399999999999977,
          "velocity": 0.9212598425196851,
          "duration": 0.10000000000000142
        },
        {
          "name": "F#2",
          "midi": 42,
          "time": 18.49999999999998,
          "velocity": 0.9212598425196851,
          "duration": 0.10000000000000142
        },
        {
          "name": "F#2",
          "midi": 42,
          "time": 18.59999999999998,
          "velocity": 0.9212598425196851,
          "duration": 0.10000000000000142
        },
        {
          "name": "F#2",
          "midi": 42,
          "time": 18.69999999999998,
          "velocity": 0.9212598425196851,
          "duration": 0.10000000000000142
        },
        {
          "name": "F#2",
          "midi": 42,
          "time": 18.799999999999983,
          "velocity": 0.9212598425196851,
          "duration": 0.10000000000000142
        },
        {
          "name": "F#2",
          "midi": 42,
          "time": 18.899999999999984,
          "velocity": 0.9212598425196851,
          "duration": 0.10000000000000142
        },
        {
          "name": "F#2",
          "midi": 42,
          "time": 18.999999999999986,
          "velocity": 0.9212598425196851,
          "duration": 0.10000000000000142
        },
        {
          "name": "F#2",
          "midi": 42,
          "time": 19.099999999999987,
          "velocity": 0.9212598425196851,
          "duration": 0.10000000000000142
        },
        {
          "name": "F#2",
          "midi": 42,
          "time": 19.19999999999999,
          "velocity": 0.8031496062992126,
          "duration": 0.1999999999999993
        },
        {
          "name": "F#2",
          "midi": 42,
          "time": 19.399999999999988,
          "velocity": 0.8031496062992126,
          "duration": 0.1999999999999993
        },
        {
          "name": "F#2",
          "midi": 42,
          "time": 19.599999999999987,
          "velocity": 0.8031496062992126,
          "duration": 0.1999999999999993
        },
        {
          "name": "F#2",
          "midi": 42,
          "time": 19.799999999999986,
          "velocity": 0.9212598425196851,
          "duration": 0.10000000000000142
        },
        {
          "name": "F#2",
          "midi": 42,
          "time": 19.899999999999988,
          "velocity": 0.9212598425196851,
          "duration": 0.10000000000000142
        },
        {
          "name": "F#2",
          "midi": 42,
          "time": 19.99999999999999,
          "velocity": 0.9212598425196851,
          "duration": 0.10000000000000142
        },
        {
          "name": "F#2",
          "midi": 42,
          "time": 20.09999999999999,
          "velocity": 0.9212598425196851,
          "duration": 0.10000000000000142
        },
        {
          "name": "F#2",
          "midi": 42,
          "time": 20.199999999999992,
          "velocity": 0.9212598425196851,
          "duration": 0.10000000000000142
        },
        {
          "name": "F#2",
          "midi": 42,
          "time": 20.299999999999994,
          "velocity": 0.9212598425196851,
          "duration": 0.10000000000000142
        },
        {
          "name": "F#2",
          "midi": 42,
          "time": 20.399999999999995,
          "velocity": 0.9212598425196851,
          "duration": 0.10000000000000142
        },
        {
          "name": "F#2",
          "midi": 42,
          "time": 20.499999999999996,
          "velocity": 0.9212598425196851,
          "duration": 0.10000000000000142
        },
        {
          "name": "F#2",
          "midi": 42,
          "time": 20.599999999999998,
          "velocity": 0.9212598425196851,
          "duration": 0.10000000000000142
        },
        {
          "name": "F#2",
          "midi": 42,
          "time": 20.7,
          "velocity": 0.9212598425196851,
          "duration": 0.10000000000000142
        },
        {
          "name": "F#2",
          "midi": 42,
          "time": 20.8,
          "velocity": 0.8503937007874016,
          "duration": 0.1999999999999993
        },
        {
          "name": "F#2",
          "midi": 42,
          "time": 21,
          "velocity": 0.8503937007874016,
          "duration": 0.1999999999999993
        },
        {
          "name": "F#2",
          "midi": 42,
          "time": 21.2,
          "velocity": 0.8503937007874016,
          "duration": 0.1999999999999993
        },
        {
          "name": "F#2",
          "midi": 42,
          "time": 21.4,
          "velocity": 0.9212598425196851,
          "duration": 0.10000000000000142
        },
        {
          "name": "F#2",
          "midi": 42,
          "time": 21.5,
          "velocity": 0.9212598425196851,
          "duration": 0.10000000000000142
        },
        {
          "name": "F#2",
          "midi": 42,
          "time": 21.6,
          "velocity": 0.9212598425196851,
          "duration": 0.10000000000000142
        },
        {
          "name": "F#2",
          "midi": 42,
          "time": 21.700000000000003,
          "velocity": 0.9212598425196851,
          "duration": 0.10000000000000142
        },
        {
          "name": "F#2",
          "midi": 42,
          "time": 21.800000000000004,
          "velocity": 0.9212598425196851,
          "duration": 0.10000000000000142
        },
        {
          "name": "F#2",
          "midi": 42,
          "time": 21.900000000000006,
          "velocity": 0.9212598425196851,
          "duration": 0.10000000000000142
        },
        {
          "name": "F#2",
          "midi": 42,
          "time": 22.000000000000007,
          "velocity": 0.9212598425196851,
          "duration": 0.10000000000000142
        },
        {
          "name": "F#2",
          "midi": 42,
          "time": 22.10000000000001,
          "velocity": 0.9212598425196851,
          "duration": 0.10000000000000142
        },
        {
          "name": "F#2",
          "midi": 42,
          "time": 22.20000000000001,
          "velocity": 0.9212598425196851,
          "duration": 0.10000000000000142
        },
        {
          "name": "F#2",
          "midi": 42,
          "time": 22.30000000000001,
          "velocity": 0.9212598425196851,
          "duration": 0.10000000000000142
        },
        {
          "name": "F#2",
          "midi": 42,
          "time": 22.400000000000013,
          "velocity": 0.8031496062992126,
          "duration": 0.1999999999999993
        },
        {
          "name": "F#2",
          "midi": 42,
          "time": 22.600000000000012,
          "velocity": 0.8031496062992126,
          "duration": 0.1999999999999993
        },
        {
          "name": "F#2",
          "midi": 42,
          "time": 22.80000000000001,
          "velocity": 0.8031496062992126,
          "duration": 0.1999999999999993
        },
        {
          "name": "F#2",
          "midi": 42,
          "time": 23.00000000000001,
          "velocity": 0.9212598425196851,
          "duration": 0.10000000000000142
        },
        {
          "name": "F#2",
          "midi": 42,
          "time": 23.100000000000012,
          "velocity": 0.9212598425196851,
          "duration": 0.10000000000000142
        },
        {
          "name": "F#2",
          "midi": 42,
          "time": 23.200000000000014,
          "velocity": 0.9212598425196851,
          "duration": 0.10000000000000142
        },
        {
          "name": "F#2",
          "midi": 42,
          "time": 23.300000000000015,
          "velocity": 0.9212598425196851,
          "duration": 0.10000000000000142
        },
        {
          "name": "F#2",
          "midi": 42,
          "time": 23.400000000000016,
          "velocity": 0.9212598425196851,
          "duration": 0.10000000000000142
        },
        {
          "name": "F#2",
          "midi": 42,
          "time": 23.500000000000018,
          "velocity": 0.9212598425196851,
          "duration": 0.10000000000000142
        },
        {
          "name": "F#2",
          "midi": 42,
          "time": 23.60000000000002,
          "velocity": 0.9212598425196851,
          "duration": 0.10000000000000142
        },
        {
          "name": "F#2",
          "midi": 42,
          "time": 23.70000000000002,
          "velocity": 0.9212598425196851,
          "duration": 0.10000000000000142
        },
        {
          "name": "F#2",
          "midi": 42,
          "time": 23.800000000000022,
          "velocity": 0.9212598425196851,
          "duration": 0.10000000000000142
        },
        {
          "name": "F#2",
          "midi": 42,
          "time": 23.900000000000023,
          "velocity": 0.9212598425196851,
          "duration": 0.10000000000000142
        },
        {
          "name": "F#2",
          "midi": 42,
          "time": 24.000000000000025,
          "velocity": 0.8503937007874016,
          "duration": 0.1999999999999993
        },
        {
          "name": "F#2",
          "midi": 42,
          "time": 24.200000000000024,
          "velocity": 0.8503937007874016,
          "duration": 0.1999999999999993
        },
        {
          "name": "F#2",
          "midi": 42,
          "time": 24.400000000000023,
          "velocity": 0.8503937007874016,
          "duration": 0.1999999999999993
        },
        {
          "name": "F#2",
          "midi": 42,
          "time": 24.600000000000023,
          "velocity": 0.9212598425196851,
          "duration": 0.10000000000000142
        },
        {
          "name": "F#2",
          "midi": 42,
          "time": 24.700000000000024,
          "velocity": 0.9212598425196851,
          "duration": 0.10000000000000142
        },
        {
          "name": "F#2",
          "midi": 42,
          "time": 24.800000000000026,
          "velocity": 0.9212598425196851,
          "duration": 0.10000000000000142
        },
        {
          "name": "F#2",
          "midi": 42,
          "time": 24.900000000000027,
          "velocity": 0.9212598425196851,
          "duration": 0.10000000000000142
        },
        {
          "name": "F#2",
          "midi": 42,
          "time": 25.00000000000003,
          "velocity": 0.9212598425196851,
          "duration": 0.10000000000000142
        },
        {
          "name": "F#2",
          "midi": 42,
          "time": 25.10000000000003,
          "velocity": 0.9212598425196851,
          "duration": 0.10000000000000142
        },
        {
          "name": "F#2",
          "midi": 42,
          "time": 25.20000000000003,
          "velocity": 0.9212598425196851,
          "duration": 0.10000000000000142
        },
        {
          "name": "F#2",
          "midi": 42,
          "time": 25.300000000000033,
          "velocity": 0.9212598425196851,
          "duration": 0.10000000000000142
        },
        {
          "name": "F#2",
          "midi": 42,
          "time": 25.400000000000034,
          "velocity": 0.9212598425196851,
          "duration": 0.10000000000000142
        },
        {
          "name": "F#2",
          "midi": 42,
          "time": 25.500000000000036,
          "velocity": 0.9212598425196851,
          "duration": 0.10000000000000142
        },
        {
          "name": "F#2",
          "midi": 42,
          "time": 27.800000000000036,
          "velocity": 0.937007874015748,
          "duration": 0.10000000000000142
        },
        {
          "name": "G#2",
          "midi": 44,
          "time": 27.800000000000036,
          "velocity": 0.937007874015748,
          "duration": 0.10000000000000142
        },
        {
          "name": "F#2",
          "midi": 42,
          "time": 27.900000000000038,
          "velocity": 0.937007874015748,
          "duration": 0.10000000000000142
        },
        {
          "name": "G#2",
          "midi": 44,
          "time": 27.900000000000038,
          "velocity": 0.937007874015748,
          "duration": 0.10000000000000142
        },
        {
          "name": "F#2",
          "midi": 42,
          "time": 28.20000000000004,
          "velocity": 0.937007874015748,
          "duration": 0.10000000000000142
        },
        {
          "name": "G#2",
          "midi": 44,
          "time": 28.20000000000004,
          "velocity": 0.937007874015748,
          "duration": 0.10000000000000142
        },
        {
          "name": "F#2",
          "midi": 42,
          "time": 28.30000000000004,
          "velocity": 0.937007874015748,
          "duration": 0.10000000000000142
        },
        {
          "name": "G#2",
          "midi": 44,
          "time": 28.30000000000004,
          "velocity": 0.937007874015748,
          "duration": 0.10000000000000142
        },
        {
          "name": "F#2",
          "midi": 42,
          "time": 28.40000000000004,
          "velocity": 0.8976377952755905,
          "duration": 0.1999999999999993
        },
        {
          "name": "G#2",
          "midi": 44,
          "time": 28.40000000000004,
          "velocity": 0.8976377952755905,
          "duration": 0.1999999999999993
        },
        {
          "name": "F#2",
          "midi": 42,
          "time": 28.60000000000004,
          "velocity": 0.937007874015748,
          "duration": 0.10000000000000142
        },
        {
          "name": "G#2",
          "midi": 44,
          "time": 28.60000000000004,
          "velocity": 0.937007874015748,
          "duration": 0.10000000000000142
        },
        {
          "name": "F#2",
          "midi": 42,
          "time": 28.700000000000042,
          "velocity": 0.937007874015748,
          "duration": 0.10000000000000142
        },
        {
          "name": "G#2",
          "midi": 44,
          "time": 28.700000000000042,
          "velocity": 0.937007874015748,
          "duration": 0.10000000000000142
        },
        {
          "name": "F#2",
          "midi": 42,
          "time": 28.800000000000043,
          "velocity": 0.9212598425196851,
          "duration": 0.1999999999999993
        },
        {
          "name": "F#2",
          "midi": 42,
          "time": 29.000000000000043,
          "velocity": 0.9212598425196851,
          "duration": 0.10000000000000142
        },
        {
          "name": "F#2",
          "midi": 42,
          "time": 29.100000000000044,
          "velocity": 0.9212598425196851,
          "duration": 0.10000000000000142
        },
        {
          "name": "F#2",
          "midi": 42,
          "time": 29.200000000000045,
          "velocity": 0.9212598425196851,
          "duration": 0.1999999999999993
        },
        {
          "name": "F#2",
          "midi": 42,
          "time": 29.400000000000045,
          "velocity": 0.9212598425196851,
          "duration": 0.10000000000000142
        },
        {
          "name": "F#2",
          "midi": 42,
          "time": 29.500000000000046,
          "velocity": 0.9212598425196851,
          "duration": 0.10000000000000142
        },
        {
          "name": "F#2",
          "midi": 42,
          "time": 29.600000000000048,
          "velocity": 0.9212598425196851,
          "duration": 0.1999999999999993
        },
        {
          "name": "F#2",
          "midi": 42,
          "time": 29.800000000000047,
          "velocity": 0.9212598425196851,
          "duration": 0.10000000000000142
        },
        {
          "name": "F#2",
          "midi": 42,
          "time": 29.90000000000005,
          "velocity": 0.9212598425196851,
          "duration": 0.10000000000000142
        },
        {
          "name": "F#2",
          "midi": 42,
          "time": 30.00000000000005,
          "velocity": 0.9212598425196851,
          "duration": 0.1999999999999993
        },
        {
          "name": "F#2",
          "midi": 42,
          "time": 30.20000000000005,
          "velocity": 0.9212598425196851,
          "duration": 0.10000000000000142
        },
        {
          "name": "F#2",
          "midi": 42,
          "time": 30.30000000000005,
          "velocity": 0.9212598425196851,
          "duration": 0.10000000000000142
        },
        {
          "name": "F#2",
          "midi": 42,
          "time": 30.400000000000052,
          "velocity": 0.9212598425196851,
          "duration": 0.1999999999999993
        },
        {
          "name": "F#2",
          "midi": 42,
          "time": 30.60000000000005,
          "velocity": 0.9212598425196851,
          "duration": 0.10000000000000142
        },
        {
          "name": "F#2",
          "midi": 42,
          "time": 30.700000000000053,
          "velocity": 0.9212598425196851,
          "duration": 0.10000000000000142
        },
        {
          "name": "F#2",
          "midi": 42,
          "time": 30.800000000000054,
          "velocity": 0.9212598425196851,
          "duration": 0.1999999999999993
        },
        {
          "name": "F#2",
          "midi": 42,
          "time": 31.000000000000053,
          "velocity": 0.9212598425196851,
          "duration": 0.10000000000000142
        },
        {
          "name": "F#2",
          "midi": 42,
          "time": 31.100000000000055,
          "velocity": 0.9212598425196851,
          "duration": 0.10000000000000142
        },
        {
          "name": "F#2",
          "midi": 42,
          "time": 31.200000000000056,
          "velocity": 0.9212598425196851,
          "duration": 0.1999999999999993
        },
        {
          "name": "F#2",
          "midi": 42,
          "time": 31.400000000000055,
          "velocity": 0.9212598425196851,
          "duration": 0.10000000000000142
        },
        {
          "name": "F#2",
          "midi": 42,
          "time": 31.500000000000057,
          "velocity": 0.9212598425196851,
          "duration": 0.10000000000000142
        },
        {
          "name": "F#2",
          "midi": 42,
          "time": 31.60000000000006,
          "velocity": 0.9212598425196851,
          "duration": 0.1999999999999993
        },
        {
          "name": "F#2",
          "midi": 42,
          "time": 31.800000000000058,
          "velocity": 0.9212598425196851,
          "duration": 0.10000000000000142
        },
        {
          "name": "F#2",
          "midi": 42,
          "time": 31.90000000000006,
          "velocity": 0.9212598425196851,
          "duration": 0.09999999999999787
        },
        {
          "name": "F#2",
          "midi": 42,
          "time": 32.00000000000006,
          "velocity": 0.9212598425196851,
          "duration": 0.20000000000000284
        },
        {
          "name": "F#2",
          "midi": 42,
          "time": 32.20000000000006,
          "velocity": 0.9212598425196851,
          "duration": 0.10000000000000142
        },
        {
          "name": "F#2",
          "midi": 42,
          "time": 32.30000000000006,
          "velocity": 0.9212598425196851,
          "duration": 0.10000000000000142
        },
        {
          "name": "F#2",
          "midi": 42,
          "time": 32.40000000000006,
          "velocity": 0.9212598425196851,
          "duration": 0.20000000000000284
        },
        {
          "name": "F#2",
          "midi": 42,
          "time": 32.600000000000065,
          "velocity": 0.9212598425196851,
          "duration": 0.10000000000000142
        },
        {
          "name": "F#2",
          "midi": 42,
          "time": 32.70000000000007,
          "velocity": 0.9212598425196851,
          "duration": 0.10000000000000142
        },
        {
          "name": "F#2",
          "midi": 42,
          "time": 32.80000000000007,
          "velocity": 0.9212598425196851,
          "duration": 0.20000000000000284
        },
        {
          "name": "F#2",
          "midi": 42,
          "time": 33.00000000000007,
          "velocity": 0.9212598425196851,
          "duration": 0.10000000000000142
        },
        {
          "name": "F#2",
          "midi": 42,
          "time": 33.10000000000007,
          "velocity": 0.9212598425196851,
          "duration": 0.10000000000000142
        },
        {
          "name": "F#2",
          "midi": 42,
          "time": 33.200000000000074,
          "velocity": 0.9212598425196851,
          "duration": 0.20000000000000284
        },
        {
          "name": "F#2",
          "midi": 42,
          "time": 33.40000000000008,
          "velocity": 0.9212598425196851,
          "duration": 0.10000000000000142
        },
        {
          "name": "F#2",
          "midi": 42,
          "time": 33.50000000000008,
          "velocity": 0.9212598425196851,
          "duration": 0.10000000000000142
        },
        {
          "name": "F#2",
          "midi": 42,
          "time": 33.60000000000008,
          "velocity": 0.9212598425196851,
          "duration": 0.20000000000000284
        },
        {
          "name": "F#2",
          "midi": 42,
          "time": 33.80000000000008,
          "velocity": 0.9212598425196851,
          "duration": 0.10000000000000142
        },
        {
          "name": "F#2",
          "midi": 42,
          "time": 33.900000000000084,
          "velocity": 0.9212598425196851,
          "duration": 0.10000000000000142
        },
        {
          "name": "F#2",
          "midi": 42,
          "time": 34.000000000000085,
          "velocity": 0.9212598425196851,
          "duration": 0.20000000000000284
        },
        {
          "name": "F#2",
          "midi": 42,
          "time": 34.20000000000009,
          "velocity": 0.9212598425196851,
          "duration": 0.10000000000000142
        },
        {
          "name": "F#2",
          "midi": 42,
          "time": 34.30000000000009,
          "velocity": 0.9212598425196851,
          "duration": 0.10000000000000142
        },
        {
          "name": "F#2",
          "midi": 42,
          "time": 34.40000000000009,
          "velocity": 0.9212598425196851,
          "duration": 0.20000000000000284
        },
        {
          "name": "F#2",
          "midi": 42,
          "time": 34.600000000000094,
          "velocity": 0.9212598425196851,
          "duration": 0.10000000000000142
        },
        {
          "name": "F#2",
          "midi": 42,
          "time": 34.700000000000095,
          "velocity": 0.9212598425196851,
          "duration": 0.10000000000000142
        },
        {
          "name": "F#2",
          "midi": 42,
          "time": 34.8000000000001,
          "velocity": 0.9212598425196851,
          "duration": 0.20000000000000284
        },
        {
          "name": "F#2",
          "midi": 42,
          "time": 35.0000000000001,
          "velocity": 0.9212598425196851,
          "duration": 0.10000000000000142
        },
        {
          "name": "F#2",
          "midi": 42,
          "time": 35.1000000000001,
          "velocity": 0.9212598425196851,
          "duration": 0.10000000000000142
        },
        {
          "name": "F#2",
          "midi": 42,
          "time": 35.2000000000001,
          "velocity": 0.9212598425196851,
          "duration": 0.20000000000000284
        },
        {
          "name": "F#2",
          "midi": 42,
          "time": 35.400000000000105,
          "velocity": 0.9212598425196851,
          "duration": 0.10000000000000142
        },
        {
          "name": "F#2",
          "midi": 42,
          "time": 35.50000000000011,
          "velocity": 0.9212598425196851,
          "duration": 0.10000000000000142
        },
        {
          "name": "F#2",
          "midi": 42,
          "time": 35.60000000000011,
          "velocity": 0.9212598425196851,
          "duration": 0.20000000000000284
        },
        {
          "name": "F#2",
          "midi": 42,
          "time": 35.80000000000011,
          "velocity": 0.9212598425196851,
          "duration": 0.10000000000000142
        },
        {
          "name": "F#2",
          "midi": 42,
          "time": 35.90000000000011,
          "velocity": 0.9212598425196851,
          "duration": 0.10000000000000142
        },
        {
          "name": "F#2",
          "midi": 42,
          "time": 36.000000000000114,
          "velocity": 0.9212598425196851,
          "duration": 0.20000000000000284
        },
        {
          "name": "F#2",
          "midi": 42,
          "time": 36.20000000000012,
          "velocity": 0.9212598425196851,
          "duration": 0.10000000000000142
        },
        {
          "name": "F#2",
          "midi": 42,
          "time": 36.30000000000012,
          "velocity": 0.9212598425196851,
          "duration": 0.10000000000000142
        },
        {
          "name": "F#2",
          "midi": 42,
          "time": 36.40000000000012,
          "velocity": 0.9212598425196851,
          "duration": 0.20000000000000284
        },
        {
          "name": "F#2",
          "midi": 42,
          "time": 36.60000000000012,
          "velocity": 0.9212598425196851,
          "duration": 0.10000000000000142
        },
        {
          "name": "F#2",
          "midi": 42,
          "time": 36.700000000000124,
          "velocity": 0.9212598425196851,
          "duration": 0.10000000000000142
        },
        {
          "name": "F#2",
          "midi": 42,
          "time": 36.800000000000125,
          "velocity": 0.9212598425196851,
          "duration": 0.20000000000000284
        },
        {
          "name": "F#2",
          "midi": 42,
          "time": 37.00000000000013,
          "velocity": 0.9212598425196851,
          "duration": 0.10000000000000142
        },
        {
          "name": "F#2",
          "midi": 42,
          "time": 37.10000000000013,
          "velocity": 0.9212598425196851,
          "duration": 0.10000000000000142
        },
        {
          "name": "F#2",
          "midi": 42,
          "time": 37.20000000000013,
          "velocity": 0.9212598425196851,
          "duration": 0.20000000000000284
        },
        {
          "name": "F#2",
          "midi": 42,
          "time": 37.400000000000134,
          "velocity": 0.9212598425196851,
          "duration": 0.10000000000000142
        },
        {
          "name": "F#2",
          "midi": 42,
          "time": 37.500000000000135,
          "velocity": 0.9212598425196851,
          "duration": 0.10000000000000142
        },
        {
          "name": "F#2",
          "midi": 42,
          "time": 37.600000000000136,
          "velocity": 0.9212598425196851,
          "duration": 0.20000000000000284
        },
        {
          "name": "F#2",
          "midi": 42,
          "time": 37.80000000000014,
          "velocity": 0.9212598425196851,
          "duration": 0.10000000000000142
        },
        {
          "name": "F#2",
          "midi": 42,
          "time": 37.90000000000014,
          "velocity": 0.9212598425196851,
          "duration": 0.10000000000000142
        },
        {
          "name": "F#2",
          "midi": 42,
          "time": 38.00000000000014,
          "velocity": 0.9212598425196851,
          "duration": 0.20000000000000284
        },
        {
          "name": "F#2",
          "midi": 42,
          "time": 38.200000000000145,
          "velocity": 0.9212598425196851,
          "duration": 0.10000000000000142
        },
        {
          "name": "F#2",
          "midi": 42,
          "time": 38.300000000000146,
          "velocity": 0.9212598425196851,
          "duration": 0.10000000000000142
        },
        {
          "name": "F#2",
          "midi": 42,
          "time": 38.40000000000015,
          "velocity": 0.9212598425196851,
          "duration": 0.20000000000000284
        },
        {
          "name": "F#2",
          "midi": 42,
          "time": 38.60000000000015,
          "velocity": 0.9212598425196851,
          "duration": 0.10000000000000142
        },
        {
          "name": "F#2",
          "midi": 42,
          "time": 38.70000000000015,
          "velocity": 0.9212598425196851,
          "duration": 0.10000000000000142
        },
        {
          "name": "F#2",
          "midi": 42,
          "time": 38.80000000000015,
          "velocity": 0.9212598425196851,
          "duration": 0.20000000000000284
        },
        {
          "name": "F#2",
          "midi": 42,
          "time": 39.000000000000156,
          "velocity": 0.9212598425196851,
          "duration": 0.10000000000000142
        },
        {
          "name": "F#2",
          "midi": 42,
          "time": 39.10000000000016,
          "velocity": 0.9212598425196851,
          "duration": 0.10000000000000142
        },
        {
          "name": "F#2",
          "midi": 42,
          "time": 39.20000000000016,
          "velocity": 0.9212598425196851,
          "duration": 0.20000000000000284
        },
        {
          "name": "F#2",
          "midi": 42,
          "time": 39.40000000000016,
          "velocity": 0.9212598425196851,
          "duration": 0.10000000000000142
        },
        {
          "name": "F#2",
          "midi": 42,
          "time": 39.50000000000016,
          "velocity": 0.9212598425196851,
          "duration": 0.10000000000000142
        },
        {
          "name": "F#2",
          "midi": 42,
          "time": 39.600000000000165,
          "velocity": 0.9212598425196851,
          "duration": 0.20000000000000284
        },
        {
          "name": "F#2",
          "midi": 42,
          "time": 39.80000000000017,
          "velocity": 0.9212598425196851,
          "duration": 0.10000000000000142
        },
        {
          "name": "F#2",
          "midi": 42,
          "time": 39.90000000000017,
          "velocity": 0.9212598425196851,
          "duration": 0.10000000000000142
        },
        {
          "name": "F#2",
          "midi": 42,
          "time": 40.00000000000017,
          "velocity": 0.9212598425196851,
          "duration": 0.20000000000000284
        },
        {
          "name": "F#2",
          "midi": 42,
          "time": 40.20000000000017,
          "velocity": 0.9212598425196851,
          "duration": 0.10000000000000142
        },
        {
          "name": "F#2",
          "midi": 42,
          "time": 40.300000000000175,
          "velocity": 0.9212598425196851,
          "duration": 0.10000000000000142
        },
        {
          "name": "F#2",
          "midi": 42,
          "time": 40.400000000000176,
          "velocity": 0.9212598425196851,
          "duration": 0.20000000000000284
        },
        {
          "name": "F#2",
          "midi": 42,
          "time": 40.60000000000018,
          "velocity": 0.9212598425196851,
          "duration": 0.10000000000000142
        },
        {
          "name": "F#2",
          "midi": 42,
          "time": 40.70000000000018,
          "velocity": 0.9212598425196851,
          "duration": 0.10000000000000142
        },
        {
          "name": "F#2",
          "midi": 42,
          "time": 40.80000000000018,
          "velocity": 0.9212598425196851,
          "duration": 0.20000000000000284
        },
        {
          "name": "F#2",
          "midi": 42,
          "time": 41.000000000000185,
          "velocity": 0.9212598425196851,
          "duration": 0.10000000000000142
        },
        {
          "name": "F#2",
          "midi": 42,
          "time": 41.100000000000186,
          "velocity": 0.9212598425196851,
          "duration": 0.10000000000000142
        },
        {
          "name": "F#2",
          "midi": 42,
          "time": 41.20000000000019,
          "velocity": 0.9212598425196851,
          "duration": 0.20000000000000284
        },
        {
          "name": "F#2",
          "midi": 42,
          "time": 41.40000000000019,
          "velocity": 0.9212598425196851,
          "duration": 0.10000000000000142
        },
        {
          "name": "F#2",
          "midi": 42,
          "time": 41.50000000000019,
          "velocity": 0.9212598425196851,
          "duration": 0.10000000000000142
        },
        {
          "name": "F#2",
          "midi": 42,
          "time": 41.60000000000019,
          "velocity": 0.9212598425196851,
          "duration": 0.20000000000000284
        },
        {
          "name": "F#2",
          "midi": 42,
          "time": 41.800000000000196,
          "velocity": 0.9212598425196851,
          "duration": 0.10000000000000142
        },
        {
          "name": "F#2",
          "midi": 42,
          "time": 41.9000000000002,
          "velocity": 0.9212598425196851,
          "duration": 0.10000000000000142
        },
        {
          "name": "F#2",
          "midi": 42,
          "time": 42.0000000000002,
          "velocity": 0.9212598425196851,
          "duration": 0.20000000000000284
        },
        {
          "name": "F#2",
          "midi": 42,
          "time": 42.2000000000002,
          "velocity": 0.9212598425196851,
          "duration": 0.10000000000000142
        },
        {
          "name": "F#2",
          "midi": 42,
          "time": 42.3000000000002,
          "velocity": 0.9212598425196851,
          "duration": 0.10000000000000142
        },
        {
          "name": "F#2",
          "midi": 42,
          "time": 42.400000000000205,
          "velocity": 0.9212598425196851,
          "duration": 0.20000000000000284
        },
        {
          "name": "F#2",
          "midi": 42,
          "time": 42.60000000000021,
          "velocity": 0.9212598425196851,
          "duration": 0.10000000000000142
        },
        {
          "name": "F#2",
          "midi": 42,
          "time": 42.70000000000021,
          "velocity": 0.9212598425196851,
          "duration": 0.10000000000000142
        },
        {
          "name": "F#2",
          "midi": 42,
          "time": 42.80000000000021,
          "velocity": 0.9212598425196851,
          "duration": 0.20000000000000284
        },
        {
          "name": "F#2",
          "midi": 42,
          "time": 43.00000000000021,
          "velocity": 0.9212598425196851,
          "duration": 0.10000000000000142
        },
        {
          "name": "F#2",
          "midi": 42,
          "time": 43.100000000000215,
          "velocity": 0.9212598425196851,
          "duration": 0.10000000000000142
        },
        {
          "name": "F#2",
          "midi": 42,
          "time": 43.200000000000216,
          "velocity": 0.9212598425196851,
          "duration": 0.20000000000000284
        },
        {
          "name": "F#2",
          "midi": 42,
          "time": 43.40000000000022,
          "velocity": 0.9212598425196851,
          "duration": 0.10000000000000142
        },
        {
          "name": "F#2",
          "midi": 42,
          "time": 43.50000000000022,
          "velocity": 0.9212598425196851,
          "duration": 0.10000000000000142
        },
        {
          "name": "F#2",
          "midi": 42,
          "time": 43.60000000000022,
          "velocity": 0.9212598425196851,
          "duration": 0.20000000000000284
        },
        {
          "name": "F#2",
          "midi": 42,
          "time": 43.800000000000225,
          "velocity": 0.9212598425196851,
          "duration": 0.10000000000000142
        },
        {
          "name": "F#2",
          "midi": 42,
          "time": 43.900000000000226,
          "velocity": 0.9212598425196851,
          "duration": 0.10000000000000142
        },
        {
          "name": "F#2",
          "midi": 42,
          "time": 44.00000000000023,
          "velocity": 0.9212598425196851,
          "duration": 0.20000000000000284
        },
        {
          "name": "F#2",
          "midi": 42,
          "time": 44.20000000000023,
          "velocity": 0.9212598425196851,
          "duration": 0.10000000000000142
        },
        {
          "name": "F#2",
          "midi": 42,
          "time": 44.30000000000023,
          "velocity": 0.9212598425196851,
          "duration": 0.10000000000000142
        },
        {
          "name": "F#2",
          "midi": 42,
          "time": 44.40000000000023,
          "velocity": 0.9212598425196851,
          "duration": 0.20000000000000284
        },
        {
          "name": "F#2",
          "midi": 42,
          "time": 44.600000000000236,
          "velocity": 0.9212598425196851,
          "duration": 0.10000000000000142
        },
        {
          "name": "F#2",
          "midi": 42,
          "time": 44.70000000000024,
          "velocity": 0.9212598425196851,
          "duration": 0.10000000000000142
        },
        {
          "name": "F#2",
          "midi": 42,
          "time": 44.80000000000024,
          "velocity": 0.9212598425196851,
          "duration": 0.20000000000000284
        },
        {
          "name": "F#2",
          "midi": 42,
          "time": 45.00000000000024,
          "velocity": 0.9212598425196851,
          "duration": 0.10000000000000142
        },
        {
          "name": "F#2",
          "midi": 42,
          "time": 45.10000000000024,
          "velocity": 0.9212598425196851,
          "duration": 0.10000000000000142
        },
        {
          "name": "F#2",
          "midi": 42,
          "time": 45.200000000000244,
          "velocity": 0.9212598425196851,
          "duration": 0.20000000000000284
        },
        {
          "name": "F#2",
          "midi": 42,
          "time": 45.40000000000025,
          "velocity": 0.9212598425196851,
          "duration": 0.10000000000000142
        },
        {
          "name": "F#2",
          "midi": 42,
          "time": 45.50000000000025,
          "velocity": 0.9212598425196851,
          "duration": 0.10000000000000142
        },
        {
          "name": "F#2",
          "midi": 42,
          "time": 45.60000000000025,
          "velocity": 0.9212598425196851,
          "duration": 0.20000000000000284
        },
        {
          "name": "F#2",
          "midi": 42,
          "time": 45.80000000000025,
          "velocity": 0.9212598425196851,
          "duration": 0.10000000000000142
        },
        {
          "name": "F#2",
          "midi": 42,
          "time": 45.900000000000254,
          "velocity": 0.9212598425196851,
          "duration": 0.10000000000000142
        },
        {
          "name": "F#2",
          "midi": 42,
          "time": 46.000000000000256,
          "velocity": 0.9212598425196851,
          "duration": 0.20000000000000284
        },
        {
          "name": "F#2",
          "midi": 42,
          "time": 46.20000000000026,
          "velocity": 0.9212598425196851,
          "duration": 0.10000000000000142
        },
        {
          "name": "F#2",
          "midi": 42,
          "time": 46.30000000000026,
          "velocity": 0.9212598425196851,
          "duration": 0.10000000000000142
        },
        {
          "name": "F#2",
          "midi": 42,
          "time": 46.40000000000026,
          "velocity": 0.9212598425196851,
          "duration": 0.20000000000000284
        },
        {
          "name": "F#2",
          "midi": 42,
          "time": 46.600000000000264,
          "velocity": 0.9212598425196851,
          "duration": 0.10000000000000142
        },
        {
          "name": "F#2",
          "midi": 42,
          "time": 46.700000000000266,
          "velocity": 0.9212598425196851,
          "duration": 0.10000000000000142
        },
        {
          "name": "F#2",
          "midi": 42,
          "time": 46.80000000000027,
          "velocity": 0.9212598425196851,
          "duration": 0.20000000000000284
        },
        {
          "name": "F#2",
          "midi": 42,
          "time": 47.00000000000027,
          "velocity": 0.9212598425196851,
          "duration": 0.10000000000000142
        },
        {
          "name": "F#2",
          "midi": 42,
          "time": 47.10000000000027,
          "velocity": 0.9212598425196851,
          "duration": 0.10000000000000142
        },
        {
          "name": "F#2",
          "midi": 42,
          "time": 47.20000000000027,
          "velocity": 0.9212598425196851,
          "duration": 0.20000000000000284
        },
        {
          "name": "F#2",
          "midi": 42,
          "time": 47.400000000000276,
          "velocity": 0.9212598425196851,
          "duration": 0.10000000000000142
        },
        {
          "name": "F#2",
          "midi": 42,
          "time": 47.50000000000028,
          "velocity": 0.9212598425196851,
          "duration": 0.10000000000000142
        },
        {
          "name": "F#2",
          "midi": 42,
          "time": 47.60000000000028,
          "velocity": 0.9212598425196851,
          "duration": 0.20000000000000284
        },
        {
          "name": "F#2",
          "midi": 42,
          "time": 47.80000000000028,
          "velocity": 0.9212598425196851,
          "duration": 0.10000000000000142
        },
        {
          "name": "F#2",
          "midi": 42,
          "time": 47.90000000000028,
          "velocity": 0.9212598425196851,
          "duration": 0.10000000000000142
        },
        {
          "name": "F#2",
          "midi": 42,
          "time": 48.000000000000284,
          "velocity": 0.9212598425196851,
          "duration": 0.20000000000000284
        },
        {
          "name": "F#2",
          "midi": 42,
          "time": 48.20000000000029,
          "velocity": 0.9212598425196851,
          "duration": 0.10000000000000142
        },
        {
          "name": "F#2",
          "midi": 42,
          "time": 48.30000000000029,
          "velocity": 0.9212598425196851,
          "duration": 0.10000000000000142
        },
        {
          "name": "F#2",
          "midi": 42,
          "time": 48.40000000000029,
          "velocity": 0.9212598425196851,
          "duration": 0.20000000000000284
        },
        {
          "name": "F#2",
          "midi": 42,
          "time": 48.60000000000029,
          "velocity": 0.9212598425196851,
          "duration": 0.10000000000000142
        },
        {
          "name": "F#2",
          "midi": 42,
          "time": 48.700000000000294,
          "velocity": 0.9212598425196851,
          "duration": 0.10000000000000142
        },
        {
          "name": "F#2",
          "midi": 42,
          "time": 48.800000000000296,
          "velocity": 0.9212598425196851,
          "duration": 0.20000000000000284
        },
        {
          "name": "F#2",
          "midi": 42,
          "time": 49.0000000000003,
          "velocity": 0.9212598425196851,
          "duration": 0.10000000000000142
        },
        {
          "name": "F#2",
          "midi": 42,
          "time": 49.1000000000003,
          "velocity": 0.9212598425196851,
          "duration": 0.10000000000000142
        },
        {
          "name": "F#2",
          "midi": 42,
          "time": 49.2000000000003,
          "velocity": 0.9212598425196851,
          "duration": 0.20000000000000284
        },
        {
          "name": "F#2",
          "midi": 42,
          "time": 49.400000000000304,
          "velocity": 0.9212598425196851,
          "duration": 0.10000000000000142
        },
        {
          "name": "F#2",
          "midi": 42,
          "time": 49.500000000000306,
          "velocity": 0.9212598425196851,
          "duration": 0.10000000000000142
        },
        {
          "name": "F#2",
          "midi": 42,
          "time": 49.60000000000031,
          "velocity": 0.9212598425196851,
          "duration": 0.20000000000000284
        },
        {
          "name": "F#2",
          "midi": 42,
          "time": 49.80000000000031,
          "velocity": 0.9212598425196851,
          "duration": 0.10000000000000142
        },
        {
          "name": "F#2",
          "midi": 42,
          "time": 49.90000000000031,
          "velocity": 0.9212598425196851,
          "duration": 0.10000000000000142
        },
        {
          "name": "F#2",
          "midi": 42,
          "time": 50.00000000000031,
          "velocity": 0.9212598425196851,
          "duration": 0.20000000000000284
        },
        {
          "name": "F#2",
          "midi": 42,
          "time": 50.200000000000315,
          "velocity": 0.9212598425196851,
          "duration": 0.10000000000000142
        },
        {
          "name": "F#2",
          "midi": 42,
          "time": 50.30000000000032,
          "velocity": 0.9212598425196851,
          "duration": 0.10000000000000142
        },
        {
          "name": "F#2",
          "midi": 42,
          "time": 50.40000000000032,
          "velocity": 0.9212598425196851,
          "duration": 0.20000000000000284
        },
        {
          "name": "F#2",
          "midi": 42,
          "time": 50.60000000000032,
          "velocity": 0.9212598425196851,
          "duration": 0.10000000000000142
        },
        {
          "name": "F#2",
          "midi": 42,
          "time": 50.70000000000032,
          "velocity": 0.9212598425196851,
          "duration": 0.10000000000000142
        },
        {
          "name": "F#2",
          "midi": 42,
          "time": 50.800000000000324,
          "velocity": 0.9212598425196851,
          "duration": 0.20000000000000284
        },
        {
          "name": "F#2",
          "midi": 42,
          "time": 51.00000000000033,
          "velocity": 0.9212598425196851,
          "duration": 0.10000000000000142
        },
        {
          "name": "F#2",
          "midi": 42,
          "time": 51.10000000000033,
          "velocity": 0.9212598425196851,
          "duration": 0.10000000000000142
        },
        {
          "name": "F#2",
          "midi": 42,
          "time": 51.20000000000033,
          "velocity": 0.9212598425196851,
          "duration": 0.20000000000000284
        },
        {
          "name": "F#2",
          "midi": 42,
          "time": 51.40000000000033,
          "velocity": 0.9212598425196851,
          "duration": 0.10000000000000142
        },
        {
          "name": "F#2",
          "midi": 42,
          "time": 51.500000000000334,
          "velocity": 0.9212598425196851,
          "duration": 0.10000000000000142
        },
        {
          "name": "F#2",
          "midi": 42,
          "time": 51.600000000000335,
          "velocity": 0.9212598425196851,
          "duration": 0.20000000000000284
        },
        {
          "name": "F#2",
          "midi": 42,
          "time": 51.80000000000034,
          "velocity": 0.9212598425196851,
          "duration": 0.10000000000000142
        },
        {
          "name": "F#2",
          "midi": 42,
          "time": 51.90000000000034,
          "velocity": 0.9212598425196851,
          "duration": 0.10000000000000142
        },
        {
          "name": "F#2",
          "midi": 42,
          "time": 52.00000000000034,
          "velocity": 0.9212598425196851,
          "duration": 0.20000000000000284
        },
        {
          "name": "F#2",
          "midi": 42,
          "time": 52.200000000000344,
          "velocity": 0.9212598425196851,
          "duration": 0.10000000000000142
        },
        {
          "name": "F#2",
          "midi": 42,
          "time": 52.300000000000345,
          "velocity": 0.9212598425196851,
          "duration": 0.10000000000000142
        },
        {
          "name": "F#2",
          "midi": 42,
          "time": 52.40000000000035,
          "velocity": 0.9212598425196851,
          "duration": 0.20000000000000284
        },
        {
          "name": "F#2",
          "midi": 42,
          "time": 52.60000000000035,
          "velocity": 0.9212598425196851,
          "duration": 0.10000000000000142
        },
        {
          "name": "F#2",
          "midi": 42,
          "time": 52.70000000000035,
          "velocity": 0.9212598425196851,
          "duration": 0.10000000000000142
        },
        {
          "name": "F#2",
          "midi": 42,
          "time": 52.80000000000035,
          "velocity": 0.9212598425196851,
          "duration": 0.20000000000000284
        },
        {
          "name": "F#2",
          "midi": 42,
          "time": 53.000000000000355,
          "velocity": 0.9212598425196851,
          "duration": 0.10000000000000142
        },
        {
          "name": "F#2",
          "midi": 42,
          "time": 53.10000000000036,
          "velocity": 0.9212598425196851,
          "duration": 0.10000000000000142
        },
        {
          "name": "F#2",
          "midi": 42,
          "time": 53.20000000000036,
          "velocity": 0.9212598425196851,
          "duration": 0.20000000000000284
        },
        {
          "name": "F#2",
          "midi": 42,
          "time": 53.40000000000036,
          "velocity": 0.9212598425196851,
          "duration": 0.10000000000000142
        },
        {
          "name": "F#2",
          "midi": 42,
          "time": 53.50000000000036,
          "velocity": 0.9212598425196851,
          "duration": 0.10000000000000142
        },
        {
          "name": "F#2",
          "midi": 42,
          "time": 53.600000000000364,
          "velocity": 0.9212598425196851,
          "duration": 0.20000000000000284
        },
        {
          "name": "F#2",
          "midi": 42,
          "time": 53.80000000000037,
          "velocity": 0.9212598425196851,
          "duration": 0.10000000000000142
        },
        {
          "name": "F#2",
          "midi": 42,
          "time": 53.90000000000037,
          "velocity": 0.9212598425196851,
          "duration": 0.10000000000000142
        },
        {
          "name": "F#2",
          "midi": 42,
          "time": 54.00000000000037,
          "velocity": 0.9212598425196851,
          "duration": 0.20000000000000284
        },
        {
          "name": "F#2",
          "midi": 42,
          "time": 54.20000000000037,
          "velocity": 0.9212598425196851,
          "duration": 0.10000000000000142
        },
        {
          "name": "F#2",
          "midi": 42,
          "time": 54.300000000000374,
          "velocity": 0.9212598425196851,
          "duration": 0.10000000000000142
        },
        {
          "name": "G#2",
          "midi": 44,
          "time": 57.60000000000038,
          "velocity": 0.8503937007874016,
          "duration": 0.20000000000000284
        },
        {
          "name": "G#2",
          "midi": 44,
          "time": 57.80000000000038,
          "velocity": 0.8503937007874016,
          "duration": 0.10000000000000142
        },
        {
          "name": "G#2",
          "midi": 44,
          "time": 57.90000000000038,
          "velocity": 0.8503937007874016,
          "duration": 0.10000000000000142
        },
        {
          "name": "G#2",
          "midi": 44,
          "time": 58.000000000000384,
          "velocity": 0.8503937007874016,
          "duration": 0.20000000000000284
        },
        {
          "name": "G#2",
          "midi": 44,
          "time": 58.20000000000039,
          "velocity": 0.8503937007874016,
          "duration": 0.10000000000000142
        },
        {
          "name": "G#2",
          "midi": 44,
          "time": 58.30000000000039,
          "velocity": 0.8503937007874016,
          "duration": 0.10000000000000142
        },
        {
          "name": "G#2",
          "midi": 44,
          "time": 58.40000000000039,
          "velocity": 0.8503937007874016,
          "duration": 0.20000000000000284
        },
        {
          "name": "G#2",
          "midi": 44,
          "time": 58.60000000000039,
          "velocity": 0.8503937007874016,
          "duration": 0.10000000000000142
        },
        {
          "name": "G#2",
          "midi": 44,
          "time": 58.700000000000394,
          "velocity": 0.8503937007874016,
          "duration": 0.10000000000000142
        },
        {
          "name": "G#2",
          "midi": 44,
          "time": 58.800000000000395,
          "velocity": 0.8503937007874016,
          "duration": 0.20000000000000284
        },
        {
          "name": "G#2",
          "midi": 44,
          "time": 59.0000000000004,
          "velocity": 0.8503937007874016,
          "duration": 0.10000000000000142
        },
        {
          "name": "G#2",
          "midi": 44,
          "time": 59.1000000000004,
          "velocity": 0.8503937007874016,
          "duration": 0.10000000000000142
        },
        {
          "name": "G#2",
          "midi": 44,
          "time": 59.2000000000004,
          "velocity": 0.8503937007874016,
          "duration": 0.20000000000000284
        },
        {
          "name": "G#2",
          "midi": 44,
          "time": 59.400000000000404,
          "velocity": 0.8503937007874016,
          "duration": 0.10000000000000142
        },
        {
          "name": "G#2",
          "midi": 44,
          "time": 59.500000000000405,
          "velocity": 0.8503937007874016,
          "duration": 0.10000000000000142
        },
        {
          "name": "G#2",
          "midi": 44,
          "time": 59.600000000000406,
          "velocity": 0.8503937007874016,
          "duration": 0.20000000000000284
        },
        {
          "name": "G#2",
          "midi": 44,
          "time": 59.80000000000041,
          "velocity": 0.8503937007874016,
          "duration": 0.10000000000000142
        },
        {
          "name": "G#2",
          "midi": 44,
          "time": 59.90000000000041,
          "velocity": 0.8503937007874016,
          "duration": 0.10000000000000142
        },
        {
          "name": "G#2",
          "midi": 44,
          "time": 60.00000000000041,
          "velocity": 0.8503937007874016,
          "duration": 0.20000000000000284
        },
        {
          "name": "G#2",
          "midi": 44,
          "time": 60.200000000000415,
          "velocity": 0.8503937007874016,
          "duration": 0.10000000000000142
        },
        {
          "name": "G#2",
          "midi": 44,
          "time": 60.300000000000416,
          "velocity": 0.8503937007874016,
          "duration": 0.10000000000000142
        },
        {
          "name": "G#2",
          "midi": 44,
          "time": 60.40000000000042,
          "velocity": 0.8503937007874016,
          "duration": 0.20000000000000284
        },
        {
          "name": "G#2",
          "midi": 44,
          "time": 60.60000000000042,
          "velocity": 0.8503937007874016,
          "duration": 0.10000000000000142
        },
        {
          "name": "G#2",
          "midi": 44,
          "time": 60.70000000000042,
          "velocity": 0.8503937007874016,
          "duration": 0.10000000000000142
        },
        {
          "name": "F#2",
          "midi": 42,
          "time": 60.80000000000042,
          "velocity": 0.8031496062992126,
          "duration": 0.20000000000000284
        },
        {
          "name": "F#2",
          "midi": 42,
          "time": 61.000000000000426,
          "velocity": 0.8031496062992126,
          "duration": 0.20000000000000284
        },
        {
          "name": "F#2",
          "midi": 42,
          "time": 61.20000000000043,
          "velocity": 0.8031496062992126,
          "duration": 0.20000000000000284
        },
        {
          "name": "F#2",
          "midi": 42,
          "time": 61.40000000000043,
          "velocity": 0.9212598425196851,
          "duration": 0.10000000000000142
        },
        {
          "name": "F#2",
          "midi": 42,
          "time": 61.50000000000043,
          "velocity": 0.9212598425196851,
          "duration": 0.10000000000000142
        },
        {
          "name": "F#2",
          "midi": 42,
          "time": 61.600000000000435,
          "velocity": 0.9212598425196851,
          "duration": 0.10000000000000142
        },
        {
          "name": "F#2",
          "midi": 42,
          "time": 61.700000000000436,
          "velocity": 0.9212598425196851,
          "duration": 0.10000000000000142
        },
        {
          "name": "F#2",
          "midi": 42,
          "time": 61.80000000000044,
          "velocity": 0.9212598425196851,
          "duration": 0.10000000000000142
        },
        {
          "name": "F#2",
          "midi": 42,
          "time": 61.90000000000044,
          "velocity": 0.9212598425196851,
          "duration": 0.10000000000000142
        },
        {
          "name": "F#2",
          "midi": 42,
          "time": 62.00000000000044,
          "velocity": 0.9212598425196851,
          "duration": 0.10000000000000142
        },
        {
          "name": "F#2",
          "midi": 42,
          "time": 62.10000000000044,
          "velocity": 0.9212598425196851,
          "duration": 0.10000000000000142
        },
        {
          "name": "F#2",
          "midi": 42,
          "time": 62.20000000000044,
          "velocity": 0.9212598425196851,
          "duration": 0.10000000000000142
        },
        {
          "name": "F#2",
          "midi": 42,
          "time": 62.300000000000445,
          "velocity": 0.9212598425196851,
          "duration": 0.10000000000000142
        },
        {
          "name": "F#2",
          "midi": 42,
          "time": 62.400000000000446,
          "velocity": 0.8503937007874016,
          "duration": 0.20000000000000284
        },
        {
          "name": "F#2",
          "midi": 42,
          "time": 62.60000000000045,
          "velocity": 0.8503937007874016,
          "duration": 0.20000000000000284
        },
        {
          "name": "F#2",
          "midi": 42,
          "time": 62.80000000000045,
          "velocity": 0.8503937007874016,
          "duration": 0.20000000000000284
        },
        {
          "name": "F#2",
          "midi": 42,
          "time": 63.000000000000455,
          "velocity": 0.9212598425196851,
          "duration": 0.10000000000000142
        },
        {
          "name": "F#2",
          "midi": 42,
          "time": 63.100000000000456,
          "velocity": 0.9212598425196851,
          "duration": 0.10000000000000142
        },
        {
          "name": "F#2",
          "midi": 42,
          "time": 63.20000000000046,
          "velocity": 0.9212598425196851,
          "duration": 0.10000000000000142
        },
        {
          "name": "F#2",
          "midi": 42,
          "time": 63.30000000000046,
          "velocity": 0.9212598425196851,
          "duration": 0.10000000000000142
        },
        {
          "name": "F#2",
          "midi": 42,
          "time": 63.40000000000046,
          "velocity": 0.9212598425196851,
          "duration": 0.10000000000000142
        },
        {
          "name": "F#2",
          "midi": 42,
          "time": 63.50000000000046,
          "velocity": 0.9212598425196851,
          "duration": 0.10000000000000142
        },
        {
          "name": "F#2",
          "midi": 42,
          "time": 63.60000000000046,
          "velocity": 0.9212598425196851,
          "duration": 0.10000000000000142
        },
        {
          "name": "F#2",
          "midi": 42,
          "time": 63.700000000000465,
          "velocity": 0.9212598425196851,
          "duration": 0.10000000000000142
        },
        {
          "name": "F#2",
          "midi": 42,
          "time": 63.800000000000466,
          "velocity": 0.9212598425196851,
          "duration": 0.10000000000000142
        },
        {
          "name": "F#2",
          "midi": 42,
          "time": 63.90000000000047,
          "velocity": 0.9212598425196851,
          "duration": 0.10000000000000142
        },
        {
          "name": "F#2",
          "midi": 42,
          "time": 64.00000000000047,
          "velocity": 0.8031496062992126,
          "duration": 0.20000000000000284
        },
        {
          "name": "F#2",
          "midi": 42,
          "time": 64.20000000000047,
          "velocity": 0.8031496062992126,
          "duration": 0.20000000000000284
        },
        {
          "name": "F#2",
          "midi": 42,
          "time": 64.40000000000047,
          "velocity": 0.8031496062992126,
          "duration": 0.20000000000000284
        },
        {
          "name": "F#2",
          "midi": 42,
          "time": 64.60000000000048,
          "velocity": 0.9212598425196851,
          "duration": 0.09999999999999432
        },
        {
          "name": "F#2",
          "midi": 42,
          "time": 64.70000000000047,
          "velocity": 0.9212598425196851,
          "duration": 0.09999999999999432
        },
        {
          "name": "F#2",
          "midi": 42,
          "time": 64.80000000000047,
          "velocity": 0.9212598425196851,
          "duration": 0.09999999999999432
        },
        {
          "name": "F#2",
          "midi": 42,
          "time": 64.90000000000046,
          "velocity": 0.9212598425196851,
          "duration": 0.09999999999999432
        },
        {
          "name": "F#2",
          "midi": 42,
          "time": 65.00000000000045,
          "velocity": 0.9212598425196851,
          "duration": 0.09999999999999432
        },
        {
          "name": "F#2",
          "midi": 42,
          "time": 65.10000000000045,
          "velocity": 0.9212598425196851,
          "duration": 0.09999999999999432
        },
        {
          "name": "F#2",
          "midi": 42,
          "time": 65.20000000000044,
          "velocity": 0.9212598425196851,
          "duration": 0.09999999999999432
        },
        {
          "name": "F#2",
          "midi": 42,
          "time": 65.30000000000044,
          "velocity": 0.9212598425196851,
          "duration": 0.09999999999999432
        },
        {
          "name": "F#2",
          "midi": 42,
          "time": 65.40000000000043,
          "velocity": 0.9212598425196851,
          "duration": 0.09999999999999432
        },
        {
          "name": "F#2",
          "midi": 42,
          "time": 65.50000000000043,
          "velocity": 0.9212598425196851,
          "duration": 0.09999999999999432
        },
        {
          "name": "F#2",
          "midi": 42,
          "time": 65.60000000000042,
          "velocity": 0.8503937007874016,
          "duration": 0.20000000000000284
        },
        {
          "name": "F#2",
          "midi": 42,
          "time": 65.80000000000042,
          "velocity": 0.8503937007874016,
          "duration": 0.20000000000000284
        },
        {
          "name": "F#2",
          "midi": 42,
          "time": 66.00000000000043,
          "velocity": 0.8503937007874016,
          "duration": 0.20000000000000284
        },
        {
          "name": "F#2",
          "midi": 42,
          "time": 66.20000000000043,
          "velocity": 0.9212598425196851,
          "duration": 0.09999999999999432
        },
        {
          "name": "F#2",
          "midi": 42,
          "time": 66.30000000000042,
          "velocity": 0.9212598425196851,
          "duration": 0.09999999999999432
        },
        {
          "name": "F#2",
          "midi": 42,
          "time": 66.40000000000042,
          "velocity": 0.9212598425196851,
          "duration": 0.09999999999999432
        },
        {
          "name": "F#2",
          "midi": 42,
          "time": 66.50000000000041,
          "velocity": 0.9212598425196851,
          "duration": 0.09999999999999432
        },
        {
          "name": "F#2",
          "midi": 42,
          "time": 66.6000000000004,
          "velocity": 0.9212598425196851,
          "duration": 0.09999999999999432
        },
        {
          "name": "F#2",
          "midi": 42,
          "time": 66.7000000000004,
          "velocity": 0.9212598425196851,
          "duration": 0.09999999999999432
        },
        {
          "name": "F#2",
          "midi": 42,
          "time": 66.8000000000004,
          "velocity": 0.9212598425196851,
          "duration": 0.09999999999999432
        },
        {
          "name": "F#2",
          "midi": 42,
          "time": 66.90000000000039,
          "velocity": 0.9212598425196851,
          "duration": 0.09999999999999432
        },
        {
          "name": "F#2",
          "midi": 42,
          "time": 67.00000000000038,
          "velocity": 0.9212598425196851,
          "duration": 0.09999999999999432
        },
        {
          "name": "F#2",
          "midi": 42,
          "time": 67.10000000000038,
          "velocity": 0.9212598425196851,
          "duration": 0.09999999999999432
        },
        {
          "name": "F#2",
          "midi": 42,
          "time": 67.20000000000037,
          "velocity": 0.8031496062992126,
          "duration": 0.20000000000000284
        },
        {
          "name": "F#2",
          "midi": 42,
          "time": 67.40000000000038,
          "velocity": 0.8031496062992126,
          "duration": 0.20000000000000284
        },
        {
          "name": "F#2",
          "midi": 42,
          "time": 67.60000000000038,
          "velocity": 0.8031496062992126,
          "duration": 0.20000000000000284
        },
        {
          "name": "F#2",
          "midi": 42,
          "time": 67.80000000000038,
          "velocity": 0.9212598425196851,
          "duration": 0.09999999999999432
        },
        {
          "name": "F#2",
          "midi": 42,
          "time": 67.90000000000038,
          "velocity": 0.9212598425196851,
          "duration": 0.09999999999999432
        },
        {
          "name": "F#2",
          "midi": 42,
          "time": 68.00000000000037,
          "velocity": 0.9212598425196851,
          "duration": 0.09999999999999432
        },
        {
          "name": "F#2",
          "midi": 42,
          "time": 68.10000000000036,
          "velocity": 0.9212598425196851,
          "duration": 0.09999999999999432
        },
        {
          "name": "F#2",
          "midi": 42,
          "time": 68.20000000000036,
          "velocity": 0.9212598425196851,
          "duration": 0.09999999999999432
        },
        {
          "name": "F#2",
          "midi": 42,
          "time": 68.30000000000035,
          "velocity": 0.9212598425196851,
          "duration": 0.09999999999999432
        },
        {
          "name": "F#2",
          "midi": 42,
          "time": 68.40000000000035,
          "velocity": 0.9212598425196851,
          "duration": 0.09999999999999432
        },
        {
          "name": "F#2",
          "midi": 42,
          "time": 68.50000000000034,
          "velocity": 0.9212598425196851,
          "duration": 0.09999999999999432
        },
        {
          "name": "F#2",
          "midi": 42,
          "time": 68.60000000000034,
          "velocity": 0.9212598425196851,
          "duration": 0.09999999999999432
        },
        {
          "name": "F#2",
          "midi": 42,
          "time": 68.70000000000033,
          "velocity": 0.9212598425196851,
          "duration": 0.09999999999999432
        },
        {
          "name": "F#2",
          "midi": 42,
          "time": 68.80000000000032,
          "velocity": 0.8503937007874016,
          "duration": 0.20000000000000284
        },
        {
          "name": "F#2",
          "midi": 42,
          "time": 69.00000000000033,
          "velocity": 0.8503937007874016,
          "duration": 0.20000000000000284
        },
        {
          "name": "F#2",
          "midi": 42,
          "time": 69.20000000000033,
          "velocity": 0.8503937007874016,
          "duration": 0.20000000000000284
        },
        {
          "name": "F#2",
          "midi": 42,
          "time": 69.40000000000033,
          "velocity": 0.9212598425196851,
          "duration": 0.09999999999999432
        },
        {
          "name": "F#2",
          "midi": 42,
          "time": 69.50000000000033,
          "velocity": 0.9212598425196851,
          "duration": 0.09999999999999432
        },
        {
          "name": "F#2",
          "midi": 42,
          "time": 69.60000000000032,
          "velocity": 0.9212598425196851,
          "duration": 0.09999999999999432
        },
        {
          "name": "F#2",
          "midi": 42,
          "time": 69.70000000000032,
          "velocity": 0.9212598425196851,
          "duration": 0.09999999999999432
        },
        {
          "name": "F#2",
          "midi": 42,
          "time": 69.80000000000031,
          "velocity": 0.9212598425196851,
          "duration": 0.09999999999999432
        },
        {
          "name": "F#2",
          "midi": 42,
          "time": 69.9000000000003,
          "velocity": 0.9212598425196851,
          "duration": 0.09999999999999432
        },
        {
          "name": "F#2",
          "midi": 42,
          "time": 70.0000000000003,
          "velocity": 0.9212598425196851,
          "duration": 0.09999999999999432
        },
        {
          "name": "F#2",
          "midi": 42,
          "time": 70.10000000000029,
          "velocity": 0.9212598425196851,
          "duration": 0.09999999999999432
        },
        {
          "name": "F#2",
          "midi": 42,
          "time": 70.20000000000029,
          "velocity": 0.9212598425196851,
          "duration": 0.09999999999999432
        },
        {
          "name": "F#2",
          "midi": 42,
          "time": 70.30000000000028,
          "velocity": 0.9212598425196851,
          "duration": 0.09999999999999432
        },
        {
          "name": "F#2",
          "midi": 42,
          "time": 70.40000000000028,
          "velocity": 0.8031496062992126,
          "duration": 0.20000000000000284
        },
        {
          "name": "F#2",
          "midi": 42,
          "time": 70.60000000000028,
          "velocity": 0.8031496062992126,
          "duration": 0.20000000000000284
        },
        {
          "name": "F#2",
          "midi": 42,
          "time": 70.80000000000028,
          "velocity": 0.8031496062992126,
          "duration": 0.20000000000000284
        },
        {
          "name": "F#2",
          "midi": 42,
          "time": 71.00000000000028,
          "velocity": 0.9212598425196851,
          "duration": 0.09999999999999432
        },
        {
          "name": "F#2",
          "midi": 42,
          "time": 71.10000000000028,
          "velocity": 0.9212598425196851,
          "duration": 0.09999999999999432
        },
        {
          "name": "F#2",
          "midi": 42,
          "time": 71.20000000000027,
          "velocity": 0.9212598425196851,
          "duration": 0.09999999999999432
        },
        {
          "name": "F#2",
          "midi": 42,
          "time": 71.30000000000027,
          "velocity": 0.9212598425196851,
          "duration": 0.09999999999999432
        },
        {
          "name": "F#2",
          "midi": 42,
          "time": 71.40000000000026,
          "velocity": 0.9212598425196851,
          "duration": 0.09999999999999432
        },
        {
          "name": "F#2",
          "midi": 42,
          "time": 71.50000000000026,
          "velocity": 0.9212598425196851,
          "duration": 0.09999999999999432
        },
        {
          "name": "F#2",
          "midi": 42,
          "time": 71.60000000000025,
          "velocity": 0.9212598425196851,
          "duration": 0.09999999999999432
        },
        {
          "name": "F#2",
          "midi": 42,
          "time": 71.70000000000024,
          "velocity": 0.9212598425196851,
          "duration": 0.09999999999999432
        },
        {
          "name": "F#2",
          "midi": 42,
          "time": 71.80000000000024,
          "velocity": 0.9212598425196851,
          "duration": 0.09999999999999432
        },
        {
          "name": "F#2",
          "midi": 42,
          "time": 71.90000000000023,
          "velocity": 0.9212598425196851,
          "duration": 0.09999999999999432
        },
        {
          "name": "F#2",
          "midi": 42,
          "time": 72.00000000000023,
          "velocity": 0.8503937007874016,
          "duration": 0.20000000000000284
        },
        {
          "name": "F#2",
          "midi": 42,
          "time": 72.20000000000023,
          "velocity": 0.8503937007874016,
          "duration": 0.20000000000000284
        },
        {
          "name": "F#2",
          "midi": 42,
          "time": 72.40000000000023,
          "velocity": 0.8503937007874016,
          "duration": 0.20000000000000284
        },
        {
          "name": "F#2",
          "midi": 42,
          "time": 72.60000000000024,
          "velocity": 0.9212598425196851,
          "duration": 0.09999999999999432
        },
        {
          "name": "F#2",
          "midi": 42,
          "time": 72.70000000000023,
          "velocity": 0.9212598425196851,
          "duration": 0.09999999999999432
        },
        {
          "name": "F#2",
          "midi": 42,
          "time": 72.80000000000022,
          "velocity": 0.9212598425196851,
          "duration": 0.09999999999999432
        },
        {
          "name": "F#2",
          "midi": 42,
          "time": 72.90000000000022,
          "velocity": 0.9212598425196851,
          "duration": 0.09999999999999432
        },
        {
          "name": "F#2",
          "midi": 42,
          "time": 73.00000000000021,
          "velocity": 0.9212598425196851,
          "duration": 0.09999999999999432
        },
        {
          "name": "F#2",
          "midi": 42,
          "time": 73.10000000000021,
          "velocity": 0.9212598425196851,
          "duration": 0.09999999999999432
        },
        {
          "name": "F#2",
          "midi": 42,
          "time": 73.2000000000002,
          "velocity": 0.9212598425196851,
          "duration": 0.09999999999999432
        },
        {
          "name": "F#2",
          "midi": 42,
          "time": 73.3000000000002,
          "velocity": 0.9212598425196851,
          "duration": 0.09999999999999432
        },
        {
          "name": "F#2",
          "midi": 42,
          "time": 73.40000000000019,
          "velocity": 0.9212598425196851,
          "duration": 0.09999999999999432
        },
        {
          "name": "F#2",
          "midi": 42,
          "time": 73.50000000000018,
          "velocity": 0.9212598425196851,
          "duration": 0.09999999999999432
        },
        {
          "name": "F#2",
          "midi": 42,
          "time": 73.60000000000018,
          "velocity": 0.8031496062992126,
          "duration": 0.20000000000000284
        },
        {
          "name": "F#2",
          "midi": 42,
          "time": 73.80000000000018,
          "velocity": 0.8031496062992126,
          "duration": 0.20000000000000284
        },
        {
          "name": "F#2",
          "midi": 42,
          "time": 74.00000000000018,
          "velocity": 0.8031496062992126,
          "duration": 0.20000000000000284
        },
        {
          "name": "F#2",
          "midi": 42,
          "time": 74.20000000000019,
          "velocity": 0.9212598425196851,
          "duration": 0.09999999999999432
        },
        {
          "name": "F#2",
          "midi": 42,
          "time": 74.30000000000018,
          "velocity": 0.9212598425196851,
          "duration": 0.09999999999999432
        },
        {
          "name": "F#2",
          "midi": 42,
          "time": 74.40000000000018,
          "velocity": 0.9212598425196851,
          "duration": 0.09999999999999432
        },
        {
          "name": "F#2",
          "midi": 42,
          "time": 74.50000000000017,
          "velocity": 0.9212598425196851,
          "duration": 0.09999999999999432
        },
        {
          "name": "F#2",
          "midi": 42,
          "time": 74.60000000000016,
          "velocity": 0.9212598425196851,
          "duration": 0.09999999999999432
        },
        {
          "name": "F#2",
          "midi": 42,
          "time": 74.70000000000016,
          "velocity": 0.9212598425196851,
          "duration": 0.09999999999999432
        },
        {
          "name": "F#2",
          "midi": 42,
          "time": 74.80000000000015,
          "velocity": 0.9212598425196851,
          "duration": 0.09999999999999432
        },
        {
          "name": "F#2",
          "midi": 42,
          "time": 74.90000000000015,
          "velocity": 0.9212598425196851,
          "duration": 0.09999999999999432
        },
        {
          "name": "F#2",
          "midi": 42,
          "time": 75.00000000000014,
          "velocity": 0.9212598425196851,
          "duration": 0.09999999999999432
        },
        {
          "name": "F#2",
          "midi": 42,
          "time": 75.10000000000014,
          "velocity": 0.9212598425196851,
          "duration": 0.09999999999999432
        },
        {
          "name": "F#2",
          "midi": 42,
          "time": 75.20000000000013,
          "velocity": 0.8503937007874016,
          "duration": 0.20000000000000284
        },
        {
          "name": "F#2",
          "midi": 42,
          "time": 75.40000000000013,
          "velocity": 0.8503937007874016,
          "duration": 0.20000000000000284
        },
        {
          "name": "F#2",
          "midi": 42,
          "time": 75.60000000000014,
          "velocity": 0.8503937007874016,
          "duration": 0.20000000000000284
        },
        {
          "name": "F#2",
          "midi": 42,
          "time": 75.80000000000014,
          "velocity": 0.9212598425196851,
          "duration": 0.09999999999999432
        },
        {
          "name": "F#2",
          "midi": 42,
          "time": 75.90000000000013,
          "velocity": 0.9212598425196851,
          "duration": 0.09999999999999432
        },
        {
          "name": "F#2",
          "midi": 42,
          "time": 76.00000000000013,
          "velocity": 0.9212598425196851,
          "duration": 0.09999999999999432
        },
        {
          "name": "F#2",
          "midi": 42,
          "time": 76.10000000000012,
          "velocity": 0.9212598425196851,
          "duration": 0.09999999999999432
        },
        {
          "name": "F#2",
          "midi": 42,
          "time": 76.20000000000012,
          "velocity": 0.9212598425196851,
          "duration": 0.09999999999999432
        },
        {
          "name": "F#2",
          "midi": 42,
          "time": 76.30000000000011,
          "velocity": 0.9212598425196851,
          "duration": 0.09999999999999432
        },
        {
          "name": "F#2",
          "midi": 42,
          "time": 76.4000000000001,
          "velocity": 0.9212598425196851,
          "duration": 0.09999999999999432
        },
        {
          "name": "F#2",
          "midi": 42,
          "time": 76.5000000000001,
          "velocity": 0.9212598425196851,
          "duration": 0.09999999999999432
        },
        {
          "name": "F#2",
          "midi": 42,
          "time": 76.6000000000001,
          "velocity": 0.9212598425196851,
          "duration": 0.09999999999999432
        },
        {
          "name": "F#2",
          "midi": 42,
          "time": 76.70000000000009,
          "velocity": 0.9212598425196851,
          "duration": 0.09999999999999432
        },
        {
          "name": "F#2",
          "midi": 42,
          "time": 76.80000000000008,
          "velocity": 0.8031496062992126,
          "duration": 0.20000000000000284
        },
        {
          "name": "F#2",
          "midi": 42,
          "time": 77.00000000000009,
          "velocity": 0.8031496062992126,
          "duration": 0.20000000000000284
        },
        {
          "name": "F#2",
          "midi": 42,
          "time": 77.20000000000009,
          "velocity": 0.8031496062992126,
          "duration": 0.20000000000000284
        },
        {
          "name": "F#2",
          "midi": 42,
          "time": 77.40000000000009,
          "velocity": 0.9212598425196851,
          "duration": 0.09999999999999432
        },
        {
          "name": "F#2",
          "midi": 42,
          "time": 77.50000000000009,
          "velocity": 0.9212598425196851,
          "duration": 0.09999999999999432
        },
        {
          "name": "F#2",
          "midi": 42,
          "time": 77.60000000000008,
          "velocity": 0.9212598425196851,
          "duration": 0.09999999999999432
        },
        {
          "name": "F#2",
          "midi": 42,
          "time": 77.70000000000007,
          "velocity": 0.9212598425196851,
          "duration": 0.09999999999999432
        },
        {
          "name": "F#2",
          "midi": 42,
          "time": 77.80000000000007,
          "velocity": 0.9212598425196851,
          "duration": 0.09999999999999432
        },
        {
          "name": "F#2",
          "midi": 42,
          "time": 77.90000000000006,
          "velocity": 0.9212598425196851,
          "duration": 0.09999999999999432
        },
        {
          "name": "F#2",
          "midi": 42,
          "time": 78.00000000000006,
          "velocity": 0.9212598425196851,
          "duration": 0.09999999999999432
        },
        {
          "name": "F#2",
          "midi": 42,
          "time": 78.10000000000005,
          "velocity": 0.9212598425196851,
          "duration": 0.09999999999999432
        },
        {
          "name": "F#2",
          "midi": 42,
          "time": 78.20000000000005,
          "velocity": 0.9212598425196851,
          "duration": 0.09999999999999432
        },
        {
          "name": "F#2",
          "midi": 42,
          "time": 78.30000000000004,
          "velocity": 0.9212598425196851,
          "duration": 0.09999999999999432
        },
        {
          "name": "F#2",
          "midi": 42,
          "time": 78.40000000000003,
          "velocity": 0.8503937007874016,
          "duration": 0.20000000000000284
        },
        {
          "name": "F#2",
          "midi": 42,
          "time": 78.60000000000004,
          "velocity": 0.8503937007874016,
          "duration": 0.20000000000000284
        },
        {
          "name": "F#2",
          "midi": 42,
          "time": 78.80000000000004,
          "velocity": 0.8503937007874016,
          "duration": 0.20000000000000284
        },
        {
          "name": "F#2",
          "midi": 42,
          "time": 79.00000000000004,
          "velocity": 0.9212598425196851,
          "duration": 0.09999999999999432
        },
        {
          "name": "F#2",
          "midi": 42,
          "time": 79.10000000000004,
          "velocity": 0.9212598425196851,
          "duration": 0.09999999999999432
        },
        {
          "name": "F#2",
          "midi": 42,
          "time": 79.20000000000003,
          "velocity": 0.9212598425196851,
          "duration": 0.09999999999999432
        },
        {
          "name": "F#2",
          "midi": 42,
          "time": 79.30000000000003,
          "velocity": 0.9212598425196851,
          "duration": 0.09999999999999432
        },
        {
          "name": "F#2",
          "midi": 42,
          "time": 79.40000000000002,
          "velocity": 0.9212598425196851,
          "duration": 0.09999999999999432
        },
        {
          "name": "F#2",
          "midi": 42,
          "time": 79.50000000000001,
          "velocity": 0.9212598425196851,
          "duration": 0.09999999999999432
        },
        {
          "name": "F#2",
          "midi": 42,
          "time": 79.60000000000001,
          "velocity": 0.9212598425196851,
          "duration": 0.09999999999999432
        },
        {
          "name": "F#2",
          "midi": 42,
          "time": 79.7,
          "velocity": 0.9212598425196851,
          "duration": 0.09999999999999432
        },
        {
          "name": "F#2",
          "midi": 42,
          "time": 79.8,
          "velocity": 0.9212598425196851,
          "duration": 0.09999999999999432
        },
        {
          "name": "F#2",
          "midi": 42,
          "time": 79.89999999999999,
          "velocity": 0.9212598425196851,
          "duration": 0.09999999999999432
        },
        {
          "name": "F#2",
          "midi": 42,
          "time": 79.99999999999999,
          "velocity": 0.8031496062992126,
          "duration": 0.20000000000000284
        },
        {
          "name": "F#2",
          "midi": 42,
          "time": 80.19999999999999,
          "velocity": 0.8031496062992126,
          "duration": 0.20000000000000284
        },
        {
          "name": "F#2",
          "midi": 42,
          "time": 80.39999999999999,
          "velocity": 0.8031496062992126,
          "duration": 0.20000000000000284
        },
        {
          "name": "F#2",
          "midi": 42,
          "time": 80.6,
          "velocity": 0.9212598425196851,
          "duration": 0.09999999999999432
        },
        {
          "name": "F#2",
          "midi": 42,
          "time": 80.69999999999999,
          "velocity": 0.9212598425196851,
          "duration": 0.09999999999999432
        },
        {
          "name": "F#2",
          "midi": 42,
          "time": 80.79999999999998,
          "velocity": 0.9212598425196851,
          "duration": 0.09999999999999432
        },
        {
          "name": "F#2",
          "midi": 42,
          "time": 80.89999999999998,
          "velocity": 0.9212598425196851,
          "duration": 0.09999999999999432
        },
        {
          "name": "F#2",
          "midi": 42,
          "time": 80.99999999999997,
          "velocity": 0.9212598425196851,
          "duration": 0.09999999999999432
        },
        {
          "name": "F#2",
          "midi": 42,
          "time": 81.09999999999997,
          "velocity": 0.9212598425196851,
          "duration": 0.09999999999999432
        },
        {
          "name": "F#2",
          "midi": 42,
          "time": 81.19999999999996,
          "velocity": 0.9212598425196851,
          "duration": 0.09999999999999432
        },
        {
          "name": "F#2",
          "midi": 42,
          "time": 81.29999999999995,
          "velocity": 0.9212598425196851,
          "duration": 0.09999999999999432
        },
        {
          "name": "F#2",
          "midi": 42,
          "time": 81.39999999999995,
          "velocity": 0.9212598425196851,
          "duration": 0.09999999999999432
        },
        {
          "name": "F#2",
          "midi": 42,
          "time": 81.49999999999994,
          "velocity": 0.9212598425196851,
          "duration": 0.09999999999999432
        },
        {
          "name": "F#2",
          "midi": 42,
          "time": 81.59999999999994,
          "velocity": 0.8503937007874016,
          "duration": 0.20000000000000284
        },
        {
          "name": "F#2",
          "midi": 42,
          "time": 81.79999999999994,
          "velocity": 0.8503937007874016,
          "duration": 0.20000000000000284
        },
        {
          "name": "F#2",
          "midi": 42,
          "time": 81.99999999999994,
          "velocity": 0.8503937007874016,
          "duration": 0.20000000000000284
        },
        {
          "name": "F#2",
          "midi": 42,
          "time": 82.19999999999995,
          "velocity": 0.9212598425196851,
          "duration": 0.09999999999999432
        },
        {
          "name": "F#2",
          "midi": 42,
          "time": 82.29999999999994,
          "velocity": 0.9212598425196851,
          "duration": 0.09999999999999432
        },
        {
          "name": "F#2",
          "midi": 42,
          "time": 82.39999999999993,
          "velocity": 0.9212598425196851,
          "duration": 0.09999999999999432
        },
        {
          "name": "F#2",
          "midi": 42,
          "time": 82.49999999999993,
          "velocity": 0.9212598425196851,
          "duration": 0.09999999999999432
        },
        {
          "name": "F#2",
          "midi": 42,
          "time": 82.59999999999992,
          "velocity": 0.9212598425196851,
          "duration": 0.09999999999999432
        },
        {
          "name": "F#2",
          "midi": 42,
          "time": 82.69999999999992,
          "velocity": 0.9212598425196851,
          "duration": 0.09999999999999432
        },
        {
          "name": "F#2",
          "midi": 42,
          "time": 82.79999999999991,
          "velocity": 0.9212598425196851,
          "duration": 0.09999999999999432
        },
        {
          "name": "F#2",
          "midi": 42,
          "time": 82.8999999999999,
          "velocity": 0.9212598425196851,
          "duration": 0.09999999999999432
        },
        {
          "name": "F#2",
          "midi": 42,
          "time": 82.9999999999999,
          "velocity": 0.9212598425196851,
          "duration": 0.09999999999999432
        },
        {
          "name": "F#2",
          "midi": 42,
          "time": 83.0999999999999,
          "velocity": 0.9212598425196851,
          "duration": 0.09999999999999432
        },
        {
          "name": "F#2",
          "midi": 42,
          "time": 83.19999999999989,
          "velocity": 0.8031496062992126,
          "duration": 0.20000000000000284
        },
        {
          "name": "F#2",
          "midi": 42,
          "time": 83.39999999999989,
          "velocity": 0.8031496062992126,
          "duration": 0.20000000000000284
        },
        {
          "name": "F#2",
          "midi": 42,
          "time": 83.5999999999999,
          "velocity": 0.8031496062992126,
          "duration": 0.20000000000000284
        },
        {
          "name": "F#2",
          "midi": 42,
          "time": 83.7999999999999,
          "velocity": 0.9212598425196851,
          "duration": 0.09999999999999432
        },
        {
          "name": "F#2",
          "midi": 42,
          "time": 83.89999999999989,
          "velocity": 0.9212598425196851,
          "duration": 0.09999999999999432
        },
        {
          "name": "F#2",
          "midi": 42,
          "time": 83.99999999999989,
          "velocity": 0.9212598425196851,
          "duration": 0.09999999999999432
        },
        {
          "name": "F#2",
          "midi": 42,
          "time": 84.09999999999988,
          "velocity": 0.9212598425196851,
          "duration": 0.09999999999999432
        },
        {
          "name": "F#2",
          "midi": 42,
          "time": 84.19999999999987,
          "velocity": 0.9212598425196851,
          "duration": 0.09999999999999432
        },
        {
          "name": "F#2",
          "midi": 42,
          "time": 84.29999999999987,
          "velocity": 0.9212598425196851,
          "duration": 0.09999999999999432
        },
        {
          "name": "F#2",
          "midi": 42,
          "time": 84.39999999999986,
          "velocity": 0.9212598425196851,
          "duration": 0.09999999999999432
        },
        {
          "name": "F#2",
          "midi": 42,
          "time": 84.49999999999986,
          "velocity": 0.9212598425196851,
          "duration": 0.09999999999999432
        },
        {
          "name": "F#2",
          "midi": 42,
          "time": 84.59999999999985,
          "velocity": 0.9212598425196851,
          "duration": 0.09999999999999432
        },
        {
          "name": "F#2",
          "midi": 42,
          "time": 84.69999999999985,
          "velocity": 0.9212598425196851,
          "duration": 0.09999999999999432
        },
        {
          "name": "F#2",
          "midi": 42,
          "time": 84.79999999999984,
          "velocity": 0.8503937007874016,
          "duration": 0.20000000000000284
        },
        {
          "name": "F#2",
          "midi": 42,
          "time": 84.99999999999984,
          "velocity": 0.8503937007874016,
          "duration": 0.20000000000000284
        },
        {
          "name": "F#2",
          "midi": 42,
          "time": 85.19999999999985,
          "velocity": 0.8503937007874016,
          "duration": 0.20000000000000284
        },
        {
          "name": "F#2",
          "midi": 42,
          "time": 85.39999999999985,
          "velocity": 0.9212598425196851,
          "duration": 0.09999999999999432
        },
        {
          "name": "F#2",
          "midi": 42,
          "time": 85.49999999999984,
          "velocity": 0.9212598425196851,
          "duration": 0.09999999999999432
        },
        {
          "name": "F#2",
          "midi": 42,
          "time": 85.59999999999984,
          "velocity": 0.9212598425196851,
          "duration": 0.09999999999999432
        },
        {
          "name": "F#2",
          "midi": 42,
          "time": 85.69999999999983,
          "velocity": 0.9212598425196851,
          "duration": 0.09999999999999432
        },
        {
          "name": "F#2",
          "midi": 42,
          "time": 85.79999999999983,
          "velocity": 0.9212598425196851,
          "duration": 0.09999999999999432
        },
        {
          "name": "F#2",
          "midi": 42,
          "time": 85.89999999999982,
          "velocity": 0.9212598425196851,
          "duration": 0.09999999999999432
        },
        {
          "name": "F#2",
          "midi": 42,
          "time": 85.99999999999982,
          "velocity": 0.9212598425196851,
          "duration": 0.09999999999999432
        },
        {
          "name": "F#2",
          "midi": 42,
          "time": 86.09999999999981,
          "velocity": 0.9212598425196851,
          "duration": 0.09999999999999432
        },
        {
          "name": "F#2",
          "midi": 42,
          "time": 86.1999999999998,
          "velocity": 0.9212598425196851,
          "duration": 0.09999999999999432
        },
        {
          "name": "F#2",
          "midi": 42,
          "time": 86.2999999999998,
          "velocity": 0.9212598425196851,
          "duration": 0.09999999999999432
        }
      ],
      "controlChanges": {},
      "id": 9,
      "name": "hihat",
      "channelNumber": 0,
      "isPercussion": false
    }
  ]
}