{
  "header": {
    "PPQ": 480,
    "timeSignature": [
      6,
      8
    ],
    "bpm": 160,
    "name": ""
  },
  "tempo": [
    {
      "absoluteTime": 0,
      "seconds": 0,
      "bpm": 160
    },
    {
      "absoluteTime": 63360,
      "seconds": 49.50000000000027,
      "bpm": 150
    },
    {
      "absoluteTime": 66240,
      "seconds": 51.75000000000027,
      "bpm": 140.00014000014
    },
    {
      "absoluteTime": 69120,
      "seconds": 54.00000000000027,
      "bpm": 120
    },
    {
      "absoluteTime": 70560,
      "seconds": 55.12500000000027,
      "bpm": 100
    },
    {
      "absoluteTime": 72000,
      "seconds": 56.25000000000027,
      "bpm": 120
    },
    {
      "absoluteTime": 73440,
      "seconds": 57.37500000000027,
      "bpm": 100
    },
    {
      "absoluteTime": 73920,
      "seconds": 57.75000000000027,
      "bpm": 60
    },
    {
      "absoluteTime": 74400,
      "seconds": 58.12500000000027,
      "bpm": 40
    }
  ],
  "timeSignature": [
    {
      "absoluteTime": 0,
      "seconds": 0,
      "numerator": 6,
      "denominator": 3,
      "click": 24,
      "notesQ": 8
    }
  ],
  "startTime": 0,
  "duration": 58.49921875000027,
  "tracks": [
    {
      "startTime": 15.75,
      "duration": 58.49921875000027,
      "length": 263,
      "notes": [
        {
          "name": "D5",
          "midi": 74,
          "time": 15.75,
          "velocity": 0.5039370078740157,
          "duration": 0.09218749999999964
        },
        {
          "name": "D5",
          "midi": 74,
          "time": 15.842968749999999,
          "velocity": 0.5039370078740157,
          "duration": 0.09218749999999964
        },
        {
          "name": "D5",
          "midi": 74,
          "time": 15.936718749999999,
          "velocity": 0.5039370078740157,
          "duration": 0.09218749999999964
        },
        {
          "name": "D5",
          "midi": 74,
          "time": 16.029687499999998,
          "velocity": 0.5039370078740157,
          "duration": 0.09218750000000142
        },
        {
          "name": "D5",
          "midi": 74,
          "time": 16.123437499999998,
          "velocity": 0.5039370078740157,
          "duration": 0.09218750000000142
        },
        {
          "name": "D5",
          "midi": 74,
          "time": 16.21640625,
          "velocity": 0.5039370078740157,
          "duration": 0.09218750000000142
        },
        {
          "name": "D5",
          "midi": 74,
          "time": 16.31015625,
          "velocity": 0.5039370078740157,
          "duration": 0.09218750000000142
        },
        {
          "name": "D5",
          "midi": 74,
          "time": 16.403125,
          "velocity": 0.5039370078740157,
          "duration": 0.09218750000000142
        },
        {
          "name": "D5",
          "midi": 74,
          "time": 16.496875,
          "velocity": 0.5039370078740157,
          "duration": 0.09218750000000142
        },
        {
          "name": "D5",
          "midi": 74,
          "time": 16.58984375,
          "velocity": 0.5039370078740157,
          "duration": 0.09218750000000142
        },
        {
          "name": "D5",
          "midi": 74,
          "time": 16.68359375,
          "velocity": 0.5039370078740157,
          "duration": 0.09218750000000142
        },
        {
          "name": "D5",
          "midi": 74,
          "time": 16.7765625,
          "velocity": 0.5039370078740157,
          "duration": 0.09218750000000142
        },
        {
          "name": "C5",
          "midi": 72,
          "time": 16.875000000000004,
          "velocity": 0.5039370078740157,
          "duration": 0.09218750000000142
        },
        {
          "name": "C5",
          "midi": 72,
          "time": 16.967968750000004,
          "velocity": 0.5039370078740157,
          "duration": 0.09218750000000142
        },
        {
          "name": "C5",
          "midi": 72,
          "time": 17.061718750000004,
          "velocity": 0.5039370078740157,
          "duration": 0.09218750000000142
        },
        {
          "name": "C5",
          "midi": 72,
          "time": 17.154687500000005,
          "velocity": 0.5039370078740157,
          "duration": 0.09218750000000142
        },
        {
          "name": "C5",
          "midi": 72,
          "time": 17.248437500000005,
          "velocity": 0.5039370078740157,
          "duration": 0.09218750000000142
        },
        {
          "name": "C5",
          "midi": 72,
          "time": 17.341406250000006,
          "velocity": 0.5039370078740157,
          "duration": 0.09218750000000142
        },
        {
          "name": "A#4",
          "midi": 70,
          "time": 17.437500000000007,
          "velocity": 0.5039370078740157,
          "duration": 0.09218750000000142
        },
        {
          "name": "A#4",
          "midi": 70,
          "time": 17.530468750000008,
          "velocity": 0.5039370078740157,
          "duration": 0.09218750000000142
        },
        {
          "name": "A#4",
          "midi": 70,
          "time": 17.624218750000008,
          "velocity": 0.5039370078740157,
          "duration": 0.09218750000000142
        },
        {
          "name": "A#4",
          "midi": 70,
          "time": 17.71718750000001,
          "velocity": 0.5039370078740157,
          "duration": 0.09218750000000142
        },
        {
          "name": "A#4",
          "midi": 70,
          "time": 17.81093750000001,
          "velocity": 0.5039370078740157,
          "duration": 0.09218750000000142
        },
        {
          "name": "A#4",
          "midi": 70,
          "time": 17.90390625000001,
          "velocity": 0.5039370078740157,
          "duration": 0.09218750000000142
        },
        {
          "name": "D#5",
          "midi": 75,
          "time": 18.00000000000001,
          "velocity": 0.5039370078740157,
          "duration": 0.1867187500000007
        },
        {
          "name": "G#5",
          "midi": 80,
          "time": 18.00000000000001,
          "velocity": 0.5039370078740157,
          "duration": 0.1867187500000007
        },
        {
          "name": "C6",
          "midi": 84,
          "time": 18.00000000000001,
          "velocity": 0.5039370078740157,
          "duration": 0.1867187500000007
        },
        {
          "name": "D#5",
          "midi": 75,
          "time": 19.12500000000001,
          "velocity": 0.5039370078740157,
          "duration": 0.1867187500000007
        },
        {
          "name": "G#5",
          "midi": 80,
          "time": 19.12500000000001,
          "velocity": 0.5039370078740157,
          "duration": 0.1867187500000007
        },
        {
          "name": "C6",
          "midi": 84,
          "time": 19.12500000000001,
          "velocity": 0.5039370078740157,
          "duration": 0.1867187500000007
        },
        {
          "name": "D5",
          "midi": 74,
          "time": 20.25000000000001,
          "velocity": 0.5039370078740157,
          "duration": 0.1867187500000007
        },
        {
          "name": "G#5",
          "midi": 80,
          "time": 20.25000000000001,
          "velocity": 0.5039370078740157,
          "duration": 0.1867187500000007
        },
        {
          "name": "C6",
          "midi": 84,
          "time": 20.25000000000001,
          "velocity": 0.5039370078740157,
          "duration": 0.1867187500000007
        },
        {
          "name": "D5",
          "midi": 74,
          "time": 21.37500000000001,
          "velocity": 0.5039370078740157,
          "duration": 0.1867187500000007
        },
        {
          "name": "G#5",
          "midi": 80,
          "time": 21.37500000000001,
          "velocity": 0.5039370078740157,
          "duration": 0.1867187500000007
        },
        {
          "name": "B5",
          "midi": 83,
          "time": 21.37500000000001,
          "velocity": 0.5039370078740157,
          "duration": 0.1867187500000007
        },
        {
          "name": "D#5",
          "midi": 75,
          "time": 22.50000000000001,
          "velocity": 0.5039370078740157,
          "duration": 0.1867187500000007
        },
        {
          "name": "G5",
          "midi": 79,
          "time": 22.50000000000001,
          "velocity": 0.5039370078740157,
          "duration": 0.1867187500000007
        },
        {
          "name": "C6",
          "midi": 84,
          "time": 22.50000000000001,
          "velocity": 0.5039370078740157,
          "duration": 0.1867187500000007
        },
        {
          "name": "C4",
          "midi": 60,
          "time": 22.50000000000001,
          "velocity": 0.5039370078740157,
          "duration": 0.09218750000000142
        },
        {
          "name": "C4",
          "midi": 60,
          "time": 22.59296875000001,
          "velocity": 0.5039370078740157,
          "duration": 0.09218750000000142
        },
        {
          "name": "C4",
          "midi": 60,
          "time": 22.68671875000001,
          "velocity": 0.5039370078740157,
          "duration": 0.09218750000000142
        },
        {
          "name": "C4",
          "midi": 60,
          "time": 22.779687500000012,
          "velocity": 0.5039370078740157,
          "duration": 0.09218750000000142
        },
        {
          "name": "C4",
          "midi": 60,
          "time": 22.873437500000012,
          "velocity": 0.5039370078740157,
          "duration": 0.09218750000000142
        },
        {
          "name": "C4",
          "midi": 60,
          "time": 22.966406250000013,
          "velocity": 0.5039370078740157,
          "duration": 0.09218750000000142
        },
        {
          "name": "D4",
          "midi": 62,
          "time": 23.062500000000014,
          "velocity": 0.5039370078740157,
          "duration": 0.09218750000000142
        },
        {
          "name": "D4",
          "midi": 62,
          "time": 23.155468750000015,
          "velocity": 0.5039370078740157,
          "duration": 0.09218750000000142
        },
        {
          "name": "D4",
          "midi": 62,
          "time": 23.249218750000015,
          "velocity": 0.5039370078740157,
          "duration": 0.09218750000000142
        },
        {
          "name": "D4",
          "midi": 62,
          "time": 23.342187500000016,
          "velocity": 0.5039370078740157,
          "duration": 0.09218750000000142
        },
        {
          "name": "D4",
          "midi": 62,
          "time": 23.435937500000016,
          "velocity": 0.5039370078740157,
          "duration": 0.09218750000000142
        },
        {
          "name": "D4",
          "midi": 62,
          "time": 23.528906250000016,
          "velocity": 0.5039370078740157,
          "duration": 0.09218750000000142
        },
        {
          "name": "D#5",
          "midi": 75,
          "time": 23.625000000000018,
          "velocity": 0.5039370078740157,
          "duration": 0.1867187500000007
        },
        {
          "name": "G5",
          "midi": 79,
          "time": 23.625000000000018,
          "velocity": 0.5039370078740157,
          "duration": 0.1867187500000007
        },
        {
          "name": "C6",
          "midi": 84,
          "time": 23.625000000000018,
          "velocity": 0.5039370078740157,
          "duration": 0.1867187500000007
        },
        {
          "name": "D#4",
          "midi": 63,
          "time": 23.625000000000018,
          "velocity": 0.5039370078740157,
          "duration": 0.09218750000000142
        },
        {
          "name": "D#4",
          "midi": 63,
          "time": 23.71796875000002,
          "velocity": 0.5039370078740157,
          "duration": 0.09218750000000142
        },
        {
          "name": "D#4",
          "midi": 63,
          "time": 23.81171875000002,
          "velocity": 0.5039370078740157,
          "duration": 0.09218750000000142
        },
        {
          "name": "D#4",
          "midi": 63,
          "time": 23.90468750000002,
          "velocity": 0.5039370078740157,
          "duration": 0.09218750000000142
        },
        {
          "name": "D#4",
          "midi": 63,
          "time": 23.99843750000002,
          "velocity": 0.5039370078740157,
          "duration": 0.09218750000000142
        },
        {
          "name": "D#4",
          "midi": 63,
          "time": 24.09140625000002,
          "velocity": 0.5039370078740157,
          "duration": 0.09218750000000142
        },
        {
          "name": "F4",
          "midi": 65,
          "time": 24.18750000000002,
          "velocity": 0.5039370078740157,
          "duration": 0.09218750000000142
        },
        {
          "name": "F4",
          "midi": 65,
          "time": 24.280468750000022,
          "velocity": 0.5039370078740157,
          "duration": 0.09218750000000142
        },
        {
          "name": "F4",
          "midi": 65,
          "time": 24.374218750000022,
          "velocity": 0.5039370078740157,
          "duration": 0.09218750000000142
        },
        {
          "name": "F4",
          "midi": 65,
          "time": 24.467187500000023,
          "velocity": 0.5039370078740157,
          "duration": 0.09218750000000142
        },
        {
          "name": "F4",
          "midi": 65,
          "time": 24.560937500000023,
          "velocity": 0.5039370078740157,
          "duration": 0.09218750000000142
        },
        {
          "name": "F4",
          "midi": 65,
          "time": 24.653906250000023,
          "velocity": 0.5039370078740157,
          "duration": 0.09218750000000142
        },
        {
          "name": "D#5",
          "midi": 75,
          "time": 24.750000000000025,
          "velocity": 0.5039370078740157,
          "duration": 0.1867187500000007
        },
        {
          "name": "G5",
          "midi": 79,
          "time": 24.750000000000025,
          "velocity": 0.5039370078740157,
          "duration": 0.1867187500000007
        },
        {
          "name": "D6",
          "midi": 86,
          "time": 24.750000000000025,
          "velocity": 0.5039370078740157,
          "duration": 0.1867187500000007
        },
        {
          "name": "D4",
          "midi": 62,
          "time": 24.750000000000025,
          "velocity": 0.5039370078740157,
          "duration": 0.09218750000000142
        },
        {
          "name": "D4",
          "midi": 62,
          "time": 24.842968750000026,
          "velocity": 0.5039370078740157,
          "duration": 0.09218750000000142
        },
        {
          "name": "D4",
          "midi": 62,
          "time": 24.936718750000026,
          "velocity": 0.5039370078740157,
          "duration": 0.09218750000000142
        },
        {
          "name": "D4",
          "midi": 62,
          "time": 25.029687500000026,
          "velocity": 0.5039370078740157,
          "duration": 0.09218750000000142
        },
        {
          "name": "D4",
          "midi": 62,
          "time": 25.123437500000026,
          "velocity": 0.5039370078740157,
          "duration": 0.09218750000000142
        },
        {
          "name": "D4",
          "midi": 62,
          "time": 25.216406250000027,
          "velocity": 0.5039370078740157,
          "duration": 0.09218750000000142
        },
        {
          "name": "D#4",
          "midi": 63,
          "time": 25.31250000000003,
          "velocity": 0.5039370078740157,
          "duration": 0.09218750000000142
        },
        {
          "name": "D#4",
          "midi": 63,
          "time": 25.40546875000003,
          "velocity": 0.5039370078740157,
          "duration": 0.09218750000000142
        },
        {
          "name": "D#4",
          "midi": 63,
          "time": 25.49921875000003,
          "velocity": 0.5039370078740157,
          "duration": 0.09218750000000142
        },
        {
          "name": "D#4",
          "midi": 63,
          "time": 25.59218750000003,
          "velocity": 0.5039370078740157,
          "duration": 0.09218750000000142
        },
        {
          "name": "D#4",
          "midi": 63,
          "time": 25.68593750000003,
          "velocity": 0.5039370078740157,
          "duration": 0.09218750000000142
        },
        {
          "name": "D#4",
          "midi": 63,
          "time": 25.77890625000003,
          "velocity": 0.5039370078740157,
          "duration": 0.09218750000000142
        },
        {
          "name": "D#5",
          "midi": 75,
          "time": 25.875000000000032,
          "velocity": 0.5039370078740157,
          "duration": 0.1867187500000007
        },
        {
          "name": "A#5",
          "midi": 82,
          "time": 25.875000000000032,
          "velocity": 0.5039370078740157,
          "duration": 0.1867187500000007
        },
        {
          "name": "C6",
          "midi": 84,
          "time": 25.875000000000032,
          "velocity": 0.5039370078740157,
          "duration": 0.1867187500000007
        },
        {
          "name": "F4",
          "midi": 65,
          "time": 25.875000000000032,
          "velocity": 0.5039370078740157,
          "duration": 0.09218750000000142
        },
        {
          "name": "F4",
          "midi": 65,
          "time": 25.967968750000033,
          "velocity": 0.5039370078740157,
          "duration": 0.09218750000000142
        },
        {
          "name": "F4",
          "midi": 65,
          "time": 26.061718750000033,
          "velocity": 0.5039370078740157,
          "duration": 0.09218750000000142
        },
        {
          "name": "F4",
          "midi": 65,
          "time": 26.154687500000033,
          "velocity": 0.5039370078740157,
          "duration": 0.09218750000000142
        },
        {
          "name": "F4",
          "midi": 65,
          "time": 26.248437500000033,
          "velocity": 0.5039370078740157,
          "duration": 0.09218750000000142
        },
        {
          "name": "F4",
          "midi": 65,
          "time": 26.341406250000034,
          "velocity": 0.5039370078740157,
          "duration": 0.09218750000000142
        },
        {
          "name": "G4",
          "midi": 67,
          "time": 26.437500000000036,
          "velocity": 0.5039370078740157,
          "duration": 0.09218750000000142
        },
        {
          "name": "G4",
          "midi": 67,
          "time": 26.530468750000036,
          "velocity": 0.5039370078740157,
          "duration": 0.09218750000000142
        },
        {
          "name": "G4",
          "midi": 67,
          "time": 26.624218750000036,
          "velocity": 0.5039370078740157,
          "duration": 0.09218750000000142
        },
        {
          "name": "G4",
          "midi": 67,
          "time": 26.717187500000037,
          "velocity": 0.5039370078740157,
          "duration": 0.09218750000000142
        },
        {
          "name": "G4",
          "midi": 67,
          "time": 26.810937500000037,
          "velocity": 0.5039370078740157,
          "duration": 0.09218750000000142
        },
        {
          "name": "G4",
          "midi": 67,
          "time": 26.903906250000038,
          "velocity": 0.5039370078740157,
          "duration": 0.09218750000000142
        },
        {
          "name": "D#6",
          "midi": 87,
          "time": 27.00000000000004,
          "velocity": 0.6299212598425197,
          "duration": 0.2804687500000007
        },
        {
          "name": "C6",
          "midi": 84,
          "time": 27.28125000000004,
          "velocity": 0.6299212598425197,
          "duration": 0.2804687500000007
        },
        {
          "name": "G5",
          "midi": 79,
          "time": 27.56250000000004,
          "velocity": 0.6299212598425197,
          "duration": 0.2804687500000007
        },
        {
          "name": "C6",
          "midi": 84,
          "time": 27.84375000000004,
          "velocity": 0.6299212598425197,
          "duration": 0.2804687500000007
        },
        {
          "name": "G5",
          "midi": 79,
          "time": 28.12500000000004,
          "velocity": 0.6299212598425197,
          "duration": 0.2804687500000007
        },
        {
          "name": "D#5",
          "midi": 75,
          "time": 28.40625000000004,
          "velocity": 0.6299212598425197,
          "duration": 0.2804687500000007
        },
        {
          "name": "G5",
          "midi": 79,
          "time": 28.68750000000004,
          "velocity": 0.6299212598425197,
          "duration": 0.2804687500000007
        },
        {
          "name": "C5",
          "midi": 72,
          "time": 28.96875000000004,
          "velocity": 0.6299212598425197,
          "duration": 0.09296875000000071
        },
        {
          "name": "D#5",
          "midi": 75,
          "time": 29.06250000000004,
          "velocity": 0.6299212598425197,
          "duration": 0.09296875000000071
        },
        {
          "name": "G5",
          "midi": 79,
          "time": 29.15625000000004,
          "velocity": 0.6299212598425197,
          "duration": 0.09296875000000071
        },
        {
          "name": "D6",
          "midi": 86,
          "time": 29.25000000000004,
          "velocity": 0.6299212598425197,
          "duration": 0.2804687500000007
        },
        {
          "name": "B5",
          "midi": 83,
          "time": 29.53125000000004,
          "velocity": 0.6299212598425197,
          "duration": 0.2804687500000007
        },
        {
          "name": "G5",
          "midi": 79,
          "time": 29.81250000000004,
          "velocity": 0.6299212598425197,
          "duration": 0.2804687500000007
        },
        {
          "name": "B5",
          "midi": 83,
          "time": 30.09375000000004,
          "velocity": 0.6299212598425197,
          "duration": 0.2804687500000007
        },
        {
          "name": "G5",
          "midi": 79,
          "time": 30.37500000000004,
          "velocity": 0.6299212598425197,
          "duration": 0.2804687500000007
        },
        {
          "name": "B5",
          "midi": 83,
          "time": 30.65625000000004,
          "velocity": 0.6299212598425197,
          "duration": 0.2804687500000007
        },
        {
          "name": "C6",
          "midi": 84,
          "time": 30.93750000000004,
          "velocity": 0.6299212598425197,
          "duration": 0.2804687500000007
        },
        {
          "name": "D6",
          "midi": 86,
          "time": 31.21875000000004,
          "velocity": 0.6299212598425197,
          "duration": 0.2804687500000007
        },
        {
          "name": "C6",
          "midi": 84,
          "time": 31.50000000000004,
          "velocity": 0.6299212598425197,
          "duration": 0.18593750000000142
        },
        {
          "name": "C4",
          "midi": 60,
          "time": 31.50000000000004,
          "velocity": 0.6299212598425197,
          "duration": 0.09218750000000142
        },
        {
          "name": "C4",
          "midi": 60,
          "time": 31.59296875000004,
          "velocity": 0.6299212598425197,
          "duration": 0.09218750000000142
        },
        {
          "name": "C6",
          "midi": 84,
          "time": 31.68671875000004,
          "velocity": 0.6299212598425197,
          "duration": 0.18593750000000142
        },
        {
          "name": "C4",
          "midi": 60,
          "time": 31.68671875000004,
          "velocity": 0.6299212598425197,
          "duration": 0.09218750000000142
        },
        {
          "name": "C4",
          "midi": 60,
          "time": 31.77968750000004,
          "velocity": 0.6299212598425197,
          "duration": 0.09218750000000142
        },
        {
          "name": "C6",
          "midi": 84,
          "time": 31.87343750000004,
          "velocity": 0.6299212598425197,
          "duration": 0.18593750000000497
        },
        {
          "name": "C4",
          "midi": 60,
          "time": 31.87343750000004,
          "velocity": 0.6299212598425197,
          "duration": 0.09218750000000142
        },
        {
          "name": "C4",
          "midi": 60,
          "time": 31.96640625000004,
          "velocity": 0.6299212598425197,
          "duration": 0.09218750000000142
        },
        {
          "name": "C6",
          "midi": 84,
          "time": 32.06015625000005,
          "velocity": 0.6299212598425197,
          "duration": 0.18593750000000853
        },
        {
          "name": "D4",
          "midi": 62,
          "time": 32.06250000000005,
          "velocity": 0.6299212598425197,
          "duration": 0.09218750000000142
        },
        {
          "name": "D4",
          "midi": 62,
          "time": 32.155468750000054,
          "velocity": 0.6299212598425197,
          "duration": 0.09218750000000853
        },
        {
          "name": "C6",
          "midi": 84,
          "time": 32.24687500000006,
          "velocity": 0.6299212598425197,
          "duration": 0.18593750000000853
        },
        {
          "name": "D4",
          "midi": 62,
          "time": 32.24921875000006,
          "velocity": 0.6299212598425197,
          "duration": 0.09218750000000142
        },
        {
          "name": "D4",
          "midi": 62,
          "time": 32.342187500000065,
          "velocity": 0.6299212598425197,
          "duration": 0.09218750000000853
        },
        {
          "name": "C6",
          "midi": 84,
          "time": 32.43359375000007,
          "velocity": 0.6299212598425197,
          "duration": 0.18593750000000853
        },
        {
          "name": "D4",
          "midi": 62,
          "time": 32.43593750000007,
          "velocity": 0.6299212598425197,
          "duration": 0.09218750000000142
        },
        {
          "name": "D4",
          "midi": 62,
          "time": 32.52890625000008,
          "velocity": 0.6299212598425197,
          "duration": 0.09218750000000142
        },
        {
          "name": "C5",
          "midi": 72,
          "time": 32.62500000000008,
          "velocity": 0.6299212598425197,
          "duration": 0.18593750000000853
        },
        {
          "name": "D#4",
          "midi": 63,
          "time": 32.62500000000008,
          "velocity": 0.6299212598425197,
          "duration": 0.09218750000000142
        },
        {
          "name": "D#4",
          "midi": 63,
          "time": 32.71796875000008,
          "velocity": 0.6299212598425197,
          "duration": 0.09218750000000142
        },
        {
          "name": "C5",
          "midi": 72,
          "time": 32.81171875000009,
          "velocity": 0.6299212598425197,
          "duration": 0.18593750000000853
        },
        {
          "name": "D#4",
          "midi": 63,
          "time": 32.81171875000009,
          "velocity": 0.6299212598425197,
          "duration": 0.09218750000000142
        },
        {
          "name": "D#4",
          "midi": 63,
          "time": 32.904687500000094,
          "velocity": 0.6299212598425197,
          "duration": 0.09218750000000142
        },
        {
          "name": "C5",
          "midi": 72,
          "time": 32.9984375000001,
          "velocity": 0.6299212598425197,
          "duration": 0.18593750000000853
        },
        {
          "name": "D#4",
          "midi": 63,
          "time": 32.9984375000001,
          "velocity": 0.6299212598425197,
          "duration": 0.09218750000000142
        },
        {
          "name": "D#4",
          "midi": 63,
          "time": 33.091406250000105,
          "velocity": 0.6299212598425197,
          "duration": 0.09218750000000142
        },
        {
          "name": "C5",
          "midi": 72,
          "time": 33.18515625000011,
          "velocity": 0.6299212598425197,
          "duration": 0.18593750000000853
        },
        {
          "name": "F4",
          "midi": 65,
          "time": 33.187500000000114,
          "velocity": 0.6299212598425197,
          "duration": 0.09218750000000142
        },
        {
          "name": "F4",
          "midi": 65,
          "time": 33.28046875000012,
          "velocity": 0.6299212598425197,
          "duration": 0.09218750000000853
        },
        {
          "name": "C5",
          "midi": 72,
          "time": 33.371875000000124,
          "velocity": 0.6299212598425197,
          "duration": 0.18593750000000853
        },
        {
          "name": "F4",
          "midi": 65,
          "time": 33.374218750000125,
          "velocity": 0.6299212598425197,
          "duration": 0.09218750000000142
        },
        {
          "name": "F4",
          "midi": 65,
          "time": 33.46718750000013,
          "velocity": 0.6299212598425197,
          "duration": 0.09218750000000853
        },
        {
          "name": "C5",
          "midi": 72,
          "time": 33.558593750000135,
          "velocity": 0.6299212598425197,
          "duration": 0.18593750000000853
        },
        {
          "name": "F4",
          "midi": 65,
          "time": 33.560937500000136,
          "velocity": 0.6299212598425197,
          "duration": 0.09218750000000142
        },
        {
          "name": "F4",
          "midi": 65,
          "time": 33.65390625000014,
          "velocity": 0.6299212598425197,
          "duration": 0.09218750000000142
        },
        {
          "name": "A#5",
          "midi": 82,
          "time": 33.75000000000014,
          "velocity": 0.6299212598425197,
          "duration": 0.18593750000000853
        },
        {
          "name": "D4",
          "midi": 62,
          "time": 33.75000000000014,
          "velocity": 0.6299212598425197,
          "duration": 0.09218750000000142
        },
        {
          "name": "D4",
          "midi": 62,
          "time": 33.842968750000146,
          "velocity": 0.6299212598425197,
          "duration": 0.09218750000000142
        },
        {
          "name": "A#5",
          "midi": 82,
          "time": 33.93671875000015,
          "velocity": 0.6299212598425197,
          "duration": 0.18593750000000853
        },
        {
          "name": "D4",
          "midi": 62,
          "time": 33.93671875000015,
          "velocity": 0.6299212598425197,
          "duration": 0.09218750000000142
        },
        {
          "name": "D4",
          "midi": 62,
          "time": 34.02968750000016,
          "velocity": 0.6299212598425197,
          "duration": 0.09218750000000142
        },
        {
          "name": "A#5",
          "midi": 82,
          "time": 34.123437500000165,
          "velocity": 0.6299212598425197,
          "duration": 0.18593750000000853
        },
        {
          "name": "D4",
          "midi": 62,
          "time": 34.123437500000165,
          "velocity": 0.6299212598425197,
          "duration": 0.09218750000000142
        },
        {
          "name": "D4",
          "midi": 62,
          "time": 34.21640625000017,
          "velocity": 0.6299212598425197,
          "duration": 0.09218750000000142
        },
        {
          "name": "A#5",
          "midi": 82,
          "time": 34.310156250000176,
          "velocity": 0.6299212598425197,
          "duration": 0.18593750000000853
        },
        {
          "name": "D#4",
          "midi": 63,
          "time": 34.31250000000018,
          "velocity": 0.6299212598425197,
          "duration": 0.09218750000000142
        },
        {
          "name": "D#4",
          "midi": 63,
          "time": 34.40546875000018,
          "velocity": 0.6299212598425197,
          "duration": 0.09218750000000853
        },
        {
          "name": "A#5",
          "midi": 82,
          "time": 34.49687500000019,
          "velocity": 0.6299212598425197,
          "duration": 0.18593750000000853
        },
        {
          "name": "D#4",
          "midi": 63,
          "time": 34.49921875000019,
          "velocity": 0.6299212598425197,
          "duration": 0.09218750000000142
        },
        {
          "name": "D#4",
          "midi": 63,
          "time": 34.59218750000019,
          "velocity": 0.6299212598425197,
          "duration": 0.09218750000000853
        },
        {
          "name": "A#5",
          "midi": 82,
          "time": 34.6835937500002,
          "velocity": 0.6299212598425197,
          "duration": 0.18593750000000853
        },
        {
          "name": "D#4",
          "midi": 63,
          "time": 34.6859375000002,
          "velocity": 0.6299212598425197,
          "duration": 0.09218750000000142
        },
        {
          "name": "D#4",
          "midi": 63,
          "time": 34.778906250000205,
          "velocity": 0.6299212598425197,
          "duration": 0.09218750000000142
        },
        {
          "name": "A#4",
          "midi": 70,
          "time": 34.875000000000206,
          "velocity": 0.6299212598425197,
          "duration": 0.18593750000000853
        },
        {
          "name": "F4",
          "midi": 65,
          "time": 34.875000000000206,
          "velocity": 0.6299212598425197,
          "duration": 0.09218750000000142
        },
        {
          "name": "F4",
          "midi": 65,
          "time": 34.96796875000021,
          "velocity": 0.6299212598425197,
          "duration": 0.09218750000000142
        },
        {
          "name": "A#4",
          "midi": 70,
          "time": 35.06171875000022,
          "velocity": 0.6299212598425197,
          "duration": 0.18593750000000853
        },
        {
          "name": "F4",
          "midi": 65,
          "time": 35.06171875000022,
          "velocity": 0.6299212598425197,
          "duration": 0.09218750000000142
        },
        {
          "name": "F4",
          "midi": 65,
          "time": 35.15468750000022,
          "velocity": 0.6299212598425197,
          "duration": 0.09218750000000142
        },
        {
          "name": "A#4",
          "midi": 70,
          "time": 35.24843750000023,
          "velocity": 0.6299212598425197,
          "duration": 0.18593750000000853
        },
        {
          "name": "F4",
          "midi": 65,
          "time": 35.24843750000023,
          "velocity": 0.6299212598425197,
          "duration": 0.09218750000000142
        },
        {
          "name": "F4",
          "midi": 65,
          "time": 35.34140625000023,
          "velocity": 0.6299212598425197,
          "duration": 0.09218750000000142
        },
        {
          "name": "A#4",
          "midi": 70,
          "time": 35.43515625000024,
          "velocity": 0.6299212598425197,
          "duration": 0.18593750000000853
        },
        {
          "name": "G4",
          "midi": 67,
          "time": 35.43750000000024,
          "velocity": 0.6299212598425197,
          "duration": 0.09218750000000142
        },
        {
          "name": "G4",
          "midi": 67,
          "time": 35.530468750000246,
          "velocity": 0.6299212598425197,
          "duration": 0.09218750000000853
        },
        {
          "name": "A#4",
          "midi": 70,
          "time": 35.62187500000025,
          "velocity": 0.6299212598425197,
          "duration": 0.18593750000000853
        },
        {
          "name": "G4",
          "midi": 67,
          "time": 35.62421875000025,
          "velocity": 0.6299212598425197,
          "duration": 0.09218750000000142
        },
        {
          "name": "G4",
          "midi": 67,
          "time": 35.71718750000026,
          "velocity": 0.6299212598425197,
          "duration": 0.09218750000000853
        },
        {
          "name": "A#4",
          "midi": 70,
          "time": 35.80859375000026,
          "velocity": 0.6299212598425197,
          "duration": 0.18593750000000853
        },
        {
          "name": "G4",
          "midi": 67,
          "time": 35.810937500000264,
          "velocity": 0.6299212598425197,
          "duration": 0.09218750000000142
        },
        {
          "name": "G4",
          "midi": 67,
          "time": 35.90390625000027,
          "velocity": 0.6299212598425197,
          "duration": 0.09218750000000142
        },
        {
          "name": "D#6",
          "midi": 87,
          "time": 36.00000000000027,
          "velocity": 0.6299212598425197,
          "duration": 0.28046874999999716
        },
        {
          "name": "C6",
          "midi": 84,
          "time": 36.28125000000027,
          "velocity": 0.6299212598425197,
          "duration": 0.28046874999999716
        },
        {
          "name": "G5",
          "midi": 79,
          "time": 36.56250000000027,
          "velocity": 0.6299212598425197,
          "duration": 0.28046874999999716
        },
        {
          "name": "C6",
          "midi": 84,
          "time": 36.84375000000027,
          "velocity": 0.6299212598425197,
          "duration": 0.28046874999999716
        },
        {
          "name": "G5",
          "midi": 79,
          "time": 37.12500000000027,
          "velocity": 0.6299212598425197,
          "duration": 0.28046874999999716
        },
        {
          "name": "D#5",
          "midi": 75,
          "time": 37.40625000000027,
          "velocity": 0.6299212598425197,
          "duration": 0.28046874999999716
        },
        {
          "name": "G5",
          "midi": 79,
          "time": 37.68750000000027,
          "velocity": 0.6299212598425197,
          "duration": 0.28046874999999716
        },
        {
          "name": "C5",
          "midi": 72,
          "time": 37.96875000000027,
          "velocity": 0.6299212598425197,
          "duration": 0.09296874999999716
        },
        {
          "name": "D#5",
          "midi": 75,
          "time": 38.06250000000027,
          "velocity": 0.6299212598425197,
          "duration": 0.09296874999999716
        },
        {
          "name": "G5",
          "midi": 79,
          "time": 38.15625000000027,
          "velocity": 0.6299212598425197,
          "duration": 0.09296874999999716
        },
        {
          "name": "D6",
          "midi": 86,
          "time": 38.25000000000027,
          "velocity": 0.6299212598425197,
          "duration": 0.28046874999999716
        },
        {
          "name": "A#5",
          "midi": 82,
          "time": 38.53125000000027,
          "velocity": 0.6299212598425197,
          "duration": 0.28046874999999716
        },
        {
          "name": "G5",
          "midi": 79,
          "time": 38.81250000000027,
          "velocity": 0.6299212598425197,
          "duration": 0.28046874999999716
        },
        {
          "name": "A#5",
          "midi": 82,
          "time": 39.09375000000027,
          "velocity": 0.6299212598425197,
          "duration": 0.28046874999999716
        },
        {
          "name": "D6",
          "midi": 86,
          "time": 39.37500000000027,
          "velocity": 0.6299212598425197,
          "duration": 0.28046874999999716
        },
        {
          "name": "B5",
          "midi": 83,
          "time": 39.65625000000027,
          "velocity": 0.6299212598425197,
          "duration": 0.28046874999999716
        },
        {
          "name": "D6",
          "midi": 86,
          "time": 39.93750000000027,
          "velocity": 0.6299212598425197,
          "duration": 0.28046874999999716
        },
        {
          "name": "B5",
          "midi": 83,
          "time": 40.21875000000027,
          "velocity": 0.6299212598425197,
          "duration": 0.28046874999999716
        },
        {
          "name": "D#6",
          "midi": 87,
          "time": 40.50000000000027,
          "velocity": 0.6299212598425197,
          "duration": 0.28046874999999716
        },
        {
          "name": "G6",
          "midi": 91,
          "time": 40.50000000000027,
          "velocity": 0.6299212598425197,
          "duration": 0.28046874999999716
        },
        {
          "name": "C6",
          "midi": 84,
          "time": 40.78125000000027,
          "velocity": 0.6299212598425197,
          "duration": 0.28046874999999716
        },
        {
          "name": "D#6",
          "midi": 87,
          "time": 40.78125000000027,
          "velocity": 0.6299212598425197,
          "duration": 0.28046874999999716
        },
        {
          "name": "G5",
          "midi": 79,
          "time": 41.06250000000027,
          "velocity": 0.6299212598425197,
          "duration": 0.28046874999999716
        },
        {
          "name": "C6",
          "midi": 84,
          "time": 41.06250000000027,
          "velocity": 0.6299212598425197,
          "duration": 0.28046874999999716
        },
        {
          "name": "C6",
          "midi": 84,
          "time": 41.34375000000027,
          "velocity": 0.6299212598425197,
          "duration": 0.28046874999999716
        },
        {
          "name": "D#6",
          "midi": 87,
          "time": 41.34375000000027,
          "velocity": 0.6299212598425197,
          "duration": 0.28046874999999716
        },
        {
          "name": "D#6",
          "midi": 87,
          "time": 41.62500000000027,
          "velocity": 0.6299212598425197,
          "duration": 0.28046874999999716
        },
        {
          "name": "G6",
          "midi": 91,
          "time": 41.62500000000027,
          "velocity": 0.6299212598425197,
          "duration": 0.28046874999999716
        },
        {
          "name": "C6",
          "midi": 84,
          "time": 41.90625000000027,
          "velocity": 0.6299212598425197,
          "duration": 0.28046874999999716
        },
        {
          "name": "D#6",
          "midi": 87,
          "time": 41.90625000000027,
          "velocity": 0.6299212598425197,
          "duration": 0.28046874999999716
        },
        {
          "name": "G5",
          "midi": 79,
          "time": 42.18750000000027,
          "velocity": 0.6299212598425197,
          "duration": 0.28046874999999716
        },
        {
          "name": "C6",
          "midi": 84,
          "time": 42.18750000000027,
          "velocity": 0.6299212598425197,
          "duration": 0.28046874999999716
        },
        {
          "name": "C6",
          "midi": 84,
          "time": 42.46875000000027,
          "velocity": 0.6299212598425197,
          "duration": 0.28046874999999716
        },
        {
          "name": "D#6",
          "midi": 87,
          "time": 42.46875000000027,
          "velocity": 0.6299212598425197,
          "duration": 0.28046874999999716
        },
        {
          "name": "D6",
          "midi": 86,
          "time": 42.75000000000027,
          "velocity": 0.6299212598425197,
          "duration": 0.28046874999999716
        },
        {
          "name": "F6",
          "midi": 89,
          "time": 42.75000000000027,
          "velocity": 0.6299212598425197,
          "duration": 0.28046874999999716
        },
        {
          "name": "A#5",
          "midi": 82,
          "time": 43.03125000000027,
          "velocity": 0.6299212598425197,
          "duration": 0.28046874999999716
        },
        {
          "name": "D6",
          "midi": 86,
          "time": 43.03125000000027,
          "velocity": 0.6299212598425197,
          "duration": 0.28046874999999716
        },
        {
          "name": "G5",
          "midi": 79,
          "time": 43.31250000000027,
          "velocity": 0.6299212598425197,
          "duration": 0.28046874999999716
        },
        {
          "name": "A#5",
          "midi": 82,
          "time": 43.31250000000027,
          "velocity": 0.6299212598425197,
          "duration": 0.28046874999999716
        },
        {
          "name": "A#5",
          "midi": 82,
          "time": 43.59375000000027,
          "velocity": 0.6299212598425197,
          "duration": 0.28046874999999716
        },
        {
          "name": "D6",
          "midi": 86,
          "time": 43.59375000000027,
          "velocity": 0.6299212598425197,
          "duration": 0.28046874999999716
        },
        {
          "name": "D6",
          "midi": 86,
          "time": 43.87500000000027,
          "velocity": 0.6299212598425197,
          "duration": 0.28046874999999716
        },
        {
          "name": "F6",
          "midi": 89,
          "time": 43.87500000000027,
          "velocity": 0.6299212598425197,
          "duration": 0.28046874999999716
        },
        {
          "name": "B5",
          "midi": 83,
          "time": 44.15625000000027,
          "velocity": 0.6299212598425197,
          "duration": 0.28046874999999716
        },
        {
          "name": "D6",
          "midi": 86,
          "time": 44.15625000000027,
          "velocity": 0.6299212598425197,
          "duration": 0.28046874999999716
        },
        {
          "name": "G5",
          "midi": 79,
          "time": 44.43750000000027,
          "velocity": 0.6299212598425197,
          "duration": 0.28046874999999716
        },
        {
          "name": "B5",
          "midi": 83,
          "time": 44.43750000000027,
          "velocity": 0.6299212598425197,
          "duration": 0.28046874999999716
        },
        {
          "name": "B5",
          "midi": 83,
          "time": 44.71875000000027,
          "velocity": 0.6299212598425197,
          "duration": 0.28046874999999716
        },
        {
          "name": "D6",
          "midi": 86,
          "time": 44.71875000000027,
          "velocity": 0.6299212598425197,
          "duration": 0.28046874999999716
        },
        {
          "name": "D#6",
          "midi": 87,
          "time": 45.00000000000027,
          "velocity": 0.6299212598425197,
          "duration": 0.28046874999999716
        },
        {
          "name": "C6",
          "midi": 84,
          "time": 45.28125000000027,
          "velocity": 0.6299212598425197,
          "duration": 0.28046874999999716
        },
        {
          "name": "G5",
          "midi": 79,
          "time": 45.56250000000027,
          "velocity": 0.6299212598425197,
          "duration": 0.28046874999999716
        },
        {
          "name": "C6",
          "midi": 84,
          "time": 45.84375000000027,
          "velocity": 0.6299212598425197,
          "duration": 0.28046874999999716
        },
        {
          "name": "D#6",
          "midi": 87,
          "time": 46.12500000000027,
          "velocity": 0.6299212598425197,
          "duration": 0.28046874999999716
        },
        {
          "name": "C6",
          "midi": 84,
          "time": 46.40625000000027,
          "velocity": 0.6299212598425197,
          "duration": 0.28046874999999716
        },
        {
          "name": "G5",
          "midi": 79,
          "time": 46.68750000000027,
          "velocity": 0.6299212598425197,
          "duration": 0.28046874999999716
        },
        {
          "name": "C6",
          "midi": 84,
          "time": 46.96875000000027,
          "velocity": 0.6299212598425197,
          "duration": 0.28046874999999716
        },
        {
          "name": "G6",
          "midi": 91,
          "time": 47.25000000000027,
          "velocity": 0.6299212598425197,
          "duration": 0.28046874999999716
        },
        {
          "name": "D#6",
          "midi": 87,
          "time": 47.53125000000027,
          "velocity": 0.6299212598425197,
          "duration": 0.28046874999999716
        },
        {
          "name": "C6",
          "midi": 84,
          "time": 47.81250000000027,
          "velocity": 0.6299212598425197,
          "duration": 0.28046874999999716
        },
        {
          "name": "D#6",
          "midi": 87,
          "time": 48.09375000000027,
          "velocity": 0.6299212598425197,
          "duration": 0.28046874999999716
        },
        {
          "name": "G6",
          "midi": 91,
          "time": 48.37500000000027,
          "velocity": 0.6299212598425197,
          "duration": 0.18671874999999716
        },
        {
          "name": "D6",
          "midi": 86,
          "time": 48.93750000000027,
          "velocity": 0.6299212598425197,
          "duration": 0.18671874999999716
        },
        {
          "name": "A#5",
          "midi": 82,
          "time": 49.31250000000027,
          "velocity": 0.6299212598425197,
          "duration": 0.18671874999999716
        },
        {
          "name": "G#5",
          "midi": 80,
          "time": 49.50000000000027,
          "velocity": 0.6299212598425197,
          "duration": 0.18671874999999716
        },
        {
          "name": "G6",
          "midi": 91,
          "time": 50.25000000000027,
          "velocity": 0.6299212598425197,
          "duration": 0.18671874999999716
        },
        {
          "name": "G#5",
          "midi": 80,
          "time": 50.81250000000027,
          "velocity": 0.6299212598425197,
          "duration": 0.18671874999999716
        },
        {
          "name": "G6",
          "midi": 91,
          "time": 51.37500000000027,
          "velocity": 0.6299212598425197,
          "duration": 0.18671874999999716
        },
        {
          "name": "G5",
          "midi": 79,
          "time": 51.93750000000027,
          "velocity": 0.6299212598425197,
          "duration": 0.18671874999999716
        },
        {
          "name": "F6",
          "midi": 89,
          "time": 52.31250000000027,
          "velocity": 0.6299212598425197,
          "duration": 0.18671874999999716
        },
        {
          "name": "G6",
          "midi": 91,
          "time": 52.87500000000027,
          "velocity": 0.6299212598425197,
          "duration": 0.18671874999999716
        },
        {
          "name": "G#6",
          "midi": 92,
          "time": 53.62500000000027,
          "velocity": 0.6299212598425197,
          "duration": 0.18671874999999716
        },
        {
          "name": "G6",
          "midi": 91,
          "time": 54.75000000000027,
          "velocity": 0.6299212598425197,
          "duration": 0.18671874999999716
        },
        {
          "name": "D5",
          "midi": 74,
          "time": 58.31250000000027,
          "velocity": 0.6299212598425197,
          "duration": 0.18671874999999716
        },
        {
          "name": "G5",
          "midi": 79,
          "time": 58.31250000000027,
          "velocity": 0.6299212598425197,
          "duration": 0.18671874999999716
        },
        {
          "name": "A#5",
          "midi": 82,
          "time": 58.31250000000027,
          "velocity": 0.6299212598425197,
          "duration": 0.18671874999999716
        }
      ],
      "controlChanges": {
        "7": [
          {
            "number": 7,
            "time": 0,
            "value": 0.7874015748031497
          }
        ],
        "10": [
          {
            "number": 10,
            "time": 0,
            "value": 0.5039370078740157
          }
        ],
        "91": [
          {
            "number": 91,
            "time": 0,
            "value": 0
          }
        ],
        "93": [
          {
            "number": 93,
            "time": 0,
            "value": 0
          }
        ],
        "121": [
          {
            "number": 121,
            "time": 0,
            "value": 0
          }
        ]
      },
      "id": 0,
      "name": "Marimba (Single Staff)",
      "instrumentNumber": 12,
      "instrument": "marimba",
      "instrumentFamily": "chromatic percussion",
      "channelNumber": 5,
      "isPercussion": false
    },
    {
      "startTime": 9,
      "duration": 44.99921875,
      "length": 240,
      "notes": [
        {
          "name": "C5",
          "midi": 72,
          "time": 9,
          "velocity": 0.3858267716535433,
          "duration": 0.2492187500000007
        },
        {
          "name": "C4",
          "midi": 60,
          "time": 9.25,
          "velocity": 0.3858267716535433,
          "duration": 0.12421875000000071
        },
        {
          "name": "D#4",
          "midi": 63,
          "time": 9.375,
          "velocity": 0.3858267716535433,
          "duration": 0.1867187500000007
        },
        {
          "name": "C4",
          "midi": 60,
          "time": 9.5625,
          "velocity": 0.3858267716535433,
          "duration": 0.1867187500000007
        },
        {
          "name": "D#4",
          "midi": 63,
          "time": 9.75,
          "velocity": 0.3858267716535433,
          "duration": 0.1867187500000007
        },
        {
          "name": "G4",
          "midi": 67,
          "time": 9.9375,
          "velocity": 0.3858267716535433,
          "duration": 0.1867187500000007
        },
        {
          "name": "C5",
          "midi": 72,
          "time": 10.125,
          "velocity": 0.3858267716535433,
          "duration": 0.2492187500000007
        },
        {
          "name": "C4",
          "midi": 60,
          "time": 10.375,
          "velocity": 0.3858267716535433,
          "duration": 0.12421875000000071
        },
        {
          "name": "D#4",
          "midi": 63,
          "time": 10.5,
          "velocity": 0.3858267716535433,
          "duration": 0.1867187500000007
        },
        {
          "name": "C4",
          "midi": 60,
          "time": 10.6875,
          "velocity": 0.3858267716535433,
          "duration": 0.1867187500000007
        },
        {
          "name": "D#4",
          "midi": 63,
          "time": 10.875,
          "velocity": 0.3858267716535433,
          "duration": 0.1867187500000007
        },
        {
          "name": "G4",
          "midi": 67,
          "time": 11.0625,
          "velocity": 0.3858267716535433,
          "duration": 0.1867187500000007
        },
        {
          "name": "C5",
          "midi": 72,
          "time": 11.25,
          "velocity": 0.3858267716535433,
          "duration": 0.2492187500000007
        },
        {
          "name": "D#4",
          "midi": 63,
          "time": 11.5,
          "velocity": 0.3858267716535433,
          "duration": 0.12421875000000071
        },
        {
          "name": "F4",
          "midi": 65,
          "time": 11.625,
          "velocity": 0.3858267716535433,
          "duration": 0.1867187500000007
        },
        {
          "name": "D4",
          "midi": 62,
          "time": 11.8125,
          "velocity": 0.3858267716535433,
          "duration": 0.1867187500000007
        },
        {
          "name": "F4",
          "midi": 65,
          "time": 12,
          "velocity": 0.3858267716535433,
          "duration": 0.1867187500000007
        },
        {
          "name": "G4",
          "midi": 67,
          "time": 12.1875,
          "velocity": 0.3858267716535433,
          "duration": 0.1867187500000007
        },
        {
          "name": "B4",
          "midi": 71,
          "time": 12.375,
          "velocity": 0.3858267716535433,
          "duration": 0.2492187500000007
        },
        {
          "name": "B3",
          "midi": 59,
          "time": 12.625,
          "velocity": 0.3858267716535433,
          "duration": 0.12421875000000071
        },
        {
          "name": "D4",
          "midi": 62,
          "time": 12.75,
          "velocity": 0.3858267716535433,
          "duration": 0.1867187500000007
        },
        {
          "name": "B3",
          "midi": 59,
          "time": 12.9375,
          "velocity": 0.3858267716535433,
          "duration": 0.1867187500000007
        },
        {
          "name": "D4",
          "midi": 62,
          "time": 13.125,
          "velocity": 0.3858267716535433,
          "duration": 0.1867187500000007
        },
        {
          "name": "G4",
          "midi": 67,
          "time": 13.3125,
          "velocity": 0.3858267716535433,
          "duration": 0.1867187500000007
        },
        {
          "name": "C5",
          "midi": 72,
          "time": 13.5,
          "velocity": 0.3858267716535433,
          "duration": 0.2492187500000007
        },
        {
          "name": "C4",
          "midi": 60,
          "time": 13.75,
          "velocity": 0.3858267716535433,
          "duration": 0.12421875000000071
        },
        {
          "name": "D#4",
          "midi": 63,
          "time": 13.875,
          "velocity": 0.3858267716535433,
          "duration": 0.1867187500000007
        },
        {
          "name": "C4",
          "midi": 60,
          "time": 14.0625,
          "velocity": 0.3858267716535433,
          "duration": 0.1867187500000007
        },
        {
          "name": "D#4",
          "midi": 63,
          "time": 14.25,
          "velocity": 0.3858267716535433,
          "duration": 0.1867187500000007
        },
        {
          "name": "G4",
          "midi": 67,
          "time": 14.4375,
          "velocity": 0.3858267716535433,
          "duration": 0.1867187500000007
        },
        {
          "name": "C5",
          "midi": 72,
          "time": 14.625,
          "velocity": 0.3858267716535433,
          "duration": 0.2492187500000007
        },
        {
          "name": "C4",
          "midi": 60,
          "time": 14.875,
          "velocity": 0.3858267716535433,
          "duration": 0.12421875000000071
        },
        {
          "name": "D#4",
          "midi": 63,
          "time": 15,
          "velocity": 0.3858267716535433,
          "duration": 0.1867187500000007
        },
        {
          "name": "C4",
          "midi": 60,
          "time": 15.1875,
          "velocity": 0.3858267716535433,
          "duration": 0.1867187500000007
        },
        {
          "name": "D#4",
          "midi": 63,
          "time": 15.375,
          "velocity": 0.3858267716535433,
          "duration": 0.1867187500000007
        },
        {
          "name": "G4",
          "midi": 67,
          "time": 15.5625,
          "velocity": 0.3858267716535433,
          "duration": 0.1867187500000007
        },
        {
          "name": "D5",
          "midi": 74,
          "time": 15.75,
          "velocity": 0.3858267716535433,
          "duration": 0.2492187500000007
        },
        {
          "name": "C4",
          "midi": 60,
          "time": 16,
          "velocity": 0.3858267716535433,
          "duration": 0.12421875000000071
        },
        {
          "name": "D#4",
          "midi": 63,
          "time": 16.125,
          "velocity": 0.3858267716535433,
          "duration": 0.1867187500000007
        },
        {
          "name": "C4",
          "midi": 60,
          "time": 16.3125,
          "velocity": 0.3858267716535433,
          "duration": 0.1867187500000007
        },
        {
          "name": "D#4",
          "midi": 63,
          "time": 16.5,
          "velocity": 0.3858267716535433,
          "duration": 0.1867187500000007
        },
        {
          "name": "G4",
          "midi": 67,
          "time": 16.6875,
          "velocity": 0.3858267716535433,
          "duration": 0.1867187500000007
        },
        {
          "name": "C5",
          "midi": 72,
          "time": 16.875,
          "velocity": 0.3858267716535433,
          "duration": 0.2492187500000007
        },
        {
          "name": "C4",
          "midi": 60,
          "time": 17.125,
          "velocity": 0.3858267716535433,
          "duration": 0.12421875000000071
        },
        {
          "name": "D#4",
          "midi": 63,
          "time": 17.25,
          "velocity": 0.3858267716535433,
          "duration": 0.1867187500000007
        },
        {
          "name": "C4",
          "midi": 60,
          "time": 17.4375,
          "velocity": 0.3858267716535433,
          "duration": 0.1867187500000007
        },
        {
          "name": "D#4",
          "midi": 63,
          "time": 17.625,
          "velocity": 0.3858267716535433,
          "duration": 0.1867187500000007
        },
        {
          "name": "G4",
          "midi": 67,
          "time": 17.8125,
          "velocity": 0.3858267716535433,
          "duration": 0.1867187500000007
        },
        {
          "name": "C5",
          "midi": 72,
          "time": 18,
          "velocity": 0.3858267716535433,
          "duration": 0.2492187500000007
        },
        {
          "name": "C4",
          "midi": 60,
          "time": 18.25,
          "velocity": 0.3858267716535433,
          "duration": 0.12421875000000071
        },
        {
          "name": "D#4",
          "midi": 63,
          "time": 18.375,
          "velocity": 0.3858267716535433,
          "duration": 0.1867187500000007
        },
        {
          "name": "C4",
          "midi": 60,
          "time": 18.5625,
          "velocity": 0.3858267716535433,
          "duration": 0.1867187500000007
        },
        {
          "name": "D#4",
          "midi": 63,
          "time": 18.75,
          "velocity": 0.3858267716535433,
          "duration": 0.1867187500000007
        },
        {
          "name": "G4",
          "midi": 67,
          "time": 18.9375,
          "velocity": 0.3858267716535433,
          "duration": 0.1867187500000007
        },
        {
          "name": "C5",
          "midi": 72,
          "time": 19.125,
          "velocity": 0.3858267716535433,
          "duration": 0.2492187500000007
        },
        {
          "name": "C4",
          "midi": 60,
          "time": 19.375,
          "velocity": 0.3858267716535433,
          "duration": 0.12421875000000071
        },
        {
          "name": "D#4",
          "midi": 63,
          "time": 19.5,
          "velocity": 0.3858267716535433,
          "duration": 0.1867187500000007
        },
        {
          "name": "C4",
          "midi": 60,
          "time": 19.6875,
          "velocity": 0.3858267716535433,
          "duration": 0.1867187500000007
        },
        {
          "name": "D#4",
          "midi": 63,
          "time": 19.875,
          "velocity": 0.3858267716535433,
          "duration": 0.1867187500000007
        },
        {
          "name": "G4",
          "midi": 67,
          "time": 20.0625,
          "velocity": 0.3858267716535433,
          "duration": 0.1867187500000007
        },
        {
          "name": "C5",
          "midi": 72,
          "time": 20.25,
          "velocity": 0.3858267716535433,
          "duration": 0.2492187500000007
        },
        {
          "name": "D#4",
          "midi": 63,
          "time": 20.5,
          "velocity": 0.3858267716535433,
          "duration": 0.12421875000000071
        },
        {
          "name": "F4",
          "midi": 65,
          "time": 20.625,
          "velocity": 0.3858267716535433,
          "duration": 0.1867187500000007
        },
        {
          "name": "D4",
          "midi": 62,
          "time": 20.8125,
          "velocity": 0.3858267716535433,
          "duration": 0.1867187500000007
        },
        {
          "name": "F4",
          "midi": 65,
          "time": 21,
          "velocity": 0.3858267716535433,
          "duration": 0.1867187500000007
        },
        {
          "name": "G4",
          "midi": 67,
          "time": 21.1875,
          "velocity": 0.3858267716535433,
          "duration": 0.1867187500000007
        },
        {
          "name": "B4",
          "midi": 71,
          "time": 21.375,
          "velocity": 0.3858267716535433,
          "duration": 0.2492187500000007
        },
        {
          "name": "B3",
          "midi": 59,
          "time": 21.625,
          "velocity": 0.3858267716535433,
          "duration": 0.12421875000000071
        },
        {
          "name": "D4",
          "midi": 62,
          "time": 21.75,
          "velocity": 0.3858267716535433,
          "duration": 0.1867187500000007
        },
        {
          "name": "B3",
          "midi": 59,
          "time": 21.9375,
          "velocity": 0.3858267716535433,
          "duration": 0.1867187500000007
        },
        {
          "name": "D4",
          "midi": 62,
          "time": 22.125,
          "velocity": 0.3858267716535433,
          "duration": 0.1867187500000007
        },
        {
          "name": "G4",
          "midi": 67,
          "time": 22.3125,
          "velocity": 0.3858267716535433,
          "duration": 0.1867187500000007
        },
        {
          "name": "C5",
          "midi": 72,
          "time": 22.5,
          "velocity": 0.3858267716535433,
          "duration": 0.2492187500000007
        },
        {
          "name": "C4",
          "midi": 60,
          "time": 22.75,
          "velocity": 0.3858267716535433,
          "duration": 0.12421875000000071
        },
        {
          "name": "D#4",
          "midi": 63,
          "time": 22.875,
          "velocity": 0.3858267716535433,
          "duration": 0.1867187500000007
        },
        {
          "name": "C4",
          "midi": 60,
          "time": 23.0625,
          "velocity": 0.3858267716535433,
          "duration": 0.1867187500000007
        },
        {
          "name": "D#4",
          "midi": 63,
          "time": 23.25,
          "velocity": 0.3858267716535433,
          "duration": 0.1867187500000007
        },
        {
          "name": "G4",
          "midi": 67,
          "time": 23.4375,
          "velocity": 0.3858267716535433,
          "duration": 0.1867187500000007
        },
        {
          "name": "C5",
          "midi": 72,
          "time": 23.625,
          "velocity": 0.3858267716535433,
          "duration": 0.2492187500000007
        },
        {
          "name": "C4",
          "midi": 60,
          "time": 23.875,
          "velocity": 0.3858267716535433,
          "duration": 0.12421875000000071
        },
        {
          "name": "D#4",
          "midi": 63,
          "time": 24,
          "velocity": 0.3858267716535433,
          "duration": 0.1867187500000007
        },
        {
          "name": "C4",
          "midi": 60,
          "time": 24.1875,
          "velocity": 0.3858267716535433,
          "duration": 0.1867187500000007
        },
        {
          "name": "D#4",
          "midi": 63,
          "time": 24.375,
          "velocity": 0.3858267716535433,
          "duration": 0.1867187500000007
        },
        {
          "name": "G4",
          "midi": 67,
          "time": 24.5625,
          "velocity": 0.3858267716535433,
          "duration": 0.1867187500000007
        },
        {
          "name": "D5",
          "midi": 74,
          "time": 24.75,
          "velocity": 0.3858267716535433,
          "duration": 0.2492187500000007
        },
        {
          "name": "C4",
          "midi": 60,
          "time": 25,
          "velocity": 0.3858267716535433,
          "duration": 0.12421875000000071
        },
        {
          "name": "D#4",
          "midi": 63,
          "time": 25.125,
          "velocity": 0.3858267716535433,
          "duration": 0.1867187500000007
        },
        {
          "name": "C4",
          "midi": 60,
          "time": 25.3125,
          "velocity": 0.3858267716535433,
          "duration": 0.1867187500000007
        },
        {
          "name": "D#4",
          "midi": 63,
          "time": 25.5,
          "velocity": 0.3858267716535433,
          "duration": 0.1867187500000007
        },
        {
          "name": "G4",
          "midi": 67,
          "time": 25.6875,
          "velocity": 0.3858267716535433,
          "duration": 0.1867187500000007
        },
        {
          "name": "C5",
          "midi": 72,
          "time": 25.875,
          "velocity": 0.3858267716535433,
          "duration": 0.2492187500000007
        },
        {
          "name": "C4",
          "midi": 60,
          "time": 26.125,
          "velocity": 0.3858267716535433,
          "duration": 0.12421875000000071
        },
        {
          "name": "D#4",
          "midi": 63,
          "time": 26.25,
          "velocity": 0.3858267716535433,
          "duration": 0.1867187500000007
        },
        {
          "name": "C4",
          "midi": 60,
          "time": 26.4375,
          "velocity": 0.3858267716535433,
          "duration": 0.1867187500000007
        },
        {
          "name": "D#4",
          "midi": 63,
          "time": 26.625,
          "velocity": 0.3858267716535433,
          "duration": 0.1867187500000007
        },
        {
          "name": "G4",
          "midi": 67,
          "time": 26.8125,
          "velocity": 0.3858267716535433,
          "duration": 0.1867187500000007
        },
        {
          "name": "C5",
          "midi": 72,
          "time": 27,
          "velocity": 0.3858267716535433,
          "duration": 0.2492187500000007
        },
        {
          "name": "C4",
          "midi": 60,
          "time": 27.25,
          "velocity": 0.3858267716535433,
          "duration": 0.12421875000000071
        },
        {
          "name": "D#4",
          "midi": 63,
          "time": 27.375,
          "velocity": 0.3858267716535433,
          "duration": 0.1867187500000007
        },
        {
          "name": "C4",
          "midi": 60,
          "time": 27.5625,
          "velocity": 0.3858267716535433,
          "duration": 0.1867187500000007
        },
        {
          "name": "D#4",
          "midi": 63,
          "time": 27.75,
          "velocity": 0.3858267716535433,
          "duration": 0.1867187500000007
        },
        {
          "name": "G4",
          "midi": 67,
          "time": 27.9375,
          "velocity": 0.3858267716535433,
          "duration": 0.1867187500000007
        },
        {
          "name": "C5",
          "midi": 72,
          "time": 28.125,
          "velocity": 0.3858267716535433,
          "duration": 0.2492187500000007
        },
        {
          "name": "C4",
          "midi": 60,
          "time": 28.375,
          "velocity": 0.3858267716535433,
          "duration": 0.12421875000000071
        },
        {
          "name": "D#4",
          "midi": 63,
          "time": 28.5,
          "velocity": 0.3858267716535433,
          "duration": 0.1867187500000007
        },
        {
          "name": "C4",
          "midi": 60,
          "time": 28.6875,
          "velocity": 0.3858267716535433,
          "duration": 0.1867187500000007
        },
        {
          "name": "D#4",
          "midi": 63,
          "time": 28.875,
          "velocity": 0.3858267716535433,
          "duration": 0.1867187500000007
        },
        {
          "name": "G4",
          "midi": 67,
          "time": 29.0625,
          "velocity": 0.3858267716535433,
          "duration": 0.1867187500000007
        },
        {
          "name": "C5",
          "midi": 72,
          "time": 29.25,
          "velocity": 0.3858267716535433,
          "duration": 0.2492187500000007
        },
        {
          "name": "D#4",
          "midi": 63,
          "time": 29.5,
          "velocity": 0.3858267716535433,
          "duration": 0.12421875000000071
        },
        {
          "name": "F4",
          "midi": 65,
          "time": 29.625,
          "velocity": 0.3858267716535433,
          "duration": 0.1867187500000007
        },
        {
          "name": "D4",
          "midi": 62,
          "time": 29.8125,
          "velocity": 0.3858267716535433,
          "duration": 0.1867187500000007
        },
        {
          "name": "F4",
          "midi": 65,
          "time": 30,
          "velocity": 0.3858267716535433,
          "duration": 0.1867187500000007
        },
        {
          "name": "G4",
          "midi": 67,
          "time": 30.1875,
          "velocity": 0.3858267716535433,
          "duration": 0.1867187500000007
        },
        {
          "name": "B4",
          "midi": 71,
          "time": 30.375,
          "velocity": 0.3858267716535433,
          "duration": 0.2492187500000007
        },
        {
          "name": "B3",
          "midi": 59,
          "time": 30.625,
          "velocity": 0.3858267716535433,
          "duration": 0.12421875000000071
        },
        {
          "name": "D4",
          "midi": 62,
          "time": 30.75,
          "velocity": 0.3858267716535433,
          "duration": 0.1867187500000007
        },
        {
          "name": "B3",
          "midi": 59,
          "time": 30.9375,
          "velocity": 0.3858267716535433,
          "duration": 0.1867187500000007
        },
        {
          "name": "D4",
          "midi": 62,
          "time": 31.125,
          "velocity": 0.3858267716535433,
          "duration": 0.1867187500000007
        },
        {
          "name": "G4",
          "midi": 67,
          "time": 31.3125,
          "velocity": 0.3858267716535433,
          "duration": 0.1867187500000007
        },
        {
          "name": "C5",
          "midi": 72,
          "time": 31.5,
          "velocity": 0.3858267716535433,
          "duration": 0.2492187500000007
        },
        {
          "name": "C4",
          "midi": 60,
          "time": 31.75,
          "velocity": 0.3858267716535433,
          "duration": 0.12421875000000071
        },
        {
          "name": "D#4",
          "midi": 63,
          "time": 31.875,
          "velocity": 0.3858267716535433,
          "duration": 0.18671874999999716
        },
        {
          "name": "C4",
          "midi": 60,
          "time": 32.0625,
          "velocity": 0.3858267716535433,
          "duration": 0.18671874999999716
        },
        {
          "name": "D#4",
          "midi": 63,
          "time": 32.25,
          "velocity": 0.3858267716535433,
          "duration": 0.18671874999999716
        },
        {
          "name": "G4",
          "midi": 67,
          "time": 32.4375,
          "velocity": 0.3858267716535433,
          "duration": 0.18671874999999716
        },
        {
          "name": "C5",
          "midi": 72,
          "time": 32.625,
          "velocity": 0.3858267716535433,
          "duration": 0.24921874999999716
        },
        {
          "name": "C4",
          "midi": 60,
          "time": 32.875,
          "velocity": 0.3858267716535433,
          "duration": 0.12421874999999716
        },
        {
          "name": "D#4",
          "midi": 63,
          "time": 33,
          "velocity": 0.3858267716535433,
          "duration": 0.18671874999999716
        },
        {
          "name": "C4",
          "midi": 60,
          "time": 33.1875,
          "velocity": 0.3858267716535433,
          "duration": 0.18671874999999716
        },
        {
          "name": "D#4",
          "midi": 63,
          "time": 33.375,
          "velocity": 0.3858267716535433,
          "duration": 0.18671874999999716
        },
        {
          "name": "G4",
          "midi": 67,
          "time": 33.5625,
          "velocity": 0.3858267716535433,
          "duration": 0.18671874999999716
        },
        {
          "name": "D5",
          "midi": 74,
          "time": 33.75,
          "velocity": 0.3858267716535433,
          "duration": 0.24921874999999716
        },
        {
          "name": "C4",
          "midi": 60,
          "time": 34,
          "velocity": 0.3858267716535433,
          "duration": 0.12421874999999716
        },
        {
          "name": "D#4",
          "midi": 63,
          "time": 34.125,
          "velocity": 0.3858267716535433,
          "duration": 0.18671874999999716
        },
        {
          "name": "C4",
          "midi": 60,
          "time": 34.3125,
          "velocity": 0.3858267716535433,
          "duration": 0.18671874999999716
        },
        {
          "name": "D#4",
          "midi": 63,
          "time": 34.5,
          "velocity": 0.3858267716535433,
          "duration": 0.18671874999999716
        },
        {
          "name": "G4",
          "midi": 67,
          "time": 34.6875,
          "velocity": 0.3858267716535433,
          "duration": 0.18671874999999716
        },
        {
          "name": "C5",
          "midi": 72,
          "time": 34.875,
          "velocity": 0.3858267716535433,
          "duration": 0.24921874999999716
        },
        {
          "name": "C4",
          "midi": 60,
          "time": 35.125,
          "velocity": 0.3858267716535433,
          "duration": 0.12421874999999716
        },
        {
          "name": "D#4",
          "midi": 63,
          "time": 35.25,
          "velocity": 0.3858267716535433,
          "duration": 0.18671874999999716
        },
        {
          "name": "C4",
          "midi": 60,
          "time": 35.4375,
          "velocity": 0.3858267716535433,
          "duration": 0.18671874999999716
        },
        {
          "name": "D#4",
          "midi": 63,
          "time": 35.625,
          "velocity": 0.3858267716535433,
          "duration": 0.18671874999999716
        },
        {
          "name": "G4",
          "midi": 67,
          "time": 35.8125,
          "velocity": 0.3858267716535433,
          "duration": 0.18671874999999716
        },
        {
          "name": "G#3",
          "midi": 56,
          "time": 36,
          "velocity": 0.3858267716535433,
          "duration": 0.09296874999999716
        },
        {
          "name": "C4",
          "midi": 60,
          "time": 36.09375,
          "velocity": 0.3858267716535433,
          "duration": 0.09296874999999716
        },
        {
          "name": "D#4",
          "midi": 63,
          "time": 36.1875,
          "velocity": 0.3858267716535433,
          "duration": 0.09296874999999716
        },
        {
          "name": "G4",
          "midi": 67,
          "time": 36.28125,
          "velocity": 0.3858267716535433,
          "duration": 0.09296874999999716
        },
        {
          "name": "G#4",
          "midi": 68,
          "time": 36.375,
          "velocity": 0.3858267716535433,
          "duration": 0.09296874999999716
        },
        {
          "name": "C5",
          "midi": 72,
          "time": 36.46875,
          "velocity": 0.3858267716535433,
          "duration": 0.09296874999999716
        },
        {
          "name": "D#5",
          "midi": 75,
          "time": 36.5625,
          "velocity": 0.3858267716535433,
          "duration": 0.09296874999999716
        },
        {
          "name": "G5",
          "midi": 79,
          "time": 36.65625,
          "velocity": 0.3858267716535433,
          "duration": 0.09296874999999716
        },
        {
          "name": "G#5",
          "midi": 80,
          "time": 36.75,
          "velocity": 0.3858267716535433,
          "duration": 0.09296874999999716
        },
        {
          "name": "C6",
          "midi": 84,
          "time": 36.84375,
          "velocity": 0.3858267716535433,
          "duration": 0.09296874999999716
        },
        {
          "name": "D#6",
          "midi": 87,
          "time": 36.9375,
          "velocity": 0.3858267716535433,
          "duration": 0.09296874999999716
        },
        {
          "name": "G6",
          "midi": 91,
          "time": 37.03125,
          "velocity": 0.3858267716535433,
          "duration": 0.09296874999999716
        },
        {
          "name": "G#3",
          "midi": 56,
          "time": 37.125,
          "velocity": 0.3858267716535433,
          "duration": 0.09296874999999716
        },
        {
          "name": "C4",
          "midi": 60,
          "time": 37.21875,
          "velocity": 0.3858267716535433,
          "duration": 0.09296874999999716
        },
        {
          "name": "D#4",
          "midi": 63,
          "time": 37.3125,
          "velocity": 0.3858267716535433,
          "duration": 0.09296874999999716
        },
        {
          "name": "G4",
          "midi": 67,
          "time": 37.40625,
          "velocity": 0.3858267716535433,
          "duration": 0.09296874999999716
        },
        {
          "name": "G#4",
          "midi": 68,
          "time": 37.5,
          "velocity": 0.3858267716535433,
          "duration": 0.09296874999999716
        },
        {
          "name": "C5",
          "midi": 72,
          "time": 37.59375,
          "velocity": 0.3858267716535433,
          "duration": 0.09296874999999716
        },
        {
          "name": "D#5",
          "midi": 75,
          "time": 37.6875,
          "velocity": 0.3858267716535433,
          "duration": 0.09296874999999716
        },
        {
          "name": "G5",
          "midi": 79,
          "time": 37.78125,
          "velocity": 0.3858267716535433,
          "duration": 0.09296874999999716
        },
        {
          "name": "G#5",
          "midi": 80,
          "time": 37.875,
          "velocity": 0.3858267716535433,
          "duration": 0.09296874999999716
        },
        {
          "name": "C6",
          "midi": 84,
          "time": 37.96875,
          "velocity": 0.3858267716535433,
          "duration": 0.09296874999999716
        },
        {
          "name": "D#6",
          "midi": 87,
          "time": 38.0625,
          "velocity": 0.3858267716535433,
          "duration": 0.09296874999999716
        },
        {
          "name": "G#6",
          "midi": 92,
          "time": 38.15625,
          "velocity": 0.3858267716535433,
          "duration": 0.09296874999999716
        },
        {
          "name": "G6",
          "midi": 91,
          "time": 38.25,
          "velocity": 0.3858267716535433,
          "duration": 0.09296874999999716
        },
        {
          "name": "D6",
          "midi": 86,
          "time": 38.34375,
          "velocity": 0.3858267716535433,
          "duration": 0.09296874999999716
        },
        {
          "name": "A#5",
          "midi": 82,
          "time": 38.4375,
          "velocity": 0.3858267716535433,
          "duration": 0.09296874999999716
        },
        {
          "name": "G5",
          "midi": 79,
          "time": 38.53125,
          "velocity": 0.3858267716535433,
          "duration": 0.09296874999999716
        },
        {
          "name": "D5",
          "midi": 74,
          "time": 38.625,
          "velocity": 0.3858267716535433,
          "duration": 0.09296874999999716
        },
        {
          "name": "A#4",
          "midi": 70,
          "time": 38.71875,
          "velocity": 0.3858267716535433,
          "duration": 0.09296874999999716
        },
        {
          "name": "G4",
          "midi": 67,
          "time": 38.8125,
          "velocity": 0.3858267716535433,
          "duration": 0.09296874999999716
        },
        {
          "name": "D#4",
          "midi": 63,
          "time": 38.90625,
          "velocity": 0.3858267716535433,
          "duration": 0.09296874999999716
        },
        {
          "name": "D4",
          "midi": 62,
          "time": 39,
          "velocity": 0.3858267716535433,
          "duration": 0.09296874999999716
        },
        {
          "name": "A#3",
          "midi": 58,
          "time": 39.09375,
          "velocity": 0.3858267716535433,
          "duration": 0.09296874999999716
        },
        {
          "name": "G3",
          "midi": 55,
          "time": 39.1875,
          "velocity": 0.3858267716535433,
          "duration": 0.09296874999999716
        },
        {
          "name": "F3",
          "midi": 53,
          "time": 39.28125,
          "velocity": 0.3858267716535433,
          "duration": 0.09296874999999716
        },
        {
          "name": "G3",
          "midi": 55,
          "time": 39.375,
          "velocity": 0.3858267716535433,
          "duration": 0.09296874999999716
        },
        {
          "name": "B3",
          "midi": 59,
          "time": 39.46875,
          "velocity": 0.3858267716535433,
          "duration": 0.09296874999999716
        },
        {
          "name": "D4",
          "midi": 62,
          "time": 39.5625,
          "velocity": 0.3858267716535433,
          "duration": 0.09296874999999716
        },
        {
          "name": "F4",
          "midi": 65,
          "time": 39.65625,
          "velocity": 0.3858267716535433,
          "duration": 0.09296874999999716
        },
        {
          "name": "G4",
          "midi": 67,
          "time": 39.75,
          "velocity": 0.3858267716535433,
          "duration": 0.09296874999999716
        },
        {
          "name": "B4",
          "midi": 71,
          "time": 39.84375,
          "velocity": 0.3858267716535433,
          "duration": 0.09296874999999716
        },
        {
          "name": "D5",
          "midi": 74,
          "time": 39.9375,
          "velocity": 0.3858267716535433,
          "duration": 0.09296874999999716
        },
        {
          "name": "F5",
          "midi": 77,
          "time": 40.03125,
          "velocity": 0.3858267716535433,
          "duration": 0.09296874999999716
        },
        {
          "name": "G5",
          "midi": 79,
          "time": 40.125,
          "velocity": 0.3858267716535433,
          "duration": 0.09296874999999716
        },
        {
          "name": "B5",
          "midi": 83,
          "time": 40.21875,
          "velocity": 0.3858267716535433,
          "duration": 0.09296874999999716
        },
        {
          "name": "D6",
          "midi": 86,
          "time": 40.3125,
          "velocity": 0.3858267716535433,
          "duration": 0.09296874999999716
        },
        {
          "name": "G6",
          "midi": 91,
          "time": 40.40625,
          "velocity": 0.3858267716535433,
          "duration": 0.09296874999999716
        },
        {
          "name": "D#6",
          "midi": 87,
          "time": 40.5,
          "velocity": 0.3858267716535433,
          "duration": 0.09296874999999716
        },
        {
          "name": "C6",
          "midi": 84,
          "time": 40.59375,
          "velocity": 0.3858267716535433,
          "duration": 0.09296874999999716
        },
        {
          "name": "G5",
          "midi": 79,
          "time": 40.6875,
          "velocity": 0.3858267716535433,
          "duration": 0.09296874999999716
        },
        {
          "name": "C6",
          "midi": 84,
          "time": 40.78125,
          "velocity": 0.3858267716535433,
          "duration": 0.09296874999999716
        },
        {
          "name": "G5",
          "midi": 79,
          "time": 40.875,
          "velocity": 0.3858267716535433,
          "duration": 0.09296874999999716
        },
        {
          "name": "D#5",
          "midi": 75,
          "time": 40.96875,
          "velocity": 0.3858267716535433,
          "duration": 0.09296874999999716
        },
        {
          "name": "G5",
          "midi": 79,
          "time": 41.0625,
          "velocity": 0.3858267716535433,
          "duration": 0.09296874999999716
        },
        {
          "name": "D#5",
          "midi": 75,
          "time": 41.15625,
          "velocity": 0.3858267716535433,
          "duration": 0.09296874999999716
        },
        {
          "name": "C5",
          "midi": 72,
          "time": 41.25,
          "velocity": 0.3858267716535433,
          "duration": 0.09296874999999716
        },
        {
          "name": "D#5",
          "midi": 75,
          "time": 41.34375,
          "velocity": 0.3858267716535433,
          "duration": 0.09296874999999716
        },
        {
          "name": "C5",
          "midi": 72,
          "time": 41.4375,
          "velocity": 0.3858267716535433,
          "duration": 0.09296874999999716
        },
        {
          "name": "G4",
          "midi": 67,
          "time": 41.53125,
          "velocity": 0.3858267716535433,
          "duration": 0.09296874999999716
        },
        {
          "name": "D#4",
          "midi": 63,
          "time": 41.625,
          "velocity": 0.3858267716535433,
          "duration": 0.09296874999999716
        },
        {
          "name": "G4",
          "midi": 67,
          "time": 41.71875,
          "velocity": 0.3858267716535433,
          "duration": 0.09296874999999716
        },
        {
          "name": "C5",
          "midi": 72,
          "time": 41.8125,
          "velocity": 0.3858267716535433,
          "duration": 0.09296874999999716
        },
        {
          "name": "G4",
          "midi": 67,
          "time": 41.90625,
          "velocity": 0.3858267716535433,
          "duration": 0.09296874999999716
        },
        {
          "name": "C5",
          "midi": 72,
          "time": 42,
          "velocity": 0.3858267716535433,
          "duration": 0.09296874999999716
        },
        {
          "name": "D#5",
          "midi": 75,
          "time": 42.09375,
          "velocity": 0.3858267716535433,
          "duration": 0.09296874999999716
        },
        {
          "name": "C5",
          "midi": 72,
          "time": 42.1875,
          "velocity": 0.3858267716535433,
          "duration": 0.09296874999999716
        },
        {
          "name": "D#5",
          "midi": 75,
          "time": 42.28125,
          "velocity": 0.3858267716535433,
          "duration": 0.09296874999999716
        },
        {
          "name": "G5",
          "midi": 79,
          "time": 42.375,
          "velocity": 0.3858267716535433,
          "duration": 0.09296874999999716
        },
        {
          "name": "D#5",
          "midi": 75,
          "time": 42.46875,
          "velocity": 0.3858267716535433,
          "duration": 0.09296874999999716
        },
        {
          "name": "G5",
          "midi": 79,
          "time": 42.5625,
          "velocity": 0.3858267716535433,
          "duration": 0.09296874999999716
        },
        {
          "name": "C6",
          "midi": 84,
          "time": 42.65625,
          "velocity": 0.3858267716535433,
          "duration": 0.09296874999999716
        },
        {
          "name": "D6",
          "midi": 86,
          "time": 42.75,
          "velocity": 0.3858267716535433,
          "duration": 0.09296874999999716
        },
        {
          "name": "A#5",
          "midi": 82,
          "time": 42.84375,
          "velocity": 0.3858267716535433,
          "duration": 0.09296874999999716
        },
        {
          "name": "G5",
          "midi": 79,
          "time": 42.9375,
          "velocity": 0.3858267716535433,
          "duration": 0.09296874999999716
        },
        {
          "name": "D#5",
          "midi": 75,
          "time": 43.03125,
          "velocity": 0.3858267716535433,
          "duration": 0.09296874999999716
        },
        {
          "name": "D5",
          "midi": 74,
          "time": 43.125,
          "velocity": 0.3858267716535433,
          "duration": 0.09296874999999716
        },
        {
          "name": "A#4",
          "midi": 70,
          "time": 43.21875,
          "velocity": 0.3858267716535433,
          "duration": 0.09296874999999716
        },
        {
          "name": "D5",
          "midi": 74,
          "time": 43.3125,
          "velocity": 0.3858267716535433,
          "duration": 0.09296874999999716
        },
        {
          "name": "C5",
          "midi": 72,
          "time": 43.40625,
          "velocity": 0.3858267716535433,
          "duration": 0.09296874999999716
        },
        {
          "name": "A#4",
          "midi": 70,
          "time": 43.5,
          "velocity": 0.3858267716535433,
          "duration": 0.09296874999999716
        },
        {
          "name": "G4",
          "midi": 67,
          "time": 43.59375,
          "velocity": 0.3858267716535433,
          "duration": 0.09296874999999716
        },
        {
          "name": "D4",
          "midi": 62,
          "time": 43.6875,
          "velocity": 0.3858267716535433,
          "duration": 0.09296874999999716
        },
        {
          "name": "A#3",
          "midi": 58,
          "time": 43.78125,
          "velocity": 0.3858267716535433,
          "duration": 0.09296874999999716
        },
        {
          "name": "G3",
          "midi": 55,
          "time": 43.875,
          "velocity": 0.3858267716535433,
          "duration": 0.09296874999999716
        },
        {
          "name": "B3",
          "midi": 59,
          "time": 43.96875,
          "velocity": 0.3858267716535433,
          "duration": 0.09296874999999716
        },
        {
          "name": "D4",
          "midi": 62,
          "time": 44.0625,
          "velocity": 0.3858267716535433,
          "duration": 0.09296874999999716
        },
        {
          "name": "F4",
          "midi": 65,
          "time": 44.15625,
          "velocity": 0.3858267716535433,
          "duration": 0.09296874999999716
        },
        {
          "name": "G4",
          "midi": 67,
          "time": 44.25,
          "velocity": 0.3858267716535433,
          "duration": 0.09296874999999716
        },
        {
          "name": "B4",
          "midi": 71,
          "time": 44.34375,
          "velocity": 0.3858267716535433,
          "duration": 0.09296874999999716
        },
        {
          "name": "D5",
          "midi": 74,
          "time": 44.4375,
          "velocity": 0.3858267716535433,
          "duration": 0.09296874999999716
        },
        {
          "name": "F5",
          "midi": 77,
          "time": 44.53125,
          "velocity": 0.3858267716535433,
          "duration": 0.09296874999999716
        },
        {
          "name": "G5",
          "midi": 79,
          "time": 44.625,
          "velocity": 0.3858267716535433,
          "duration": 0.09296874999999716
        },
        {
          "name": "B5",
          "midi": 83,
          "time": 44.71875,
          "velocity": 0.3858267716535433,
          "duration": 0.09296874999999716
        },
        {
          "name": "D6",
          "midi": 86,
          "time": 44.8125,
          "velocity": 0.3858267716535433,
          "duration": 0.09296874999999716
        },
        {
          "name": "G#6",
          "midi": 92,
          "time": 44.90625,
          "velocity": 0.3858267716535433,
          "duration": 0.09296874999999716
        }
      ],
      "controlChanges": {
        "7": [
          {
            "number": 7,
            "time": 0,
            "value": 0.7874015748031497
          }
        ],
        "10": [
          {
            "number": 10,
            "time": 0,
            "value": 0.5039370078740157
          }
        ],
        "91": [
          {
            "number": 91,
            "time": 0,
            "value": 0
          }
        ],
        "93": [
          {
            "number": 93,
            "time": 0,
            "value": 0
          }
        ],
        "121": [
          {
            "number": 121,
            "time": 0,
            "value": 0
          }
        ]
      },
      "id": 1,
      "name": "Marimba (Single Staff)",
      "instrumentNumber": 12,
      "instrument": "marimba",
      "instrumentFamily": "chromatic percussion",
      "channelNumber": 1,
      "isPercussion": false
    },
    {
      "startTime": 0,
      "duration": 58.31171875,
      "length": 311,
      "notes": [
        {
          "name": "G#3",
          "midi": 56,
          "time": 0,
          "velocity": 0.3858267716535433,
          "duration": 0.18671875
        },
        {
          "name": "D#4",
          "midi": 63,
          "time": 0.1875,
          "velocity": 0.3858267716535433,
          "duration": 0.18671875
        },
        {
          "name": "C4",
          "midi": 60,
          "time": 0.375,
          "velocity": 0.3858267716535433,
          "duration": 0.18671875000000004
        },
        {
          "name": "G4",
          "midi": 67,
          "time": 0.5625,
          "velocity": 0.3858267716535433,
          "duration": 0.18671875000000004
        },
        {
          "name": "C4",
          "midi": 60,
          "time": 0.75,
          "velocity": 0.3858267716535433,
          "duration": 0.18671875000000004
        },
        {
          "name": "D#4",
          "midi": 63,
          "time": 0.9375,
          "velocity": 0.3858267716535433,
          "duration": 0.18671875000000004
        },
        {
          "name": "G#3",
          "midi": 56,
          "time": 1.125,
          "velocity": 0.3858267716535433,
          "duration": 0.18671875000000004
        },
        {
          "name": "D#4",
          "midi": 63,
          "time": 1.3125,
          "velocity": 0.3858267716535433,
          "duration": 0.18671875000000004
        },
        {
          "name": "C4",
          "midi": 60,
          "time": 1.5,
          "velocity": 0.3858267716535433,
          "duration": 0.18671875000000004
        },
        {
          "name": "G4",
          "midi": 67,
          "time": 1.6875,
          "velocity": 0.3858267716535433,
          "duration": 0.18671875000000004
        },
        {
          "name": "C4",
          "midi": 60,
          "time": 1.875,
          "velocity": 0.3858267716535433,
          "duration": 0.18671874999999982
        },
        {
          "name": "D#4",
          "midi": 63,
          "time": 2.0625,
          "velocity": 0.3858267716535433,
          "duration": 0.18671874999999982
        },
        {
          "name": "G3",
          "midi": 55,
          "time": 2.25,
          "velocity": 0.3858267716535433,
          "duration": 0.18671874999999982
        },
        {
          "name": "D4",
          "midi": 62,
          "time": 2.4375,
          "velocity": 0.3858267716535433,
          "duration": 0.18671874999999982
        },
        {
          "name": "C4",
          "midi": 60,
          "time": 2.625,
          "velocity": 0.3858267716535433,
          "duration": 0.18671874999999982
        },
        {
          "name": "G4",
          "midi": 67,
          "time": 2.8125,
          "velocity": 0.3858267716535433,
          "duration": 0.18671874999999982
        },
        {
          "name": "C4",
          "midi": 60,
          "time": 3,
          "velocity": 0.3858267716535433,
          "duration": 0.18671874999999982
        },
        {
          "name": "D4",
          "midi": 62,
          "time": 3.1875,
          "velocity": 0.3858267716535433,
          "duration": 0.18671874999999982
        },
        {
          "name": "G3",
          "midi": 55,
          "time": 3.375,
          "velocity": 0.3858267716535433,
          "duration": 0.18671874999999982
        },
        {
          "name": "D4",
          "midi": 62,
          "time": 3.5625,
          "velocity": 0.3858267716535433,
          "duration": 0.18671874999999982
        },
        {
          "name": "B3",
          "midi": 59,
          "time": 3.75,
          "velocity": 0.3858267716535433,
          "duration": 0.18671874999999982
        },
        {
          "name": "G4",
          "midi": 67,
          "time": 3.9375,
          "velocity": 0.3858267716535433,
          "duration": 0.18671874999999982
        },
        {
          "name": "B3",
          "midi": 59,
          "time": 4.125,
          "velocity": 0.3858267716535433,
          "duration": 0.18671874999999982
        },
        {
          "name": "D4",
          "midi": 62,
          "time": 4.3125,
          "velocity": 0.3858267716535433,
          "duration": 0.18671874999999982
        },
        {
          "name": "F3",
          "midi": 53,
          "time": 4.5,
          "velocity": 0.3858267716535433,
          "duration": 0.18671874999999982
        },
        {
          "name": "C4",
          "midi": 60,
          "time": 4.6875,
          "velocity": 0.3858267716535433,
          "duration": 0.18671874999999982
        },
        {
          "name": "G#3",
          "midi": 56,
          "time": 4.875,
          "velocity": 0.3858267716535433,
          "duration": 0.18671874999999982
        },
        {
          "name": "G4",
          "midi": 67,
          "time": 5.0625,
          "velocity": 0.3858267716535433,
          "duration": 0.18671874999999982
        },
        {
          "name": "G#3",
          "midi": 56,
          "time": 5.25,
          "velocity": 0.3858267716535433,
          "duration": 0.18671874999999982
        },
        {
          "name": "C4",
          "midi": 60,
          "time": 5.4375,
          "velocity": 0.3858267716535433,
          "duration": 0.18671874999999982
        },
        {
          "name": "F3",
          "midi": 53,
          "time": 5.625,
          "velocity": 0.3858267716535433,
          "duration": 0.18671874999999982
        },
        {
          "name": "C4",
          "midi": 60,
          "time": 5.8125,
          "velocity": 0.3858267716535433,
          "duration": 0.18671874999999982
        },
        {
          "name": "G#3",
          "midi": 56,
          "time": 6,
          "velocity": 0.3858267716535433,
          "duration": 0.18671874999999982
        },
        {
          "name": "G4",
          "midi": 67,
          "time": 6.1875,
          "velocity": 0.3858267716535433,
          "duration": 0.18671874999999982
        },
        {
          "name": "G#3",
          "midi": 56,
          "time": 6.375,
          "velocity": 0.3858267716535433,
          "duration": 0.18671874999999982
        },
        {
          "name": "D3",
          "midi": 50,
          "time": 6.5625,
          "velocity": 0.3858267716535433,
          "duration": 0.18671874999999982
        },
        {
          "name": "D#3",
          "midi": 51,
          "time": 6.75,
          "velocity": 0.3858267716535433,
          "duration": 0.18671874999999982
        },
        {
          "name": "D4",
          "midi": 62,
          "time": 6.9375,
          "velocity": 0.3858267716535433,
          "duration": 0.18671874999999982
        },
        {
          "name": "A#3",
          "midi": 58,
          "time": 7.125,
          "velocity": 0.3858267716535433,
          "duration": 0.18671874999999982
        },
        {
          "name": "G4",
          "midi": 67,
          "time": 7.3125,
          "velocity": 0.3858267716535433,
          "duration": 0.18671874999999982
        },
        {
          "name": "A#3",
          "midi": 58,
          "time": 7.5,
          "velocity": 0.3858267716535433,
          "duration": 0.18671874999999982
        },
        {
          "name": "D4",
          "midi": 62,
          "time": 7.6875,
          "velocity": 0.3858267716535433,
          "duration": 0.18671874999999982
        },
        {
          "name": "D#3",
          "midi": 51,
          "time": 7.875,
          "velocity": 0.3858267716535433,
          "duration": 0.1867187500000007
        },
        {
          "name": "D4",
          "midi": 62,
          "time": 8.0625,
          "velocity": 0.3858267716535433,
          "duration": 0.1867187500000007
        },
        {
          "name": "A#3",
          "midi": 58,
          "time": 8.25,
          "velocity": 0.3858267716535433,
          "duration": 0.1867187500000007
        },
        {
          "name": "G4",
          "midi": 67,
          "time": 8.4375,
          "velocity": 0.3858267716535433,
          "duration": 0.1867187500000007
        },
        {
          "name": "A#3",
          "midi": 58,
          "time": 8.625,
          "velocity": 0.3858267716535433,
          "duration": 0.1867187500000007
        },
        {
          "name": "D4",
          "midi": 62,
          "time": 8.8125,
          "velocity": 0.3858267716535433,
          "duration": 0.1867187500000007
        },
        {
          "name": "G#3",
          "midi": 56,
          "time": 9,
          "velocity": 0.3858267716535433,
          "duration": 0.1867187500000007
        },
        {
          "name": "D#4",
          "midi": 63,
          "time": 9.1875,
          "velocity": 0.3858267716535433,
          "duration": 0.1867187500000007
        },
        {
          "name": "C4",
          "midi": 60,
          "time": 9.375,
          "velocity": 0.3858267716535433,
          "duration": 0.1867187500000007
        },
        {
          "name": "G4",
          "midi": 67,
          "time": 9.5625,
          "velocity": 0.3858267716535433,
          "duration": 0.1867187500000007
        },
        {
          "name": "C4",
          "midi": 60,
          "time": 9.75,
          "velocity": 0.3858267716535433,
          "duration": 0.1867187500000007
        },
        {
          "name": "D#4",
          "midi": 63,
          "time": 9.9375,
          "velocity": 0.3858267716535433,
          "duration": 0.1867187500000007
        },
        {
          "name": "G#3",
          "midi": 56,
          "time": 10.125,
          "velocity": 0.3858267716535433,
          "duration": 0.1867187500000007
        },
        {
          "name": "D#4",
          "midi": 63,
          "time": 10.3125,
          "velocity": 0.3858267716535433,
          "duration": 0.1867187500000007
        },
        {
          "name": "C4",
          "midi": 60,
          "time": 10.5,
          "velocity": 0.3858267716535433,
          "duration": 0.1867187500000007
        },
        {
          "name": "G4",
          "midi": 67,
          "time": 10.6875,
          "velocity": 0.3858267716535433,
          "duration": 0.1867187500000007
        },
        {
          "name": "C4",
          "midi": 60,
          "time": 10.875,
          "velocity": 0.3858267716535433,
          "duration": 0.1867187500000007
        },
        {
          "name": "D#4",
          "midi": 63,
          "time": 11.0625,
          "velocity": 0.3858267716535433,
          "duration": 0.1867187500000007
        },
        {
          "name": "G3",
          "midi": 55,
          "time": 11.25,
          "velocity": 0.3858267716535433,
          "duration": 0.1867187500000007
        },
        {
          "name": "D4",
          "midi": 62,
          "time": 11.4375,
          "velocity": 0.3858267716535433,
          "duration": 0.1867187500000007
        },
        {
          "name": "C4",
          "midi": 60,
          "time": 11.625,
          "velocity": 0.3858267716535433,
          "duration": 0.1867187500000007
        },
        {
          "name": "G4",
          "midi": 67,
          "time": 11.8125,
          "velocity": 0.3858267716535433,
          "duration": 0.1867187500000007
        },
        {
          "name": "C4",
          "midi": 60,
          "time": 12,
          "velocity": 0.3858267716535433,
          "duration": 0.1867187500000007
        },
        {
          "name": "D4",
          "midi": 62,
          "time": 12.1875,
          "velocity": 0.3858267716535433,
          "duration": 0.1867187500000007
        },
        {
          "name": "G3",
          "midi": 55,
          "time": 12.375,
          "velocity": 0.3858267716535433,
          "duration": 0.1867187500000007
        },
        {
          "name": "D4",
          "midi": 62,
          "time": 12.5625,
          "velocity": 0.3858267716535433,
          "duration": 0.1867187500000007
        },
        {
          "name": "B3",
          "midi": 59,
          "time": 12.75,
          "velocity": 0.3858267716535433,
          "duration": 0.1867187500000007
        },
        {
          "name": "G4",
          "midi": 67,
          "time": 12.9375,
          "velocity": 0.3858267716535433,
          "duration": 0.1867187500000007
        },
        {
          "name": "B3",
          "midi": 59,
          "time": 13.125,
          "velocity": 0.3858267716535433,
          "duration": 0.1867187500000007
        },
        {
          "name": "D4",
          "midi": 62,
          "time": 13.3125,
          "velocity": 0.3858267716535433,
          "duration": 0.1867187500000007
        },
        {
          "name": "F3",
          "midi": 53,
          "time": 13.5,
          "velocity": 0.3858267716535433,
          "duration": 0.1867187500000007
        },
        {
          "name": "C4",
          "midi": 60,
          "time": 13.6875,
          "velocity": 0.3858267716535433,
          "duration": 0.1867187500000007
        },
        {
          "name": "G#3",
          "midi": 56,
          "time": 13.875,
          "velocity": 0.3858267716535433,
          "duration": 0.1867187500000007
        },
        {
          "name": "G4",
          "midi": 67,
          "time": 14.0625,
          "velocity": 0.3858267716535433,
          "duration": 0.1867187500000007
        },
        {
          "name": "G#3",
          "midi": 56,
          "time": 14.25,
          "velocity": 0.3858267716535433,
          "duration": 0.1867187500000007
        },
        {
          "name": "C4",
          "midi": 60,
          "time": 14.4375,
          "velocity": 0.3858267716535433,
          "duration": 0.1867187500000007
        },
        {
          "name": "F3",
          "midi": 53,
          "time": 14.625,
          "velocity": 0.3858267716535433,
          "duration": 0.1867187500000007
        },
        {
          "name": "C4",
          "midi": 60,
          "time": 14.8125,
          "velocity": 0.3858267716535433,
          "duration": 0.1867187500000007
        },
        {
          "name": "G#3",
          "midi": 56,
          "time": 15,
          "velocity": 0.3858267716535433,
          "duration": 0.1867187500000007
        },
        {
          "name": "G4",
          "midi": 67,
          "time": 15.1875,
          "velocity": 0.3858267716535433,
          "duration": 0.1867187500000007
        },
        {
          "name": "G#3",
          "midi": 56,
          "time": 15.375,
          "velocity": 0.3858267716535433,
          "duration": 0.1867187500000007
        },
        {
          "name": "D3",
          "midi": 50,
          "time": 15.5625,
          "velocity": 0.3858267716535433,
          "duration": 0.1867187500000007
        },
        {
          "name": "D#3",
          "midi": 51,
          "time": 15.75,
          "velocity": 0.3858267716535433,
          "duration": 0.1867187500000007
        },
        {
          "name": "D4",
          "midi": 62,
          "time": 15.9375,
          "velocity": 0.3858267716535433,
          "duration": 0.1867187500000007
        },
        {
          "name": "A#3",
          "midi": 58,
          "time": 16.125,
          "velocity": 0.3858267716535433,
          "duration": 0.1867187500000007
        },
        {
          "name": "G4",
          "midi": 67,
          "time": 16.3125,
          "velocity": 0.3858267716535433,
          "duration": 0.1867187500000007
        },
        {
          "name": "A#3",
          "midi": 58,
          "time": 16.5,
          "velocity": 0.3858267716535433,
          "duration": 0.1867187500000007
        },
        {
          "name": "D4",
          "midi": 62,
          "time": 16.6875,
          "velocity": 0.3858267716535433,
          "duration": 0.1867187500000007
        },
        {
          "name": "D#3",
          "midi": 51,
          "time": 16.875,
          "velocity": 0.3858267716535433,
          "duration": 0.1867187500000007
        },
        {
          "name": "D4",
          "midi": 62,
          "time": 17.0625,
          "velocity": 0.3858267716535433,
          "duration": 0.1867187500000007
        },
        {
          "name": "A#3",
          "midi": 58,
          "time": 17.25,
          "velocity": 0.3858267716535433,
          "duration": 0.1867187500000007
        },
        {
          "name": "G4",
          "midi": 67,
          "time": 17.4375,
          "velocity": 0.3858267716535433,
          "duration": 0.1867187500000007
        },
        {
          "name": "A#3",
          "midi": 58,
          "time": 17.625,
          "velocity": 0.3858267716535433,
          "duration": 0.1867187500000007
        },
        {
          "name": "D4",
          "midi": 62,
          "time": 17.8125,
          "velocity": 0.3858267716535433,
          "duration": 0.1867187500000007
        },
        {
          "name": "G#3",
          "midi": 56,
          "time": 18,
          "velocity": 0.3858267716535433,
          "duration": 0.1867187500000007
        },
        {
          "name": "D#4",
          "midi": 63,
          "time": 18.1875,
          "velocity": 0.3858267716535433,
          "duration": 0.1867187500000007
        },
        {
          "name": "C4",
          "midi": 60,
          "time": 18.375,
          "velocity": 0.3858267716535433,
          "duration": 0.1867187500000007
        },
        {
          "name": "G4",
          "midi": 67,
          "time": 18.5625,
          "velocity": 0.3858267716535433,
          "duration": 0.1867187500000007
        },
        {
          "name": "C4",
          "midi": 60,
          "time": 18.75,
          "velocity": 0.3858267716535433,
          "duration": 0.1867187500000007
        },
        {
          "name": "D#4",
          "midi": 63,
          "time": 18.9375,
          "velocity": 0.3858267716535433,
          "duration": 0.1867187500000007
        },
        {
          "name": "G#3",
          "midi": 56,
          "time": 19.125,
          "velocity": 0.3858267716535433,
          "duration": 0.1867187500000007
        },
        {
          "name": "D#4",
          "midi": 63,
          "time": 19.3125,
          "velocity": 0.3858267716535433,
          "duration": 0.1867187500000007
        },
        {
          "name": "C4",
          "midi": 60,
          "time": 19.5,
          "velocity": 0.3858267716535433,
          "duration": 0.1867187500000007
        },
        {
          "name": "G4",
          "midi": 67,
          "time": 19.6875,
          "velocity": 0.3858267716535433,
          "duration": 0.1867187500000007
        },
        {
          "name": "C4",
          "midi": 60,
          "time": 19.875,
          "velocity": 0.3858267716535433,
          "duration": 0.1867187500000007
        },
        {
          "name": "D#4",
          "midi": 63,
          "time": 20.0625,
          "velocity": 0.3858267716535433,
          "duration": 0.1867187500000007
        },
        {
          "name": "G3",
          "midi": 55,
          "time": 20.25,
          "velocity": 0.3858267716535433,
          "duration": 0.1867187500000007
        },
        {
          "name": "D4",
          "midi": 62,
          "time": 20.4375,
          "velocity": 0.3858267716535433,
          "duration": 0.1867187500000007
        },
        {
          "name": "C4",
          "midi": 60,
          "time": 20.625,
          "velocity": 0.3858267716535433,
          "duration": 0.1867187500000007
        },
        {
          "name": "G4",
          "midi": 67,
          "time": 20.8125,
          "velocity": 0.3858267716535433,
          "duration": 0.1867187500000007
        },
        {
          "name": "C4",
          "midi": 60,
          "time": 21,
          "velocity": 0.3858267716535433,
          "duration": 0.1867187500000007
        },
        {
          "name": "D4",
          "midi": 62,
          "time": 21.1875,
          "velocity": 0.3858267716535433,
          "duration": 0.1867187500000007
        },
        {
          "name": "G3",
          "midi": 55,
          "time": 21.375,
          "velocity": 0.3858267716535433,
          "duration": 0.1867187500000007
        },
        {
          "name": "D4",
          "midi": 62,
          "time": 21.5625,
          "velocity": 0.3858267716535433,
          "duration": 0.1867187500000007
        },
        {
          "name": "B3",
          "midi": 59,
          "time": 21.75,
          "velocity": 0.3858267716535433,
          "duration": 0.1867187500000007
        },
        {
          "name": "G4",
          "midi": 67,
          "time": 21.9375,
          "velocity": 0.3858267716535433,
          "duration": 0.1867187500000007
        },
        {
          "name": "B3",
          "midi": 59,
          "time": 22.125,
          "velocity": 0.3858267716535433,
          "duration": 0.1867187500000007
        },
        {
          "name": "D4",
          "midi": 62,
          "time": 22.3125,
          "velocity": 0.3858267716535433,
          "duration": 0.1867187500000007
        },
        {
          "name": "F3",
          "midi": 53,
          "time": 22.5,
          "velocity": 0.3858267716535433,
          "duration": 0.1867187500000007
        },
        {
          "name": "C4",
          "midi": 60,
          "time": 22.6875,
          "velocity": 0.3858267716535433,
          "duration": 0.1867187500000007
        },
        {
          "name": "G#3",
          "midi": 56,
          "time": 22.875,
          "velocity": 0.3858267716535433,
          "duration": 0.1867187500000007
        },
        {
          "name": "G4",
          "midi": 67,
          "time": 23.0625,
          "velocity": 0.3858267716535433,
          "duration": 0.1867187500000007
        },
        {
          "name": "G#3",
          "midi": 56,
          "time": 23.25,
          "velocity": 0.3858267716535433,
          "duration": 0.1867187500000007
        },
        {
          "name": "C4",
          "midi": 60,
          "time": 23.4375,
          "velocity": 0.3858267716535433,
          "duration": 0.1867187500000007
        },
        {
          "name": "F3",
          "midi": 53,
          "time": 23.625,
          "velocity": 0.3858267716535433,
          "duration": 0.1867187500000007
        },
        {
          "name": "C4",
          "midi": 60,
          "time": 23.8125,
          "velocity": 0.3858267716535433,
          "duration": 0.1867187500000007
        },
        {
          "name": "G#3",
          "midi": 56,
          "time": 24,
          "velocity": 0.3858267716535433,
          "duration": 0.1867187500000007
        },
        {
          "name": "G4",
          "midi": 67,
          "time": 24.1875,
          "velocity": 0.3858267716535433,
          "duration": 0.1867187500000007
        },
        {
          "name": "G#3",
          "midi": 56,
          "time": 24.375,
          "velocity": 0.3858267716535433,
          "duration": 0.1867187500000007
        },
        {
          "name": "D3",
          "midi": 50,
          "time": 24.5625,
          "velocity": 0.3858267716535433,
          "duration": 0.1867187500000007
        },
        {
          "name": "D#3",
          "midi": 51,
          "time": 24.75,
          "velocity": 0.3858267716535433,
          "duration": 0.1867187500000007
        },
        {
          "name": "D4",
          "midi": 62,
          "time": 24.9375,
          "velocity": 0.3858267716535433,
          "duration": 0.1867187500000007
        },
        {
          "name": "A#3",
          "midi": 58,
          "time": 25.125,
          "velocity": 0.3858267716535433,
          "duration": 0.1867187500000007
        },
        {
          "name": "G4",
          "midi": 67,
          "time": 25.3125,
          "velocity": 0.3858267716535433,
          "duration": 0.1867187500000007
        },
        {
          "name": "A#3",
          "midi": 58,
          "time": 25.5,
          "velocity": 0.3858267716535433,
          "duration": 0.1867187500000007
        },
        {
          "name": "D4",
          "midi": 62,
          "time": 25.6875,
          "velocity": 0.3858267716535433,
          "duration": 0.1867187500000007
        },
        {
          "name": "D#3",
          "midi": 51,
          "time": 25.875,
          "velocity": 0.3858267716535433,
          "duration": 0.1867187500000007
        },
        {
          "name": "D4",
          "midi": 62,
          "time": 26.0625,
          "velocity": 0.3858267716535433,
          "duration": 0.1867187500000007
        },
        {
          "name": "A#3",
          "midi": 58,
          "time": 26.25,
          "velocity": 0.3858267716535433,
          "duration": 0.1867187500000007
        },
        {
          "name": "G4",
          "midi": 67,
          "time": 26.4375,
          "velocity": 0.3858267716535433,
          "duration": 0.1867187500000007
        },
        {
          "name": "A#3",
          "midi": 58,
          "time": 26.625,
          "velocity": 0.3858267716535433,
          "duration": 0.1867187500000007
        },
        {
          "name": "D4",
          "midi": 62,
          "time": 26.8125,
          "velocity": 0.3858267716535433,
          "duration": 0.1867187500000007
        },
        {
          "name": "G#3",
          "midi": 56,
          "time": 27,
          "velocity": 0.3858267716535433,
          "duration": 0.1867187500000007
        },
        {
          "name": "D#4",
          "midi": 63,
          "time": 27.1875,
          "velocity": 0.3858267716535433,
          "duration": 0.1867187500000007
        },
        {
          "name": "C4",
          "midi": 60,
          "time": 27.375,
          "velocity": 0.3858267716535433,
          "duration": 0.1867187500000007
        },
        {
          "name": "G4",
          "midi": 67,
          "time": 27.5625,
          "velocity": 0.3858267716535433,
          "duration": 0.1867187500000007
        },
        {
          "name": "C4",
          "midi": 60,
          "time": 27.75,
          "velocity": 0.3858267716535433,
          "duration": 0.1867187500000007
        },
        {
          "name": "D#4",
          "midi": 63,
          "time": 27.9375,
          "velocity": 0.3858267716535433,
          "duration": 0.1867187500000007
        },
        {
          "name": "G#3",
          "midi": 56,
          "time": 28.125,
          "velocity": 0.3858267716535433,
          "duration": 0.1867187500000007
        },
        {
          "name": "D#4",
          "midi": 63,
          "time": 28.3125,
          "velocity": 0.3858267716535433,
          "duration": 0.1867187500000007
        },
        {
          "name": "C4",
          "midi": 60,
          "time": 28.5,
          "velocity": 0.3858267716535433,
          "duration": 0.1867187500000007
        },
        {
          "name": "G4",
          "midi": 67,
          "time": 28.6875,
          "velocity": 0.3858267716535433,
          "duration": 0.1867187500000007
        },
        {
          "name": "C4",
          "midi": 60,
          "time": 28.875,
          "velocity": 0.3858267716535433,
          "duration": 0.1867187500000007
        },
        {
          "name": "D#4",
          "midi": 63,
          "time": 29.0625,
          "velocity": 0.3858267716535433,
          "duration": 0.1867187500000007
        },
        {
          "name": "G3",
          "midi": 55,
          "time": 29.25,
          "velocity": 0.3858267716535433,
          "duration": 0.1867187500000007
        },
        {
          "name": "D4",
          "midi": 62,
          "time": 29.4375,
          "velocity": 0.3858267716535433,
          "duration": 0.1867187500000007
        },
        {
          "name": "C4",
          "midi": 60,
          "time": 29.625,
          "velocity": 0.3858267716535433,
          "duration": 0.1867187500000007
        },
        {
          "name": "G4",
          "midi": 67,
          "time": 29.8125,
          "velocity": 0.3858267716535433,
          "duration": 0.1867187500000007
        },
        {
          "name": "C4",
          "midi": 60,
          "time": 30,
          "velocity": 0.3858267716535433,
          "duration": 0.1867187500000007
        },
        {
          "name": "D4",
          "midi": 62,
          "time": 30.1875,
          "velocity": 0.3858267716535433,
          "duration": 0.1867187500000007
        },
        {
          "name": "G3",
          "midi": 55,
          "time": 30.375,
          "velocity": 0.3858267716535433,
          "duration": 0.1867187500000007
        },
        {
          "name": "D4",
          "midi": 62,
          "time": 30.5625,
          "velocity": 0.3858267716535433,
          "duration": 0.1867187500000007
        },
        {
          "name": "B3",
          "midi": 59,
          "time": 30.75,
          "velocity": 0.3858267716535433,
          "duration": 0.1867187500000007
        },
        {
          "name": "G4",
          "midi": 67,
          "time": 30.9375,
          "velocity": 0.3858267716535433,
          "duration": 0.1867187500000007
        },
        {
          "name": "B3",
          "midi": 59,
          "time": 31.125,
          "velocity": 0.3858267716535433,
          "duration": 0.1867187500000007
        },
        {
          "name": "D4",
          "midi": 62,
          "time": 31.3125,
          "velocity": 0.3858267716535433,
          "duration": 0.1867187500000007
        },
        {
          "name": "F3",
          "midi": 53,
          "time": 31.5,
          "velocity": 0.3858267716535433,
          "duration": 0.1867187500000007
        },
        {
          "name": "C4",
          "midi": 60,
          "time": 31.6875,
          "velocity": 0.3858267716535433,
          "duration": 0.1867187500000007
        },
        {
          "name": "G#3",
          "midi": 56,
          "time": 31.875,
          "velocity": 0.3858267716535433,
          "duration": 0.18671874999999716
        },
        {
          "name": "G4",
          "midi": 67,
          "time": 32.0625,
          "velocity": 0.3858267716535433,
          "duration": 0.18671874999999716
        },
        {
          "name": "G#3",
          "midi": 56,
          "time": 32.25,
          "velocity": 0.3858267716535433,
          "duration": 0.18671874999999716
        },
        {
          "name": "C4",
          "midi": 60,
          "time": 32.4375,
          "velocity": 0.3858267716535433,
          "duration": 0.18671874999999716
        },
        {
          "name": "F3",
          "midi": 53,
          "time": 32.625,
          "velocity": 0.3858267716535433,
          "duration": 0.18671874999999716
        },
        {
          "name": "C4",
          "midi": 60,
          "time": 32.8125,
          "velocity": 0.3858267716535433,
          "duration": 0.18671874999999716
        },
        {
          "name": "G#3",
          "midi": 56,
          "time": 33,
          "velocity": 0.3858267716535433,
          "duration": 0.18671874999999716
        },
        {
          "name": "G4",
          "midi": 67,
          "time": 33.1875,
          "velocity": 0.3858267716535433,
          "duration": 0.18671874999999716
        },
        {
          "name": "G#3",
          "midi": 56,
          "time": 33.375,
          "velocity": 0.3858267716535433,
          "duration": 0.18671874999999716
        },
        {
          "name": "D3",
          "midi": 50,
          "time": 33.5625,
          "velocity": 0.3858267716535433,
          "duration": 0.18671874999999716
        },
        {
          "name": "D#3",
          "midi": 51,
          "time": 33.75,
          "velocity": 0.3858267716535433,
          "duration": 0.18671874999999716
        },
        {
          "name": "D4",
          "midi": 62,
          "time": 33.9375,
          "velocity": 0.3858267716535433,
          "duration": 0.18671874999999716
        },
        {
          "name": "A#3",
          "midi": 58,
          "time": 34.125,
          "velocity": 0.3858267716535433,
          "duration": 0.18671874999999716
        },
        {
          "name": "G4",
          "midi": 67,
          "time": 34.3125,
          "velocity": 0.3858267716535433,
          "duration": 0.18671874999999716
        },
        {
          "name": "A#3",
          "midi": 58,
          "time": 34.5,
          "velocity": 0.3858267716535433,
          "duration": 0.18671874999999716
        },
        {
          "name": "D4",
          "midi": 62,
          "time": 34.6875,
          "velocity": 0.3858267716535433,
          "duration": 0.18671874999999716
        },
        {
          "name": "D#3",
          "midi": 51,
          "time": 34.875,
          "velocity": 0.3858267716535433,
          "duration": 0.18671874999999716
        },
        {
          "name": "D4",
          "midi": 62,
          "time": 35.0625,
          "velocity": 0.3858267716535433,
          "duration": 0.18671874999999716
        },
        {
          "name": "A#3",
          "midi": 58,
          "time": 35.25,
          "velocity": 0.3858267716535433,
          "duration": 0.18671874999999716
        },
        {
          "name": "G4",
          "midi": 67,
          "time": 35.4375,
          "velocity": 0.3858267716535433,
          "duration": 0.18671874999999716
        },
        {
          "name": "A#3",
          "midi": 58,
          "time": 35.625,
          "velocity": 0.3858267716535433,
          "duration": 0.18671874999999716
        },
        {
          "name": "D4",
          "midi": 62,
          "time": 35.8125,
          "velocity": 0.3858267716535433,
          "duration": 0.18671874999999716
        },
        {
          "name": "G#3",
          "midi": 56,
          "time": 36,
          "velocity": 0.3858267716535433,
          "duration": 0.18671874999999716
        },
        {
          "name": "D#4",
          "midi": 63,
          "time": 36.1875,
          "velocity": 0.3858267716535433,
          "duration": 0.18671874999999716
        },
        {
          "name": "C4",
          "midi": 60,
          "time": 36.375,
          "velocity": 0.3858267716535433,
          "duration": 0.18671874999999716
        },
        {
          "name": "G4",
          "midi": 67,
          "time": 36.5625,
          "velocity": 0.3858267716535433,
          "duration": 0.18671874999999716
        },
        {
          "name": "C4",
          "midi": 60,
          "time": 36.75,
          "velocity": 0.3858267716535433,
          "duration": 0.18671874999999716
        },
        {
          "name": "D#4",
          "midi": 63,
          "time": 36.9375,
          "velocity": 0.3858267716535433,
          "duration": 0.18671874999999716
        },
        {
          "name": "G#3",
          "midi": 56,
          "time": 37.125,
          "velocity": 0.3858267716535433,
          "duration": 0.18671874999999716
        },
        {
          "name": "D#4",
          "midi": 63,
          "time": 37.3125,
          "velocity": 0.3858267716535433,
          "duration": 0.18671874999999716
        },
        {
          "name": "C4",
          "midi": 60,
          "time": 37.5,
          "velocity": 0.3858267716535433,
          "duration": 0.18671874999999716
        },
        {
          "name": "G4",
          "midi": 67,
          "time": 37.6875,
          "velocity": 0.3858267716535433,
          "duration": 0.18671874999999716
        },
        {
          "name": "C4",
          "midi": 60,
          "time": 37.875,
          "velocity": 0.3858267716535433,
          "duration": 0.18671874999999716
        },
        {
          "name": "D#4",
          "midi": 63,
          "time": 38.0625,
          "velocity": 0.3858267716535433,
          "duration": 0.18671874999999716
        },
        {
          "name": "G3",
          "midi": 55,
          "time": 38.25,
          "velocity": 0.3858267716535433,
          "duration": 0.18671874999999716
        },
        {
          "name": "D4",
          "midi": 62,
          "time": 38.4375,
          "velocity": 0.3858267716535433,
          "duration": 0.18671874999999716
        },
        {
          "name": "C4",
          "midi": 60,
          "time": 38.625,
          "velocity": 0.3858267716535433,
          "duration": 0.18671874999999716
        },
        {
          "name": "G4",
          "midi": 67,
          "time": 38.8125,
          "velocity": 0.3858267716535433,
          "duration": 0.18671874999999716
        },
        {
          "name": "C4",
          "midi": 60,
          "time": 39,
          "velocity": 0.3858267716535433,
          "duration": 0.18671874999999716
        },
        {
          "name": "D4",
          "midi": 62,
          "time": 39.1875,
          "velocity": 0.3858267716535433,
          "duration": 0.18671874999999716
        },
        {
          "name": "G3",
          "midi": 55,
          "time": 39.375,
          "velocity": 0.3858267716535433,
          "duration": 0.18671874999999716
        },
        {
          "name": "D4",
          "midi": 62,
          "time": 39.5625,
          "velocity": 0.3858267716535433,
          "duration": 0.18671874999999716
        },
        {
          "name": "B3",
          "midi": 59,
          "time": 39.75,
          "velocity": 0.3858267716535433,
          "duration": 0.18671874999999716
        },
        {
          "name": "G4",
          "midi": 67,
          "time": 39.9375,
          "velocity": 0.3858267716535433,
          "duration": 0.18671874999999716
        },
        {
          "name": "B3",
          "midi": 59,
          "time": 40.125,
          "velocity": 0.3858267716535433,
          "duration": 0.18671874999999716
        },
        {
          "name": "D4",
          "midi": 62,
          "time": 40.3125,
          "velocity": 0.3858267716535433,
          "duration": 0.18671874999999716
        },
        {
          "name": "G#3",
          "midi": 56,
          "time": 40.5,
          "velocity": 0.3858267716535433,
          "duration": 0.18671874999999716
        },
        {
          "name": "D#4",
          "midi": 63,
          "time": 40.6875,
          "velocity": 0.3858267716535433,
          "duration": 0.18671874999999716
        },
        {
          "name": "C4",
          "midi": 60,
          "time": 40.875,
          "velocity": 0.3858267716535433,
          "duration": 0.18671874999999716
        },
        {
          "name": "G4",
          "midi": 67,
          "time": 41.0625,
          "velocity": 0.3858267716535433,
          "duration": 0.18671874999999716
        },
        {
          "name": "C4",
          "midi": 60,
          "time": 41.25,
          "velocity": 0.3858267716535433,
          "duration": 0.18671874999999716
        },
        {
          "name": "D#4",
          "midi": 63,
          "time": 41.4375,
          "velocity": 0.3858267716535433,
          "duration": 0.18671874999999716
        },
        {
          "name": "G#3",
          "midi": 56,
          "time": 41.625,
          "velocity": 0.3858267716535433,
          "duration": 0.18671874999999716
        },
        {
          "name": "D#4",
          "midi": 63,
          "time": 41.8125,
          "velocity": 0.3858267716535433,
          "duration": 0.18671874999999716
        },
        {
          "name": "C4",
          "midi": 60,
          "time": 42,
          "velocity": 0.3858267716535433,
          "duration": 0.18671874999999716
        },
        {
          "name": "G4",
          "midi": 67,
          "time": 42.1875,
          "velocity": 0.3858267716535433,
          "duration": 0.18671874999999716
        },
        {
          "name": "C4",
          "midi": 60,
          "time": 42.375,
          "velocity": 0.3858267716535433,
          "duration": 0.18671874999999716
        },
        {
          "name": "D#4",
          "midi": 63,
          "time": 42.5625,
          "velocity": 0.3858267716535433,
          "duration": 0.18671874999999716
        },
        {
          "name": "G3",
          "midi": 55,
          "time": 42.75,
          "velocity": 0.3858267716535433,
          "duration": 0.18671874999999716
        },
        {
          "name": "D4",
          "midi": 62,
          "time": 42.9375,
          "velocity": 0.3858267716535433,
          "duration": 0.18671874999999716
        },
        {
          "name": "C4",
          "midi": 60,
          "time": 43.125,
          "velocity": 0.3858267716535433,
          "duration": 0.18671874999999716
        },
        {
          "name": "G4",
          "midi": 67,
          "time": 43.3125,
          "velocity": 0.3858267716535433,
          "duration": 0.18671874999999716
        },
        {
          "name": "C4",
          "midi": 60,
          "time": 43.5,
          "velocity": 0.3858267716535433,
          "duration": 0.18671874999999716
        },
        {
          "name": "D4",
          "midi": 62,
          "time": 43.6875,
          "velocity": 0.3858267716535433,
          "duration": 0.18671874999999716
        },
        {
          "name": "G3",
          "midi": 55,
          "time": 43.875,
          "velocity": 0.3858267716535433,
          "duration": 0.18671874999999716
        },
        {
          "name": "D4",
          "midi": 62,
          "time": 44.0625,
          "velocity": 0.3858267716535433,
          "duration": 0.18671874999999716
        },
        {
          "name": "B3",
          "midi": 59,
          "time": 44.25,
          "velocity": 0.3858267716535433,
          "duration": 0.18671874999999716
        },
        {
          "name": "G4",
          "midi": 67,
          "time": 44.4375,
          "velocity": 0.3858267716535433,
          "duration": 0.18671874999999716
        },
        {
          "name": "B3",
          "midi": 59,
          "time": 44.625,
          "velocity": 0.3858267716535433,
          "duration": 0.18671874999999716
        },
        {
          "name": "D4",
          "midi": 62,
          "time": 44.8125,
          "velocity": 0.3858267716535433,
          "duration": 0.18671874999999716
        },
        {
          "name": "F3",
          "midi": 53,
          "time": 45,
          "velocity": 0.3858267716535433,
          "duration": 0.18671874999999716
        },
        {
          "name": "C4",
          "midi": 60,
          "time": 45.1875,
          "velocity": 0.3858267716535433,
          "duration": 0.18671874999999716
        },
        {
          "name": "G#3",
          "midi": 56,
          "time": 45.375,
          "velocity": 0.3858267716535433,
          "duration": 0.18671874999999716
        },
        {
          "name": "G4",
          "midi": 67,
          "time": 45.5625,
          "velocity": 0.3858267716535433,
          "duration": 0.18671874999999716
        },
        {
          "name": "G#3",
          "midi": 56,
          "time": 45.75,
          "velocity": 0.3858267716535433,
          "duration": 0.18671874999999716
        },
        {
          "name": "D4",
          "midi": 62,
          "time": 45.9375,
          "velocity": 0.3858267716535433,
          "duration": 0.18671874999999716
        },
        {
          "name": "F3",
          "midi": 53,
          "time": 46.125,
          "velocity": 0.3858267716535433,
          "duration": 0.18671874999999716
        },
        {
          "name": "C4",
          "midi": 60,
          "time": 46.3125,
          "velocity": 0.3858267716535433,
          "duration": 0.18671874999999716
        },
        {
          "name": "G#3",
          "midi": 56,
          "time": 46.5,
          "velocity": 0.3858267716535433,
          "duration": 0.18671874999999716
        },
        {
          "name": "G4",
          "midi": 67,
          "time": 46.6875,
          "velocity": 0.3858267716535433,
          "duration": 0.18671874999999716
        },
        {
          "name": "G#3",
          "midi": 56,
          "time": 46.875,
          "velocity": 0.3858267716535433,
          "duration": 0.18671874999999716
        },
        {
          "name": "D3",
          "midi": 50,
          "time": 47.0625,
          "velocity": 0.3858267716535433,
          "duration": 0.18671874999999716
        },
        {
          "name": "D#3",
          "midi": 51,
          "time": 47.25,
          "velocity": 0.3858267716535433,
          "duration": 0.18671874999999716
        },
        {
          "name": "D4",
          "midi": 62,
          "time": 47.4375,
          "velocity": 0.3858267716535433,
          "duration": 0.18671874999999716
        },
        {
          "name": "A#3",
          "midi": 58,
          "time": 47.625,
          "velocity": 0.3858267716535433,
          "duration": 0.18671874999999716
        },
        {
          "name": "G4",
          "midi": 67,
          "time": 47.8125,
          "velocity": 0.3858267716535433,
          "duration": 0.18671874999999716
        },
        {
          "name": "A#3",
          "midi": 58,
          "time": 48,
          "velocity": 0.3858267716535433,
          "duration": 0.18671874999999716
        },
        {
          "name": "D4",
          "midi": 62,
          "time": 48.1875,
          "velocity": 0.3858267716535433,
          "duration": 0.18671874999999716
        },
        {
          "name": "D#3",
          "midi": 51,
          "time": 48.375,
          "velocity": 0.3858267716535433,
          "duration": 0.18671874999999716
        },
        {
          "name": "D4",
          "midi": 62,
          "time": 48.5625,
          "velocity": 0.3858267716535433,
          "duration": 0.18671874999999716
        },
        {
          "name": "A#3",
          "midi": 58,
          "time": 48.75,
          "velocity": 0.3858267716535433,
          "duration": 0.18671874999999716
        },
        {
          "name": "G4",
          "midi": 67,
          "time": 48.9375,
          "velocity": 0.3858267716535433,
          "duration": 0.18671874999999716
        },
        {
          "name": "A#3",
          "midi": 58,
          "time": 49.125,
          "velocity": 0.3858267716535433,
          "duration": 0.18671874999999716
        },
        {
          "name": "D4",
          "midi": 62,
          "time": 49.3125,
          "velocity": 0.3858267716535433,
          "duration": 0.18671874999999716
        },
        {
          "name": "G#3",
          "midi": 56,
          "time": 49.5,
          "velocity": 0.3858267716535433,
          "duration": 0.18671874999999716
        },
        {
          "name": "D#4",
          "midi": 63,
          "time": 49.6875,
          "velocity": 0.3858267716535433,
          "duration": 0.18671874999999716
        },
        {
          "name": "C4",
          "midi": 60,
          "time": 49.875,
          "velocity": 0.3858267716535433,
          "duration": 0.18671874999999716
        },
        {
          "name": "G4",
          "midi": 67,
          "time": 50.0625,
          "velocity": 0.3858267716535433,
          "duration": 0.18671874999999716
        },
        {
          "name": "C4",
          "midi": 60,
          "time": 50.25,
          "velocity": 0.3858267716535433,
          "duration": 0.18671874999999716
        },
        {
          "name": "D#4",
          "midi": 63,
          "time": 50.4375,
          "velocity": 0.3858267716535433,
          "duration": 0.18671874999999716
        },
        {
          "name": "G#3",
          "midi": 56,
          "time": 50.625,
          "velocity": 0.3858267716535433,
          "duration": 0.18671874999999716
        },
        {
          "name": "D#4",
          "midi": 63,
          "time": 50.8125,
          "velocity": 0.3858267716535433,
          "duration": 0.18671874999999716
        },
        {
          "name": "C4",
          "midi": 60,
          "time": 51,
          "velocity": 0.3858267716535433,
          "duration": 0.18671874999999716
        },
        {
          "name": "G4",
          "midi": 67,
          "time": 51.1875,
          "velocity": 0.3858267716535433,
          "duration": 0.18671874999999716
        },
        {
          "name": "C4",
          "midi": 60,
          "time": 51.375,
          "velocity": 0.3858267716535433,
          "duration": 0.18671874999999716
        },
        {
          "name": "D#4",
          "midi": 63,
          "time": 51.5625,
          "velocity": 0.3858267716535433,
          "duration": 0.18671874999999716
        },
        {
          "name": "G3",
          "midi": 55,
          "time": 51.75,
          "velocity": 0.3858267716535433,
          "duration": 0.18671874999999716
        },
        {
          "name": "D4",
          "midi": 62,
          "time": 51.9375,
          "velocity": 0.3858267716535433,
          "duration": 0.18671874999999716
        },
        {
          "name": "C4",
          "midi": 60,
          "time": 52.125,
          "velocity": 0.3858267716535433,
          "duration": 0.18671874999999716
        },
        {
          "name": "G4",
          "midi": 67,
          "time": 52.3125,
          "velocity": 0.3858267716535433,
          "duration": 0.18671874999999716
        },
        {
          "name": "C4",
          "midi": 60,
          "time": 52.5,
          "velocity": 0.3858267716535433,
          "duration": 0.18671874999999716
        },
        {
          "name": "D4",
          "midi": 62,
          "time": 52.6875,
          "velocity": 0.3858267716535433,
          "duration": 0.18671874999999716
        },
        {
          "name": "G3",
          "midi": 55,
          "time": 52.875,
          "velocity": 0.3858267716535433,
          "duration": 0.18671874999999716
        },
        {
          "name": "D4",
          "midi": 62,
          "time": 53.0625,
          "velocity": 0.3858267716535433,
          "duration": 0.18671874999999716
        },
        {
          "name": "B3",
          "midi": 59,
          "time": 53.25,
          "velocity": 0.3858267716535433,
          "duration": 0.18671874999999716
        },
        {
          "name": "G4",
          "midi": 67,
          "time": 53.4375,
          "velocity": 0.3858267716535433,
          "duration": 0.18671874999999716
        },
        {
          "name": "B3",
          "midi": 59,
          "time": 53.625,
          "velocity": 0.3858267716535433,
          "duration": 0.18671874999999716
        },
        {
          "name": "D4",
          "midi": 62,
          "time": 53.8125,
          "velocity": 0.3858267716535433,
          "duration": 0.18671874999999716
        },
        {
          "name": "F3",
          "midi": 53,
          "time": 54,
          "velocity": 0.3858267716535433,
          "duration": 0.18671874999999716
        },
        {
          "name": "C4",
          "midi": 60,
          "time": 54.1875,
          "velocity": 0.3858267716535433,
          "duration": 0.18671874999999716
        },
        {
          "name": "G#3",
          "midi": 56,
          "time": 54.375,
          "velocity": 0.3858267716535433,
          "duration": 0.18671874999999716
        },
        {
          "name": "G4",
          "midi": 67,
          "time": 54.5625,
          "velocity": 0.3858267716535433,
          "duration": 0.18671874999999716
        },
        {
          "name": "G#3",
          "midi": 56,
          "time": 54.75,
          "velocity": 0.3858267716535433,
          "duration": 0.18671874999999716
        },
        {
          "name": "C4",
          "midi": 60,
          "time": 54.9375,
          "velocity": 0.3858267716535433,
          "duration": 0.18671874999999716
        },
        {
          "name": "F3",
          "midi": 53,
          "time": 55.125,
          "velocity": 0.3858267716535433,
          "duration": 0.18671874999999716
        },
        {
          "name": "C4",
          "midi": 60,
          "time": 55.3125,
          "velocity": 0.3858267716535433,
          "duration": 0.18671874999999716
        },
        {
          "name": "G#3",
          "midi": 56,
          "time": 55.5,
          "velocity": 0.3858267716535433,
          "duration": 0.18671874999999716
        },
        {
          "name": "G4",
          "midi": 67,
          "time": 55.6875,
          "velocity": 0.3858267716535433,
          "duration": 0.18671874999999716
        },
        {
          "name": "G#3",
          "midi": 56,
          "time": 55.875,
          "velocity": 0.3858267716535433,
          "duration": 0.18671874999999716
        },
        {
          "name": "D3",
          "midi": 50,
          "time": 56.0625,
          "velocity": 0.3858267716535433,
          "duration": 0.18671874999999716
        },
        {
          "name": "D#3",
          "midi": 51,
          "time": 56.25,
          "velocity": 0.3858267716535433,
          "duration": 0.18671874999999716
        },
        {
          "name": "D4",
          "midi": 62,
          "time": 56.4375,
          "velocity": 0.3858267716535433,
          "duration": 0.18671874999999716
        },
        {
          "name": "A#3",
          "midi": 58,
          "time": 56.625,
          "velocity": 0.3858267716535433,
          "duration": 0.18671874999999716
        },
        {
          "name": "G4",
          "midi": 67,
          "time": 56.8125,
          "velocity": 0.3858267716535433,
          "duration": 0.18671874999999716
        },
        {
          "name": "A#3",
          "midi": 58,
          "time": 57,
          "velocity": 0.3858267716535433,
          "duration": 0.18671874999999716
        },
        {
          "name": "D4",
          "midi": 62,
          "time": 57.1875,
          "velocity": 0.3858267716535433,
          "duration": 0.18671874999999716
        },
        {
          "name": "D#3",
          "midi": 51,
          "time": 57.375,
          "velocity": 0.3858267716535433,
          "duration": 0.18671874999999716
        },
        {
          "name": "D4",
          "midi": 62,
          "time": 57.5625,
          "velocity": 0.3858267716535433,
          "duration": 0.18671874999999716
        },
        {
          "name": "A#3",
          "midi": 58,
          "time": 57.75,
          "velocity": 0.3858267716535433,
          "duration": 0.18671874999999716
        },
        {
          "name": "G4",
          "midi": 67,
          "time": 57.9375,
          "velocity": 0.3858267716535433,
          "duration": 0.18671874999999716
        },
        {
          "name": "D4",
          "midi": 62,
          "time": 58.125,
          "velocity": 0.3858267716535433,
          "duration": 0.18671874999999716
        }
      ],
      "controlChanges": {
        "7": [
          {
            "number": 7,
            "time": 0,
            "value": 0.7874015748031497
          }
        ],
        "10": [
          {
            "number": 10,
            "time": 0,
            "value": 0.5039370078740157
          }
        ],
        "91": [
          {
            "number": 91,
            "time": 0,
            "value": 0
          }
        ],
        "93": [
          {
            "number": 93,
            "time": 0,
            "value": 0
          }
        ],
        "121": [
          {
            "number": 121,
            "time": 0,
            "value": 0
          }
        ]
      },
      "id": 2,
      "name": "Marimba (Grand Staff)",
      "instrumentNumber": 12,
      "instrument": "marimba",
      "instrumentFamily": "chromatic percussion",
      "channelNumber": 2,
      "isPercussion": false
    },
    {
      "startTime": 18,
      "duration": 58.49921875,
      "length": 19,
      "notes": [
        {
          "name": "G#2",
          "midi": 44,
          "time": 18,
          "velocity": 0.3858267716535433,
          "duration": 2.2492187500000007
        },
        {
          "name": "G2",
          "midi": 43,
          "time": 20.25,
          "velocity": 0.3858267716535433,
          "duration": 1.1242187500000007
        },
        {
          "name": "B2",
          "midi": 47,
          "time": 21.375,
          "velocity": 0.3858267716535433,
          "duration": 0.5617187500000007
        },
        {
          "name": "G#3",
          "midi": 56,
          "time": 21.9375,
          "velocity": 0.3858267716535433,
          "duration": 0.5617187500000007
        },
        {
          "name": "G3",
          "midi": 55,
          "time": 22.5,
          "velocity": 0.3858267716535433,
          "duration": 3.3742187500000007
        },
        {
          "name": "D#2",
          "midi": 39,
          "time": 25.875,
          "velocity": 0.3858267716535433,
          "duration": 1.1242187500000007
        },
        {
          "name": "G#2",
          "midi": 44,
          "time": 27,
          "velocity": 0.3858267716535433,
          "duration": 2.2492187500000007
        },
        {
          "name": "G2",
          "midi": 43,
          "time": 29.25,
          "velocity": 0.3858267716535433,
          "duration": 1.1242187500000007
        },
        {
          "name": "B2",
          "midi": 47,
          "time": 30.375,
          "velocity": 0.3858267716535433,
          "duration": 0.5617187500000007
        },
        {
          "name": "G#3",
          "midi": 56,
          "time": 30.9375,
          "velocity": 0.3858267716535433,
          "duration": 0.5617187500000007
        },
        {
          "name": "G3",
          "midi": 55,
          "time": 31.5,
          "velocity": 0.3858267716535433,
          "duration": 3.374218749999997
        },
        {
          "name": "D#2",
          "midi": 39,
          "time": 34.875,
          "velocity": 0.3858267716535433,
          "duration": 1.1242187499999972
        },
        {
          "name": "F3",
          "midi": 53,
          "time": 45,
          "velocity": 0.3858267716535433,
          "duration": 2.249218749999997
        },
        {
          "name": "D#3",
          "midi": 51,
          "time": 47.25,
          "velocity": 0.3858267716535433,
          "duration": 1.1242187499999972
        },
        {
          "name": "A#2",
          "midi": 46,
          "time": 48.375,
          "velocity": 0.3858267716535433,
          "duration": 3.374218749999997
        },
        {
          "name": "C3",
          "midi": 48,
          "time": 51.75,
          "velocity": 0.3858267716535433,
          "duration": 1.1242187499999972
        },
        {
          "name": "D3",
          "midi": 50,
          "time": 52.875,
          "velocity": 0.3858267716535433,
          "duration": 1.1242187499999972
        },
        {
          "name": "D#3",
          "midi": 51,
          "time": 54,
          "velocity": 0.3858267716535433,
          "duration": 2.249218749999997
        },
        {
          "name": "D3",
          "midi": 50,
          "time": 56.25,
          "velocity": 0.3858267716535433,
          "duration": 2.249218749999997
        }
      ],
      "controlChanges": {
        "2": [
          {
            "number": 2,
            "time": 18,
            "value": 0.3858267716535433
          }
        ],
        "7": [
          {
            "number": 7,
            "time": 0,
            "value": 0.7874015748031497
          },
          {
            "number": 7,
            "time": 0,
            "value": 0.7874015748031497
          },
          {
            "number": 7,
            "time": 0,
            "value": 0.7874015748031497
          }
        ],
        "10": [
          {
            "number": 10,
            "time": 0,
            "value": 0.5039370078740157
          },
          {
            "number": 10,
            "time": 0,
            "value": 0.5039370078740157
          },
          {
            "number": 10,
            "time": 0,
            "value": 0.5039370078740157
          }
        ],
        "91": [
          {
            "number": 91,
            "time": 0,
            "value": 0
          },
          {
            "number": 91,
            "time": 0,
            "value": 0
          },
          {
            "number": 91,
            "time": 0,
            "value": 0
          }
        ],
        "93": [
          {
            "number": 93,
            "time": 0,
            "value": 0
          },
          {
            "number": 93,
            "time": 0,
            "value": 0
          },
          {
            "number": 93,
            "time": 0,
            "value": 0
          }
        ],
        "121": [
          {
            "number": 121,
            "time": 0,
            "value": 0
          },
          {
            "number": 121,
            "time": 0,
            "value": 0
          },
          {
            "number": 121,
            "time": 0,
            "value": 0
          }
        ]
      },
      "id": 3,
      "name": "Violoncello",
      "instrumentNumber": 44,
      "instrument": "tremolo strings",
      "instrumentFamily": "strings",
      "channelNumber": 4,
      "isPercussion": false
    }
  ]
}