{
  "header": {
    "PPQ": 480,
    "timeSignature": [
      6,
      8
    ],
    "bpm": 200,
    "name": ""
  },
  "tempo": [
    {
      "absoluteTime": 0,
      "seconds": 0,
      "bpm": 200
    }
  ],
  "timeSignature": [
    {
      "absoluteTime": 0,
      "seconds": 0,
      "numerator": 5,
      "denominator": 3,
      "click": 24,
      "notesQ": 8
    },
    {
      "absoluteTime": 39600,
      "seconds": 24.749999999999677,
      "numerator": 6,
      "denominator": 3,
      "click": 24,
      "notesQ": 8
    },
    {
      "absoluteTime": 121680,
      "seconds": 76.04999999999984,
      "numerator": 5,
      "denominator": 3,
      "click": 24,
      "notesQ": 8
    },
    {
      "absoluteTime": 161280,
      "seconds": 100.7999999999994,
      "numerator": 6,
      "denominator": 3,
      "click": 24,
      "notesQ": 8
    }
  ],
  "startTime": 0,
  "duration": 106.19937500000024,
  "tracks": [
    {
      "startTime": 3.15,
      "duration": 103.42437499999944,
      "length": 234,
      "notes": [
        {
          "name": "C5",
          "midi": 72,
          "time": 3.15,
          "velocity": 0.5748031496062992,
          "duration": 2.099374999999996
        },
        {
          "name": "A#4",
          "midi": 70,
          "time": 5.699999999999996,
          "velocity": 0.3858267716535433,
          "duration": 0.2993750000000004
        },
        {
          "name": "D5",
          "midi": 74,
          "time": 5.9999999999999964,
          "velocity": 0.5748031496062992,
          "duration": 1.7993750000000386
        },
        {
          "name": "C5",
          "midi": 72,
          "time": 10.650000000000034,
          "velocity": 0.5748031496062992,
          "duration": 1.6493749999999352
        },
        {
          "name": "E5",
          "midi": 76,
          "time": 13.49999999999997,
          "velocity": 0.5748031496062992,
          "duration": 1.4993749999999189
        },
        {
          "name": "D5",
          "midi": 74,
          "time": 14.999999999999888,
          "velocity": 0.6299212598425197,
          "duration": 0.7493750000000006
        },
        {
          "name": "C5",
          "midi": 72,
          "time": 15.749999999999888,
          "velocity": 0.6299212598425197,
          "duration": 0.7493749999999988
        },
        {
          "name": "G5",
          "midi": 79,
          "time": 16.499999999999886,
          "velocity": 0.9448818897637795,
          "duration": 1.499374999999933
        },
        {
          "name": "A5",
          "midi": 81,
          "time": 17.99999999999982,
          "velocity": 0.9448818897637795,
          "duration": 1.499374999999933
        },
        {
          "name": "D6",
          "midi": 86,
          "time": 19.49999999999975,
          "velocity": 0.9448818897637795,
          "duration": 1.499374999999933
        },
        {
          "name": "A5",
          "midi": 81,
          "time": 21.749999999999684,
          "velocity": 0.5039370078740157,
          "duration": 0.14937499999999915
        },
        {
          "name": "G5",
          "midi": 79,
          "time": 21.899999999999682,
          "velocity": 0.5039370078740157,
          "duration": 0.14937499999999915
        },
        {
          "name": "F5",
          "midi": 77,
          "time": 22.04999999999968,
          "velocity": 0.5039370078740157,
          "duration": 0.14937499999999915
        },
        {
          "name": "E5",
          "midi": 76,
          "time": 22.19999999999968,
          "velocity": 0.5039370078740157,
          "duration": 0.14937499999999915
        },
        {
          "name": "F5",
          "midi": 77,
          "time": 22.349999999999678,
          "velocity": 0.5039370078740157,
          "duration": 0.14937499999999915
        },
        {
          "name": "G5",
          "midi": 79,
          "time": 22.499999999999677,
          "velocity": 0.5039370078740157,
          "duration": 1.4993750000000006
        },
        {
          "name": "A5",
          "midi": 81,
          "time": 23.999999999999677,
          "velocity": 0.5039370078740157,
          "duration": 0.7493750000000006
        },
        {
          "name": "A5",
          "midi": 81,
          "time": 24.749999999999677,
          "velocity": 0.5039370078740157,
          "duration": 0.14937499999999915
        },
        {
          "name": "A#5",
          "midi": 82,
          "time": 24.899999999999675,
          "velocity": 0.5039370078740157,
          "duration": 0.14937499999999915
        },
        {
          "name": "C6",
          "midi": 84,
          "time": 25.049999999999674,
          "velocity": 0.5039370078740157,
          "duration": 0.14937499999999915
        },
        {
          "name": "D6",
          "midi": 86,
          "time": 25.199999999999672,
          "velocity": 0.5039370078740157,
          "duration": 0.14937499999999915
        },
        {
          "name": "E6",
          "midi": 88,
          "time": 25.34999999999967,
          "velocity": 0.5039370078740157,
          "duration": 0.14937499999999915
        },
        {
          "name": "F6",
          "midi": 89,
          "time": 25.49999999999967,
          "velocity": 0.5039370078740157,
          "duration": 0.14937499999999915
        },
        {
          "name": "E6",
          "midi": 88,
          "time": 25.649999999999668,
          "velocity": 0.5039370078740157,
          "duration": 0.2993749999999977
        },
        {
          "name": "D6",
          "midi": 86,
          "time": 25.949999999999665,
          "velocity": 0.5039370078740157,
          "duration": 0.44937499999999986
        },
        {
          "name": "E6",
          "midi": 88,
          "time": 26.549999999999667,
          "velocity": 0.5039370078740157,
          "duration": 0.2993749999999977
        },
        {
          "name": "D6",
          "midi": 86,
          "time": 26.849999999999664,
          "velocity": 0.5039370078740157,
          "duration": 0.44937499999999986
        },
        {
          "name": "D6",
          "midi": 86,
          "time": 27.449999999999665,
          "velocity": 0.5039370078740157,
          "duration": 0.2993749999999977
        },
        {
          "name": "C#6",
          "midi": 85,
          "time": 27.749999999999662,
          "velocity": 0.5039370078740157,
          "duration": 0.44937499999999986
        },
        {
          "name": "D6",
          "midi": 86,
          "time": 28.349999999999664,
          "velocity": 0.5039370078740157,
          "duration": 0.2993749999999977
        },
        {
          "name": "C#6",
          "midi": 85,
          "time": 28.64999999999966,
          "velocity": 0.5039370078740157,
          "duration": 0.44937499999999986
        },
        {
          "name": "C#6",
          "midi": 85,
          "time": 29.249999999999662,
          "velocity": 0.5039370078740157,
          "duration": 0.2993749999999977
        },
        {
          "name": "D6",
          "midi": 86,
          "time": 29.54999999999966,
          "velocity": 0.5039370078740157,
          "duration": 0.44937499999999986
        },
        {
          "name": "C#6",
          "midi": 85,
          "time": 30.14999999999966,
          "velocity": 0.5039370078740157,
          "duration": 0.2993749999999977
        },
        {
          "name": "D6",
          "midi": 86,
          "time": 30.44999999999966,
          "velocity": 0.5039370078740157,
          "duration": 0.44937499999999986
        },
        {
          "name": "A5",
          "midi": 81,
          "time": 31.04999999999966,
          "velocity": 0.5039370078740157,
          "duration": 0.2993749999999977
        },
        {
          "name": "G5",
          "midi": 79,
          "time": 31.349999999999657,
          "velocity": 0.5039370078740157,
          "duration": 0.2993749999999977
        },
        {
          "name": "E5",
          "midi": 76,
          "time": 31.649999999999654,
          "velocity": 0.5039370078740157,
          "duration": 0.2993749999999977
        },
        {
          "name": "C#5",
          "midi": 73,
          "time": 31.94999999999965,
          "velocity": 0.5039370078740157,
          "duration": 0.07437499999999986
        },
        {
          "name": "D5",
          "midi": 74,
          "time": 32.02499999999965,
          "velocity": 0.5039370078740157,
          "duration": 0.07437500000000341
        },
        {
          "name": "E5",
          "midi": 76,
          "time": 32.09999999999965,
          "velocity": 0.5039370078740157,
          "duration": 0.07437500000000341
        },
        {
          "name": "F5",
          "midi": 77,
          "time": 32.174999999999656,
          "velocity": 0.5039370078740157,
          "duration": 0.07437500000000341
        },
        {
          "name": "G5",
          "midi": 79,
          "time": 32.24999999999966,
          "velocity": 0.5039370078740157,
          "duration": 0.07437500000000341
        },
        {
          "name": "G#5",
          "midi": 80,
          "time": 32.32499999999966,
          "velocity": 0.5039370078740157,
          "duration": 0.07437500000000341
        },
        {
          "name": "A5",
          "midi": 81,
          "time": 32.399999999999665,
          "velocity": 0.5039370078740157,
          "duration": 0.07437500000001762
        },
        {
          "name": "G5",
          "midi": 79,
          "time": 32.47499999999968,
          "velocity": 0.4566929133858268,
          "duration": 0.07437500000001052
        },
        {
          "name": "F5",
          "midi": 77,
          "time": 32.54999999999969,
          "velocity": 0.4094488188976378,
          "duration": 0.07437500000001762
        },
        {
          "name": "E5",
          "midi": 76,
          "time": 32.62499999999971,
          "velocity": 0.36220472440944884,
          "duration": 0.07437500000001762
        },
        {
          "name": "C#5",
          "midi": 73,
          "time": 32.699999999999726,
          "velocity": 0.31496062992125984,
          "duration": 0.07437500000001052
        },
        {
          "name": "A4",
          "midi": 69,
          "time": 32.774999999999736,
          "velocity": 0.25984251968503935,
          "duration": 0.07437500000000341
        },
        {
          "name": "D5",
          "midi": 74,
          "time": 32.84999999999974,
          "velocity": 0.25984251968503935,
          "duration": 0.07437500000000341
        },
        {
          "name": "D5",
          "midi": 74,
          "time": 32.999999999999744,
          "velocity": 0.25984251968503935,
          "duration": 0.07437500000000341
        },
        {
          "name": "D5",
          "midi": 74,
          "time": 33.14999999999975,
          "velocity": 0.25984251968503935,
          "duration": 0.07437500000000341
        },
        {
          "name": "D5",
          "midi": 74,
          "time": 33.299999999999756,
          "velocity": 0.25984251968503935,
          "duration": 0.07437500000000341
        },
        {
          "name": "D5",
          "midi": 74,
          "time": 33.44999999999976,
          "velocity": 0.25984251968503935,
          "duration": 0.07437500000000341
        },
        {
          "name": "D5",
          "midi": 74,
          "time": 33.59999999999977,
          "velocity": 0.25984251968503935,
          "duration": 0.07437500000000341
        },
        {
          "name": "D5",
          "midi": 74,
          "time": 33.74999999999977,
          "velocity": 0.25984251968503935,
          "duration": 0.07437500000000341
        },
        {
          "name": "D5",
          "midi": 74,
          "time": 33.89999999999978,
          "velocity": 0.25984251968503935,
          "duration": 0.07437500000000341
        },
        {
          "name": "D5",
          "midi": 74,
          "time": 34.049999999999784,
          "velocity": 0.25984251968503935,
          "duration": 0.07437500000000341
        },
        {
          "name": "D5",
          "midi": 74,
          "time": 34.19999999999979,
          "velocity": 0.25984251968503935,
          "duration": 0.07437500000000341
        },
        {
          "name": "D5",
          "midi": 74,
          "time": 34.349999999999795,
          "velocity": 0.25984251968503935,
          "duration": 0.07437500000000341
        },
        {
          "name": "D5",
          "midi": 74,
          "time": 34.4999999999998,
          "velocity": 0.25984251968503935,
          "duration": 0.07437500000000341
        },
        {
          "name": "D5",
          "midi": 74,
          "time": 34.64999999999981,
          "velocity": 0.25984251968503935,
          "duration": 0.07437500000000341
        },
        {
          "name": "D5",
          "midi": 74,
          "time": 34.79999999999981,
          "velocity": 0.25984251968503935,
          "duration": 0.07437500000000341
        },
        {
          "name": "D5",
          "midi": 74,
          "time": 34.94999999999982,
          "velocity": 0.25984251968503935,
          "duration": 0.07437500000000341
        },
        {
          "name": "D5",
          "midi": 74,
          "time": 35.099999999999824,
          "velocity": 0.25984251968503935,
          "duration": 0.07437500000000341
        },
        {
          "name": "D5",
          "midi": 74,
          "time": 35.24999999999983,
          "velocity": 0.25984251968503935,
          "duration": 0.07437500000000341
        },
        {
          "name": "D5",
          "midi": 74,
          "time": 35.399999999999835,
          "velocity": 0.25984251968503935,
          "duration": 0.07437500000000341
        },
        {
          "name": "D5",
          "midi": 74,
          "time": 35.54999999999984,
          "velocity": 0.25984251968503935,
          "duration": 0.07437500000000341
        },
        {
          "name": "D5",
          "midi": 74,
          "time": 35.69999999999985,
          "velocity": 0.25984251968503935,
          "duration": 0.07437500000000341
        },
        {
          "name": "D5",
          "midi": 74,
          "time": 35.84999999999985,
          "velocity": 0.25984251968503935,
          "duration": 0.07437500000000341
        },
        {
          "name": "D5",
          "midi": 74,
          "time": 35.99999999999986,
          "velocity": 0.25984251968503935,
          "duration": 0.07437500000000341
        },
        {
          "name": "D5",
          "midi": 74,
          "time": 36.149999999999864,
          "velocity": 0.25984251968503935,
          "duration": 0.07437500000000341
        },
        {
          "name": "D5",
          "midi": 74,
          "time": 36.29999999999987,
          "velocity": 0.25984251968503935,
          "duration": 0.07437500000000341
        },
        {
          "name": "F5",
          "midi": 77,
          "time": 36.449999999999875,
          "velocity": 0.25984251968503935,
          "duration": 0.07437500000000341
        },
        {
          "name": "F5",
          "midi": 77,
          "time": 36.59999999999988,
          "velocity": 0.25984251968503935,
          "duration": 0.07437500000000341
        },
        {
          "name": "F5",
          "midi": 77,
          "time": 36.749999999999886,
          "velocity": 0.25984251968503935,
          "duration": 0.07437500000000341
        },
        {
          "name": "F5",
          "midi": 77,
          "time": 36.89999999999989,
          "velocity": 0.25984251968503935,
          "duration": 0.07437500000000341
        },
        {
          "name": "F5",
          "midi": 77,
          "time": 37.0499999999999,
          "velocity": 0.25984251968503935,
          "duration": 0.07437500000000341
        },
        {
          "name": "F5",
          "midi": 77,
          "time": 37.1999999999999,
          "velocity": 0.25984251968503935,
          "duration": 0.07437500000000341
        },
        {
          "name": "C#5",
          "midi": 73,
          "time": 37.34999999999991,
          "velocity": 0.25984251968503935,
          "duration": 0.07437500000000341
        },
        {
          "name": "C#5",
          "midi": 73,
          "time": 37.499999999999915,
          "velocity": 0.25984251968503935,
          "duration": 0.07437500000000341
        },
        {
          "name": "C#5",
          "midi": 73,
          "time": 37.64999999999992,
          "velocity": 0.25984251968503935,
          "duration": 0.07437500000000341
        },
        {
          "name": "C#5",
          "midi": 73,
          "time": 37.799999999999926,
          "velocity": 0.25984251968503935,
          "duration": 0.07437500000000341
        },
        {
          "name": "C#5",
          "midi": 73,
          "time": 37.94999999999993,
          "velocity": 0.25984251968503935,
          "duration": 0.07437500000000341
        },
        {
          "name": "C#5",
          "midi": 73,
          "time": 38.09999999999994,
          "velocity": 0.25984251968503935,
          "duration": 0.07437500000000341
        },
        {
          "name": "D5",
          "midi": 74,
          "time": 38.24999999999994,
          "velocity": 0.25984251968503935,
          "duration": 0.07437500000000341
        },
        {
          "name": "D5",
          "midi": 74,
          "time": 38.39999999999995,
          "velocity": 0.25984251968503935,
          "duration": 0.07437500000000341
        },
        {
          "name": "D5",
          "midi": 74,
          "time": 38.549999999999955,
          "velocity": 0.25984251968503935,
          "duration": 0.07437500000000341
        },
        {
          "name": "G4",
          "midi": 67,
          "time": 38.69999999999996,
          "velocity": 0.25984251968503935,
          "duration": 0.07437500000000341
        },
        {
          "name": "G4",
          "midi": 67,
          "time": 38.849999999999966,
          "velocity": 0.25984251968503935,
          "duration": 0.07437500000000341
        },
        {
          "name": "G4",
          "midi": 67,
          "time": 38.99999999999997,
          "velocity": 0.25984251968503935,
          "duration": 0.07437500000000341
        },
        {
          "name": "F4",
          "midi": 65,
          "time": 39.14999999999998,
          "velocity": 0.25984251968503935,
          "duration": 0.07437500000000341
        },
        {
          "name": "F4",
          "midi": 65,
          "time": 39.29999999999998,
          "velocity": 0.25984251968503935,
          "duration": 0.07437500000000341
        },
        {
          "name": "F4",
          "midi": 65,
          "time": 39.44999999999999,
          "velocity": 0.25984251968503935,
          "duration": 0.07437500000000341
        },
        {
          "name": "A#4",
          "midi": 70,
          "time": 39.599999999999994,
          "velocity": 0.25984251968503935,
          "duration": 0.03687500000000199
        },
        {
          "name": "A#4",
          "midi": 70,
          "time": 39.675,
          "velocity": 0.25984251968503935,
          "duration": 0.03687500000000199
        },
        {
          "name": "A#4",
          "midi": 70,
          "time": 39.75,
          "velocity": 0.25984251968503935,
          "duration": 0.03687500000000199
        },
        {
          "name": "A#4",
          "midi": 70,
          "time": 39.825,
          "velocity": 0.25984251968503935,
          "duration": 0.03687500000000199
        },
        {
          "name": "A4",
          "midi": 69,
          "time": 39.900000000000006,
          "velocity": 0.25984251968503935,
          "duration": 0.03687500000000199
        },
        {
          "name": "A4",
          "midi": 69,
          "time": 39.97500000000001,
          "velocity": 0.25984251968503935,
          "duration": 0.03687500000000199
        },
        {
          "name": "D5",
          "midi": 74,
          "time": 40.05000000000001,
          "velocity": 0.25984251968503935,
          "duration": 0.07437500000000341
        },
        {
          "name": "D5",
          "midi": 74,
          "time": 40.20000000000002,
          "velocity": 0.25984251968503935,
          "duration": 0.07437500000000341
        },
        {
          "name": "D5",
          "midi": 74,
          "time": 40.35000000000002,
          "velocity": 0.25984251968503935,
          "duration": 0.07437500000000341
        },
        {
          "name": "D5",
          "midi": 74,
          "time": 40.50000000000003,
          "velocity": 0.25984251968503935,
          "duration": 0.07437500000000341
        },
        {
          "name": "D5",
          "midi": 74,
          "time": 40.650000000000034,
          "velocity": 0.25984251968503935,
          "duration": 0.07437500000000341
        },
        {
          "name": "D5",
          "midi": 74,
          "time": 40.80000000000004,
          "velocity": 0.25984251968503935,
          "duration": 0.07437500000000341
        },
        {
          "name": "D5",
          "midi": 74,
          "time": 40.950000000000045,
          "velocity": 0.25984251968503935,
          "duration": 0.07437500000000341
        },
        {
          "name": "D5",
          "midi": 74,
          "time": 41.10000000000005,
          "velocity": 0.25984251968503935,
          "duration": 0.07437500000000341
        },
        {
          "name": "D5",
          "midi": 74,
          "time": 41.25000000000006,
          "velocity": 0.25984251968503935,
          "duration": 0.07437500000000341
        },
        {
          "name": "D5",
          "midi": 74,
          "time": 41.40000000000006,
          "velocity": 0.25984251968503935,
          "duration": 0.07437500000000341
        },
        {
          "name": "D5",
          "midi": 74,
          "time": 41.55000000000007,
          "velocity": 0.25984251968503935,
          "duration": 0.07437500000000341
        },
        {
          "name": "D5",
          "midi": 74,
          "time": 41.700000000000074,
          "velocity": 0.25984251968503935,
          "duration": 0.07437500000000341
        },
        {
          "name": "D5",
          "midi": 74,
          "time": 41.85000000000008,
          "velocity": 0.25984251968503935,
          "duration": 0.07437500000000341
        },
        {
          "name": "D5",
          "midi": 74,
          "time": 42.000000000000085,
          "velocity": 0.25984251968503935,
          "duration": 0.07437500000000341
        },
        {
          "name": "D5",
          "midi": 74,
          "time": 42.15000000000009,
          "velocity": 0.25984251968503935,
          "duration": 0.07437500000000341
        },
        {
          "name": "D5",
          "midi": 74,
          "time": 42.3000000000001,
          "velocity": 0.25984251968503935,
          "duration": 0.07437500000000341
        },
        {
          "name": "D5",
          "midi": 74,
          "time": 42.4500000000001,
          "velocity": 0.25984251968503935,
          "duration": 0.07437500000000341
        },
        {
          "name": "D5",
          "midi": 74,
          "time": 42.60000000000011,
          "velocity": 0.25984251968503935,
          "duration": 0.07437500000000341
        },
        {
          "name": "D5",
          "midi": 74,
          "time": 42.750000000000114,
          "velocity": 0.25984251968503935,
          "duration": 0.07437500000000341
        },
        {
          "name": "D5",
          "midi": 74,
          "time": 42.90000000000012,
          "velocity": 0.25984251968503935,
          "duration": 0.07437500000000341
        },
        {
          "name": "D5",
          "midi": 74,
          "time": 43.050000000000125,
          "velocity": 0.25984251968503935,
          "duration": 0.07437500000000341
        },
        {
          "name": "D5",
          "midi": 74,
          "time": 43.20000000000013,
          "velocity": 0.25984251968503935,
          "duration": 0.07437500000000341
        },
        {
          "name": "D5",
          "midi": 74,
          "time": 43.350000000000136,
          "velocity": 0.25984251968503935,
          "duration": 0.07437500000000341
        },
        {
          "name": "D5",
          "midi": 74,
          "time": 43.50000000000014,
          "velocity": 0.25984251968503935,
          "duration": 0.07437500000000341
        },
        {
          "name": "F5",
          "midi": 77,
          "time": 43.65000000000015,
          "velocity": 0.25984251968503935,
          "duration": 0.07437500000000341
        },
        {
          "name": "F5",
          "midi": 77,
          "time": 43.80000000000015,
          "velocity": 0.25984251968503935,
          "duration": 0.07437500000000341
        },
        {
          "name": "F5",
          "midi": 77,
          "time": 43.95000000000016,
          "velocity": 0.25984251968503935,
          "duration": 0.07437500000000341
        },
        {
          "name": "F5",
          "midi": 77,
          "time": 44.100000000000165,
          "velocity": 0.25984251968503935,
          "duration": 0.07437500000000341
        },
        {
          "name": "F5",
          "midi": 77,
          "time": 44.25000000000017,
          "velocity": 0.25984251968503935,
          "duration": 0.07437500000000341
        },
        {
          "name": "F5",
          "midi": 77,
          "time": 44.400000000000176,
          "velocity": 0.25984251968503935,
          "duration": 0.07437500000000341
        },
        {
          "name": "C#5",
          "midi": 73,
          "time": 44.55000000000018,
          "velocity": 0.25984251968503935,
          "duration": 0.07437500000000341
        },
        {
          "name": "C#5",
          "midi": 73,
          "time": 44.70000000000019,
          "velocity": 0.25984251968503935,
          "duration": 0.07437500000000341
        },
        {
          "name": "C#5",
          "midi": 73,
          "time": 44.85000000000019,
          "velocity": 0.25984251968503935,
          "duration": 0.07437500000000341
        },
        {
          "name": "C#5",
          "midi": 73,
          "time": 45.0000000000002,
          "velocity": 0.25984251968503935,
          "duration": 0.07437500000000341
        },
        {
          "name": "C#5",
          "midi": 73,
          "time": 45.150000000000205,
          "velocity": 0.25984251968503935,
          "duration": 0.07437500000000341
        },
        {
          "name": "C#5",
          "midi": 73,
          "time": 45.30000000000021,
          "velocity": 0.25984251968503935,
          "duration": 0.07437500000000341
        },
        {
          "name": "D5",
          "midi": 74,
          "time": 45.450000000000216,
          "velocity": 0.25984251968503935,
          "duration": 0.07437500000000341
        },
        {
          "name": "D5",
          "midi": 74,
          "time": 45.60000000000022,
          "velocity": 0.25984251968503935,
          "duration": 0.07437500000000341
        },
        {
          "name": "D5",
          "midi": 74,
          "time": 45.75000000000023,
          "velocity": 0.25984251968503935,
          "duration": 0.07437500000000341
        },
        {
          "name": "G4",
          "midi": 67,
          "time": 45.90000000000023,
          "velocity": 0.25984251968503935,
          "duration": 0.07437500000000341
        },
        {
          "name": "G4",
          "midi": 67,
          "time": 46.05000000000024,
          "velocity": 0.25984251968503935,
          "duration": 0.07437500000000341
        },
        {
          "name": "G4",
          "midi": 67,
          "time": 46.200000000000244,
          "velocity": 0.25984251968503935,
          "duration": 0.07437500000000341
        },
        {
          "name": "F4",
          "midi": 65,
          "time": 46.35000000000025,
          "velocity": 0.25984251968503935,
          "duration": 0.07437500000000341
        },
        {
          "name": "F4",
          "midi": 65,
          "time": 46.500000000000256,
          "velocity": 0.25984251968503935,
          "duration": 0.07437500000000341
        },
        {
          "name": "F4",
          "midi": 65,
          "time": 46.65000000000026,
          "velocity": 0.25984251968503935,
          "duration": 0.07437500000000341
        },
        {
          "name": "A#4",
          "midi": 70,
          "time": 46.80000000000027,
          "velocity": 0.25984251968503935,
          "duration": 0.03687500000000199
        },
        {
          "name": "A#4",
          "midi": 70,
          "time": 46.87500000000027,
          "velocity": 0.25984251968503935,
          "duration": 0.03687500000000199
        },
        {
          "name": "A#4",
          "midi": 70,
          "time": 46.95000000000027,
          "velocity": 0.25984251968503935,
          "duration": 0.03687500000000199
        },
        {
          "name": "A#4",
          "midi": 70,
          "time": 47.025000000000276,
          "velocity": 0.25984251968503935,
          "duration": 0.03687500000000199
        },
        {
          "name": "A4",
          "midi": 69,
          "time": 47.10000000000028,
          "velocity": 0.25984251968503935,
          "duration": 0.03687500000000199
        },
        {
          "name": "A4",
          "midi": 69,
          "time": 47.17500000000028,
          "velocity": 0.25984251968503935,
          "duration": 0.03687500000000199
        },
        {
          "name": "C5",
          "midi": 72,
          "time": 47.250000000000284,
          "velocity": 0.25984251968503935,
          "duration": 1.7993749999999977
        },
        {
          "name": "D5",
          "midi": 74,
          "time": 49.05000000000028,
          "velocity": 0.25984251968503935,
          "duration": 1.7993749999999977
        },
        {
          "name": "F5",
          "midi": 77,
          "time": 50.85000000000028,
          "velocity": 0.25984251968503935,
          "duration": 0.8993749999999991
        },
        {
          "name": "D5",
          "midi": 74,
          "time": 51.75000000000028,
          "velocity": 0.3858267716535433,
          "duration": 0.44937499999993236
        },
        {
          "name": "C5",
          "midi": 72,
          "time": 52.20000000000021,
          "velocity": 0.3858267716535433,
          "duration": 0.44937499999993236
        },
        {
          "name": "D5",
          "midi": 74,
          "time": 52.65000000000014,
          "velocity": 0.3858267716535433,
          "duration": 0.44937499999993236
        },
        {
          "name": "G4",
          "midi": 67,
          "time": 53.10000000000007,
          "velocity": 0.3858267716535433,
          "duration": 0.44937499999993236
        },
        {
          "name": "A4",
          "midi": 69,
          "time": 53.550000000000004,
          "velocity": 0.3858267716535433,
          "duration": 0.2993749999999338
        },
        {
          "name": "A4",
          "midi": 69,
          "time": 53.84999999999994,
          "velocity": 0.25984251968503935,
          "duration": 0.14937499999999915
        },
        {
          "name": "C5",
          "midi": 72,
          "time": 53.999999999999936,
          "velocity": 0.3858267716535433,
          "duration": 0.2993749999999338
        },
        {
          "name": "C5",
          "midi": 72,
          "time": 54.29999999999987,
          "velocity": 0.25984251968503935,
          "duration": 0.14937499999999915
        },
        {
          "name": "D5",
          "midi": 74,
          "time": 54.44999999999987,
          "velocity": 0.25984251968503935,
          "duration": 1.7993749999999977
        },
        {
          "name": "D5",
          "midi": 74,
          "time": 56.249999999999865,
          "velocity": 0.25984251968503935,
          "duration": 0.8993749999999991
        },
        {
          "name": "E5",
          "midi": 76,
          "time": 57.149999999999864,
          "velocity": 0.25984251968503935,
          "duration": 0.8993749999999991
        },
        {
          "name": "F5",
          "midi": 77,
          "time": 58.04999999999986,
          "velocity": 0.25984251968503935,
          "duration": 0.4493750000000034
        },
        {
          "name": "G5",
          "midi": 79,
          "time": 58.499999999999865,
          "velocity": 0.25984251968503935,
          "duration": 0.4493750000000034
        },
        {
          "name": "A5",
          "midi": 81,
          "time": 58.94999999999987,
          "velocity": 0.25984251968503935,
          "duration": 0.4493750000000034
        },
        {
          "name": "C6",
          "midi": 84,
          "time": 59.39999999999987,
          "velocity": 0.25984251968503935,
          "duration": 0.4493750000000034
        },
        {
          "name": "D6",
          "midi": 86,
          "time": 59.84999999999987,
          "velocity": 0.25984251968503935,
          "duration": 0.4493750000000034
        },
        {
          "name": "E6",
          "midi": 88,
          "time": 60.299999999999876,
          "velocity": 0.25984251968503935,
          "duration": 0.4493750000000034
        },
        {
          "name": "D6",
          "midi": 86,
          "time": 60.74999999999988,
          "velocity": 0.3858267716535433,
          "duration": 0.2993749999999338
        },
        {
          "name": "D6",
          "midi": 86,
          "time": 61.04999999999981,
          "velocity": 0.25984251968503935,
          "duration": 0.14937499999999915
        },
        {
          "name": "A5",
          "midi": 81,
          "time": 61.19999999999981,
          "velocity": 0.3858267716535433,
          "duration": 0.2993749999999338
        },
        {
          "name": "A5",
          "midi": 81,
          "time": 61.499999999999744,
          "velocity": 0.25984251968503935,
          "duration": 0.14937499999999915
        },
        {
          "name": "D6",
          "midi": 86,
          "time": 61.64999999999974,
          "velocity": 0.5039370078740157,
          "duration": 0.8993749999999991
        },
        {
          "name": "A5",
          "midi": 81,
          "time": 62.54999999999974,
          "velocity": 0.5039370078740157,
          "duration": 0.4493750000000034
        },
        {
          "name": "G5",
          "midi": 79,
          "time": 62.999999999999744,
          "velocity": 0.5039370078740157,
          "duration": 0.4493750000000034
        },
        {
          "name": "A5",
          "midi": 81,
          "time": 63.44999999999975,
          "velocity": 0.5039370078740157,
          "duration": 1.349375000000009
        },
        {
          "name": "C6",
          "midi": 84,
          "time": 64.79999999999976,
          "velocity": 0.5039370078740157,
          "duration": 0.4493750000000034
        },
        {
          "name": "G5",
          "midi": 79,
          "time": 65.24999999999976,
          "velocity": 0.5039370078740157,
          "duration": 0.4493750000000034
        },
        {
          "name": "A5",
          "midi": 81,
          "time": 65.69999999999976,
          "velocity": 0.5039370078740157,
          "duration": 0.4493750000000034
        },
        {
          "name": "E5",
          "midi": 76,
          "time": 66.14999999999976,
          "velocity": 0.5039370078740157,
          "duration": 0.4493750000000034
        },
        {
          "name": "C5",
          "midi": 72,
          "time": 66.59999999999977,
          "velocity": 0.5039370078740157,
          "duration": 0.4493750000000034
        },
        {
          "name": "A5",
          "midi": 81,
          "time": 67.04999999999977,
          "velocity": 0.5039370078740157,
          "duration": 0.8993750000000063
        },
        {
          "name": "D6",
          "midi": 86,
          "time": 68.84999999999978,
          "velocity": 0.3858267716535433,
          "duration": 0.8993750000000063
        },
        {
          "name": "A#5",
          "midi": 82,
          "time": 69.74999999999979,
          "velocity": 0.3858267716535433,
          "duration": 0.4493750000000034
        },
        {
          "name": "A5",
          "midi": 81,
          "time": 70.19999999999979,
          "velocity": 0.3858267716535433,
          "duration": 0.4493750000000034
        },
        {
          "name": "G5",
          "midi": 79,
          "time": 70.64999999999979,
          "velocity": 0.3858267716535433,
          "duration": 1.349375000000009
        },
        {
          "name": "A#5",
          "midi": 82,
          "time": 71.9999999999998,
          "velocity": 0.3858267716535433,
          "duration": 0.4493750000000034
        },
        {
          "name": "G5",
          "midi": 79,
          "time": 72.4499999999998,
          "velocity": 0.3858267716535433,
          "duration": 0.4493750000000034
        },
        {
          "name": "A5",
          "midi": 81,
          "time": 72.8999999999998,
          "velocity": 0.3858267716535433,
          "duration": 0.4493750000000034
        },
        {
          "name": "E5",
          "midi": 76,
          "time": 73.34999999999981,
          "velocity": 0.3858267716535433,
          "duration": 0.4493750000000034
        },
        {
          "name": "C#5",
          "midi": 73,
          "time": 73.79999999999981,
          "velocity": 0.3858267716535433,
          "duration": 0.4493750000000034
        },
        {
          "name": "D5",
          "midi": 74,
          "time": 74.24999999999982,
          "velocity": 0.3858267716535433,
          "duration": 0.8993750000000063
        },
        {
          "name": "A5",
          "midi": 81,
          "time": 75.14999999999982,
          "velocity": 0.3858267716535433,
          "duration": 0.07437500000000341
        },
        {
          "name": "A5",
          "midi": 81,
          "time": 75.29999999999983,
          "velocity": 0.3858267716535433,
          "duration": 0.07437500000000341
        },
        {
          "name": "A5",
          "midi": 81,
          "time": 75.44999999999983,
          "velocity": 0.3858267716535433,
          "duration": 0.07437500000000341
        },
        {
          "name": "A5",
          "midi": 81,
          "time": 75.59999999999984,
          "velocity": 0.3858267716535433,
          "duration": 0.07437500000000341
        },
        {
          "name": "A5",
          "midi": 81,
          "time": 75.74999999999984,
          "velocity": 0.3858267716535433,
          "duration": 0.07437500000000341
        },
        {
          "name": "A5",
          "midi": 81,
          "time": 75.82499999999985,
          "velocity": 0.3858267716535433,
          "duration": 0.036874999999994884
        },
        {
          "name": "A5",
          "midi": 81,
          "time": 75.89999999999984,
          "velocity": 0.3858267716535433,
          "duration": 0.07437500000000341
        },
        {
          "name": "C5",
          "midi": 72,
          "time": 79.19999999999985,
          "velocity": 0.5748031496062992,
          "duration": 2.099374999999938
        },
        {
          "name": "A#4",
          "midi": 70,
          "time": 81.74999999999979,
          "velocity": 0.3858267716535433,
          "duration": 0.29937500000001194
        },
        {
          "name": "D5",
          "midi": 74,
          "time": 82.0499999999998,
          "velocity": 0.5748031496062992,
          "duration": 1.7993749999999267
        },
        {
          "name": "C5",
          "midi": 72,
          "time": 86.69999999999972,
          "velocity": 0.5748031496062992,
          "duration": 1.6493749999999352
        },
        {
          "name": "E5",
          "midi": 76,
          "time": 89.54999999999966,
          "velocity": 0.5748031496062992,
          "duration": 1.4993749999999295
        },
        {
          "name": "D5",
          "midi": 74,
          "time": 91.04999999999959,
          "velocity": 0.3858267716535433,
          "duration": 0.7493750000000006
        },
        {
          "name": "C5",
          "midi": 72,
          "time": 91.79999999999959,
          "velocity": 0.3858267716535433,
          "duration": 0.7493750000000006
        },
        {
          "name": "G5",
          "midi": 79,
          "time": 92.54999999999959,
          "velocity": 0.5748031496062992,
          "duration": 1.4993749999999295
        },
        {
          "name": "A5",
          "midi": 81,
          "time": 94.04999999999951,
          "velocity": 0.5748031496062992,
          "duration": 1.4993749999999295
        },
        {
          "name": "D6",
          "midi": 86,
          "time": 95.54999999999944,
          "velocity": 0.5748031496062992,
          "duration": 1.4993749999999295
        },
        {
          "name": "A5",
          "midi": 81,
          "time": 97.79999999999937,
          "velocity": 0.3858267716535433,
          "duration": 0.14937500000000625
        },
        {
          "name": "G5",
          "midi": 79,
          "time": 97.94999999999938,
          "velocity": 0.3858267716535433,
          "duration": 0.14937500000000625
        },
        {
          "name": "F5",
          "midi": 77,
          "time": 98.09999999999938,
          "velocity": 0.3858267716535433,
          "duration": 0.14937500000000625
        },
        {
          "name": "E5",
          "midi": 76,
          "time": 98.24999999999939,
          "velocity": 0.3858267716535433,
          "duration": 0.14937500000000625
        },
        {
          "name": "F5",
          "midi": 77,
          "time": 98.3999999999994,
          "velocity": 0.3858267716535433,
          "duration": 0.14937500000000625
        },
        {
          "name": "G5",
          "midi": 79,
          "time": 98.5499999999994,
          "velocity": 0.3858267716535433,
          "duration": 1.4993750000000006
        },
        {
          "name": "A5",
          "midi": 81,
          "time": 100.0499999999994,
          "velocity": 0.3858267716535433,
          "duration": 1.6493750000000063
        },
        {
          "name": "A5",
          "midi": 81,
          "time": 101.6999999999994,
          "velocity": 0.3858267716535433,
          "duration": 0.07437500000000341
        },
        {
          "name": "A5",
          "midi": 81,
          "time": 101.84999999999941,
          "velocity": 0.3858267716535433,
          "duration": 0.07437500000000341
        },
        {
          "name": "A5",
          "midi": 81,
          "time": 101.99999999999942,
          "velocity": 0.3858267716535433,
          "duration": 0.07437500000000341
        },
        {
          "name": "A5",
          "midi": 81,
          "time": 102.14999999999942,
          "velocity": 0.3858267716535433,
          "duration": 0.07437500000000341
        },
        {
          "name": "A5",
          "midi": 81,
          "time": 102.29999999999943,
          "velocity": 0.3858267716535433,
          "duration": 0.07437500000000341
        },
        {
          "name": "A5",
          "midi": 81,
          "time": 102.37499999999943,
          "velocity": 0.3858267716535433,
          "duration": 0.036874999999994884
        },
        {
          "name": "A5",
          "midi": 81,
          "time": 102.44999999999942,
          "velocity": 0.3858267716535433,
          "duration": 0.07437500000000341
        },
        {
          "name": "E6",
          "midi": 88,
          "time": 102.59999999999943,
          "velocity": 0.3858267716535433,
          "duration": 0.07437500000000341
        },
        {
          "name": "E6",
          "midi": 88,
          "time": 102.74999999999943,
          "velocity": 0.3858267716535433,
          "duration": 0.07437500000000341
        },
        {
          "name": "E6",
          "midi": 88,
          "time": 102.89999999999944,
          "velocity": 0.3858267716535433,
          "duration": 0.07437500000000341
        },
        {
          "name": "E6",
          "midi": 88,
          "time": 103.04999999999944,
          "velocity": 0.3858267716535433,
          "duration": 0.07437500000000341
        },
        {
          "name": "E6",
          "midi": 88,
          "time": 103.19999999999945,
          "velocity": 0.3858267716535433,
          "duration": 0.07437500000000341
        },
        {
          "name": "E6",
          "midi": 88,
          "time": 103.27499999999945,
          "velocity": 0.3858267716535433,
          "duration": 0.036874999999994884
        },
        {
          "name": "E6",
          "midi": 88,
          "time": 103.34999999999944,
          "velocity": 0.3858267716535433,
          "duration": 0.07437500000000341
        }
      ],
      "controlChanges": {
        "2": [
          {
            "number": 2,
            "time": 3.15,
            "value": 0.5748031496062992
          },
          {
            "number": 2,
            "time": 3.150625,
            "value": 0.5748031496062992
          },
          {
            "number": 2,
            "time": 3.151875,
            "value": 0.5669291338582677
          },
          {
            "number": 2,
            "time": 3.155,
            "value": 0.5590551181102362
          },
          {
            "number": 2,
            "time": 3.1581249999999996,
            "value": 0.5511811023622047
          },
          {
            "number": 2,
            "time": 3.1612499999999994,
            "value": 0.5433070866141733
          },
          {
            "number": 2,
            "time": 3.1643749999999993,
            "value": 0.5354330708661418
          },
          {
            "number": 2,
            "time": 3.166874999999999,
            "value": 0.5275590551181102
          },
          {
            "number": 2,
            "time": 3.169999999999999,
            "value": 0.5196850393700787
          },
          {
            "number": 2,
            "time": 3.173124999999999,
            "value": 0.5118110236220472
          },
          {
            "number": 2,
            "time": 3.1762499999999987,
            "value": 0.5039370078740157
          },
          {
            "number": 2,
            "time": 3.1793749999999985,
            "value": 0.49606299212598426
          },
          {
            "number": 2,
            "time": 3.1824999999999983,
            "value": 0.4881889763779528
          },
          {
            "number": 2,
            "time": 3.185624999999998,
            "value": 0.48031496062992124
          },
          {
            "number": 2,
            "time": 3.188749999999998,
            "value": 0.47244094488188976
          },
          {
            "number": 2,
            "time": 3.191874999999998,
            "value": 0.4645669291338583
          },
          {
            "number": 2,
            "time": 3.1949999999999976,
            "value": 0.4566929133858268
          },
          {
            "number": 2,
            "time": 3.1974999999999976,
            "value": 0.44881889763779526
          },
          {
            "number": 2,
            "time": 3.2006249999999974,
            "value": 0.4409448818897638
          },
          {
            "number": 2,
            "time": 3.203749999999997,
            "value": 0.4330708661417323
          },
          {
            "number": 2,
            "time": 3.206874999999997,
            "value": 0.4251968503937008
          },
          {
            "number": 2,
            "time": 3.209999999999997,
            "value": 0.41732283464566927
          },
          {
            "number": 2,
            "time": 3.2131249999999967,
            "value": 0.4094488188976378
          },
          {
            "number": 2,
            "time": 3.2162499999999965,
            "value": 0.4015748031496063
          },
          {
            "number": 2,
            "time": 3.2193749999999963,
            "value": 0.3937007874015748
          },
          {
            "number": 2,
            "time": 3.222499999999996,
            "value": 0.3858267716535433
          },
          {
            "number": 2,
            "time": 3.599999999999996,
            "value": 0.3858267716535433
          },
          {
            "number": 2,
            "time": 3.749999999999996,
            "value": 0.3858267716535433
          },
          {
            "number": 2,
            "time": 4.049999999999996,
            "value": 0.3858267716535433
          },
          {
            "number": 2,
            "time": 4.349999999999996,
            "value": 0.3858267716535433
          },
          {
            "number": 2,
            "time": 4.4999999999999964,
            "value": 0.3858267716535433
          },
          {
            "number": 2,
            "time": 4.799999999999996,
            "value": 0.3858267716535433
          },
          {
            "number": 2,
            "time": 5.099999999999996,
            "value": 0.3858267716535433
          },
          {
            "number": 2,
            "time": 5.699999999999996,
            "value": 0.3858267716535433
          },
          {
            "number": 2,
            "time": 5.849999999999996,
            "value": 0.3858267716535433
          },
          {
            "number": 2,
            "time": 5.9999999999999964,
            "value": 0.5748031496062992
          },
          {
            "number": 2,
            "time": 6.000624999999997,
            "value": 0.5748031496062992
          },
          {
            "number": 2,
            "time": 6.001249999999997,
            "value": 0.5748031496062992
          },
          {
            "number": 2,
            "time": 6.001874999999997,
            "value": 0.5669291338582677
          },
          {
            "number": 2,
            "time": 6.002499999999998,
            "value": 0.5669291338582677
          },
          {
            "number": 2,
            "time": 6.003124999999998,
            "value": 0.5669291338582677
          },
          {
            "number": 2,
            "time": 6.003749999999998,
            "value": 0.5669291338582677
          },
          {
            "number": 2,
            "time": 6.004374999999999,
            "value": 0.5669291338582677
          },
          {
            "number": 2,
            "time": 6.004999999999999,
            "value": 0.5590551181102362
          },
          {
            "number": 2,
            "time": 6.005624999999999,
            "value": 0.5590551181102362
          },
          {
            "number": 2,
            "time": 6.00625,
            "value": 0.5590551181102362
          },
          {
            "number": 2,
            "time": 6.006875,
            "value": 0.5590551181102362
          },
          {
            "number": 2,
            "time": 6.0075,
            "value": 0.5590551181102362
          },
          {
            "number": 2,
            "time": 6.008125000000001,
            "value": 0.5511811023622047
          },
          {
            "number": 2,
            "time": 6.008750000000001,
            "value": 0.5511811023622047
          },
          {
            "number": 2,
            "time": 6.009375000000001,
            "value": 0.5511811023622047
          },
          {
            "number": 2,
            "time": 6.010000000000002,
            "value": 0.5511811023622047
          },
          {
            "number": 2,
            "time": 6.010625000000002,
            "value": 0.5511811023622047
          },
          {
            "number": 2,
            "time": 6.011250000000002,
            "value": 0.5433070866141733
          },
          {
            "number": 2,
            "time": 6.0118750000000025,
            "value": 0.5433070866141733
          },
          {
            "number": 2,
            "time": 6.012500000000003,
            "value": 0.5433070866141733
          },
          {
            "number": 2,
            "time": 6.013125000000003,
            "value": 0.5433070866141733
          },
          {
            "number": 2,
            "time": 6.0137500000000035,
            "value": 0.5433070866141733
          },
          {
            "number": 2,
            "time": 6.014375000000004,
            "value": 0.5354330708661418
          },
          {
            "number": 2,
            "time": 6.015000000000004,
            "value": 0.5354330708661418
          },
          {
            "number": 2,
            "time": 6.015625000000004,
            "value": 0.5354330708661418
          },
          {
            "number": 2,
            "time": 6.016250000000005,
            "value": 0.5354330708661418
          },
          {
            "number": 2,
            "time": 6.016875000000005,
            "value": 0.5275590551181102
          },
          {
            "number": 2,
            "time": 6.017500000000005,
            "value": 0.5275590551181102
          },
          {
            "number": 2,
            "time": 6.018125000000006,
            "value": 0.5275590551181102
          },
          {
            "number": 2,
            "time": 6.018750000000006,
            "value": 0.5275590551181102
          },
          {
            "number": 2,
            "time": 6.019375000000006,
            "value": 0.5275590551181102
          },
          {
            "number": 2,
            "time": 6.020000000000007,
            "value": 0.5196850393700787
          },
          {
            "number": 2,
            "time": 6.020625000000007,
            "value": 0.5196850393700787
          },
          {
            "number": 2,
            "time": 6.021250000000007,
            "value": 0.5196850393700787
          },
          {
            "number": 2,
            "time": 6.021875000000008,
            "value": 0.5196850393700787
          },
          {
            "number": 2,
            "time": 6.022500000000008,
            "value": 0.5196850393700787
          },
          {
            "number": 2,
            "time": 6.023125000000008,
            "value": 0.5118110236220472
          },
          {
            "number": 2,
            "time": 6.023750000000009,
            "value": 0.5118110236220472
          },
          {
            "number": 2,
            "time": 6.024375000000009,
            "value": 0.5118110236220472
          },
          {
            "number": 2,
            "time": 6.025000000000009,
            "value": 0.5118110236220472
          },
          {
            "number": 2,
            "time": 6.02562500000001,
            "value": 0.5118110236220472
          },
          {
            "number": 2,
            "time": 6.02625000000001,
            "value": 0.5039370078740157
          },
          {
            "number": 2,
            "time": 6.02687500000001,
            "value": 0.5039370078740157
          },
          {
            "number": 2,
            "time": 6.0275000000000105,
            "value": 0.5039370078740157
          },
          {
            "number": 2,
            "time": 6.028125000000011,
            "value": 0.5039370078740157
          },
          {
            "number": 2,
            "time": 6.028750000000011,
            "value": 0.5039370078740157
          },
          {
            "number": 2,
            "time": 6.0293750000000115,
            "value": 0.49606299212598426
          },
          {
            "number": 2,
            "time": 6.030000000000012,
            "value": 0.49606299212598426
          },
          {
            "number": 2,
            "time": 6.030625000000012,
            "value": 0.49606299212598426
          },
          {
            "number": 2,
            "time": 6.031250000000012,
            "value": 0.49606299212598426
          },
          {
            "number": 2,
            "time": 6.031875000000013,
            "value": 0.49606299212598426
          },
          {
            "number": 2,
            "time": 6.032500000000013,
            "value": 0.4881889763779528
          },
          {
            "number": 2,
            "time": 6.033125000000013,
            "value": 0.4881889763779528
          },
          {
            "number": 2,
            "time": 6.033750000000014,
            "value": 0.4881889763779528
          },
          {
            "number": 2,
            "time": 6.034375000000014,
            "value": 0.4881889763779528
          },
          {
            "number": 2,
            "time": 6.035000000000014,
            "value": 0.4881889763779528
          },
          {
            "number": 2,
            "time": 6.035625000000015,
            "value": 0.48031496062992124
          },
          {
            "number": 2,
            "time": 6.036250000000015,
            "value": 0.48031496062992124
          },
          {
            "number": 2,
            "time": 6.036875000000015,
            "value": 0.48031496062992124
          },
          {
            "number": 2,
            "time": 6.037500000000016,
            "value": 0.48031496062992124
          },
          {
            "number": 2,
            "time": 6.038125000000016,
            "value": 0.48031496062992124
          },
          {
            "number": 2,
            "time": 6.038750000000016,
            "value": 0.47244094488188976
          },
          {
            "number": 2,
            "time": 6.039375000000017,
            "value": 0.47244094488188976
          },
          {
            "number": 2,
            "time": 6.040000000000017,
            "value": 0.47244094488188976
          },
          {
            "number": 2,
            "time": 6.040625000000017,
            "value": 0.47244094488188976
          },
          {
            "number": 2,
            "time": 6.0412500000000176,
            "value": 0.47244094488188976
          },
          {
            "number": 2,
            "time": 6.041875000000018,
            "value": 0.4645669291338583
          },
          {
            "number": 2,
            "time": 6.042500000000018,
            "value": 0.4645669291338583
          },
          {
            "number": 2,
            "time": 6.0431250000000185,
            "value": 0.4645669291338583
          },
          {
            "number": 2,
            "time": 6.043750000000019,
            "value": 0.4645669291338583
          },
          {
            "number": 2,
            "time": 6.044375000000019,
            "value": 0.4645669291338583
          },
          {
            "number": 2,
            "time": 6.0450000000000195,
            "value": 0.4566929133858268
          },
          {
            "number": 2,
            "time": 6.04562500000002,
            "value": 0.4566929133858268
          },
          {
            "number": 2,
            "time": 6.04625000000002,
            "value": 0.4566929133858268
          },
          {
            "number": 2,
            "time": 6.04687500000002,
            "value": 0.4566929133858268
          },
          {
            "number": 2,
            "time": 6.047500000000021,
            "value": 0.44881889763779526
          },
          {
            "number": 2,
            "time": 6.048125000000021,
            "value": 0.44881889763779526
          },
          {
            "number": 2,
            "time": 6.048750000000021,
            "value": 0.44881889763779526
          },
          {
            "number": 2,
            "time": 6.049375000000022,
            "value": 0.44881889763779526
          },
          {
            "number": 2,
            "time": 6.050000000000022,
            "value": 0.44881889763779526
          },
          {
            "number": 2,
            "time": 6.050625000000022,
            "value": 0.4409448818897638
          },
          {
            "number": 2,
            "time": 6.051250000000023,
            "value": 0.4409448818897638
          },
          {
            "number": 2,
            "time": 6.051875000000023,
            "value": 0.4409448818897638
          },
          {
            "number": 2,
            "time": 6.052500000000023,
            "value": 0.4409448818897638
          },
          {
            "number": 2,
            "time": 6.053125000000024,
            "value": 0.4409448818897638
          },
          {
            "number": 2,
            "time": 6.053750000000024,
            "value": 0.4330708661417323
          },
          {
            "number": 2,
            "time": 6.054375000000024,
            "value": 0.4330708661417323
          },
          {
            "number": 2,
            "time": 6.055000000000025,
            "value": 0.4330708661417323
          },
          {
            "number": 2,
            "time": 6.055625000000025,
            "value": 0.4330708661417323
          },
          {
            "number": 2,
            "time": 6.056250000000025,
            "value": 0.4330708661417323
          },
          {
            "number": 2,
            "time": 6.0568750000000255,
            "value": 0.4251968503937008
          },
          {
            "number": 2,
            "time": 6.057500000000026,
            "value": 0.4251968503937008
          },
          {
            "number": 2,
            "time": 6.058125000000026,
            "value": 0.4251968503937008
          },
          {
            "number": 2,
            "time": 6.0587500000000265,
            "value": 0.4251968503937008
          },
          {
            "number": 2,
            "time": 6.059375000000027,
            "value": 0.4251968503937008
          },
          {
            "number": 2,
            "time": 6.060000000000027,
            "value": 0.41732283464566927
          },
          {
            "number": 2,
            "time": 6.0606250000000275,
            "value": 0.41732283464566927
          },
          {
            "number": 2,
            "time": 6.061250000000028,
            "value": 0.41732283464566927
          },
          {
            "number": 2,
            "time": 6.061875000000028,
            "value": 0.41732283464566927
          },
          {
            "number": 2,
            "time": 6.062500000000028,
            "value": 0.41732283464566927
          },
          {
            "number": 2,
            "time": 6.063125000000029,
            "value": 0.4094488188976378
          },
          {
            "number": 2,
            "time": 6.063750000000029,
            "value": 0.4094488188976378
          },
          {
            "number": 2,
            "time": 6.064375000000029,
            "value": 0.4094488188976378
          },
          {
            "number": 2,
            "time": 6.06500000000003,
            "value": 0.4094488188976378
          },
          {
            "number": 2,
            "time": 6.06562500000003,
            "value": 0.4094488188976378
          },
          {
            "number": 2,
            "time": 6.06625000000003,
            "value": 0.4015748031496063
          },
          {
            "number": 2,
            "time": 6.066875000000031,
            "value": 0.4015748031496063
          },
          {
            "number": 2,
            "time": 6.067500000000031,
            "value": 0.4015748031496063
          },
          {
            "number": 2,
            "time": 6.068125000000031,
            "value": 0.4015748031496063
          },
          {
            "number": 2,
            "time": 6.068750000000032,
            "value": 0.4015748031496063
          },
          {
            "number": 2,
            "time": 6.069375000000032,
            "value": 0.3937007874015748
          },
          {
            "number": 2,
            "time": 6.070000000000032,
            "value": 0.3937007874015748
          },
          {
            "number": 2,
            "time": 6.070625000000033,
            "value": 0.3937007874015748
          },
          {
            "number": 2,
            "time": 6.071250000000033,
            "value": 0.3937007874015748
          },
          {
            "number": 2,
            "time": 6.071875000000033,
            "value": 0.3937007874015748
          },
          {
            "number": 2,
            "time": 6.0725000000000335,
            "value": 0.3858267716535433
          },
          {
            "number": 2,
            "time": 6.073125000000034,
            "value": 0.3858267716535433
          },
          {
            "number": 2,
            "time": 6.073750000000034,
            "value": 0.3858267716535433
          },
          {
            "number": 2,
            "time": 6.0743750000000345,
            "value": 0.3858267716535433
          },
          {
            "number": 2,
            "time": 6.3000000000000345,
            "value": 0.3858267716535433
          },
          {
            "number": 2,
            "time": 6.600000000000034,
            "value": 0.3858267716535433
          },
          {
            "number": 2,
            "time": 6.750000000000035,
            "value": 0.3858267716535433
          },
          {
            "number": 2,
            "time": 7.0500000000000345,
            "value": 0.3858267716535433
          },
          {
            "number": 2,
            "time": 7.350000000000034,
            "value": 0.3858267716535433
          },
          {
            "number": 2,
            "time": 7.500000000000035,
            "value": 0.3858267716535433
          },
          {
            "number": 2,
            "time": 10.650000000000034,
            "value": 0.5748031496062992
          },
          {
            "number": 2,
            "time": 10.650625000000034,
            "value": 0.5748031496062992
          },
          {
            "number": 2,
            "time": 10.651250000000033,
            "value": 0.5748031496062992
          },
          {
            "number": 2,
            "time": 10.651875000000032,
            "value": 0.5669291338582677
          },
          {
            "number": 2,
            "time": 10.652500000000032,
            "value": 0.5669291338582677
          },
          {
            "number": 2,
            "time": 10.653125000000031,
            "value": 0.5669291338582677
          },
          {
            "number": 2,
            "time": 10.65375000000003,
            "value": 0.5669291338582677
          },
          {
            "number": 2,
            "time": 10.65437500000003,
            "value": 0.5669291338582677
          },
          {
            "number": 2,
            "time": 10.65500000000003,
            "value": 0.5590551181102362
          },
          {
            "number": 2,
            "time": 10.655625000000029,
            "value": 0.5590551181102362
          },
          {
            "number": 2,
            "time": 10.656250000000028,
            "value": 0.5590551181102362
          },
          {
            "number": 2,
            "time": 10.656875000000028,
            "value": 0.5590551181102362
          },
          {
            "number": 2,
            "time": 10.657500000000027,
            "value": 0.5590551181102362
          },
          {
            "number": 2,
            "time": 10.658125000000027,
            "value": 0.5511811023622047
          },
          {
            "number": 2,
            "time": 10.658750000000026,
            "value": 0.5511811023622047
          },
          {
            "number": 2,
            "time": 10.659375000000026,
            "value": 0.5511811023622047
          },
          {
            "number": 2,
            "time": 10.660000000000025,
            "value": 0.5511811023622047
          },
          {
            "number": 2,
            "time": 10.660625000000024,
            "value": 0.5511811023622047
          },
          {
            "number": 2,
            "time": 10.661250000000024,
            "value": 0.5433070866141733
          },
          {
            "number": 2,
            "time": 10.661875000000023,
            "value": 0.5433070866141733
          },
          {
            "number": 2,
            "time": 10.662500000000023,
            "value": 0.5433070866141733
          },
          {
            "number": 2,
            "time": 10.663125000000022,
            "value": 0.5433070866141733
          },
          {
            "number": 2,
            "time": 10.663750000000022,
            "value": 0.5433070866141733
          },
          {
            "number": 2,
            "time": 10.664375000000021,
            "value": 0.5354330708661418
          },
          {
            "number": 2,
            "time": 10.66500000000002,
            "value": 0.5354330708661418
          },
          {
            "number": 2,
            "time": 10.66562500000002,
            "value": 0.5354330708661418
          },
          {
            "number": 2,
            "time": 10.66625000000002,
            "value": 0.5354330708661418
          },
          {
            "number": 2,
            "time": 10.666875000000019,
            "value": 0.5275590551181102
          },
          {
            "number": 2,
            "time": 10.667500000000018,
            "value": 0.5275590551181102
          },
          {
            "number": 2,
            "time": 10.668125000000018,
            "value": 0.5275590551181102
          },
          {
            "number": 2,
            "time": 10.668750000000017,
            "value": 0.5275590551181102
          },
          {
            "number": 2,
            "time": 10.669375000000016,
            "value": 0.5275590551181102
          },
          {
            "number": 2,
            "time": 10.670000000000016,
            "value": 0.5196850393700787
          },
          {
            "number": 2,
            "time": 10.670625000000015,
            "value": 0.5196850393700787
          },
          {
            "number": 2,
            "time": 10.671250000000015,
            "value": 0.5196850393700787
          },
          {
            "number": 2,
            "time": 10.671875000000014,
            "value": 0.5196850393700787
          },
          {
            "number": 2,
            "time": 10.672500000000014,
            "value": 0.5196850393700787
          },
          {
            "number": 2,
            "time": 10.673125000000013,
            "value": 0.5118110236220472
          },
          {
            "number": 2,
            "time": 10.673750000000013,
            "value": 0.5118110236220472
          },
          {
            "number": 2,
            "time": 10.674375000000012,
            "value": 0.5118110236220472
          },
          {
            "number": 2,
            "time": 10.675000000000011,
            "value": 0.5118110236220472
          },
          {
            "number": 2,
            "time": 10.67562500000001,
            "value": 0.5118110236220472
          },
          {
            "number": 2,
            "time": 10.67625000000001,
            "value": 0.5039370078740157
          },
          {
            "number": 2,
            "time": 10.67687500000001,
            "value": 0.5039370078740157
          },
          {
            "number": 2,
            "time": 10.677500000000009,
            "value": 0.5039370078740157
          },
          {
            "number": 2,
            "time": 10.678125000000009,
            "value": 0.5039370078740157
          },
          {
            "number": 2,
            "time": 10.678750000000008,
            "value": 0.5039370078740157
          },
          {
            "number": 2,
            "time": 10.679375000000007,
            "value": 0.49606299212598426
          },
          {
            "number": 2,
            "time": 10.680000000000007,
            "value": 0.49606299212598426
          },
          {
            "number": 2,
            "time": 10.680625000000006,
            "value": 0.49606299212598426
          },
          {
            "number": 2,
            "time": 10.681250000000006,
            "value": 0.49606299212598426
          },
          {
            "number": 2,
            "time": 10.681875000000005,
            "value": 0.49606299212598426
          },
          {
            "number": 2,
            "time": 10.682500000000005,
            "value": 0.4881889763779528
          },
          {
            "number": 2,
            "time": 10.683125000000004,
            "value": 0.4881889763779528
          },
          {
            "number": 2,
            "time": 10.683750000000003,
            "value": 0.4881889763779528
          },
          {
            "number": 2,
            "time": 10.684375000000003,
            "value": 0.4881889763779528
          },
          {
            "number": 2,
            "time": 10.685000000000002,
            "value": 0.4881889763779528
          },
          {
            "number": 2,
            "time": 10.685625000000002,
            "value": 0.48031496062992124
          },
          {
            "number": 2,
            "time": 10.686250000000001,
            "value": 0.48031496062992124
          },
          {
            "number": 2,
            "time": 10.686875,
            "value": 0.48031496062992124
          },
          {
            "number": 2,
            "time": 10.6875,
            "value": 0.48031496062992124
          },
          {
            "number": 2,
            "time": 10.688125,
            "value": 0.48031496062992124
          },
          {
            "number": 2,
            "time": 10.688749999999999,
            "value": 0.47244094488188976
          },
          {
            "number": 2,
            "time": 10.689374999999998,
            "value": 0.47244094488188976
          },
          {
            "number": 2,
            "time": 10.689999999999998,
            "value": 0.47244094488188976
          },
          {
            "number": 2,
            "time": 10.690624999999997,
            "value": 0.47244094488188976
          },
          {
            "number": 2,
            "time": 10.691249999999997,
            "value": 0.47244094488188976
          },
          {
            "number": 2,
            "time": 10.691874999999996,
            "value": 0.4645669291338583
          },
          {
            "number": 2,
            "time": 10.692499999999995,
            "value": 0.4645669291338583
          },
          {
            "number": 2,
            "time": 10.693124999999995,
            "value": 0.4645669291338583
          },
          {
            "number": 2,
            "time": 10.693749999999994,
            "value": 0.4645669291338583
          },
          {
            "number": 2,
            "time": 10.694374999999994,
            "value": 0.4645669291338583
          },
          {
            "number": 2,
            "time": 10.694999999999993,
            "value": 0.4566929133858268
          },
          {
            "number": 2,
            "time": 10.695624999999993,
            "value": 0.4566929133858268
          },
          {
            "number": 2,
            "time": 10.696249999999992,
            "value": 0.4566929133858268
          },
          {
            "number": 2,
            "time": 10.696874999999991,
            "value": 0.4566929133858268
          },
          {
            "number": 2,
            "time": 10.697499999999991,
            "value": 0.44881889763779526
          },
          {
            "number": 2,
            "time": 10.69812499999999,
            "value": 0.44881889763779526
          },
          {
            "number": 2,
            "time": 10.69874999999999,
            "value": 0.44881889763779526
          },
          {
            "number": 2,
            "time": 10.69937499999999,
            "value": 0.44881889763779526
          },
          {
            "number": 2,
            "time": 10.699999999999989,
            "value": 0.44881889763779526
          },
          {
            "number": 2,
            "time": 10.700624999999988,
            "value": 0.4409448818897638
          },
          {
            "number": 2,
            "time": 10.701249999999987,
            "value": 0.4409448818897638
          },
          {
            "number": 2,
            "time": 10.701874999999987,
            "value": 0.4409448818897638
          },
          {
            "number": 2,
            "time": 10.702499999999986,
            "value": 0.4409448818897638
          },
          {
            "number": 2,
            "time": 10.703124999999986,
            "value": 0.4409448818897638
          },
          {
            "number": 2,
            "time": 10.703749999999985,
            "value": 0.4330708661417323
          },
          {
            "number": 2,
            "time": 10.704374999999985,
            "value": 0.4330708661417323
          },
          {
            "number": 2,
            "time": 10.704999999999984,
            "value": 0.4330708661417323
          },
          {
            "number": 2,
            "time": 10.705624999999984,
            "value": 0.4330708661417323
          },
          {
            "number": 2,
            "time": 10.706249999999983,
            "value": 0.4330708661417323
          },
          {
            "number": 2,
            "time": 10.706874999999982,
            "value": 0.4251968503937008
          },
          {
            "number": 2,
            "time": 10.707499999999982,
            "value": 0.4251968503937008
          },
          {
            "number": 2,
            "time": 10.708124999999981,
            "value": 0.4251968503937008
          },
          {
            "number": 2,
            "time": 10.70874999999998,
            "value": 0.4251968503937008
          },
          {
            "number": 2,
            "time": 10.70937499999998,
            "value": 0.4251968503937008
          },
          {
            "number": 2,
            "time": 10.70999999999998,
            "value": 0.41732283464566927
          },
          {
            "number": 2,
            "time": 10.710624999999979,
            "value": 0.41732283464566927
          },
          {
            "number": 2,
            "time": 10.711249999999978,
            "value": 0.41732283464566927
          },
          {
            "number": 2,
            "time": 10.711874999999978,
            "value": 0.41732283464566927
          },
          {
            "number": 2,
            "time": 10.712499999999977,
            "value": 0.41732283464566927
          },
          {
            "number": 2,
            "time": 10.713124999999977,
            "value": 0.4094488188976378
          },
          {
            "number": 2,
            "time": 10.713749999999976,
            "value": 0.4094488188976378
          },
          {
            "number": 2,
            "time": 10.714374999999976,
            "value": 0.4094488188976378
          },
          {
            "number": 2,
            "time": 10.714999999999975,
            "value": 0.4094488188976378
          },
          {
            "number": 2,
            "time": 10.715624999999974,
            "value": 0.4094488188976378
          },
          {
            "number": 2,
            "time": 10.716249999999974,
            "value": 0.4015748031496063
          },
          {
            "number": 2,
            "time": 10.716874999999973,
            "value": 0.4015748031496063
          },
          {
            "number": 2,
            "time": 10.717499999999973,
            "value": 0.4015748031496063
          },
          {
            "number": 2,
            "time": 10.718124999999972,
            "value": 0.4015748031496063
          },
          {
            "number": 2,
            "time": 10.718749999999972,
            "value": 0.4015748031496063
          },
          {
            "number": 2,
            "time": 10.719374999999971,
            "value": 0.3937007874015748
          },
          {
            "number": 2,
            "time": 10.71999999999997,
            "value": 0.3937007874015748
          },
          {
            "number": 2,
            "time": 10.72062499999997,
            "value": 0.3937007874015748
          },
          {
            "number": 2,
            "time": 10.72124999999997,
            "value": 0.3937007874015748
          },
          {
            "number": 2,
            "time": 10.721874999999969,
            "value": 0.3937007874015748
          },
          {
            "number": 2,
            "time": 10.722499999999968,
            "value": 0.3858267716535433
          },
          {
            "number": 2,
            "time": 10.723124999999968,
            "value": 0.3858267716535433
          },
          {
            "number": 2,
            "time": 10.723749999999967,
            "value": 0.3858267716535433
          },
          {
            "number": 2,
            "time": 10.724374999999966,
            "value": 0.3858267716535433
          },
          {
            "number": 2,
            "time": 10.799999999999967,
            "value": 0.3858267716535433
          },
          {
            "number": 2,
            "time": 11.099999999999968,
            "value": 0.3858267716535433
          },
          {
            "number": 2,
            "time": 11.249999999999968,
            "value": 0.3858267716535433
          },
          {
            "number": 2,
            "time": 11.549999999999969,
            "value": 0.3858267716535433
          },
          {
            "number": 2,
            "time": 11.84999999999997,
            "value": 0.3858267716535433
          },
          {
            "number": 2,
            "time": 11.99999999999997,
            "value": 0.3858267716535433
          },
          {
            "number": 2,
            "time": 13.49999999999997,
            "value": 0.5748031496062992
          },
          {
            "number": 2,
            "time": 13.50062499999997,
            "value": 0.5748031496062992
          },
          {
            "number": 2,
            "time": 13.501249999999969,
            "value": 0.5748031496062992
          },
          {
            "number": 2,
            "time": 13.501874999999968,
            "value": 0.5669291338582677
          },
          {
            "number": 2,
            "time": 13.502499999999968,
            "value": 0.5669291338582677
          },
          {
            "number": 2,
            "time": 13.503124999999967,
            "value": 0.5669291338582677
          },
          {
            "number": 2,
            "time": 13.503749999999966,
            "value": 0.5669291338582677
          },
          {
            "number": 2,
            "time": 13.504374999999966,
            "value": 0.5669291338582677
          },
          {
            "number": 2,
            "time": 13.504999999999965,
            "value": 0.5590551181102362
          },
          {
            "number": 2,
            "time": 13.505624999999965,
            "value": 0.5590551181102362
          },
          {
            "number": 2,
            "time": 13.506249999999964,
            "value": 0.5590551181102362
          },
          {
            "number": 2,
            "time": 13.506874999999964,
            "value": 0.5590551181102362
          },
          {
            "number": 2,
            "time": 13.507499999999963,
            "value": 0.5590551181102362
          },
          {
            "number": 2,
            "time": 13.508124999999962,
            "value": 0.5511811023622047
          },
          {
            "number": 2,
            "time": 13.508749999999962,
            "value": 0.5511811023622047
          },
          {
            "number": 2,
            "time": 13.509374999999961,
            "value": 0.5511811023622047
          },
          {
            "number": 2,
            "time": 13.50999999999996,
            "value": 0.5511811023622047
          },
          {
            "number": 2,
            "time": 13.51062499999996,
            "value": 0.5511811023622047
          },
          {
            "number": 2,
            "time": 13.51124999999996,
            "value": 0.5433070866141733
          },
          {
            "number": 2,
            "time": 13.511874999999959,
            "value": 0.5433070866141733
          },
          {
            "number": 2,
            "time": 13.512499999999958,
            "value": 0.5433070866141733
          },
          {
            "number": 2,
            "time": 13.513124999999958,
            "value": 0.5433070866141733
          },
          {
            "number": 2,
            "time": 13.513749999999957,
            "value": 0.5433070866141733
          },
          {
            "number": 2,
            "time": 13.514374999999957,
            "value": 0.5354330708661418
          },
          {
            "number": 2,
            "time": 13.514999999999956,
            "value": 0.5354330708661418
          },
          {
            "number": 2,
            "time": 13.515624999999956,
            "value": 0.5354330708661418
          },
          {
            "number": 2,
            "time": 13.516249999999955,
            "value": 0.5354330708661418
          },
          {
            "number": 2,
            "time": 13.516874999999954,
            "value": 0.5275590551181102
          },
          {
            "number": 2,
            "time": 13.517499999999954,
            "value": 0.5275590551181102
          },
          {
            "number": 2,
            "time": 13.518124999999953,
            "value": 0.5275590551181102
          },
          {
            "number": 2,
            "time": 13.518749999999953,
            "value": 0.5275590551181102
          },
          {
            "number": 2,
            "time": 13.519374999999952,
            "value": 0.5275590551181102
          },
          {
            "number": 2,
            "time": 13.519999999999952,
            "value": 0.5196850393700787
          },
          {
            "number": 2,
            "time": 13.520624999999951,
            "value": 0.5196850393700787
          },
          {
            "number": 2,
            "time": 13.52124999999995,
            "value": 0.5196850393700787
          },
          {
            "number": 2,
            "time": 13.52187499999995,
            "value": 0.5196850393700787
          },
          {
            "number": 2,
            "time": 13.52249999999995,
            "value": 0.5196850393700787
          },
          {
            "number": 2,
            "time": 13.523124999999949,
            "value": 0.5118110236220472
          },
          {
            "number": 2,
            "time": 13.523749999999948,
            "value": 0.5118110236220472
          },
          {
            "number": 2,
            "time": 13.524374999999948,
            "value": 0.5196850393700787
          },
          {
            "number": 2,
            "time": 13.524999999999947,
            "value": 0.5196850393700787
          },
          {
            "number": 2,
            "time": 13.525624999999946,
            "value": 0.5196850393700787
          },
          {
            "number": 2,
            "time": 13.526249999999946,
            "value": 0.5196850393700787
          },
          {
            "number": 2,
            "time": 13.526874999999945,
            "value": 0.5196850393700787
          },
          {
            "number": 2,
            "time": 13.527499999999945,
            "value": 0.5118110236220472
          },
          {
            "number": 2,
            "time": 13.528124999999944,
            "value": 0.5118110236220472
          },
          {
            "number": 2,
            "time": 13.528749999999944,
            "value": 0.5118110236220472
          },
          {
            "number": 2,
            "time": 13.529374999999943,
            "value": 0.5118110236220472
          },
          {
            "number": 2,
            "time": 13.529999999999943,
            "value": 0.5118110236220472
          },
          {
            "number": 2,
            "time": 13.530624999999942,
            "value": 0.5039370078740157
          },
          {
            "number": 2,
            "time": 13.531249999999941,
            "value": 0.5039370078740157
          },
          {
            "number": 2,
            "time": 13.53187499999994,
            "value": 0.5039370078740157
          },
          {
            "number": 2,
            "time": 13.53249999999994,
            "value": 0.5039370078740157
          },
          {
            "number": 2,
            "time": 13.53312499999994,
            "value": 0.49606299212598426
          },
          {
            "number": 2,
            "time": 13.533749999999939,
            "value": 0.49606299212598426
          },
          {
            "number": 2,
            "time": 13.534374999999939,
            "value": 0.49606299212598426
          },
          {
            "number": 2,
            "time": 13.534999999999938,
            "value": 0.49606299212598426
          },
          {
            "number": 2,
            "time": 13.535624999999937,
            "value": 0.49606299212598426
          },
          {
            "number": 2,
            "time": 13.536249999999937,
            "value": 0.4881889763779528
          },
          {
            "number": 2,
            "time": 13.536874999999936,
            "value": 0.4881889763779528
          },
          {
            "number": 2,
            "time": 13.537499999999936,
            "value": 0.4881889763779528
          },
          {
            "number": 2,
            "time": 13.538124999999935,
            "value": 0.4881889763779528
          },
          {
            "number": 2,
            "time": 13.538749999999935,
            "value": 0.4881889763779528
          },
          {
            "number": 2,
            "time": 13.539374999999934,
            "value": 0.48031496062992124
          },
          {
            "number": 2,
            "time": 13.539999999999933,
            "value": 0.48031496062992124
          },
          {
            "number": 2,
            "time": 13.540624999999933,
            "value": 0.48031496062992124
          },
          {
            "number": 2,
            "time": 13.541249999999932,
            "value": 0.48031496062992124
          },
          {
            "number": 2,
            "time": 13.541874999999932,
            "value": 0.48031496062992124
          },
          {
            "number": 2,
            "time": 13.542499999999931,
            "value": 0.47244094488188976
          },
          {
            "number": 2,
            "time": 13.54312499999993,
            "value": 0.47244094488188976
          },
          {
            "number": 2,
            "time": 13.54374999999993,
            "value": 0.47244094488188976
          },
          {
            "number": 2,
            "time": 13.54437499999993,
            "value": 0.47244094488188976
          },
          {
            "number": 2,
            "time": 13.544999999999929,
            "value": 0.47244094488188976
          },
          {
            "number": 2,
            "time": 13.545624999999928,
            "value": 0.4645669291338583
          },
          {
            "number": 2,
            "time": 13.546249999999928,
            "value": 0.4645669291338583
          },
          {
            "number": 2,
            "time": 13.546874999999927,
            "value": 0.4645669291338583
          },
          {
            "number": 2,
            "time": 13.547499999999927,
            "value": 0.4645669291338583
          },
          {
            "number": 2,
            "time": 13.548124999999926,
            "value": 0.4566929133858268
          },
          {
            "number": 2,
            "time": 13.548749999999925,
            "value": 0.4645669291338583
          },
          {
            "number": 2,
            "time": 13.549374999999925,
            "value": 0.4645669291338583
          },
          {
            "number": 2,
            "time": 13.549999999999924,
            "value": 0.4645669291338583
          },
          {
            "number": 2,
            "time": 13.550624999999924,
            "value": 0.4645669291338583
          },
          {
            "number": 2,
            "time": 13.551249999999923,
            "value": 0.4645669291338583
          },
          {
            "number": 2,
            "time": 13.551874999999923,
            "value": 0.4566929133858268
          },
          {
            "number": 2,
            "time": 13.552499999999922,
            "value": 0.4566929133858268
          },
          {
            "number": 2,
            "time": 13.553124999999921,
            "value": 0.4566929133858268
          },
          {
            "number": 2,
            "time": 13.553749999999921,
            "value": 0.4566929133858268
          },
          {
            "number": 2,
            "time": 13.55437499999992,
            "value": 0.4566929133858268
          },
          {
            "number": 2,
            "time": 13.55499999999992,
            "value": 0.44881889763779526
          },
          {
            "number": 2,
            "time": 13.55562499999992,
            "value": 0.44881889763779526
          },
          {
            "number": 2,
            "time": 13.556249999999919,
            "value": 0.44881889763779526
          },
          {
            "number": 2,
            "time": 13.556874999999918,
            "value": 0.44881889763779526
          },
          {
            "number": 2,
            "time": 13.557499999999918,
            "value": 0.4409448818897638
          },
          {
            "number": 2,
            "time": 13.558124999999917,
            "value": 0.4409448818897638
          },
          {
            "number": 2,
            "time": 13.558749999999916,
            "value": 0.4409448818897638
          },
          {
            "number": 2,
            "time": 13.559374999999916,
            "value": 0.4409448818897638
          },
          {
            "number": 2,
            "time": 13.559999999999915,
            "value": 0.4409448818897638
          },
          {
            "number": 2,
            "time": 13.560624999999915,
            "value": 0.4330708661417323
          },
          {
            "number": 2,
            "time": 13.561249999999914,
            "value": 0.4330708661417323
          },
          {
            "number": 2,
            "time": 13.561874999999914,
            "value": 0.4330708661417323
          },
          {
            "number": 2,
            "time": 13.562499999999913,
            "value": 0.4330708661417323
          },
          {
            "number": 2,
            "time": 13.563124999999912,
            "value": 0.4330708661417323
          },
          {
            "number": 2,
            "time": 13.563749999999912,
            "value": 0.4251968503937008
          },
          {
            "number": 2,
            "time": 13.564374999999911,
            "value": 0.4251968503937008
          },
          {
            "number": 2,
            "time": 13.56499999999991,
            "value": 0.4251968503937008
          },
          {
            "number": 2,
            "time": 13.56562499999991,
            "value": 0.4251968503937008
          },
          {
            "number": 2,
            "time": 13.56624999999991,
            "value": 0.41732283464566927
          },
          {
            "number": 2,
            "time": 13.566874999999909,
            "value": 0.41732283464566927
          },
          {
            "number": 2,
            "time": 13.567499999999908,
            "value": 0.41732283464566927
          },
          {
            "number": 2,
            "time": 13.568124999999908,
            "value": 0.41732283464566927
          },
          {
            "number": 2,
            "time": 13.568749999999907,
            "value": 0.41732283464566927
          },
          {
            "number": 2,
            "time": 13.569374999999907,
            "value": 0.4094488188976378
          },
          {
            "number": 2,
            "time": 13.569999999999906,
            "value": 0.4094488188976378
          },
          {
            "number": 2,
            "time": 13.570624999999906,
            "value": 0.4094488188976378
          },
          {
            "number": 2,
            "time": 13.571249999999905,
            "value": 0.4094488188976378
          },
          {
            "number": 2,
            "time": 13.571874999999904,
            "value": 0.4094488188976378
          },
          {
            "number": 2,
            "time": 13.572499999999904,
            "value": 0.4015748031496063
          },
          {
            "number": 2,
            "time": 13.573124999999903,
            "value": 0.4094488188976378
          },
          {
            "number": 2,
            "time": 13.573749999999903,
            "value": 0.4094488188976378
          },
          {
            "number": 2,
            "time": 13.574374999999902,
            "value": 0.4094488188976378
          },
          {
            "number": 2,
            "time": 13.596874999999903,
            "value": 0.41732283464566927
          },
          {
            "number": 2,
            "time": 13.621249999999902,
            "value": 0.4251968503937008
          },
          {
            "number": 2,
            "time": 13.645624999999901,
            "value": 0.4330708661417323
          },
          {
            "number": 2,
            "time": 13.669374999999901,
            "value": 0.4409448818897638
          },
          {
            "number": 2,
            "time": 13.6937499999999,
            "value": 0.44881889763779526
          },
          {
            "number": 2,
            "time": 13.7181249999999,
            "value": 0.4566929133858268
          },
          {
            "number": 2,
            "time": 13.742499999999898,
            "value": 0.4645669291338583
          },
          {
            "number": 2,
            "time": 13.766249999999898,
            "value": 0.47244094488188976
          },
          {
            "number": 2,
            "time": 13.790624999999897,
            "value": 0.48031496062992124
          },
          {
            "number": 2,
            "time": 13.799999999999898,
            "value": 0.48031496062992124
          },
          {
            "number": 2,
            "time": 13.814999999999898,
            "value": 0.4881889763779528
          },
          {
            "number": 2,
            "time": 13.838749999999898,
            "value": 0.49606299212598426
          },
          {
            "number": 2,
            "time": 13.863124999999897,
            "value": 0.5039370078740157
          },
          {
            "number": 2,
            "time": 13.887499999999896,
            "value": 0.5118110236220472
          },
          {
            "number": 2,
            "time": 13.911874999999895,
            "value": 0.5196850393700787
          },
          {
            "number": 2,
            "time": 13.935624999999895,
            "value": 0.5275590551181102
          },
          {
            "number": 2,
            "time": 13.959999999999894,
            "value": 0.5354330708661418
          },
          {
            "number": 2,
            "time": 13.984374999999893,
            "value": 0.5433070866141733
          },
          {
            "number": 2,
            "time": 14.008124999999893,
            "value": 0.5511811023622047
          },
          {
            "number": 2,
            "time": 14.032499999999892,
            "value": 0.5590551181102362
          },
          {
            "number": 2,
            "time": 14.056874999999891,
            "value": 0.5669291338582677
          },
          {
            "number": 2,
            "time": 14.08124999999989,
            "value": 0.5748031496062992
          },
          {
            "number": 2,
            "time": 14.099999999999891,
            "value": 0.5748031496062992
          },
          {
            "number": 2,
            "time": 14.104999999999892,
            "value": 0.5826771653543307
          },
          {
            "number": 2,
            "time": 14.129374999999891,
            "value": 0.5905511811023622
          },
          {
            "number": 2,
            "time": 14.15374999999989,
            "value": 0.5984251968503937
          },
          {
            "number": 2,
            "time": 14.17749999999989,
            "value": 0.6062992125984252
          },
          {
            "number": 2,
            "time": 14.20187499999989,
            "value": 0.6141732283464567
          },
          {
            "number": 2,
            "time": 14.226249999999888,
            "value": 0.6220472440944882
          },
          {
            "number": 2,
            "time": 14.249999999999888,
            "value": 0.6299212598425197
          },
          {
            "number": 2,
            "time": 14.549999999999889,
            "value": 0.6299212598425197
          },
          {
            "number": 2,
            "time": 14.84999999999989,
            "value": 0.6299212598425197
          },
          {
            "number": 2,
            "time": 14.999999999999888,
            "value": 0.6299212598425197
          },
          {
            "number": 2,
            "time": 15.299999999999889,
            "value": 0.6299212598425197
          },
          {
            "number": 2,
            "time": 15.59999999999989,
            "value": 0.6299212598425197
          },
          {
            "number": 2,
            "time": 15.749999999999888,
            "value": 0.6299212598425197
          },
          {
            "number": 2,
            "time": 16.049999999999887,
            "value": 0.6299212598425197
          },
          {
            "number": 2,
            "time": 16.349999999999888,
            "value": 0.6299212598425197
          },
          {
            "number": 2,
            "time": 16.499999999999886,
            "value": 0.9448818897637795
          },
          {
            "number": 2,
            "time": 16.500624999999886,
            "value": 0.937007874015748
          },
          {
            "number": 2,
            "time": 16.501249999999885,
            "value": 0.937007874015748
          },
          {
            "number": 2,
            "time": 16.501874999999885,
            "value": 0.937007874015748
          },
          {
            "number": 2,
            "time": 16.502499999999884,
            "value": 0.9291338582677166
          },
          {
            "number": 2,
            "time": 16.503124999999883,
            "value": 0.9291338582677166
          },
          {
            "number": 2,
            "time": 16.503749999999883,
            "value": 0.9291338582677166
          },
          {
            "number": 2,
            "time": 16.504374999999882,
            "value": 0.9212598425196851
          },
          {
            "number": 2,
            "time": 16.50499999999988,
            "value": 0.9212598425196851
          },
          {
            "number": 2,
            "time": 16.50562499999988,
            "value": 0.9212598425196851
          },
          {
            "number": 2,
            "time": 16.50624999999988,
            "value": 0.9133858267716536
          },
          {
            "number": 2,
            "time": 16.50687499999988,
            "value": 0.9133858267716536
          },
          {
            "number": 2,
            "time": 16.50749999999988,
            "value": 0.9133858267716536
          },
          {
            "number": 2,
            "time": 16.50812499999988,
            "value": 0.905511811023622
          },
          {
            "number": 2,
            "time": 16.50874999999988,
            "value": 0.905511811023622
          },
          {
            "number": 2,
            "time": 16.509374999999878,
            "value": 0.905511811023622
          },
          {
            "number": 2,
            "time": 16.509999999999877,
            "value": 0.8976377952755905
          },
          {
            "number": 2,
            "time": 16.510624999999877,
            "value": 0.8976377952755905
          },
          {
            "number": 2,
            "time": 16.511249999999876,
            "value": 0.8976377952755905
          },
          {
            "number": 2,
            "time": 16.511874999999876,
            "value": 0.889763779527559
          },
          {
            "number": 2,
            "time": 16.512499999999875,
            "value": 0.889763779527559
          },
          {
            "number": 2,
            "time": 16.513124999999874,
            "value": 0.889763779527559
          },
          {
            "number": 2,
            "time": 16.513749999999874,
            "value": 0.8818897637795275
          },
          {
            "number": 2,
            "time": 16.514374999999873,
            "value": 0.8818897637795275
          },
          {
            "number": 2,
            "time": 16.514999999999873,
            "value": 0.8818897637795275
          },
          {
            "number": 2,
            "time": 16.515624999999872,
            "value": 0.8740157480314961
          },
          {
            "number": 2,
            "time": 16.51624999999987,
            "value": 0.8740157480314961
          },
          {
            "number": 2,
            "time": 16.51687499999987,
            "value": 0.8740157480314961
          },
          {
            "number": 2,
            "time": 16.51749999999987,
            "value": 0.8661417322834646
          },
          {
            "number": 2,
            "time": 16.51812499999987,
            "value": 0.8661417322834646
          },
          {
            "number": 2,
            "time": 16.51874999999987,
            "value": 0.8661417322834646
          },
          {
            "number": 2,
            "time": 16.51937499999987,
            "value": 0.8582677165354331
          },
          {
            "number": 2,
            "time": 16.519999999999868,
            "value": 0.8582677165354331
          },
          {
            "number": 2,
            "time": 16.520624999999868,
            "value": 0.8582677165354331
          },
          {
            "number": 2,
            "time": 16.521249999999867,
            "value": 0.8503937007874016
          },
          {
            "number": 2,
            "time": 16.521874999999866,
            "value": 0.8503937007874016
          },
          {
            "number": 2,
            "time": 16.522499999999866,
            "value": 0.8503937007874016
          },
          {
            "number": 2,
            "time": 16.523124999999865,
            "value": 0.84251968503937
          },
          {
            "number": 2,
            "time": 16.523749999999865,
            "value": 0.84251968503937
          },
          {
            "number": 2,
            "time": 16.524374999999864,
            "value": 0.84251968503937
          },
          {
            "number": 2,
            "time": 16.524999999999864,
            "value": 0.8346456692913385
          },
          {
            "number": 2,
            "time": 16.525624999999863,
            "value": 0.8346456692913385
          },
          {
            "number": 2,
            "time": 16.526249999999862,
            "value": 0.8346456692913385
          },
          {
            "number": 2,
            "time": 16.526874999999862,
            "value": 0.8267716535433071
          },
          {
            "number": 2,
            "time": 16.52749999999986,
            "value": 0.8267716535433071
          },
          {
            "number": 2,
            "time": 16.52812499999986,
            "value": 0.8267716535433071
          },
          {
            "number": 2,
            "time": 16.52874999999986,
            "value": 0.8188976377952756
          },
          {
            "number": 2,
            "time": 16.52937499999986,
            "value": 0.8188976377952756
          },
          {
            "number": 2,
            "time": 16.52999999999986,
            "value": 0.8188976377952756
          },
          {
            "number": 2,
            "time": 16.53062499999986,
            "value": 0.8110236220472441
          },
          {
            "number": 2,
            "time": 16.531249999999858,
            "value": 0.8110236220472441
          },
          {
            "number": 2,
            "time": 16.531874999999857,
            "value": 0.8110236220472441
          },
          {
            "number": 2,
            "time": 16.532499999999857,
            "value": 0.8031496062992126
          },
          {
            "number": 2,
            "time": 16.533124999999856,
            "value": 0.8031496062992126
          },
          {
            "number": 2,
            "time": 16.533749999999856,
            "value": 0.8031496062992126
          },
          {
            "number": 2,
            "time": 16.534374999999855,
            "value": 0.7952755905511811
          },
          {
            "number": 2,
            "time": 16.534999999999854,
            "value": 0.7952755905511811
          },
          {
            "number": 2,
            "time": 16.535624999999854,
            "value": 0.7952755905511811
          },
          {
            "number": 2,
            "time": 16.536249999999853,
            "value": 0.7874015748031497
          },
          {
            "number": 2,
            "time": 16.536874999999853,
            "value": 0.7874015748031497
          },
          {
            "number": 2,
            "time": 16.537499999999852,
            "value": 0.7874015748031497
          },
          {
            "number": 2,
            "time": 16.53812499999985,
            "value": 0.7795275590551181
          },
          {
            "number": 2,
            "time": 16.53874999999985,
            "value": 0.7795275590551181
          },
          {
            "number": 2,
            "time": 16.53937499999985,
            "value": 0.7795275590551181
          },
          {
            "number": 2,
            "time": 16.53999999999985,
            "value": 0.7716535433070866
          },
          {
            "number": 2,
            "time": 16.54062499999985,
            "value": 0.7716535433070866
          },
          {
            "number": 2,
            "time": 16.54124999999985,
            "value": 0.7716535433070866
          },
          {
            "number": 2,
            "time": 16.54187499999985,
            "value": 0.7637795275590551
          },
          {
            "number": 2,
            "time": 16.542499999999848,
            "value": 0.7637795275590551
          },
          {
            "number": 2,
            "time": 16.543124999999847,
            "value": 0.7637795275590551
          },
          {
            "number": 2,
            "time": 16.543749999999847,
            "value": 0.7559055118110236
          },
          {
            "number": 2,
            "time": 16.544374999999846,
            "value": 0.7559055118110236
          },
          {
            "number": 2,
            "time": 16.544999999999845,
            "value": 0.7559055118110236
          },
          {
            "number": 2,
            "time": 16.545624999999845,
            "value": 0.7480314960629921
          },
          {
            "number": 2,
            "time": 16.546249999999844,
            "value": 0.7480314960629921
          },
          {
            "number": 2,
            "time": 16.546874999999844,
            "value": 0.7480314960629921
          },
          {
            "number": 2,
            "time": 16.547499999999843,
            "value": 0.7401574803149606
          },
          {
            "number": 2,
            "time": 16.548124999999843,
            "value": 0.7401574803149606
          },
          {
            "number": 2,
            "time": 16.548749999999842,
            "value": 0.7401574803149606
          },
          {
            "number": 2,
            "time": 16.54937499999984,
            "value": 0.7322834645669292
          },
          {
            "number": 2,
            "time": 16.54999999999984,
            "value": 0.7322834645669292
          },
          {
            "number": 2,
            "time": 16.55062499999984,
            "value": 0.7322834645669292
          },
          {
            "number": 2,
            "time": 16.55124999999984,
            "value": 0.7244094488188977
          },
          {
            "number": 2,
            "time": 16.55187499999984,
            "value": 0.7244094488188977
          },
          {
            "number": 2,
            "time": 16.55249999999984,
            "value": 0.7244094488188977
          },
          {
            "number": 2,
            "time": 16.553124999999838,
            "value": 0.7165354330708661
          },
          {
            "number": 2,
            "time": 16.553749999999837,
            "value": 0.7165354330708661
          },
          {
            "number": 2,
            "time": 16.554374999999837,
            "value": 0.7165354330708661
          },
          {
            "number": 2,
            "time": 16.554999999999836,
            "value": 0.7086614173228346
          },
          {
            "number": 2,
            "time": 16.555624999999836,
            "value": 0.7086614173228346
          },
          {
            "number": 2,
            "time": 16.556249999999835,
            "value": 0.7086614173228346
          },
          {
            "number": 2,
            "time": 16.556874999999835,
            "value": 0.7007874015748031
          },
          {
            "number": 2,
            "time": 16.557499999999834,
            "value": 0.7007874015748031
          },
          {
            "number": 2,
            "time": 16.558124999999833,
            "value": 0.7007874015748031
          },
          {
            "number": 2,
            "time": 16.558749999999833,
            "value": 0.6929133858267716
          },
          {
            "number": 2,
            "time": 16.559374999999832,
            "value": 0.6929133858267716
          },
          {
            "number": 2,
            "time": 16.55999999999983,
            "value": 0.6929133858267716
          },
          {
            "number": 2,
            "time": 16.56062499999983,
            "value": 0.6850393700787402
          },
          {
            "number": 2,
            "time": 16.56124999999983,
            "value": 0.6850393700787402
          },
          {
            "number": 2,
            "time": 16.56187499999983,
            "value": 0.6850393700787402
          },
          {
            "number": 2,
            "time": 16.56249999999983,
            "value": 0.6771653543307087
          },
          {
            "number": 2,
            "time": 16.56312499999983,
            "value": 0.6771653543307087
          },
          {
            "number": 2,
            "time": 16.56374999999983,
            "value": 0.6771653543307087
          },
          {
            "number": 2,
            "time": 16.564374999999828,
            "value": 0.6692913385826772
          },
          {
            "number": 2,
            "time": 16.564999999999827,
            "value": 0.6692913385826772
          },
          {
            "number": 2,
            "time": 16.565624999999827,
            "value": 0.6692913385826772
          },
          {
            "number": 2,
            "time": 16.566249999999826,
            "value": 0.6614173228346457
          },
          {
            "number": 2,
            "time": 16.566874999999825,
            "value": 0.6614173228346457
          },
          {
            "number": 2,
            "time": 16.567499999999825,
            "value": 0.6614173228346457
          },
          {
            "number": 2,
            "time": 16.568124999999824,
            "value": 0.6535433070866141
          },
          {
            "number": 2,
            "time": 16.568749999999824,
            "value": 0.6535433070866141
          },
          {
            "number": 2,
            "time": 16.569374999999823,
            "value": 0.6535433070866141
          },
          {
            "number": 2,
            "time": 16.569999999999823,
            "value": 0.6456692913385826
          },
          {
            "number": 2,
            "time": 16.570624999999822,
            "value": 0.6456692913385826
          },
          {
            "number": 2,
            "time": 16.57124999999982,
            "value": 0.6456692913385826
          },
          {
            "number": 2,
            "time": 16.57187499999982,
            "value": 0.6377952755905512
          },
          {
            "number": 2,
            "time": 16.57249999999982,
            "value": 0.6377952755905512
          },
          {
            "number": 2,
            "time": 16.57312499999982,
            "value": 0.6377952755905512
          },
          {
            "number": 2,
            "time": 16.57374999999982,
            "value": 0.6299212598425197
          },
          {
            "number": 2,
            "time": 16.57437499999982,
            "value": 0.6299212598425197
          },
          {
            "number": 2,
            "time": 16.79999999999982,
            "value": 0.6299212598425197
          },
          {
            "number": 2,
            "time": 17.09999999999982,
            "value": 0.6299212598425197
          },
          {
            "number": 2,
            "time": 17.24999999999982,
            "value": 0.6299212598425197
          },
          {
            "number": 2,
            "time": 17.54999999999982,
            "value": 0.6299212598425197
          },
          {
            "number": 2,
            "time": 17.84999999999982,
            "value": 0.6299212598425197
          },
          {
            "number": 2,
            "time": 17.99999999999982,
            "value": 0.9448818897637795
          },
          {
            "number": 2,
            "time": 18.00062499999982,
            "value": 0.937007874015748
          },
          {
            "number": 2,
            "time": 18.001249999999818,
            "value": 0.937007874015748
          },
          {
            "number": 2,
            "time": 18.001874999999817,
            "value": 0.937007874015748
          },
          {
            "number": 2,
            "time": 18.002499999999817,
            "value": 0.9291338582677166
          },
          {
            "number": 2,
            "time": 18.003124999999816,
            "value": 0.9291338582677166
          },
          {
            "number": 2,
            "time": 18.003749999999815,
            "value": 0.9291338582677166
          },
          {
            "number": 2,
            "time": 18.004374999999815,
            "value": 0.9212598425196851
          },
          {
            "number": 2,
            "time": 18.004999999999814,
            "value": 0.9212598425196851
          },
          {
            "number": 2,
            "time": 18.005624999999814,
            "value": 0.9212598425196851
          },
          {
            "number": 2,
            "time": 18.006249999999813,
            "value": 0.9133858267716536
          },
          {
            "number": 2,
            "time": 18.006874999999813,
            "value": 0.9133858267716536
          },
          {
            "number": 2,
            "time": 18.007499999999812,
            "value": 0.9133858267716536
          },
          {
            "number": 2,
            "time": 18.00812499999981,
            "value": 0.905511811023622
          },
          {
            "number": 2,
            "time": 18.00874999999981,
            "value": 0.905511811023622
          },
          {
            "number": 2,
            "time": 18.00937499999981,
            "value": 0.905511811023622
          },
          {
            "number": 2,
            "time": 18.00999999999981,
            "value": 0.8976377952755905
          },
          {
            "number": 2,
            "time": 18.01062499999981,
            "value": 0.8976377952755905
          },
          {
            "number": 2,
            "time": 18.01124999999981,
            "value": 0.8976377952755905
          },
          {
            "number": 2,
            "time": 18.011874999999808,
            "value": 0.889763779527559
          },
          {
            "number": 2,
            "time": 18.012499999999807,
            "value": 0.889763779527559
          },
          {
            "number": 2,
            "time": 18.013124999999807,
            "value": 0.889763779527559
          },
          {
            "number": 2,
            "time": 18.013749999999806,
            "value": 0.8818897637795275
          },
          {
            "number": 2,
            "time": 18.014374999999806,
            "value": 0.8818897637795275
          },
          {
            "number": 2,
            "time": 18.014999999999805,
            "value": 0.8818897637795275
          },
          {
            "number": 2,
            "time": 18.015624999999805,
            "value": 0.8740157480314961
          },
          {
            "number": 2,
            "time": 18.016249999999804,
            "value": 0.8740157480314961
          },
          {
            "number": 2,
            "time": 18.016874999999803,
            "value": 0.8740157480314961
          },
          {
            "number": 2,
            "time": 18.017499999999803,
            "value": 0.8661417322834646
          },
          {
            "number": 2,
            "time": 18.018124999999802,
            "value": 0.8661417322834646
          },
          {
            "number": 2,
            "time": 18.0187499999998,
            "value": 0.8661417322834646
          },
          {
            "number": 2,
            "time": 18.0193749999998,
            "value": 0.8582677165354331
          },
          {
            "number": 2,
            "time": 18.0199999999998,
            "value": 0.8582677165354331
          },
          {
            "number": 2,
            "time": 18.0206249999998,
            "value": 0.8582677165354331
          },
          {
            "number": 2,
            "time": 18.0212499999998,
            "value": 0.8503937007874016
          },
          {
            "number": 2,
            "time": 18.0218749999998,
            "value": 0.8503937007874016
          },
          {
            "number": 2,
            "time": 18.0224999999998,
            "value": 0.8503937007874016
          },
          {
            "number": 2,
            "time": 18.023124999999798,
            "value": 0.84251968503937
          },
          {
            "number": 2,
            "time": 18.023749999999797,
            "value": 0.84251968503937
          },
          {
            "number": 2,
            "time": 18.024374999999797,
            "value": 0.84251968503937
          },
          {
            "number": 2,
            "time": 18.024999999999796,
            "value": 0.8346456692913385
          },
          {
            "number": 2,
            "time": 18.025624999999796,
            "value": 0.8346456692913385
          },
          {
            "number": 2,
            "time": 18.026249999999795,
            "value": 0.8346456692913385
          },
          {
            "number": 2,
            "time": 18.026874999999794,
            "value": 0.8267716535433071
          },
          {
            "number": 2,
            "time": 18.027499999999794,
            "value": 0.8267716535433071
          },
          {
            "number": 2,
            "time": 18.028124999999793,
            "value": 0.8267716535433071
          },
          {
            "number": 2,
            "time": 18.028749999999793,
            "value": 0.8188976377952756
          },
          {
            "number": 2,
            "time": 18.029374999999792,
            "value": 0.8188976377952756
          },
          {
            "number": 2,
            "time": 18.02999999999979,
            "value": 0.8188976377952756
          },
          {
            "number": 2,
            "time": 18.03062499999979,
            "value": 0.8110236220472441
          },
          {
            "number": 2,
            "time": 18.03124999999979,
            "value": 0.8110236220472441
          },
          {
            "number": 2,
            "time": 18.03187499999979,
            "value": 0.8110236220472441
          },
          {
            "number": 2,
            "time": 18.03249999999979,
            "value": 0.8031496062992126
          },
          {
            "number": 2,
            "time": 18.03312499999979,
            "value": 0.8031496062992126
          },
          {
            "number": 2,
            "time": 18.033749999999788,
            "value": 0.8031496062992126
          },
          {
            "number": 2,
            "time": 18.034374999999788,
            "value": 0.7952755905511811
          },
          {
            "number": 2,
            "time": 18.034999999999787,
            "value": 0.7952755905511811
          },
          {
            "number": 2,
            "time": 18.035624999999786,
            "value": 0.7952755905511811
          },
          {
            "number": 2,
            "time": 18.036249999999786,
            "value": 0.7874015748031497
          },
          {
            "number": 2,
            "time": 18.036874999999785,
            "value": 0.7874015748031497
          },
          {
            "number": 2,
            "time": 18.037499999999785,
            "value": 0.7874015748031497
          },
          {
            "number": 2,
            "time": 18.038124999999784,
            "value": 0.7795275590551181
          },
          {
            "number": 2,
            "time": 18.038749999999784,
            "value": 0.7795275590551181
          },
          {
            "number": 2,
            "time": 18.039374999999783,
            "value": 0.7795275590551181
          },
          {
            "number": 2,
            "time": 18.039999999999782,
            "value": 0.7716535433070866
          },
          {
            "number": 2,
            "time": 18.040624999999782,
            "value": 0.7716535433070866
          },
          {
            "number": 2,
            "time": 18.04124999999978,
            "value": 0.7716535433070866
          },
          {
            "number": 2,
            "time": 18.04187499999978,
            "value": 0.7637795275590551
          },
          {
            "number": 2,
            "time": 18.04249999999978,
            "value": 0.7637795275590551
          },
          {
            "number": 2,
            "time": 18.04312499999978,
            "value": 0.7637795275590551
          },
          {
            "number": 2,
            "time": 18.04374999999978,
            "value": 0.7559055118110236
          },
          {
            "number": 2,
            "time": 18.04437499999978,
            "value": 0.7559055118110236
          },
          {
            "number": 2,
            "time": 18.044999999999778,
            "value": 0.7559055118110236
          },
          {
            "number": 2,
            "time": 18.045624999999777,
            "value": 0.7480314960629921
          },
          {
            "number": 2,
            "time": 18.046249999999777,
            "value": 0.7480314960629921
          },
          {
            "number": 2,
            "time": 18.046874999999776,
            "value": 0.7480314960629921
          },
          {
            "number": 2,
            "time": 18.047499999999776,
            "value": 0.7401574803149606
          },
          {
            "number": 2,
            "time": 18.048124999999775,
            "value": 0.7401574803149606
          },
          {
            "number": 2,
            "time": 18.048749999999774,
            "value": 0.7401574803149606
          },
          {
            "number": 2,
            "time": 18.049374999999774,
            "value": 0.7322834645669292
          },
          {
            "number": 2,
            "time": 18.049999999999773,
            "value": 0.7322834645669292
          },
          {
            "number": 2,
            "time": 18.050624999999773,
            "value": 0.7322834645669292
          },
          {
            "number": 2,
            "time": 18.051249999999772,
            "value": 0.7244094488188977
          },
          {
            "number": 2,
            "time": 18.05187499999977,
            "value": 0.7244094488188977
          },
          {
            "number": 2,
            "time": 18.05249999999977,
            "value": 0.7244094488188977
          },
          {
            "number": 2,
            "time": 18.05312499999977,
            "value": 0.7165354330708661
          },
          {
            "number": 2,
            "time": 18.05374999999977,
            "value": 0.7165354330708661
          },
          {
            "number": 2,
            "time": 18.05437499999977,
            "value": 0.7165354330708661
          },
          {
            "number": 2,
            "time": 18.05499999999977,
            "value": 0.7086614173228346
          },
          {
            "number": 2,
            "time": 18.055624999999768,
            "value": 0.7086614173228346
          },
          {
            "number": 2,
            "time": 18.056249999999768,
            "value": 0.7086614173228346
          },
          {
            "number": 2,
            "time": 18.056874999999767,
            "value": 0.7007874015748031
          },
          {
            "number": 2,
            "time": 18.057499999999767,
            "value": 0.7007874015748031
          },
          {
            "number": 2,
            "time": 18.058124999999766,
            "value": 0.7007874015748031
          },
          {
            "number": 2,
            "time": 18.058749999999765,
            "value": 0.6929133858267716
          },
          {
            "number": 2,
            "time": 18.059374999999765,
            "value": 0.6929133858267716
          },
          {
            "number": 2,
            "time": 18.059999999999764,
            "value": 0.6929133858267716
          },
          {
            "number": 2,
            "time": 18.060624999999764,
            "value": 0.6850393700787402
          },
          {
            "number": 2,
            "time": 18.061249999999763,
            "value": 0.6850393700787402
          },
          {
            "number": 2,
            "time": 18.061874999999763,
            "value": 0.6850393700787402
          },
          {
            "number": 2,
            "time": 18.062499999999762,
            "value": 0.6771653543307087
          },
          {
            "number": 2,
            "time": 18.06312499999976,
            "value": 0.6771653543307087
          },
          {
            "number": 2,
            "time": 18.06374999999976,
            "value": 0.6771653543307087
          },
          {
            "number": 2,
            "time": 18.06437499999976,
            "value": 0.6692913385826772
          },
          {
            "number": 2,
            "time": 18.06499999999976,
            "value": 0.6692913385826772
          },
          {
            "number": 2,
            "time": 18.06562499999976,
            "value": 0.6692913385826772
          },
          {
            "number": 2,
            "time": 18.06624999999976,
            "value": 0.6614173228346457
          },
          {
            "number": 2,
            "time": 18.066874999999758,
            "value": 0.6614173228346457
          },
          {
            "number": 2,
            "time": 18.067499999999757,
            "value": 0.6614173228346457
          },
          {
            "number": 2,
            "time": 18.068124999999757,
            "value": 0.6535433070866141
          },
          {
            "number": 2,
            "time": 18.068749999999756,
            "value": 0.6535433070866141
          },
          {
            "number": 2,
            "time": 18.069374999999756,
            "value": 0.6535433070866141
          },
          {
            "number": 2,
            "time": 18.069999999999755,
            "value": 0.6456692913385826
          },
          {
            "number": 2,
            "time": 18.070624999999755,
            "value": 0.6456692913385826
          },
          {
            "number": 2,
            "time": 18.071249999999754,
            "value": 0.6456692913385826
          },
          {
            "number": 2,
            "time": 18.071874999999753,
            "value": 0.6377952755905512
          },
          {
            "number": 2,
            "time": 18.072499999999753,
            "value": 0.6377952755905512
          },
          {
            "number": 2,
            "time": 18.073124999999752,
            "value": 0.6377952755905512
          },
          {
            "number": 2,
            "time": 18.07374999999975,
            "value": 0.6299212598425197
          },
          {
            "number": 2,
            "time": 18.07437499999975,
            "value": 0.6299212598425197
          },
          {
            "number": 2,
            "time": 18.299999999999752,
            "value": 0.6299212598425197
          },
          {
            "number": 2,
            "time": 18.599999999999753,
            "value": 0.6299212598425197
          },
          {
            "number": 2,
            "time": 18.74999999999975,
            "value": 0.6299212598425197
          },
          {
            "number": 2,
            "time": 19.049999999999752,
            "value": 0.6299212598425197
          },
          {
            "number": 2,
            "time": 19.349999999999753,
            "value": 0.6299212598425197
          },
          {
            "number": 2,
            "time": 19.49999999999975,
            "value": 0.6299212598425197
          },
          {
            "number": 2,
            "time": 19.49999999999975,
            "value": 0.9448818897637795
          },
          {
            "number": 2,
            "time": 19.50062499999975,
            "value": 0.937007874015748
          },
          {
            "number": 2,
            "time": 19.50124999999975,
            "value": 0.937007874015748
          },
          {
            "number": 2,
            "time": 19.50187499999975,
            "value": 0.937007874015748
          },
          {
            "number": 2,
            "time": 19.50249999999975,
            "value": 0.9291338582677166
          },
          {
            "number": 2,
            "time": 19.50312499999975,
            "value": 0.9291338582677166
          },
          {
            "number": 2,
            "time": 19.503749999999748,
            "value": 0.9291338582677166
          },
          {
            "number": 2,
            "time": 19.504374999999747,
            "value": 0.9212598425196851
          },
          {
            "number": 2,
            "time": 19.504999999999747,
            "value": 0.9212598425196851
          },
          {
            "number": 2,
            "time": 19.505624999999746,
            "value": 0.9212598425196851
          },
          {
            "number": 2,
            "time": 19.506249999999746,
            "value": 0.9133858267716536
          },
          {
            "number": 2,
            "time": 19.506874999999745,
            "value": 0.9133858267716536
          },
          {
            "number": 2,
            "time": 19.507499999999744,
            "value": 0.9133858267716536
          },
          {
            "number": 2,
            "time": 19.508124999999744,
            "value": 0.905511811023622
          },
          {
            "number": 2,
            "time": 19.508749999999743,
            "value": 0.905511811023622
          },
          {
            "number": 2,
            "time": 19.509374999999743,
            "value": 0.905511811023622
          },
          {
            "number": 2,
            "time": 19.509999999999742,
            "value": 0.8976377952755905
          },
          {
            "number": 2,
            "time": 19.51062499999974,
            "value": 0.8976377952755905
          },
          {
            "number": 2,
            "time": 19.51124999999974,
            "value": 0.8976377952755905
          },
          {
            "number": 2,
            "time": 19.51187499999974,
            "value": 0.889763779527559
          },
          {
            "number": 2,
            "time": 19.51249999999974,
            "value": 0.889763779527559
          },
          {
            "number": 2,
            "time": 19.51312499999974,
            "value": 0.889763779527559
          },
          {
            "number": 2,
            "time": 19.51374999999974,
            "value": 0.8818897637795275
          },
          {
            "number": 2,
            "time": 19.51437499999974,
            "value": 0.8818897637795275
          },
          {
            "number": 2,
            "time": 19.514999999999738,
            "value": 0.8818897637795275
          },
          {
            "number": 2,
            "time": 19.515624999999737,
            "value": 0.8740157480314961
          },
          {
            "number": 2,
            "time": 19.516249999999737,
            "value": 0.8740157480314961
          },
          {
            "number": 2,
            "time": 19.516874999999736,
            "value": 0.8740157480314961
          },
          {
            "number": 2,
            "time": 19.517499999999735,
            "value": 0.8661417322834646
          },
          {
            "number": 2,
            "time": 19.518124999999735,
            "value": 0.8661417322834646
          },
          {
            "number": 2,
            "time": 19.518749999999734,
            "value": 0.8661417322834646
          },
          {
            "number": 2,
            "time": 19.519374999999734,
            "value": 0.8582677165354331
          },
          {
            "number": 2,
            "time": 19.519999999999733,
            "value": 0.8582677165354331
          },
          {
            "number": 2,
            "time": 19.520624999999733,
            "value": 0.8582677165354331
          },
          {
            "number": 2,
            "time": 19.521249999999732,
            "value": 0.8503937007874016
          },
          {
            "number": 2,
            "time": 19.52187499999973,
            "value": 0.8503937007874016
          },
          {
            "number": 2,
            "time": 19.52249999999973,
            "value": 0.8503937007874016
          },
          {
            "number": 2,
            "time": 19.52312499999973,
            "value": 0.84251968503937
          },
          {
            "number": 2,
            "time": 19.52374999999973,
            "value": 0.84251968503937
          },
          {
            "number": 2,
            "time": 19.52437499999973,
            "value": 0.84251968503937
          },
          {
            "number": 2,
            "time": 19.52499999999973,
            "value": 0.8346456692913385
          },
          {
            "number": 2,
            "time": 19.525624999999728,
            "value": 0.8346456692913385
          },
          {
            "number": 2,
            "time": 19.526249999999727,
            "value": 0.8346456692913385
          },
          {
            "number": 2,
            "time": 19.526874999999727,
            "value": 0.8267716535433071
          },
          {
            "number": 2,
            "time": 19.527499999999726,
            "value": 0.8267716535433071
          },
          {
            "number": 2,
            "time": 19.528124999999726,
            "value": 0.8267716535433071
          },
          {
            "number": 2,
            "time": 19.528749999999725,
            "value": 0.8188976377952756
          },
          {
            "number": 2,
            "time": 19.529374999999725,
            "value": 0.8188976377952756
          },
          {
            "number": 2,
            "time": 19.529999999999724,
            "value": 0.8188976377952756
          },
          {
            "number": 2,
            "time": 19.530624999999723,
            "value": 0.8110236220472441
          },
          {
            "number": 2,
            "time": 19.531249999999723,
            "value": 0.8110236220472441
          },
          {
            "number": 2,
            "time": 19.531874999999722,
            "value": 0.8110236220472441
          },
          {
            "number": 2,
            "time": 19.53249999999972,
            "value": 0.8031496062992126
          },
          {
            "number": 2,
            "time": 19.53312499999972,
            "value": 0.8031496062992126
          },
          {
            "number": 2,
            "time": 19.53374999999972,
            "value": 0.8031496062992126
          },
          {
            "number": 2,
            "time": 19.53437499999972,
            "value": 0.7952755905511811
          },
          {
            "number": 2,
            "time": 19.53499999999972,
            "value": 0.7952755905511811
          },
          {
            "number": 2,
            "time": 19.53562499999972,
            "value": 0.7952755905511811
          },
          {
            "number": 2,
            "time": 19.53624999999972,
            "value": 0.7874015748031497
          },
          {
            "number": 2,
            "time": 19.536874999999718,
            "value": 0.7874015748031497
          },
          {
            "number": 2,
            "time": 19.537499999999717,
            "value": 0.7874015748031497
          },
          {
            "number": 2,
            "time": 19.538124999999717,
            "value": 0.7795275590551181
          },
          {
            "number": 2,
            "time": 19.538749999999716,
            "value": 0.7795275590551181
          },
          {
            "number": 2,
            "time": 19.539374999999715,
            "value": 0.7795275590551181
          },
          {
            "number": 2,
            "time": 19.539999999999715,
            "value": 0.7716535433070866
          },
          {
            "number": 2,
            "time": 19.540624999999714,
            "value": 0.7716535433070866
          },
          {
            "number": 2,
            "time": 19.541249999999714,
            "value": 0.7716535433070866
          },
          {
            "number": 2,
            "time": 19.541874999999713,
            "value": 0.7637795275590551
          },
          {
            "number": 2,
            "time": 19.542499999999713,
            "value": 0.7637795275590551
          },
          {
            "number": 2,
            "time": 19.543124999999712,
            "value": 0.7637795275590551
          },
          {
            "number": 2,
            "time": 19.54374999999971,
            "value": 0.7559055118110236
          },
          {
            "number": 2,
            "time": 19.54437499999971,
            "value": 0.7559055118110236
          },
          {
            "number": 2,
            "time": 19.54499999999971,
            "value": 0.7559055118110236
          },
          {
            "number": 2,
            "time": 19.54562499999971,
            "value": 0.7480314960629921
          },
          {
            "number": 2,
            "time": 19.54624999999971,
            "value": 0.7480314960629921
          },
          {
            "number": 2,
            "time": 19.54687499999971,
            "value": 0.7480314960629921
          },
          {
            "number": 2,
            "time": 19.547499999999708,
            "value": 0.7401574803149606
          },
          {
            "number": 2,
            "time": 19.548124999999708,
            "value": 0.7401574803149606
          },
          {
            "number": 2,
            "time": 19.548749999999707,
            "value": 0.7401574803149606
          },
          {
            "number": 2,
            "time": 19.549374999999706,
            "value": 0.7322834645669292
          },
          {
            "number": 2,
            "time": 19.549999999999706,
            "value": 0.7322834645669292
          },
          {
            "number": 2,
            "time": 19.550624999999705,
            "value": 0.7322834645669292
          },
          {
            "number": 2,
            "time": 19.551249999999705,
            "value": 0.7244094488188977
          },
          {
            "number": 2,
            "time": 19.551874999999704,
            "value": 0.7244094488188977
          },
          {
            "number": 2,
            "time": 19.552499999999704,
            "value": 0.7244094488188977
          },
          {
            "number": 2,
            "time": 19.553124999999703,
            "value": 0.7165354330708661
          },
          {
            "number": 2,
            "time": 19.553749999999702,
            "value": 0.7165354330708661
          },
          {
            "number": 2,
            "time": 19.554374999999702,
            "value": 0.7165354330708661
          },
          {
            "number": 2,
            "time": 19.5549999999997,
            "value": 0.7086614173228346
          },
          {
            "number": 2,
            "time": 19.5556249999997,
            "value": 0.7086614173228346
          },
          {
            "number": 2,
            "time": 19.5562499999997,
            "value": 0.7086614173228346
          },
          {
            "number": 2,
            "time": 19.5568749999997,
            "value": 0.7007874015748031
          },
          {
            "number": 2,
            "time": 19.5574999999997,
            "value": 0.7007874015748031
          },
          {
            "number": 2,
            "time": 19.5581249999997,
            "value": 0.7007874015748031
          },
          {
            "number": 2,
            "time": 19.558749999999698,
            "value": 0.6929133858267716
          },
          {
            "number": 2,
            "time": 19.559374999999697,
            "value": 0.6929133858267716
          },
          {
            "number": 2,
            "time": 19.559999999999697,
            "value": 0.6929133858267716
          },
          {
            "number": 2,
            "time": 19.560624999999696,
            "value": 0.6850393700787402
          },
          {
            "number": 2,
            "time": 19.561249999999696,
            "value": 0.6850393700787402
          },
          {
            "number": 2,
            "time": 19.561874999999695,
            "value": 0.6850393700787402
          },
          {
            "number": 2,
            "time": 19.562499999999694,
            "value": 0.6771653543307087
          },
          {
            "number": 2,
            "time": 19.563124999999694,
            "value": 0.6771653543307087
          },
          {
            "number": 2,
            "time": 19.563749999999693,
            "value": 0.6771653543307087
          },
          {
            "number": 2,
            "time": 19.564374999999693,
            "value": 0.6692913385826772
          },
          {
            "number": 2,
            "time": 19.564999999999692,
            "value": 0.6692913385826772
          },
          {
            "number": 2,
            "time": 19.56562499999969,
            "value": 0.6692913385826772
          },
          {
            "number": 2,
            "time": 19.56624999999969,
            "value": 0.6614173228346457
          },
          {
            "number": 2,
            "time": 19.56687499999969,
            "value": 0.6614173228346457
          },
          {
            "number": 2,
            "time": 19.56749999999969,
            "value": 0.6614173228346457
          },
          {
            "number": 2,
            "time": 19.56812499999969,
            "value": 0.6535433070866141
          },
          {
            "number": 2,
            "time": 19.56874999999969,
            "value": 0.6535433070866141
          },
          {
            "number": 2,
            "time": 19.569374999999688,
            "value": 0.6535433070866141
          },
          {
            "number": 2,
            "time": 19.569999999999688,
            "value": 0.6456692913385826
          },
          {
            "number": 2,
            "time": 19.570624999999687,
            "value": 0.6456692913385826
          },
          {
            "number": 2,
            "time": 19.571249999999687,
            "value": 0.6456692913385826
          },
          {
            "number": 2,
            "time": 19.571874999999686,
            "value": 0.6377952755905512
          },
          {
            "number": 2,
            "time": 19.572499999999685,
            "value": 0.6377952755905512
          },
          {
            "number": 2,
            "time": 19.573124999999685,
            "value": 0.6377952755905512
          },
          {
            "number": 2,
            "time": 19.573749999999684,
            "value": 0.6299212598425197
          },
          {
            "number": 2,
            "time": 19.574374999999684,
            "value": 0.6299212598425197
          },
          {
            "number": 2,
            "time": 19.799999999999685,
            "value": 0.6299212598425197
          },
          {
            "number": 2,
            "time": 20.099999999999685,
            "value": 0.6299212598425197
          },
          {
            "number": 2,
            "time": 20.249999999999684,
            "value": 0.6299212598425197
          },
          {
            "number": 2,
            "time": 20.549999999999685,
            "value": 0.6299212598425197
          },
          {
            "number": 2,
            "time": 20.849999999999685,
            "value": 0.6299212598425197
          },
          {
            "number": 2,
            "time": 21.749999999999684,
            "value": 0.5039370078740157
          },
          {
            "number": 2,
            "time": 21.899999999999682,
            "value": 0.5039370078740157
          },
          {
            "number": 2,
            "time": 22.04999999999968,
            "value": 0.5039370078740157
          },
          {
            "number": 2,
            "time": 22.19999999999968,
            "value": 0.5039370078740157
          },
          {
            "number": 2,
            "time": 22.349999999999678,
            "value": 0.5039370078740157
          },
          {
            "number": 2,
            "time": 22.499999999999677,
            "value": 0.5039370078740157
          },
          {
            "number": 2,
            "time": 22.799999999999677,
            "value": 0.5039370078740157
          },
          {
            "number": 2,
            "time": 23.099999999999678,
            "value": 0.5039370078740157
          },
          {
            "number": 2,
            "time": 23.249999999999677,
            "value": 0.5039370078740157
          },
          {
            "number": 2,
            "time": 23.549999999999677,
            "value": 0.5039370078740157
          },
          {
            "number": 2,
            "time": 23.849999999999678,
            "value": 0.5039370078740157
          },
          {
            "number": 2,
            "time": 23.999999999999677,
            "value": 0.5039370078740157
          },
          {
            "number": 2,
            "time": 24.299999999999677,
            "value": 0.5039370078740157
          },
          {
            "number": 2,
            "time": 24.599999999999678,
            "value": 0.5039370078740157
          },
          {
            "number": 2,
            "time": 24.749999999999677,
            "value": 0.5039370078740157
          },
          {
            "number": 2,
            "time": 24.899999999999675,
            "value": 0.5039370078740157
          },
          {
            "number": 2,
            "time": 25.049999999999674,
            "value": 0.5039370078740157
          },
          {
            "number": 2,
            "time": 25.199999999999672,
            "value": 0.5039370078740157
          },
          {
            "number": 2,
            "time": 25.34999999999967,
            "value": 0.5039370078740157
          },
          {
            "number": 2,
            "time": 25.49999999999967,
            "value": 0.5039370078740157
          },
          {
            "number": 2,
            "time": 25.649999999999668,
            "value": 0.5039370078740157
          },
          {
            "number": 2,
            "time": 25.799999999999667,
            "value": 0.5039370078740157
          },
          {
            "number": 2,
            "time": 25.949999999999665,
            "value": 0.5039370078740157
          },
          {
            "number": 2,
            "time": 26.099999999999664,
            "value": 0.5039370078740157
          },
          {
            "number": 2,
            "time": 26.549999999999667,
            "value": 0.5039370078740157
          },
          {
            "number": 2,
            "time": 26.699999999999665,
            "value": 0.5039370078740157
          },
          {
            "number": 2,
            "time": 26.849999999999664,
            "value": 0.5039370078740157
          },
          {
            "number": 2,
            "time": 26.999999999999662,
            "value": 0.5039370078740157
          },
          {
            "number": 2,
            "time": 27.449999999999665,
            "value": 0.5039370078740157
          },
          {
            "number": 2,
            "time": 27.599999999999664,
            "value": 0.5039370078740157
          },
          {
            "number": 2,
            "time": 27.749999999999662,
            "value": 0.5039370078740157
          },
          {
            "number": 2,
            "time": 27.89999999999966,
            "value": 0.5039370078740157
          },
          {
            "number": 2,
            "time": 28.349999999999664,
            "value": 0.5039370078740157
          },
          {
            "number": 2,
            "time": 28.499999999999662,
            "value": 0.5039370078740157
          },
          {
            "number": 2,
            "time": 28.64999999999966,
            "value": 0.5039370078740157
          },
          {
            "number": 2,
            "time": 28.79999999999966,
            "value": 0.5039370078740157
          },
          {
            "number": 2,
            "time": 29.249999999999662,
            "value": 0.5039370078740157
          },
          {
            "number": 2,
            "time": 29.39999999999966,
            "value": 0.5039370078740157
          },
          {
            "number": 2,
            "time": 29.54999999999966,
            "value": 0.5039370078740157
          },
          {
            "number": 2,
            "time": 29.69999999999966,
            "value": 0.5039370078740157
          },
          {
            "number": 2,
            "time": 30.14999999999966,
            "value": 0.5039370078740157
          },
          {
            "number": 2,
            "time": 30.29999999999966,
            "value": 0.5039370078740157
          },
          {
            "number": 2,
            "time": 30.44999999999966,
            "value": 0.5039370078740157
          },
          {
            "number": 2,
            "time": 30.599999999999657,
            "value": 0.5039370078740157
          },
          {
            "number": 2,
            "time": 31.04999999999966,
            "value": 0.5039370078740157
          },
          {
            "number": 2,
            "time": 31.19999999999966,
            "value": 0.5039370078740157
          },
          {
            "number": 2,
            "time": 31.349999999999657,
            "value": 0.5039370078740157
          },
          {
            "number": 2,
            "time": 31.499999999999655,
            "value": 0.5039370078740157
          },
          {
            "number": 2,
            "time": 31.649999999999654,
            "value": 0.5039370078740157
          },
          {
            "number": 2,
            "time": 31.799999999999653,
            "value": 0.5039370078740157
          },
          {
            "number": 2,
            "time": 31.94999999999965,
            "value": 0.5039370078740157
          },
          {
            "number": 2,
            "time": 32.02499999999965,
            "value": 0.5039370078740157
          },
          {
            "number": 2,
            "time": 32.09999999999965,
            "value": 0.5039370078740157
          },
          {
            "number": 2,
            "time": 32.174999999999656,
            "value": 0.5039370078740157
          },
          {
            "number": 2,
            "time": 32.24999999999966,
            "value": 0.5039370078740157
          },
          {
            "number": 2,
            "time": 32.32499999999966,
            "value": 0.5039370078740157
          },
          {
            "number": 2,
            "time": 32.399999999999665,
            "value": 0.5039370078740157
          },
          {
            "number": 2,
            "time": 32.41249999999967,
            "value": 0.49606299212598426
          },
          {
            "number": 2,
            "time": 32.42437499999967,
            "value": 0.4881889763779528
          },
          {
            "number": 2,
            "time": 32.436874999999674,
            "value": 0.48031496062992124
          },
          {
            "number": 2,
            "time": 32.44874999999968,
            "value": 0.47244094488188976
          },
          {
            "number": 2,
            "time": 32.46062499999968,
            "value": 0.4645669291338583
          },
          {
            "number": 2,
            "time": 32.47312499999968,
            "value": 0.4566929133858268
          },
          {
            "number": 2,
            "time": 32.47499999999968,
            "value": 0.4566929133858268
          },
          {
            "number": 2,
            "time": 32.48499999999968,
            "value": 0.44881889763779526
          },
          {
            "number": 2,
            "time": 32.49687499999968,
            "value": 0.4409448818897638
          },
          {
            "number": 2,
            "time": 32.509374999999686,
            "value": 0.4330708661417323
          },
          {
            "number": 2,
            "time": 32.52124999999969,
            "value": 0.4251968503937008
          },
          {
            "number": 2,
            "time": 32.53312499999969,
            "value": 0.41732283464566927
          },
          {
            "number": 2,
            "time": 32.545624999999696,
            "value": 0.4094488188976378
          },
          {
            "number": 2,
            "time": 32.55749999999969,
            "value": 0.4015748031496063
          },
          {
            "number": 2,
            "time": 32.569374999999695,
            "value": 0.3937007874015748
          },
          {
            "number": 2,
            "time": 32.5818749999997,
            "value": 0.3858267716535433
          },
          {
            "number": 2,
            "time": 32.5937499999997,
            "value": 0.3779527559055118
          },
          {
            "number": 2,
            "time": 32.606249999999704,
            "value": 0.3700787401574803
          },
          {
            "number": 2,
            "time": 32.61812499999971,
            "value": 0.36220472440944884
          },
          {
            "number": 2,
            "time": 32.62999999999971,
            "value": 0.3543307086614173
          },
          {
            "number": 2,
            "time": 32.642499999999714,
            "value": 0.3464566929133858
          },
          {
            "number": 2,
            "time": 32.65437499999972,
            "value": 0.33858267716535434
          },
          {
            "number": 2,
            "time": 32.66624999999972,
            "value": 0.33070866141732286
          },
          {
            "number": 2,
            "time": 32.678749999999724,
            "value": 0.3228346456692913
          },
          {
            "number": 2,
            "time": 32.69062499999973,
            "value": 0.31496062992125984
          },
          {
            "number": 2,
            "time": 32.70249999999972,
            "value": 0.30708661417322836
          },
          {
            "number": 2,
            "time": 32.714999999999726,
            "value": 0.2992125984251969
          },
          {
            "number": 2,
            "time": 32.72687499999973,
            "value": 0.29133858267716534
          },
          {
            "number": 2,
            "time": 32.73874999999973,
            "value": 0.28346456692913385
          },
          {
            "number": 2,
            "time": 32.751249999999736,
            "value": 0.2755905511811024
          },
          {
            "number": 2,
            "time": 32.76312499999974,
            "value": 0.2677165354330709
          },
          {
            "number": 2,
            "time": 32.774999999999736,
            "value": 0.25984251968503935
          },
          {
            "number": 2,
            "time": 32.84999999999974,
            "value": 0.25984251968503935
          },
          {
            "number": 2,
            "time": 32.999999999999744,
            "value": 0.25984251968503935
          },
          {
            "number": 2,
            "time": 33.14999999999975,
            "value": 0.25984251968503935
          },
          {
            "number": 2,
            "time": 33.299999999999756,
            "value": 0.25984251968503935
          },
          {
            "number": 2,
            "time": 33.44999999999976,
            "value": 0.25984251968503935
          },
          {
            "number": 2,
            "time": 33.59999999999977,
            "value": 0.25984251968503935
          },
          {
            "number": 2,
            "time": 33.74999999999977,
            "value": 0.25984251968503935
          },
          {
            "number": 2,
            "time": 33.89999999999978,
            "value": 0.25984251968503935
          },
          {
            "number": 2,
            "time": 34.049999999999784,
            "value": 0.25984251968503935
          },
          {
            "number": 2,
            "time": 34.19999999999979,
            "value": 0.25984251968503935
          },
          {
            "number": 2,
            "time": 34.349999999999795,
            "value": 0.25984251968503935
          },
          {
            "number": 2,
            "time": 34.4999999999998,
            "value": 0.25984251968503935
          },
          {
            "number": 2,
            "time": 34.64999999999981,
            "value": 0.25984251968503935
          },
          {
            "number": 2,
            "time": 34.79999999999981,
            "value": 0.25984251968503935
          },
          {
            "number": 2,
            "time": 34.94999999999982,
            "value": 0.25984251968503935
          },
          {
            "number": 2,
            "time": 35.099999999999824,
            "value": 0.25984251968503935
          },
          {
            "number": 2,
            "time": 35.24999999999983,
            "value": 0.25984251968503935
          },
          {
            "number": 2,
            "time": 35.399999999999835,
            "value": 0.25984251968503935
          },
          {
            "number": 2,
            "time": 35.54999999999984,
            "value": 0.25984251968503935
          },
          {
            "number": 2,
            "time": 35.69999999999985,
            "value": 0.25984251968503935
          },
          {
            "number": 2,
            "time": 35.84999999999985,
            "value": 0.25984251968503935
          },
          {
            "number": 2,
            "time": 35.99999999999986,
            "value": 0.25984251968503935
          },
          {
            "number": 2,
            "time": 36.149999999999864,
            "value": 0.25984251968503935
          },
          {
            "number": 2,
            "time": 36.29999999999987,
            "value": 0.25984251968503935
          },
          {
            "number": 2,
            "time": 36.449999999999875,
            "value": 0.25984251968503935
          },
          {
            "number": 2,
            "time": 36.59999999999988,
            "value": 0.25984251968503935
          },
          {
            "number": 2,
            "time": 36.749999999999886,
            "value": 0.25984251968503935
          },
          {
            "number": 2,
            "time": 36.89999999999989,
            "value": 0.25984251968503935
          },
          {
            "number": 2,
            "time": 37.0499999999999,
            "value": 0.25984251968503935
          },
          {
            "number": 2,
            "time": 37.1999999999999,
            "value": 0.25984251968503935
          },
          {
            "number": 2,
            "time": 37.34999999999991,
            "value": 0.25984251968503935
          },
          {
            "number": 2,
            "time": 37.499999999999915,
            "value": 0.25984251968503935
          },
          {
            "number": 2,
            "time": 37.64999999999992,
            "value": 0.25984251968503935
          },
          {
            "number": 2,
            "time": 37.799999999999926,
            "value": 0.25984251968503935
          },
          {
            "number": 2,
            "time": 37.94999999999993,
            "value": 0.25984251968503935
          },
          {
            "number": 2,
            "time": 38.09999999999994,
            "value": 0.25984251968503935
          },
          {
            "number": 2,
            "time": 38.24999999999994,
            "value": 0.25984251968503935
          },
          {
            "number": 2,
            "time": 38.39999999999995,
            "value": 0.25984251968503935
          },
          {
            "number": 2,
            "time": 38.549999999999955,
            "value": 0.25984251968503935
          },
          {
            "number": 2,
            "time": 38.69999999999996,
            "value": 0.25984251968503935
          },
          {
            "number": 2,
            "time": 38.849999999999966,
            "value": 0.25984251968503935
          },
          {
            "number": 2,
            "time": 38.99999999999997,
            "value": 0.25984251968503935
          },
          {
            "number": 2,
            "time": 39.14999999999998,
            "value": 0.25984251968503935
          },
          {
            "number": 2,
            "time": 39.29999999999998,
            "value": 0.25984251968503935
          },
          {
            "number": 2,
            "time": 39.44999999999999,
            "value": 0.25984251968503935
          },
          {
            "number": 2,
            "time": 39.599999999999994,
            "value": 0.25984251968503935
          },
          {
            "number": 2,
            "time": 39.675,
            "value": 0.25984251968503935
          },
          {
            "number": 2,
            "time": 39.75,
            "value": 0.25984251968503935
          },
          {
            "number": 2,
            "time": 39.825,
            "value": 0.25984251968503935
          },
          {
            "number": 2,
            "time": 39.900000000000006,
            "value": 0.25984251968503935
          },
          {
            "number": 2,
            "time": 39.97500000000001,
            "value": 0.25984251968503935
          },
          {
            "number": 2,
            "time": 40.05000000000001,
            "value": 0.25984251968503935
          },
          {
            "number": 2,
            "time": 40.20000000000002,
            "value": 0.25984251968503935
          },
          {
            "number": 2,
            "time": 40.35000000000002,
            "value": 0.25984251968503935
          },
          {
            "number": 2,
            "time": 40.50000000000003,
            "value": 0.25984251968503935
          },
          {
            "number": 2,
            "time": 40.650000000000034,
            "value": 0.25984251968503935
          },
          {
            "number": 2,
            "time": 40.80000000000004,
            "value": 0.25984251968503935
          },
          {
            "number": 2,
            "time": 40.950000000000045,
            "value": 0.25984251968503935
          },
          {
            "number": 2,
            "time": 41.10000000000005,
            "value": 0.25984251968503935
          },
          {
            "number": 2,
            "time": 41.25000000000006,
            "value": 0.25984251968503935
          },
          {
            "number": 2,
            "time": 41.40000000000006,
            "value": 0.25984251968503935
          },
          {
            "number": 2,
            "time": 41.55000000000007,
            "value": 0.25984251968503935
          },
          {
            "number": 2,
            "time": 41.700000000000074,
            "value": 0.25984251968503935
          },
          {
            "number": 2,
            "time": 41.85000000000008,
            "value": 0.25984251968503935
          },
          {
            "number": 2,
            "time": 42.000000000000085,
            "value": 0.25984251968503935
          },
          {
            "number": 2,
            "time": 42.15000000000009,
            "value": 0.25984251968503935
          },
          {
            "number": 2,
            "time": 42.3000000000001,
            "value": 0.25984251968503935
          },
          {
            "number": 2,
            "time": 42.4500000000001,
            "value": 0.25984251968503935
          },
          {
            "number": 2,
            "time": 42.60000000000011,
            "value": 0.25984251968503935
          },
          {
            "number": 2,
            "time": 42.750000000000114,
            "value": 0.25984251968503935
          },
          {
            "number": 2,
            "time": 42.90000000000012,
            "value": 0.25984251968503935
          },
          {
            "number": 2,
            "time": 43.050000000000125,
            "value": 0.25984251968503935
          },
          {
            "number": 2,
            "time": 43.20000000000013,
            "value": 0.25984251968503935
          },
          {
            "number": 2,
            "time": 43.350000000000136,
            "value": 0.25984251968503935
          },
          {
            "number": 2,
            "time": 43.50000000000014,
            "value": 0.25984251968503935
          },
          {
            "number": 2,
            "time": 43.65000000000015,
            "value": 0.25984251968503935
          },
          {
            "number": 2,
            "time": 43.80000000000015,
            "value": 0.25984251968503935
          },
          {
            "number": 2,
            "time": 43.95000000000016,
            "value": 0.25984251968503935
          },
          {
            "number": 2,
            "time": 44.100000000000165,
            "value": 0.25984251968503935
          },
          {
            "number": 2,
            "time": 44.25000000000017,
            "value": 0.25984251968503935
          },
          {
            "number": 2,
            "time": 44.400000000000176,
            "value": 0.25984251968503935
          },
          {
            "number": 2,
            "time": 44.55000000000018,
            "value": 0.25984251968503935
          },
          {
            "number": 2,
            "time": 44.70000000000019,
            "value": 0.25984251968503935
          },
          {
            "number": 2,
            "time": 44.85000000000019,
            "value": 0.25984251968503935
          },
          {
            "number": 2,
            "time": 45.0000000000002,
            "value": 0.25984251968503935
          },
          {
            "number": 2,
            "time": 45.150000000000205,
            "value": 0.25984251968503935
          },
          {
            "number": 2,
            "time": 45.30000000000021,
            "value": 0.25984251968503935
          },
          {
            "number": 2,
            "time": 45.450000000000216,
            "value": 0.25984251968503935
          },
          {
            "number": 2,
            "time": 45.60000000000022,
            "value": 0.25984251968503935
          },
          {
            "number": 2,
            "time": 45.75000000000023,
            "value": 0.25984251968503935
          },
          {
            "number": 2,
            "time": 45.90000000000023,
            "value": 0.25984251968503935
          },
          {
            "number": 2,
            "time": 46.05000000000024,
            "value": 0.25984251968503935
          },
          {
            "number": 2,
            "time": 46.200000000000244,
            "value": 0.25984251968503935
          },
          {
            "number": 2,
            "time": 46.35000000000025,
            "value": 0.25984251968503935
          },
          {
            "number": 2,
            "time": 46.500000000000256,
            "value": 0.25984251968503935
          },
          {
            "number": 2,
            "time": 46.65000000000026,
            "value": 0.25984251968503935
          },
          {
            "number": 2,
            "time": 46.80000000000027,
            "value": 0.25984251968503935
          },
          {
            "number": 2,
            "time": 46.87500000000027,
            "value": 0.25984251968503935
          },
          {
            "number": 2,
            "time": 46.95000000000027,
            "value": 0.25984251968503935
          },
          {
            "number": 2,
            "time": 47.025000000000276,
            "value": 0.25984251968503935
          },
          {
            "number": 2,
            "time": 47.10000000000028,
            "value": 0.25984251968503935
          },
          {
            "number": 2,
            "time": 47.17500000000028,
            "value": 0.25984251968503935
          },
          {
            "number": 2,
            "time": 47.250000000000284,
            "value": 0.25984251968503935
          },
          {
            "number": 2,
            "time": 48.15000000000028,
            "value": 0.25984251968503935
          },
          {
            "number": 2,
            "time": 49.05000000000028,
            "value": 0.25984251968503935
          },
          {
            "number": 2,
            "time": 49.95000000000028,
            "value": 0.25984251968503935
          },
          {
            "number": 2,
            "time": 50.85000000000028,
            "value": 0.25984251968503935
          },
          {
            "number": 2,
            "time": 51.75000000000028,
            "value": 0.3858267716535433
          },
          {
            "number": 2,
            "time": 51.75062500000028,
            "value": 0.3858267716535433
          },
          {
            "number": 2,
            "time": 51.751250000000276,
            "value": 0.3858267716535433
          },
          {
            "number": 2,
            "time": 51.751875000000275,
            "value": 0.3858267716535433
          },
          {
            "number": 2,
            "time": 51.752500000000275,
            "value": 0.3779527559055118
          },
          {
            "number": 2,
            "time": 51.753125000000274,
            "value": 0.3779527559055118
          },
          {
            "number": 2,
            "time": 51.753750000000274,
            "value": 0.3779527559055118
          },
          {
            "number": 2,
            "time": 51.75437500000027,
            "value": 0.3779527559055118
          },
          {
            "number": 2,
            "time": 51.75500000000027,
            "value": 0.3779527559055118
          },
          {
            "number": 2,
            "time": 51.75562500000027,
            "value": 0.3779527559055118
          },
          {
            "number": 2,
            "time": 51.75625000000027,
            "value": 0.3779527559055118
          },
          {
            "number": 2,
            "time": 51.75687500000027,
            "value": 0.3700787401574803
          },
          {
            "number": 2,
            "time": 51.75750000000027,
            "value": 0.3700787401574803
          },
          {
            "number": 2,
            "time": 51.75812500000027,
            "value": 0.3700787401574803
          },
          {
            "number": 2,
            "time": 51.75875000000027,
            "value": 0.3700787401574803
          },
          {
            "number": 2,
            "time": 51.75937500000027,
            "value": 0.3700787401574803
          },
          {
            "number": 2,
            "time": 51.76000000000027,
            "value": 0.3700787401574803
          },
          {
            "number": 2,
            "time": 51.76062500000027,
            "value": 0.3700787401574803
          },
          {
            "number": 2,
            "time": 51.76125000000027,
            "value": 0.3700787401574803
          },
          {
            "number": 2,
            "time": 51.761875000000266,
            "value": 0.36220472440944884
          },
          {
            "number": 2,
            "time": 51.762500000000266,
            "value": 0.36220472440944884
          },
          {
            "number": 2,
            "time": 51.763125000000265,
            "value": 0.36220472440944884
          },
          {
            "number": 2,
            "time": 51.763750000000265,
            "value": 0.36220472440944884
          },
          {
            "number": 2,
            "time": 51.764375000000264,
            "value": 0.36220472440944884
          },
          {
            "number": 2,
            "time": 51.76500000000026,
            "value": 0.36220472440944884
          },
          {
            "number": 2,
            "time": 51.76562500000026,
            "value": 0.36220472440944884
          },
          {
            "number": 2,
            "time": 51.76625000000026,
            "value": 0.3543307086614173
          },
          {
            "number": 2,
            "time": 51.76687500000026,
            "value": 0.3543307086614173
          },
          {
            "number": 2,
            "time": 51.76750000000026,
            "value": 0.3543307086614173
          },
          {
            "number": 2,
            "time": 51.76812500000026,
            "value": 0.3543307086614173
          },
          {
            "number": 2,
            "time": 51.76875000000026,
            "value": 0.3543307086614173
          },
          {
            "number": 2,
            "time": 51.76937500000026,
            "value": 0.3543307086614173
          },
          {
            "number": 2,
            "time": 51.77000000000026,
            "value": 0.3543307086614173
          },
          {
            "number": 2,
            "time": 51.77062500000026,
            "value": 0.3464566929133858
          },
          {
            "number": 2,
            "time": 51.77125000000026,
            "value": 0.3464566929133858
          },
          {
            "number": 2,
            "time": 51.77187500000026,
            "value": 0.3464566929133858
          },
          {
            "number": 2,
            "time": 51.77250000000026,
            "value": 0.3464566929133858
          },
          {
            "number": 2,
            "time": 51.773125000000256,
            "value": 0.3464566929133858
          },
          {
            "number": 2,
            "time": 51.773750000000256,
            "value": 0.3464566929133858
          },
          {
            "number": 2,
            "time": 51.774375000000255,
            "value": 0.3464566929133858
          },
          {
            "number": 2,
            "time": 51.775000000000254,
            "value": 0.3464566929133858
          },
          {
            "number": 2,
            "time": 51.775625000000254,
            "value": 0.33858267716535434
          },
          {
            "number": 2,
            "time": 51.77625000000025,
            "value": 0.33858267716535434
          },
          {
            "number": 2,
            "time": 51.77687500000025,
            "value": 0.33858267716535434
          },
          {
            "number": 2,
            "time": 51.77750000000025,
            "value": 0.33858267716535434
          },
          {
            "number": 2,
            "time": 51.77812500000025,
            "value": 0.33858267716535434
          },
          {
            "number": 2,
            "time": 51.77875000000025,
            "value": 0.33858267716535434
          },
          {
            "number": 2,
            "time": 51.77937500000025,
            "value": 0.33858267716535434
          },
          {
            "number": 2,
            "time": 51.78000000000025,
            "value": 0.33070866141732286
          },
          {
            "number": 2,
            "time": 51.78062500000025,
            "value": 0.33070866141732286
          },
          {
            "number": 2,
            "time": 51.78125000000025,
            "value": 0.33070866141732286
          },
          {
            "number": 2,
            "time": 51.78187500000025,
            "value": 0.33070866141732286
          },
          {
            "number": 2,
            "time": 51.78250000000025,
            "value": 0.33070866141732286
          },
          {
            "number": 2,
            "time": 51.78312500000025,
            "value": 0.33070866141732286
          },
          {
            "number": 2,
            "time": 51.783750000000246,
            "value": 0.33070866141732286
          },
          {
            "number": 2,
            "time": 51.784375000000246,
            "value": 0.3228346456692913
          },
          {
            "number": 2,
            "time": 51.785000000000245,
            "value": 0.3228346456692913
          },
          {
            "number": 2,
            "time": 51.785625000000245,
            "value": 0.3228346456692913
          },
          {
            "number": 2,
            "time": 51.786250000000244,
            "value": 0.3228346456692913
          },
          {
            "number": 2,
            "time": 51.786875000000244,
            "value": 0.3228346456692913
          },
          {
            "number": 2,
            "time": 51.78750000000024,
            "value": 0.3228346456692913
          },
          {
            "number": 2,
            "time": 51.78812500000024,
            "value": 0.3228346456692913
          },
          {
            "number": 2,
            "time": 51.78875000000024,
            "value": 0.31496062992125984
          },
          {
            "number": 2,
            "time": 51.78937500000024,
            "value": 0.31496062992125984
          },
          {
            "number": 2,
            "time": 51.79000000000024,
            "value": 0.31496062992125984
          },
          {
            "number": 2,
            "time": 51.79062500000024,
            "value": 0.31496062992125984
          },
          {
            "number": 2,
            "time": 51.79125000000024,
            "value": 0.31496062992125984
          },
          {
            "number": 2,
            "time": 51.79187500000024,
            "value": 0.31496062992125984
          },
          {
            "number": 2,
            "time": 51.79250000000024,
            "value": 0.31496062992125984
          },
          {
            "number": 2,
            "time": 51.79312500000024,
            "value": 0.31496062992125984
          },
          {
            "number": 2,
            "time": 51.79375000000024,
            "value": 0.30708661417322836
          },
          {
            "number": 2,
            "time": 51.79437500000024,
            "value": 0.30708661417322836
          },
          {
            "number": 2,
            "time": 51.795000000000236,
            "value": 0.30708661417322836
          },
          {
            "number": 2,
            "time": 51.795625000000236,
            "value": 0.30708661417322836
          },
          {
            "number": 2,
            "time": 51.796250000000235,
            "value": 0.30708661417322836
          },
          {
            "number": 2,
            "time": 51.796875000000234,
            "value": 0.30708661417322836
          },
          {
            "number": 2,
            "time": 51.797500000000234,
            "value": 0.30708661417322836
          },
          {
            "number": 2,
            "time": 51.79812500000023,
            "value": 0.2992125984251969
          },
          {
            "number": 2,
            "time": 51.79875000000023,
            "value": 0.2992125984251969
          },
          {
            "number": 2,
            "time": 51.79937500000023,
            "value": 0.2992125984251969
          },
          {
            "number": 2,
            "time": 51.80000000000023,
            "value": 0.2992125984251969
          },
          {
            "number": 2,
            "time": 51.80062500000023,
            "value": 0.2992125984251969
          },
          {
            "number": 2,
            "time": 51.80125000000023,
            "value": 0.2992125984251969
          },
          {
            "number": 2,
            "time": 51.80187500000023,
            "value": 0.2992125984251969
          },
          {
            "number": 2,
            "time": 51.80250000000023,
            "value": 0.29133858267716534
          },
          {
            "number": 2,
            "time": 51.80312500000023,
            "value": 0.29133858267716534
          },
          {
            "number": 2,
            "time": 51.80375000000023,
            "value": 0.29133858267716534
          },
          {
            "number": 2,
            "time": 51.80437500000023,
            "value": 0.29133858267716534
          },
          {
            "number": 2,
            "time": 51.80500000000023,
            "value": 0.29133858267716534
          },
          {
            "number": 2,
            "time": 51.80562500000023,
            "value": 0.29133858267716534
          },
          {
            "number": 2,
            "time": 51.806250000000226,
            "value": 0.29133858267716534
          },
          {
            "number": 2,
            "time": 51.806875000000225,
            "value": 0.28346456692913385
          },
          {
            "number": 2,
            "time": 51.807500000000225,
            "value": 0.28346456692913385
          },
          {
            "number": 2,
            "time": 51.808125000000224,
            "value": 0.28346456692913385
          },
          {
            "number": 2,
            "time": 51.808750000000224,
            "value": 0.28346456692913385
          },
          {
            "number": 2,
            "time": 51.80937500000022,
            "value": 0.28346456692913385
          },
          {
            "number": 2,
            "time": 51.81000000000022,
            "value": 0.28346456692913385
          },
          {
            "number": 2,
            "time": 51.81062500000022,
            "value": 0.28346456692913385
          },
          {
            "number": 2,
            "time": 51.81125000000022,
            "value": 0.28346456692913385
          },
          {
            "number": 2,
            "time": 51.81187500000022,
            "value": 0.2755905511811024
          },
          {
            "number": 2,
            "time": 51.81250000000022,
            "value": 0.2755905511811024
          },
          {
            "number": 2,
            "time": 51.81312500000022,
            "value": 0.2755905511811024
          },
          {
            "number": 2,
            "time": 51.81375000000022,
            "value": 0.2755905511811024
          },
          {
            "number": 2,
            "time": 51.81437500000022,
            "value": 0.2755905511811024
          },
          {
            "number": 2,
            "time": 51.81500000000022,
            "value": 0.2755905511811024
          },
          {
            "number": 2,
            "time": 51.81562500000022,
            "value": 0.2755905511811024
          },
          {
            "number": 2,
            "time": 51.81625000000022,
            "value": 0.2677165354330709
          },
          {
            "number": 2,
            "time": 51.816875000000216,
            "value": 0.2677165354330709
          },
          {
            "number": 2,
            "time": 51.817500000000216,
            "value": 0.2677165354330709
          },
          {
            "number": 2,
            "time": 51.818125000000215,
            "value": 0.2677165354330709
          },
          {
            "number": 2,
            "time": 51.818750000000215,
            "value": 0.2677165354330709
          },
          {
            "number": 2,
            "time": 51.819375000000214,
            "value": 0.2677165354330709
          },
          {
            "number": 2,
            "time": 51.82000000000021,
            "value": 0.2677165354330709
          },
          {
            "number": 2,
            "time": 51.82062500000021,
            "value": 0.25984251968503935
          },
          {
            "number": 2,
            "time": 51.82125000000021,
            "value": 0.25984251968503935
          },
          {
            "number": 2,
            "time": 51.82187500000021,
            "value": 0.25984251968503935
          },
          {
            "number": 2,
            "time": 51.82250000000021,
            "value": 0.25984251968503935
          },
          {
            "number": 2,
            "time": 51.82312500000021,
            "value": 0.25984251968503935
          },
          {
            "number": 2,
            "time": 51.82375000000021,
            "value": 0.25984251968503935
          },
          {
            "number": 2,
            "time": 51.82437500000021,
            "value": 0.25984251968503935
          },
          {
            "number": 2,
            "time": 52.20000000000021,
            "value": 0.3858267716535433
          },
          {
            "number": 2,
            "time": 52.20062500000021,
            "value": 0.3858267716535433
          },
          {
            "number": 2,
            "time": 52.20125000000021,
            "value": 0.3858267716535433
          },
          {
            "number": 2,
            "time": 52.20187500000021,
            "value": 0.3858267716535433
          },
          {
            "number": 2,
            "time": 52.20250000000021,
            "value": 0.3779527559055118
          },
          {
            "number": 2,
            "time": 52.203125000000206,
            "value": 0.3779527559055118
          },
          {
            "number": 2,
            "time": 52.203750000000205,
            "value": 0.3779527559055118
          },
          {
            "number": 2,
            "time": 52.204375000000205,
            "value": 0.3779527559055118
          },
          {
            "number": 2,
            "time": 52.205000000000204,
            "value": 0.3779527559055118
          },
          {
            "number": 2,
            "time": 52.205625000000204,
            "value": 0.3779527559055118
          },
          {
            "number": 2,
            "time": 52.2062500000002,
            "value": 0.3779527559055118
          },
          {
            "number": 2,
            "time": 52.2068750000002,
            "value": 0.3700787401574803
          },
          {
            "number": 2,
            "time": 52.2075000000002,
            "value": 0.3700787401574803
          },
          {
            "number": 2,
            "time": 52.2081250000002,
            "value": 0.3700787401574803
          },
          {
            "number": 2,
            "time": 52.2087500000002,
            "value": 0.3700787401574803
          },
          {
            "number": 2,
            "time": 52.2093750000002,
            "value": 0.3700787401574803
          },
          {
            "number": 2,
            "time": 52.2100000000002,
            "value": 0.3700787401574803
          },
          {
            "number": 2,
            "time": 52.2106250000002,
            "value": 0.3700787401574803
          },
          {
            "number": 2,
            "time": 52.2112500000002,
            "value": 0.3700787401574803
          },
          {
            "number": 2,
            "time": 52.2118750000002,
            "value": 0.36220472440944884
          },
          {
            "number": 2,
            "time": 52.2125000000002,
            "value": 0.36220472440944884
          },
          {
            "number": 2,
            "time": 52.2131250000002,
            "value": 0.36220472440944884
          },
          {
            "number": 2,
            "time": 52.213750000000196,
            "value": 0.36220472440944884
          },
          {
            "number": 2,
            "time": 52.214375000000196,
            "value": 0.36220472440944884
          },
          {
            "number": 2,
            "time": 52.215000000000195,
            "value": 0.36220472440944884
          },
          {
            "number": 2,
            "time": 52.215625000000195,
            "value": 0.36220472440944884
          },
          {
            "number": 2,
            "time": 52.216250000000194,
            "value": 0.3543307086614173
          },
          {
            "number": 2,
            "time": 52.21687500000019,
            "value": 0.3543307086614173
          },
          {
            "number": 2,
            "time": 52.21750000000019,
            "value": 0.3543307086614173
          },
          {
            "number": 2,
            "time": 52.21812500000019,
            "value": 0.3543307086614173
          },
          {
            "number": 2,
            "time": 52.21875000000019,
            "value": 0.3543307086614173
          },
          {
            "number": 2,
            "time": 52.21937500000019,
            "value": 0.3543307086614173
          },
          {
            "number": 2,
            "time": 52.22000000000019,
            "value": 0.3543307086614173
          },
          {
            "number": 2,
            "time": 52.22062500000019,
            "value": 0.3464566929133858
          },
          {
            "number": 2,
            "time": 52.22125000000019,
            "value": 0.3464566929133858
          },
          {
            "number": 2,
            "time": 52.22187500000019,
            "value": 0.3464566929133858
          },
          {
            "number": 2,
            "time": 52.22250000000019,
            "value": 0.3464566929133858
          },
          {
            "number": 2,
            "time": 52.22312500000019,
            "value": 0.3464566929133858
          },
          {
            "number": 2,
            "time": 52.22375000000019,
            "value": 0.3464566929133858
          },
          {
            "number": 2,
            "time": 52.22437500000019,
            "value": 0.3464566929133858
          },
          {
            "number": 2,
            "time": 52.225000000000186,
            "value": 0.3464566929133858
          },
          {
            "number": 2,
            "time": 52.225625000000186,
            "value": 0.33858267716535434
          },
          {
            "number": 2,
            "time": 52.226250000000185,
            "value": 0.33858267716535434
          },
          {
            "number": 2,
            "time": 52.226875000000184,
            "value": 0.33858267716535434
          },
          {
            "number": 2,
            "time": 52.227500000000184,
            "value": 0.33858267716535434
          },
          {
            "number": 2,
            "time": 52.22812500000018,
            "value": 0.33858267716535434
          },
          {
            "number": 2,
            "time": 52.22875000000018,
            "value": 0.33858267716535434
          },
          {
            "number": 2,
            "time": 52.22937500000018,
            "value": 0.33858267716535434
          },
          {
            "number": 2,
            "time": 52.23000000000018,
            "value": 0.33070866141732286
          },
          {
            "number": 2,
            "time": 52.23062500000018,
            "value": 0.33070866141732286
          },
          {
            "number": 2,
            "time": 52.23125000000018,
            "value": 0.33070866141732286
          },
          {
            "number": 2,
            "time": 52.23187500000018,
            "value": 0.33070866141732286
          },
          {
            "number": 2,
            "time": 52.23250000000018,
            "value": 0.33070866141732286
          },
          {
            "number": 2,
            "time": 52.23312500000018,
            "value": 0.33070866141732286
          },
          {
            "number": 2,
            "time": 52.23375000000018,
            "value": 0.33070866141732286
          },
          {
            "number": 2,
            "time": 52.23437500000018,
            "value": 0.3228346456692913
          },
          {
            "number": 2,
            "time": 52.23500000000018,
            "value": 0.3228346456692913
          },
          {
            "number": 2,
            "time": 52.23562500000018,
            "value": 0.3228346456692913
          },
          {
            "number": 2,
            "time": 52.236250000000176,
            "value": 0.3228346456692913
          },
          {
            "number": 2,
            "time": 52.236875000000175,
            "value": 0.3228346456692913
          },
          {
            "number": 2,
            "time": 52.237500000000175,
            "value": 0.3228346456692913
          },
          {
            "number": 2,
            "time": 52.238125000000174,
            "value": 0.3228346456692913
          },
          {
            "number": 2,
            "time": 52.238750000000174,
            "value": 0.31496062992125984
          },
          {
            "number": 2,
            "time": 52.23937500000017,
            "value": 0.31496062992125984
          },
          {
            "number": 2,
            "time": 52.24000000000017,
            "value": 0.31496062992125984
          },
          {
            "number": 2,
            "time": 52.24062500000017,
            "value": 0.31496062992125984
          },
          {
            "number": 2,
            "time": 52.24125000000017,
            "value": 0.31496062992125984
          },
          {
            "number": 2,
            "time": 52.24187500000017,
            "value": 0.31496062992125984
          },
          {
            "number": 2,
            "time": 52.24250000000017,
            "value": 0.31496062992125984
          },
          {
            "number": 2,
            "time": 52.24312500000017,
            "value": 0.31496062992125984
          },
          {
            "number": 2,
            "time": 52.24375000000017,
            "value": 0.30708661417322836
          },
          {
            "number": 2,
            "time": 52.24437500000017,
            "value": 0.30708661417322836
          },
          {
            "number": 2,
            "time": 52.24500000000017,
            "value": 0.30708661417322836
          },
          {
            "number": 2,
            "time": 52.24562500000017,
            "value": 0.30708661417322836
          },
          {
            "number": 2,
            "time": 52.24625000000017,
            "value": 0.30708661417322836
          },
          {
            "number": 2,
            "time": 52.246875000000166,
            "value": 0.30708661417322836
          },
          {
            "number": 2,
            "time": 52.247500000000166,
            "value": 0.30708661417322836
          },
          {
            "number": 2,
            "time": 52.248125000000165,
            "value": 0.2992125984251969
          },
          {
            "number": 2,
            "time": 52.248750000000165,
            "value": 0.2992125984251969
          },
          {
            "number": 2,
            "time": 52.249375000000164,
            "value": 0.2992125984251969
          },
          {
            "number": 2,
            "time": 52.25000000000016,
            "value": 0.2992125984251969
          },
          {
            "number": 2,
            "time": 52.25062500000016,
            "value": 0.2992125984251969
          },
          {
            "number": 2,
            "time": 52.25125000000016,
            "value": 0.2992125984251969
          },
          {
            "number": 2,
            "time": 52.25187500000016,
            "value": 0.2992125984251969
          },
          {
            "number": 2,
            "time": 52.25250000000016,
            "value": 0.29133858267716534
          },
          {
            "number": 2,
            "time": 52.25312500000016,
            "value": 0.29133858267716534
          },
          {
            "number": 2,
            "time": 52.25375000000016,
            "value": 0.29133858267716534
          },
          {
            "number": 2,
            "time": 52.25437500000016,
            "value": 0.29133858267716534
          },
          {
            "number": 2,
            "time": 52.25500000000016,
            "value": 0.29133858267716534
          },
          {
            "number": 2,
            "time": 52.25562500000016,
            "value": 0.29133858267716534
          },
          {
            "number": 2,
            "time": 52.25625000000016,
            "value": 0.29133858267716534
          },
          {
            "number": 2,
            "time": 52.25687500000016,
            "value": 0.28346456692913385
          },
          {
            "number": 2,
            "time": 52.25750000000016,
            "value": 0.28346456692913385
          },
          {
            "number": 2,
            "time": 52.258125000000156,
            "value": 0.28346456692913385
          },
          {
            "number": 2,
            "time": 52.258750000000155,
            "value": 0.28346456692913385
          },
          {
            "number": 2,
            "time": 52.259375000000155,
            "value": 0.28346456692913385
          },
          {
            "number": 2,
            "time": 52.260000000000154,
            "value": 0.28346456692913385
          },
          {
            "number": 2,
            "time": 52.260625000000154,
            "value": 0.28346456692913385
          },
          {
            "number": 2,
            "time": 52.26125000000015,
            "value": 0.28346456692913385
          },
          {
            "number": 2,
            "time": 52.26187500000015,
            "value": 0.2755905511811024
          },
          {
            "number": 2,
            "time": 52.26250000000015,
            "value": 0.2755905511811024
          },
          {
            "number": 2,
            "time": 52.26312500000015,
            "value": 0.2755905511811024
          },
          {
            "number": 2,
            "time": 52.26375000000015,
            "value": 0.2755905511811024
          },
          {
            "number": 2,
            "time": 52.26437500000015,
            "value": 0.2755905511811024
          },
          {
            "number": 2,
            "time": 52.26500000000015,
            "value": 0.2755905511811024
          },
          {
            "number": 2,
            "time": 52.26562500000015,
            "value": 0.2755905511811024
          },
          {
            "number": 2,
            "time": 52.26625000000015,
            "value": 0.2677165354330709
          },
          {
            "number": 2,
            "time": 52.26687500000015,
            "value": 0.2677165354330709
          },
          {
            "number": 2,
            "time": 52.26750000000015,
            "value": 0.2677165354330709
          },
          {
            "number": 2,
            "time": 52.26812500000015,
            "value": 0.2677165354330709
          },
          {
            "number": 2,
            "time": 52.268750000000146,
            "value": 0.2677165354330709
          },
          {
            "number": 2,
            "time": 52.269375000000146,
            "value": 0.2677165354330709
          },
          {
            "number": 2,
            "time": 52.270000000000145,
            "value": 0.2677165354330709
          },
          {
            "number": 2,
            "time": 52.270625000000145,
            "value": 0.25984251968503935
          },
          {
            "number": 2,
            "time": 52.271250000000144,
            "value": 0.25984251968503935
          },
          {
            "number": 2,
            "time": 52.27187500000014,
            "value": 0.25984251968503935
          },
          {
            "number": 2,
            "time": 52.27250000000014,
            "value": 0.25984251968503935
          },
          {
            "number": 2,
            "time": 52.27312500000014,
            "value": 0.25984251968503935
          },
          {
            "number": 2,
            "time": 52.27375000000014,
            "value": 0.25984251968503935
          },
          {
            "number": 2,
            "time": 52.27437500000014,
            "value": 0.25984251968503935
          },
          {
            "number": 2,
            "time": 52.65000000000014,
            "value": 0.3858267716535433
          },
          {
            "number": 2,
            "time": 52.65062500000014,
            "value": 0.3858267716535433
          },
          {
            "number": 2,
            "time": 52.65125000000014,
            "value": 0.3858267716535433
          },
          {
            "number": 2,
            "time": 52.65187500000014,
            "value": 0.3858267716535433
          },
          {
            "number": 2,
            "time": 52.65250000000014,
            "value": 0.3779527559055118
          },
          {
            "number": 2,
            "time": 52.65312500000014,
            "value": 0.3779527559055118
          },
          {
            "number": 2,
            "time": 52.65375000000014,
            "value": 0.3779527559055118
          },
          {
            "number": 2,
            "time": 52.65437500000014,
            "value": 0.3779527559055118
          },
          {
            "number": 2,
            "time": 52.655000000000136,
            "value": 0.3779527559055118
          },
          {
            "number": 2,
            "time": 52.655625000000136,
            "value": 0.3779527559055118
          },
          {
            "number": 2,
            "time": 52.656250000000135,
            "value": 0.3779527559055118
          },
          {
            "number": 2,
            "time": 52.656875000000134,
            "value": 0.3700787401574803
          },
          {
            "number": 2,
            "time": 52.657500000000134,
            "value": 0.3700787401574803
          },
          {
            "number": 2,
            "time": 52.65812500000013,
            "value": 0.3700787401574803
          },
          {
            "number": 2,
            "time": 52.65875000000013,
            "value": 0.3700787401574803
          },
          {
            "number": 2,
            "time": 52.65937500000013,
            "value": 0.3700787401574803
          },
          {
            "number": 2,
            "time": 52.66000000000013,
            "value": 0.3700787401574803
          },
          {
            "number": 2,
            "time": 52.66062500000013,
            "value": 0.3700787401574803
          },
          {
            "number": 2,
            "time": 52.66125000000013,
            "value": 0.3700787401574803
          },
          {
            "number": 2,
            "time": 52.66187500000013,
            "value": 0.36220472440944884
          },
          {
            "number": 2,
            "time": 52.66250000000013,
            "value": 0.36220472440944884
          },
          {
            "number": 2,
            "time": 52.66312500000013,
            "value": 0.36220472440944884
          },
          {
            "number": 2,
            "time": 52.66375000000013,
            "value": 0.36220472440944884
          },
          {
            "number": 2,
            "time": 52.66437500000013,
            "value": 0.36220472440944884
          },
          {
            "number": 2,
            "time": 52.66500000000013,
            "value": 0.36220472440944884
          },
          {
            "number": 2,
            "time": 52.66562500000013,
            "value": 0.36220472440944884
          },
          {
            "number": 2,
            "time": 52.666250000000126,
            "value": 0.3543307086614173
          },
          {
            "number": 2,
            "time": 52.666875000000125,
            "value": 0.3543307086614173
          },
          {
            "number": 2,
            "time": 52.667500000000125,
            "value": 0.3543307086614173
          },
          {
            "number": 2,
            "time": 52.668125000000124,
            "value": 0.3543307086614173
          },
          {
            "number": 2,
            "time": 52.668750000000124,
            "value": 0.3543307086614173
          },
          {
            "number": 2,
            "time": 52.66937500000012,
            "value": 0.3543307086614173
          },
          {
            "number": 2,
            "time": 52.67000000000012,
            "value": 0.3543307086614173
          },
          {
            "number": 2,
            "time": 52.67062500000012,
            "value": 0.3464566929133858
          },
          {
            "number": 2,
            "time": 52.67125000000012,
            "value": 0.3464566929133858
          },
          {
            "number": 2,
            "time": 52.67187500000012,
            "value": 0.3464566929133858
          },
          {
            "number": 2,
            "time": 52.67250000000012,
            "value": 0.3464566929133858
          },
          {
            "number": 2,
            "time": 52.67312500000012,
            "value": 0.3464566929133858
          },
          {
            "number": 2,
            "time": 52.67375000000012,
            "value": 0.3464566929133858
          },
          {
            "number": 2,
            "time": 52.67437500000012,
            "value": 0.3464566929133858
          },
          {
            "number": 2,
            "time": 52.67500000000012,
            "value": 0.3464566929133858
          },
          {
            "number": 2,
            "time": 52.67562500000012,
            "value": 0.33858267716535434
          },
          {
            "number": 2,
            "time": 52.67625000000012,
            "value": 0.33858267716535434
          },
          {
            "number": 2,
            "time": 52.676875000000116,
            "value": 0.33858267716535434
          },
          {
            "number": 2,
            "time": 52.677500000000116,
            "value": 0.33858267716535434
          },
          {
            "number": 2,
            "time": 52.678125000000115,
            "value": 0.33858267716535434
          },
          {
            "number": 2,
            "time": 52.678750000000115,
            "value": 0.33858267716535434
          },
          {
            "number": 2,
            "time": 52.679375000000114,
            "value": 0.33858267716535434
          },
          {
            "number": 2,
            "time": 52.68000000000011,
            "value": 0.33070866141732286
          },
          {
            "number": 2,
            "time": 52.68062500000011,
            "value": 0.33070866141732286
          },
          {
            "number": 2,
            "time": 52.68125000000011,
            "value": 0.33070866141732286
          },
          {
            "number": 2,
            "time": 52.68187500000011,
            "value": 0.33070866141732286
          },
          {
            "number": 2,
            "time": 52.68250000000011,
            "value": 0.33070866141732286
          },
          {
            "number": 2,
            "time": 52.68312500000011,
            "value": 0.33070866141732286
          },
          {
            "number": 2,
            "time": 52.68375000000011,
            "value": 0.33070866141732286
          },
          {
            "number": 2,
            "time": 52.68437500000011,
            "value": 0.3228346456692913
          },
          {
            "number": 2,
            "time": 52.68500000000011,
            "value": 0.3228346456692913
          },
          {
            "number": 2,
            "time": 52.68562500000011,
            "value": 0.3228346456692913
          },
          {
            "number": 2,
            "time": 52.68625000000011,
            "value": 0.3228346456692913
          },
          {
            "number": 2,
            "time": 52.68687500000011,
            "value": 0.3228346456692913
          },
          {
            "number": 2,
            "time": 52.68750000000011,
            "value": 0.3228346456692913
          },
          {
            "number": 2,
            "time": 52.688125000000106,
            "value": 0.3228346456692913
          },
          {
            "number": 2,
            "time": 52.688750000000105,
            "value": 0.31496062992125984
          },
          {
            "number": 2,
            "time": 52.689375000000105,
            "value": 0.31496062992125984
          },
          {
            "number": 2,
            "time": 52.690000000000104,
            "value": 0.31496062992125984
          },
          {
            "number": 2,
            "time": 52.690625000000104,
            "value": 0.31496062992125984
          },
          {
            "number": 2,
            "time": 52.6912500000001,
            "value": 0.31496062992125984
          },
          {
            "number": 2,
            "time": 52.6918750000001,
            "value": 0.31496062992125984
          },
          {
            "number": 2,
            "time": 52.6925000000001,
            "value": 0.31496062992125984
          },
          {
            "number": 2,
            "time": 52.6931250000001,
            "value": 0.31496062992125984
          },
          {
            "number": 2,
            "time": 52.6937500000001,
            "value": 0.30708661417322836
          },
          {
            "number": 2,
            "time": 52.6943750000001,
            "value": 0.30708661417322836
          },
          {
            "number": 2,
            "time": 52.6950000000001,
            "value": 0.30708661417322836
          },
          {
            "number": 2,
            "time": 52.6956250000001,
            "value": 0.30708661417322836
          },
          {
            "number": 2,
            "time": 52.6962500000001,
            "value": 0.30708661417322836
          },
          {
            "number": 2,
            "time": 52.6968750000001,
            "value": 0.30708661417322836
          },
          {
            "number": 2,
            "time": 52.6975000000001,
            "value": 0.30708661417322836
          },
          {
            "number": 2,
            "time": 52.6981250000001,
            "value": 0.2992125984251969
          },
          {
            "number": 2,
            "time": 52.698750000000096,
            "value": 0.2992125984251969
          },
          {
            "number": 2,
            "time": 52.699375000000096,
            "value": 0.2992125984251969
          },
          {
            "number": 2,
            "time": 52.700000000000095,
            "value": 0.2992125984251969
          },
          {
            "number": 2,
            "time": 52.700625000000095,
            "value": 0.2992125984251969
          },
          {
            "number": 2,
            "time": 52.701250000000094,
            "value": 0.2992125984251969
          },
          {
            "number": 2,
            "time": 52.70187500000009,
            "value": 0.2992125984251969
          },
          {
            "number": 2,
            "time": 52.70250000000009,
            "value": 0.29133858267716534
          },
          {
            "number": 2,
            "time": 52.70312500000009,
            "value": 0.29133858267716534
          },
          {
            "number": 2,
            "time": 52.70375000000009,
            "value": 0.29133858267716534
          },
          {
            "number": 2,
            "time": 52.70437500000009,
            "value": 0.29133858267716534
          },
          {
            "number": 2,
            "time": 52.70500000000009,
            "value": 0.29133858267716534
          },
          {
            "number": 2,
            "time": 52.70562500000009,
            "value": 0.29133858267716534
          },
          {
            "number": 2,
            "time": 52.70625000000009,
            "value": 0.29133858267716534
          },
          {
            "number": 2,
            "time": 52.70687500000009,
            "value": 0.28346456692913385
          },
          {
            "number": 2,
            "time": 52.70750000000009,
            "value": 0.28346456692913385
          },
          {
            "number": 2,
            "time": 52.70812500000009,
            "value": 0.28346456692913385
          },
          {
            "number": 2,
            "time": 52.70875000000009,
            "value": 0.28346456692913385
          },
          {
            "number": 2,
            "time": 52.70937500000009,
            "value": 0.28346456692913385
          },
          {
            "number": 2,
            "time": 52.710000000000086,
            "value": 0.28346456692913385
          },
          {
            "number": 2,
            "time": 52.710625000000086,
            "value": 0.28346456692913385
          },
          {
            "number": 2,
            "time": 52.711250000000085,
            "value": 0.28346456692913385
          },
          {
            "number": 2,
            "time": 52.711875000000084,
            "value": 0.2755905511811024
          },
          {
            "number": 2,
            "time": 52.712500000000084,
            "value": 0.2755905511811024
          },
          {
            "number": 2,
            "time": 52.71312500000008,
            "value": 0.2755905511811024
          },
          {
            "number": 2,
            "time": 52.71375000000008,
            "value": 0.2755905511811024
          },
          {
            "number": 2,
            "time": 52.71437500000008,
            "value": 0.2755905511811024
          },
          {
            "number": 2,
            "time": 52.71500000000008,
            "value": 0.2755905511811024
          },
          {
            "number": 2,
            "time": 52.71562500000008,
            "value": 0.2755905511811024
          },
          {
            "number": 2,
            "time": 52.71625000000008,
            "value": 0.2677165354330709
          },
          {
            "number": 2,
            "time": 52.71687500000008,
            "value": 0.2677165354330709
          },
          {
            "number": 2,
            "time": 52.71750000000008,
            "value": 0.2677165354330709
          },
          {
            "number": 2,
            "time": 52.71812500000008,
            "value": 0.2677165354330709
          },
          {
            "number": 2,
            "time": 52.71875000000008,
            "value": 0.2677165354330709
          },
          {
            "number": 2,
            "time": 52.71937500000008,
            "value": 0.2677165354330709
          },
          {
            "number": 2,
            "time": 52.72000000000008,
            "value": 0.2677165354330709
          },
          {
            "number": 2,
            "time": 52.72062500000008,
            "value": 0.25984251968503935
          },
          {
            "number": 2,
            "time": 52.721250000000076,
            "value": 0.25984251968503935
          },
          {
            "number": 2,
            "time": 52.721875000000075,
            "value": 0.25984251968503935
          },
          {
            "number": 2,
            "time": 52.722500000000075,
            "value": 0.25984251968503935
          },
          {
            "number": 2,
            "time": 52.723125000000074,
            "value": 0.25984251968503935
          },
          {
            "number": 2,
            "time": 52.723750000000074,
            "value": 0.25984251968503935
          },
          {
            "number": 2,
            "time": 52.72437500000007,
            "value": 0.25984251968503935
          },
          {
            "number": 2,
            "time": 53.10000000000007,
            "value": 0.3858267716535433
          },
          {
            "number": 2,
            "time": 53.10062500000007,
            "value": 0.3858267716535433
          },
          {
            "number": 2,
            "time": 53.10125000000007,
            "value": 0.3858267716535433
          },
          {
            "number": 2,
            "time": 53.10187500000007,
            "value": 0.3858267716535433
          },
          {
            "number": 2,
            "time": 53.10250000000007,
            "value": 0.3779527559055118
          },
          {
            "number": 2,
            "time": 53.10312500000007,
            "value": 0.3779527559055118
          },
          {
            "number": 2,
            "time": 53.10375000000007,
            "value": 0.3779527559055118
          },
          {
            "number": 2,
            "time": 53.10437500000007,
            "value": 0.3779527559055118
          },
          {
            "number": 2,
            "time": 53.10500000000007,
            "value": 0.3779527559055118
          },
          {
            "number": 2,
            "time": 53.10562500000007,
            "value": 0.3779527559055118
          },
          {
            "number": 2,
            "time": 53.10625000000007,
            "value": 0.3779527559055118
          },
          {
            "number": 2,
            "time": 53.106875000000066,
            "value": 0.3700787401574803
          },
          {
            "number": 2,
            "time": 53.107500000000066,
            "value": 0.3700787401574803
          },
          {
            "number": 2,
            "time": 53.108125000000065,
            "value": 0.3700787401574803
          },
          {
            "number": 2,
            "time": 53.108750000000065,
            "value": 0.3700787401574803
          },
          {
            "number": 2,
            "time": 53.109375000000064,
            "value": 0.3700787401574803
          },
          {
            "number": 2,
            "time": 53.11000000000006,
            "value": 0.3700787401574803
          },
          {
            "number": 2,
            "time": 53.11062500000006,
            "value": 0.3700787401574803
          },
          {
            "number": 2,
            "time": 53.11125000000006,
            "value": 0.3700787401574803
          },
          {
            "number": 2,
            "time": 53.11187500000006,
            "value": 0.36220472440944884
          },
          {
            "number": 2,
            "time": 53.11250000000006,
            "value": 0.36220472440944884
          },
          {
            "number": 2,
            "time": 53.11312500000006,
            "value": 0.36220472440944884
          },
          {
            "number": 2,
            "time": 53.11375000000006,
            "value": 0.36220472440944884
          },
          {
            "number": 2,
            "time": 53.11437500000006,
            "value": 0.36220472440944884
          },
          {
            "number": 2,
            "time": 53.11500000000006,
            "value": 0.36220472440944884
          },
          {
            "number": 2,
            "time": 53.11562500000006,
            "value": 0.36220472440944884
          },
          {
            "number": 2,
            "time": 53.11625000000006,
            "value": 0.3543307086614173
          },
          {
            "number": 2,
            "time": 53.11687500000006,
            "value": 0.3543307086614173
          },
          {
            "number": 2,
            "time": 53.11750000000006,
            "value": 0.3543307086614173
          },
          {
            "number": 2,
            "time": 53.118125000000056,
            "value": 0.3543307086614173
          },
          {
            "number": 2,
            "time": 53.118750000000055,
            "value": 0.3543307086614173
          },
          {
            "number": 2,
            "time": 53.119375000000055,
            "value": 0.3543307086614173
          },
          {
            "number": 2,
            "time": 53.120000000000054,
            "value": 0.3543307086614173
          },
          {
            "number": 2,
            "time": 53.120625000000054,
            "value": 0.3464566929133858
          },
          {
            "number": 2,
            "time": 53.12125000000005,
            "value": 0.3464566929133858
          },
          {
            "number": 2,
            "time": 53.12187500000005,
            "value": 0.3464566929133858
          },
          {
            "number": 2,
            "time": 53.12250000000005,
            "value": 0.3464566929133858
          },
          {
            "number": 2,
            "time": 53.12312500000005,
            "value": 0.3464566929133858
          },
          {
            "number": 2,
            "time": 53.12375000000005,
            "value": 0.3464566929133858
          },
          {
            "number": 2,
            "time": 53.12437500000005,
            "value": 0.3464566929133858
          },
          {
            "number": 2,
            "time": 53.12500000000005,
            "value": 0.3464566929133858
          },
          {
            "number": 2,
            "time": 53.12562500000005,
            "value": 0.33858267716535434
          },
          {
            "number": 2,
            "time": 53.12625000000005,
            "value": 0.33858267716535434
          },
          {
            "number": 2,
            "time": 53.12687500000005,
            "value": 0.33858267716535434
          },
          {
            "number": 2,
            "time": 53.12750000000005,
            "value": 0.33858267716535434
          },
          {
            "number": 2,
            "time": 53.12812500000005,
            "value": 0.33858267716535434
          },
          {
            "number": 2,
            "time": 53.128750000000046,
            "value": 0.33858267716535434
          },
          {
            "number": 2,
            "time": 53.129375000000046,
            "value": 0.33858267716535434
          },
          {
            "number": 2,
            "time": 53.130000000000045,
            "value": 0.33070866141732286
          },
          {
            "number": 2,
            "time": 53.130625000000045,
            "value": 0.33070866141732286
          },
          {
            "number": 2,
            "time": 53.131250000000044,
            "value": 0.33070866141732286
          },
          {
            "number": 2,
            "time": 53.13187500000004,
            "value": 0.33070866141732286
          },
          {
            "number": 2,
            "time": 53.13250000000004,
            "value": 0.33070866141732286
          },
          {
            "number": 2,
            "time": 53.13312500000004,
            "value": 0.33070866141732286
          },
          {
            "number": 2,
            "time": 53.13375000000004,
            "value": 0.33070866141732286
          },
          {
            "number": 2,
            "time": 53.13437500000004,
            "value": 0.3228346456692913
          },
          {
            "number": 2,
            "time": 53.13500000000004,
            "value": 0.3228346456692913
          },
          {
            "number": 2,
            "time": 53.13562500000004,
            "value": 0.3228346456692913
          },
          {
            "number": 2,
            "time": 53.13625000000004,
            "value": 0.3228346456692913
          },
          {
            "number": 2,
            "time": 53.13687500000004,
            "value": 0.3228346456692913
          },
          {
            "number": 2,
            "time": 53.13750000000004,
            "value": 0.3228346456692913
          },
          {
            "number": 2,
            "time": 53.13812500000004,
            "value": 0.3228346456692913
          },
          {
            "number": 2,
            "time": 53.13875000000004,
            "value": 0.31496062992125984
          },
          {
            "number": 2,
            "time": 53.13937500000004,
            "value": 0.31496062992125984
          },
          {
            "number": 2,
            "time": 53.140000000000036,
            "value": 0.31496062992125984
          },
          {
            "number": 2,
            "time": 53.140625000000036,
            "value": 0.31496062992125984
          },
          {
            "number": 2,
            "time": 53.141250000000035,
            "value": 0.31496062992125984
          },
          {
            "number": 2,
            "time": 53.141875000000034,
            "value": 0.31496062992125984
          },
          {
            "number": 2,
            "time": 53.142500000000034,
            "value": 0.31496062992125984
          },
          {
            "number": 2,
            "time": 53.14312500000003,
            "value": 0.31496062992125984
          },
          {
            "number": 2,
            "time": 53.14375000000003,
            "value": 0.30708661417322836
          },
          {
            "number": 2,
            "time": 53.14437500000003,
            "value": 0.30708661417322836
          },
          {
            "number": 2,
            "time": 53.14500000000003,
            "value": 0.30708661417322836
          },
          {
            "number": 2,
            "time": 53.14562500000003,
            "value": 0.30708661417322836
          },
          {
            "number": 2,
            "time": 53.14625000000003,
            "value": 0.30708661417322836
          },
          {
            "number": 2,
            "time": 53.14687500000003,
            "value": 0.30708661417322836
          },
          {
            "number": 2,
            "time": 53.14750000000003,
            "value": 0.30708661417322836
          },
          {
            "number": 2,
            "time": 53.14812500000003,
            "value": 0.2992125984251969
          },
          {
            "number": 2,
            "time": 53.14875000000003,
            "value": 0.2992125984251969
          },
          {
            "number": 2,
            "time": 53.14937500000003,
            "value": 0.2992125984251969
          },
          {
            "number": 2,
            "time": 53.15000000000003,
            "value": 0.2992125984251969
          },
          {
            "number": 2,
            "time": 53.150625000000026,
            "value": 0.2992125984251969
          },
          {
            "number": 2,
            "time": 53.151250000000026,
            "value": 0.2992125984251969
          },
          {
            "number": 2,
            "time": 53.151875000000025,
            "value": 0.2992125984251969
          },
          {
            "number": 2,
            "time": 53.152500000000025,
            "value": 0.29133858267716534
          },
          {
            "number": 2,
            "time": 53.153125000000024,
            "value": 0.29133858267716534
          },
          {
            "number": 2,
            "time": 53.153750000000024,
            "value": 0.29133858267716534
          },
          {
            "number": 2,
            "time": 53.15437500000002,
            "value": 0.29133858267716534
          },
          {
            "number": 2,
            "time": 53.15500000000002,
            "value": 0.29133858267716534
          },
          {
            "number": 2,
            "time": 53.15562500000002,
            "value": 0.29133858267716534
          },
          {
            "number": 2,
            "time": 53.15625000000002,
            "value": 0.29133858267716534
          },
          {
            "number": 2,
            "time": 53.15687500000002,
            "value": 0.28346456692913385
          },
          {
            "number": 2,
            "time": 53.15750000000002,
            "value": 0.28346456692913385
          },
          {
            "number": 2,
            "time": 53.15812500000002,
            "value": 0.28346456692913385
          },
          {
            "number": 2,
            "time": 53.15875000000002,
            "value": 0.28346456692913385
          },
          {
            "number": 2,
            "time": 53.15937500000002,
            "value": 0.28346456692913385
          },
          {
            "number": 2,
            "time": 53.16000000000002,
            "value": 0.28346456692913385
          },
          {
            "number": 2,
            "time": 53.16062500000002,
            "value": 0.28346456692913385
          },
          {
            "number": 2,
            "time": 53.16125000000002,
            "value": 0.28346456692913385
          },
          {
            "number": 2,
            "time": 53.161875000000016,
            "value": 0.2755905511811024
          },
          {
            "number": 2,
            "time": 53.162500000000016,
            "value": 0.2755905511811024
          },
          {
            "number": 2,
            "time": 53.163125000000015,
            "value": 0.2755905511811024
          },
          {
            "number": 2,
            "time": 53.163750000000014,
            "value": 0.2755905511811024
          },
          {
            "number": 2,
            "time": 53.164375000000014,
            "value": 0.2755905511811024
          },
          {
            "number": 2,
            "time": 53.16500000000001,
            "value": 0.2755905511811024
          },
          {
            "number": 2,
            "time": 53.16562500000001,
            "value": 0.2755905511811024
          },
          {
            "number": 2,
            "time": 53.16625000000001,
            "value": 0.2677165354330709
          },
          {
            "number": 2,
            "time": 53.16687500000001,
            "value": 0.2677165354330709
          },
          {
            "number": 2,
            "time": 53.16750000000001,
            "value": 0.2677165354330709
          },
          {
            "number": 2,
            "time": 53.16812500000001,
            "value": 0.2677165354330709
          },
          {
            "number": 2,
            "time": 53.16875000000001,
            "value": 0.2677165354330709
          },
          {
            "number": 2,
            "time": 53.16937500000001,
            "value": 0.2677165354330709
          },
          {
            "number": 2,
            "time": 53.17000000000001,
            "value": 0.2677165354330709
          },
          {
            "number": 2,
            "time": 53.17062500000001,
            "value": 0.25984251968503935
          },
          {
            "number": 2,
            "time": 53.17125000000001,
            "value": 0.25984251968503935
          },
          {
            "number": 2,
            "time": 53.17187500000001,
            "value": 0.25984251968503935
          },
          {
            "number": 2,
            "time": 53.17250000000001,
            "value": 0.25984251968503935
          },
          {
            "number": 2,
            "time": 53.173125000000006,
            "value": 0.25984251968503935
          },
          {
            "number": 2,
            "time": 53.173750000000005,
            "value": 0.25984251968503935
          },
          {
            "number": 2,
            "time": 53.174375000000005,
            "value": 0.25984251968503935
          },
          {
            "number": 2,
            "time": 53.550000000000004,
            "value": 0.3858267716535433
          },
          {
            "number": 2,
            "time": 53.550625000000004,
            "value": 0.3858267716535433
          },
          {
            "number": 2,
            "time": 53.55125,
            "value": 0.3858267716535433
          },
          {
            "number": 2,
            "time": 53.551875,
            "value": 0.3858267716535433
          },
          {
            "number": 2,
            "time": 53.5525,
            "value": 0.3779527559055118
          },
          {
            "number": 2,
            "time": 53.553125,
            "value": 0.3779527559055118
          },
          {
            "number": 2,
            "time": 53.55375,
            "value": 0.3779527559055118
          },
          {
            "number": 2,
            "time": 53.554375,
            "value": 0.3779527559055118
          },
          {
            "number": 2,
            "time": 53.555,
            "value": 0.3779527559055118
          },
          {
            "number": 2,
            "time": 53.555625,
            "value": 0.3779527559055118
          },
          {
            "number": 2,
            "time": 53.55625,
            "value": 0.3779527559055118
          },
          {
            "number": 2,
            "time": 53.556875,
            "value": 0.3700787401574803
          },
          {
            "number": 2,
            "time": 53.5575,
            "value": 0.3700787401574803
          },
          {
            "number": 2,
            "time": 53.558125,
            "value": 0.3700787401574803
          },
          {
            "number": 2,
            "time": 53.558749999999996,
            "value": 0.3700787401574803
          },
          {
            "number": 2,
            "time": 53.559374999999996,
            "value": 0.3700787401574803
          },
          {
            "number": 2,
            "time": 53.559999999999995,
            "value": 0.3700787401574803
          },
          {
            "number": 2,
            "time": 53.560624999999995,
            "value": 0.3700787401574803
          },
          {
            "number": 2,
            "time": 53.561249999999994,
            "value": 0.3700787401574803
          },
          {
            "number": 2,
            "time": 53.56187499999999,
            "value": 0.36220472440944884
          },
          {
            "number": 2,
            "time": 53.56249999999999,
            "value": 0.36220472440944884
          },
          {
            "number": 2,
            "time": 53.56312499999999,
            "value": 0.36220472440944884
          },
          {
            "number": 2,
            "time": 53.56374999999999,
            "value": 0.36220472440944884
          },
          {
            "number": 2,
            "time": 53.56437499999999,
            "value": 0.36220472440944884
          },
          {
            "number": 2,
            "time": 53.56499999999999,
            "value": 0.36220472440944884
          },
          {
            "number": 2,
            "time": 53.56562499999999,
            "value": 0.36220472440944884
          },
          {
            "number": 2,
            "time": 53.56624999999999,
            "value": 0.3543307086614173
          },
          {
            "number": 2,
            "time": 53.56687499999999,
            "value": 0.3543307086614173
          },
          {
            "number": 2,
            "time": 53.56749999999999,
            "value": 0.3543307086614173
          },
          {
            "number": 2,
            "time": 53.56812499999999,
            "value": 0.3543307086614173
          },
          {
            "number": 2,
            "time": 53.56874999999999,
            "value": 0.3543307086614173
          },
          {
            "number": 2,
            "time": 53.56937499999999,
            "value": 0.3543307086614173
          },
          {
            "number": 2,
            "time": 53.569999999999986,
            "value": 0.3543307086614173
          },
          {
            "number": 2,
            "time": 53.570624999999986,
            "value": 0.3464566929133858
          },
          {
            "number": 2,
            "time": 53.571249999999985,
            "value": 0.3464566929133858
          },
          {
            "number": 2,
            "time": 53.571874999999984,
            "value": 0.3464566929133858
          },
          {
            "number": 2,
            "time": 53.572499999999984,
            "value": 0.3464566929133858
          },
          {
            "number": 2,
            "time": 53.57312499999998,
            "value": 0.3464566929133858
          },
          {
            "number": 2,
            "time": 53.57374999999998,
            "value": 0.3464566929133858
          },
          {
            "number": 2,
            "time": 53.57437499999998,
            "value": 0.3464566929133858
          },
          {
            "number": 2,
            "time": 53.57499999999998,
            "value": 0.3464566929133858
          },
          {
            "number": 2,
            "time": 53.57562499999998,
            "value": 0.33858267716535434
          },
          {
            "number": 2,
            "time": 53.57624999999998,
            "value": 0.33858267716535434
          },
          {
            "number": 2,
            "time": 53.57687499999998,
            "value": 0.33858267716535434
          },
          {
            "number": 2,
            "time": 53.57749999999998,
            "value": 0.33858267716535434
          },
          {
            "number": 2,
            "time": 53.57812499999998,
            "value": 0.33858267716535434
          },
          {
            "number": 2,
            "time": 53.57874999999998,
            "value": 0.33858267716535434
          },
          {
            "number": 2,
            "time": 53.57937499999998,
            "value": 0.33858267716535434
          },
          {
            "number": 2,
            "time": 53.57999999999998,
            "value": 0.33070866141732286
          },
          {
            "number": 2,
            "time": 53.580624999999976,
            "value": 0.33070866141732286
          },
          {
            "number": 2,
            "time": 53.581249999999976,
            "value": 0.33070866141732286
          },
          {
            "number": 2,
            "time": 53.581874999999975,
            "value": 0.33070866141732286
          },
          {
            "number": 2,
            "time": 53.582499999999975,
            "value": 0.33070866141732286
          },
          {
            "number": 2,
            "time": 53.583124999999974,
            "value": 0.33070866141732286
          },
          {
            "number": 2,
            "time": 53.583749999999974,
            "value": 0.33070866141732286
          },
          {
            "number": 2,
            "time": 53.58437499999997,
            "value": 0.3228346456692913
          },
          {
            "number": 2,
            "time": 53.58499999999997,
            "value": 0.3228346456692913
          },
          {
            "number": 2,
            "time": 53.58562499999997,
            "value": 0.3228346456692913
          },
          {
            "number": 2,
            "time": 53.58624999999997,
            "value": 0.3228346456692913
          },
          {
            "number": 2,
            "time": 53.58687499999997,
            "value": 0.3228346456692913
          },
          {
            "number": 2,
            "time": 53.58749999999997,
            "value": 0.3228346456692913
          },
          {
            "number": 2,
            "time": 53.58812499999997,
            "value": 0.3228346456692913
          },
          {
            "number": 2,
            "time": 53.58874999999997,
            "value": 0.31496062992125984
          },
          {
            "number": 2,
            "time": 53.58937499999997,
            "value": 0.31496062992125984
          },
          {
            "number": 2,
            "time": 53.58999999999997,
            "value": 0.31496062992125984
          },
          {
            "number": 2,
            "time": 53.59062499999997,
            "value": 0.31496062992125984
          },
          {
            "number": 2,
            "time": 53.59124999999997,
            "value": 0.31496062992125984
          },
          {
            "number": 2,
            "time": 53.591874999999966,
            "value": 0.31496062992125984
          },
          {
            "number": 2,
            "time": 53.592499999999966,
            "value": 0.31496062992125984
          },
          {
            "number": 2,
            "time": 53.593124999999965,
            "value": 0.31496062992125984
          },
          {
            "number": 2,
            "time": 53.593749999999964,
            "value": 0.30708661417322836
          },
          {
            "number": 2,
            "time": 53.594374999999964,
            "value": 0.30708661417322836
          },
          {
            "number": 2,
            "time": 53.59499999999996,
            "value": 0.30708661417322836
          },
          {
            "number": 2,
            "time": 53.59562499999996,
            "value": 0.30708661417322836
          },
          {
            "number": 2,
            "time": 53.59624999999996,
            "value": 0.30708661417322836
          },
          {
            "number": 2,
            "time": 53.59687499999996,
            "value": 0.30708661417322836
          },
          {
            "number": 2,
            "time": 53.59749999999996,
            "value": 0.30708661417322836
          },
          {
            "number": 2,
            "time": 53.59812499999996,
            "value": 0.2992125984251969
          },
          {
            "number": 2,
            "time": 53.59874999999996,
            "value": 0.2992125984251969
          },
          {
            "number": 2,
            "time": 53.59937499999996,
            "value": 0.2992125984251969
          },
          {
            "number": 2,
            "time": 53.59999999999996,
            "value": 0.2992125984251969
          },
          {
            "number": 2,
            "time": 53.60062499999996,
            "value": 0.2992125984251969
          },
          {
            "number": 2,
            "time": 53.60124999999996,
            "value": 0.2992125984251969
          },
          {
            "number": 2,
            "time": 53.60187499999996,
            "value": 0.2992125984251969
          },
          {
            "number": 2,
            "time": 53.60249999999996,
            "value": 0.29133858267716534
          },
          {
            "number": 2,
            "time": 53.603124999999956,
            "value": 0.29133858267716534
          },
          {
            "number": 2,
            "time": 53.603749999999955,
            "value": 0.29133858267716534
          },
          {
            "number": 2,
            "time": 53.604374999999955,
            "value": 0.29133858267716534
          },
          {
            "number": 2,
            "time": 53.604999999999954,
            "value": 0.29133858267716534
          },
          {
            "number": 2,
            "time": 53.605624999999954,
            "value": 0.29133858267716534
          },
          {
            "number": 2,
            "time": 53.60624999999995,
            "value": 0.29133858267716534
          },
          {
            "number": 2,
            "time": 53.60687499999995,
            "value": 0.28346456692913385
          },
          {
            "number": 2,
            "time": 53.60749999999995,
            "value": 0.28346456692913385
          },
          {
            "number": 2,
            "time": 53.60812499999995,
            "value": 0.28346456692913385
          },
          {
            "number": 2,
            "time": 53.60874999999995,
            "value": 0.28346456692913385
          },
          {
            "number": 2,
            "time": 53.60937499999995,
            "value": 0.28346456692913385
          },
          {
            "number": 2,
            "time": 53.60999999999995,
            "value": 0.28346456692913385
          },
          {
            "number": 2,
            "time": 53.61062499999995,
            "value": 0.28346456692913385
          },
          {
            "number": 2,
            "time": 53.61124999999995,
            "value": 0.28346456692913385
          },
          {
            "number": 2,
            "time": 53.61187499999995,
            "value": 0.2755905511811024
          },
          {
            "number": 2,
            "time": 53.61249999999995,
            "value": 0.2755905511811024
          },
          {
            "number": 2,
            "time": 53.61312499999995,
            "value": 0.2755905511811024
          },
          {
            "number": 2,
            "time": 53.613749999999946,
            "value": 0.2755905511811024
          },
          {
            "number": 2,
            "time": 53.614374999999946,
            "value": 0.2755905511811024
          },
          {
            "number": 2,
            "time": 53.614999999999945,
            "value": 0.2755905511811024
          },
          {
            "number": 2,
            "time": 53.615624999999945,
            "value": 0.2755905511811024
          },
          {
            "number": 2,
            "time": 53.616249999999944,
            "value": 0.2677165354330709
          },
          {
            "number": 2,
            "time": 53.61687499999994,
            "value": 0.2677165354330709
          },
          {
            "number": 2,
            "time": 53.61749999999994,
            "value": 0.2677165354330709
          },
          {
            "number": 2,
            "time": 53.61812499999994,
            "value": 0.2677165354330709
          },
          {
            "number": 2,
            "time": 53.61874999999994,
            "value": 0.2677165354330709
          },
          {
            "number": 2,
            "time": 53.61937499999994,
            "value": 0.2677165354330709
          },
          {
            "number": 2,
            "time": 53.61999999999994,
            "value": 0.2677165354330709
          },
          {
            "number": 2,
            "time": 53.62062499999994,
            "value": 0.25984251968503935
          },
          {
            "number": 2,
            "time": 53.62124999999994,
            "value": 0.25984251968503935
          },
          {
            "number": 2,
            "time": 53.62187499999994,
            "value": 0.25984251968503935
          },
          {
            "number": 2,
            "time": 53.62249999999994,
            "value": 0.25984251968503935
          },
          {
            "number": 2,
            "time": 53.62312499999994,
            "value": 0.25984251968503935
          },
          {
            "number": 2,
            "time": 53.62374999999994,
            "value": 0.25984251968503935
          },
          {
            "number": 2,
            "time": 53.62437499999994,
            "value": 0.25984251968503935
          },
          {
            "number": 2,
            "time": 53.84999999999994,
            "value": 0.25984251968503935
          },
          {
            "number": 2,
            "time": 53.999999999999936,
            "value": 0.3858267716535433
          },
          {
            "number": 2,
            "time": 54.000624999999935,
            "value": 0.3858267716535433
          },
          {
            "number": 2,
            "time": 54.001249999999935,
            "value": 0.3858267716535433
          },
          {
            "number": 2,
            "time": 54.001874999999934,
            "value": 0.3858267716535433
          },
          {
            "number": 2,
            "time": 54.002499999999934,
            "value": 0.3779527559055118
          },
          {
            "number": 2,
            "time": 54.00312499999993,
            "value": 0.3779527559055118
          },
          {
            "number": 2,
            "time": 54.00374999999993,
            "value": 0.3779527559055118
          },
          {
            "number": 2,
            "time": 54.00437499999993,
            "value": 0.3779527559055118
          },
          {
            "number": 2,
            "time": 54.00499999999993,
            "value": 0.3779527559055118
          },
          {
            "number": 2,
            "time": 54.00562499999993,
            "value": 0.3779527559055118
          },
          {
            "number": 2,
            "time": 54.00624999999993,
            "value": 0.3779527559055118
          },
          {
            "number": 2,
            "time": 54.00687499999993,
            "value": 0.3700787401574803
          },
          {
            "number": 2,
            "time": 54.00749999999993,
            "value": 0.3700787401574803
          },
          {
            "number": 2,
            "time": 54.00812499999993,
            "value": 0.3700787401574803
          },
          {
            "number": 2,
            "time": 54.00874999999993,
            "value": 0.3700787401574803
          },
          {
            "number": 2,
            "time": 54.00937499999993,
            "value": 0.3700787401574803
          },
          {
            "number": 2,
            "time": 54.00999999999993,
            "value": 0.3700787401574803
          },
          {
            "number": 2,
            "time": 54.010624999999926,
            "value": 0.3700787401574803
          },
          {
            "number": 2,
            "time": 54.011249999999926,
            "value": 0.3700787401574803
          },
          {
            "number": 2,
            "time": 54.011874999999925,
            "value": 0.36220472440944884
          },
          {
            "number": 2,
            "time": 54.012499999999925,
            "value": 0.36220472440944884
          },
          {
            "number": 2,
            "time": 54.013124999999924,
            "value": 0.36220472440944884
          },
          {
            "number": 2,
            "time": 54.01374999999992,
            "value": 0.36220472440944884
          },
          {
            "number": 2,
            "time": 54.01437499999992,
            "value": 0.36220472440944884
          },
          {
            "number": 2,
            "time": 54.01499999999992,
            "value": 0.36220472440944884
          },
          {
            "number": 2,
            "time": 54.01562499999992,
            "value": 0.36220472440944884
          },
          {
            "number": 2,
            "time": 54.01624999999992,
            "value": 0.3543307086614173
          },
          {
            "number": 2,
            "time": 54.01687499999992,
            "value": 0.3543307086614173
          },
          {
            "number": 2,
            "time": 54.01749999999992,
            "value": 0.3543307086614173
          },
          {
            "number": 2,
            "time": 54.01812499999992,
            "value": 0.3543307086614173
          },
          {
            "number": 2,
            "time": 54.01874999999992,
            "value": 0.3543307086614173
          },
          {
            "number": 2,
            "time": 54.01937499999992,
            "value": 0.3543307086614173
          },
          {
            "number": 2,
            "time": 54.01999999999992,
            "value": 0.3543307086614173
          },
          {
            "number": 2,
            "time": 54.02062499999992,
            "value": 0.3464566929133858
          },
          {
            "number": 2,
            "time": 54.02124999999992,
            "value": 0.3464566929133858
          },
          {
            "number": 2,
            "time": 54.021874999999916,
            "value": 0.3464566929133858
          },
          {
            "number": 2,
            "time": 54.022499999999916,
            "value": 0.3464566929133858
          },
          {
            "number": 2,
            "time": 54.023124999999915,
            "value": 0.3464566929133858
          },
          {
            "number": 2,
            "time": 54.023749999999914,
            "value": 0.3464566929133858
          },
          {
            "number": 2,
            "time": 54.024374999999914,
            "value": 0.3464566929133858
          },
          {
            "number": 2,
            "time": 54.02499999999991,
            "value": 0.3464566929133858
          },
          {
            "number": 2,
            "time": 54.02562499999991,
            "value": 0.33858267716535434
          },
          {
            "number": 2,
            "time": 54.02624999999991,
            "value": 0.33858267716535434
          },
          {
            "number": 2,
            "time": 54.02687499999991,
            "value": 0.33858267716535434
          },
          {
            "number": 2,
            "time": 54.02749999999991,
            "value": 0.33858267716535434
          },
          {
            "number": 2,
            "time": 54.02812499999991,
            "value": 0.33858267716535434
          },
          {
            "number": 2,
            "time": 54.02874999999991,
            "value": 0.33858267716535434
          },
          {
            "number": 2,
            "time": 54.02937499999991,
            "value": 0.33858267716535434
          },
          {
            "number": 2,
            "time": 54.02999999999991,
            "value": 0.33070866141732286
          },
          {
            "number": 2,
            "time": 54.03062499999991,
            "value": 0.33070866141732286
          },
          {
            "number": 2,
            "time": 54.03124999999991,
            "value": 0.33070866141732286
          },
          {
            "number": 2,
            "time": 54.03187499999991,
            "value": 0.33070866141732286
          },
          {
            "number": 2,
            "time": 54.03249999999991,
            "value": 0.33070866141732286
          },
          {
            "number": 2,
            "time": 54.033124999999906,
            "value": 0.33070866141732286
          },
          {
            "number": 2,
            "time": 54.033749999999905,
            "value": 0.33070866141732286
          },
          {
            "number": 2,
            "time": 54.034374999999905,
            "value": 0.3228346456692913
          },
          {
            "number": 2,
            "time": 54.034999999999904,
            "value": 0.3228346456692913
          },
          {
            "number": 2,
            "time": 54.035624999999904,
            "value": 0.3228346456692913
          },
          {
            "number": 2,
            "time": 54.0362499999999,
            "value": 0.3228346456692913
          },
          {
            "number": 2,
            "time": 54.0368749999999,
            "value": 0.3228346456692913
          },
          {
            "number": 2,
            "time": 54.0374999999999,
            "value": 0.3228346456692913
          },
          {
            "number": 2,
            "time": 54.0381249999999,
            "value": 0.3228346456692913
          },
          {
            "number": 2,
            "time": 54.0387499999999,
            "value": 0.31496062992125984
          },
          {
            "number": 2,
            "time": 54.0393749999999,
            "value": 0.31496062992125984
          },
          {
            "number": 2,
            "time": 54.0399999999999,
            "value": 0.31496062992125984
          },
          {
            "number": 2,
            "time": 54.0406249999999,
            "value": 0.31496062992125984
          },
          {
            "number": 2,
            "time": 54.0412499999999,
            "value": 0.31496062992125984
          },
          {
            "number": 2,
            "time": 54.0418749999999,
            "value": 0.31496062992125984
          },
          {
            "number": 2,
            "time": 54.0424999999999,
            "value": 0.31496062992125984
          },
          {
            "number": 2,
            "time": 54.0431249999999,
            "value": 0.31496062992125984
          },
          {
            "number": 2,
            "time": 54.043749999999896,
            "value": 0.30708661417322836
          },
          {
            "number": 2,
            "time": 54.044374999999896,
            "value": 0.30708661417322836
          },
          {
            "number": 2,
            "time": 54.044999999999895,
            "value": 0.30708661417322836
          },
          {
            "number": 2,
            "time": 54.045624999999895,
            "value": 0.30708661417322836
          },
          {
            "number": 2,
            "time": 54.046249999999894,
            "value": 0.30708661417322836
          },
          {
            "number": 2,
            "time": 54.04687499999989,
            "value": 0.30708661417322836
          },
          {
            "number": 2,
            "time": 54.04749999999989,
            "value": 0.30708661417322836
          },
          {
            "number": 2,
            "time": 54.04812499999989,
            "value": 0.2992125984251969
          },
          {
            "number": 2,
            "time": 54.04874999999989,
            "value": 0.2992125984251969
          },
          {
            "number": 2,
            "time": 54.04937499999989,
            "value": 0.2992125984251969
          },
          {
            "number": 2,
            "time": 54.04999999999989,
            "value": 0.2992125984251969
          },
          {
            "number": 2,
            "time": 54.05062499999989,
            "value": 0.2992125984251969
          },
          {
            "number": 2,
            "time": 54.05124999999989,
            "value": 0.2992125984251969
          },
          {
            "number": 2,
            "time": 54.05187499999989,
            "value": 0.2992125984251969
          },
          {
            "number": 2,
            "time": 54.05249999999989,
            "value": 0.29133858267716534
          },
          {
            "number": 2,
            "time": 54.05312499999989,
            "value": 0.29133858267716534
          },
          {
            "number": 2,
            "time": 54.05374999999989,
            "value": 0.29133858267716534
          },
          {
            "number": 2,
            "time": 54.05437499999989,
            "value": 0.29133858267716534
          },
          {
            "number": 2,
            "time": 54.054999999999886,
            "value": 0.29133858267716534
          },
          {
            "number": 2,
            "time": 54.055624999999885,
            "value": 0.29133858267716534
          },
          {
            "number": 2,
            "time": 54.056249999999885,
            "value": 0.29133858267716534
          },
          {
            "number": 2,
            "time": 54.056874999999884,
            "value": 0.28346456692913385
          },
          {
            "number": 2,
            "time": 54.057499999999884,
            "value": 0.28346456692913385
          },
          {
            "number": 2,
            "time": 54.05812499999988,
            "value": 0.28346456692913385
          },
          {
            "number": 2,
            "time": 54.05874999999988,
            "value": 0.28346456692913385
          },
          {
            "number": 2,
            "time": 54.05937499999988,
            "value": 0.28346456692913385
          },
          {
            "number": 2,
            "time": 54.05999999999988,
            "value": 0.28346456692913385
          },
          {
            "number": 2,
            "time": 54.06062499999988,
            "value": 0.28346456692913385
          },
          {
            "number": 2,
            "time": 54.06124999999988,
            "value": 0.28346456692913385
          },
          {
            "number": 2,
            "time": 54.06187499999988,
            "value": 0.2755905511811024
          },
          {
            "number": 2,
            "time": 54.06249999999988,
            "value": 0.2755905511811024
          },
          {
            "number": 2,
            "time": 54.06312499999988,
            "value": 0.2755905511811024
          },
          {
            "number": 2,
            "time": 54.06374999999988,
            "value": 0.2755905511811024
          },
          {
            "number": 2,
            "time": 54.06437499999988,
            "value": 0.2755905511811024
          },
          {
            "number": 2,
            "time": 54.06499999999988,
            "value": 0.2755905511811024
          },
          {
            "number": 2,
            "time": 54.065624999999876,
            "value": 0.2755905511811024
          },
          {
            "number": 2,
            "time": 54.066249999999876,
            "value": 0.2677165354330709
          },
          {
            "number": 2,
            "time": 54.066874999999875,
            "value": 0.2677165354330709
          },
          {
            "number": 2,
            "time": 54.067499999999875,
            "value": 0.2677165354330709
          },
          {
            "number": 2,
            "time": 54.068124999999874,
            "value": 0.2677165354330709
          },
          {
            "number": 2,
            "time": 54.06874999999987,
            "value": 0.2677165354330709
          },
          {
            "number": 2,
            "time": 54.06937499999987,
            "value": 0.2677165354330709
          },
          {
            "number": 2,
            "time": 54.06999999999987,
            "value": 0.2677165354330709
          },
          {
            "number": 2,
            "time": 54.07062499999987,
            "value": 0.25984251968503935
          },
          {
            "number": 2,
            "time": 54.07124999999987,
            "value": 0.25984251968503935
          },
          {
            "number": 2,
            "time": 54.07187499999987,
            "value": 0.25984251968503935
          },
          {
            "number": 2,
            "time": 54.07249999999987,
            "value": 0.25984251968503935
          },
          {
            "number": 2,
            "time": 54.07312499999987,
            "value": 0.25984251968503935
          },
          {
            "number": 2,
            "time": 54.07374999999987,
            "value": 0.25984251968503935
          },
          {
            "number": 2,
            "time": 54.07437499999987,
            "value": 0.25984251968503935
          },
          {
            "number": 2,
            "time": 54.29999999999987,
            "value": 0.25984251968503935
          },
          {
            "number": 2,
            "time": 54.44999999999987,
            "value": 0.25984251968503935
          },
          {
            "number": 2,
            "time": 55.349999999999866,
            "value": 0.25984251968503935
          },
          {
            "number": 2,
            "time": 56.249999999999865,
            "value": 0.25984251968503935
          },
          {
            "number": 2,
            "time": 57.149999999999864,
            "value": 0.25984251968503935
          },
          {
            "number": 2,
            "time": 58.04999999999986,
            "value": 0.25984251968503935
          },
          {
            "number": 2,
            "time": 58.94999999999987,
            "value": 0.25984251968503935
          },
          {
            "number": 2,
            "time": 59.39999999999987,
            "value": 0.25984251968503935
          },
          {
            "number": 2,
            "time": 59.84999999999987,
            "value": 0.25984251968503935
          },
          {
            "number": 2,
            "time": 60.299999999999876,
            "value": 0.25984251968503935
          },
          {
            "number": 2,
            "time": 60.74999999999988,
            "value": 0.25984251968503935
          },
          {
            "number": 2,
            "time": 60.74999999999988,
            "value": 0.3858267716535433
          },
          {
            "number": 2,
            "time": 60.75062499999988,
            "value": 0.3858267716535433
          },
          {
            "number": 2,
            "time": 60.75124999999988,
            "value": 0.3858267716535433
          },
          {
            "number": 2,
            "time": 60.75187499999988,
            "value": 0.3858267716535433
          },
          {
            "number": 2,
            "time": 60.75249999999988,
            "value": 0.3779527559055118
          },
          {
            "number": 2,
            "time": 60.753124999999876,
            "value": 0.3779527559055118
          },
          {
            "number": 2,
            "time": 60.753749999999876,
            "value": 0.3779527559055118
          },
          {
            "number": 2,
            "time": 60.754374999999875,
            "value": 0.3779527559055118
          },
          {
            "number": 2,
            "time": 60.754999999999875,
            "value": 0.3779527559055118
          },
          {
            "number": 2,
            "time": 60.755624999999874,
            "value": 0.3779527559055118
          },
          {
            "number": 2,
            "time": 60.75624999999987,
            "value": 0.3779527559055118
          },
          {
            "number": 2,
            "time": 60.75687499999987,
            "value": 0.3700787401574803
          },
          {
            "number": 2,
            "time": 60.75749999999987,
            "value": 0.3700787401574803
          },
          {
            "number": 2,
            "time": 60.75812499999987,
            "value": 0.3700787401574803
          },
          {
            "number": 2,
            "time": 60.75874999999987,
            "value": 0.3700787401574803
          },
          {
            "number": 2,
            "time": 60.75937499999987,
            "value": 0.3700787401574803
          },
          {
            "number": 2,
            "time": 60.75999999999987,
            "value": 0.3700787401574803
          },
          {
            "number": 2,
            "time": 60.76062499999987,
            "value": 0.3700787401574803
          },
          {
            "number": 2,
            "time": 60.76124999999987,
            "value": 0.3700787401574803
          },
          {
            "number": 2,
            "time": 60.76187499999987,
            "value": 0.36220472440944884
          },
          {
            "number": 2,
            "time": 60.76249999999987,
            "value": 0.36220472440944884
          },
          {
            "number": 2,
            "time": 60.76312499999987,
            "value": 0.36220472440944884
          },
          {
            "number": 2,
            "time": 60.76374999999987,
            "value": 0.36220472440944884
          },
          {
            "number": 2,
            "time": 60.764374999999866,
            "value": 0.36220472440944884
          },
          {
            "number": 2,
            "time": 60.764999999999866,
            "value": 0.36220472440944884
          },
          {
            "number": 2,
            "time": 60.765624999999865,
            "value": 0.36220472440944884
          },
          {
            "number": 2,
            "time": 60.766249999999864,
            "value": 0.3543307086614173
          },
          {
            "number": 2,
            "time": 60.766874999999864,
            "value": 0.3543307086614173
          },
          {
            "number": 2,
            "time": 60.76749999999986,
            "value": 0.3543307086614173
          },
          {
            "number": 2,
            "time": 60.76812499999986,
            "value": 0.3543307086614173
          },
          {
            "number": 2,
            "time": 60.76874999999986,
            "value": 0.3543307086614173
          },
          {
            "number": 2,
            "time": 60.76937499999986,
            "value": 0.3543307086614173
          },
          {
            "number": 2,
            "time": 60.76999999999986,
            "value": 0.3543307086614173
          },
          {
            "number": 2,
            "time": 60.77062499999986,
            "value": 0.3464566929133858
          },
          {
            "number": 2,
            "time": 60.77124999999986,
            "value": 0.3464566929133858
          },
          {
            "number": 2,
            "time": 60.77187499999986,
            "value": 0.3464566929133858
          },
          {
            "number": 2,
            "time": 60.77249999999986,
            "value": 0.3464566929133858
          },
          {
            "number": 2,
            "time": 60.77312499999986,
            "value": 0.3464566929133858
          },
          {
            "number": 2,
            "time": 60.77374999999986,
            "value": 0.3464566929133858
          },
          {
            "number": 2,
            "time": 60.77437499999986,
            "value": 0.3464566929133858
          },
          {
            "number": 2,
            "time": 60.77499999999986,
            "value": 0.3464566929133858
          },
          {
            "number": 2,
            "time": 60.775624999999856,
            "value": 0.33858267716535434
          },
          {
            "number": 2,
            "time": 60.776249999999855,
            "value": 0.33858267716535434
          },
          {
            "number": 2,
            "time": 60.776874999999855,
            "value": 0.33858267716535434
          },
          {
            "number": 2,
            "time": 60.777499999999854,
            "value": 0.33858267716535434
          },
          {
            "number": 2,
            "time": 60.778124999999854,
            "value": 0.33858267716535434
          },
          {
            "number": 2,
            "time": 60.77874999999985,
            "value": 0.33858267716535434
          },
          {
            "number": 2,
            "time": 60.77937499999985,
            "value": 0.33858267716535434
          },
          {
            "number": 2,
            "time": 60.77999999999985,
            "value": 0.33070866141732286
          },
          {
            "number": 2,
            "time": 60.78062499999985,
            "value": 0.33070866141732286
          },
          {
            "number": 2,
            "time": 60.78124999999985,
            "value": 0.33070866141732286
          },
          {
            "number": 2,
            "time": 60.78187499999985,
            "value": 0.33070866141732286
          },
          {
            "number": 2,
            "time": 60.78249999999985,
            "value": 0.33070866141732286
          },
          {
            "number": 2,
            "time": 60.78312499999985,
            "value": 0.33070866141732286
          },
          {
            "number": 2,
            "time": 60.78374999999985,
            "value": 0.33070866141732286
          },
          {
            "number": 2,
            "time": 60.78437499999985,
            "value": 0.3228346456692913
          },
          {
            "number": 2,
            "time": 60.78499999999985,
            "value": 0.3228346456692913
          },
          {
            "number": 2,
            "time": 60.78562499999985,
            "value": 0.3228346456692913
          },
          {
            "number": 2,
            "time": 60.786249999999846,
            "value": 0.3228346456692913
          },
          {
            "number": 2,
            "time": 60.786874999999846,
            "value": 0.3228346456692913
          },
          {
            "number": 2,
            "time": 60.787499999999845,
            "value": 0.3228346456692913
          },
          {
            "number": 2,
            "time": 60.788124999999845,
            "value": 0.3228346456692913
          },
          {
            "number": 2,
            "time": 60.788749999999844,
            "value": 0.31496062992125984
          },
          {
            "number": 2,
            "time": 60.78937499999984,
            "value": 0.31496062992125984
          },
          {
            "number": 2,
            "time": 60.78999999999984,
            "value": 0.31496062992125984
          },
          {
            "number": 2,
            "time": 60.79062499999984,
            "value": 0.31496062992125984
          },
          {
            "number": 2,
            "time": 60.79124999999984,
            "value": 0.31496062992125984
          },
          {
            "number": 2,
            "time": 60.79187499999984,
            "value": 0.31496062992125984
          },
          {
            "number": 2,
            "time": 60.79249999999984,
            "value": 0.31496062992125984
          },
          {
            "number": 2,
            "time": 60.79312499999984,
            "value": 0.31496062992125984
          },
          {
            "number": 2,
            "time": 60.79374999999984,
            "value": 0.30708661417322836
          },
          {
            "number": 2,
            "time": 60.79437499999984,
            "value": 0.30708661417322836
          },
          {
            "number": 2,
            "time": 60.79499999999984,
            "value": 0.30708661417322836
          },
          {
            "number": 2,
            "time": 60.79562499999984,
            "value": 0.30708661417322836
          },
          {
            "number": 2,
            "time": 60.79624999999984,
            "value": 0.30708661417322836
          },
          {
            "number": 2,
            "time": 60.79687499999984,
            "value": 0.30708661417322836
          },
          {
            "number": 2,
            "time": 60.797499999999836,
            "value": 0.30708661417322836
          },
          {
            "number": 2,
            "time": 60.798124999999835,
            "value": 0.2992125984251969
          },
          {
            "number": 2,
            "time": 60.798749999999835,
            "value": 0.2992125984251969
          },
          {
            "number": 2,
            "time": 60.799374999999834,
            "value": 0.2992125984251969
          },
          {
            "number": 2,
            "time": 60.799999999999834,
            "value": 0.2992125984251969
          },
          {
            "number": 2,
            "time": 60.80062499999983,
            "value": 0.2992125984251969
          },
          {
            "number": 2,
            "time": 60.80124999999983,
            "value": 0.2992125984251969
          },
          {
            "number": 2,
            "time": 60.80187499999983,
            "value": 0.2992125984251969
          },
          {
            "number": 2,
            "time": 60.80249999999983,
            "value": 0.29133858267716534
          },
          {
            "number": 2,
            "time": 60.80312499999983,
            "value": 0.29133858267716534
          },
          {
            "number": 2,
            "time": 60.80374999999983,
            "value": 0.29133858267716534
          },
          {
            "number": 2,
            "time": 60.80437499999983,
            "value": 0.29133858267716534
          },
          {
            "number": 2,
            "time": 60.80499999999983,
            "value": 0.29133858267716534
          },
          {
            "number": 2,
            "time": 60.80562499999983,
            "value": 0.29133858267716534
          },
          {
            "number": 2,
            "time": 60.80624999999983,
            "value": 0.29133858267716534
          },
          {
            "number": 2,
            "time": 60.80687499999983,
            "value": 0.28346456692913385
          },
          {
            "number": 2,
            "time": 60.80749999999983,
            "value": 0.28346456692913385
          },
          {
            "number": 2,
            "time": 60.808124999999826,
            "value": 0.28346456692913385
          },
          {
            "number": 2,
            "time": 60.808749999999826,
            "value": 0.28346456692913385
          },
          {
            "number": 2,
            "time": 60.809374999999825,
            "value": 0.28346456692913385
          },
          {
            "number": 2,
            "time": 60.809999999999825,
            "value": 0.28346456692913385
          },
          {
            "number": 2,
            "time": 60.810624999999824,
            "value": 0.28346456692913385
          },
          {
            "number": 2,
            "time": 60.81124999999982,
            "value": 0.28346456692913385
          },
          {
            "number": 2,
            "time": 60.81187499999982,
            "value": 0.2755905511811024
          },
          {
            "number": 2,
            "time": 60.81249999999982,
            "value": 0.2755905511811024
          },
          {
            "number": 2,
            "time": 60.81312499999982,
            "value": 0.2755905511811024
          },
          {
            "number": 2,
            "time": 60.81374999999982,
            "value": 0.2755905511811024
          },
          {
            "number": 2,
            "time": 60.81437499999982,
            "value": 0.2755905511811024
          },
          {
            "number": 2,
            "time": 60.81499999999982,
            "value": 0.2755905511811024
          },
          {
            "number": 2,
            "time": 60.81562499999982,
            "value": 0.2755905511811024
          },
          {
            "number": 2,
            "time": 60.81624999999982,
            "value": 0.2677165354330709
          },
          {
            "number": 2,
            "time": 60.81687499999982,
            "value": 0.2677165354330709
          },
          {
            "number": 2,
            "time": 60.81749999999982,
            "value": 0.2677165354330709
          },
          {
            "number": 2,
            "time": 60.81812499999982,
            "value": 0.2677165354330709
          },
          {
            "number": 2,
            "time": 60.81874999999982,
            "value": 0.2677165354330709
          },
          {
            "number": 2,
            "time": 60.819374999999816,
            "value": 0.2677165354330709
          },
          {
            "number": 2,
            "time": 60.819999999999816,
            "value": 0.2677165354330709
          },
          {
            "number": 2,
            "time": 60.820624999999815,
            "value": 0.25984251968503935
          },
          {
            "number": 2,
            "time": 60.821249999999814,
            "value": 0.25984251968503935
          },
          {
            "number": 2,
            "time": 60.821874999999814,
            "value": 0.25984251968503935
          },
          {
            "number": 2,
            "time": 60.82249999999981,
            "value": 0.25984251968503935
          },
          {
            "number": 2,
            "time": 60.82312499999981,
            "value": 0.25984251968503935
          },
          {
            "number": 2,
            "time": 60.82374999999981,
            "value": 0.25984251968503935
          },
          {
            "number": 2,
            "time": 60.82437499999981,
            "value": 0.25984251968503935
          },
          {
            "number": 2,
            "time": 61.04999999999981,
            "value": 0.25984251968503935
          },
          {
            "number": 2,
            "time": 61.19999999999981,
            "value": 0.3858267716535433
          },
          {
            "number": 2,
            "time": 61.20062499999981,
            "value": 0.3858267716535433
          },
          {
            "number": 2,
            "time": 61.20124999999981,
            "value": 0.3858267716535433
          },
          {
            "number": 2,
            "time": 61.20187499999981,
            "value": 0.3858267716535433
          },
          {
            "number": 2,
            "time": 61.20249999999981,
            "value": 0.3779527559055118
          },
          {
            "number": 2,
            "time": 61.20312499999981,
            "value": 0.3779527559055118
          },
          {
            "number": 2,
            "time": 61.20374999999981,
            "value": 0.3779527559055118
          },
          {
            "number": 2,
            "time": 61.20437499999981,
            "value": 0.3779527559055118
          },
          {
            "number": 2,
            "time": 61.20499999999981,
            "value": 0.3779527559055118
          },
          {
            "number": 2,
            "time": 61.205624999999806,
            "value": 0.3779527559055118
          },
          {
            "number": 2,
            "time": 61.206249999999805,
            "value": 0.3779527559055118
          },
          {
            "number": 2,
            "time": 61.206874999999805,
            "value": 0.3700787401574803
          },
          {
            "number": 2,
            "time": 61.207499999999804,
            "value": 0.3700787401574803
          },
          {
            "number": 2,
            "time": 61.208124999999804,
            "value": 0.3700787401574803
          },
          {
            "number": 2,
            "time": 61.2087499999998,
            "value": 0.3700787401574803
          },
          {
            "number": 2,
            "time": 61.2093749999998,
            "value": 0.3700787401574803
          },
          {
            "number": 2,
            "time": 61.2099999999998,
            "value": 0.3700787401574803
          },
          {
            "number": 2,
            "time": 61.2106249999998,
            "value": 0.3700787401574803
          },
          {
            "number": 2,
            "time": 61.2112499999998,
            "value": 0.3700787401574803
          },
          {
            "number": 2,
            "time": 61.2118749999998,
            "value": 0.36220472440944884
          },
          {
            "number": 2,
            "time": 61.2124999999998,
            "value": 0.36220472440944884
          },
          {
            "number": 2,
            "time": 61.2131249999998,
            "value": 0.36220472440944884
          },
          {
            "number": 2,
            "time": 61.2137499999998,
            "value": 0.36220472440944884
          },
          {
            "number": 2,
            "time": 61.2143749999998,
            "value": 0.36220472440944884
          },
          {
            "number": 2,
            "time": 61.2149999999998,
            "value": 0.36220472440944884
          },
          {
            "number": 2,
            "time": 61.2156249999998,
            "value": 0.36220472440944884
          },
          {
            "number": 2,
            "time": 61.216249999999796,
            "value": 0.3543307086614173
          },
          {
            "number": 2,
            "time": 61.216874999999796,
            "value": 0.3543307086614173
          },
          {
            "number": 2,
            "time": 61.217499999999795,
            "value": 0.3543307086614173
          },
          {
            "number": 2,
            "time": 61.218124999999795,
            "value": 0.3543307086614173
          },
          {
            "number": 2,
            "time": 61.218749999999794,
            "value": 0.3543307086614173
          },
          {
            "number": 2,
            "time": 61.21937499999979,
            "value": 0.3543307086614173
          },
          {
            "number": 2,
            "time": 61.21999999999979,
            "value": 0.3543307086614173
          },
          {
            "number": 2,
            "time": 61.22062499999979,
            "value": 0.3464566929133858
          },
          {
            "number": 2,
            "time": 61.22124999999979,
            "value": 0.3464566929133858
          },
          {
            "number": 2,
            "time": 61.22187499999979,
            "value": 0.3464566929133858
          },
          {
            "number": 2,
            "time": 61.22249999999979,
            "value": 0.3464566929133858
          },
          {
            "number": 2,
            "time": 61.22312499999979,
            "value": 0.3464566929133858
          },
          {
            "number": 2,
            "time": 61.22374999999979,
            "value": 0.3464566929133858
          },
          {
            "number": 2,
            "time": 61.22437499999979,
            "value": 0.3464566929133858
          },
          {
            "number": 2,
            "time": 61.22499999999979,
            "value": 0.3464566929133858
          },
          {
            "number": 2,
            "time": 61.22562499999979,
            "value": 0.33858267716535434
          },
          {
            "number": 2,
            "time": 61.22624999999979,
            "value": 0.33858267716535434
          },
          {
            "number": 2,
            "time": 61.22687499999979,
            "value": 0.33858267716535434
          },
          {
            "number": 2,
            "time": 61.227499999999786,
            "value": 0.33858267716535434
          },
          {
            "number": 2,
            "time": 61.228124999999785,
            "value": 0.33858267716535434
          },
          {
            "number": 2,
            "time": 61.228749999999785,
            "value": 0.33858267716535434
          },
          {
            "number": 2,
            "time": 61.229374999999784,
            "value": 0.33858267716535434
          },
          {
            "number": 2,
            "time": 61.229999999999784,
            "value": 0.33070866141732286
          },
          {
            "number": 2,
            "time": 61.23062499999978,
            "value": 0.33070866141732286
          },
          {
            "number": 2,
            "time": 61.23124999999978,
            "value": 0.33070866141732286
          },
          {
            "number": 2,
            "time": 61.23187499999978,
            "value": 0.33070866141732286
          },
          {
            "number": 2,
            "time": 61.23249999999978,
            "value": 0.33070866141732286
          },
          {
            "number": 2,
            "time": 61.23312499999978,
            "value": 0.33070866141732286
          },
          {
            "number": 2,
            "time": 61.23374999999978,
            "value": 0.33070866141732286
          },
          {
            "number": 2,
            "time": 61.23437499999978,
            "value": 0.3228346456692913
          },
          {
            "number": 2,
            "time": 61.23499999999978,
            "value": 0.3228346456692913
          },
          {
            "number": 2,
            "time": 61.23562499999978,
            "value": 0.3228346456692913
          },
          {
            "number": 2,
            "time": 61.23624999999978,
            "value": 0.3228346456692913
          },
          {
            "number": 2,
            "time": 61.23687499999978,
            "value": 0.3228346456692913
          },
          {
            "number": 2,
            "time": 61.23749999999978,
            "value": 0.3228346456692913
          },
          {
            "number": 2,
            "time": 61.238124999999776,
            "value": 0.3228346456692913
          },
          {
            "number": 2,
            "time": 61.238749999999776,
            "value": 0.31496062992125984
          },
          {
            "number": 2,
            "time": 61.239374999999775,
            "value": 0.31496062992125984
          },
          {
            "number": 2,
            "time": 61.239999999999775,
            "value": 0.31496062992125984
          },
          {
            "number": 2,
            "time": 61.240624999999774,
            "value": 0.31496062992125984
          },
          {
            "number": 2,
            "time": 61.24124999999977,
            "value": 0.31496062992125984
          },
          {
            "number": 2,
            "time": 61.24187499999977,
            "value": 0.31496062992125984
          },
          {
            "number": 2,
            "time": 61.24249999999977,
            "value": 0.31496062992125984
          },
          {
            "number": 2,
            "time": 61.24312499999977,
            "value": 0.31496062992125984
          },
          {
            "number": 2,
            "time": 61.24374999999977,
            "value": 0.30708661417322836
          },
          {
            "number": 2,
            "time": 61.24437499999977,
            "value": 0.30708661417322836
          },
          {
            "number": 2,
            "time": 61.24499999999977,
            "value": 0.30708661417322836
          },
          {
            "number": 2,
            "time": 61.24562499999977,
            "value": 0.30708661417322836
          },
          {
            "number": 2,
            "time": 61.24624999999977,
            "value": 0.30708661417322836
          },
          {
            "number": 2,
            "time": 61.24687499999977,
            "value": 0.30708661417322836
          },
          {
            "number": 2,
            "time": 61.24749999999977,
            "value": 0.30708661417322836
          },
          {
            "number": 2,
            "time": 61.24812499999977,
            "value": 0.2992125984251969
          },
          {
            "number": 2,
            "time": 61.24874999999977,
            "value": 0.2992125984251969
          },
          {
            "number": 2,
            "time": 61.249374999999766,
            "value": 0.2992125984251969
          },
          {
            "number": 2,
            "time": 61.249999999999766,
            "value": 0.2992125984251969
          },
          {
            "number": 2,
            "time": 61.250624999999765,
            "value": 0.2992125984251969
          },
          {
            "number": 2,
            "time": 61.251249999999764,
            "value": 0.2992125984251969
          },
          {
            "number": 2,
            "time": 61.251874999999764,
            "value": 0.2992125984251969
          },
          {
            "number": 2,
            "time": 61.25249999999976,
            "value": 0.29133858267716534
          },
          {
            "number": 2,
            "time": 61.25312499999976,
            "value": 0.29133858267716534
          },
          {
            "number": 2,
            "time": 61.25374999999976,
            "value": 0.29133858267716534
          },
          {
            "number": 2,
            "time": 61.25437499999976,
            "value": 0.29133858267716534
          },
          {
            "number": 2,
            "time": 61.25499999999976,
            "value": 0.29133858267716534
          },
          {
            "number": 2,
            "time": 61.25562499999976,
            "value": 0.29133858267716534
          },
          {
            "number": 2,
            "time": 61.25624999999976,
            "value": 0.29133858267716534
          },
          {
            "number": 2,
            "time": 61.25687499999976,
            "value": 0.28346456692913385
          },
          {
            "number": 2,
            "time": 61.25749999999976,
            "value": 0.28346456692913385
          },
          {
            "number": 2,
            "time": 61.25812499999976,
            "value": 0.28346456692913385
          },
          {
            "number": 2,
            "time": 61.25874999999976,
            "value": 0.28346456692913385
          },
          {
            "number": 2,
            "time": 61.25937499999976,
            "value": 0.28346456692913385
          },
          {
            "number": 2,
            "time": 61.259999999999756,
            "value": 0.28346456692913385
          },
          {
            "number": 2,
            "time": 61.260624999999756,
            "value": 0.28346456692913385
          },
          {
            "number": 2,
            "time": 61.261249999999755,
            "value": 0.28346456692913385
          },
          {
            "number": 2,
            "time": 61.261874999999755,
            "value": 0.2755905511811024
          },
          {
            "number": 2,
            "time": 61.262499999999754,
            "value": 0.2755905511811024
          },
          {
            "number": 2,
            "time": 61.263124999999754,
            "value": 0.2755905511811024
          },
          {
            "number": 2,
            "time": 61.26374999999975,
            "value": 0.2755905511811024
          },
          {
            "number": 2,
            "time": 61.26437499999975,
            "value": 0.2755905511811024
          },
          {
            "number": 2,
            "time": 61.26499999999975,
            "value": 0.2755905511811024
          },
          {
            "number": 2,
            "time": 61.26562499999975,
            "value": 0.2755905511811024
          },
          {
            "number": 2,
            "time": 61.26624999999975,
            "value": 0.2677165354330709
          },
          {
            "number": 2,
            "time": 61.26687499999975,
            "value": 0.2677165354330709
          },
          {
            "number": 2,
            "time": 61.26749999999975,
            "value": 0.2677165354330709
          },
          {
            "number": 2,
            "time": 61.26812499999975,
            "value": 0.2677165354330709
          },
          {
            "number": 2,
            "time": 61.26874999999975,
            "value": 0.2677165354330709
          },
          {
            "number": 2,
            "time": 61.26937499999975,
            "value": 0.2677165354330709
          },
          {
            "number": 2,
            "time": 61.26999999999975,
            "value": 0.2677165354330709
          },
          {
            "number": 2,
            "time": 61.27062499999975,
            "value": 0.25984251968503935
          },
          {
            "number": 2,
            "time": 61.271249999999746,
            "value": 0.25984251968503935
          },
          {
            "number": 2,
            "time": 61.271874999999746,
            "value": 0.25984251968503935
          },
          {
            "number": 2,
            "time": 61.272499999999745,
            "value": 0.25984251968503935
          },
          {
            "number": 2,
            "time": 61.273124999999744,
            "value": 0.25984251968503935
          },
          {
            "number": 2,
            "time": 61.273749999999744,
            "value": 0.25984251968503935
          },
          {
            "number": 2,
            "time": 61.27437499999974,
            "value": 0.25984251968503935
          },
          {
            "number": 2,
            "time": 61.499999999999744,
            "value": 0.25984251968503935
          },
          {
            "number": 2,
            "time": 61.64999999999974,
            "value": 0.5039370078740157
          },
          {
            "number": 2,
            "time": 62.54999999999974,
            "value": 0.5039370078740157
          },
          {
            "number": 2,
            "time": 62.999999999999744,
            "value": 0.5039370078740157
          },
          {
            "number": 2,
            "time": 63.44999999999975,
            "value": 0.5039370078740157
          },
          {
            "number": 2,
            "time": 64.34999999999975,
            "value": 0.5039370078740157
          },
          {
            "number": 2,
            "time": 64.79999999999976,
            "value": 0.5039370078740157
          },
          {
            "number": 2,
            "time": 65.24999999999976,
            "value": 0.5039370078740157
          },
          {
            "number": 2,
            "time": 65.69999999999976,
            "value": 0.5039370078740157
          },
          {
            "number": 2,
            "time": 66.14999999999976,
            "value": 0.5039370078740157
          },
          {
            "number": 2,
            "time": 66.59999999999977,
            "value": 0.5039370078740157
          },
          {
            "number": 2,
            "time": 67.04999999999977,
            "value": 0.5039370078740157
          },
          {
            "number": 2,
            "time": 68.84999999999978,
            "value": 0.3858267716535433
          },
          {
            "number": 2,
            "time": 69.74999999999979,
            "value": 0.3858267716535433
          },
          {
            "number": 2,
            "time": 70.19999999999979,
            "value": 0.3858267716535433
          },
          {
            "number": 2,
            "time": 70.64999999999979,
            "value": 0.3858267716535433
          },
          {
            "number": 2,
            "time": 71.5499999999998,
            "value": 0.3858267716535433
          },
          {
            "number": 2,
            "time": 71.9999999999998,
            "value": 0.3858267716535433
          },
          {
            "number": 2,
            "time": 72.4499999999998,
            "value": 0.3858267716535433
          },
          {
            "number": 2,
            "time": 72.8999999999998,
            "value": 0.3858267716535433
          },
          {
            "number": 2,
            "time": 73.34999999999981,
            "value": 0.3858267716535433
          },
          {
            "number": 2,
            "time": 73.79999999999981,
            "value": 0.3858267716535433
          },
          {
            "number": 2,
            "time": 74.24999999999982,
            "value": 0.3858267716535433
          },
          {
            "number": 2,
            "time": 75.14999999999982,
            "value": 0.3858267716535433
          },
          {
            "number": 2,
            "time": 75.29999999999983,
            "value": 0.3858267716535433
          },
          {
            "number": 2,
            "time": 75.44999999999983,
            "value": 0.3858267716535433
          },
          {
            "number": 2,
            "time": 75.59999999999984,
            "value": 0.3858267716535433
          },
          {
            "number": 2,
            "time": 75.74999999999984,
            "value": 0.3858267716535433
          },
          {
            "number": 2,
            "time": 75.82499999999985,
            "value": 0.3858267716535433
          },
          {
            "number": 2,
            "time": 75.89999999999984,
            "value": 0.3858267716535433
          },
          {
            "number": 2,
            "time": 76.04999999999984,
            "value": 0.3858267716535433
          },
          {
            "number": 2,
            "time": 79.19999999999985,
            "value": 0.5748031496062992
          },
          {
            "number": 2,
            "time": 79.20062499999985,
            "value": 0.5748031496062992
          },
          {
            "number": 2,
            "time": 79.20187499999984,
            "value": 0.5669291338582677
          },
          {
            "number": 2,
            "time": 79.20499999999984,
            "value": 0.5590551181102362
          },
          {
            "number": 2,
            "time": 79.20812499999984,
            "value": 0.5511811023622047
          },
          {
            "number": 2,
            "time": 79.21124999999984,
            "value": 0.5433070866141733
          },
          {
            "number": 2,
            "time": 79.21437499999983,
            "value": 0.5354330708661418
          },
          {
            "number": 2,
            "time": 79.21687499999983,
            "value": 0.5275590551181102
          },
          {
            "number": 2,
            "time": 79.21999999999983,
            "value": 0.5196850393700787
          },
          {
            "number": 2,
            "time": 79.22312499999983,
            "value": 0.5118110236220472
          },
          {
            "number": 2,
            "time": 79.22624999999982,
            "value": 0.5039370078740157
          },
          {
            "number": 2,
            "time": 79.22937499999982,
            "value": 0.49606299212598426
          },
          {
            "number": 2,
            "time": 79.23249999999982,
            "value": 0.4881889763779528
          },
          {
            "number": 2,
            "time": 79.23562499999981,
            "value": 0.48031496062992124
          },
          {
            "number": 2,
            "time": 79.23874999999981,
            "value": 0.47244094488188976
          },
          {
            "number": 2,
            "time": 79.24187499999981,
            "value": 0.4645669291338583
          },
          {
            "number": 2,
            "time": 79.2449999999998,
            "value": 0.4566929133858268
          },
          {
            "number": 2,
            "time": 79.2474999999998,
            "value": 0.44881889763779526
          },
          {
            "number": 2,
            "time": 79.2506249999998,
            "value": 0.4409448818897638
          },
          {
            "number": 2,
            "time": 79.2537499999998,
            "value": 0.4330708661417323
          },
          {
            "number": 2,
            "time": 79.2568749999998,
            "value": 0.4251968503937008
          },
          {
            "number": 2,
            "time": 79.25999999999979,
            "value": 0.41732283464566927
          },
          {
            "number": 2,
            "time": 79.26312499999979,
            "value": 0.4094488188976378
          },
          {
            "number": 2,
            "time": 79.26624999999979,
            "value": 0.4015748031496063
          },
          {
            "number": 2,
            "time": 79.26937499999978,
            "value": 0.3937007874015748
          },
          {
            "number": 2,
            "time": 79.27249999999978,
            "value": 0.3858267716535433
          },
          {
            "number": 2,
            "time": 79.64999999999978,
            "value": 0.3858267716535433
          },
          {
            "number": 2,
            "time": 79.79999999999978,
            "value": 0.3858267716535433
          },
          {
            "number": 2,
            "time": 80.09999999999978,
            "value": 0.3858267716535433
          },
          {
            "number": 2,
            "time": 80.54999999999978,
            "value": 0.3858267716535433
          },
          {
            "number": 2,
            "time": 80.84999999999978,
            "value": 0.3858267716535433
          },
          {
            "number": 2,
            "time": 81.74999999999979,
            "value": 0.3858267716535433
          },
          {
            "number": 2,
            "time": 81.89999999999979,
            "value": 0.3858267716535433
          },
          {
            "number": 2,
            "time": 82.0499999999998,
            "value": 0.5748031496062992
          },
          {
            "number": 2,
            "time": 82.0506249999998,
            "value": 0.5748031496062992
          },
          {
            "number": 2,
            "time": 82.0512499999998,
            "value": 0.5748031496062992
          },
          {
            "number": 2,
            "time": 82.0518749999998,
            "value": 0.5669291338582677
          },
          {
            "number": 2,
            "time": 82.0524999999998,
            "value": 0.5669291338582677
          },
          {
            "number": 2,
            "time": 82.0531249999998,
            "value": 0.5669291338582677
          },
          {
            "number": 2,
            "time": 82.0537499999998,
            "value": 0.5669291338582677
          },
          {
            "number": 2,
            "time": 82.0543749999998,
            "value": 0.5669291338582677
          },
          {
            "number": 2,
            "time": 82.0549999999998,
            "value": 0.5590551181102362
          },
          {
            "number": 2,
            "time": 82.0556249999998,
            "value": 0.5590551181102362
          },
          {
            "number": 2,
            "time": 82.05624999999979,
            "value": 0.5590551181102362
          },
          {
            "number": 2,
            "time": 82.05687499999979,
            "value": 0.5590551181102362
          },
          {
            "number": 2,
            "time": 82.05749999999979,
            "value": 0.5590551181102362
          },
          {
            "number": 2,
            "time": 82.05812499999979,
            "value": 0.5511811023622047
          },
          {
            "number": 2,
            "time": 82.05874999999979,
            "value": 0.5511811023622047
          },
          {
            "number": 2,
            "time": 82.05937499999979,
            "value": 0.5511811023622047
          },
          {
            "number": 2,
            "time": 82.05999999999979,
            "value": 0.5511811023622047
          },
          {
            "number": 2,
            "time": 82.06062499999979,
            "value": 0.5511811023622047
          },
          {
            "number": 2,
            "time": 82.06124999999979,
            "value": 0.5433070866141733
          },
          {
            "number": 2,
            "time": 82.06187499999979,
            "value": 0.5433070866141733
          },
          {
            "number": 2,
            "time": 82.06249999999979,
            "value": 0.5433070866141733
          },
          {
            "number": 2,
            "time": 82.06312499999979,
            "value": 0.5433070866141733
          },
          {
            "number": 2,
            "time": 82.06374999999979,
            "value": 0.5433070866141733
          },
          {
            "number": 2,
            "time": 82.06437499999979,
            "value": 0.5354330708661418
          },
          {
            "number": 2,
            "time": 82.06499999999978,
            "value": 0.5354330708661418
          },
          {
            "number": 2,
            "time": 82.06562499999978,
            "value": 0.5354330708661418
          },
          {
            "number": 2,
            "time": 82.06624999999978,
            "value": 0.5354330708661418
          },
          {
            "number": 2,
            "time": 82.06687499999978,
            "value": 0.5275590551181102
          },
          {
            "number": 2,
            "time": 82.06749999999978,
            "value": 0.5275590551181102
          },
          {
            "number": 2,
            "time": 82.06812499999978,
            "value": 0.5275590551181102
          },
          {
            "number": 2,
            "time": 82.06874999999978,
            "value": 0.5275590551181102
          },
          {
            "number": 2,
            "time": 82.06937499999978,
            "value": 0.5275590551181102
          },
          {
            "number": 2,
            "time": 82.06999999999978,
            "value": 0.5196850393700787
          },
          {
            "number": 2,
            "time": 82.07062499999978,
            "value": 0.5196850393700787
          },
          {
            "number": 2,
            "time": 82.07124999999978,
            "value": 0.5196850393700787
          },
          {
            "number": 2,
            "time": 82.07187499999978,
            "value": 0.5196850393700787
          },
          {
            "number": 2,
            "time": 82.07249999999978,
            "value": 0.5196850393700787
          },
          {
            "number": 2,
            "time": 82.07312499999978,
            "value": 0.5118110236220472
          },
          {
            "number": 2,
            "time": 82.07374999999978,
            "value": 0.5118110236220472
          },
          {
            "number": 2,
            "time": 82.07437499999978,
            "value": 0.5118110236220472
          },
          {
            "number": 2,
            "time": 82.07499999999978,
            "value": 0.5118110236220472
          },
          {
            "number": 2,
            "time": 82.07562499999977,
            "value": 0.5118110236220472
          },
          {
            "number": 2,
            "time": 82.07624999999977,
            "value": 0.5039370078740157
          },
          {
            "number": 2,
            "time": 82.07687499999977,
            "value": 0.5039370078740157
          },
          {
            "number": 2,
            "time": 82.07749999999977,
            "value": 0.5039370078740157
          },
          {
            "number": 2,
            "time": 82.07812499999977,
            "value": 0.5039370078740157
          },
          {
            "number": 2,
            "time": 82.07874999999977,
            "value": 0.5039370078740157
          },
          {
            "number": 2,
            "time": 82.07937499999977,
            "value": 0.49606299212598426
          },
          {
            "number": 2,
            "time": 82.07999999999977,
            "value": 0.49606299212598426
          },
          {
            "number": 2,
            "time": 82.08062499999977,
            "value": 0.49606299212598426
          },
          {
            "number": 2,
            "time": 82.08124999999977,
            "value": 0.49606299212598426
          },
          {
            "number": 2,
            "time": 82.08187499999977,
            "value": 0.49606299212598426
          },
          {
            "number": 2,
            "time": 82.08249999999977,
            "value": 0.4881889763779528
          },
          {
            "number": 2,
            "time": 82.08312499999977,
            "value": 0.4881889763779528
          },
          {
            "number": 2,
            "time": 82.08374999999977,
            "value": 0.4881889763779528
          },
          {
            "number": 2,
            "time": 82.08437499999977,
            "value": 0.4881889763779528
          },
          {
            "number": 2,
            "time": 82.08499999999977,
            "value": 0.4881889763779528
          },
          {
            "number": 2,
            "time": 82.08562499999977,
            "value": 0.48031496062992124
          },
          {
            "number": 2,
            "time": 82.08624999999977,
            "value": 0.48031496062992124
          },
          {
            "number": 2,
            "time": 82.08687499999976,
            "value": 0.48031496062992124
          },
          {
            "number": 2,
            "time": 82.08749999999976,
            "value": 0.48031496062992124
          },
          {
            "number": 2,
            "time": 82.08812499999976,
            "value": 0.48031496062992124
          },
          {
            "number": 2,
            "time": 82.08874999999976,
            "value": 0.47244094488188976
          },
          {
            "number": 2,
            "time": 82.08937499999976,
            "value": 0.47244094488188976
          },
          {
            "number": 2,
            "time": 82.08999999999976,
            "value": 0.47244094488188976
          },
          {
            "number": 2,
            "time": 82.09062499999976,
            "value": 0.47244094488188976
          },
          {
            "number": 2,
            "time": 82.09124999999976,
            "value": 0.47244094488188976
          },
          {
            "number": 2,
            "time": 82.09187499999976,
            "value": 0.4645669291338583
          },
          {
            "number": 2,
            "time": 82.09249999999976,
            "value": 0.4645669291338583
          },
          {
            "number": 2,
            "time": 82.09312499999976,
            "value": 0.4645669291338583
          },
          {
            "number": 2,
            "time": 82.09374999999976,
            "value": 0.4645669291338583
          },
          {
            "number": 2,
            "time": 82.09437499999976,
            "value": 0.4645669291338583
          },
          {
            "number": 2,
            "time": 82.09499999999976,
            "value": 0.4566929133858268
          },
          {
            "number": 2,
            "time": 82.09562499999976,
            "value": 0.4566929133858268
          },
          {
            "number": 2,
            "time": 82.09624999999976,
            "value": 0.4566929133858268
          },
          {
            "number": 2,
            "time": 82.09687499999976,
            "value": 0.4566929133858268
          },
          {
            "number": 2,
            "time": 82.09749999999976,
            "value": 0.44881889763779526
          },
          {
            "number": 2,
            "time": 82.09812499999975,
            "value": 0.44881889763779526
          },
          {
            "number": 2,
            "time": 82.09874999999975,
            "value": 0.44881889763779526
          },
          {
            "number": 2,
            "time": 82.09937499999975,
            "value": 0.44881889763779526
          },
          {
            "number": 2,
            "time": 82.09999999999975,
            "value": 0.44881889763779526
          },
          {
            "number": 2,
            "time": 82.10062499999975,
            "value": 0.4409448818897638
          },
          {
            "number": 2,
            "time": 82.10124999999975,
            "value": 0.4409448818897638
          },
          {
            "number": 2,
            "time": 82.10187499999975,
            "value": 0.4409448818897638
          },
          {
            "number": 2,
            "time": 82.10249999999975,
            "value": 0.4409448818897638
          },
          {
            "number": 2,
            "time": 82.10312499999975,
            "value": 0.4409448818897638
          },
          {
            "number": 2,
            "time": 82.10374999999975,
            "value": 0.4330708661417323
          },
          {
            "number": 2,
            "time": 82.10437499999975,
            "value": 0.4330708661417323
          },
          {
            "number": 2,
            "time": 82.10499999999975,
            "value": 0.4330708661417323
          },
          {
            "number": 2,
            "time": 82.10562499999975,
            "value": 0.4330708661417323
          },
          {
            "number": 2,
            "time": 82.10624999999975,
            "value": 0.4330708661417323
          },
          {
            "number": 2,
            "time": 82.10687499999975,
            "value": 0.4251968503937008
          },
          {
            "number": 2,
            "time": 82.10749999999975,
            "value": 0.4251968503937008
          },
          {
            "number": 2,
            "time": 82.10812499999975,
            "value": 0.4251968503937008
          },
          {
            "number": 2,
            "time": 82.10874999999974,
            "value": 0.4251968503937008
          },
          {
            "number": 2,
            "time": 82.10937499999974,
            "value": 0.4251968503937008
          },
          {
            "number": 2,
            "time": 82.10999999999974,
            "value": 0.41732283464566927
          },
          {
            "number": 2,
            "time": 82.11062499999974,
            "value": 0.41732283464566927
          },
          {
            "number": 2,
            "time": 82.11124999999974,
            "value": 0.41732283464566927
          },
          {
            "number": 2,
            "time": 82.11187499999974,
            "value": 0.41732283464566927
          },
          {
            "number": 2,
            "time": 82.11249999999974,
            "value": 0.41732283464566927
          },
          {
            "number": 2,
            "time": 82.11312499999974,
            "value": 0.4094488188976378
          },
          {
            "number": 2,
            "time": 82.11374999999974,
            "value": 0.4094488188976378
          },
          {
            "number": 2,
            "time": 82.11437499999974,
            "value": 0.4094488188976378
          },
          {
            "number": 2,
            "time": 82.11499999999974,
            "value": 0.4094488188976378
          },
          {
            "number": 2,
            "time": 82.11562499999974,
            "value": 0.4094488188976378
          },
          {
            "number": 2,
            "time": 82.11624999999974,
            "value": 0.4015748031496063
          },
          {
            "number": 2,
            "time": 82.11687499999974,
            "value": 0.4015748031496063
          },
          {
            "number": 2,
            "time": 82.11749999999974,
            "value": 0.4015748031496063
          },
          {
            "number": 2,
            "time": 82.11812499999974,
            "value": 0.4015748031496063
          },
          {
            "number": 2,
            "time": 82.11874999999974,
            "value": 0.4015748031496063
          },
          {
            "number": 2,
            "time": 82.11937499999974,
            "value": 0.3937007874015748
          },
          {
            "number": 2,
            "time": 82.11999999999973,
            "value": 0.3937007874015748
          },
          {
            "number": 2,
            "time": 82.12062499999973,
            "value": 0.3937007874015748
          },
          {
            "number": 2,
            "time": 82.12124999999973,
            "value": 0.3937007874015748
          },
          {
            "number": 2,
            "time": 82.12187499999973,
            "value": 0.3937007874015748
          },
          {
            "number": 2,
            "time": 82.12249999999973,
            "value": 0.3858267716535433
          },
          {
            "number": 2,
            "time": 82.12312499999973,
            "value": 0.3858267716535433
          },
          {
            "number": 2,
            "time": 82.12374999999973,
            "value": 0.3858267716535433
          },
          {
            "number": 2,
            "time": 82.12437499999973,
            "value": 0.3858267716535433
          },
          {
            "number": 2,
            "time": 82.34999999999972,
            "value": 0.3858267716535433
          },
          {
            "number": 2,
            "time": 82.64999999999972,
            "value": 0.3858267716535433
          },
          {
            "number": 2,
            "time": 82.79999999999973,
            "value": 0.3858267716535433
          },
          {
            "number": 2,
            "time": 83.09999999999972,
            "value": 0.3858267716535433
          },
          {
            "number": 2,
            "time": 83.39999999999972,
            "value": 0.3858267716535433
          },
          {
            "number": 2,
            "time": 83.54999999999973,
            "value": 0.3858267716535433
          },
          {
            "number": 2,
            "time": 86.69999999999972,
            "value": 0.5748031496062992
          },
          {
            "number": 2,
            "time": 86.70062499999972,
            "value": 0.5748031496062992
          },
          {
            "number": 2,
            "time": 86.70124999999972,
            "value": 0.5748031496062992
          },
          {
            "number": 2,
            "time": 86.70187499999972,
            "value": 0.5669291338582677
          },
          {
            "number": 2,
            "time": 86.70249999999972,
            "value": 0.5669291338582677
          },
          {
            "number": 2,
            "time": 86.70312499999972,
            "value": 0.5669291338582677
          },
          {
            "number": 2,
            "time": 86.70374999999972,
            "value": 0.5669291338582677
          },
          {
            "number": 2,
            "time": 86.70437499999971,
            "value": 0.5669291338582677
          },
          {
            "number": 2,
            "time": 86.70499999999971,
            "value": 0.5590551181102362
          },
          {
            "number": 2,
            "time": 86.70562499999971,
            "value": 0.5590551181102362
          },
          {
            "number": 2,
            "time": 86.70624999999971,
            "value": 0.5590551181102362
          },
          {
            "number": 2,
            "time": 86.70687499999971,
            "value": 0.5590551181102362
          },
          {
            "number": 2,
            "time": 86.70749999999971,
            "value": 0.5590551181102362
          },
          {
            "number": 2,
            "time": 86.70812499999971,
            "value": 0.5511811023622047
          },
          {
            "number": 2,
            "time": 86.70874999999971,
            "value": 0.5511811023622047
          },
          {
            "number": 2,
            "time": 86.70937499999971,
            "value": 0.5511811023622047
          },
          {
            "number": 2,
            "time": 86.70999999999971,
            "value": 0.5511811023622047
          },
          {
            "number": 2,
            "time": 86.71062499999971,
            "value": 0.5511811023622047
          },
          {
            "number": 2,
            "time": 86.71124999999971,
            "value": 0.5433070866141733
          },
          {
            "number": 2,
            "time": 86.71187499999971,
            "value": 0.5433070866141733
          },
          {
            "number": 2,
            "time": 86.71249999999971,
            "value": 0.5433070866141733
          },
          {
            "number": 2,
            "time": 86.7131249999997,
            "value": 0.5433070866141733
          },
          {
            "number": 2,
            "time": 86.7137499999997,
            "value": 0.5433070866141733
          },
          {
            "number": 2,
            "time": 86.7143749999997,
            "value": 0.5354330708661418
          },
          {
            "number": 2,
            "time": 86.7149999999997,
            "value": 0.5354330708661418
          },
          {
            "number": 2,
            "time": 86.7156249999997,
            "value": 0.5354330708661418
          },
          {
            "number": 2,
            "time": 86.7162499999997,
            "value": 0.5354330708661418
          },
          {
            "number": 2,
            "time": 86.7168749999997,
            "value": 0.5275590551181102
          },
          {
            "number": 2,
            "time": 86.7174999999997,
            "value": 0.5275590551181102
          },
          {
            "number": 2,
            "time": 86.7181249999997,
            "value": 0.5275590551181102
          },
          {
            "number": 2,
            "time": 86.7187499999997,
            "value": 0.5275590551181102
          },
          {
            "number": 2,
            "time": 86.7193749999997,
            "value": 0.5275590551181102
          },
          {
            "number": 2,
            "time": 86.7199999999997,
            "value": 0.5196850393700787
          },
          {
            "number": 2,
            "time": 86.7206249999997,
            "value": 0.5196850393700787
          },
          {
            "number": 2,
            "time": 86.7212499999997,
            "value": 0.5196850393700787
          },
          {
            "number": 2,
            "time": 86.7218749999997,
            "value": 0.5196850393700787
          },
          {
            "number": 2,
            "time": 86.7224999999997,
            "value": 0.5196850393700787
          },
          {
            "number": 2,
            "time": 86.7231249999997,
            "value": 0.5118110236220472
          },
          {
            "number": 2,
            "time": 86.7237499999997,
            "value": 0.5118110236220472
          },
          {
            "number": 2,
            "time": 86.7243749999997,
            "value": 0.5118110236220472
          },
          {
            "number": 2,
            "time": 86.7249999999997,
            "value": 0.5118110236220472
          },
          {
            "number": 2,
            "time": 86.7256249999997,
            "value": 0.5118110236220472
          },
          {
            "number": 2,
            "time": 86.7262499999997,
            "value": 0.5039370078740157
          },
          {
            "number": 2,
            "time": 86.7268749999997,
            "value": 0.5039370078740157
          },
          {
            "number": 2,
            "time": 86.7274999999997,
            "value": 0.5039370078740157
          },
          {
            "number": 2,
            "time": 86.7281249999997,
            "value": 0.5039370078740157
          },
          {
            "number": 2,
            "time": 86.72874999999969,
            "value": 0.5039370078740157
          },
          {
            "number": 2,
            "time": 86.72937499999969,
            "value": 0.49606299212598426
          },
          {
            "number": 2,
            "time": 86.72999999999969,
            "value": 0.49606299212598426
          },
          {
            "number": 2,
            "time": 86.73062499999969,
            "value": 0.49606299212598426
          },
          {
            "number": 2,
            "time": 86.73124999999969,
            "value": 0.49606299212598426
          },
          {
            "number": 2,
            "time": 86.73187499999969,
            "value": 0.49606299212598426
          },
          {
            "number": 2,
            "time": 86.73249999999969,
            "value": 0.4881889763779528
          },
          {
            "number": 2,
            "time": 86.73312499999969,
            "value": 0.4881889763779528
          },
          {
            "number": 2,
            "time": 86.73374999999969,
            "value": 0.4881889763779528
          },
          {
            "number": 2,
            "time": 86.73437499999969,
            "value": 0.4881889763779528
          },
          {
            "number": 2,
            "time": 86.73499999999969,
            "value": 0.4881889763779528
          },
          {
            "number": 2,
            "time": 86.73562499999969,
            "value": 0.48031496062992124
          },
          {
            "number": 2,
            "time": 86.73624999999969,
            "value": 0.48031496062992124
          },
          {
            "number": 2,
            "time": 86.73687499999969,
            "value": 0.48031496062992124
          },
          {
            "number": 2,
            "time": 86.73749999999968,
            "value": 0.48031496062992124
          },
          {
            "number": 2,
            "time": 86.73812499999968,
            "value": 0.48031496062992124
          },
          {
            "number": 2,
            "time": 86.73874999999968,
            "value": 0.47244094488188976
          },
          {
            "number": 2,
            "time": 86.73937499999968,
            "value": 0.47244094488188976
          },
          {
            "number": 2,
            "time": 86.73999999999968,
            "value": 0.47244094488188976
          },
          {
            "number": 2,
            "time": 86.74062499999968,
            "value": 0.47244094488188976
          },
          {
            "number": 2,
            "time": 86.74124999999968,
            "value": 0.47244094488188976
          },
          {
            "number": 2,
            "time": 86.74187499999968,
            "value": 0.4645669291338583
          },
          {
            "number": 2,
            "time": 86.74249999999968,
            "value": 0.4645669291338583
          },
          {
            "number": 2,
            "time": 86.74312499999968,
            "value": 0.4645669291338583
          },
          {
            "number": 2,
            "time": 86.74374999999968,
            "value": 0.4645669291338583
          },
          {
            "number": 2,
            "time": 86.74437499999968,
            "value": 0.4645669291338583
          },
          {
            "number": 2,
            "time": 86.74499999999968,
            "value": 0.4566929133858268
          },
          {
            "number": 2,
            "time": 86.74562499999968,
            "value": 0.4566929133858268
          },
          {
            "number": 2,
            "time": 86.74624999999968,
            "value": 0.4566929133858268
          },
          {
            "number": 2,
            "time": 86.74687499999968,
            "value": 0.4566929133858268
          },
          {
            "number": 2,
            "time": 86.74749999999968,
            "value": 0.44881889763779526
          },
          {
            "number": 2,
            "time": 86.74812499999967,
            "value": 0.44881889763779526
          },
          {
            "number": 2,
            "time": 86.74874999999967,
            "value": 0.44881889763779526
          },
          {
            "number": 2,
            "time": 86.74937499999967,
            "value": 0.44881889763779526
          },
          {
            "number": 2,
            "time": 86.74999999999967,
            "value": 0.44881889763779526
          },
          {
            "number": 2,
            "time": 86.75062499999967,
            "value": 0.4409448818897638
          },
          {
            "number": 2,
            "time": 86.75124999999967,
            "value": 0.4409448818897638
          },
          {
            "number": 2,
            "time": 86.75187499999967,
            "value": 0.4409448818897638
          },
          {
            "number": 2,
            "time": 86.75249999999967,
            "value": 0.4409448818897638
          },
          {
            "number": 2,
            "time": 86.75312499999967,
            "value": 0.4409448818897638
          },
          {
            "number": 2,
            "time": 86.75374999999967,
            "value": 0.4330708661417323
          },
          {
            "number": 2,
            "time": 86.75437499999967,
            "value": 0.4330708661417323
          },
          {
            "number": 2,
            "time": 86.75499999999967,
            "value": 0.4330708661417323
          },
          {
            "number": 2,
            "time": 86.75562499999967,
            "value": 0.4330708661417323
          },
          {
            "number": 2,
            "time": 86.75624999999967,
            "value": 0.4330708661417323
          },
          {
            "number": 2,
            "time": 86.75687499999967,
            "value": 0.4251968503937008
          },
          {
            "number": 2,
            "time": 86.75749999999967,
            "value": 0.4251968503937008
          },
          {
            "number": 2,
            "time": 86.75812499999967,
            "value": 0.4251968503937008
          },
          {
            "number": 2,
            "time": 86.75874999999967,
            "value": 0.4251968503937008
          },
          {
            "number": 2,
            "time": 86.75937499999966,
            "value": 0.4251968503937008
          },
          {
            "number": 2,
            "time": 86.75999999999966,
            "value": 0.41732283464566927
          },
          {
            "number": 2,
            "time": 86.76062499999966,
            "value": 0.41732283464566927
          },
          {
            "number": 2,
            "time": 86.76124999999966,
            "value": 0.41732283464566927
          },
          {
            "number": 2,
            "time": 86.76187499999966,
            "value": 0.41732283464566927
          },
          {
            "number": 2,
            "time": 86.76249999999966,
            "value": 0.41732283464566927
          },
          {
            "number": 2,
            "time": 86.76312499999966,
            "value": 0.4094488188976378
          },
          {
            "number": 2,
            "time": 86.76374999999966,
            "value": 0.4094488188976378
          },
          {
            "number": 2,
            "time": 86.76437499999966,
            "value": 0.4094488188976378
          },
          {
            "number": 2,
            "time": 86.76499999999966,
            "value": 0.4094488188976378
          },
          {
            "number": 2,
            "time": 86.76562499999966,
            "value": 0.4094488188976378
          },
          {
            "number": 2,
            "time": 86.76624999999966,
            "value": 0.4015748031496063
          },
          {
            "number": 2,
            "time": 86.76687499999966,
            "value": 0.4015748031496063
          },
          {
            "number": 2,
            "time": 86.76749999999966,
            "value": 0.4015748031496063
          },
          {
            "number": 2,
            "time": 86.76812499999966,
            "value": 0.4015748031496063
          },
          {
            "number": 2,
            "time": 86.76874999999966,
            "value": 0.4015748031496063
          },
          {
            "number": 2,
            "time": 86.76937499999966,
            "value": 0.3937007874015748
          },
          {
            "number": 2,
            "time": 86.76999999999965,
            "value": 0.3937007874015748
          },
          {
            "number": 2,
            "time": 86.77062499999965,
            "value": 0.3937007874015748
          },
          {
            "number": 2,
            "time": 86.77124999999965,
            "value": 0.3937007874015748
          },
          {
            "number": 2,
            "time": 86.77187499999965,
            "value": 0.3937007874015748
          },
          {
            "number": 2,
            "time": 86.77249999999965,
            "value": 0.3858267716535433
          },
          {
            "number": 2,
            "time": 86.77312499999965,
            "value": 0.3858267716535433
          },
          {
            "number": 2,
            "time": 86.77374999999965,
            "value": 0.3858267716535433
          },
          {
            "number": 2,
            "time": 86.77437499999965,
            "value": 0.3858267716535433
          },
          {
            "number": 2,
            "time": 86.84999999999965,
            "value": 0.3858267716535433
          },
          {
            "number": 2,
            "time": 87.14999999999965,
            "value": 0.3858267716535433
          },
          {
            "number": 2,
            "time": 87.29999999999966,
            "value": 0.3858267716535433
          },
          {
            "number": 2,
            "time": 87.59999999999965,
            "value": 0.3858267716535433
          },
          {
            "number": 2,
            "time": 87.89999999999965,
            "value": 0.3858267716535433
          },
          {
            "number": 2,
            "time": 88.04999999999966,
            "value": 0.3858267716535433
          },
          {
            "number": 2,
            "time": 89.54999999999966,
            "value": 0.5748031496062992
          },
          {
            "number": 2,
            "time": 89.55062499999966,
            "value": 0.5748031496062992
          },
          {
            "number": 2,
            "time": 89.55124999999965,
            "value": 0.5748031496062992
          },
          {
            "number": 2,
            "time": 89.55187499999965,
            "value": 0.5669291338582677
          },
          {
            "number": 2,
            "time": 89.55249999999965,
            "value": 0.5669291338582677
          },
          {
            "number": 2,
            "time": 89.55312499999965,
            "value": 0.5669291338582677
          },
          {
            "number": 2,
            "time": 89.55374999999965,
            "value": 0.5669291338582677
          },
          {
            "number": 2,
            "time": 89.55437499999965,
            "value": 0.5669291338582677
          },
          {
            "number": 2,
            "time": 89.55499999999965,
            "value": 0.5590551181102362
          },
          {
            "number": 2,
            "time": 89.55562499999965,
            "value": 0.5590551181102362
          },
          {
            "number": 2,
            "time": 89.55624999999965,
            "value": 0.5590551181102362
          },
          {
            "number": 2,
            "time": 89.55687499999965,
            "value": 0.5590551181102362
          },
          {
            "number": 2,
            "time": 89.55749999999965,
            "value": 0.5590551181102362
          },
          {
            "number": 2,
            "time": 89.55812499999965,
            "value": 0.5511811023622047
          },
          {
            "number": 2,
            "time": 89.55874999999965,
            "value": 0.5511811023622047
          },
          {
            "number": 2,
            "time": 89.55937499999965,
            "value": 0.5511811023622047
          },
          {
            "number": 2,
            "time": 89.55999999999965,
            "value": 0.5511811023622047
          },
          {
            "number": 2,
            "time": 89.56062499999965,
            "value": 0.5511811023622047
          },
          {
            "number": 2,
            "time": 89.56124999999965,
            "value": 0.5433070866141733
          },
          {
            "number": 2,
            "time": 89.56187499999965,
            "value": 0.5433070866141733
          },
          {
            "number": 2,
            "time": 89.56249999999964,
            "value": 0.5433070866141733
          },
          {
            "number": 2,
            "time": 89.56312499999964,
            "value": 0.5433070866141733
          },
          {
            "number": 2,
            "time": 89.56374999999964,
            "value": 0.5433070866141733
          },
          {
            "number": 2,
            "time": 89.56437499999964,
            "value": 0.5354330708661418
          },
          {
            "number": 2,
            "time": 89.56499999999964,
            "value": 0.5354330708661418
          },
          {
            "number": 2,
            "time": 89.56562499999964,
            "value": 0.5354330708661418
          },
          {
            "number": 2,
            "time": 89.56624999999964,
            "value": 0.5354330708661418
          },
          {
            "number": 2,
            "time": 89.56687499999964,
            "value": 0.5275590551181102
          },
          {
            "number": 2,
            "time": 89.56749999999964,
            "value": 0.5275590551181102
          },
          {
            "number": 2,
            "time": 89.56812499999964,
            "value": 0.5275590551181102
          },
          {
            "number": 2,
            "time": 89.56874999999964,
            "value": 0.5275590551181102
          },
          {
            "number": 2,
            "time": 89.56937499999964,
            "value": 0.5275590551181102
          },
          {
            "number": 2,
            "time": 89.56999999999964,
            "value": 0.5196850393700787
          },
          {
            "number": 2,
            "time": 89.57062499999964,
            "value": 0.5196850393700787
          },
          {
            "number": 2,
            "time": 89.57124999999964,
            "value": 0.5196850393700787
          },
          {
            "number": 2,
            "time": 89.57187499999964,
            "value": 0.5196850393700787
          },
          {
            "number": 2,
            "time": 89.57249999999964,
            "value": 0.5196850393700787
          },
          {
            "number": 2,
            "time": 89.57312499999964,
            "value": 0.5118110236220472
          },
          {
            "number": 2,
            "time": 89.57374999999963,
            "value": 0.5118110236220472
          },
          {
            "number": 2,
            "time": 89.57437499999963,
            "value": 0.5118110236220472
          },
          {
            "number": 2,
            "time": 89.57499999999963,
            "value": 0.5118110236220472
          },
          {
            "number": 2,
            "time": 89.57562499999963,
            "value": 0.5118110236220472
          },
          {
            "number": 2,
            "time": 89.57624999999963,
            "value": 0.5039370078740157
          },
          {
            "number": 2,
            "time": 89.57687499999963,
            "value": 0.5039370078740157
          },
          {
            "number": 2,
            "time": 89.57749999999963,
            "value": 0.5039370078740157
          },
          {
            "number": 2,
            "time": 89.57812499999963,
            "value": 0.5039370078740157
          },
          {
            "number": 2,
            "time": 89.57874999999963,
            "value": 0.5039370078740157
          },
          {
            "number": 2,
            "time": 89.57937499999963,
            "value": 0.49606299212598426
          },
          {
            "number": 2,
            "time": 89.57999999999963,
            "value": 0.49606299212598426
          },
          {
            "number": 2,
            "time": 89.58062499999963,
            "value": 0.49606299212598426
          },
          {
            "number": 2,
            "time": 89.58124999999963,
            "value": 0.49606299212598426
          },
          {
            "number": 2,
            "time": 89.58187499999963,
            "value": 0.49606299212598426
          },
          {
            "number": 2,
            "time": 89.58249999999963,
            "value": 0.4881889763779528
          },
          {
            "number": 2,
            "time": 89.58312499999963,
            "value": 0.4881889763779528
          },
          {
            "number": 2,
            "time": 89.58374999999963,
            "value": 0.4881889763779528
          },
          {
            "number": 2,
            "time": 89.58437499999962,
            "value": 0.4881889763779528
          },
          {
            "number": 2,
            "time": 89.58499999999962,
            "value": 0.4881889763779528
          },
          {
            "number": 2,
            "time": 89.58562499999962,
            "value": 0.48031496062992124
          },
          {
            "number": 2,
            "time": 89.58624999999962,
            "value": 0.48031496062992124
          },
          {
            "number": 2,
            "time": 89.58687499999962,
            "value": 0.48031496062992124
          },
          {
            "number": 2,
            "time": 89.58749999999962,
            "value": 0.48031496062992124
          },
          {
            "number": 2,
            "time": 89.58812499999962,
            "value": 0.48031496062992124
          },
          {
            "number": 2,
            "time": 89.58874999999962,
            "value": 0.47244094488188976
          },
          {
            "number": 2,
            "time": 89.58937499999962,
            "value": 0.47244094488188976
          },
          {
            "number": 2,
            "time": 89.58999999999962,
            "value": 0.47244094488188976
          },
          {
            "number": 2,
            "time": 89.59062499999962,
            "value": 0.47244094488188976
          },
          {
            "number": 2,
            "time": 89.59124999999962,
            "value": 0.47244094488188976
          },
          {
            "number": 2,
            "time": 89.59187499999962,
            "value": 0.4645669291338583
          },
          {
            "number": 2,
            "time": 89.59249999999962,
            "value": 0.4645669291338583
          },
          {
            "number": 2,
            "time": 89.59312499999962,
            "value": 0.4645669291338583
          },
          {
            "number": 2,
            "time": 89.59374999999962,
            "value": 0.4645669291338583
          },
          {
            "number": 2,
            "time": 89.59437499999962,
            "value": 0.4645669291338583
          },
          {
            "number": 2,
            "time": 89.59499999999962,
            "value": 0.4566929133858268
          },
          {
            "number": 2,
            "time": 89.59562499999961,
            "value": 0.4566929133858268
          },
          {
            "number": 2,
            "time": 89.59624999999961,
            "value": 0.4566929133858268
          },
          {
            "number": 2,
            "time": 89.59687499999961,
            "value": 0.4566929133858268
          },
          {
            "number": 2,
            "time": 89.59749999999961,
            "value": 0.44881889763779526
          },
          {
            "number": 2,
            "time": 89.59812499999961,
            "value": 0.44881889763779526
          },
          {
            "number": 2,
            "time": 89.59874999999961,
            "value": 0.44881889763779526
          },
          {
            "number": 2,
            "time": 89.59937499999961,
            "value": 0.44881889763779526
          },
          {
            "number": 2,
            "time": 89.59999999999961,
            "value": 0.44881889763779526
          },
          {
            "number": 2,
            "time": 89.60062499999961,
            "value": 0.4409448818897638
          },
          {
            "number": 2,
            "time": 89.60124999999961,
            "value": 0.4409448818897638
          },
          {
            "number": 2,
            "time": 89.60187499999961,
            "value": 0.4409448818897638
          },
          {
            "number": 2,
            "time": 89.60249999999961,
            "value": 0.4409448818897638
          },
          {
            "number": 2,
            "time": 89.60312499999961,
            "value": 0.4409448818897638
          },
          {
            "number": 2,
            "time": 89.60374999999961,
            "value": 0.4330708661417323
          },
          {
            "number": 2,
            "time": 89.6043749999996,
            "value": 0.4330708661417323
          },
          {
            "number": 2,
            "time": 89.6049999999996,
            "value": 0.4330708661417323
          },
          {
            "number": 2,
            "time": 89.6056249999996,
            "value": 0.4330708661417323
          },
          {
            "number": 2,
            "time": 89.6062499999996,
            "value": 0.4330708661417323
          },
          {
            "number": 2,
            "time": 89.6068749999996,
            "value": 0.4251968503937008
          },
          {
            "number": 2,
            "time": 89.6074999999996,
            "value": 0.4251968503937008
          },
          {
            "number": 2,
            "time": 89.6081249999996,
            "value": 0.4251968503937008
          },
          {
            "number": 2,
            "time": 89.6087499999996,
            "value": 0.4251968503937008
          },
          {
            "number": 2,
            "time": 89.6093749999996,
            "value": 0.4251968503937008
          },
          {
            "number": 2,
            "time": 89.6099999999996,
            "value": 0.41732283464566927
          },
          {
            "number": 2,
            "time": 89.6106249999996,
            "value": 0.41732283464566927
          },
          {
            "number": 2,
            "time": 89.6112499999996,
            "value": 0.41732283464566927
          },
          {
            "number": 2,
            "time": 89.6118749999996,
            "value": 0.41732283464566927
          },
          {
            "number": 2,
            "time": 89.6124999999996,
            "value": 0.41732283464566927
          },
          {
            "number": 2,
            "time": 89.6131249999996,
            "value": 0.4094488188976378
          },
          {
            "number": 2,
            "time": 89.6137499999996,
            "value": 0.4094488188976378
          },
          {
            "number": 2,
            "time": 89.6143749999996,
            "value": 0.4094488188976378
          },
          {
            "number": 2,
            "time": 89.6149999999996,
            "value": 0.4094488188976378
          },
          {
            "number": 2,
            "time": 89.6156249999996,
            "value": 0.4094488188976378
          },
          {
            "number": 2,
            "time": 89.6162499999996,
            "value": 0.4015748031496063
          },
          {
            "number": 2,
            "time": 89.6168749999996,
            "value": 0.4015748031496063
          },
          {
            "number": 2,
            "time": 89.6174999999996,
            "value": 0.4015748031496063
          },
          {
            "number": 2,
            "time": 89.6181249999996,
            "value": 0.4015748031496063
          },
          {
            "number": 2,
            "time": 89.6187499999996,
            "value": 0.4015748031496063
          },
          {
            "number": 2,
            "time": 89.6193749999996,
            "value": 0.3937007874015748
          },
          {
            "number": 2,
            "time": 89.61999999999959,
            "value": 0.3937007874015748
          },
          {
            "number": 2,
            "time": 89.62062499999959,
            "value": 0.3937007874015748
          },
          {
            "number": 2,
            "time": 89.62124999999959,
            "value": 0.3937007874015748
          },
          {
            "number": 2,
            "time": 89.62187499999959,
            "value": 0.3937007874015748
          },
          {
            "number": 2,
            "time": 89.62249999999959,
            "value": 0.3858267716535433
          },
          {
            "number": 2,
            "time": 89.62312499999959,
            "value": 0.3858267716535433
          },
          {
            "number": 2,
            "time": 89.62374999999959,
            "value": 0.3858267716535433
          },
          {
            "number": 2,
            "time": 89.62437499999959,
            "value": 0.3858267716535433
          },
          {
            "number": 2,
            "time": 89.84999999999958,
            "value": 0.3858267716535433
          },
          {
            "number": 2,
            "time": 90.14999999999958,
            "value": 0.3858267716535433
          },
          {
            "number": 2,
            "time": 90.29999999999959,
            "value": 0.3858267716535433
          },
          {
            "number": 2,
            "time": 90.59999999999958,
            "value": 0.3858267716535433
          },
          {
            "number": 2,
            "time": 90.89999999999958,
            "value": 0.3858267716535433
          },
          {
            "number": 2,
            "time": 91.04999999999959,
            "value": 0.3858267716535433
          },
          {
            "number": 2,
            "time": 91.34999999999958,
            "value": 0.3858267716535433
          },
          {
            "number": 2,
            "time": 91.64999999999958,
            "value": 0.3858267716535433
          },
          {
            "number": 2,
            "time": 91.79999999999959,
            "value": 0.3858267716535433
          },
          {
            "number": 2,
            "time": 92.09999999999958,
            "value": 0.3858267716535433
          },
          {
            "number": 2,
            "time": 92.39999999999958,
            "value": 0.3858267716535433
          },
          {
            "number": 2,
            "time": 92.54999999999959,
            "value": 0.5748031496062992
          },
          {
            "number": 2,
            "time": 92.55062499999958,
            "value": 0.5748031496062992
          },
          {
            "number": 2,
            "time": 92.55124999999958,
            "value": 0.5748031496062992
          },
          {
            "number": 2,
            "time": 92.55187499999958,
            "value": 0.5669291338582677
          },
          {
            "number": 2,
            "time": 92.55249999999958,
            "value": 0.5669291338582677
          },
          {
            "number": 2,
            "time": 92.55312499999958,
            "value": 0.5669291338582677
          },
          {
            "number": 2,
            "time": 92.55374999999958,
            "value": 0.5669291338582677
          },
          {
            "number": 2,
            "time": 92.55437499999958,
            "value": 0.5669291338582677
          },
          {
            "number": 2,
            "time": 92.55499999999958,
            "value": 0.5590551181102362
          },
          {
            "number": 2,
            "time": 92.55562499999958,
            "value": 0.5590551181102362
          },
          {
            "number": 2,
            "time": 92.55624999999958,
            "value": 0.5590551181102362
          },
          {
            "number": 2,
            "time": 92.55687499999958,
            "value": 0.5590551181102362
          },
          {
            "number": 2,
            "time": 92.55749999999958,
            "value": 0.5590551181102362
          },
          {
            "number": 2,
            "time": 92.55812499999958,
            "value": 0.5511811023622047
          },
          {
            "number": 2,
            "time": 92.55874999999958,
            "value": 0.5511811023622047
          },
          {
            "number": 2,
            "time": 92.55937499999958,
            "value": 0.5511811023622047
          },
          {
            "number": 2,
            "time": 92.55999999999958,
            "value": 0.5511811023622047
          },
          {
            "number": 2,
            "time": 92.56062499999958,
            "value": 0.5511811023622047
          },
          {
            "number": 2,
            "time": 92.56124999999957,
            "value": 0.5433070866141733
          },
          {
            "number": 2,
            "time": 92.56187499999957,
            "value": 0.5433070866141733
          },
          {
            "number": 2,
            "time": 92.56249999999957,
            "value": 0.5433070866141733
          },
          {
            "number": 2,
            "time": 92.56312499999957,
            "value": 0.5433070866141733
          },
          {
            "number": 2,
            "time": 92.56374999999957,
            "value": 0.5433070866141733
          },
          {
            "number": 2,
            "time": 92.56437499999957,
            "value": 0.5354330708661418
          },
          {
            "number": 2,
            "time": 92.56499999999957,
            "value": 0.5354330708661418
          },
          {
            "number": 2,
            "time": 92.56562499999957,
            "value": 0.5354330708661418
          },
          {
            "number": 2,
            "time": 92.56624999999957,
            "value": 0.5354330708661418
          },
          {
            "number": 2,
            "time": 92.56687499999957,
            "value": 0.5275590551181102
          },
          {
            "number": 2,
            "time": 92.56749999999957,
            "value": 0.5275590551181102
          },
          {
            "number": 2,
            "time": 92.56812499999957,
            "value": 0.5275590551181102
          },
          {
            "number": 2,
            "time": 92.56874999999957,
            "value": 0.5275590551181102
          },
          {
            "number": 2,
            "time": 92.56937499999957,
            "value": 0.5275590551181102
          },
          {
            "number": 2,
            "time": 92.56999999999957,
            "value": 0.5196850393700787
          },
          {
            "number": 2,
            "time": 92.57062499999957,
            "value": 0.5196850393700787
          },
          {
            "number": 2,
            "time": 92.57124999999957,
            "value": 0.5196850393700787
          },
          {
            "number": 2,
            "time": 92.57187499999957,
            "value": 0.5196850393700787
          },
          {
            "number": 2,
            "time": 92.57249999999956,
            "value": 0.5196850393700787
          },
          {
            "number": 2,
            "time": 92.57312499999956,
            "value": 0.5118110236220472
          },
          {
            "number": 2,
            "time": 92.57374999999956,
            "value": 0.5118110236220472
          },
          {
            "number": 2,
            "time": 92.57437499999956,
            "value": 0.5118110236220472
          },
          {
            "number": 2,
            "time": 92.57499999999956,
            "value": 0.5118110236220472
          },
          {
            "number": 2,
            "time": 92.57562499999956,
            "value": 0.5118110236220472
          },
          {
            "number": 2,
            "time": 92.57624999999956,
            "value": 0.5039370078740157
          },
          {
            "number": 2,
            "time": 92.57687499999956,
            "value": 0.5039370078740157
          },
          {
            "number": 2,
            "time": 92.57749999999956,
            "value": 0.5039370078740157
          },
          {
            "number": 2,
            "time": 92.57812499999956,
            "value": 0.5039370078740157
          },
          {
            "number": 2,
            "time": 92.57874999999956,
            "value": 0.5039370078740157
          },
          {
            "number": 2,
            "time": 92.57937499999956,
            "value": 0.49606299212598426
          },
          {
            "number": 2,
            "time": 92.57999999999956,
            "value": 0.49606299212598426
          },
          {
            "number": 2,
            "time": 92.58062499999956,
            "value": 0.49606299212598426
          },
          {
            "number": 2,
            "time": 92.58124999999956,
            "value": 0.49606299212598426
          },
          {
            "number": 2,
            "time": 92.58187499999956,
            "value": 0.49606299212598426
          },
          {
            "number": 2,
            "time": 92.58249999999956,
            "value": 0.4881889763779528
          },
          {
            "number": 2,
            "time": 92.58312499999955,
            "value": 0.4881889763779528
          },
          {
            "number": 2,
            "time": 92.58374999999955,
            "value": 0.4881889763779528
          },
          {
            "number": 2,
            "time": 92.58437499999955,
            "value": 0.4881889763779528
          },
          {
            "number": 2,
            "time": 92.58499999999955,
            "value": 0.4881889763779528
          },
          {
            "number": 2,
            "time": 92.58562499999955,
            "value": 0.48031496062992124
          },
          {
            "number": 2,
            "time": 92.58624999999955,
            "value": 0.48031496062992124
          },
          {
            "number": 2,
            "time": 92.58687499999955,
            "value": 0.48031496062992124
          },
          {
            "number": 2,
            "time": 92.58749999999955,
            "value": 0.48031496062992124
          },
          {
            "number": 2,
            "time": 92.58812499999955,
            "value": 0.48031496062992124
          },
          {
            "number": 2,
            "time": 92.58874999999955,
            "value": 0.47244094488188976
          },
          {
            "number": 2,
            "time": 92.58937499999955,
            "value": 0.47244094488188976
          },
          {
            "number": 2,
            "time": 92.58999999999955,
            "value": 0.47244094488188976
          },
          {
            "number": 2,
            "time": 92.59062499999955,
            "value": 0.47244094488188976
          },
          {
            "number": 2,
            "time": 92.59124999999955,
            "value": 0.47244094488188976
          },
          {
            "number": 2,
            "time": 92.59187499999955,
            "value": 0.4645669291338583
          },
          {
            "number": 2,
            "time": 92.59249999999955,
            "value": 0.4645669291338583
          },
          {
            "number": 2,
            "time": 92.59312499999955,
            "value": 0.4645669291338583
          },
          {
            "number": 2,
            "time": 92.59374999999955,
            "value": 0.4645669291338583
          },
          {
            "number": 2,
            "time": 92.59437499999954,
            "value": 0.4645669291338583
          },
          {
            "number": 2,
            "time": 92.59499999999954,
            "value": 0.4566929133858268
          },
          {
            "number": 2,
            "time": 92.59562499999954,
            "value": 0.4566929133858268
          },
          {
            "number": 2,
            "time": 92.59624999999954,
            "value": 0.4566929133858268
          },
          {
            "number": 2,
            "time": 92.59687499999954,
            "value": 0.4566929133858268
          },
          {
            "number": 2,
            "time": 92.59749999999954,
            "value": 0.44881889763779526
          },
          {
            "number": 2,
            "time": 92.59812499999954,
            "value": 0.44881889763779526
          },
          {
            "number": 2,
            "time": 92.59874999999954,
            "value": 0.44881889763779526
          },
          {
            "number": 2,
            "time": 92.59937499999954,
            "value": 0.44881889763779526
          },
          {
            "number": 2,
            "time": 92.59999999999954,
            "value": 0.44881889763779526
          },
          {
            "number": 2,
            "time": 92.60062499999954,
            "value": 0.4409448818897638
          },
          {
            "number": 2,
            "time": 92.60124999999954,
            "value": 0.4409448818897638
          },
          {
            "number": 2,
            "time": 92.60187499999954,
            "value": 0.4409448818897638
          },
          {
            "number": 2,
            "time": 92.60249999999954,
            "value": 0.4409448818897638
          },
          {
            "number": 2,
            "time": 92.60312499999954,
            "value": 0.4409448818897638
          },
          {
            "number": 2,
            "time": 92.60374999999954,
            "value": 0.4330708661417323
          },
          {
            "number": 2,
            "time": 92.60437499999954,
            "value": 0.4330708661417323
          },
          {
            "number": 2,
            "time": 92.60499999999954,
            "value": 0.4330708661417323
          },
          {
            "number": 2,
            "time": 92.60562499999953,
            "value": 0.4330708661417323
          },
          {
            "number": 2,
            "time": 92.60624999999953,
            "value": 0.4330708661417323
          },
          {
            "number": 2,
            "time": 92.60687499999953,
            "value": 0.4251968503937008
          },
          {
            "number": 2,
            "time": 92.60749999999953,
            "value": 0.4251968503937008
          },
          {
            "number": 2,
            "time": 92.60812499999953,
            "value": 0.4251968503937008
          },
          {
            "number": 2,
            "time": 92.60874999999953,
            "value": 0.4251968503937008
          },
          {
            "number": 2,
            "time": 92.60937499999953,
            "value": 0.4251968503937008
          },
          {
            "number": 2,
            "time": 92.60999999999953,
            "value": 0.41732283464566927
          },
          {
            "number": 2,
            "time": 92.61062499999953,
            "value": 0.41732283464566927
          },
          {
            "number": 2,
            "time": 92.61124999999953,
            "value": 0.41732283464566927
          },
          {
            "number": 2,
            "time": 92.61187499999953,
            "value": 0.41732283464566927
          },
          {
            "number": 2,
            "time": 92.61249999999953,
            "value": 0.41732283464566927
          },
          {
            "number": 2,
            "time": 92.61312499999953,
            "value": 0.4094488188976378
          },
          {
            "number": 2,
            "time": 92.61374999999953,
            "value": 0.4094488188976378
          },
          {
            "number": 2,
            "time": 92.61437499999953,
            "value": 0.4094488188976378
          },
          {
            "number": 2,
            "time": 92.61499999999953,
            "value": 0.4094488188976378
          },
          {
            "number": 2,
            "time": 92.61562499999953,
            "value": 0.4094488188976378
          },
          {
            "number": 2,
            "time": 92.61624999999952,
            "value": 0.4015748031496063
          },
          {
            "number": 2,
            "time": 92.61687499999952,
            "value": 0.4015748031496063
          },
          {
            "number": 2,
            "time": 92.61749999999952,
            "value": 0.4015748031496063
          },
          {
            "number": 2,
            "time": 92.61812499999952,
            "value": 0.4015748031496063
          },
          {
            "number": 2,
            "time": 92.61874999999952,
            "value": 0.4015748031496063
          },
          {
            "number": 2,
            "time": 92.61937499999952,
            "value": 0.3937007874015748
          },
          {
            "number": 2,
            "time": 92.61999999999952,
            "value": 0.3937007874015748
          },
          {
            "number": 2,
            "time": 92.62062499999952,
            "value": 0.3937007874015748
          },
          {
            "number": 2,
            "time": 92.62124999999952,
            "value": 0.3937007874015748
          },
          {
            "number": 2,
            "time": 92.62187499999952,
            "value": 0.3937007874015748
          },
          {
            "number": 2,
            "time": 92.62249999999952,
            "value": 0.3858267716535433
          },
          {
            "number": 2,
            "time": 92.62312499999952,
            "value": 0.3858267716535433
          },
          {
            "number": 2,
            "time": 92.62374999999952,
            "value": 0.3858267716535433
          },
          {
            "number": 2,
            "time": 92.62437499999952,
            "value": 0.3858267716535433
          },
          {
            "number": 2,
            "time": 92.84999999999951,
            "value": 0.3858267716535433
          },
          {
            "number": 2,
            "time": 93.14999999999951,
            "value": 0.3858267716535433
          },
          {
            "number": 2,
            "time": 93.29999999999951,
            "value": 0.3858267716535433
          },
          {
            "number": 2,
            "time": 93.59999999999951,
            "value": 0.3858267716535433
          },
          {
            "number": 2,
            "time": 93.89999999999951,
            "value": 0.3858267716535433
          },
          {
            "number": 2,
            "time": 94.04999999999951,
            "value": 0.5748031496062992
          },
          {
            "number": 2,
            "time": 94.05062499999951,
            "value": 0.5748031496062992
          },
          {
            "number": 2,
            "time": 94.05124999999951,
            "value": 0.5748031496062992
          },
          {
            "number": 2,
            "time": 94.05187499999951,
            "value": 0.5669291338582677
          },
          {
            "number": 2,
            "time": 94.05249999999951,
            "value": 0.5669291338582677
          },
          {
            "number": 2,
            "time": 94.05312499999951,
            "value": 0.5669291338582677
          },
          {
            "number": 2,
            "time": 94.05374999999951,
            "value": 0.5669291338582677
          },
          {
            "number": 2,
            "time": 94.05437499999951,
            "value": 0.5669291338582677
          },
          {
            "number": 2,
            "time": 94.05499999999951,
            "value": 0.5590551181102362
          },
          {
            "number": 2,
            "time": 94.05562499999951,
            "value": 0.5590551181102362
          },
          {
            "number": 2,
            "time": 94.05624999999951,
            "value": 0.5590551181102362
          },
          {
            "number": 2,
            "time": 94.05687499999951,
            "value": 0.5590551181102362
          },
          {
            "number": 2,
            "time": 94.05749999999951,
            "value": 0.5590551181102362
          },
          {
            "number": 2,
            "time": 94.0581249999995,
            "value": 0.5511811023622047
          },
          {
            "number": 2,
            "time": 94.0587499999995,
            "value": 0.5511811023622047
          },
          {
            "number": 2,
            "time": 94.0593749999995,
            "value": 0.5511811023622047
          },
          {
            "number": 2,
            "time": 94.0599999999995,
            "value": 0.5511811023622047
          },
          {
            "number": 2,
            "time": 94.0606249999995,
            "value": 0.5511811023622047
          },
          {
            "number": 2,
            "time": 94.0612499999995,
            "value": 0.5433070866141733
          },
          {
            "number": 2,
            "time": 94.0618749999995,
            "value": 0.5433070866141733
          },
          {
            "number": 2,
            "time": 94.0624999999995,
            "value": 0.5433070866141733
          },
          {
            "number": 2,
            "time": 94.0631249999995,
            "value": 0.5433070866141733
          },
          {
            "number": 2,
            "time": 94.0637499999995,
            "value": 0.5433070866141733
          },
          {
            "number": 2,
            "time": 94.0643749999995,
            "value": 0.5354330708661418
          },
          {
            "number": 2,
            "time": 94.0649999999995,
            "value": 0.5354330708661418
          },
          {
            "number": 2,
            "time": 94.0656249999995,
            "value": 0.5354330708661418
          },
          {
            "number": 2,
            "time": 94.0662499999995,
            "value": 0.5354330708661418
          },
          {
            "number": 2,
            "time": 94.0668749999995,
            "value": 0.5275590551181102
          },
          {
            "number": 2,
            "time": 94.0674999999995,
            "value": 0.5275590551181102
          },
          {
            "number": 2,
            "time": 94.0681249999995,
            "value": 0.5275590551181102
          },
          {
            "number": 2,
            "time": 94.0687499999995,
            "value": 0.5275590551181102
          },
          {
            "number": 2,
            "time": 94.0693749999995,
            "value": 0.5275590551181102
          },
          {
            "number": 2,
            "time": 94.0699999999995,
            "value": 0.5196850393700787
          },
          {
            "number": 2,
            "time": 94.0706249999995,
            "value": 0.5196850393700787
          },
          {
            "number": 2,
            "time": 94.0712499999995,
            "value": 0.5196850393700787
          },
          {
            "number": 2,
            "time": 94.0718749999995,
            "value": 0.5196850393700787
          },
          {
            "number": 2,
            "time": 94.0724999999995,
            "value": 0.5196850393700787
          },
          {
            "number": 2,
            "time": 94.0731249999995,
            "value": 0.5118110236220472
          },
          {
            "number": 2,
            "time": 94.07374999999949,
            "value": 0.5118110236220472
          },
          {
            "number": 2,
            "time": 94.07437499999949,
            "value": 0.5118110236220472
          },
          {
            "number": 2,
            "time": 94.07499999999949,
            "value": 0.5118110236220472
          },
          {
            "number": 2,
            "time": 94.07562499999949,
            "value": 0.5118110236220472
          },
          {
            "number": 2,
            "time": 94.07624999999949,
            "value": 0.5039370078740157
          },
          {
            "number": 2,
            "time": 94.07687499999949,
            "value": 0.5039370078740157
          },
          {
            "number": 2,
            "time": 94.07749999999949,
            "value": 0.5039370078740157
          },
          {
            "number": 2,
            "time": 94.07812499999949,
            "value": 0.5039370078740157
          },
          {
            "number": 2,
            "time": 94.07874999999949,
            "value": 0.5039370078740157
          },
          {
            "number": 2,
            "time": 94.07937499999949,
            "value": 0.49606299212598426
          },
          {
            "number": 2,
            "time": 94.07999999999949,
            "value": 0.49606299212598426
          },
          {
            "number": 2,
            "time": 94.08062499999949,
            "value": 0.49606299212598426
          },
          {
            "number": 2,
            "time": 94.08124999999949,
            "value": 0.49606299212598426
          },
          {
            "number": 2,
            "time": 94.08187499999948,
            "value": 0.49606299212598426
          },
          {
            "number": 2,
            "time": 94.08249999999948,
            "value": 0.4881889763779528
          },
          {
            "number": 2,
            "time": 94.08312499999948,
            "value": 0.4881889763779528
          },
          {
            "number": 2,
            "time": 94.08374999999948,
            "value": 0.4881889763779528
          },
          {
            "number": 2,
            "time": 94.08437499999948,
            "value": 0.4881889763779528
          },
          {
            "number": 2,
            "time": 94.08499999999948,
            "value": 0.4881889763779528
          },
          {
            "number": 2,
            "time": 94.08562499999948,
            "value": 0.48031496062992124
          },
          {
            "number": 2,
            "time": 94.08624999999948,
            "value": 0.48031496062992124
          },
          {
            "number": 2,
            "time": 94.08687499999948,
            "value": 0.48031496062992124
          },
          {
            "number": 2,
            "time": 94.08749999999948,
            "value": 0.48031496062992124
          },
          {
            "number": 2,
            "time": 94.08812499999948,
            "value": 0.48031496062992124
          },
          {
            "number": 2,
            "time": 94.08874999999948,
            "value": 0.47244094488188976
          },
          {
            "number": 2,
            "time": 94.08937499999948,
            "value": 0.47244094488188976
          },
          {
            "number": 2,
            "time": 94.08999999999948,
            "value": 0.47244094488188976
          },
          {
            "number": 2,
            "time": 94.09062499999948,
            "value": 0.47244094488188976
          },
          {
            "number": 2,
            "time": 94.09124999999948,
            "value": 0.47244094488188976
          },
          {
            "number": 2,
            "time": 94.09187499999948,
            "value": 0.4645669291338583
          },
          {
            "number": 2,
            "time": 94.09249999999948,
            "value": 0.4645669291338583
          },
          {
            "number": 2,
            "time": 94.09312499999947,
            "value": 0.4645669291338583
          },
          {
            "number": 2,
            "time": 94.09374999999947,
            "value": 0.4645669291338583
          },
          {
            "number": 2,
            "time": 94.09437499999947,
            "value": 0.4645669291338583
          },
          {
            "number": 2,
            "time": 94.09499999999947,
            "value": 0.4566929133858268
          },
          {
            "number": 2,
            "time": 94.09562499999947,
            "value": 0.4566929133858268
          },
          {
            "number": 2,
            "time": 94.09624999999947,
            "value": 0.4566929133858268
          },
          {
            "number": 2,
            "time": 94.09687499999947,
            "value": 0.4566929133858268
          },
          {
            "number": 2,
            "time": 94.09749999999947,
            "value": 0.44881889763779526
          },
          {
            "number": 2,
            "time": 94.09812499999947,
            "value": 0.44881889763779526
          },
          {
            "number": 2,
            "time": 94.09874999999947,
            "value": 0.44881889763779526
          },
          {
            "number": 2,
            "time": 94.09937499999947,
            "value": 0.44881889763779526
          },
          {
            "number": 2,
            "time": 94.09999999999947,
            "value": 0.44881889763779526
          },
          {
            "number": 2,
            "time": 94.10062499999947,
            "value": 0.4409448818897638
          },
          {
            "number": 2,
            "time": 94.10124999999947,
            "value": 0.4409448818897638
          },
          {
            "number": 2,
            "time": 94.10187499999947,
            "value": 0.4409448818897638
          },
          {
            "number": 2,
            "time": 94.10249999999947,
            "value": 0.4409448818897638
          },
          {
            "number": 2,
            "time": 94.10312499999947,
            "value": 0.4409448818897638
          },
          {
            "number": 2,
            "time": 94.10374999999947,
            "value": 0.4330708661417323
          },
          {
            "number": 2,
            "time": 94.10437499999946,
            "value": 0.4330708661417323
          },
          {
            "number": 2,
            "time": 94.10499999999946,
            "value": 0.4330708661417323
          },
          {
            "number": 2,
            "time": 94.10562499999946,
            "value": 0.4330708661417323
          },
          {
            "number": 2,
            "time": 94.10624999999946,
            "value": 0.4330708661417323
          },
          {
            "number": 2,
            "time": 94.10687499999946,
            "value": 0.4251968503937008
          },
          {
            "number": 2,
            "time": 94.10749999999946,
            "value": 0.4251968503937008
          },
          {
            "number": 2,
            "time": 94.10812499999946,
            "value": 0.4251968503937008
          },
          {
            "number": 2,
            "time": 94.10874999999946,
            "value": 0.4251968503937008
          },
          {
            "number": 2,
            "time": 94.10937499999946,
            "value": 0.4251968503937008
          },
          {
            "number": 2,
            "time": 94.10999999999946,
            "value": 0.41732283464566927
          },
          {
            "number": 2,
            "time": 94.11062499999946,
            "value": 0.41732283464566927
          },
          {
            "number": 2,
            "time": 94.11124999999946,
            "value": 0.41732283464566927
          },
          {
            "number": 2,
            "time": 94.11187499999946,
            "value": 0.41732283464566927
          },
          {
            "number": 2,
            "time": 94.11249999999946,
            "value": 0.41732283464566927
          },
          {
            "number": 2,
            "time": 94.11312499999946,
            "value": 0.4094488188976378
          },
          {
            "number": 2,
            "time": 94.11374999999946,
            "value": 0.4094488188976378
          },
          {
            "number": 2,
            "time": 94.11437499999946,
            "value": 0.4094488188976378
          },
          {
            "number": 2,
            "time": 94.11499999999945,
            "value": 0.4094488188976378
          },
          {
            "number": 2,
            "time": 94.11562499999945,
            "value": 0.4094488188976378
          },
          {
            "number": 2,
            "time": 94.11624999999945,
            "value": 0.4015748031496063
          },
          {
            "number": 2,
            "time": 94.11687499999945,
            "value": 0.4015748031496063
          },
          {
            "number": 2,
            "time": 94.11749999999945,
            "value": 0.4015748031496063
          },
          {
            "number": 2,
            "time": 94.11812499999945,
            "value": 0.4015748031496063
          },
          {
            "number": 2,
            "time": 94.11874999999945,
            "value": 0.4015748031496063
          },
          {
            "number": 2,
            "time": 94.11937499999945,
            "value": 0.3937007874015748
          },
          {
            "number": 2,
            "time": 94.11999999999945,
            "value": 0.3937007874015748
          },
          {
            "number": 2,
            "time": 94.12062499999945,
            "value": 0.3937007874015748
          },
          {
            "number": 2,
            "time": 94.12124999999945,
            "value": 0.3937007874015748
          },
          {
            "number": 2,
            "time": 94.12187499999945,
            "value": 0.3937007874015748
          },
          {
            "number": 2,
            "time": 94.12249999999945,
            "value": 0.3858267716535433
          },
          {
            "number": 2,
            "time": 94.12312499999945,
            "value": 0.3858267716535433
          },
          {
            "number": 2,
            "time": 94.12374999999945,
            "value": 0.3858267716535433
          },
          {
            "number": 2,
            "time": 94.12437499999945,
            "value": 0.3858267716535433
          },
          {
            "number": 2,
            "time": 94.34999999999944,
            "value": 0.3858267716535433
          },
          {
            "number": 2,
            "time": 94.64999999999944,
            "value": 0.3858267716535433
          },
          {
            "number": 2,
            "time": 94.79999999999944,
            "value": 0.3858267716535433
          },
          {
            "number": 2,
            "time": 95.09999999999944,
            "value": 0.3858267716535433
          },
          {
            "number": 2,
            "time": 95.39999999999944,
            "value": 0.3858267716535433
          },
          {
            "number": 2,
            "time": 95.54999999999944,
            "value": 0.5748031496062992
          },
          {
            "number": 2,
            "time": 95.55062499999944,
            "value": 0.5748031496062992
          },
          {
            "number": 2,
            "time": 95.55124999999944,
            "value": 0.5748031496062992
          },
          {
            "number": 2,
            "time": 95.55187499999944,
            "value": 0.5669291338582677
          },
          {
            "number": 2,
            "time": 95.55249999999944,
            "value": 0.5669291338582677
          },
          {
            "number": 2,
            "time": 95.55312499999944,
            "value": 0.5669291338582677
          },
          {
            "number": 2,
            "time": 95.55374999999944,
            "value": 0.5669291338582677
          },
          {
            "number": 2,
            "time": 95.55437499999944,
            "value": 0.5669291338582677
          },
          {
            "number": 2,
            "time": 95.55499999999944,
            "value": 0.5590551181102362
          },
          {
            "number": 2,
            "time": 95.55562499999944,
            "value": 0.5590551181102362
          },
          {
            "number": 2,
            "time": 95.55624999999944,
            "value": 0.5590551181102362
          },
          {
            "number": 2,
            "time": 95.55687499999944,
            "value": 0.5590551181102362
          },
          {
            "number": 2,
            "time": 95.55749999999944,
            "value": 0.5590551181102362
          },
          {
            "number": 2,
            "time": 95.55812499999944,
            "value": 0.5511811023622047
          },
          {
            "number": 2,
            "time": 95.55874999999943,
            "value": 0.5511811023622047
          },
          {
            "number": 2,
            "time": 95.55937499999943,
            "value": 0.5511811023622047
          },
          {
            "number": 2,
            "time": 95.55999999999943,
            "value": 0.5511811023622047
          },
          {
            "number": 2,
            "time": 95.56062499999943,
            "value": 0.5511811023622047
          },
          {
            "number": 2,
            "time": 95.56124999999943,
            "value": 0.5433070866141733
          },
          {
            "number": 2,
            "time": 95.56187499999943,
            "value": 0.5433070866141733
          },
          {
            "number": 2,
            "time": 95.56249999999943,
            "value": 0.5433070866141733
          },
          {
            "number": 2,
            "time": 95.56312499999943,
            "value": 0.5433070866141733
          },
          {
            "number": 2,
            "time": 95.56374999999943,
            "value": 0.5433070866141733
          },
          {
            "number": 2,
            "time": 95.56437499999943,
            "value": 0.5354330708661418
          },
          {
            "number": 2,
            "time": 95.56499999999943,
            "value": 0.5354330708661418
          },
          {
            "number": 2,
            "time": 95.56562499999943,
            "value": 0.5354330708661418
          },
          {
            "number": 2,
            "time": 95.56624999999943,
            "value": 0.5354330708661418
          },
          {
            "number": 2,
            "time": 95.56687499999943,
            "value": 0.5275590551181102
          },
          {
            "number": 2,
            "time": 95.56749999999943,
            "value": 0.5275590551181102
          },
          {
            "number": 2,
            "time": 95.56812499999943,
            "value": 0.5275590551181102
          },
          {
            "number": 2,
            "time": 95.56874999999943,
            "value": 0.5275590551181102
          },
          {
            "number": 2,
            "time": 95.56937499999943,
            "value": 0.5275590551181102
          },
          {
            "number": 2,
            "time": 95.56999999999942,
            "value": 0.5196850393700787
          },
          {
            "number": 2,
            "time": 95.57062499999942,
            "value": 0.5196850393700787
          },
          {
            "number": 2,
            "time": 95.57124999999942,
            "value": 0.5196850393700787
          },
          {
            "number": 2,
            "time": 95.57187499999942,
            "value": 0.5196850393700787
          },
          {
            "number": 2,
            "time": 95.57249999999942,
            "value": 0.5196850393700787
          },
          {
            "number": 2,
            "time": 95.57312499999942,
            "value": 0.5118110236220472
          },
          {
            "number": 2,
            "time": 95.57374999999942,
            "value": 0.5118110236220472
          },
          {
            "number": 2,
            "time": 95.57437499999942,
            "value": 0.5118110236220472
          },
          {
            "number": 2,
            "time": 95.57499999999942,
            "value": 0.5118110236220472
          },
          {
            "number": 2,
            "time": 95.57562499999942,
            "value": 0.5118110236220472
          },
          {
            "number": 2,
            "time": 95.57624999999942,
            "value": 0.5039370078740157
          },
          {
            "number": 2,
            "time": 95.57687499999942,
            "value": 0.5039370078740157
          },
          {
            "number": 2,
            "time": 95.57749999999942,
            "value": 0.5039370078740157
          },
          {
            "number": 2,
            "time": 95.57812499999942,
            "value": 0.5039370078740157
          },
          {
            "number": 2,
            "time": 95.57874999999942,
            "value": 0.5039370078740157
          },
          {
            "number": 2,
            "time": 95.57937499999942,
            "value": 0.49606299212598426
          },
          {
            "number": 2,
            "time": 95.57999999999942,
            "value": 0.49606299212598426
          },
          {
            "number": 2,
            "time": 95.58062499999942,
            "value": 0.49606299212598426
          },
          {
            "number": 2,
            "time": 95.58124999999941,
            "value": 0.49606299212598426
          },
          {
            "number": 2,
            "time": 95.58187499999941,
            "value": 0.49606299212598426
          },
          {
            "number": 2,
            "time": 95.58249999999941,
            "value": 0.4881889763779528
          },
          {
            "number": 2,
            "time": 95.58312499999941,
            "value": 0.4881889763779528
          },
          {
            "number": 2,
            "time": 95.58374999999941,
            "value": 0.4881889763779528
          },
          {
            "number": 2,
            "time": 95.58437499999941,
            "value": 0.4881889763779528
          },
          {
            "number": 2,
            "time": 95.58499999999941,
            "value": 0.4881889763779528
          },
          {
            "number": 2,
            "time": 95.58562499999941,
            "value": 0.48031496062992124
          },
          {
            "number": 2,
            "time": 95.58624999999941,
            "value": 0.48031496062992124
          },
          {
            "number": 2,
            "time": 95.58687499999941,
            "value": 0.48031496062992124
          },
          {
            "number": 2,
            "time": 95.58749999999941,
            "value": 0.48031496062992124
          },
          {
            "number": 2,
            "time": 95.58812499999941,
            "value": 0.48031496062992124
          },
          {
            "number": 2,
            "time": 95.58874999999941,
            "value": 0.47244094488188976
          },
          {
            "number": 2,
            "time": 95.58937499999941,
            "value": 0.47244094488188976
          },
          {
            "number": 2,
            "time": 95.5899999999994,
            "value": 0.47244094488188976
          },
          {
            "number": 2,
            "time": 95.5906249999994,
            "value": 0.47244094488188976
          },
          {
            "number": 2,
            "time": 95.5912499999994,
            "value": 0.47244094488188976
          },
          {
            "number": 2,
            "time": 95.5918749999994,
            "value": 0.4645669291338583
          },
          {
            "number": 2,
            "time": 95.5924999999994,
            "value": 0.4645669291338583
          },
          {
            "number": 2,
            "time": 95.5931249999994,
            "value": 0.4645669291338583
          },
          {
            "number": 2,
            "time": 95.5937499999994,
            "value": 0.4645669291338583
          },
          {
            "number": 2,
            "time": 95.5943749999994,
            "value": 0.4645669291338583
          },
          {
            "number": 2,
            "time": 95.5949999999994,
            "value": 0.4566929133858268
          },
          {
            "number": 2,
            "time": 95.5956249999994,
            "value": 0.4566929133858268
          },
          {
            "number": 2,
            "time": 95.5962499999994,
            "value": 0.4566929133858268
          },
          {
            "number": 2,
            "time": 95.5968749999994,
            "value": 0.4566929133858268
          },
          {
            "number": 2,
            "time": 95.5974999999994,
            "value": 0.44881889763779526
          },
          {
            "number": 2,
            "time": 95.5981249999994,
            "value": 0.44881889763779526
          },
          {
            "number": 2,
            "time": 95.5987499999994,
            "value": 0.44881889763779526
          },
          {
            "number": 2,
            "time": 95.5993749999994,
            "value": 0.44881889763779526
          },
          {
            "number": 2,
            "time": 95.5999999999994,
            "value": 0.44881889763779526
          },
          {
            "number": 2,
            "time": 95.6006249999994,
            "value": 0.4409448818897638
          },
          {
            "number": 2,
            "time": 95.6012499999994,
            "value": 0.4409448818897638
          },
          {
            "number": 2,
            "time": 95.6018749999994,
            "value": 0.4409448818897638
          },
          {
            "number": 2,
            "time": 95.6024999999994,
            "value": 0.4409448818897638
          },
          {
            "number": 2,
            "time": 95.6031249999994,
            "value": 0.4409448818897638
          },
          {
            "number": 2,
            "time": 95.6037499999994,
            "value": 0.4330708661417323
          },
          {
            "number": 2,
            "time": 95.6043749999994,
            "value": 0.4330708661417323
          },
          {
            "number": 2,
            "time": 95.6049999999994,
            "value": 0.4330708661417323
          },
          {
            "number": 2,
            "time": 95.60562499999939,
            "value": 0.4330708661417323
          },
          {
            "number": 2,
            "time": 95.60624999999939,
            "value": 0.4330708661417323
          },
          {
            "number": 2,
            "time": 95.60687499999939,
            "value": 0.4251968503937008
          },
          {
            "number": 2,
            "time": 95.60749999999939,
            "value": 0.4251968503937008
          },
          {
            "number": 2,
            "time": 95.60812499999939,
            "value": 0.4251968503937008
          },
          {
            "number": 2,
            "time": 95.60874999999939,
            "value": 0.4251968503937008
          },
          {
            "number": 2,
            "time": 95.60937499999939,
            "value": 0.4251968503937008
          },
          {
            "number": 2,
            "time": 95.60999999999939,
            "value": 0.41732283464566927
          },
          {
            "number": 2,
            "time": 95.61062499999939,
            "value": 0.41732283464566927
          },
          {
            "number": 2,
            "time": 95.61124999999939,
            "value": 0.41732283464566927
          },
          {
            "number": 2,
            "time": 95.61187499999939,
            "value": 0.41732283464566927
          },
          {
            "number": 2,
            "time": 95.61249999999939,
            "value": 0.41732283464566927
          },
          {
            "number": 2,
            "time": 95.61312499999939,
            "value": 0.4094488188976378
          },
          {
            "number": 2,
            "time": 95.61374999999938,
            "value": 0.4094488188976378
          },
          {
            "number": 2,
            "time": 95.61437499999938,
            "value": 0.4094488188976378
          },
          {
            "number": 2,
            "time": 95.61499999999938,
            "value": 0.4094488188976378
          },
          {
            "number": 2,
            "time": 95.61562499999938,
            "value": 0.4094488188976378
          },
          {
            "number": 2,
            "time": 95.61624999999938,
            "value": 0.4015748031496063
          },
          {
            "number": 2,
            "time": 95.61687499999938,
            "value": 0.4015748031496063
          },
          {
            "number": 2,
            "time": 95.61749999999938,
            "value": 0.4015748031496063
          },
          {
            "number": 2,
            "time": 95.61812499999938,
            "value": 0.4015748031496063
          },
          {
            "number": 2,
            "time": 95.61874999999938,
            "value": 0.4015748031496063
          },
          {
            "number": 2,
            "time": 95.61937499999938,
            "value": 0.3937007874015748
          },
          {
            "number": 2,
            "time": 95.61999999999938,
            "value": 0.3937007874015748
          },
          {
            "number": 2,
            "time": 95.62062499999938,
            "value": 0.3937007874015748
          },
          {
            "number": 2,
            "time": 95.62124999999938,
            "value": 0.3937007874015748
          },
          {
            "number": 2,
            "time": 95.62187499999938,
            "value": 0.3937007874015748
          },
          {
            "number": 2,
            "time": 95.62249999999938,
            "value": 0.3858267716535433
          },
          {
            "number": 2,
            "time": 95.62312499999938,
            "value": 0.3858267716535433
          },
          {
            "number": 2,
            "time": 95.62374999999938,
            "value": 0.3858267716535433
          },
          {
            "number": 2,
            "time": 95.62437499999938,
            "value": 0.3858267716535433
          },
          {
            "number": 2,
            "time": 95.84999999999937,
            "value": 0.3858267716535433
          },
          {
            "number": 2,
            "time": 96.14999999999937,
            "value": 0.3858267716535433
          },
          {
            "number": 2,
            "time": 96.29999999999937,
            "value": 0.3858267716535433
          },
          {
            "number": 2,
            "time": 96.59999999999937,
            "value": 0.3858267716535433
          },
          {
            "number": 2,
            "time": 96.74999999999937,
            "value": 0.3858267716535433
          },
          {
            "number": 2,
            "time": 97.79999999999937,
            "value": 0.3858267716535433
          },
          {
            "number": 2,
            "time": 97.94999999999938,
            "value": 0.3858267716535433
          },
          {
            "number": 2,
            "time": 98.09999999999938,
            "value": 0.3858267716535433
          },
          {
            "number": 2,
            "time": 98.24999999999939,
            "value": 0.3858267716535433
          },
          {
            "number": 2,
            "time": 98.3999999999994,
            "value": 0.3858267716535433
          },
          {
            "number": 2,
            "time": 98.5499999999994,
            "value": 0.3858267716535433
          },
          {
            "number": 2,
            "time": 98.8499999999994,
            "value": 0.3858267716535433
          },
          {
            "number": 2,
            "time": 99.2999999999994,
            "value": 0.3858267716535433
          },
          {
            "number": 2,
            "time": 99.5999999999994,
            "value": 0.3858267716535433
          },
          {
            "number": 2,
            "time": 100.0499999999994,
            "value": 0.3858267716535433
          },
          {
            "number": 2,
            "time": 100.3499999999994,
            "value": 0.3858267716535433
          },
          {
            "number": 2,
            "time": 100.7999999999994,
            "value": 0.3858267716535433
          },
          {
            "number": 2,
            "time": 101.2499999999994,
            "value": 0.3858267716535433
          },
          {
            "number": 2,
            "time": 101.6999999999994,
            "value": 0.3858267716535433
          },
          {
            "number": 2,
            "time": 101.84999999999941,
            "value": 0.3858267716535433
          },
          {
            "number": 2,
            "time": 101.99999999999942,
            "value": 0.3858267716535433
          },
          {
            "number": 2,
            "time": 102.14999999999942,
            "value": 0.3858267716535433
          },
          {
            "number": 2,
            "time": 102.29999999999943,
            "value": 0.3858267716535433
          },
          {
            "number": 2,
            "time": 102.37499999999943,
            "value": 0.3858267716535433
          },
          {
            "number": 2,
            "time": 102.44999999999942,
            "value": 0.3858267716535433
          },
          {
            "number": 2,
            "time": 102.59999999999943,
            "value": 0.3858267716535433
          },
          {
            "number": 2,
            "time": 102.74999999999943,
            "value": 0.3858267716535433
          },
          {
            "number": 2,
            "time": 102.89999999999944,
            "value": 0.3858267716535433
          },
          {
            "number": 2,
            "time": 103.04999999999944,
            "value": 0.3858267716535433
          },
          {
            "number": 2,
            "time": 103.19999999999945,
            "value": 0.3858267716535433
          },
          {
            "number": 2,
            "time": 103.27499999999945,
            "value": 0.3858267716535433
          },
          {
            "number": 2,
            "time": 103.34999999999944,
            "value": 0.3858267716535433
          }
        ],
        "7": [
          {
            "number": 7,
            "time": 0,
            "value": 0.7874015748031497
          },
          {
            "number": 7,
            "time": 0,
            "value": 0.7874015748031497
          },
          {
            "number": 7,
            "time": 0,
            "value": 0.7874015748031497
          }
        ],
        "10": [
          {
            "number": 10,
            "time": 0,
            "value": 0.5039370078740157
          },
          {
            "number": 10,
            "time": 0,
            "value": 0.5039370078740157
          },
          {
            "number": 10,
            "time": 0,
            "value": 0.5039370078740157
          }
        ],
        "91": [
          {
            "number": 91,
            "time": 0,
            "value": 0
          },
          {
            "number": 91,
            "time": 0,
            "value": 0
          },
          {
            "number": 91,
            "time": 0,
            "value": 0
          }
        ],
        "93": [
          {
            "number": 93,
            "time": 0,
            "value": 0
          },
          {
            "number": 93,
            "time": 0,
            "value": 0
          },
          {
            "number": 93,
            "time": 0,
            "value": 0
          }
        ],
        "121": [
          {
            "number": 121,
            "time": 0,
            "value": 0
          },
          {
            "number": 121,
            "time": 0,
            "value": 0
          },
          {
            "number": 121,
            "time": 0,
            "value": 0
          }
        ]
      },
      "id": 0,
      "name": "Violin 1",
      "instrumentNumber": 44,
      "instrument": "tremolo strings",
      "instrumentFamily": "strings",
      "channelNumber": 15,
      "isPercussion": false
    },
    {
      "startTime": 0,
      "duration": 106.19937500000024,
      "length": 433,
      "notes": [
        {
          "name": "D4",
          "midi": 62,
          "time": 0,
          "velocity": 0.3858267716535433,
          "duration": 0.149375
        },
        {
          "name": "A4",
          "midi": 69,
          "time": 0.15,
          "velocity": 0.3858267716535433,
          "duration": 0.149375
        },
        {
          "name": "E4",
          "midi": 64,
          "time": 0.3,
          "velocity": 0.3858267716535433,
          "duration": 0.14937499999999998
        },
        {
          "name": "F4",
          "midi": 65,
          "time": 0.44999999999999996,
          "velocity": 0.3858267716535433,
          "duration": 0.14937500000000004
        },
        {
          "name": "G4",
          "midi": 67,
          "time": 0.6,
          "velocity": 0.3858267716535433,
          "duration": 0.14937500000000004
        },
        {
          "name": "D4",
          "midi": 62,
          "time": 0.75,
          "velocity": 0.3858267716535433,
          "duration": 0.14937500000000004
        },
        {
          "name": "A4",
          "midi": 69,
          "time": 0.9,
          "velocity": 0.3858267716535433,
          "duration": 0.14937499999999992
        },
        {
          "name": "E4",
          "midi": 64,
          "time": 1.05,
          "velocity": 0.3858267716535433,
          "duration": 0.14937500000000004
        },
        {
          "name": "F4",
          "midi": 65,
          "time": 1.2000000000000002,
          "velocity": 0.3858267716535433,
          "duration": 0.14937500000000004
        },
        {
          "name": "G4",
          "midi": 67,
          "time": 1.3500000000000003,
          "velocity": 0.3858267716535433,
          "duration": 0.14937500000000004
        },
        {
          "name": "D4",
          "midi": 62,
          "time": 1.5000000000000004,
          "velocity": 0.3858267716535433,
          "duration": 0.14937500000000004
        },
        {
          "name": "A4",
          "midi": 69,
          "time": 1.6500000000000006,
          "velocity": 0.3858267716535433,
          "duration": 0.14937500000000004
        },
        {
          "name": "E4",
          "midi": 64,
          "time": 1.8000000000000007,
          "velocity": 0.3858267716535433,
          "duration": 0.14937500000000004
        },
        {
          "name": "F4",
          "midi": 65,
          "time": 1.9500000000000008,
          "velocity": 0.3858267716535433,
          "duration": 0.1493749999999998
        },
        {
          "name": "G4",
          "midi": 67,
          "time": 2.1000000000000005,
          "velocity": 0.3858267716535433,
          "duration": 0.14937500000000004
        },
        {
          "name": "D4",
          "midi": 62,
          "time": 2.2500000000000004,
          "velocity": 0.3858267716535433,
          "duration": 0.14937500000000004
        },
        {
          "name": "A4",
          "midi": 69,
          "time": 2.4000000000000004,
          "velocity": 0.3858267716535433,
          "duration": 0.14937500000000004
        },
        {
          "name": "E4",
          "midi": 64,
          "time": 2.5500000000000003,
          "velocity": 0.3858267716535433,
          "duration": 0.14937500000000004
        },
        {
          "name": "F4",
          "midi": 65,
          "time": 2.7,
          "velocity": 0.3858267716535433,
          "duration": 0.14937500000000004
        },
        {
          "name": "G4",
          "midi": 67,
          "time": 2.85,
          "velocity": 0.3858267716535433,
          "duration": 0.14937500000000004
        },
        {
          "name": "D4",
          "midi": 62,
          "time": 3,
          "velocity": 0.3858267716535433,
          "duration": 0.14937500000000004
        },
        {
          "name": "A4",
          "midi": 69,
          "time": 3.15,
          "velocity": 0.3858267716535433,
          "duration": 0.14937500000000004
        },
        {
          "name": "E4",
          "midi": 64,
          "time": 3.3,
          "velocity": 0.3858267716535433,
          "duration": 0.14937500000000004
        },
        {
          "name": "F4",
          "midi": 65,
          "time": 3.4499999999999997,
          "velocity": 0.3858267716535433,
          "duration": 0.14937500000000004
        },
        {
          "name": "G4",
          "midi": 67,
          "time": 3.5999999999999996,
          "velocity": 0.3858267716535433,
          "duration": 0.14937500000000004
        },
        {
          "name": "D4",
          "midi": 62,
          "time": 3.7499999999999996,
          "velocity": 0.3858267716535433,
          "duration": 0.14937500000000004
        },
        {
          "name": "A4",
          "midi": 69,
          "time": 3.8999999999999995,
          "velocity": 0.3858267716535433,
          "duration": 0.14937500000000004
        },
        {
          "name": "E4",
          "midi": 64,
          "time": 4.05,
          "velocity": 0.3858267716535433,
          "duration": 0.14937500000000004
        },
        {
          "name": "F4",
          "midi": 65,
          "time": 4.2,
          "velocity": 0.3858267716535433,
          "duration": 0.14937500000000004
        },
        {
          "name": "G4",
          "midi": 67,
          "time": 4.3500000000000005,
          "velocity": 0.3858267716535433,
          "duration": 0.14937500000000004
        },
        {
          "name": "D4",
          "midi": 62,
          "time": 4.500000000000001,
          "velocity": 0.3858267716535433,
          "duration": 0.14937500000000004
        },
        {
          "name": "A4",
          "midi": 69,
          "time": 4.650000000000001,
          "velocity": 0.3858267716535433,
          "duration": 0.14937500000000004
        },
        {
          "name": "E4",
          "midi": 64,
          "time": 4.800000000000002,
          "velocity": 0.3858267716535433,
          "duration": 0.14937500000000004
        },
        {
          "name": "F4",
          "midi": 65,
          "time": 4.950000000000002,
          "velocity": 0.3858267716535433,
          "duration": 0.14937500000000004
        },
        {
          "name": "G4",
          "midi": 67,
          "time": 5.100000000000002,
          "velocity": 0.3858267716535433,
          "duration": 0.14937500000000004
        },
        {
          "name": "D4",
          "midi": 62,
          "time": 5.250000000000003,
          "velocity": 0.3858267716535433,
          "duration": 0.14937500000000004
        },
        {
          "name": "A4",
          "midi": 69,
          "time": 5.400000000000003,
          "velocity": 0.3858267716535433,
          "duration": 0.14937500000000004
        },
        {
          "name": "E4",
          "midi": 64,
          "time": 5.550000000000003,
          "velocity": 0.3858267716535433,
          "duration": 0.14937500000000004
        },
        {
          "name": "F4",
          "midi": 65,
          "time": 5.700000000000004,
          "velocity": 0.3858267716535433,
          "duration": 0.14937500000000004
        },
        {
          "name": "G4",
          "midi": 67,
          "time": 5.850000000000004,
          "velocity": 0.3858267716535433,
          "duration": 0.14937500000000004
        },
        {
          "name": "D4",
          "midi": 62,
          "time": 6.000000000000004,
          "velocity": 0.3858267716535433,
          "duration": 0.14937500000000004
        },
        {
          "name": "A4",
          "midi": 69,
          "time": 6.150000000000005,
          "velocity": 0.3858267716535433,
          "duration": 0.14937500000000004
        },
        {
          "name": "E4",
          "midi": 64,
          "time": 6.300000000000005,
          "velocity": 0.3858267716535433,
          "duration": 0.14937500000000004
        },
        {
          "name": "F4",
          "midi": 65,
          "time": 6.4500000000000055,
          "velocity": 0.3858267716535433,
          "duration": 0.14937500000000004
        },
        {
          "name": "G4",
          "midi": 67,
          "time": 6.600000000000006,
          "velocity": 0.3858267716535433,
          "duration": 0.14937500000000004
        },
        {
          "name": "D4",
          "midi": 62,
          "time": 6.750000000000006,
          "velocity": 0.3858267716535433,
          "duration": 0.14937500000000004
        },
        {
          "name": "A4",
          "midi": 69,
          "time": 6.900000000000007,
          "velocity": 0.3858267716535433,
          "duration": 0.14937500000000004
        },
        {
          "name": "E4",
          "midi": 64,
          "time": 7.050000000000007,
          "velocity": 0.3858267716535433,
          "duration": 0.14937500000000004
        },
        {
          "name": "F4",
          "midi": 65,
          "time": 7.200000000000007,
          "velocity": 0.3858267716535433,
          "duration": 0.14937500000000004
        },
        {
          "name": "G4",
          "midi": 67,
          "time": 7.350000000000008,
          "velocity": 0.3858267716535433,
          "duration": 0.14937500000000004
        },
        {
          "name": "D4",
          "midi": 62,
          "time": 7.500000000000008,
          "velocity": 0.3858267716535433,
          "duration": 0.14937500000000004
        },
        {
          "name": "A4",
          "midi": 69,
          "time": 7.650000000000008,
          "velocity": 0.3858267716535433,
          "duration": 0.14937500000000004
        },
        {
          "name": "E4",
          "midi": 64,
          "time": 7.800000000000009,
          "velocity": 0.3858267716535433,
          "duration": 0.14937500000000004
        },
        {
          "name": "F4",
          "midi": 65,
          "time": 7.950000000000009,
          "velocity": 0.3858267716535433,
          "duration": 0.14937500000000004
        },
        {
          "name": "G4",
          "midi": 67,
          "time": 8.100000000000009,
          "velocity": 0.3858267716535433,
          "duration": 0.14937499999999915
        },
        {
          "name": "D4",
          "midi": 62,
          "time": 8.250000000000007,
          "velocity": 0.3858267716535433,
          "duration": 0.14937499999999915
        },
        {
          "name": "A4",
          "midi": 69,
          "time": 8.400000000000006,
          "velocity": 0.3858267716535433,
          "duration": 0.14937499999999915
        },
        {
          "name": "E4",
          "midi": 64,
          "time": 8.550000000000004,
          "velocity": 0.3858267716535433,
          "duration": 0.14937499999999915
        },
        {
          "name": "F4",
          "midi": 65,
          "time": 8.700000000000003,
          "velocity": 0.3858267716535433,
          "duration": 0.14937499999999915
        },
        {
          "name": "G4",
          "midi": 67,
          "time": 8.850000000000001,
          "velocity": 0.3858267716535433,
          "duration": 0.14937499999999915
        },
        {
          "name": "A4",
          "midi": 69,
          "time": 9,
          "velocity": 0.3858267716535433,
          "duration": 0.14937499999999915
        },
        {
          "name": "E4",
          "midi": 64,
          "time": 9.149999999999999,
          "velocity": 0.3858267716535433,
          "duration": 0.14937499999999915
        },
        {
          "name": "G4",
          "midi": 67,
          "time": 9.299999999999997,
          "velocity": 0.3858267716535433,
          "duration": 0.14937499999999915
        },
        {
          "name": "F4",
          "midi": 65,
          "time": 9.449999999999996,
          "velocity": 0.3858267716535433,
          "duration": 0.14937499999999915
        },
        {
          "name": "E4",
          "midi": 64,
          "time": 9.599999999999994,
          "velocity": 0.3858267716535433,
          "duration": 0.14937499999999915
        },
        {
          "name": "A4",
          "midi": 69,
          "time": 9.749999999999993,
          "velocity": 0.3858267716535433,
          "duration": 0.14937499999999915
        },
        {
          "name": "E4",
          "midi": 64,
          "time": 9.899999999999991,
          "velocity": 0.3858267716535433,
          "duration": 0.14937499999999915
        },
        {
          "name": "G4",
          "midi": 67,
          "time": 10.04999999999999,
          "velocity": 0.3858267716535433,
          "duration": 0.14937499999999915
        },
        {
          "name": "F4",
          "midi": 65,
          "time": 10.199999999999989,
          "velocity": 0.3858267716535433,
          "duration": 0.14937499999999915
        },
        {
          "name": "E4",
          "midi": 64,
          "time": 10.349999999999987,
          "velocity": 0.3858267716535433,
          "duration": 0.14937499999999915
        },
        {
          "name": "D4",
          "midi": 62,
          "time": 10.499999999999986,
          "velocity": 0.3858267716535433,
          "duration": 0.14937499999999915
        },
        {
          "name": "A4",
          "midi": 69,
          "time": 10.649999999999984,
          "velocity": 0.3858267716535433,
          "duration": 0.14937499999999915
        },
        {
          "name": "E4",
          "midi": 64,
          "time": 10.799999999999983,
          "velocity": 0.3858267716535433,
          "duration": 0.14937499999999915
        },
        {
          "name": "F4",
          "midi": 65,
          "time": 10.949999999999982,
          "velocity": 0.3858267716535433,
          "duration": 0.14937499999999915
        },
        {
          "name": "G4",
          "midi": 67,
          "time": 11.09999999999998,
          "velocity": 0.3858267716535433,
          "duration": 0.14937499999999915
        },
        {
          "name": "D4",
          "midi": 62,
          "time": 11.249999999999979,
          "velocity": 0.3858267716535433,
          "duration": 0.14937499999999915
        },
        {
          "name": "A4",
          "midi": 69,
          "time": 11.399999999999977,
          "velocity": 0.3858267716535433,
          "duration": 0.14937499999999915
        },
        {
          "name": "E4",
          "midi": 64,
          "time": 11.549999999999976,
          "velocity": 0.3858267716535433,
          "duration": 0.14937499999999915
        },
        {
          "name": "F4",
          "midi": 65,
          "time": 11.699999999999974,
          "velocity": 0.3858267716535433,
          "duration": 0.14937499999999915
        },
        {
          "name": "G4",
          "midi": 67,
          "time": 11.849999999999973,
          "velocity": 0.3858267716535433,
          "duration": 0.14937499999999915
        },
        {
          "name": "D4",
          "midi": 62,
          "time": 11.999999999999972,
          "velocity": 0.3858267716535433,
          "duration": 0.14937499999999915
        },
        {
          "name": "A4",
          "midi": 69,
          "time": 12.14999999999997,
          "velocity": 0.3858267716535433,
          "duration": 0.14937499999999915
        },
        {
          "name": "E4",
          "midi": 64,
          "time": 12.299999999999969,
          "velocity": 0.3858267716535433,
          "duration": 0.14937499999999915
        },
        {
          "name": "F4",
          "midi": 65,
          "time": 12.449999999999967,
          "velocity": 0.3858267716535433,
          "duration": 0.14937499999999915
        },
        {
          "name": "G4",
          "midi": 67,
          "time": 12.599999999999966,
          "velocity": 0.3858267716535433,
          "duration": 0.14937499999999915
        },
        {
          "name": "D4",
          "midi": 62,
          "time": 12.749999999999964,
          "velocity": 0.3858267716535433,
          "duration": 0.14937499999999915
        },
        {
          "name": "E4",
          "midi": 64,
          "time": 12.899999999999963,
          "velocity": 0.3858267716535433,
          "duration": 0.14937499999999915
        },
        {
          "name": "F4",
          "midi": 65,
          "time": 13.049999999999962,
          "velocity": 0.3858267716535433,
          "duration": 0.14937499999999915
        },
        {
          "name": "C5",
          "midi": 72,
          "time": 13.19999999999996,
          "velocity": 0.3858267716535433,
          "duration": 0.14937499999999915
        },
        {
          "name": "D5",
          "midi": 74,
          "time": 13.349999999999959,
          "velocity": 0.3858267716535433,
          "duration": 0.14937499999999915
        },
        {
          "name": "C5",
          "midi": 72,
          "time": 13.499999999999957,
          "velocity": 0.3858267716535433,
          "duration": 0.14937499999999915
        },
        {
          "name": "A#4",
          "midi": 70,
          "time": 13.649999999999956,
          "velocity": 0.3858267716535433,
          "duration": 0.14937499999999915
        },
        {
          "name": "E4",
          "midi": 64,
          "time": 13.799999999999955,
          "velocity": 0.3858267716535433,
          "duration": 0.14937499999999915
        },
        {
          "name": "F4",
          "midi": 65,
          "time": 13.949999999999953,
          "velocity": 0.3858267716535433,
          "duration": 0.14937499999999915
        },
        {
          "name": "G4",
          "midi": 67,
          "time": 14.099999999999952,
          "velocity": 0.3858267716535433,
          "duration": 0.14937499999999915
        },
        {
          "name": "A4",
          "midi": 69,
          "time": 14.24999999999995,
          "velocity": 0.3858267716535433,
          "duration": 0.14937499999999915
        },
        {
          "name": "A#4",
          "midi": 70,
          "time": 14.399999999999949,
          "velocity": 0.3858267716535433,
          "duration": 0.14937499999999915
        },
        {
          "name": "E4",
          "midi": 64,
          "time": 14.549999999999947,
          "velocity": 0.3858267716535433,
          "duration": 0.14937499999999915
        },
        {
          "name": "F4",
          "midi": 65,
          "time": 14.699999999999946,
          "velocity": 0.3858267716535433,
          "duration": 0.14937499999999915
        },
        {
          "name": "G4",
          "midi": 67,
          "time": 14.849999999999945,
          "velocity": 0.3858267716535433,
          "duration": 0.14937499999999915
        },
        {
          "name": "A4",
          "midi": 69,
          "time": 14.999999999999943,
          "velocity": 0.3858267716535433,
          "duration": 0.14937499999999915
        },
        {
          "name": "A#4",
          "midi": 70,
          "time": 15.149999999999942,
          "velocity": 0.3858267716535433,
          "duration": 0.14937499999999915
        },
        {
          "name": "E4",
          "midi": 64,
          "time": 15.29999999999994,
          "velocity": 0.3858267716535433,
          "duration": 0.14937499999999915
        },
        {
          "name": "F4",
          "midi": 65,
          "time": 15.449999999999939,
          "velocity": 0.3858267716535433,
          "duration": 0.14937499999999915
        },
        {
          "name": "G4",
          "midi": 67,
          "time": 15.599999999999937,
          "velocity": 0.3858267716535433,
          "duration": 0.14937499999999915
        },
        {
          "name": "A4",
          "midi": 69,
          "time": 15.749999999999936,
          "velocity": 0.3858267716535433,
          "duration": 0.14937499999999915
        },
        {
          "name": "A#4",
          "midi": 70,
          "time": 15.899999999999935,
          "velocity": 0.3858267716535433,
          "duration": 0.14937499999999915
        },
        {
          "name": "E4",
          "midi": 64,
          "time": 16.049999999999933,
          "velocity": 0.3858267716535433,
          "duration": 0.14937499999999915
        },
        {
          "name": "F4",
          "midi": 65,
          "time": 16.199999999999932,
          "velocity": 0.3858267716535433,
          "duration": 0.14937499999999915
        },
        {
          "name": "G4",
          "midi": 67,
          "time": 16.34999999999993,
          "velocity": 0.3858267716535433,
          "duration": 0.14937499999999915
        },
        {
          "name": "A#4",
          "midi": 70,
          "time": 16.49999999999993,
          "velocity": 0.3858267716535433,
          "duration": 0.14937499999999915
        },
        {
          "name": "C5",
          "midi": 72,
          "time": 16.649999999999928,
          "velocity": 0.3858267716535433,
          "duration": 0.14937499999999915
        },
        {
          "name": "E4",
          "midi": 64,
          "time": 16.799999999999926,
          "velocity": 0.3858267716535433,
          "duration": 0.14937499999999915
        },
        {
          "name": "F4",
          "midi": 65,
          "time": 16.949999999999925,
          "velocity": 0.3858267716535433,
          "duration": 0.14937499999999915
        },
        {
          "name": "G4",
          "midi": 67,
          "time": 17.099999999999923,
          "velocity": 0.3858267716535433,
          "duration": 0.14937499999999915
        },
        {
          "name": "A#4",
          "midi": 70,
          "time": 17.249999999999922,
          "velocity": 0.3858267716535433,
          "duration": 0.14937499999999915
        },
        {
          "name": "C5",
          "midi": 72,
          "time": 17.39999999999992,
          "velocity": 0.3858267716535433,
          "duration": 0.14937499999999915
        },
        {
          "name": "E4",
          "midi": 64,
          "time": 17.54999999999992,
          "velocity": 0.3858267716535433,
          "duration": 0.14937499999999915
        },
        {
          "name": "F4",
          "midi": 65,
          "time": 17.699999999999918,
          "velocity": 0.3858267716535433,
          "duration": 0.14937499999999915
        },
        {
          "name": "G4",
          "midi": 67,
          "time": 17.849999999999916,
          "velocity": 0.3858267716535433,
          "duration": 0.14937499999999915
        },
        {
          "name": "A#4",
          "midi": 70,
          "time": 17.999999999999915,
          "velocity": 0.3858267716535433,
          "duration": 0.14937499999999915
        },
        {
          "name": "C5",
          "midi": 72,
          "time": 18.149999999999913,
          "velocity": 0.3858267716535433,
          "duration": 0.14937499999999915
        },
        {
          "name": "E4",
          "midi": 64,
          "time": 18.299999999999912,
          "velocity": 0.3858267716535433,
          "duration": 0.14937499999999915
        },
        {
          "name": "F4",
          "midi": 65,
          "time": 18.44999999999991,
          "velocity": 0.3858267716535433,
          "duration": 0.14937499999999915
        },
        {
          "name": "G4",
          "midi": 67,
          "time": 18.59999999999991,
          "velocity": 0.3858267716535433,
          "duration": 0.14937499999999915
        },
        {
          "name": "A4",
          "midi": 69,
          "time": 18.749999999999908,
          "velocity": 0.3858267716535433,
          "duration": 0.14937499999999915
        },
        {
          "name": "C5",
          "midi": 72,
          "time": 18.899999999999906,
          "velocity": 0.3858267716535433,
          "duration": 0.14937499999999915
        },
        {
          "name": "E4",
          "midi": 64,
          "time": 19.049999999999905,
          "velocity": 0.3858267716535433,
          "duration": 0.14937499999999915
        },
        {
          "name": "F4",
          "midi": 65,
          "time": 19.199999999999903,
          "velocity": 0.3858267716535433,
          "duration": 0.14937499999999915
        },
        {
          "name": "G4",
          "midi": 67,
          "time": 19.349999999999902,
          "velocity": 0.3858267716535433,
          "duration": 0.14937499999999915
        },
        {
          "name": "A4",
          "midi": 69,
          "time": 19.4999999999999,
          "velocity": 0.3858267716535433,
          "duration": 0.14937499999999915
        },
        {
          "name": "D5",
          "midi": 74,
          "time": 19.6499999999999,
          "velocity": 0.3858267716535433,
          "duration": 0.14937499999999915
        },
        {
          "name": "E4",
          "midi": 64,
          "time": 19.799999999999898,
          "velocity": 0.3858267716535433,
          "duration": 0.14937499999999915
        },
        {
          "name": "F4",
          "midi": 65,
          "time": 19.949999999999896,
          "velocity": 0.3858267716535433,
          "duration": 0.14937499999999915
        },
        {
          "name": "C5",
          "midi": 72,
          "time": 20.099999999999895,
          "velocity": 0.3858267716535433,
          "duration": 0.14937499999999915
        },
        {
          "name": "A4",
          "midi": 69,
          "time": 20.249999999999893,
          "velocity": 0.3858267716535433,
          "duration": 0.14937499999999915
        },
        {
          "name": "D5",
          "midi": 74,
          "time": 20.399999999999892,
          "velocity": 0.3858267716535433,
          "duration": 0.14937499999999915
        },
        {
          "name": "E4",
          "midi": 64,
          "time": 20.54999999999989,
          "velocity": 0.3858267716535433,
          "duration": 0.14937499999999915
        },
        {
          "name": "F4",
          "midi": 65,
          "time": 20.69999999999989,
          "velocity": 0.3858267716535433,
          "duration": 0.14937499999999915
        },
        {
          "name": "C5",
          "midi": 72,
          "time": 20.849999999999888,
          "velocity": 0.3858267716535433,
          "duration": 0.14937499999999915
        },
        {
          "name": "A4",
          "midi": 69,
          "time": 20.999999999999886,
          "velocity": 0.3858267716535433,
          "duration": 0.14937499999999915
        },
        {
          "name": "D5",
          "midi": 74,
          "time": 21.149999999999885,
          "velocity": 0.3858267716535433,
          "duration": 0.14937499999999915
        },
        {
          "name": "E4",
          "midi": 64,
          "time": 21.299999999999883,
          "velocity": 0.3858267716535433,
          "duration": 0.14937499999999915
        },
        {
          "name": "F4",
          "midi": 65,
          "time": 21.449999999999882,
          "velocity": 0.3858267716535433,
          "duration": 0.14937499999999915
        },
        {
          "name": "C5",
          "midi": 72,
          "time": 21.59999999999988,
          "velocity": 0.3858267716535433,
          "duration": 0.14937499999999915
        },
        {
          "name": "A4",
          "midi": 69,
          "time": 21.74999999999988,
          "velocity": 0.3858267716535433,
          "duration": 0.14937499999999915
        },
        {
          "name": "D5",
          "midi": 74,
          "time": 21.899999999999878,
          "velocity": 0.3858267716535433,
          "duration": 0.14937499999999915
        },
        {
          "name": "E4",
          "midi": 64,
          "time": 22.049999999999876,
          "velocity": 0.3858267716535433,
          "duration": 0.14937499999999915
        },
        {
          "name": "A4",
          "midi": 69,
          "time": 22.199999999999875,
          "velocity": 0.3858267716535433,
          "duration": 0.14937499999999915
        },
        {
          "name": "D5",
          "midi": 74,
          "time": 22.349999999999874,
          "velocity": 0.3858267716535433,
          "duration": 0.14937499999999915
        },
        {
          "name": "A#4",
          "midi": 70,
          "time": 22.499999999999872,
          "velocity": 0.3858267716535433,
          "duration": 0.14937499999999915
        },
        {
          "name": "C5",
          "midi": 72,
          "time": 22.64999999999987,
          "velocity": 0.3858267716535433,
          "duration": 0.14937499999999915
        },
        {
          "name": "E4",
          "midi": 64,
          "time": 22.79999999999987,
          "velocity": 0.3858267716535433,
          "duration": 0.14937499999999915
        },
        {
          "name": "F4",
          "midi": 65,
          "time": 22.949999999999868,
          "velocity": 0.3858267716535433,
          "duration": 0.14937499999999915
        },
        {
          "name": "G4",
          "midi": 67,
          "time": 23.099999999999866,
          "velocity": 0.3858267716535433,
          "duration": 0.14937499999999915
        },
        {
          "name": "A4",
          "midi": 69,
          "time": 23.249999999999865,
          "velocity": 0.3858267716535433,
          "duration": 0.14937499999999915
        },
        {
          "name": "C5",
          "midi": 72,
          "time": 23.399999999999864,
          "velocity": 0.3858267716535433,
          "duration": 0.14937499999999915
        },
        {
          "name": "E4",
          "midi": 64,
          "time": 23.549999999999862,
          "velocity": 0.3858267716535433,
          "duration": 0.14937499999999915
        },
        {
          "name": "F4",
          "midi": 65,
          "time": 23.69999999999986,
          "velocity": 0.3858267716535433,
          "duration": 0.14937499999999915
        },
        {
          "name": "G4",
          "midi": 67,
          "time": 23.84999999999986,
          "velocity": 0.3858267716535433,
          "duration": 0.14937499999999915
        },
        {
          "name": "A4",
          "midi": 69,
          "time": 23.999999999999858,
          "velocity": 0.3858267716535433,
          "duration": 0.14937499999999915
        },
        {
          "name": "C5",
          "midi": 72,
          "time": 24.149999999999856,
          "velocity": 0.3858267716535433,
          "duration": 0.14937499999999915
        },
        {
          "name": "E4",
          "midi": 64,
          "time": 24.299999999999855,
          "velocity": 0.3858267716535433,
          "duration": 0.14937499999999915
        },
        {
          "name": "F4",
          "midi": 65,
          "time": 24.449999999999854,
          "velocity": 0.3858267716535433,
          "duration": 0.14937499999999915
        },
        {
          "name": "G4",
          "midi": 67,
          "time": 24.599999999999852,
          "velocity": 0.3858267716535433,
          "duration": 0.14937499999999915
        },
        {
          "name": "A4",
          "midi": 69,
          "time": 25.649999999999853,
          "velocity": 0.25984251968503935,
          "duration": 0.07437499999999986
        },
        {
          "name": "A4",
          "midi": 69,
          "time": 25.79999999999985,
          "velocity": 0.25984251968503935,
          "duration": 0.07437499999999986
        },
        {
          "name": "A4",
          "midi": 69,
          "time": 25.94999999999985,
          "velocity": 0.25984251968503935,
          "duration": 0.07437499999999986
        },
        {
          "name": "A4",
          "midi": 69,
          "time": 26.09999999999985,
          "velocity": 0.25984251968503935,
          "duration": 0.07437499999999986
        },
        {
          "name": "A4",
          "midi": 69,
          "time": 26.249999999999847,
          "velocity": 0.25984251968503935,
          "duration": 0.07437499999999986
        },
        {
          "name": "A4",
          "midi": 69,
          "time": 26.399999999999846,
          "velocity": 0.25984251968503935,
          "duration": 0.07437499999999986
        },
        {
          "name": "A4",
          "midi": 69,
          "time": 26.549999999999844,
          "velocity": 0.25984251968503935,
          "duration": 0.07437499999999986
        },
        {
          "name": "A4",
          "midi": 69,
          "time": 26.699999999999843,
          "velocity": 0.25984251968503935,
          "duration": 0.07437499999999986
        },
        {
          "name": "A4",
          "midi": 69,
          "time": 26.84999999999984,
          "velocity": 0.25984251968503935,
          "duration": 0.07437499999999986
        },
        {
          "name": "A4",
          "midi": 69,
          "time": 26.99999999999984,
          "velocity": 0.25984251968503935,
          "duration": 0.07437499999999986
        },
        {
          "name": "A4",
          "midi": 69,
          "time": 27.14999999999984,
          "velocity": 0.25984251968503935,
          "duration": 0.07437499999999986
        },
        {
          "name": "A4",
          "midi": 69,
          "time": 27.299999999999837,
          "velocity": 0.25984251968503935,
          "duration": 0.07437499999999986
        },
        {
          "name": "A4",
          "midi": 69,
          "time": 27.449999999999836,
          "velocity": 0.25984251968503935,
          "duration": 0.07437499999999986
        },
        {
          "name": "A4",
          "midi": 69,
          "time": 27.599999999999834,
          "velocity": 0.25984251968503935,
          "duration": 0.07437499999999986
        },
        {
          "name": "A4",
          "midi": 69,
          "time": 27.749999999999833,
          "velocity": 0.25984251968503935,
          "duration": 0.07437499999999986
        },
        {
          "name": "A4",
          "midi": 69,
          "time": 27.89999999999983,
          "velocity": 0.25984251968503935,
          "duration": 0.07437499999999986
        },
        {
          "name": "A4",
          "midi": 69,
          "time": 28.04999999999983,
          "velocity": 0.25984251968503935,
          "duration": 0.07437499999999986
        },
        {
          "name": "A4",
          "midi": 69,
          "time": 28.19999999999983,
          "velocity": 0.25984251968503935,
          "duration": 0.07437499999999986
        },
        {
          "name": "A4",
          "midi": 69,
          "time": 28.349999999999827,
          "velocity": 0.25984251968503935,
          "duration": 0.07437499999999986
        },
        {
          "name": "A4",
          "midi": 69,
          "time": 28.499999999999826,
          "velocity": 0.25984251968503935,
          "duration": 0.07437499999999986
        },
        {
          "name": "A4",
          "midi": 69,
          "time": 28.649999999999824,
          "velocity": 0.25984251968503935,
          "duration": 0.07437499999999986
        },
        {
          "name": "A4",
          "midi": 69,
          "time": 28.799999999999823,
          "velocity": 0.25984251968503935,
          "duration": 0.07437499999999986
        },
        {
          "name": "A4",
          "midi": 69,
          "time": 28.94999999999982,
          "velocity": 0.25984251968503935,
          "duration": 0.07437499999999986
        },
        {
          "name": "A4",
          "midi": 69,
          "time": 29.09999999999982,
          "velocity": 0.25984251968503935,
          "duration": 0.07437499999999986
        },
        {
          "name": "F4",
          "midi": 65,
          "time": 29.24999999999982,
          "velocity": 0.25984251968503935,
          "duration": 0.07437499999999986
        },
        {
          "name": "F4",
          "midi": 65,
          "time": 29.399999999999817,
          "velocity": 0.25984251968503935,
          "duration": 0.07437499999999986
        },
        {
          "name": "F4",
          "midi": 65,
          "time": 29.549999999999816,
          "velocity": 0.25984251968503935,
          "duration": 0.07437499999999986
        },
        {
          "name": "F4",
          "midi": 65,
          "time": 29.699999999999815,
          "velocity": 0.25984251968503935,
          "duration": 0.07437499999999986
        },
        {
          "name": "F4",
          "midi": 65,
          "time": 29.849999999999813,
          "velocity": 0.25984251968503935,
          "duration": 0.07437499999999986
        },
        {
          "name": "F4",
          "midi": 65,
          "time": 29.99999999999981,
          "velocity": 0.25984251968503935,
          "duration": 0.07437499999999986
        },
        {
          "name": "F4",
          "midi": 65,
          "time": 30.14999999999981,
          "velocity": 0.25984251968503935,
          "duration": 0.07437499999999986
        },
        {
          "name": "F4",
          "midi": 65,
          "time": 30.29999999999981,
          "velocity": 0.25984251968503935,
          "duration": 0.07437499999999986
        },
        {
          "name": "F4",
          "midi": 65,
          "time": 30.449999999999807,
          "velocity": 0.25984251968503935,
          "duration": 0.07437499999999986
        },
        {
          "name": "F4",
          "midi": 65,
          "time": 30.599999999999806,
          "velocity": 0.25984251968503935,
          "duration": 0.07437499999999986
        },
        {
          "name": "F4",
          "midi": 65,
          "time": 30.749999999999805,
          "velocity": 0.25984251968503935,
          "duration": 0.07437499999999986
        },
        {
          "name": "F4",
          "midi": 65,
          "time": 30.899999999999803,
          "velocity": 0.25984251968503935,
          "duration": 0.07437499999999986
        },
        {
          "name": "G4",
          "midi": 67,
          "time": 31.0499999999998,
          "velocity": 0.25984251968503935,
          "duration": 0.07437499999999986
        },
        {
          "name": "G4",
          "midi": 67,
          "time": 31.1999999999998,
          "velocity": 0.25984251968503935,
          "duration": 0.07437499999999986
        },
        {
          "name": "G4",
          "midi": 67,
          "time": 31.3499999999998,
          "velocity": 0.25984251968503935,
          "duration": 0.07437499999999986
        },
        {
          "name": "E4",
          "midi": 64,
          "time": 31.499999999999797,
          "velocity": 0.25984251968503935,
          "duration": 0.07437499999999986
        },
        {
          "name": "E4",
          "midi": 64,
          "time": 31.649999999999796,
          "velocity": 0.25984251968503935,
          "duration": 0.07437499999999986
        },
        {
          "name": "E4",
          "midi": 64,
          "time": 31.799999999999795,
          "velocity": 0.25984251968503935,
          "duration": 0.07437499999999986
        },
        {
          "name": "C#4",
          "midi": 61,
          "time": 31.949999999999793,
          "velocity": 0.25984251968503935,
          "duration": 0.07437499999999986
        },
        {
          "name": "C#4",
          "midi": 61,
          "time": 32.099999999999795,
          "velocity": 0.25984251968503935,
          "duration": 0.07437500000000341
        },
        {
          "name": "C#4",
          "midi": 61,
          "time": 32.2499999999998,
          "velocity": 0.25984251968503935,
          "duration": 0.07437500000000341
        },
        {
          "name": "F4",
          "midi": 65,
          "time": 32.39999999999981,
          "velocity": 0.25984251968503935,
          "duration": 0.03687500000000199
        },
        {
          "name": "F4",
          "midi": 65,
          "time": 32.47499999999981,
          "velocity": 0.25984251968503935,
          "duration": 0.03687500000000199
        },
        {
          "name": "F4",
          "midi": 65,
          "time": 32.54999999999981,
          "velocity": 0.25984251968503935,
          "duration": 0.03687500000000199
        },
        {
          "name": "F4",
          "midi": 65,
          "time": 32.624999999999815,
          "velocity": 0.25984251968503935,
          "duration": 0.03687500000000199
        },
        {
          "name": "E4",
          "midi": 64,
          "time": 32.69999999999982,
          "velocity": 0.25984251968503935,
          "duration": 0.03687500000000199
        },
        {
          "name": "E4",
          "midi": 64,
          "time": 32.77499999999982,
          "velocity": 0.25984251968503935,
          "duration": 0.03687500000000199
        },
        {
          "name": "A4",
          "midi": 69,
          "time": 32.849999999999824,
          "velocity": 0.25984251968503935,
          "duration": 0.07437500000000341
        },
        {
          "name": "A4",
          "midi": 69,
          "time": 32.99999999999983,
          "velocity": 0.25984251968503935,
          "duration": 0.07437500000000341
        },
        {
          "name": "A4",
          "midi": 69,
          "time": 33.149999999999835,
          "velocity": 0.25984251968503935,
          "duration": 0.07437500000000341
        },
        {
          "name": "A4",
          "midi": 69,
          "time": 33.29999999999984,
          "velocity": 0.25984251968503935,
          "duration": 0.07437500000000341
        },
        {
          "name": "A4",
          "midi": 69,
          "time": 33.44999999999985,
          "velocity": 0.25984251968503935,
          "duration": 0.07437500000000341
        },
        {
          "name": "A4",
          "midi": 69,
          "time": 33.59999999999985,
          "velocity": 0.25984251968503935,
          "duration": 0.07437500000000341
        },
        {
          "name": "A4",
          "midi": 69,
          "time": 33.74999999999986,
          "velocity": 0.25984251968503935,
          "duration": 0.07437500000000341
        },
        {
          "name": "A4",
          "midi": 69,
          "time": 33.899999999999864,
          "velocity": 0.25984251968503935,
          "duration": 0.07437500000000341
        },
        {
          "name": "A4",
          "midi": 69,
          "time": 34.04999999999987,
          "velocity": 0.25984251968503935,
          "duration": 0.07437500000000341
        },
        {
          "name": "A4",
          "midi": 69,
          "time": 34.199999999999875,
          "velocity": 0.25984251968503935,
          "duration": 0.07437500000000341
        },
        {
          "name": "A4",
          "midi": 69,
          "time": 34.34999999999988,
          "velocity": 0.25984251968503935,
          "duration": 0.07437500000000341
        },
        {
          "name": "A4",
          "midi": 69,
          "time": 34.499999999999886,
          "velocity": 0.25984251968503935,
          "duration": 0.07437500000000341
        },
        {
          "name": "A4",
          "midi": 69,
          "time": 34.64999999999989,
          "velocity": 0.25984251968503935,
          "duration": 0.07437500000000341
        },
        {
          "name": "A4",
          "midi": 69,
          "time": 34.7999999999999,
          "velocity": 0.25984251968503935,
          "duration": 0.07437500000000341
        },
        {
          "name": "A4",
          "midi": 69,
          "time": 34.9499999999999,
          "velocity": 0.25984251968503935,
          "duration": 0.07437500000000341
        },
        {
          "name": "A4",
          "midi": 69,
          "time": 35.09999999999991,
          "velocity": 0.25984251968503935,
          "duration": 0.07437500000000341
        },
        {
          "name": "A4",
          "midi": 69,
          "time": 35.249999999999915,
          "velocity": 0.25984251968503935,
          "duration": 0.07437500000000341
        },
        {
          "name": "A4",
          "midi": 69,
          "time": 35.39999999999992,
          "velocity": 0.25984251968503935,
          "duration": 0.07437500000000341
        },
        {
          "name": "A4",
          "midi": 69,
          "time": 35.549999999999926,
          "velocity": 0.25984251968503935,
          "duration": 0.07437500000000341
        },
        {
          "name": "A4",
          "midi": 69,
          "time": 35.69999999999993,
          "velocity": 0.25984251968503935,
          "duration": 0.07437500000000341
        },
        {
          "name": "A4",
          "midi": 69,
          "time": 35.84999999999994,
          "velocity": 0.25984251968503935,
          "duration": 0.07437500000000341
        },
        {
          "name": "A4",
          "midi": 69,
          "time": 35.99999999999994,
          "velocity": 0.25984251968503935,
          "duration": 0.07437500000000341
        },
        {
          "name": "A4",
          "midi": 69,
          "time": 36.14999999999995,
          "velocity": 0.25984251968503935,
          "duration": 0.07437500000000341
        },
        {
          "name": "A4",
          "midi": 69,
          "time": 36.299999999999955,
          "velocity": 0.25984251968503935,
          "duration": 0.07437500000000341
        },
        {
          "name": "G4",
          "midi": 67,
          "time": 36.44999999999996,
          "velocity": 0.25984251968503935,
          "duration": 0.07437500000000341
        },
        {
          "name": "G4",
          "midi": 67,
          "time": 36.599999999999966,
          "velocity": 0.25984251968503935,
          "duration": 0.07437500000000341
        },
        {
          "name": "G4",
          "midi": 67,
          "time": 36.74999999999997,
          "velocity": 0.25984251968503935,
          "duration": 0.07437500000000341
        },
        {
          "name": "G4",
          "midi": 67,
          "time": 36.89999999999998,
          "velocity": 0.25984251968503935,
          "duration": 0.07437500000000341
        },
        {
          "name": "G4",
          "midi": 67,
          "time": 37.04999999999998,
          "velocity": 0.25984251968503935,
          "duration": 0.07437500000000341
        },
        {
          "name": "G4",
          "midi": 67,
          "time": 37.19999999999999,
          "velocity": 0.25984251968503935,
          "duration": 0.07437500000000341
        },
        {
          "name": "G4",
          "midi": 67,
          "time": 37.349999999999994,
          "velocity": 0.25984251968503935,
          "duration": 0.07437500000000341
        },
        {
          "name": "G4",
          "midi": 67,
          "time": 37.5,
          "velocity": 0.25984251968503935,
          "duration": 0.07437500000000341
        },
        {
          "name": "G4",
          "midi": 67,
          "time": 37.650000000000006,
          "velocity": 0.25984251968503935,
          "duration": 0.07437500000000341
        },
        {
          "name": "G4",
          "midi": 67,
          "time": 37.80000000000001,
          "velocity": 0.25984251968503935,
          "duration": 0.07437500000000341
        },
        {
          "name": "G4",
          "midi": 67,
          "time": 37.95000000000002,
          "velocity": 0.25984251968503935,
          "duration": 0.07437500000000341
        },
        {
          "name": "G4",
          "midi": 67,
          "time": 38.10000000000002,
          "velocity": 0.25984251968503935,
          "duration": 0.07437500000000341
        },
        {
          "name": "F4",
          "midi": 65,
          "time": 38.25000000000003,
          "velocity": 0.25984251968503935,
          "duration": 0.07437500000000341
        },
        {
          "name": "F4",
          "midi": 65,
          "time": 38.400000000000034,
          "velocity": 0.25984251968503935,
          "duration": 0.07437500000000341
        },
        {
          "name": "F4",
          "midi": 65,
          "time": 38.55000000000004,
          "velocity": 0.25984251968503935,
          "duration": 0.07437500000000341
        },
        {
          "name": "C4",
          "midi": 60,
          "time": 38.700000000000045,
          "velocity": 0.25984251968503935,
          "duration": 0.07437500000000341
        },
        {
          "name": "C4",
          "midi": 60,
          "time": 38.85000000000005,
          "velocity": 0.25984251968503935,
          "duration": 0.07437500000000341
        },
        {
          "name": "C4",
          "midi": 60,
          "time": 39.00000000000006,
          "velocity": 0.25984251968503935,
          "duration": 0.07437500000000341
        },
        {
          "name": "C#4",
          "midi": 61,
          "time": 39.15000000000006,
          "velocity": 0.25984251968503935,
          "duration": 0.07437500000000341
        },
        {
          "name": "C#4",
          "midi": 61,
          "time": 39.30000000000007,
          "velocity": 0.25984251968503935,
          "duration": 0.07437500000000341
        },
        {
          "name": "C#4",
          "midi": 61,
          "time": 39.450000000000074,
          "velocity": 0.25984251968503935,
          "duration": 0.07437500000000341
        },
        {
          "name": "F4",
          "midi": 65,
          "time": 39.60000000000008,
          "velocity": 0.25984251968503935,
          "duration": 0.03687500000000199
        },
        {
          "name": "F4",
          "midi": 65,
          "time": 39.67500000000008,
          "velocity": 0.25984251968503935,
          "duration": 0.03687500000000199
        },
        {
          "name": "F4",
          "midi": 65,
          "time": 39.750000000000085,
          "velocity": 0.25984251968503935,
          "duration": 0.03687500000000199
        },
        {
          "name": "F4",
          "midi": 65,
          "time": 39.82500000000009,
          "velocity": 0.25984251968503935,
          "duration": 0.03687500000000199
        },
        {
          "name": "E4",
          "midi": 64,
          "time": 39.90000000000009,
          "velocity": 0.25984251968503935,
          "duration": 0.03687500000000199
        },
        {
          "name": "E4",
          "midi": 64,
          "time": 39.975000000000094,
          "velocity": 0.25984251968503935,
          "duration": 0.03687500000000199
        },
        {
          "name": "A4",
          "midi": 69,
          "time": 40.0500000000001,
          "velocity": 0.25984251968503935,
          "duration": 0.07437500000000341
        },
        {
          "name": "A4",
          "midi": 69,
          "time": 40.2000000000001,
          "velocity": 0.25984251968503935,
          "duration": 0.07437500000000341
        },
        {
          "name": "A4",
          "midi": 69,
          "time": 40.35000000000011,
          "velocity": 0.25984251968503935,
          "duration": 0.07437500000000341
        },
        {
          "name": "A4",
          "midi": 69,
          "time": 40.500000000000114,
          "velocity": 0.25984251968503935,
          "duration": 0.07437500000000341
        },
        {
          "name": "A4",
          "midi": 69,
          "time": 40.65000000000012,
          "velocity": 0.25984251968503935,
          "duration": 0.07437500000000341
        },
        {
          "name": "A4",
          "midi": 69,
          "time": 40.800000000000125,
          "velocity": 0.25984251968503935,
          "duration": 0.07437500000000341
        },
        {
          "name": "A4",
          "midi": 69,
          "time": 40.95000000000013,
          "velocity": 0.25984251968503935,
          "duration": 0.07437500000000341
        },
        {
          "name": "A4",
          "midi": 69,
          "time": 41.100000000000136,
          "velocity": 0.25984251968503935,
          "duration": 0.07437500000000341
        },
        {
          "name": "A4",
          "midi": 69,
          "time": 41.25000000000014,
          "velocity": 0.25984251968503935,
          "duration": 0.07437500000000341
        },
        {
          "name": "A4",
          "midi": 69,
          "time": 41.40000000000015,
          "velocity": 0.25984251968503935,
          "duration": 0.07437500000000341
        },
        {
          "name": "A4",
          "midi": 69,
          "time": 41.55000000000015,
          "velocity": 0.25984251968503935,
          "duration": 0.07437500000000341
        },
        {
          "name": "A4",
          "midi": 69,
          "time": 41.70000000000016,
          "velocity": 0.25984251968503935,
          "duration": 0.07437500000000341
        },
        {
          "name": "A4",
          "midi": 69,
          "time": 41.850000000000165,
          "velocity": 0.25984251968503935,
          "duration": 0.07437500000000341
        },
        {
          "name": "A4",
          "midi": 69,
          "time": 42.00000000000017,
          "velocity": 0.25984251968503935,
          "duration": 0.07437500000000341
        },
        {
          "name": "A4",
          "midi": 69,
          "time": 42.150000000000176,
          "velocity": 0.25984251968503935,
          "duration": 0.07437500000000341
        },
        {
          "name": "A4",
          "midi": 69,
          "time": 42.30000000000018,
          "velocity": 0.25984251968503935,
          "duration": 0.07437500000000341
        },
        {
          "name": "A4",
          "midi": 69,
          "time": 42.45000000000019,
          "velocity": 0.25984251968503935,
          "duration": 0.07437500000000341
        },
        {
          "name": "A4",
          "midi": 69,
          "time": 42.60000000000019,
          "velocity": 0.25984251968503935,
          "duration": 0.07437500000000341
        },
        {
          "name": "A4",
          "midi": 69,
          "time": 42.7500000000002,
          "velocity": 0.25984251968503935,
          "duration": 0.07437500000000341
        },
        {
          "name": "A4",
          "midi": 69,
          "time": 42.900000000000205,
          "velocity": 0.25984251968503935,
          "duration": 0.07437500000000341
        },
        {
          "name": "A4",
          "midi": 69,
          "time": 43.05000000000021,
          "velocity": 0.25984251968503935,
          "duration": 0.07437500000000341
        },
        {
          "name": "A4",
          "midi": 69,
          "time": 43.200000000000216,
          "velocity": 0.25984251968503935,
          "duration": 0.07437500000000341
        },
        {
          "name": "A4",
          "midi": 69,
          "time": 43.35000000000022,
          "velocity": 0.25984251968503935,
          "duration": 0.07437500000000341
        },
        {
          "name": "A4",
          "midi": 69,
          "time": 43.50000000000023,
          "velocity": 0.25984251968503935,
          "duration": 0.07437500000000341
        },
        {
          "name": "G4",
          "midi": 67,
          "time": 43.65000000000023,
          "velocity": 0.25984251968503935,
          "duration": 0.07437500000000341
        },
        {
          "name": "G4",
          "midi": 67,
          "time": 43.80000000000024,
          "velocity": 0.25984251968503935,
          "duration": 0.07437500000000341
        },
        {
          "name": "G4",
          "midi": 67,
          "time": 43.950000000000244,
          "velocity": 0.25984251968503935,
          "duration": 0.07437500000000341
        },
        {
          "name": "G4",
          "midi": 67,
          "time": 44.10000000000025,
          "velocity": 0.25984251968503935,
          "duration": 0.07437500000000341
        },
        {
          "name": "G4",
          "midi": 67,
          "time": 44.250000000000256,
          "velocity": 0.25984251968503935,
          "duration": 0.07437500000000341
        },
        {
          "name": "G4",
          "midi": 67,
          "time": 44.40000000000026,
          "velocity": 0.25984251968503935,
          "duration": 0.07437500000000341
        },
        {
          "name": "G4",
          "midi": 67,
          "time": 44.55000000000027,
          "velocity": 0.25984251968503935,
          "duration": 0.07437500000000341
        },
        {
          "name": "G4",
          "midi": 67,
          "time": 44.70000000000027,
          "velocity": 0.25984251968503935,
          "duration": 0.07437500000000341
        },
        {
          "name": "G4",
          "midi": 67,
          "time": 44.85000000000028,
          "velocity": 0.25984251968503935,
          "duration": 0.07437500000000341
        },
        {
          "name": "G4",
          "midi": 67,
          "time": 45.000000000000284,
          "velocity": 0.25984251968503935,
          "duration": 0.07437500000000341
        },
        {
          "name": "G4",
          "midi": 67,
          "time": 45.15000000000029,
          "velocity": 0.25984251968503935,
          "duration": 0.07437500000000341
        },
        {
          "name": "G4",
          "midi": 67,
          "time": 45.300000000000296,
          "velocity": 0.25984251968503935,
          "duration": 0.07437500000000341
        },
        {
          "name": "F4",
          "midi": 65,
          "time": 45.4500000000003,
          "velocity": 0.25984251968503935,
          "duration": 0.07437500000000341
        },
        {
          "name": "F4",
          "midi": 65,
          "time": 45.60000000000031,
          "velocity": 0.25984251968503935,
          "duration": 0.07437500000000341
        },
        {
          "name": "F4",
          "midi": 65,
          "time": 45.75000000000031,
          "velocity": 0.25984251968503935,
          "duration": 0.07437500000000341
        },
        {
          "name": "C4",
          "midi": 60,
          "time": 45.90000000000032,
          "velocity": 0.25984251968503935,
          "duration": 0.07437500000000341
        },
        {
          "name": "C4",
          "midi": 60,
          "time": 46.050000000000324,
          "velocity": 0.25984251968503935,
          "duration": 0.07437500000000341
        },
        {
          "name": "C4",
          "midi": 60,
          "time": 46.20000000000033,
          "velocity": 0.25984251968503935,
          "duration": 0.07437500000000341
        },
        {
          "name": "C#4",
          "midi": 61,
          "time": 46.350000000000335,
          "velocity": 0.25984251968503935,
          "duration": 0.07437500000000341
        },
        {
          "name": "C#4",
          "midi": 61,
          "time": 46.50000000000034,
          "velocity": 0.25984251968503935,
          "duration": 0.07437500000000341
        },
        {
          "name": "C#4",
          "midi": 61,
          "time": 46.65000000000035,
          "velocity": 0.25984251968503935,
          "duration": 0.07437500000000341
        },
        {
          "name": "F4",
          "midi": 65,
          "time": 46.80000000000035,
          "velocity": 0.25984251968503935,
          "duration": 0.03687500000000199
        },
        {
          "name": "F4",
          "midi": 65,
          "time": 46.875000000000355,
          "velocity": 0.25984251968503935,
          "duration": 0.03687500000000199
        },
        {
          "name": "F4",
          "midi": 65,
          "time": 46.95000000000036,
          "velocity": 0.25984251968503935,
          "duration": 0.03687500000000199
        },
        {
          "name": "F4",
          "midi": 65,
          "time": 47.02500000000036,
          "velocity": 0.25984251968503935,
          "duration": 0.03687500000000199
        },
        {
          "name": "E4",
          "midi": 64,
          "time": 47.100000000000364,
          "velocity": 0.25984251968503935,
          "duration": 0.03687500000000199
        },
        {
          "name": "E4",
          "midi": 64,
          "time": 47.17500000000037,
          "velocity": 0.25984251968503935,
          "duration": 0.03687500000000199
        },
        {
          "name": "D4",
          "midi": 62,
          "time": 47.25000000000037,
          "velocity": 0.25984251968503935,
          "duration": 1.349375000000002
        },
        {
          "name": "A4",
          "midi": 69,
          "time": 48.60000000000037,
          "velocity": 0.25984251968503935,
          "duration": 0.4493750000000034
        },
        {
          "name": "G4",
          "midi": 67,
          "time": 49.050000000000374,
          "velocity": 0.25984251968503935,
          "duration": 0.8993749999999991
        },
        {
          "name": "A4",
          "midi": 69,
          "time": 49.95000000000037,
          "velocity": 0.25984251968503935,
          "duration": 0.8993749999999991
        },
        {
          "name": "D5",
          "midi": 74,
          "time": 50.85000000000037,
          "velocity": 0.25984251968503935,
          "duration": 0.8993749999999991
        },
        {
          "name": "D5",
          "midi": 74,
          "time": 51.75000000000037,
          "velocity": 0.3858267716535433,
          "duration": 0.44937499999993236
        },
        {
          "name": "E5",
          "midi": 76,
          "time": 52.2000000000003,
          "velocity": 0.3858267716535433,
          "duration": 0.44937499999993236
        },
        {
          "name": "F5",
          "midi": 77,
          "time": 52.65000000000023,
          "velocity": 0.3858267716535433,
          "duration": 0.44937499999993236
        },
        {
          "name": "G4",
          "midi": 67,
          "time": 53.100000000000165,
          "velocity": 0.3858267716535433,
          "duration": 0.44937499999993236
        },
        {
          "name": "A4",
          "midi": 69,
          "time": 53.5500000000001,
          "velocity": 0.3858267716535433,
          "duration": 0.2993749999999338
        },
        {
          "name": "A4",
          "midi": 69,
          "time": 53.85000000000003,
          "velocity": 0.25984251968503935,
          "duration": 0.14937499999999915
        },
        {
          "name": "E4",
          "midi": 64,
          "time": 54.00000000000003,
          "velocity": 0.3858267716535433,
          "duration": 0.2993749999999338
        },
        {
          "name": "E4",
          "midi": 64,
          "time": 54.29999999999996,
          "velocity": 0.25984251968503935,
          "duration": 0.14937499999999915
        },
        {
          "name": "D4",
          "midi": 62,
          "time": 54.44999999999996,
          "velocity": 0.25984251968503935,
          "duration": 1.7993749999999977
        },
        {
          "name": "F4",
          "midi": 65,
          "time": 56.24999999999996,
          "velocity": 0.25984251968503935,
          "duration": 0.8993749999999991
        },
        {
          "name": "E4",
          "midi": 64,
          "time": 57.149999999999956,
          "velocity": 0.25984251968503935,
          "duration": 0.8993749999999991
        },
        {
          "name": "D5",
          "midi": 74,
          "time": 59.84999999999995,
          "velocity": 0.25984251968503935,
          "duration": 0.4493750000000034
        },
        {
          "name": "E5",
          "midi": 76,
          "time": 60.299999999999955,
          "velocity": 0.25984251968503935,
          "duration": 0.4493750000000034
        },
        {
          "name": "F5",
          "midi": 77,
          "time": 60.74999999999996,
          "velocity": 0.3858267716535433,
          "duration": 0.2993749999999338
        },
        {
          "name": "F5",
          "midi": 77,
          "time": 61.04999999999989,
          "velocity": 0.25984251968503935,
          "duration": 0.14937499999999915
        },
        {
          "name": "G5",
          "midi": 79,
          "time": 61.19999999999989,
          "velocity": 0.3858267716535433,
          "duration": 0.2993749999999338
        },
        {
          "name": "G5",
          "midi": 79,
          "time": 61.49999999999982,
          "velocity": 0.25984251968503935,
          "duration": 0.14937499999999915
        },
        {
          "name": "D5",
          "midi": 74,
          "time": 61.64999999999982,
          "velocity": 0.3858267716535433,
          "duration": 0.07437500000000341
        },
        {
          "name": "D5",
          "midi": 74,
          "time": 61.79999999999983,
          "velocity": 0.3858267716535433,
          "duration": 0.07437500000000341
        },
        {
          "name": "D5",
          "midi": 74,
          "time": 61.94999999999983,
          "velocity": 0.3858267716535433,
          "duration": 0.07437500000000341
        },
        {
          "name": "D5",
          "midi": 74,
          "time": 62.09999999999984,
          "velocity": 0.3858267716535433,
          "duration": 0.07437500000000341
        },
        {
          "name": "D5",
          "midi": 74,
          "time": 62.54999999999984,
          "velocity": 0.3858267716535433,
          "duration": 0.07437500000000341
        },
        {
          "name": "D5",
          "midi": 74,
          "time": 62.69999999999985,
          "velocity": 0.3858267716535433,
          "duration": 0.07437500000000341
        },
        {
          "name": "D5",
          "midi": 74,
          "time": 62.84999999999985,
          "velocity": 0.3858267716535433,
          "duration": 0.07437500000000341
        },
        {
          "name": "D5",
          "midi": 74,
          "time": 62.99999999999986,
          "velocity": 0.3858267716535433,
          "duration": 0.07437500000000341
        },
        {
          "name": "E5",
          "midi": 76,
          "time": 63.44999999999986,
          "velocity": 0.3858267716535433,
          "duration": 0.07437500000000341
        },
        {
          "name": "E5",
          "midi": 76,
          "time": 63.599999999999866,
          "velocity": 0.3858267716535433,
          "duration": 0.07437500000000341
        },
        {
          "name": "E5",
          "midi": 76,
          "time": 63.74999999999987,
          "velocity": 0.3858267716535433,
          "duration": 0.07437500000000341
        },
        {
          "name": "E5",
          "midi": 76,
          "time": 63.89999999999988,
          "velocity": 0.3858267716535433,
          "duration": 0.07437500000000341
        },
        {
          "name": "F5",
          "midi": 77,
          "time": 64.34999999999988,
          "velocity": 0.3858267716535433,
          "duration": 0.07437500000000341
        },
        {
          "name": "F5",
          "midi": 77,
          "time": 64.49999999999989,
          "velocity": 0.3858267716535433,
          "duration": 0.07437500000000341
        },
        {
          "name": "F5",
          "midi": 77,
          "time": 64.64999999999989,
          "velocity": 0.3858267716535433,
          "duration": 0.07437500000000341
        },
        {
          "name": "F5",
          "midi": 77,
          "time": 64.7999999999999,
          "velocity": 0.3858267716535433,
          "duration": 0.07437500000000341
        },
        {
          "name": "F5",
          "midi": 77,
          "time": 65.2499999999999,
          "velocity": 0.3858267716535433,
          "duration": 0.07437500000000341
        },
        {
          "name": "F5",
          "midi": 77,
          "time": 65.3999999999999,
          "velocity": 0.3858267716535433,
          "duration": 0.07437500000000341
        },
        {
          "name": "F5",
          "midi": 77,
          "time": 65.54999999999991,
          "velocity": 0.3858267716535433,
          "duration": 0.07437500000000341
        },
        {
          "name": "F5",
          "midi": 77,
          "time": 65.69999999999992,
          "velocity": 0.3858267716535433,
          "duration": 0.07437500000000341
        },
        {
          "name": "G5",
          "midi": 79,
          "time": 66.14999999999992,
          "velocity": 0.3858267716535433,
          "duration": 0.07437500000000341
        },
        {
          "name": "G5",
          "midi": 79,
          "time": 66.29999999999993,
          "velocity": 0.3858267716535433,
          "duration": 0.07437500000000341
        },
        {
          "name": "G5",
          "midi": 79,
          "time": 66.44999999999993,
          "velocity": 0.3858267716535433,
          "duration": 0.07437500000000341
        },
        {
          "name": "G5",
          "midi": 79,
          "time": 66.59999999999994,
          "velocity": 0.3858267716535433,
          "duration": 0.07437500000000341
        },
        {
          "name": "F5",
          "midi": 77,
          "time": 67.04999999999994,
          "velocity": 0.3858267716535433,
          "duration": 0.07437500000000341
        },
        {
          "name": "F5",
          "midi": 77,
          "time": 67.19999999999995,
          "velocity": 0.3858267716535433,
          "duration": 0.07437500000000341
        },
        {
          "name": "F5",
          "midi": 77,
          "time": 67.34999999999995,
          "velocity": 0.3858267716535433,
          "duration": 0.07437500000000341
        },
        {
          "name": "F5",
          "midi": 77,
          "time": 67.49999999999996,
          "velocity": 0.3858267716535433,
          "duration": 0.07437500000000341
        },
        {
          "name": "F5",
          "midi": 77,
          "time": 67.94999999999996,
          "velocity": 0.3858267716535433,
          "duration": 0.07437500000000341
        },
        {
          "name": "F5",
          "midi": 77,
          "time": 68.09999999999997,
          "velocity": 0.3858267716535433,
          "duration": 0.07437500000000341
        },
        {
          "name": "F5",
          "midi": 77,
          "time": 68.24999999999997,
          "velocity": 0.3858267716535433,
          "duration": 0.07437500000000341
        },
        {
          "name": "F5",
          "midi": 77,
          "time": 68.39999999999998,
          "velocity": 0.3858267716535433,
          "duration": 0.07437500000000341
        },
        {
          "name": "F5",
          "midi": 77,
          "time": 68.84999999999998,
          "velocity": 0.3858267716535433,
          "duration": 0.8993750000000063
        },
        {
          "name": "E5",
          "midi": 76,
          "time": 69.74999999999999,
          "velocity": 0.3858267716535433,
          "duration": 0.4493750000000034
        },
        {
          "name": "D5",
          "midi": 74,
          "time": 70.19999999999999,
          "velocity": 0.3858267716535433,
          "duration": 0.4493750000000034
        },
        {
          "name": "A#4",
          "midi": 70,
          "time": 70.64999999999999,
          "velocity": 0.3858267716535433,
          "duration": 0.7493750000000006
        },
        {
          "name": "C5",
          "midi": 72,
          "time": 71.39999999999999,
          "velocity": 0.3858267716535433,
          "duration": 0.07437500000000341
        },
        {
          "name": "C#5",
          "midi": 73,
          "time": 71.475,
          "velocity": 0.3858267716535433,
          "duration": 0.07437500000000341
        },
        {
          "name": "D5",
          "midi": 74,
          "time": 71.55,
          "velocity": 0.3858267716535433,
          "duration": 0.4493750000000034
        },
        {
          "name": "F5",
          "midi": 77,
          "time": 72,
          "velocity": 0.3858267716535433,
          "duration": 0.4493750000000034
        },
        {
          "name": "F5",
          "midi": 77,
          "time": 72.45,
          "velocity": 0.3858267716535433,
          "duration": 0.4493750000000034
        },
        {
          "name": "E5",
          "midi": 76,
          "time": 72.9,
          "velocity": 0.3858267716535433,
          "duration": 0.4493750000000034
        },
        {
          "name": "G5",
          "midi": 79,
          "time": 73.35000000000001,
          "velocity": 0.3858267716535433,
          "duration": 0.4493750000000034
        },
        {
          "name": "E5",
          "midi": 76,
          "time": 73.80000000000001,
          "velocity": 0.3858267716535433,
          "duration": 1.349375000000009
        },
        {
          "name": "C#5",
          "midi": 73,
          "time": 75.15000000000002,
          "velocity": 0.3858267716535433,
          "duration": 0.07437500000000341
        },
        {
          "name": "C#5",
          "midi": 73,
          "time": 75.30000000000003,
          "velocity": 0.3858267716535433,
          "duration": 0.07437500000000341
        },
        {
          "name": "C#5",
          "midi": 73,
          "time": 75.45000000000003,
          "velocity": 0.3858267716535433,
          "duration": 0.07437500000000341
        },
        {
          "name": "C#5",
          "midi": 73,
          "time": 75.60000000000004,
          "velocity": 0.3858267716535433,
          "duration": 0.07437500000000341
        },
        {
          "name": "C#5",
          "midi": 73,
          "time": 75.75000000000004,
          "velocity": 0.3858267716535433,
          "duration": 0.07437500000000341
        },
        {
          "name": "C#5",
          "midi": 73,
          "time": 75.82500000000005,
          "velocity": 0.3858267716535433,
          "duration": 0.036874999999994884
        },
        {
          "name": "C#5",
          "midi": 73,
          "time": 75.90000000000003,
          "velocity": 0.3858267716535433,
          "duration": 0.07437500000000341
        },
        {
          "name": "A4",
          "midi": 69,
          "time": 97.80000000000004,
          "velocity": 0.3858267716535433,
          "duration": 0.14937500000000625
        },
        {
          "name": "D5",
          "midi": 74,
          "time": 97.95000000000005,
          "velocity": 0.3858267716535433,
          "duration": 0.14937500000000625
        },
        {
          "name": "E4",
          "midi": 64,
          "time": 98.10000000000005,
          "velocity": 0.3858267716535433,
          "duration": 0.14937500000000625
        },
        {
          "name": "A4",
          "midi": 69,
          "time": 98.25000000000006,
          "velocity": 0.3858267716535433,
          "duration": 0.14937500000000625
        },
        {
          "name": "D5",
          "midi": 74,
          "time": 98.40000000000006,
          "velocity": 0.3858267716535433,
          "duration": 0.14937500000000625
        },
        {
          "name": "A#4",
          "midi": 70,
          "time": 98.55000000000007,
          "velocity": 0.3858267716535433,
          "duration": 0.14937500000000625
        },
        {
          "name": "C5",
          "midi": 72,
          "time": 98.70000000000007,
          "velocity": 0.3858267716535433,
          "duration": 0.14937500000000625
        },
        {
          "name": "E4",
          "midi": 64,
          "time": 98.85000000000008,
          "velocity": 0.3858267716535433,
          "duration": 0.14937500000000625
        },
        {
          "name": "F4",
          "midi": 65,
          "time": 99.00000000000009,
          "velocity": 0.3858267716535433,
          "duration": 0.14937500000000625
        },
        {
          "name": "G4",
          "midi": 67,
          "time": 99.15000000000009,
          "velocity": 0.3858267716535433,
          "duration": 0.14937500000000625
        },
        {
          "name": "A4",
          "midi": 69,
          "time": 99.3000000000001,
          "velocity": 0.3858267716535433,
          "duration": 0.14937500000000625
        },
        {
          "name": "C5",
          "midi": 72,
          "time": 99.4500000000001,
          "velocity": 0.3858267716535433,
          "duration": 0.14937500000000625
        },
        {
          "name": "E4",
          "midi": 64,
          "time": 99.60000000000011,
          "velocity": 0.3858267716535433,
          "duration": 0.14937500000000625
        },
        {
          "name": "F4",
          "midi": 65,
          "time": 99.75000000000011,
          "velocity": 0.3858267716535433,
          "duration": 0.14937500000000625
        },
        {
          "name": "G4",
          "midi": 67,
          "time": 99.90000000000012,
          "velocity": 0.3858267716535433,
          "duration": 0.14937500000000625
        },
        {
          "name": "A4",
          "midi": 69,
          "time": 100.05000000000013,
          "velocity": 0.3858267716535433,
          "duration": 0.14937500000000625
        },
        {
          "name": "C5",
          "midi": 72,
          "time": 100.20000000000013,
          "velocity": 0.3858267716535433,
          "duration": 0.14937500000000625
        },
        {
          "name": "E4",
          "midi": 64,
          "time": 100.35000000000014,
          "velocity": 0.3858267716535433,
          "duration": 0.14937500000000625
        },
        {
          "name": "F4",
          "midi": 65,
          "time": 100.50000000000014,
          "velocity": 0.3858267716535433,
          "duration": 0.14937500000000625
        },
        {
          "name": "G4",
          "midi": 67,
          "time": 100.65000000000015,
          "velocity": 0.3858267716535433,
          "duration": 0.14937500000000625
        },
        {
          "name": "A4",
          "midi": 69,
          "time": 100.80000000000015,
          "velocity": 0.3858267716535433,
          "duration": 0.14937500000000625
        },
        {
          "name": "A#4",
          "midi": 70,
          "time": 100.95000000000016,
          "velocity": 0.3858267716535433,
          "duration": 0.14937500000000625
        },
        {
          "name": "C5",
          "midi": 72,
          "time": 101.10000000000016,
          "velocity": 0.3858267716535433,
          "duration": 0.14937500000000625
        },
        {
          "name": "E4",
          "midi": 64,
          "time": 101.25000000000017,
          "velocity": 0.3858267716535433,
          "duration": 0.14937500000000625
        },
        {
          "name": "F4",
          "midi": 65,
          "time": 101.40000000000018,
          "velocity": 0.3858267716535433,
          "duration": 0.14937500000000625
        },
        {
          "name": "G4",
          "midi": 67,
          "time": 101.55000000000018,
          "velocity": 0.3858267716535433,
          "duration": 0.14937500000000625
        },
        {
          "name": "C#5",
          "midi": 73,
          "time": 101.70000000000019,
          "velocity": 0.3858267716535433,
          "duration": 0.07437500000000341
        },
        {
          "name": "C#5",
          "midi": 73,
          "time": 101.8500000000002,
          "velocity": 0.3858267716535433,
          "duration": 0.07437500000000341
        },
        {
          "name": "C#5",
          "midi": 73,
          "time": 102.0000000000002,
          "velocity": 0.3858267716535433,
          "duration": 0.07437500000000341
        },
        {
          "name": "C#5",
          "midi": 73,
          "time": 102.1500000000002,
          "velocity": 0.3858267716535433,
          "duration": 0.07437500000000341
        },
        {
          "name": "C#5",
          "midi": 73,
          "time": 102.30000000000021,
          "velocity": 0.3858267716535433,
          "duration": 0.07437500000000341
        },
        {
          "name": "C#5",
          "midi": 73,
          "time": 102.37500000000021,
          "velocity": 0.3858267716535433,
          "duration": 0.036874999999994884
        },
        {
          "name": "C#5",
          "midi": 73,
          "time": 102.4500000000002,
          "velocity": 0.3858267716535433,
          "duration": 0.07437500000000341
        },
        {
          "name": "C#5",
          "midi": 73,
          "time": 102.60000000000021,
          "velocity": 0.3858267716535433,
          "duration": 0.07437500000000341
        },
        {
          "name": "C#5",
          "midi": 73,
          "time": 102.75000000000021,
          "velocity": 0.3858267716535433,
          "duration": 0.07437500000000341
        },
        {
          "name": "C#5",
          "midi": 73,
          "time": 102.90000000000022,
          "velocity": 0.3858267716535433,
          "duration": 0.07437500000000341
        },
        {
          "name": "C#5",
          "midi": 73,
          "time": 103.05000000000022,
          "velocity": 0.3858267716535433,
          "duration": 0.07437500000000341
        },
        {
          "name": "C#5",
          "midi": 73,
          "time": 103.20000000000023,
          "velocity": 0.3858267716535433,
          "duration": 0.07437500000000341
        },
        {
          "name": "C#5",
          "midi": 73,
          "time": 103.27500000000023,
          "velocity": 0.3858267716535433,
          "duration": 0.036874999999994884
        },
        {
          "name": "C#5",
          "midi": 73,
          "time": 103.35000000000022,
          "velocity": 0.3858267716535433,
          "duration": 0.07437500000000341
        },
        {
          "name": "F5",
          "midi": 77,
          "time": 103.50000000000023,
          "velocity": 0.3858267716535433,
          "duration": 1.799375000000012
        },
        {
          "name": "F5",
          "midi": 77,
          "time": 105.30000000000024,
          "velocity": 0.3858267716535433,
          "duration": 0.8993750000000063
        }
      ],
      "controlChanges": {
        "2": [
          {
            "number": 2,
            "time": 0,
            "value": 0.3858267716535433
          },
          {
            "number": 2,
            "time": 3.15,
            "value": 0.3858267716535433
          },
          {
            "number": 2,
            "time": 3.3,
            "value": 0.3858267716535433
          },
          {
            "number": 2,
            "time": 3.4499999999999997,
            "value": 0.3858267716535433
          },
          {
            "number": 2,
            "time": 3.5999999999999996,
            "value": 0.3858267716535433
          },
          {
            "number": 2,
            "time": 3.7499999999999996,
            "value": 0.3858267716535433
          },
          {
            "number": 2,
            "time": 3.8999999999999995,
            "value": 0.3858267716535433
          },
          {
            "number": 2,
            "time": 4.05,
            "value": 0.3858267716535433
          },
          {
            "number": 2,
            "time": 4.2,
            "value": 0.3858267716535433
          },
          {
            "number": 2,
            "time": 4.3500000000000005,
            "value": 0.3858267716535433
          },
          {
            "number": 2,
            "time": 4.500000000000001,
            "value": 0.3858267716535433
          },
          {
            "number": 2,
            "time": 4.650000000000001,
            "value": 0.3858267716535433
          },
          {
            "number": 2,
            "time": 4.800000000000002,
            "value": 0.3858267716535433
          },
          {
            "number": 2,
            "time": 4.950000000000002,
            "value": 0.3858267716535433
          },
          {
            "number": 2,
            "time": 5.100000000000002,
            "value": 0.3858267716535433
          },
          {
            "number": 2,
            "time": 5.400000000000003,
            "value": 0.3858267716535433
          },
          {
            "number": 2,
            "time": 5.700000000000004,
            "value": 0.3858267716535433
          },
          {
            "number": 2,
            "time": 5.850000000000004,
            "value": 0.3858267716535433
          },
          {
            "number": 2,
            "time": 6.000000000000004,
            "value": 0.3858267716535433
          },
          {
            "number": 2,
            "time": 6.150000000000005,
            "value": 0.3858267716535433
          },
          {
            "number": 2,
            "time": 6.300000000000005,
            "value": 0.3858267716535433
          },
          {
            "number": 2,
            "time": 6.4500000000000055,
            "value": 0.3858267716535433
          },
          {
            "number": 2,
            "time": 6.600000000000006,
            "value": 0.3858267716535433
          },
          {
            "number": 2,
            "time": 6.750000000000006,
            "value": 0.3858267716535433
          },
          {
            "number": 2,
            "time": 6.900000000000007,
            "value": 0.3858267716535433
          },
          {
            "number": 2,
            "time": 7.050000000000007,
            "value": 0.3858267716535433
          },
          {
            "number": 2,
            "time": 7.200000000000007,
            "value": 0.3858267716535433
          },
          {
            "number": 2,
            "time": 7.350000000000008,
            "value": 0.3858267716535433
          },
          {
            "number": 2,
            "time": 7.500000000000008,
            "value": 0.3858267716535433
          },
          {
            "number": 2,
            "time": 7.650000000000008,
            "value": 0.3858267716535433
          },
          {
            "number": 2,
            "time": 7.950000000000009,
            "value": 0.3858267716535433
          },
          {
            "number": 2,
            "time": 8.400000000000006,
            "value": 0.3858267716535433
          },
          {
            "number": 2,
            "time": 8.700000000000003,
            "value": 0.3858267716535433
          },
          {
            "number": 2,
            "time": 9.149999999999999,
            "value": 0.3858267716535433
          },
          {
            "number": 2,
            "time": 9.599999999999994,
            "value": 0.3858267716535433
          },
          {
            "number": 2,
            "time": 10.349999999999987,
            "value": 0.3858267716535433
          },
          {
            "number": 2,
            "time": 10.499999999999986,
            "value": 0.3858267716535433
          },
          {
            "number": 2,
            "time": 10.649999999999984,
            "value": 0.3858267716535433
          },
          {
            "number": 2,
            "time": 10.799999999999983,
            "value": 0.3858267716535433
          },
          {
            "number": 2,
            "time": 10.949999999999982,
            "value": 0.3858267716535433
          },
          {
            "number": 2,
            "time": 11.09999999999998,
            "value": 0.3858267716535433
          },
          {
            "number": 2,
            "time": 11.249999999999979,
            "value": 0.3858267716535433
          },
          {
            "number": 2,
            "time": 11.399999999999977,
            "value": 0.3858267716535433
          },
          {
            "number": 2,
            "time": 11.549999999999976,
            "value": 0.3858267716535433
          },
          {
            "number": 2,
            "time": 11.699999999999974,
            "value": 0.3858267716535433
          },
          {
            "number": 2,
            "time": 11.849999999999973,
            "value": 0.3858267716535433
          },
          {
            "number": 2,
            "time": 11.999999999999972,
            "value": 0.3858267716535433
          },
          {
            "number": 2,
            "time": 12.14999999999997,
            "value": 0.3858267716535433
          },
          {
            "number": 2,
            "time": 12.299999999999969,
            "value": 0.3858267716535433
          },
          {
            "number": 2,
            "time": 12.449999999999967,
            "value": 0.3858267716535433
          },
          {
            "number": 2,
            "time": 12.599999999999966,
            "value": 0.3858267716535433
          },
          {
            "number": 2,
            "time": 12.749999999999964,
            "value": 0.3858267716535433
          },
          {
            "number": 2,
            "time": 12.899999999999963,
            "value": 0.3858267716535433
          },
          {
            "number": 2,
            "time": 13.049999999999962,
            "value": 0.3858267716535433
          },
          {
            "number": 2,
            "time": 13.19999999999996,
            "value": 0.3858267716535433
          },
          {
            "number": 2,
            "time": 13.349999999999959,
            "value": 0.3858267716535433
          },
          {
            "number": 2,
            "time": 13.499999999999957,
            "value": 0.3858267716535433
          },
          {
            "number": 2,
            "time": 13.649999999999956,
            "value": 0.3858267716535433
          },
          {
            "number": 2,
            "time": 13.799999999999955,
            "value": 0.3858267716535433
          },
          {
            "number": 2,
            "time": 13.949999999999953,
            "value": 0.3858267716535433
          },
          {
            "number": 2,
            "time": 14.099999999999952,
            "value": 0.3858267716535433
          },
          {
            "number": 2,
            "time": 14.24999999999995,
            "value": 0.3858267716535433
          },
          {
            "number": 2,
            "time": 14.399999999999949,
            "value": 0.3858267716535433
          },
          {
            "number": 2,
            "time": 14.549999999999947,
            "value": 0.3858267716535433
          },
          {
            "number": 2,
            "time": 14.699999999999946,
            "value": 0.3858267716535433
          },
          {
            "number": 2,
            "time": 14.849999999999945,
            "value": 0.3858267716535433
          },
          {
            "number": 2,
            "time": 14.999999999999943,
            "value": 0.3858267716535433
          },
          {
            "number": 2,
            "time": 15.149999999999942,
            "value": 0.3858267716535433
          },
          {
            "number": 2,
            "time": 15.29999999999994,
            "value": 0.3858267716535433
          },
          {
            "number": 2,
            "time": 15.449999999999939,
            "value": 0.3858267716535433
          },
          {
            "number": 2,
            "time": 15.599999999999937,
            "value": 0.3858267716535433
          },
          {
            "number": 2,
            "time": 15.749999999999936,
            "value": 0.3858267716535433
          },
          {
            "number": 2,
            "time": 15.899999999999935,
            "value": 0.3858267716535433
          },
          {
            "number": 2,
            "time": 16.049999999999933,
            "value": 0.3858267716535433
          },
          {
            "number": 2,
            "time": 16.199999999999932,
            "value": 0.3858267716535433
          },
          {
            "number": 2,
            "time": 16.34999999999993,
            "value": 0.3858267716535433
          },
          {
            "number": 2,
            "time": 16.49999999999993,
            "value": 0.3858267716535433
          },
          {
            "number": 2,
            "time": 16.649999999999928,
            "value": 0.3858267716535433
          },
          {
            "number": 2,
            "time": 16.799999999999926,
            "value": 0.3858267716535433
          },
          {
            "number": 2,
            "time": 16.949999999999925,
            "value": 0.3858267716535433
          },
          {
            "number": 2,
            "time": 17.099999999999923,
            "value": 0.3858267716535433
          },
          {
            "number": 2,
            "time": 17.249999999999922,
            "value": 0.3858267716535433
          },
          {
            "number": 2,
            "time": 17.39999999999992,
            "value": 0.3858267716535433
          },
          {
            "number": 2,
            "time": 17.54999999999992,
            "value": 0.3858267716535433
          },
          {
            "number": 2,
            "time": 17.699999999999918,
            "value": 0.3858267716535433
          },
          {
            "number": 2,
            "time": 17.849999999999916,
            "value": 0.3858267716535433
          },
          {
            "number": 2,
            "time": 17.999999999999915,
            "value": 0.3858267716535433
          },
          {
            "number": 2,
            "time": 18.149999999999913,
            "value": 0.3858267716535433
          },
          {
            "number": 2,
            "time": 18.299999999999912,
            "value": 0.3858267716535433
          },
          {
            "number": 2,
            "time": 18.44999999999991,
            "value": 0.3858267716535433
          },
          {
            "number": 2,
            "time": 18.59999999999991,
            "value": 0.3858267716535433
          },
          {
            "number": 2,
            "time": 18.749999999999908,
            "value": 0.3858267716535433
          },
          {
            "number": 2,
            "time": 18.899999999999906,
            "value": 0.3858267716535433
          },
          {
            "number": 2,
            "time": 19.049999999999905,
            "value": 0.3858267716535433
          },
          {
            "number": 2,
            "time": 19.199999999999903,
            "value": 0.3858267716535433
          },
          {
            "number": 2,
            "time": 19.349999999999902,
            "value": 0.3858267716535433
          },
          {
            "number": 2,
            "time": 19.4999999999999,
            "value": 0.3858267716535433
          },
          {
            "number": 2,
            "time": 19.6499999999999,
            "value": 0.3858267716535433
          },
          {
            "number": 2,
            "time": 19.799999999999898,
            "value": 0.3858267716535433
          },
          {
            "number": 2,
            "time": 19.949999999999896,
            "value": 0.3858267716535433
          },
          {
            "number": 2,
            "time": 20.099999999999895,
            "value": 0.3858267716535433
          },
          {
            "number": 2,
            "time": 20.249999999999893,
            "value": 0.3858267716535433
          },
          {
            "number": 2,
            "time": 20.399999999999892,
            "value": 0.3858267716535433
          },
          {
            "number": 2,
            "time": 20.54999999999989,
            "value": 0.3858267716535433
          },
          {
            "number": 2,
            "time": 20.69999999999989,
            "value": 0.3858267716535433
          },
          {
            "number": 2,
            "time": 20.849999999999888,
            "value": 0.3858267716535433
          },
          {
            "number": 2,
            "time": 20.999999999999886,
            "value": 0.3858267716535433
          },
          {
            "number": 2,
            "time": 21.149999999999885,
            "value": 0.3858267716535433
          },
          {
            "number": 2,
            "time": 21.59999999999988,
            "value": 0.3858267716535433
          },
          {
            "number": 2,
            "time": 21.74999999999988,
            "value": 0.3858267716535433
          },
          {
            "number": 2,
            "time": 21.899999999999878,
            "value": 0.3858267716535433
          },
          {
            "number": 2,
            "time": 22.049999999999876,
            "value": 0.3858267716535433
          },
          {
            "number": 2,
            "time": 22.199999999999875,
            "value": 0.3858267716535433
          },
          {
            "number": 2,
            "time": 22.349999999999874,
            "value": 0.3858267716535433
          },
          {
            "number": 2,
            "time": 22.499999999999872,
            "value": 0.3858267716535433
          },
          {
            "number": 2,
            "time": 22.64999999999987,
            "value": 0.3858267716535433
          },
          {
            "number": 2,
            "time": 22.79999999999987,
            "value": 0.3858267716535433
          },
          {
            "number": 2,
            "time": 22.949999999999868,
            "value": 0.3858267716535433
          },
          {
            "number": 2,
            "time": 23.099999999999866,
            "value": 0.3858267716535433
          },
          {
            "number": 2,
            "time": 23.249999999999865,
            "value": 0.3858267716535433
          },
          {
            "number": 2,
            "time": 23.399999999999864,
            "value": 0.3858267716535433
          },
          {
            "number": 2,
            "time": 23.549999999999862,
            "value": 0.3858267716535433
          },
          {
            "number": 2,
            "time": 23.69999999999986,
            "value": 0.3858267716535433
          },
          {
            "number": 2,
            "time": 23.84999999999986,
            "value": 0.3858267716535433
          },
          {
            "number": 2,
            "time": 23.999999999999858,
            "value": 0.3858267716535433
          },
          {
            "number": 2,
            "time": 24.149999999999856,
            "value": 0.3858267716535433
          },
          {
            "number": 2,
            "time": 24.299999999999855,
            "value": 0.3858267716535433
          },
          {
            "number": 2,
            "time": 24.599999999999852,
            "value": 0.3858267716535433
          },
          {
            "number": 2,
            "time": 25.649999999999853,
            "value": 0.25984251968503935
          },
          {
            "number": 2,
            "time": 25.79999999999985,
            "value": 0.25984251968503935
          },
          {
            "number": 2,
            "time": 25.94999999999985,
            "value": 0.25984251968503935
          },
          {
            "number": 2,
            "time": 26.09999999999985,
            "value": 0.25984251968503935
          },
          {
            "number": 2,
            "time": 26.249999999999847,
            "value": 0.25984251968503935
          },
          {
            "number": 2,
            "time": 26.549999999999844,
            "value": 0.25984251968503935
          },
          {
            "number": 2,
            "time": 26.699999999999843,
            "value": 0.25984251968503935
          },
          {
            "number": 2,
            "time": 26.84999999999984,
            "value": 0.25984251968503935
          },
          {
            "number": 2,
            "time": 26.99999999999984,
            "value": 0.25984251968503935
          },
          {
            "number": 2,
            "time": 27.14999999999984,
            "value": 0.25984251968503935
          },
          {
            "number": 2,
            "time": 27.299999999999837,
            "value": 0.25984251968503935
          },
          {
            "number": 2,
            "time": 27.449999999999836,
            "value": 0.25984251968503935
          },
          {
            "number": 2,
            "time": 27.599999999999834,
            "value": 0.25984251968503935
          },
          {
            "number": 2,
            "time": 27.749999999999833,
            "value": 0.25984251968503935
          },
          {
            "number": 2,
            "time": 27.89999999999983,
            "value": 0.25984251968503935
          },
          {
            "number": 2,
            "time": 28.04999999999983,
            "value": 0.25984251968503935
          },
          {
            "number": 2,
            "time": 28.349999999999827,
            "value": 0.25984251968503935
          },
          {
            "number": 2,
            "time": 28.499999999999826,
            "value": 0.25984251968503935
          },
          {
            "number": 2,
            "time": 28.649999999999824,
            "value": 0.25984251968503935
          },
          {
            "number": 2,
            "time": 28.799999999999823,
            "value": 0.25984251968503935
          },
          {
            "number": 2,
            "time": 28.94999999999982,
            "value": 0.25984251968503935
          },
          {
            "number": 2,
            "time": 29.09999999999982,
            "value": 0.25984251968503935
          },
          {
            "number": 2,
            "time": 29.24999999999982,
            "value": 0.25984251968503935
          },
          {
            "number": 2,
            "time": 29.399999999999817,
            "value": 0.25984251968503935
          },
          {
            "number": 2,
            "time": 29.549999999999816,
            "value": 0.25984251968503935
          },
          {
            "number": 2,
            "time": 29.699999999999815,
            "value": 0.25984251968503935
          },
          {
            "number": 2,
            "time": 29.849999999999813,
            "value": 0.25984251968503935
          },
          {
            "number": 2,
            "time": 30.14999999999981,
            "value": 0.25984251968503935
          },
          {
            "number": 2,
            "time": 30.29999999999981,
            "value": 0.25984251968503935
          },
          {
            "number": 2,
            "time": 30.449999999999807,
            "value": 0.25984251968503935
          },
          {
            "number": 2,
            "time": 30.599999999999806,
            "value": 0.25984251968503935
          },
          {
            "number": 2,
            "time": 30.749999999999805,
            "value": 0.25984251968503935
          },
          {
            "number": 2,
            "time": 30.899999999999803,
            "value": 0.25984251968503935
          },
          {
            "number": 2,
            "time": 31.0499999999998,
            "value": 0.25984251968503935
          },
          {
            "number": 2,
            "time": 31.1999999999998,
            "value": 0.25984251968503935
          },
          {
            "number": 2,
            "time": 31.3499999999998,
            "value": 0.25984251968503935
          },
          {
            "number": 2,
            "time": 31.499999999999797,
            "value": 0.25984251968503935
          },
          {
            "number": 2,
            "time": 31.649999999999796,
            "value": 0.25984251968503935
          },
          {
            "number": 2,
            "time": 31.799999999999795,
            "value": 0.25984251968503935
          },
          {
            "number": 2,
            "time": 31.949999999999793,
            "value": 0.25984251968503935
          },
          {
            "number": 2,
            "time": 32.099999999999795,
            "value": 0.25984251968503935
          },
          {
            "number": 2,
            "time": 32.2499999999998,
            "value": 0.25984251968503935
          },
          {
            "number": 2,
            "time": 32.39999999999981,
            "value": 0.25984251968503935
          },
          {
            "number": 2,
            "time": 32.47499999999981,
            "value": 0.25984251968503935
          },
          {
            "number": 2,
            "time": 32.54999999999981,
            "value": 0.25984251968503935
          },
          {
            "number": 2,
            "time": 32.624999999999815,
            "value": 0.25984251968503935
          },
          {
            "number": 2,
            "time": 32.69999999999982,
            "value": 0.25984251968503935
          },
          {
            "number": 2,
            "time": 32.77499999999982,
            "value": 0.25984251968503935
          },
          {
            "number": 2,
            "time": 32.849999999999824,
            "value": 0.25984251968503935
          },
          {
            "number": 2,
            "time": 32.99999999999983,
            "value": 0.25984251968503935
          },
          {
            "number": 2,
            "time": 33.149999999999835,
            "value": 0.25984251968503935
          },
          {
            "number": 2,
            "time": 33.29999999999984,
            "value": 0.25984251968503935
          },
          {
            "number": 2,
            "time": 33.44999999999985,
            "value": 0.25984251968503935
          },
          {
            "number": 2,
            "time": 33.59999999999985,
            "value": 0.25984251968503935
          },
          {
            "number": 2,
            "time": 33.74999999999986,
            "value": 0.25984251968503935
          },
          {
            "number": 2,
            "time": 33.899999999999864,
            "value": 0.25984251968503935
          },
          {
            "number": 2,
            "time": 34.04999999999987,
            "value": 0.25984251968503935
          },
          {
            "number": 2,
            "time": 34.199999999999875,
            "value": 0.25984251968503935
          },
          {
            "number": 2,
            "time": 34.34999999999988,
            "value": 0.25984251968503935
          },
          {
            "number": 2,
            "time": 34.499999999999886,
            "value": 0.25984251968503935
          },
          {
            "number": 2,
            "time": 34.64999999999989,
            "value": 0.25984251968503935
          },
          {
            "number": 2,
            "time": 34.7999999999999,
            "value": 0.25984251968503935
          },
          {
            "number": 2,
            "time": 34.9499999999999,
            "value": 0.25984251968503935
          },
          {
            "number": 2,
            "time": 35.09999999999991,
            "value": 0.25984251968503935
          },
          {
            "number": 2,
            "time": 35.249999999999915,
            "value": 0.25984251968503935
          },
          {
            "number": 2,
            "time": 35.39999999999992,
            "value": 0.25984251968503935
          },
          {
            "number": 2,
            "time": 35.549999999999926,
            "value": 0.25984251968503935
          },
          {
            "number": 2,
            "time": 35.69999999999993,
            "value": 0.25984251968503935
          },
          {
            "number": 2,
            "time": 35.84999999999994,
            "value": 0.25984251968503935
          },
          {
            "number": 2,
            "time": 35.99999999999994,
            "value": 0.25984251968503935
          },
          {
            "number": 2,
            "time": 36.14999999999995,
            "value": 0.25984251968503935
          },
          {
            "number": 2,
            "time": 36.299999999999955,
            "value": 0.25984251968503935
          },
          {
            "number": 2,
            "time": 36.44999999999996,
            "value": 0.25984251968503935
          },
          {
            "number": 2,
            "time": 36.599999999999966,
            "value": 0.25984251968503935
          },
          {
            "number": 2,
            "time": 36.74999999999997,
            "value": 0.25984251968503935
          },
          {
            "number": 2,
            "time": 36.89999999999998,
            "value": 0.25984251968503935
          },
          {
            "number": 2,
            "time": 37.04999999999998,
            "value": 0.25984251968503935
          },
          {
            "number": 2,
            "time": 37.19999999999999,
            "value": 0.25984251968503935
          },
          {
            "number": 2,
            "time": 37.349999999999994,
            "value": 0.25984251968503935
          },
          {
            "number": 2,
            "time": 37.5,
            "value": 0.25984251968503935
          },
          {
            "number": 2,
            "time": 37.650000000000006,
            "value": 0.25984251968503935
          },
          {
            "number": 2,
            "time": 37.80000000000001,
            "value": 0.25984251968503935
          },
          {
            "number": 2,
            "time": 37.95000000000002,
            "value": 0.25984251968503935
          },
          {
            "number": 2,
            "time": 38.10000000000002,
            "value": 0.25984251968503935
          },
          {
            "number": 2,
            "time": 38.25000000000003,
            "value": 0.25984251968503935
          },
          {
            "number": 2,
            "time": 38.400000000000034,
            "value": 0.25984251968503935
          },
          {
            "number": 2,
            "time": 38.55000000000004,
            "value": 0.25984251968503935
          },
          {
            "number": 2,
            "time": 38.700000000000045,
            "value": 0.25984251968503935
          },
          {
            "number": 2,
            "time": 38.85000000000005,
            "value": 0.25984251968503935
          },
          {
            "number": 2,
            "time": 39.00000000000006,
            "value": 0.25984251968503935
          },
          {
            "number": 2,
            "time": 39.15000000000006,
            "value": 0.25984251968503935
          },
          {
            "number": 2,
            "time": 39.30000000000007,
            "value": 0.25984251968503935
          },
          {
            "number": 2,
            "time": 39.450000000000074,
            "value": 0.25984251968503935
          },
          {
            "number": 2,
            "time": 39.60000000000008,
            "value": 0.25984251968503935
          },
          {
            "number": 2,
            "time": 39.67500000000008,
            "value": 0.25984251968503935
          },
          {
            "number": 2,
            "time": 39.750000000000085,
            "value": 0.25984251968503935
          },
          {
            "number": 2,
            "time": 39.82500000000009,
            "value": 0.25984251968503935
          },
          {
            "number": 2,
            "time": 39.90000000000009,
            "value": 0.25984251968503935
          },
          {
            "number": 2,
            "time": 39.975000000000094,
            "value": 0.25984251968503935
          },
          {
            "number": 2,
            "time": 40.0500000000001,
            "value": 0.25984251968503935
          },
          {
            "number": 2,
            "time": 40.2000000000001,
            "value": 0.25984251968503935
          },
          {
            "number": 2,
            "time": 40.35000000000011,
            "value": 0.25984251968503935
          },
          {
            "number": 2,
            "time": 40.500000000000114,
            "value": 0.25984251968503935
          },
          {
            "number": 2,
            "time": 40.65000000000012,
            "value": 0.25984251968503935
          },
          {
            "number": 2,
            "time": 40.800000000000125,
            "value": 0.25984251968503935
          },
          {
            "number": 2,
            "time": 40.95000000000013,
            "value": 0.25984251968503935
          },
          {
            "number": 2,
            "time": 41.100000000000136,
            "value": 0.25984251968503935
          },
          {
            "number": 2,
            "time": 41.25000000000014,
            "value": 0.25984251968503935
          },
          {
            "number": 2,
            "time": 41.40000000000015,
            "value": 0.25984251968503935
          },
          {
            "number": 2,
            "time": 41.55000000000015,
            "value": 0.25984251968503935
          },
          {
            "number": 2,
            "time": 41.70000000000016,
            "value": 0.25984251968503935
          },
          {
            "number": 2,
            "time": 41.850000000000165,
            "value": 0.25984251968503935
          },
          {
            "number": 2,
            "time": 42.00000000000017,
            "value": 0.25984251968503935
          },
          {
            "number": 2,
            "time": 42.150000000000176,
            "value": 0.25984251968503935
          },
          {
            "number": 2,
            "time": 42.30000000000018,
            "value": 0.25984251968503935
          },
          {
            "number": 2,
            "time": 42.45000000000019,
            "value": 0.25984251968503935
          },
          {
            "number": 2,
            "time": 42.60000000000019,
            "value": 0.25984251968503935
          },
          {
            "number": 2,
            "time": 42.7500000000002,
            "value": 0.25984251968503935
          },
          {
            "number": 2,
            "time": 42.900000000000205,
            "value": 0.25984251968503935
          },
          {
            "number": 2,
            "time": 43.05000000000021,
            "value": 0.25984251968503935
          },
          {
            "number": 2,
            "time": 43.200000000000216,
            "value": 0.25984251968503935
          },
          {
            "number": 2,
            "time": 43.35000000000022,
            "value": 0.25984251968503935
          },
          {
            "number": 2,
            "time": 43.50000000000023,
            "value": 0.25984251968503935
          },
          {
            "number": 2,
            "time": 43.65000000000023,
            "value": 0.25984251968503935
          },
          {
            "number": 2,
            "time": 43.80000000000024,
            "value": 0.25984251968503935
          },
          {
            "number": 2,
            "time": 43.950000000000244,
            "value": 0.25984251968503935
          },
          {
            "number": 2,
            "time": 44.10000000000025,
            "value": 0.25984251968503935
          },
          {
            "number": 2,
            "time": 44.250000000000256,
            "value": 0.25984251968503935
          },
          {
            "number": 2,
            "time": 44.40000000000026,
            "value": 0.25984251968503935
          },
          {
            "number": 2,
            "time": 44.55000000000027,
            "value": 0.25984251968503935
          },
          {
            "number": 2,
            "time": 44.70000000000027,
            "value": 0.25984251968503935
          },
          {
            "number": 2,
            "time": 44.85000000000028,
            "value": 0.25984251968503935
          },
          {
            "number": 2,
            "time": 45.000000000000284,
            "value": 0.25984251968503935
          },
          {
            "number": 2,
            "time": 45.15000000000029,
            "value": 0.25984251968503935
          },
          {
            "number": 2,
            "time": 45.300000000000296,
            "value": 0.25984251968503935
          },
          {
            "number": 2,
            "time": 45.4500000000003,
            "value": 0.25984251968503935
          },
          {
            "number": 2,
            "time": 45.60000000000031,
            "value": 0.25984251968503935
          },
          {
            "number": 2,
            "time": 45.75000000000031,
            "value": 0.25984251968503935
          },
          {
            "number": 2,
            "time": 45.90000000000032,
            "value": 0.25984251968503935
          },
          {
            "number": 2,
            "time": 46.050000000000324,
            "value": 0.25984251968503935
          },
          {
            "number": 2,
            "time": 46.20000000000033,
            "value": 0.25984251968503935
          },
          {
            "number": 2,
            "time": 46.350000000000335,
            "value": 0.25984251968503935
          },
          {
            "number": 2,
            "time": 46.50000000000034,
            "value": 0.25984251968503935
          },
          {
            "number": 2,
            "time": 46.65000000000035,
            "value": 0.25984251968503935
          },
          {
            "number": 2,
            "time": 46.80000000000035,
            "value": 0.25984251968503935
          },
          {
            "number": 2,
            "time": 46.875000000000355,
            "value": 0.25984251968503935
          },
          {
            "number": 2,
            "time": 46.95000000000036,
            "value": 0.25984251968503935
          },
          {
            "number": 2,
            "time": 47.02500000000036,
            "value": 0.25984251968503935
          },
          {
            "number": 2,
            "time": 47.100000000000364,
            "value": 0.25984251968503935
          },
          {
            "number": 2,
            "time": 47.17500000000037,
            "value": 0.25984251968503935
          },
          {
            "number": 2,
            "time": 47.25000000000037,
            "value": 0.25984251968503935
          },
          {
            "number": 2,
            "time": 48.15000000000037,
            "value": 0.25984251968503935
          },
          {
            "number": 2,
            "time": 48.60000000000037,
            "value": 0.25984251968503935
          },
          {
            "number": 2,
            "time": 49.050000000000374,
            "value": 0.25984251968503935
          },
          {
            "number": 2,
            "time": 49.95000000000037,
            "value": 0.25984251968503935
          },
          {
            "number": 2,
            "time": 50.85000000000037,
            "value": 0.25984251968503935
          },
          {
            "number": 2,
            "time": 51.75000000000037,
            "value": 0.3858267716535433
          },
          {
            "number": 2,
            "time": 51.75062500000037,
            "value": 0.3858267716535433
          },
          {
            "number": 2,
            "time": 51.75125000000037,
            "value": 0.3858267716535433
          },
          {
            "number": 2,
            "time": 51.75187500000037,
            "value": 0.3858267716535433
          },
          {
            "number": 2,
            "time": 51.75250000000037,
            "value": 0.3779527559055118
          },
          {
            "number": 2,
            "time": 51.75312500000037,
            "value": 0.3779527559055118
          },
          {
            "number": 2,
            "time": 51.753750000000366,
            "value": 0.3779527559055118
          },
          {
            "number": 2,
            "time": 51.754375000000366,
            "value": 0.3779527559055118
          },
          {
            "number": 2,
            "time": 51.755000000000365,
            "value": 0.3779527559055118
          },
          {
            "number": 2,
            "time": 51.755625000000364,
            "value": 0.3779527559055118
          },
          {
            "number": 2,
            "time": 51.756250000000364,
            "value": 0.3779527559055118
          },
          {
            "number": 2,
            "time": 51.75687500000036,
            "value": 0.3700787401574803
          },
          {
            "number": 2,
            "time": 51.75750000000036,
            "value": 0.3700787401574803
          },
          {
            "number": 2,
            "time": 51.75812500000036,
            "value": 0.3700787401574803
          },
          {
            "number": 2,
            "time": 51.75875000000036,
            "value": 0.3700787401574803
          },
          {
            "number": 2,
            "time": 51.75937500000036,
            "value": 0.3700787401574803
          },
          {
            "number": 2,
            "time": 51.76000000000036,
            "value": 0.3700787401574803
          },
          {
            "number": 2,
            "time": 51.76062500000036,
            "value": 0.3700787401574803
          },
          {
            "number": 2,
            "time": 51.76125000000036,
            "value": 0.3700787401574803
          },
          {
            "number": 2,
            "time": 51.76187500000036,
            "value": 0.36220472440944884
          },
          {
            "number": 2,
            "time": 51.76250000000036,
            "value": 0.36220472440944884
          },
          {
            "number": 2,
            "time": 51.76312500000036,
            "value": 0.36220472440944884
          },
          {
            "number": 2,
            "time": 51.76375000000036,
            "value": 0.36220472440944884
          },
          {
            "number": 2,
            "time": 51.764375000000356,
            "value": 0.36220472440944884
          },
          {
            "number": 2,
            "time": 51.765000000000356,
            "value": 0.36220472440944884
          },
          {
            "number": 2,
            "time": 51.765625000000355,
            "value": 0.36220472440944884
          },
          {
            "number": 2,
            "time": 51.766250000000355,
            "value": 0.3543307086614173
          },
          {
            "number": 2,
            "time": 51.766875000000354,
            "value": 0.3543307086614173
          },
          {
            "number": 2,
            "time": 51.767500000000354,
            "value": 0.3543307086614173
          },
          {
            "number": 2,
            "time": 51.76812500000035,
            "value": 0.3543307086614173
          },
          {
            "number": 2,
            "time": 51.76875000000035,
            "value": 0.3543307086614173
          },
          {
            "number": 2,
            "time": 51.76937500000035,
            "value": 0.3543307086614173
          },
          {
            "number": 2,
            "time": 51.77000000000035,
            "value": 0.3543307086614173
          },
          {
            "number": 2,
            "time": 51.77062500000035,
            "value": 0.3464566929133858
          },
          {
            "number": 2,
            "time": 51.77125000000035,
            "value": 0.3464566929133858
          },
          {
            "number": 2,
            "time": 51.77187500000035,
            "value": 0.3464566929133858
          },
          {
            "number": 2,
            "time": 51.77250000000035,
            "value": 0.3464566929133858
          },
          {
            "number": 2,
            "time": 51.77312500000035,
            "value": 0.3464566929133858
          },
          {
            "number": 2,
            "time": 51.77375000000035,
            "value": 0.3464566929133858
          },
          {
            "number": 2,
            "time": 51.77437500000035,
            "value": 0.3464566929133858
          },
          {
            "number": 2,
            "time": 51.77500000000035,
            "value": 0.3464566929133858
          },
          {
            "number": 2,
            "time": 51.775625000000346,
            "value": 0.33858267716535434
          },
          {
            "number": 2,
            "time": 51.776250000000346,
            "value": 0.33858267716535434
          },
          {
            "number": 2,
            "time": 51.776875000000345,
            "value": 0.33858267716535434
          },
          {
            "number": 2,
            "time": 51.777500000000344,
            "value": 0.33858267716535434
          },
          {
            "number": 2,
            "time": 51.778125000000344,
            "value": 0.33858267716535434
          },
          {
            "number": 2,
            "time": 51.77875000000034,
            "value": 0.33858267716535434
          },
          {
            "number": 2,
            "time": 51.77937500000034,
            "value": 0.33858267716535434
          },
          {
            "number": 2,
            "time": 51.78000000000034,
            "value": 0.33070866141732286
          },
          {
            "number": 2,
            "time": 51.78062500000034,
            "value": 0.33070866141732286
          },
          {
            "number": 2,
            "time": 51.78125000000034,
            "value": 0.33070866141732286
          },
          {
            "number": 2,
            "time": 51.78187500000034,
            "value": 0.33070866141732286
          },
          {
            "number": 2,
            "time": 51.78250000000034,
            "value": 0.33070866141732286
          },
          {
            "number": 2,
            "time": 51.78312500000034,
            "value": 0.33070866141732286
          },
          {
            "number": 2,
            "time": 51.78375000000034,
            "value": 0.33070866141732286
          },
          {
            "number": 2,
            "time": 51.78437500000034,
            "value": 0.3228346456692913
          },
          {
            "number": 2,
            "time": 51.78500000000034,
            "value": 0.3228346456692913
          },
          {
            "number": 2,
            "time": 51.78562500000034,
            "value": 0.3228346456692913
          },
          {
            "number": 2,
            "time": 51.78625000000034,
            "value": 0.3228346456692913
          },
          {
            "number": 2,
            "time": 51.786875000000336,
            "value": 0.3228346456692913
          },
          {
            "number": 2,
            "time": 51.787500000000335,
            "value": 0.3228346456692913
          },
          {
            "number": 2,
            "time": 51.788125000000335,
            "value": 0.3228346456692913
          },
          {
            "number": 2,
            "time": 51.788750000000334,
            "value": 0.31496062992125984
          },
          {
            "number": 2,
            "time": 51.789375000000334,
            "value": 0.31496062992125984
          },
          {
            "number": 2,
            "time": 51.79000000000033,
            "value": 0.31496062992125984
          },
          {
            "number": 2,
            "time": 51.79062500000033,
            "value": 0.31496062992125984
          },
          {
            "number": 2,
            "time": 51.79125000000033,
            "value": 0.31496062992125984
          },
          {
            "number": 2,
            "time": 51.79187500000033,
            "value": 0.31496062992125984
          },
          {
            "number": 2,
            "time": 51.79250000000033,
            "value": 0.31496062992125984
          },
          {
            "number": 2,
            "time": 51.79312500000033,
            "value": 0.31496062992125984
          },
          {
            "number": 2,
            "time": 51.79375000000033,
            "value": 0.30708661417322836
          },
          {
            "number": 2,
            "time": 51.79437500000033,
            "value": 0.30708661417322836
          },
          {
            "number": 2,
            "time": 51.79500000000033,
            "value": 0.30708661417322836
          },
          {
            "number": 2,
            "time": 51.79562500000033,
            "value": 0.30708661417322836
          },
          {
            "number": 2,
            "time": 51.79625000000033,
            "value": 0.30708661417322836
          },
          {
            "number": 2,
            "time": 51.79687500000033,
            "value": 0.30708661417322836
          },
          {
            "number": 2,
            "time": 51.797500000000326,
            "value": 0.30708661417322836
          },
          {
            "number": 2,
            "time": 51.798125000000326,
            "value": 0.2992125984251969
          },
          {
            "number": 2,
            "time": 51.798750000000325,
            "value": 0.2992125984251969
          },
          {
            "number": 2,
            "time": 51.799375000000325,
            "value": 0.2992125984251969
          },
          {
            "number": 2,
            "time": 51.800000000000324,
            "value": 0.2992125984251969
          },
          {
            "number": 2,
            "time": 51.80062500000032,
            "value": 0.2992125984251969
          },
          {
            "number": 2,
            "time": 51.80125000000032,
            "value": 0.2992125984251969
          },
          {
            "number": 2,
            "time": 51.80187500000032,
            "value": 0.2992125984251969
          },
          {
            "number": 2,
            "time": 51.80250000000032,
            "value": 0.29133858267716534
          },
          {
            "number": 2,
            "time": 51.80312500000032,
            "value": 0.29133858267716534
          },
          {
            "number": 2,
            "time": 51.80375000000032,
            "value": 0.29133858267716534
          },
          {
            "number": 2,
            "time": 51.80437500000032,
            "value": 0.29133858267716534
          },
          {
            "number": 2,
            "time": 51.80500000000032,
            "value": 0.29133858267716534
          },
          {
            "number": 2,
            "time": 51.80562500000032,
            "value": 0.29133858267716534
          },
          {
            "number": 2,
            "time": 51.80625000000032,
            "value": 0.29133858267716534
          },
          {
            "number": 2,
            "time": 51.80687500000032,
            "value": 0.28346456692913385
          },
          {
            "number": 2,
            "time": 51.80750000000032,
            "value": 0.28346456692913385
          },
          {
            "number": 2,
            "time": 51.80812500000032,
            "value": 0.28346456692913385
          },
          {
            "number": 2,
            "time": 51.808750000000316,
            "value": 0.28346456692913385
          },
          {
            "number": 2,
            "time": 51.809375000000315,
            "value": 0.28346456692913385
          },
          {
            "number": 2,
            "time": 51.810000000000315,
            "value": 0.28346456692913385
          },
          {
            "number": 2,
            "time": 51.810625000000314,
            "value": 0.28346456692913385
          },
          {
            "number": 2,
            "time": 51.811250000000314,
            "value": 0.28346456692913385
          },
          {
            "number": 2,
            "time": 51.81187500000031,
            "value": 0.2755905511811024
          },
          {
            "number": 2,
            "time": 51.81250000000031,
            "value": 0.2755905511811024
          },
          {
            "number": 2,
            "time": 51.81312500000031,
            "value": 0.2755905511811024
          },
          {
            "number": 2,
            "time": 51.81375000000031,
            "value": 0.2755905511811024
          },
          {
            "number": 2,
            "time": 51.81437500000031,
            "value": 0.2755905511811024
          },
          {
            "number": 2,
            "time": 51.81500000000031,
            "value": 0.2755905511811024
          },
          {
            "number": 2,
            "time": 51.81562500000031,
            "value": 0.2755905511811024
          },
          {
            "number": 2,
            "time": 51.81625000000031,
            "value": 0.2677165354330709
          },
          {
            "number": 2,
            "time": 51.81687500000031,
            "value": 0.2677165354330709
          },
          {
            "number": 2,
            "time": 51.81750000000031,
            "value": 0.2677165354330709
          },
          {
            "number": 2,
            "time": 51.81812500000031,
            "value": 0.2677165354330709
          },
          {
            "number": 2,
            "time": 51.81875000000031,
            "value": 0.2677165354330709
          },
          {
            "number": 2,
            "time": 51.819375000000306,
            "value": 0.2677165354330709
          },
          {
            "number": 2,
            "time": 51.820000000000306,
            "value": 0.2677165354330709
          },
          {
            "number": 2,
            "time": 51.820625000000305,
            "value": 0.25984251968503935
          },
          {
            "number": 2,
            "time": 51.821250000000305,
            "value": 0.25984251968503935
          },
          {
            "number": 2,
            "time": 51.821875000000304,
            "value": 0.25984251968503935
          },
          {
            "number": 2,
            "time": 51.8225000000003,
            "value": 0.25984251968503935
          },
          {
            "number": 2,
            "time": 51.8231250000003,
            "value": 0.25984251968503935
          },
          {
            "number": 2,
            "time": 51.8237500000003,
            "value": 0.25984251968503935
          },
          {
            "number": 2,
            "time": 51.8243750000003,
            "value": 0.25984251968503935
          },
          {
            "number": 2,
            "time": 52.2000000000003,
            "value": 0.3858267716535433
          },
          {
            "number": 2,
            "time": 52.2006250000003,
            "value": 0.3858267716535433
          },
          {
            "number": 2,
            "time": 52.2012500000003,
            "value": 0.3858267716535433
          },
          {
            "number": 2,
            "time": 52.2018750000003,
            "value": 0.3858267716535433
          },
          {
            "number": 2,
            "time": 52.2025000000003,
            "value": 0.3779527559055118
          },
          {
            "number": 2,
            "time": 52.2031250000003,
            "value": 0.3779527559055118
          },
          {
            "number": 2,
            "time": 52.2037500000003,
            "value": 0.3779527559055118
          },
          {
            "number": 2,
            "time": 52.2043750000003,
            "value": 0.3779527559055118
          },
          {
            "number": 2,
            "time": 52.2050000000003,
            "value": 0.3779527559055118
          },
          {
            "number": 2,
            "time": 52.205625000000296,
            "value": 0.3779527559055118
          },
          {
            "number": 2,
            "time": 52.206250000000296,
            "value": 0.3779527559055118
          },
          {
            "number": 2,
            "time": 52.206875000000295,
            "value": 0.3700787401574803
          },
          {
            "number": 2,
            "time": 52.207500000000294,
            "value": 0.3700787401574803
          },
          {
            "number": 2,
            "time": 52.208125000000294,
            "value": 0.3700787401574803
          },
          {
            "number": 2,
            "time": 52.20875000000029,
            "value": 0.3700787401574803
          },
          {
            "number": 2,
            "time": 52.20937500000029,
            "value": 0.3700787401574803
          },
          {
            "number": 2,
            "time": 52.21000000000029,
            "value": 0.3700787401574803
          },
          {
            "number": 2,
            "time": 52.21062500000029,
            "value": 0.3700787401574803
          },
          {
            "number": 2,
            "time": 52.21125000000029,
            "value": 0.3700787401574803
          },
          {
            "number": 2,
            "time": 52.21187500000029,
            "value": 0.36220472440944884
          },
          {
            "number": 2,
            "time": 52.21250000000029,
            "value": 0.36220472440944884
          },
          {
            "number": 2,
            "time": 52.21312500000029,
            "value": 0.36220472440944884
          },
          {
            "number": 2,
            "time": 52.21375000000029,
            "value": 0.36220472440944884
          },
          {
            "number": 2,
            "time": 52.21437500000029,
            "value": 0.36220472440944884
          },
          {
            "number": 2,
            "time": 52.21500000000029,
            "value": 0.36220472440944884
          },
          {
            "number": 2,
            "time": 52.21562500000029,
            "value": 0.36220472440944884
          },
          {
            "number": 2,
            "time": 52.21625000000029,
            "value": 0.3543307086614173
          },
          {
            "number": 2,
            "time": 52.216875000000286,
            "value": 0.3543307086614173
          },
          {
            "number": 2,
            "time": 52.217500000000285,
            "value": 0.3543307086614173
          },
          {
            "number": 2,
            "time": 52.218125000000285,
            "value": 0.3543307086614173
          },
          {
            "number": 2,
            "time": 52.218750000000284,
            "value": 0.3543307086614173
          },
          {
            "number": 2,
            "time": 52.219375000000284,
            "value": 0.3543307086614173
          },
          {
            "number": 2,
            "time": 52.22000000000028,
            "value": 0.3543307086614173
          },
          {
            "number": 2,
            "time": 52.22062500000028,
            "value": 0.3464566929133858
          },
          {
            "number": 2,
            "time": 52.22125000000028,
            "value": 0.3464566929133858
          },
          {
            "number": 2,
            "time": 52.22187500000028,
            "value": 0.3464566929133858
          },
          {
            "number": 2,
            "time": 52.22250000000028,
            "value": 0.3464566929133858
          },
          {
            "number": 2,
            "time": 52.22312500000028,
            "value": 0.3464566929133858
          },
          {
            "number": 2,
            "time": 52.22375000000028,
            "value": 0.3464566929133858
          },
          {
            "number": 2,
            "time": 52.22437500000028,
            "value": 0.3464566929133858
          },
          {
            "number": 2,
            "time": 52.22500000000028,
            "value": 0.3464566929133858
          },
          {
            "number": 2,
            "time": 52.22562500000028,
            "value": 0.33858267716535434
          },
          {
            "number": 2,
            "time": 52.22625000000028,
            "value": 0.33858267716535434
          },
          {
            "number": 2,
            "time": 52.22687500000028,
            "value": 0.33858267716535434
          },
          {
            "number": 2,
            "time": 52.227500000000276,
            "value": 0.33858267716535434
          },
          {
            "number": 2,
            "time": 52.228125000000276,
            "value": 0.33858267716535434
          },
          {
            "number": 2,
            "time": 52.228750000000275,
            "value": 0.33858267716535434
          },
          {
            "number": 2,
            "time": 52.229375000000275,
            "value": 0.33858267716535434
          },
          {
            "number": 2,
            "time": 52.230000000000274,
            "value": 0.33070866141732286
          },
          {
            "number": 2,
            "time": 52.23062500000027,
            "value": 0.33070866141732286
          },
          {
            "number": 2,
            "time": 52.23125000000027,
            "value": 0.33070866141732286
          },
          {
            "number": 2,
            "time": 52.23187500000027,
            "value": 0.33070866141732286
          },
          {
            "number": 2,
            "time": 52.23250000000027,
            "value": 0.33070866141732286
          },
          {
            "number": 2,
            "time": 52.23312500000027,
            "value": 0.33070866141732286
          },
          {
            "number": 2,
            "time": 52.23375000000027,
            "value": 0.33070866141732286
          },
          {
            "number": 2,
            "time": 52.23437500000027,
            "value": 0.3228346456692913
          },
          {
            "number": 2,
            "time": 52.23500000000027,
            "value": 0.3228346456692913
          },
          {
            "number": 2,
            "time": 52.23562500000027,
            "value": 0.3228346456692913
          },
          {
            "number": 2,
            "time": 52.23625000000027,
            "value": 0.3228346456692913
          },
          {
            "number": 2,
            "time": 52.23687500000027,
            "value": 0.3228346456692913
          },
          {
            "number": 2,
            "time": 52.23750000000027,
            "value": 0.3228346456692913
          },
          {
            "number": 2,
            "time": 52.23812500000027,
            "value": 0.3228346456692913
          },
          {
            "number": 2,
            "time": 52.238750000000266,
            "value": 0.31496062992125984
          },
          {
            "number": 2,
            "time": 52.239375000000265,
            "value": 0.31496062992125984
          },
          {
            "number": 2,
            "time": 52.240000000000265,
            "value": 0.31496062992125984
          },
          {
            "number": 2,
            "time": 52.240625000000264,
            "value": 0.31496062992125984
          },
          {
            "number": 2,
            "time": 52.241250000000264,
            "value": 0.31496062992125984
          },
          {
            "number": 2,
            "time": 52.24187500000026,
            "value": 0.31496062992125984
          },
          {
            "number": 2,
            "time": 52.24250000000026,
            "value": 0.31496062992125984
          },
          {
            "number": 2,
            "time": 52.24312500000026,
            "value": 0.31496062992125984
          },
          {
            "number": 2,
            "time": 52.24375000000026,
            "value": 0.30708661417322836
          },
          {
            "number": 2,
            "time": 52.24437500000026,
            "value": 0.30708661417322836
          },
          {
            "number": 2,
            "time": 52.24500000000026,
            "value": 0.30708661417322836
          },
          {
            "number": 2,
            "time": 52.24562500000026,
            "value": 0.30708661417322836
          },
          {
            "number": 2,
            "time": 52.24625000000026,
            "value": 0.30708661417322836
          },
          {
            "number": 2,
            "time": 52.24687500000026,
            "value": 0.30708661417322836
          },
          {
            "number": 2,
            "time": 52.24750000000026,
            "value": 0.30708661417322836
          },
          {
            "number": 2,
            "time": 52.24812500000026,
            "value": 0.2992125984251969
          },
          {
            "number": 2,
            "time": 52.24875000000026,
            "value": 0.2992125984251969
          },
          {
            "number": 2,
            "time": 52.249375000000256,
            "value": 0.2992125984251969
          },
          {
            "number": 2,
            "time": 52.250000000000256,
            "value": 0.2992125984251969
          },
          {
            "number": 2,
            "time": 52.250625000000255,
            "value": 0.2992125984251969
          },
          {
            "number": 2,
            "time": 52.251250000000255,
            "value": 0.2992125984251969
          },
          {
            "number": 2,
            "time": 52.251875000000254,
            "value": 0.2992125984251969
          },
          {
            "number": 2,
            "time": 52.25250000000025,
            "value": 0.29133858267716534
          },
          {
            "number": 2,
            "time": 52.25312500000025,
            "value": 0.29133858267716534
          },
          {
            "number": 2,
            "time": 52.25375000000025,
            "value": 0.29133858267716534
          },
          {
            "number": 2,
            "time": 52.25437500000025,
            "value": 0.29133858267716534
          },
          {
            "number": 2,
            "time": 52.25500000000025,
            "value": 0.29133858267716534
          },
          {
            "number": 2,
            "time": 52.25562500000025,
            "value": 0.29133858267716534
          },
          {
            "number": 2,
            "time": 52.25625000000025,
            "value": 0.29133858267716534
          },
          {
            "number": 2,
            "time": 52.25687500000025,
            "value": 0.28346456692913385
          },
          {
            "number": 2,
            "time": 52.25750000000025,
            "value": 0.28346456692913385
          },
          {
            "number": 2,
            "time": 52.25812500000025,
            "value": 0.28346456692913385
          },
          {
            "number": 2,
            "time": 52.25875000000025,
            "value": 0.28346456692913385
          },
          {
            "number": 2,
            "time": 52.25937500000025,
            "value": 0.28346456692913385
          },
          {
            "number": 2,
            "time": 52.26000000000025,
            "value": 0.28346456692913385
          },
          {
            "number": 2,
            "time": 52.260625000000246,
            "value": 0.28346456692913385
          },
          {
            "number": 2,
            "time": 52.261250000000246,
            "value": 0.28346456692913385
          },
          {
            "number": 2,
            "time": 52.261875000000245,
            "value": 0.2755905511811024
          },
          {
            "number": 2,
            "time": 52.262500000000244,
            "value": 0.2755905511811024
          },
          {
            "number": 2,
            "time": 52.263125000000244,
            "value": 0.2755905511811024
          },
          {
            "number": 2,
            "time": 52.26375000000024,
            "value": 0.2755905511811024
          },
          {
            "number": 2,
            "time": 52.26437500000024,
            "value": 0.2755905511811024
          },
          {
            "number": 2,
            "time": 52.26500000000024,
            "value": 0.2755905511811024
          },
          {
            "number": 2,
            "time": 52.26562500000024,
            "value": 0.2755905511811024
          },
          {
            "number": 2,
            "time": 52.26625000000024,
            "value": 0.2677165354330709
          },
          {
            "number": 2,
            "time": 52.26687500000024,
            "value": 0.2677165354330709
          },
          {
            "number": 2,
            "time": 52.26750000000024,
            "value": 0.2677165354330709
          },
          {
            "number": 2,
            "time": 52.26812500000024,
            "value": 0.2677165354330709
          },
          {
            "number": 2,
            "time": 52.26875000000024,
            "value": 0.2677165354330709
          },
          {
            "number": 2,
            "time": 52.26937500000024,
            "value": 0.2677165354330709
          },
          {
            "number": 2,
            "time": 52.27000000000024,
            "value": 0.2677165354330709
          },
          {
            "number": 2,
            "time": 52.27062500000024,
            "value": 0.25984251968503935
          },
          {
            "number": 2,
            "time": 52.27125000000024,
            "value": 0.25984251968503935
          },
          {
            "number": 2,
            "time": 52.271875000000236,
            "value": 0.25984251968503935
          },
          {
            "number": 2,
            "time": 52.272500000000235,
            "value": 0.25984251968503935
          },
          {
            "number": 2,
            "time": 52.273125000000235,
            "value": 0.25984251968503935
          },
          {
            "number": 2,
            "time": 52.273750000000234,
            "value": 0.25984251968503935
          },
          {
            "number": 2,
            "time": 52.274375000000234,
            "value": 0.25984251968503935
          },
          {
            "number": 2,
            "time": 52.65000000000023,
            "value": 0.3858267716535433
          },
          {
            "number": 2,
            "time": 52.65062500000023,
            "value": 0.3858267716535433
          },
          {
            "number": 2,
            "time": 52.65125000000023,
            "value": 0.3858267716535433
          },
          {
            "number": 2,
            "time": 52.65187500000023,
            "value": 0.3858267716535433
          },
          {
            "number": 2,
            "time": 52.65250000000023,
            "value": 0.3779527559055118
          },
          {
            "number": 2,
            "time": 52.65312500000023,
            "value": 0.3779527559055118
          },
          {
            "number": 2,
            "time": 52.65375000000023,
            "value": 0.3779527559055118
          },
          {
            "number": 2,
            "time": 52.65437500000023,
            "value": 0.3779527559055118
          },
          {
            "number": 2,
            "time": 52.65500000000023,
            "value": 0.3779527559055118
          },
          {
            "number": 2,
            "time": 52.65562500000023,
            "value": 0.3779527559055118
          },
          {
            "number": 2,
            "time": 52.65625000000023,
            "value": 0.3779527559055118
          },
          {
            "number": 2,
            "time": 52.65687500000023,
            "value": 0.3700787401574803
          },
          {
            "number": 2,
            "time": 52.657500000000226,
            "value": 0.3700787401574803
          },
          {
            "number": 2,
            "time": 52.658125000000226,
            "value": 0.3700787401574803
          },
          {
            "number": 2,
            "time": 52.658750000000225,
            "value": 0.3700787401574803
          },
          {
            "number": 2,
            "time": 52.659375000000225,
            "value": 0.3700787401574803
          },
          {
            "number": 2,
            "time": 52.660000000000224,
            "value": 0.3700787401574803
          },
          {
            "number": 2,
            "time": 52.66062500000022,
            "value": 0.3700787401574803
          },
          {
            "number": 2,
            "time": 52.66125000000022,
            "value": 0.3700787401574803
          },
          {
            "number": 2,
            "time": 52.66187500000022,
            "value": 0.36220472440944884
          },
          {
            "number": 2,
            "time": 52.66250000000022,
            "value": 0.36220472440944884
          },
          {
            "number": 2,
            "time": 52.66312500000022,
            "value": 0.36220472440944884
          },
          {
            "number": 2,
            "time": 52.66375000000022,
            "value": 0.36220472440944884
          },
          {
            "number": 2,
            "time": 52.66437500000022,
            "value": 0.36220472440944884
          },
          {
            "number": 2,
            "time": 52.66500000000022,
            "value": 0.36220472440944884
          },
          {
            "number": 2,
            "time": 52.66562500000022,
            "value": 0.36220472440944884
          },
          {
            "number": 2,
            "time": 52.66625000000022,
            "value": 0.3543307086614173
          },
          {
            "number": 2,
            "time": 52.66687500000022,
            "value": 0.3543307086614173
          },
          {
            "number": 2,
            "time": 52.66750000000022,
            "value": 0.3543307086614173
          },
          {
            "number": 2,
            "time": 52.66812500000022,
            "value": 0.3543307086614173
          },
          {
            "number": 2,
            "time": 52.668750000000216,
            "value": 0.3543307086614173
          },
          {
            "number": 2,
            "time": 52.669375000000215,
            "value": 0.3543307086614173
          },
          {
            "number": 2,
            "time": 52.670000000000215,
            "value": 0.3543307086614173
          },
          {
            "number": 2,
            "time": 52.670625000000214,
            "value": 0.3464566929133858
          },
          {
            "number": 2,
            "time": 52.671250000000214,
            "value": 0.3464566929133858
          },
          {
            "number": 2,
            "time": 52.67187500000021,
            "value": 0.3464566929133858
          },
          {
            "number": 2,
            "time": 52.67250000000021,
            "value": 0.3464566929133858
          },
          {
            "number": 2,
            "time": 52.67312500000021,
            "value": 0.3464566929133858
          },
          {
            "number": 2,
            "time": 52.67375000000021,
            "value": 0.3464566929133858
          },
          {
            "number": 2,
            "time": 52.67437500000021,
            "value": 0.3464566929133858
          },
          {
            "number": 2,
            "time": 52.67500000000021,
            "value": 0.3464566929133858
          },
          {
            "number": 2,
            "time": 52.67562500000021,
            "value": 0.33858267716535434
          },
          {
            "number": 2,
            "time": 52.67625000000021,
            "value": 0.33858267716535434
          },
          {
            "number": 2,
            "time": 52.67687500000021,
            "value": 0.33858267716535434
          },
          {
            "number": 2,
            "time": 52.67750000000021,
            "value": 0.33858267716535434
          },
          {
            "number": 2,
            "time": 52.67812500000021,
            "value": 0.33858267716535434
          },
          {
            "number": 2,
            "time": 52.67875000000021,
            "value": 0.33858267716535434
          },
          {
            "number": 2,
            "time": 52.679375000000206,
            "value": 0.33858267716535434
          },
          {
            "number": 2,
            "time": 52.680000000000206,
            "value": 0.33070866141732286
          },
          {
            "number": 2,
            "time": 52.680625000000205,
            "value": 0.33070866141732286
          },
          {
            "number": 2,
            "time": 52.681250000000205,
            "value": 0.33070866141732286
          },
          {
            "number": 2,
            "time": 52.681875000000204,
            "value": 0.33070866141732286
          },
          {
            "number": 2,
            "time": 52.6825000000002,
            "value": 0.33070866141732286
          },
          {
            "number": 2,
            "time": 52.6831250000002,
            "value": 0.33070866141732286
          },
          {
            "number": 2,
            "time": 52.6837500000002,
            "value": 0.33070866141732286
          },
          {
            "number": 2,
            "time": 52.6843750000002,
            "value": 0.3228346456692913
          },
          {
            "number": 2,
            "time": 52.6850000000002,
            "value": 0.3228346456692913
          },
          {
            "number": 2,
            "time": 52.6856250000002,
            "value": 0.3228346456692913
          },
          {
            "number": 2,
            "time": 52.6862500000002,
            "value": 0.3228346456692913
          },
          {
            "number": 2,
            "time": 52.6868750000002,
            "value": 0.3228346456692913
          },
          {
            "number": 2,
            "time": 52.6875000000002,
            "value": 0.3228346456692913
          },
          {
            "number": 2,
            "time": 52.6881250000002,
            "value": 0.3228346456692913
          },
          {
            "number": 2,
            "time": 52.6887500000002,
            "value": 0.31496062992125984
          },
          {
            "number": 2,
            "time": 52.6893750000002,
            "value": 0.31496062992125984
          },
          {
            "number": 2,
            "time": 52.6900000000002,
            "value": 0.31496062992125984
          },
          {
            "number": 2,
            "time": 52.690625000000196,
            "value": 0.31496062992125984
          },
          {
            "number": 2,
            "time": 52.691250000000196,
            "value": 0.31496062992125984
          },
          {
            "number": 2,
            "time": 52.691875000000195,
            "value": 0.31496062992125984
          },
          {
            "number": 2,
            "time": 52.692500000000194,
            "value": 0.31496062992125984
          },
          {
            "number": 2,
            "time": 52.693125000000194,
            "value": 0.31496062992125984
          },
          {
            "number": 2,
            "time": 52.69375000000019,
            "value": 0.30708661417322836
          },
          {
            "number": 2,
            "time": 52.69437500000019,
            "value": 0.30708661417322836
          },
          {
            "number": 2,
            "time": 52.69500000000019,
            "value": 0.30708661417322836
          },
          {
            "number": 2,
            "time": 52.69562500000019,
            "value": 0.30708661417322836
          },
          {
            "number": 2,
            "time": 52.69625000000019,
            "value": 0.30708661417322836
          },
          {
            "number": 2,
            "time": 52.69687500000019,
            "value": 0.30708661417322836
          },
          {
            "number": 2,
            "time": 52.69750000000019,
            "value": 0.30708661417322836
          },
          {
            "number": 2,
            "time": 52.69812500000019,
            "value": 0.2992125984251969
          },
          {
            "number": 2,
            "time": 52.69875000000019,
            "value": 0.2992125984251969
          },
          {
            "number": 2,
            "time": 52.69937500000019,
            "value": 0.2992125984251969
          },
          {
            "number": 2,
            "time": 52.70000000000019,
            "value": 0.2992125984251969
          },
          {
            "number": 2,
            "time": 52.70062500000019,
            "value": 0.2992125984251969
          },
          {
            "number": 2,
            "time": 52.701250000000186,
            "value": 0.2992125984251969
          },
          {
            "number": 2,
            "time": 52.701875000000186,
            "value": 0.2992125984251969
          },
          {
            "number": 2,
            "time": 52.702500000000185,
            "value": 0.29133858267716534
          },
          {
            "number": 2,
            "time": 52.703125000000185,
            "value": 0.29133858267716534
          },
          {
            "number": 2,
            "time": 52.703750000000184,
            "value": 0.29133858267716534
          },
          {
            "number": 2,
            "time": 52.704375000000184,
            "value": 0.29133858267716534
          },
          {
            "number": 2,
            "time": 52.70500000000018,
            "value": 0.29133858267716534
          },
          {
            "number": 2,
            "time": 52.70562500000018,
            "value": 0.29133858267716534
          },
          {
            "number": 2,
            "time": 52.70625000000018,
            "value": 0.29133858267716534
          },
          {
            "number": 2,
            "time": 52.70687500000018,
            "value": 0.28346456692913385
          },
          {
            "number": 2,
            "time": 52.70750000000018,
            "value": 0.28346456692913385
          },
          {
            "number": 2,
            "time": 52.70812500000018,
            "value": 0.28346456692913385
          },
          {
            "number": 2,
            "time": 52.70875000000018,
            "value": 0.28346456692913385
          },
          {
            "number": 2,
            "time": 52.70937500000018,
            "value": 0.28346456692913385
          },
          {
            "number": 2,
            "time": 52.71000000000018,
            "value": 0.28346456692913385
          },
          {
            "number": 2,
            "time": 52.71062500000018,
            "value": 0.28346456692913385
          },
          {
            "number": 2,
            "time": 52.71125000000018,
            "value": 0.28346456692913385
          },
          {
            "number": 2,
            "time": 52.71187500000018,
            "value": 0.2755905511811024
          },
          {
            "number": 2,
            "time": 52.712500000000176,
            "value": 0.2755905511811024
          },
          {
            "number": 2,
            "time": 52.713125000000176,
            "value": 0.2755905511811024
          },
          {
            "number": 2,
            "time": 52.713750000000175,
            "value": 0.2755905511811024
          },
          {
            "number": 2,
            "time": 52.714375000000175,
            "value": 0.2755905511811024
          },
          {
            "number": 2,
            "time": 52.715000000000174,
            "value": 0.2755905511811024
          },
          {
            "number": 2,
            "time": 52.71562500000017,
            "value": 0.2755905511811024
          },
          {
            "number": 2,
            "time": 52.71625000000017,
            "value": 0.2677165354330709
          },
          {
            "number": 2,
            "time": 52.71687500000017,
            "value": 0.2677165354330709
          },
          {
            "number": 2,
            "time": 52.71750000000017,
            "value": 0.2677165354330709
          },
          {
            "number": 2,
            "time": 52.71812500000017,
            "value": 0.2677165354330709
          },
          {
            "number": 2,
            "time": 52.71875000000017,
            "value": 0.2677165354330709
          },
          {
            "number": 2,
            "time": 52.71937500000017,
            "value": 0.2677165354330709
          },
          {
            "number": 2,
            "time": 52.72000000000017,
            "value": 0.2677165354330709
          },
          {
            "number": 2,
            "time": 52.72062500000017,
            "value": 0.25984251968503935
          },
          {
            "number": 2,
            "time": 52.72125000000017,
            "value": 0.25984251968503935
          },
          {
            "number": 2,
            "time": 52.72187500000017,
            "value": 0.25984251968503935
          },
          {
            "number": 2,
            "time": 52.72250000000017,
            "value": 0.25984251968503935
          },
          {
            "number": 2,
            "time": 52.72312500000017,
            "value": 0.25984251968503935
          },
          {
            "number": 2,
            "time": 52.723750000000166,
            "value": 0.25984251968503935
          },
          {
            "number": 2,
            "time": 52.724375000000165,
            "value": 0.25984251968503935
          },
          {
            "number": 2,
            "time": 53.100000000000165,
            "value": 0.3858267716535433
          },
          {
            "number": 2,
            "time": 53.100625000000164,
            "value": 0.3858267716535433
          },
          {
            "number": 2,
            "time": 53.101250000000164,
            "value": 0.3858267716535433
          },
          {
            "number": 2,
            "time": 53.10187500000016,
            "value": 0.3858267716535433
          },
          {
            "number": 2,
            "time": 53.10250000000016,
            "value": 0.3779527559055118
          },
          {
            "number": 2,
            "time": 53.10312500000016,
            "value": 0.3779527559055118
          },
          {
            "number": 2,
            "time": 53.10375000000016,
            "value": 0.3779527559055118
          },
          {
            "number": 2,
            "time": 53.10437500000016,
            "value": 0.3779527559055118
          },
          {
            "number": 2,
            "time": 53.10500000000016,
            "value": 0.3779527559055118
          },
          {
            "number": 2,
            "time": 53.10562500000016,
            "value": 0.3779527559055118
          },
          {
            "number": 2,
            "time": 53.10625000000016,
            "value": 0.3779527559055118
          },
          {
            "number": 2,
            "time": 53.10687500000016,
            "value": 0.3700787401574803
          },
          {
            "number": 2,
            "time": 53.10750000000016,
            "value": 0.3700787401574803
          },
          {
            "number": 2,
            "time": 53.10812500000016,
            "value": 0.3700787401574803
          },
          {
            "number": 2,
            "time": 53.10875000000016,
            "value": 0.3700787401574803
          },
          {
            "number": 2,
            "time": 53.109375000000156,
            "value": 0.3700787401574803
          },
          {
            "number": 2,
            "time": 53.110000000000156,
            "value": 0.3700787401574803
          },
          {
            "number": 2,
            "time": 53.110625000000155,
            "value": 0.3700787401574803
          },
          {
            "number": 2,
            "time": 53.111250000000155,
            "value": 0.3700787401574803
          },
          {
            "number": 2,
            "time": 53.111875000000154,
            "value": 0.36220472440944884
          },
          {
            "number": 2,
            "time": 53.11250000000015,
            "value": 0.36220472440944884
          },
          {
            "number": 2,
            "time": 53.11312500000015,
            "value": 0.36220472440944884
          },
          {
            "number": 2,
            "time": 53.11375000000015,
            "value": 0.36220472440944884
          },
          {
            "number": 2,
            "time": 53.11437500000015,
            "value": 0.36220472440944884
          },
          {
            "number": 2,
            "time": 53.11500000000015,
            "value": 0.36220472440944884
          },
          {
            "number": 2,
            "time": 53.11562500000015,
            "value": 0.36220472440944884
          },
          {
            "number": 2,
            "time": 53.11625000000015,
            "value": 0.3543307086614173
          },
          {
            "number": 2,
            "time": 53.11687500000015,
            "value": 0.3543307086614173
          },
          {
            "number": 2,
            "time": 53.11750000000015,
            "value": 0.3543307086614173
          },
          {
            "number": 2,
            "time": 53.11812500000015,
            "value": 0.3543307086614173
          },
          {
            "number": 2,
            "time": 53.11875000000015,
            "value": 0.3543307086614173
          },
          {
            "number": 2,
            "time": 53.11937500000015,
            "value": 0.3543307086614173
          },
          {
            "number": 2,
            "time": 53.12000000000015,
            "value": 0.3543307086614173
          },
          {
            "number": 2,
            "time": 53.120625000000146,
            "value": 0.3464566929133858
          },
          {
            "number": 2,
            "time": 53.121250000000146,
            "value": 0.3464566929133858
          },
          {
            "number": 2,
            "time": 53.121875000000145,
            "value": 0.3464566929133858
          },
          {
            "number": 2,
            "time": 53.122500000000144,
            "value": 0.3464566929133858
          },
          {
            "number": 2,
            "time": 53.123125000000144,
            "value": 0.3464566929133858
          },
          {
            "number": 2,
            "time": 53.12375000000014,
            "value": 0.3464566929133858
          },
          {
            "number": 2,
            "time": 53.12437500000014,
            "value": 0.3464566929133858
          },
          {
            "number": 2,
            "time": 53.12500000000014,
            "value": 0.3464566929133858
          },
          {
            "number": 2,
            "time": 53.12562500000014,
            "value": 0.33858267716535434
          },
          {
            "number": 2,
            "time": 53.12625000000014,
            "value": 0.33858267716535434
          },
          {
            "number": 2,
            "time": 53.12687500000014,
            "value": 0.33858267716535434
          },
          {
            "number": 2,
            "time": 53.12750000000014,
            "value": 0.33858267716535434
          },
          {
            "number": 2,
            "time": 53.12812500000014,
            "value": 0.33858267716535434
          },
          {
            "number": 2,
            "time": 53.12875000000014,
            "value": 0.33858267716535434
          },
          {
            "number": 2,
            "time": 53.12937500000014,
            "value": 0.33858267716535434
          },
          {
            "number": 2,
            "time": 53.13000000000014,
            "value": 0.33070866141732286
          },
          {
            "number": 2,
            "time": 53.13062500000014,
            "value": 0.33070866141732286
          },
          {
            "number": 2,
            "time": 53.131250000000136,
            "value": 0.33070866141732286
          },
          {
            "number": 2,
            "time": 53.131875000000136,
            "value": 0.33070866141732286
          },
          {
            "number": 2,
            "time": 53.132500000000135,
            "value": 0.33070866141732286
          },
          {
            "number": 2,
            "time": 53.133125000000135,
            "value": 0.33070866141732286
          },
          {
            "number": 2,
            "time": 53.133750000000134,
            "value": 0.33070866141732286
          },
          {
            "number": 2,
            "time": 53.134375000000134,
            "value": 0.3228346456692913
          },
          {
            "number": 2,
            "time": 53.13500000000013,
            "value": 0.3228346456692913
          },
          {
            "number": 2,
            "time": 53.13562500000013,
            "value": 0.3228346456692913
          },
          {
            "number": 2,
            "time": 53.13625000000013,
            "value": 0.3228346456692913
          },
          {
            "number": 2,
            "time": 53.13687500000013,
            "value": 0.3228346456692913
          },
          {
            "number": 2,
            "time": 53.13750000000013,
            "value": 0.3228346456692913
          },
          {
            "number": 2,
            "time": 53.13812500000013,
            "value": 0.3228346456692913
          },
          {
            "number": 2,
            "time": 53.13875000000013,
            "value": 0.31496062992125984
          },
          {
            "number": 2,
            "time": 53.13937500000013,
            "value": 0.31496062992125984
          },
          {
            "number": 2,
            "time": 53.14000000000013,
            "value": 0.31496062992125984
          },
          {
            "number": 2,
            "time": 53.14062500000013,
            "value": 0.31496062992125984
          },
          {
            "number": 2,
            "time": 53.14125000000013,
            "value": 0.31496062992125984
          },
          {
            "number": 2,
            "time": 53.14187500000013,
            "value": 0.31496062992125984
          },
          {
            "number": 2,
            "time": 53.142500000000126,
            "value": 0.31496062992125984
          },
          {
            "number": 2,
            "time": 53.143125000000126,
            "value": 0.31496062992125984
          },
          {
            "number": 2,
            "time": 53.143750000000125,
            "value": 0.30708661417322836
          },
          {
            "number": 2,
            "time": 53.144375000000124,
            "value": 0.30708661417322836
          },
          {
            "number": 2,
            "time": 53.145000000000124,
            "value": 0.30708661417322836
          },
          {
            "number": 2,
            "time": 53.14562500000012,
            "value": 0.30708661417322836
          },
          {
            "number": 2,
            "time": 53.14625000000012,
            "value": 0.30708661417322836
          },
          {
            "number": 2,
            "time": 53.14687500000012,
            "value": 0.30708661417322836
          },
          {
            "number": 2,
            "time": 53.14750000000012,
            "value": 0.30708661417322836
          },
          {
            "number": 2,
            "time": 53.14812500000012,
            "value": 0.2992125984251969
          },
          {
            "number": 2,
            "time": 53.14875000000012,
            "value": 0.2992125984251969
          },
          {
            "number": 2,
            "time": 53.14937500000012,
            "value": 0.2992125984251969
          },
          {
            "number": 2,
            "time": 53.15000000000012,
            "value": 0.2992125984251969
          },
          {
            "number": 2,
            "time": 53.15062500000012,
            "value": 0.2992125984251969
          },
          {
            "number": 2,
            "time": 53.15125000000012,
            "value": 0.2992125984251969
          },
          {
            "number": 2,
            "time": 53.15187500000012,
            "value": 0.2992125984251969
          },
          {
            "number": 2,
            "time": 53.15250000000012,
            "value": 0.29133858267716534
          },
          {
            "number": 2,
            "time": 53.15312500000012,
            "value": 0.29133858267716534
          },
          {
            "number": 2,
            "time": 53.153750000000116,
            "value": 0.29133858267716534
          },
          {
            "number": 2,
            "time": 53.154375000000115,
            "value": 0.29133858267716534
          },
          {
            "number": 2,
            "time": 53.155000000000115,
            "value": 0.29133858267716534
          },
          {
            "number": 2,
            "time": 53.155625000000114,
            "value": 0.29133858267716534
          },
          {
            "number": 2,
            "time": 53.156250000000114,
            "value": 0.29133858267716534
          },
          {
            "number": 2,
            "time": 53.15687500000011,
            "value": 0.28346456692913385
          },
          {
            "number": 2,
            "time": 53.15750000000011,
            "value": 0.28346456692913385
          },
          {
            "number": 2,
            "time": 53.15812500000011,
            "value": 0.28346456692913385
          },
          {
            "number": 2,
            "time": 53.15875000000011,
            "value": 0.28346456692913385
          },
          {
            "number": 2,
            "time": 53.15937500000011,
            "value": 0.28346456692913385
          },
          {
            "number": 2,
            "time": 53.16000000000011,
            "value": 0.28346456692913385
          },
          {
            "number": 2,
            "time": 53.16062500000011,
            "value": 0.28346456692913385
          },
          {
            "number": 2,
            "time": 53.16125000000011,
            "value": 0.28346456692913385
          },
          {
            "number": 2,
            "time": 53.16187500000011,
            "value": 0.2755905511811024
          },
          {
            "number": 2,
            "time": 53.16250000000011,
            "value": 0.2755905511811024
          },
          {
            "number": 2,
            "time": 53.16312500000011,
            "value": 0.2755905511811024
          },
          {
            "number": 2,
            "time": 53.16375000000011,
            "value": 0.2755905511811024
          },
          {
            "number": 2,
            "time": 53.164375000000106,
            "value": 0.2755905511811024
          },
          {
            "number": 2,
            "time": 53.165000000000106,
            "value": 0.2755905511811024
          },
          {
            "number": 2,
            "time": 53.165625000000105,
            "value": 0.2755905511811024
          },
          {
            "number": 2,
            "time": 53.166250000000105,
            "value": 0.2677165354330709
          },
          {
            "number": 2,
            "time": 53.166875000000104,
            "value": 0.2677165354330709
          },
          {
            "number": 2,
            "time": 53.1675000000001,
            "value": 0.2677165354330709
          },
          {
            "number": 2,
            "time": 53.1681250000001,
            "value": 0.2677165354330709
          },
          {
            "number": 2,
            "time": 53.1687500000001,
            "value": 0.2677165354330709
          },
          {
            "number": 2,
            "time": 53.1693750000001,
            "value": 0.2677165354330709
          },
          {
            "number": 2,
            "time": 53.1700000000001,
            "value": 0.2677165354330709
          },
          {
            "number": 2,
            "time": 53.1706250000001,
            "value": 0.25984251968503935
          },
          {
            "number": 2,
            "time": 53.1712500000001,
            "value": 0.25984251968503935
          },
          {
            "number": 2,
            "time": 53.1718750000001,
            "value": 0.25984251968503935
          },
          {
            "number": 2,
            "time": 53.1725000000001,
            "value": 0.25984251968503935
          },
          {
            "number": 2,
            "time": 53.1731250000001,
            "value": 0.25984251968503935
          },
          {
            "number": 2,
            "time": 53.1737500000001,
            "value": 0.25984251968503935
          },
          {
            "number": 2,
            "time": 53.1743750000001,
            "value": 0.25984251968503935
          },
          {
            "number": 2,
            "time": 53.5500000000001,
            "value": 0.3858267716535433
          },
          {
            "number": 2,
            "time": 53.550625000000096,
            "value": 0.3858267716535433
          },
          {
            "number": 2,
            "time": 53.551250000000095,
            "value": 0.3858267716535433
          },
          {
            "number": 2,
            "time": 53.551875000000095,
            "value": 0.3858267716535433
          },
          {
            "number": 2,
            "time": 53.552500000000094,
            "value": 0.3779527559055118
          },
          {
            "number": 2,
            "time": 53.553125000000094,
            "value": 0.3779527559055118
          },
          {
            "number": 2,
            "time": 53.55375000000009,
            "value": 0.3779527559055118
          },
          {
            "number": 2,
            "time": 53.55437500000009,
            "value": 0.3779527559055118
          },
          {
            "number": 2,
            "time": 53.55500000000009,
            "value": 0.3779527559055118
          },
          {
            "number": 2,
            "time": 53.55562500000009,
            "value": 0.3779527559055118
          },
          {
            "number": 2,
            "time": 53.55625000000009,
            "value": 0.3779527559055118
          },
          {
            "number": 2,
            "time": 53.55687500000009,
            "value": 0.3700787401574803
          },
          {
            "number": 2,
            "time": 53.55750000000009,
            "value": 0.3700787401574803
          },
          {
            "number": 2,
            "time": 53.55812500000009,
            "value": 0.3700787401574803
          },
          {
            "number": 2,
            "time": 53.55875000000009,
            "value": 0.3700787401574803
          },
          {
            "number": 2,
            "time": 53.55937500000009,
            "value": 0.3700787401574803
          },
          {
            "number": 2,
            "time": 53.56000000000009,
            "value": 0.3700787401574803
          },
          {
            "number": 2,
            "time": 53.56062500000009,
            "value": 0.3700787401574803
          },
          {
            "number": 2,
            "time": 53.561250000000086,
            "value": 0.3700787401574803
          },
          {
            "number": 2,
            "time": 53.561875000000086,
            "value": 0.36220472440944884
          },
          {
            "number": 2,
            "time": 53.562500000000085,
            "value": 0.36220472440944884
          },
          {
            "number": 2,
            "time": 53.563125000000085,
            "value": 0.36220472440944884
          },
          {
            "number": 2,
            "time": 53.563750000000084,
            "value": 0.36220472440944884
          },
          {
            "number": 2,
            "time": 53.564375000000084,
            "value": 0.36220472440944884
          },
          {
            "number": 2,
            "time": 53.56500000000008,
            "value": 0.36220472440944884
          },
          {
            "number": 2,
            "time": 53.56562500000008,
            "value": 0.36220472440944884
          },
          {
            "number": 2,
            "time": 53.56625000000008,
            "value": 0.3543307086614173
          },
          {
            "number": 2,
            "time": 53.56687500000008,
            "value": 0.3543307086614173
          },
          {
            "number": 2,
            "time": 53.56750000000008,
            "value": 0.3543307086614173
          },
          {
            "number": 2,
            "time": 53.56812500000008,
            "value": 0.3543307086614173
          },
          {
            "number": 2,
            "time": 53.56875000000008,
            "value": 0.3543307086614173
          },
          {
            "number": 2,
            "time": 53.56937500000008,
            "value": 0.3543307086614173
          },
          {
            "number": 2,
            "time": 53.57000000000008,
            "value": 0.3543307086614173
          },
          {
            "number": 2,
            "time": 53.57062500000008,
            "value": 0.3464566929133858
          },
          {
            "number": 2,
            "time": 53.57125000000008,
            "value": 0.3464566929133858
          },
          {
            "number": 2,
            "time": 53.57187500000008,
            "value": 0.3464566929133858
          },
          {
            "number": 2,
            "time": 53.572500000000076,
            "value": 0.3464566929133858
          },
          {
            "number": 2,
            "time": 53.573125000000076,
            "value": 0.3464566929133858
          },
          {
            "number": 2,
            "time": 53.573750000000075,
            "value": 0.3464566929133858
          },
          {
            "number": 2,
            "time": 53.574375000000074,
            "value": 0.3464566929133858
          },
          {
            "number": 2,
            "time": 53.575000000000074,
            "value": 0.3464566929133858
          },
          {
            "number": 2,
            "time": 53.57562500000007,
            "value": 0.33858267716535434
          },
          {
            "number": 2,
            "time": 53.57625000000007,
            "value": 0.33858267716535434
          },
          {
            "number": 2,
            "time": 53.57687500000007,
            "value": 0.33858267716535434
          },
          {
            "number": 2,
            "time": 53.57750000000007,
            "value": 0.33858267716535434
          },
          {
            "number": 2,
            "time": 53.57812500000007,
            "value": 0.33858267716535434
          },
          {
            "number": 2,
            "time": 53.57875000000007,
            "value": 0.33858267716535434
          },
          {
            "number": 2,
            "time": 53.57937500000007,
            "value": 0.33858267716535434
          },
          {
            "number": 2,
            "time": 53.58000000000007,
            "value": 0.33070866141732286
          },
          {
            "number": 2,
            "time": 53.58062500000007,
            "value": 0.33070866141732286
          },
          {
            "number": 2,
            "time": 53.58125000000007,
            "value": 0.33070866141732286
          },
          {
            "number": 2,
            "time": 53.58187500000007,
            "value": 0.33070866141732286
          },
          {
            "number": 2,
            "time": 53.58250000000007,
            "value": 0.33070866141732286
          },
          {
            "number": 2,
            "time": 53.58312500000007,
            "value": 0.33070866141732286
          },
          {
            "number": 2,
            "time": 53.583750000000066,
            "value": 0.33070866141732286
          },
          {
            "number": 2,
            "time": 53.584375000000065,
            "value": 0.3228346456692913
          },
          {
            "number": 2,
            "time": 53.585000000000065,
            "value": 0.3228346456692913
          },
          {
            "number": 2,
            "time": 53.585625000000064,
            "value": 0.3228346456692913
          },
          {
            "number": 2,
            "time": 53.586250000000064,
            "value": 0.3228346456692913
          },
          {
            "number": 2,
            "time": 53.58687500000006,
            "value": 0.3228346456692913
          },
          {
            "number": 2,
            "time": 53.58750000000006,
            "value": 0.3228346456692913
          },
          {
            "number": 2,
            "time": 53.58812500000006,
            "value": 0.3228346456692913
          },
          {
            "number": 2,
            "time": 53.58875000000006,
            "value": 0.31496062992125984
          },
          {
            "number": 2,
            "time": 53.58937500000006,
            "value": 0.31496062992125984
          },
          {
            "number": 2,
            "time": 53.59000000000006,
            "value": 0.31496062992125984
          },
          {
            "number": 2,
            "time": 53.59062500000006,
            "value": 0.31496062992125984
          },
          {
            "number": 2,
            "time": 53.59125000000006,
            "value": 0.31496062992125984
          },
          {
            "number": 2,
            "time": 53.59187500000006,
            "value": 0.31496062992125984
          },
          {
            "number": 2,
            "time": 53.59250000000006,
            "value": 0.31496062992125984
          },
          {
            "number": 2,
            "time": 53.59312500000006,
            "value": 0.31496062992125984
          },
          {
            "number": 2,
            "time": 53.59375000000006,
            "value": 0.30708661417322836
          },
          {
            "number": 2,
            "time": 53.594375000000056,
            "value": 0.30708661417322836
          },
          {
            "number": 2,
            "time": 53.595000000000056,
            "value": 0.30708661417322836
          },
          {
            "number": 2,
            "time": 53.595625000000055,
            "value": 0.30708661417322836
          },
          {
            "number": 2,
            "time": 53.596250000000055,
            "value": 0.30708661417322836
          },
          {
            "number": 2,
            "time": 53.596875000000054,
            "value": 0.30708661417322836
          },
          {
            "number": 2,
            "time": 53.59750000000005,
            "value": 0.30708661417322836
          },
          {
            "number": 2,
            "time": 53.59812500000005,
            "value": 0.2992125984251969
          },
          {
            "number": 2,
            "time": 53.59875000000005,
            "value": 0.2992125984251969
          },
          {
            "number": 2,
            "time": 53.59937500000005,
            "value": 0.2992125984251969
          },
          {
            "number": 2,
            "time": 53.60000000000005,
            "value": 0.2992125984251969
          },
          {
            "number": 2,
            "time": 53.60062500000005,
            "value": 0.2992125984251969
          },
          {
            "number": 2,
            "time": 53.60125000000005,
            "value": 0.2992125984251969
          },
          {
            "number": 2,
            "time": 53.60187500000005,
            "value": 0.2992125984251969
          },
          {
            "number": 2,
            "time": 53.60250000000005,
            "value": 0.29133858267716534
          },
          {
            "number": 2,
            "time": 53.60312500000005,
            "value": 0.29133858267716534
          },
          {
            "number": 2,
            "time": 53.60375000000005,
            "value": 0.29133858267716534
          },
          {
            "number": 2,
            "time": 53.60437500000005,
            "value": 0.29133858267716534
          },
          {
            "number": 2,
            "time": 53.60500000000005,
            "value": 0.29133858267716534
          },
          {
            "number": 2,
            "time": 53.605625000000046,
            "value": 0.29133858267716534
          },
          {
            "number": 2,
            "time": 53.606250000000045,
            "value": 0.29133858267716534
          },
          {
            "number": 2,
            "time": 53.606875000000045,
            "value": 0.28346456692913385
          },
          {
            "number": 2,
            "time": 53.607500000000044,
            "value": 0.28346456692913385
          },
          {
            "number": 2,
            "time": 53.608125000000044,
            "value": 0.28346456692913385
          },
          {
            "number": 2,
            "time": 53.60875000000004,
            "value": 0.28346456692913385
          },
          {
            "number": 2,
            "time": 53.60937500000004,
            "value": 0.28346456692913385
          },
          {
            "number": 2,
            "time": 53.61000000000004,
            "value": 0.28346456692913385
          },
          {
            "number": 2,
            "time": 53.61062500000004,
            "value": 0.28346456692913385
          },
          {
            "number": 2,
            "time": 53.61125000000004,
            "value": 0.28346456692913385
          },
          {
            "number": 2,
            "time": 53.61187500000004,
            "value": 0.2755905511811024
          },
          {
            "number": 2,
            "time": 53.61250000000004,
            "value": 0.2755905511811024
          },
          {
            "number": 2,
            "time": 53.61312500000004,
            "value": 0.2755905511811024
          },
          {
            "number": 2,
            "time": 53.61375000000004,
            "value": 0.2755905511811024
          },
          {
            "number": 2,
            "time": 53.61437500000004,
            "value": 0.2755905511811024
          },
          {
            "number": 2,
            "time": 53.61500000000004,
            "value": 0.2755905511811024
          },
          {
            "number": 2,
            "time": 53.61562500000004,
            "value": 0.2755905511811024
          },
          {
            "number": 2,
            "time": 53.616250000000036,
            "value": 0.2677165354330709
          },
          {
            "number": 2,
            "time": 53.616875000000036,
            "value": 0.2677165354330709
          },
          {
            "number": 2,
            "time": 53.617500000000035,
            "value": 0.2677165354330709
          },
          {
            "number": 2,
            "time": 53.618125000000035,
            "value": 0.2677165354330709
          },
          {
            "number": 2,
            "time": 53.618750000000034,
            "value": 0.2677165354330709
          },
          {
            "number": 2,
            "time": 53.61937500000003,
            "value": 0.2677165354330709
          },
          {
            "number": 2,
            "time": 53.62000000000003,
            "value": 0.2677165354330709
          },
          {
            "number": 2,
            "time": 53.62062500000003,
            "value": 0.25984251968503935
          },
          {
            "number": 2,
            "time": 53.62125000000003,
            "value": 0.25984251968503935
          },
          {
            "number": 2,
            "time": 53.62187500000003,
            "value": 0.25984251968503935
          },
          {
            "number": 2,
            "time": 53.62250000000003,
            "value": 0.25984251968503935
          },
          {
            "number": 2,
            "time": 53.62312500000003,
            "value": 0.25984251968503935
          },
          {
            "number": 2,
            "time": 53.62375000000003,
            "value": 0.25984251968503935
          },
          {
            "number": 2,
            "time": 53.62437500000003,
            "value": 0.25984251968503935
          },
          {
            "number": 2,
            "time": 53.85000000000003,
            "value": 0.25984251968503935
          },
          {
            "number": 2,
            "time": 54.00000000000003,
            "value": 0.3858267716535433
          },
          {
            "number": 2,
            "time": 54.00062500000003,
            "value": 0.3858267716535433
          },
          {
            "number": 2,
            "time": 54.00125000000003,
            "value": 0.3858267716535433
          },
          {
            "number": 2,
            "time": 54.00187500000003,
            "value": 0.3858267716535433
          },
          {
            "number": 2,
            "time": 54.002500000000026,
            "value": 0.3779527559055118
          },
          {
            "number": 2,
            "time": 54.003125000000026,
            "value": 0.3779527559055118
          },
          {
            "number": 2,
            "time": 54.003750000000025,
            "value": 0.3779527559055118
          },
          {
            "number": 2,
            "time": 54.004375000000024,
            "value": 0.3779527559055118
          },
          {
            "number": 2,
            "time": 54.005000000000024,
            "value": 0.3779527559055118
          },
          {
            "number": 2,
            "time": 54.00562500000002,
            "value": 0.3779527559055118
          },
          {
            "number": 2,
            "time": 54.00625000000002,
            "value": 0.3779527559055118
          },
          {
            "number": 2,
            "time": 54.00687500000002,
            "value": 0.3700787401574803
          },
          {
            "number": 2,
            "time": 54.00750000000002,
            "value": 0.3700787401574803
          },
          {
            "number": 2,
            "time": 54.00812500000002,
            "value": 0.3700787401574803
          },
          {
            "number": 2,
            "time": 54.00875000000002,
            "value": 0.3700787401574803
          },
          {
            "number": 2,
            "time": 54.00937500000002,
            "value": 0.3700787401574803
          },
          {
            "number": 2,
            "time": 54.01000000000002,
            "value": 0.3700787401574803
          },
          {
            "number": 2,
            "time": 54.01062500000002,
            "value": 0.3700787401574803
          },
          {
            "number": 2,
            "time": 54.01125000000002,
            "value": 0.3700787401574803
          },
          {
            "number": 2,
            "time": 54.01187500000002,
            "value": 0.36220472440944884
          },
          {
            "number": 2,
            "time": 54.01250000000002,
            "value": 0.36220472440944884
          },
          {
            "number": 2,
            "time": 54.01312500000002,
            "value": 0.36220472440944884
          },
          {
            "number": 2,
            "time": 54.013750000000016,
            "value": 0.36220472440944884
          },
          {
            "number": 2,
            "time": 54.014375000000015,
            "value": 0.36220472440944884
          },
          {
            "number": 2,
            "time": 54.015000000000015,
            "value": 0.36220472440944884
          },
          {
            "number": 2,
            "time": 54.015625000000014,
            "value": 0.36220472440944884
          },
          {
            "number": 2,
            "time": 54.016250000000014,
            "value": 0.3543307086614173
          },
          {
            "number": 2,
            "time": 54.01687500000001,
            "value": 0.3543307086614173
          },
          {
            "number": 2,
            "time": 54.01750000000001,
            "value": 0.3543307086614173
          },
          {
            "number": 2,
            "time": 54.01812500000001,
            "value": 0.3543307086614173
          },
          {
            "number": 2,
            "time": 54.01875000000001,
            "value": 0.3543307086614173
          },
          {
            "number": 2,
            "time": 54.01937500000001,
            "value": 0.3543307086614173
          },
          {
            "number": 2,
            "time": 54.02000000000001,
            "value": 0.3543307086614173
          },
          {
            "number": 2,
            "time": 54.02062500000001,
            "value": 0.3464566929133858
          },
          {
            "number": 2,
            "time": 54.02125000000001,
            "value": 0.3464566929133858
          },
          {
            "number": 2,
            "time": 54.02187500000001,
            "value": 0.3464566929133858
          },
          {
            "number": 2,
            "time": 54.02250000000001,
            "value": 0.3464566929133858
          },
          {
            "number": 2,
            "time": 54.02312500000001,
            "value": 0.3464566929133858
          },
          {
            "number": 2,
            "time": 54.02375000000001,
            "value": 0.3464566929133858
          },
          {
            "number": 2,
            "time": 54.024375000000006,
            "value": 0.3464566929133858
          },
          {
            "number": 2,
            "time": 54.025000000000006,
            "value": 0.3464566929133858
          },
          {
            "number": 2,
            "time": 54.025625000000005,
            "value": 0.33858267716535434
          },
          {
            "number": 2,
            "time": 54.026250000000005,
            "value": 0.33858267716535434
          },
          {
            "number": 2,
            "time": 54.026875000000004,
            "value": 0.33858267716535434
          },
          {
            "number": 2,
            "time": 54.0275,
            "value": 0.33858267716535434
          },
          {
            "number": 2,
            "time": 54.028125,
            "value": 0.33858267716535434
          },
          {
            "number": 2,
            "time": 54.02875,
            "value": 0.33858267716535434
          },
          {
            "number": 2,
            "time": 54.029375,
            "value": 0.33858267716535434
          },
          {
            "number": 2,
            "time": 54.03,
            "value": 0.33070866141732286
          },
          {
            "number": 2,
            "time": 54.030625,
            "value": 0.33070866141732286
          },
          {
            "number": 2,
            "time": 54.03125,
            "value": 0.33070866141732286
          },
          {
            "number": 2,
            "time": 54.031875,
            "value": 0.33070866141732286
          },
          {
            "number": 2,
            "time": 54.0325,
            "value": 0.33070866141732286
          },
          {
            "number": 2,
            "time": 54.033125,
            "value": 0.33070866141732286
          },
          {
            "number": 2,
            "time": 54.03375,
            "value": 0.33070866141732286
          },
          {
            "number": 2,
            "time": 54.034375,
            "value": 0.3228346456692913
          },
          {
            "number": 2,
            "time": 54.035,
            "value": 0.3228346456692913
          },
          {
            "number": 2,
            "time": 54.035624999999996,
            "value": 0.3228346456692913
          },
          {
            "number": 2,
            "time": 54.036249999999995,
            "value": 0.3228346456692913
          },
          {
            "number": 2,
            "time": 54.036874999999995,
            "value": 0.3228346456692913
          },
          {
            "number": 2,
            "time": 54.037499999999994,
            "value": 0.3228346456692913
          },
          {
            "number": 2,
            "time": 54.038124999999994,
            "value": 0.3228346456692913
          },
          {
            "number": 2,
            "time": 54.03874999999999,
            "value": 0.31496062992125984
          },
          {
            "number": 2,
            "time": 54.03937499999999,
            "value": 0.31496062992125984
          },
          {
            "number": 2,
            "time": 54.03999999999999,
            "value": 0.31496062992125984
          },
          {
            "number": 2,
            "time": 54.04062499999999,
            "value": 0.31496062992125984
          },
          {
            "number": 2,
            "time": 54.04124999999999,
            "value": 0.31496062992125984
          },
          {
            "number": 2,
            "time": 54.04187499999999,
            "value": 0.31496062992125984
          },
          {
            "number": 2,
            "time": 54.04249999999999,
            "value": 0.31496062992125984
          },
          {
            "number": 2,
            "time": 54.04312499999999,
            "value": 0.31496062992125984
          },
          {
            "number": 2,
            "time": 54.04374999999999,
            "value": 0.30708661417322836
          },
          {
            "number": 2,
            "time": 54.04437499999999,
            "value": 0.30708661417322836
          },
          {
            "number": 2,
            "time": 54.04499999999999,
            "value": 0.30708661417322836
          },
          {
            "number": 2,
            "time": 54.04562499999999,
            "value": 0.30708661417322836
          },
          {
            "number": 2,
            "time": 54.046249999999986,
            "value": 0.30708661417322836
          },
          {
            "number": 2,
            "time": 54.046874999999986,
            "value": 0.30708661417322836
          },
          {
            "number": 2,
            "time": 54.047499999999985,
            "value": 0.30708661417322836
          },
          {
            "number": 2,
            "time": 54.048124999999985,
            "value": 0.2992125984251969
          },
          {
            "number": 2,
            "time": 54.048749999999984,
            "value": 0.2992125984251969
          },
          {
            "number": 2,
            "time": 54.04937499999998,
            "value": 0.2992125984251969
          },
          {
            "number": 2,
            "time": 54.04999999999998,
            "value": 0.2992125984251969
          },
          {
            "number": 2,
            "time": 54.05062499999998,
            "value": 0.2992125984251969
          },
          {
            "number": 2,
            "time": 54.05124999999998,
            "value": 0.2992125984251969
          },
          {
            "number": 2,
            "time": 54.05187499999998,
            "value": 0.2992125984251969
          },
          {
            "number": 2,
            "time": 54.05249999999998,
            "value": 0.29133858267716534
          },
          {
            "number": 2,
            "time": 54.05312499999998,
            "value": 0.29133858267716534
          },
          {
            "number": 2,
            "time": 54.05374999999998,
            "value": 0.29133858267716534
          },
          {
            "number": 2,
            "time": 54.05437499999998,
            "value": 0.29133858267716534
          },
          {
            "number": 2,
            "time": 54.05499999999998,
            "value": 0.29133858267716534
          },
          {
            "number": 2,
            "time": 54.05562499999998,
            "value": 0.29133858267716534
          },
          {
            "number": 2,
            "time": 54.05624999999998,
            "value": 0.29133858267716534
          },
          {
            "number": 2,
            "time": 54.05687499999998,
            "value": 0.28346456692913385
          },
          {
            "number": 2,
            "time": 54.057499999999976,
            "value": 0.28346456692913385
          },
          {
            "number": 2,
            "time": 54.058124999999976,
            "value": 0.28346456692913385
          },
          {
            "number": 2,
            "time": 54.058749999999975,
            "value": 0.28346456692913385
          },
          {
            "number": 2,
            "time": 54.059374999999974,
            "value": 0.28346456692913385
          },
          {
            "number": 2,
            "time": 54.059999999999974,
            "value": 0.28346456692913385
          },
          {
            "number": 2,
            "time": 54.06062499999997,
            "value": 0.28346456692913385
          },
          {
            "number": 2,
            "time": 54.06124999999997,
            "value": 0.28346456692913385
          },
          {
            "number": 2,
            "time": 54.06187499999997,
            "value": 0.2755905511811024
          },
          {
            "number": 2,
            "time": 54.06249999999997,
            "value": 0.2755905511811024
          },
          {
            "number": 2,
            "time": 54.06312499999997,
            "value": 0.2755905511811024
          },
          {
            "number": 2,
            "time": 54.06374999999997,
            "value": 0.2755905511811024
          },
          {
            "number": 2,
            "time": 54.06437499999997,
            "value": 0.2755905511811024
          },
          {
            "number": 2,
            "time": 54.06499999999997,
            "value": 0.2755905511811024
          },
          {
            "number": 2,
            "time": 54.06562499999997,
            "value": 0.2755905511811024
          },
          {
            "number": 2,
            "time": 54.06624999999997,
            "value": 0.2677165354330709
          },
          {
            "number": 2,
            "time": 54.06687499999997,
            "value": 0.2677165354330709
          },
          {
            "number": 2,
            "time": 54.06749999999997,
            "value": 0.2677165354330709
          },
          {
            "number": 2,
            "time": 54.06812499999997,
            "value": 0.2677165354330709
          },
          {
            "number": 2,
            "time": 54.068749999999966,
            "value": 0.2677165354330709
          },
          {
            "number": 2,
            "time": 54.069374999999965,
            "value": 0.2677165354330709
          },
          {
            "number": 2,
            "time": 54.069999999999965,
            "value": 0.2677165354330709
          },
          {
            "number": 2,
            "time": 54.070624999999964,
            "value": 0.25984251968503935
          },
          {
            "number": 2,
            "time": 54.071249999999964,
            "value": 0.25984251968503935
          },
          {
            "number": 2,
            "time": 54.07187499999996,
            "value": 0.25984251968503935
          },
          {
            "number": 2,
            "time": 54.07249999999996,
            "value": 0.25984251968503935
          },
          {
            "number": 2,
            "time": 54.07312499999996,
            "value": 0.25984251968503935
          },
          {
            "number": 2,
            "time": 54.07374999999996,
            "value": 0.25984251968503935
          },
          {
            "number": 2,
            "time": 54.07437499999996,
            "value": 0.25984251968503935
          },
          {
            "number": 2,
            "time": 54.29999999999996,
            "value": 0.25984251968503935
          },
          {
            "number": 2,
            "time": 54.44999999999996,
            "value": 0.25984251968503935
          },
          {
            "number": 2,
            "time": 55.34999999999996,
            "value": 0.25984251968503935
          },
          {
            "number": 2,
            "time": 56.24999999999996,
            "value": 0.25984251968503935
          },
          {
            "number": 2,
            "time": 57.149999999999956,
            "value": 0.25984251968503935
          },
          {
            "number": 2,
            "time": 59.84999999999995,
            "value": 0.25984251968503935
          },
          {
            "number": 2,
            "time": 60.299999999999955,
            "value": 0.25984251968503935
          },
          {
            "number": 2,
            "time": 60.74999999999996,
            "value": 0.25984251968503935
          },
          {
            "number": 2,
            "time": 60.74999999999996,
            "value": 0.3858267716535433
          },
          {
            "number": 2,
            "time": 60.75062499999996,
            "value": 0.3858267716535433
          },
          {
            "number": 2,
            "time": 60.751249999999956,
            "value": 0.3858267716535433
          },
          {
            "number": 2,
            "time": 60.751874999999956,
            "value": 0.3858267716535433
          },
          {
            "number": 2,
            "time": 60.752499999999955,
            "value": 0.3779527559055118
          },
          {
            "number": 2,
            "time": 60.753124999999955,
            "value": 0.3779527559055118
          },
          {
            "number": 2,
            "time": 60.753749999999954,
            "value": 0.3779527559055118
          },
          {
            "number": 2,
            "time": 60.75437499999995,
            "value": 0.3779527559055118
          },
          {
            "number": 2,
            "time": 60.75499999999995,
            "value": 0.3779527559055118
          },
          {
            "number": 2,
            "time": 60.75562499999995,
            "value": 0.3779527559055118
          },
          {
            "number": 2,
            "time": 60.75624999999995,
            "value": 0.3779527559055118
          },
          {
            "number": 2,
            "time": 60.75687499999995,
            "value": 0.3700787401574803
          },
          {
            "number": 2,
            "time": 60.75749999999995,
            "value": 0.3700787401574803
          },
          {
            "number": 2,
            "time": 60.75812499999995,
            "value": 0.3700787401574803
          },
          {
            "number": 2,
            "time": 60.75874999999995,
            "value": 0.3700787401574803
          },
          {
            "number": 2,
            "time": 60.75937499999995,
            "value": 0.3700787401574803
          },
          {
            "number": 2,
            "time": 60.75999999999995,
            "value": 0.3700787401574803
          },
          {
            "number": 2,
            "time": 60.76062499999995,
            "value": 0.3700787401574803
          },
          {
            "number": 2,
            "time": 60.76124999999995,
            "value": 0.3700787401574803
          },
          {
            "number": 2,
            "time": 60.76187499999995,
            "value": 0.36220472440944884
          },
          {
            "number": 2,
            "time": 60.762499999999946,
            "value": 0.36220472440944884
          },
          {
            "number": 2,
            "time": 60.763124999999945,
            "value": 0.36220472440944884
          },
          {
            "number": 2,
            "time": 60.763749999999945,
            "value": 0.36220472440944884
          },
          {
            "number": 2,
            "time": 60.764374999999944,
            "value": 0.36220472440944884
          },
          {
            "number": 2,
            "time": 60.764999999999944,
            "value": 0.36220472440944884
          },
          {
            "number": 2,
            "time": 60.76562499999994,
            "value": 0.36220472440944884
          },
          {
            "number": 2,
            "time": 60.76624999999994,
            "value": 0.3543307086614173
          },
          {
            "number": 2,
            "time": 60.76687499999994,
            "value": 0.3543307086614173
          },
          {
            "number": 2,
            "time": 60.76749999999994,
            "value": 0.3543307086614173
          },
          {
            "number": 2,
            "time": 60.76812499999994,
            "value": 0.3543307086614173
          },
          {
            "number": 2,
            "time": 60.76874999999994,
            "value": 0.3543307086614173
          },
          {
            "number": 2,
            "time": 60.76937499999994,
            "value": 0.3543307086614173
          },
          {
            "number": 2,
            "time": 60.76999999999994,
            "value": 0.3543307086614173
          },
          {
            "number": 2,
            "time": 60.77062499999994,
            "value": 0.3464566929133858
          },
          {
            "number": 2,
            "time": 60.77124999999994,
            "value": 0.3464566929133858
          },
          {
            "number": 2,
            "time": 60.77187499999994,
            "value": 0.3464566929133858
          },
          {
            "number": 2,
            "time": 60.77249999999994,
            "value": 0.3464566929133858
          },
          {
            "number": 2,
            "time": 60.773124999999936,
            "value": 0.3464566929133858
          },
          {
            "number": 2,
            "time": 60.773749999999936,
            "value": 0.3464566929133858
          },
          {
            "number": 2,
            "time": 60.774374999999935,
            "value": 0.3464566929133858
          },
          {
            "number": 2,
            "time": 60.774999999999935,
            "value": 0.3464566929133858
          },
          {
            "number": 2,
            "time": 60.775624999999934,
            "value": 0.33858267716535434
          },
          {
            "number": 2,
            "time": 60.77624999999993,
            "value": 0.33858267716535434
          },
          {
            "number": 2,
            "time": 60.77687499999993,
            "value": 0.33858267716535434
          },
          {
            "number": 2,
            "time": 60.77749999999993,
            "value": 0.33858267716535434
          },
          {
            "number": 2,
            "time": 60.77812499999993,
            "value": 0.33858267716535434
          },
          {
            "number": 2,
            "time": 60.77874999999993,
            "value": 0.33858267716535434
          },
          {
            "number": 2,
            "time": 60.77937499999993,
            "value": 0.33858267716535434
          },
          {
            "number": 2,
            "time": 60.77999999999993,
            "value": 0.33070866141732286
          },
          {
            "number": 2,
            "time": 60.78062499999993,
            "value": 0.33070866141732286
          },
          {
            "number": 2,
            "time": 60.78124999999993,
            "value": 0.33070866141732286
          },
          {
            "number": 2,
            "time": 60.78187499999993,
            "value": 0.33070866141732286
          },
          {
            "number": 2,
            "time": 60.78249999999993,
            "value": 0.33070866141732286
          },
          {
            "number": 2,
            "time": 60.78312499999993,
            "value": 0.33070866141732286
          },
          {
            "number": 2,
            "time": 60.78374999999993,
            "value": 0.33070866141732286
          },
          {
            "number": 2,
            "time": 60.784374999999926,
            "value": 0.3228346456692913
          },
          {
            "number": 2,
            "time": 60.784999999999926,
            "value": 0.3228346456692913
          },
          {
            "number": 2,
            "time": 60.785624999999925,
            "value": 0.3228346456692913
          },
          {
            "number": 2,
            "time": 60.786249999999924,
            "value": 0.3228346456692913
          },
          {
            "number": 2,
            "time": 60.786874999999924,
            "value": 0.3228346456692913
          },
          {
            "number": 2,
            "time": 60.78749999999992,
            "value": 0.3228346456692913
          },
          {
            "number": 2,
            "time": 60.78812499999992,
            "value": 0.3228346456692913
          },
          {
            "number": 2,
            "time": 60.78874999999992,
            "value": 0.31496062992125984
          },
          {
            "number": 2,
            "time": 60.78937499999992,
            "value": 0.31496062992125984
          },
          {
            "number": 2,
            "time": 60.78999999999992,
            "value": 0.31496062992125984
          },
          {
            "number": 2,
            "time": 60.79062499999992,
            "value": 0.31496062992125984
          },
          {
            "number": 2,
            "time": 60.79124999999992,
            "value": 0.31496062992125984
          },
          {
            "number": 2,
            "time": 60.79187499999992,
            "value": 0.31496062992125984
          },
          {
            "number": 2,
            "time": 60.79249999999992,
            "value": 0.31496062992125984
          },
          {
            "number": 2,
            "time": 60.79312499999992,
            "value": 0.31496062992125984
          },
          {
            "number": 2,
            "time": 60.79374999999992,
            "value": 0.30708661417322836
          },
          {
            "number": 2,
            "time": 60.79437499999992,
            "value": 0.30708661417322836
          },
          {
            "number": 2,
            "time": 60.794999999999916,
            "value": 0.30708661417322836
          },
          {
            "number": 2,
            "time": 60.795624999999916,
            "value": 0.30708661417322836
          },
          {
            "number": 2,
            "time": 60.796249999999915,
            "value": 0.30708661417322836
          },
          {
            "number": 2,
            "time": 60.796874999999915,
            "value": 0.30708661417322836
          },
          {
            "number": 2,
            "time": 60.797499999999914,
            "value": 0.30708661417322836
          },
          {
            "number": 2,
            "time": 60.798124999999914,
            "value": 0.2992125984251969
          },
          {
            "number": 2,
            "time": 60.79874999999991,
            "value": 0.2992125984251969
          },
          {
            "number": 2,
            "time": 60.79937499999991,
            "value": 0.2992125984251969
          },
          {
            "number": 2,
            "time": 60.79999999999991,
            "value": 0.2992125984251969
          },
          {
            "number": 2,
            "time": 60.80062499999991,
            "value": 0.2992125984251969
          },
          {
            "number": 2,
            "time": 60.80124999999991,
            "value": 0.2992125984251969
          },
          {
            "number": 2,
            "time": 60.80187499999991,
            "value": 0.2992125984251969
          },
          {
            "number": 2,
            "time": 60.80249999999991,
            "value": 0.29133858267716534
          },
          {
            "number": 2,
            "time": 60.80312499999991,
            "value": 0.29133858267716534
          },
          {
            "number": 2,
            "time": 60.80374999999991,
            "value": 0.29133858267716534
          },
          {
            "number": 2,
            "time": 60.80437499999991,
            "value": 0.29133858267716534
          },
          {
            "number": 2,
            "time": 60.80499999999991,
            "value": 0.29133858267716534
          },
          {
            "number": 2,
            "time": 60.80562499999991,
            "value": 0.29133858267716534
          },
          {
            "number": 2,
            "time": 60.806249999999906,
            "value": 0.29133858267716534
          },
          {
            "number": 2,
            "time": 60.806874999999906,
            "value": 0.28346456692913385
          },
          {
            "number": 2,
            "time": 60.807499999999905,
            "value": 0.28346456692913385
          },
          {
            "number": 2,
            "time": 60.808124999999905,
            "value": 0.28346456692913385
          },
          {
            "number": 2,
            "time": 60.808749999999904,
            "value": 0.28346456692913385
          },
          {
            "number": 2,
            "time": 60.8093749999999,
            "value": 0.28346456692913385
          },
          {
            "number": 2,
            "time": 60.8099999999999,
            "value": 0.28346456692913385
          },
          {
            "number": 2,
            "time": 60.8106249999999,
            "value": 0.28346456692913385
          },
          {
            "number": 2,
            "time": 60.8112499999999,
            "value": 0.28346456692913385
          },
          {
            "number": 2,
            "time": 60.8118749999999,
            "value": 0.2755905511811024
          },
          {
            "number": 2,
            "time": 60.8124999999999,
            "value": 0.2755905511811024
          },
          {
            "number": 2,
            "time": 60.8131249999999,
            "value": 0.2755905511811024
          },
          {
            "number": 2,
            "time": 60.8137499999999,
            "value": 0.2755905511811024
          },
          {
            "number": 2,
            "time": 60.8143749999999,
            "value": 0.2755905511811024
          },
          {
            "number": 2,
            "time": 60.8149999999999,
            "value": 0.2755905511811024
          },
          {
            "number": 2,
            "time": 60.8156249999999,
            "value": 0.2755905511811024
          },
          {
            "number": 2,
            "time": 60.8162499999999,
            "value": 0.2677165354330709
          },
          {
            "number": 2,
            "time": 60.8168749999999,
            "value": 0.2677165354330709
          },
          {
            "number": 2,
            "time": 60.817499999999896,
            "value": 0.2677165354330709
          },
          {
            "number": 2,
            "time": 60.818124999999895,
            "value": 0.2677165354330709
          },
          {
            "number": 2,
            "time": 60.818749999999895,
            "value": 0.2677165354330709
          },
          {
            "number": 2,
            "time": 60.819374999999894,
            "value": 0.2677165354330709
          },
          {
            "number": 2,
            "time": 60.819999999999894,
            "value": 0.2677165354330709
          },
          {
            "number": 2,
            "time": 60.82062499999989,
            "value": 0.25984251968503935
          },
          {
            "number": 2,
            "time": 60.82124999999989,
            "value": 0.25984251968503935
          },
          {
            "number": 2,
            "time": 60.82187499999989,
            "value": 0.25984251968503935
          },
          {
            "number": 2,
            "time": 60.82249999999989,
            "value": 0.25984251968503935
          },
          {
            "number": 2,
            "time": 60.82312499999989,
            "value": 0.25984251968503935
          },
          {
            "number": 2,
            "time": 60.82374999999989,
            "value": 0.25984251968503935
          },
          {
            "number": 2,
            "time": 60.82437499999989,
            "value": 0.25984251968503935
          },
          {
            "number": 2,
            "time": 61.04999999999989,
            "value": 0.25984251968503935
          },
          {
            "number": 2,
            "time": 61.19999999999989,
            "value": 0.3858267716535433
          },
          {
            "number": 2,
            "time": 61.20062499999989,
            "value": 0.3858267716535433
          },
          {
            "number": 2,
            "time": 61.20124999999989,
            "value": 0.3858267716535433
          },
          {
            "number": 2,
            "time": 61.20187499999989,
            "value": 0.3858267716535433
          },
          {
            "number": 2,
            "time": 61.20249999999989,
            "value": 0.3779527559055118
          },
          {
            "number": 2,
            "time": 61.203124999999886,
            "value": 0.3779527559055118
          },
          {
            "number": 2,
            "time": 61.203749999999886,
            "value": 0.3779527559055118
          },
          {
            "number": 2,
            "time": 61.204374999999885,
            "value": 0.3779527559055118
          },
          {
            "number": 2,
            "time": 61.204999999999885,
            "value": 0.3779527559055118
          },
          {
            "number": 2,
            "time": 61.205624999999884,
            "value": 0.3779527559055118
          },
          {
            "number": 2,
            "time": 61.20624999999988,
            "value": 0.3779527559055118
          },
          {
            "number": 2,
            "time": 61.20687499999988,
            "value": 0.3700787401574803
          },
          {
            "number": 2,
            "time": 61.20749999999988,
            "value": 0.3700787401574803
          },
          {
            "number": 2,
            "time": 61.20812499999988,
            "value": 0.3700787401574803
          },
          {
            "number": 2,
            "time": 61.20874999999988,
            "value": 0.3700787401574803
          },
          {
            "number": 2,
            "time": 61.20937499999988,
            "value": 0.3700787401574803
          },
          {
            "number": 2,
            "time": 61.20999999999988,
            "value": 0.3700787401574803
          },
          {
            "number": 2,
            "time": 61.21062499999988,
            "value": 0.3700787401574803
          },
          {
            "number": 2,
            "time": 61.21124999999988,
            "value": 0.3700787401574803
          },
          {
            "number": 2,
            "time": 61.21187499999988,
            "value": 0.36220472440944884
          },
          {
            "number": 2,
            "time": 61.21249999999988,
            "value": 0.36220472440944884
          },
          {
            "number": 2,
            "time": 61.21312499999988,
            "value": 0.36220472440944884
          },
          {
            "number": 2,
            "time": 61.21374999999988,
            "value": 0.36220472440944884
          },
          {
            "number": 2,
            "time": 61.214374999999876,
            "value": 0.36220472440944884
          },
          {
            "number": 2,
            "time": 61.214999999999876,
            "value": 0.36220472440944884
          },
          {
            "number": 2,
            "time": 61.215624999999875,
            "value": 0.36220472440944884
          },
          {
            "number": 2,
            "time": 61.216249999999874,
            "value": 0.3543307086614173
          },
          {
            "number": 2,
            "time": 61.216874999999874,
            "value": 0.3543307086614173
          },
          {
            "number": 2,
            "time": 61.21749999999987,
            "value": 0.3543307086614173
          },
          {
            "number": 2,
            "time": 61.21812499999987,
            "value": 0.3543307086614173
          },
          {
            "number": 2,
            "time": 61.21874999999987,
            "value": 0.3543307086614173
          },
          {
            "number": 2,
            "time": 61.21937499999987,
            "value": 0.3543307086614173
          },
          {
            "number": 2,
            "time": 61.21999999999987,
            "value": 0.3543307086614173
          },
          {
            "number": 2,
            "time": 61.22062499999987,
            "value": 0.3464566929133858
          },
          {
            "number": 2,
            "time": 61.22124999999987,
            "value": 0.3464566929133858
          },
          {
            "number": 2,
            "time": 61.22187499999987,
            "value": 0.3464566929133858
          },
          {
            "number": 2,
            "time": 61.22249999999987,
            "value": 0.3464566929133858
          },
          {
            "number": 2,
            "time": 61.22312499999987,
            "value": 0.3464566929133858
          },
          {
            "number": 2,
            "time": 61.22374999999987,
            "value": 0.3464566929133858
          },
          {
            "number": 2,
            "time": 61.22437499999987,
            "value": 0.3464566929133858
          },
          {
            "number": 2,
            "time": 61.224999999999866,
            "value": 0.3464566929133858
          },
          {
            "number": 2,
            "time": 61.225624999999866,
            "value": 0.33858267716535434
          },
          {
            "number": 2,
            "time": 61.226249999999865,
            "value": 0.33858267716535434
          },
          {
            "number": 2,
            "time": 61.226874999999865,
            "value": 0.33858267716535434
          },
          {
            "number": 2,
            "time": 61.227499999999864,
            "value": 0.33858267716535434
          },
          {
            "number": 2,
            "time": 61.228124999999864,
            "value": 0.33858267716535434
          },
          {
            "number": 2,
            "time": 61.22874999999986,
            "value": 0.33858267716535434
          },
          {
            "number": 2,
            "time": 61.22937499999986,
            "value": 0.33858267716535434
          },
          {
            "number": 2,
            "time": 61.22999999999986,
            "value": 0.33070866141732286
          },
          {
            "number": 2,
            "time": 61.23062499999986,
            "value": 0.33070866141732286
          },
          {
            "number": 2,
            "time": 61.23124999999986,
            "value": 0.33070866141732286
          },
          {
            "number": 2,
            "time": 61.23187499999986,
            "value": 0.33070866141732286
          },
          {
            "number": 2,
            "time": 61.23249999999986,
            "value": 0.33070866141732286
          },
          {
            "number": 2,
            "time": 61.23312499999986,
            "value": 0.33070866141732286
          },
          {
            "number": 2,
            "time": 61.23374999999986,
            "value": 0.33070866141732286
          },
          {
            "number": 2,
            "time": 61.23437499999986,
            "value": 0.3228346456692913
          },
          {
            "number": 2,
            "time": 61.23499999999986,
            "value": 0.3228346456692913
          },
          {
            "number": 2,
            "time": 61.23562499999986,
            "value": 0.3228346456692913
          },
          {
            "number": 2,
            "time": 61.236249999999856,
            "value": 0.3228346456692913
          },
          {
            "number": 2,
            "time": 61.236874999999856,
            "value": 0.3228346456692913
          },
          {
            "number": 2,
            "time": 61.237499999999855,
            "value": 0.3228346456692913
          },
          {
            "number": 2,
            "time": 61.238124999999854,
            "value": 0.3228346456692913
          },
          {
            "number": 2,
            "time": 61.238749999999854,
            "value": 0.31496062992125984
          },
          {
            "number": 2,
            "time": 61.23937499999985,
            "value": 0.31496062992125984
          },
          {
            "number": 2,
            "time": 61.23999999999985,
            "value": 0.31496062992125984
          },
          {
            "number": 2,
            "time": 61.24062499999985,
            "value": 0.31496062992125984
          },
          {
            "number": 2,
            "time": 61.24124999999985,
            "value": 0.31496062992125984
          },
          {
            "number": 2,
            "time": 61.24187499999985,
            "value": 0.31496062992125984
          },
          {
            "number": 2,
            "time": 61.24249999999985,
            "value": 0.31496062992125984
          },
          {
            "number": 2,
            "time": 61.24312499999985,
            "value": 0.31496062992125984
          },
          {
            "number": 2,
            "time": 61.24374999999985,
            "value": 0.30708661417322836
          },
          {
            "number": 2,
            "time": 61.24437499999985,
            "value": 0.30708661417322836
          },
          {
            "number": 2,
            "time": 61.24499999999985,
            "value": 0.30708661417322836
          },
          {
            "number": 2,
            "time": 61.24562499999985,
            "value": 0.30708661417322836
          },
          {
            "number": 2,
            "time": 61.24624999999985,
            "value": 0.30708661417322836
          },
          {
            "number": 2,
            "time": 61.24687499999985,
            "value": 0.30708661417322836
          },
          {
            "number": 2,
            "time": 61.247499999999846,
            "value": 0.30708661417322836
          },
          {
            "number": 2,
            "time": 61.248124999999845,
            "value": 0.2992125984251969
          },
          {
            "number": 2,
            "time": 61.248749999999845,
            "value": 0.2992125984251969
          },
          {
            "number": 2,
            "time": 61.249374999999844,
            "value": 0.2992125984251969
          },
          {
            "number": 2,
            "time": 61.249999999999844,
            "value": 0.2992125984251969
          },
          {
            "number": 2,
            "time": 61.25062499999984,
            "value": 0.2992125984251969
          },
          {
            "number": 2,
            "time": 61.25124999999984,
            "value": 0.2992125984251969
          },
          {
            "number": 2,
            "time": 61.25187499999984,
            "value": 0.2992125984251969
          },
          {
            "number": 2,
            "time": 61.25249999999984,
            "value": 0.29133858267716534
          },
          {
            "number": 2,
            "time": 61.25312499999984,
            "value": 0.29133858267716534
          },
          {
            "number": 2,
            "time": 61.25374999999984,
            "value": 0.29133858267716534
          },
          {
            "number": 2,
            "time": 61.25437499999984,
            "value": 0.29133858267716534
          },
          {
            "number": 2,
            "time": 61.25499999999984,
            "value": 0.29133858267716534
          },
          {
            "number": 2,
            "time": 61.25562499999984,
            "value": 0.29133858267716534
          },
          {
            "number": 2,
            "time": 61.25624999999984,
            "value": 0.29133858267716534
          },
          {
            "number": 2,
            "time": 61.25687499999984,
            "value": 0.28346456692913385
          },
          {
            "number": 2,
            "time": 61.25749999999984,
            "value": 0.28346456692913385
          },
          {
            "number": 2,
            "time": 61.258124999999836,
            "value": 0.28346456692913385
          },
          {
            "number": 2,
            "time": 61.258749999999836,
            "value": 0.28346456692913385
          },
          {
            "number": 2,
            "time": 61.259374999999835,
            "value": 0.28346456692913385
          },
          {
            "number": 2,
            "time": 61.259999999999835,
            "value": 0.28346456692913385
          },
          {
            "number": 2,
            "time": 61.260624999999834,
            "value": 0.28346456692913385
          },
          {
            "number": 2,
            "time": 61.26124999999983,
            "value": 0.28346456692913385
          },
          {
            "number": 2,
            "time": 61.26187499999983,
            "value": 0.2755905511811024
          },
          {
            "number": 2,
            "time": 61.26249999999983,
            "value": 0.2755905511811024
          },
          {
            "number": 2,
            "time": 61.26312499999983,
            "value": 0.2755905511811024
          },
          {
            "number": 2,
            "time": 61.26374999999983,
            "value": 0.2755905511811024
          },
          {
            "number": 2,
            "time": 61.26437499999983,
            "value": 0.2755905511811024
          },
          {
            "number": 2,
            "time": 61.26499999999983,
            "value": 0.2755905511811024
          },
          {
            "number": 2,
            "time": 61.26562499999983,
            "value": 0.2755905511811024
          },
          {
            "number": 2,
            "time": 61.26624999999983,
            "value": 0.2677165354330709
          },
          {
            "number": 2,
            "time": 61.26687499999983,
            "value": 0.2677165354330709
          },
          {
            "number": 2,
            "time": 61.26749999999983,
            "value": 0.2677165354330709
          },
          {
            "number": 2,
            "time": 61.26812499999983,
            "value": 0.2677165354330709
          },
          {
            "number": 2,
            "time": 61.26874999999983,
            "value": 0.2677165354330709
          },
          {
            "number": 2,
            "time": 61.269374999999826,
            "value": 0.2677165354330709
          },
          {
            "number": 2,
            "time": 61.269999999999825,
            "value": 0.2677165354330709
          },
          {
            "number": 2,
            "time": 61.270624999999825,
            "value": 0.25984251968503935
          },
          {
            "number": 2,
            "time": 61.271249999999824,
            "value": 0.25984251968503935
          },
          {
            "number": 2,
            "time": 61.271874999999824,
            "value": 0.25984251968503935
          },
          {
            "number": 2,
            "time": 61.27249999999982,
            "value": 0.25984251968503935
          },
          {
            "number": 2,
            "time": 61.27312499999982,
            "value": 0.25984251968503935
          },
          {
            "number": 2,
            "time": 61.27374999999982,
            "value": 0.25984251968503935
          },
          {
            "number": 2,
            "time": 61.27437499999982,
            "value": 0.25984251968503935
          },
          {
            "number": 2,
            "time": 61.49999999999982,
            "value": 0.25984251968503935
          },
          {
            "number": 2,
            "time": 61.64999999999982,
            "value": 0.3858267716535433
          },
          {
            "number": 2,
            "time": 61.79999999999983,
            "value": 0.3858267716535433
          },
          {
            "number": 2,
            "time": 61.94999999999983,
            "value": 0.3858267716535433
          },
          {
            "number": 2,
            "time": 62.09999999999984,
            "value": 0.3858267716535433
          },
          {
            "number": 2,
            "time": 62.54999999999984,
            "value": 0.3858267716535433
          },
          {
            "number": 2,
            "time": 62.69999999999985,
            "value": 0.3858267716535433
          },
          {
            "number": 2,
            "time": 62.84999999999985,
            "value": 0.3858267716535433
          },
          {
            "number": 2,
            "time": 62.99999999999986,
            "value": 0.3858267716535433
          },
          {
            "number": 2,
            "time": 63.44999999999986,
            "value": 0.3858267716535433
          },
          {
            "number": 2,
            "time": 63.599999999999866,
            "value": 0.3858267716535433
          },
          {
            "number": 2,
            "time": 63.74999999999987,
            "value": 0.3858267716535433
          },
          {
            "number": 2,
            "time": 63.89999999999988,
            "value": 0.3858267716535433
          },
          {
            "number": 2,
            "time": 64.34999999999988,
            "value": 0.3858267716535433
          },
          {
            "number": 2,
            "time": 64.49999999999989,
            "value": 0.3858267716535433
          },
          {
            "number": 2,
            "time": 64.64999999999989,
            "value": 0.3858267716535433
          },
          {
            "number": 2,
            "time": 64.7999999999999,
            "value": 0.3858267716535433
          },
          {
            "number": 2,
            "time": 65.2499999999999,
            "value": 0.3858267716535433
          },
          {
            "number": 2,
            "time": 65.3999999999999,
            "value": 0.3858267716535433
          },
          {
            "number": 2,
            "time": 65.54999999999991,
            "value": 0.3858267716535433
          },
          {
            "number": 2,
            "time": 65.69999999999992,
            "value": 0.3858267716535433
          },
          {
            "number": 2,
            "time": 66.14999999999992,
            "value": 0.3858267716535433
          },
          {
            "number": 2,
            "time": 66.29999999999993,
            "value": 0.3858267716535433
          },
          {
            "number": 2,
            "time": 66.44999999999993,
            "value": 0.3858267716535433
          },
          {
            "number": 2,
            "time": 66.59999999999994,
            "value": 0.3858267716535433
          },
          {
            "number": 2,
            "time": 67.04999999999994,
            "value": 0.3858267716535433
          },
          {
            "number": 2,
            "time": 67.19999999999995,
            "value": 0.3858267716535433
          },
          {
            "number": 2,
            "time": 67.34999999999995,
            "value": 0.3858267716535433
          },
          {
            "number": 2,
            "time": 67.49999999999996,
            "value": 0.3858267716535433
          },
          {
            "number": 2,
            "time": 67.94999999999996,
            "value": 0.3858267716535433
          },
          {
            "number": 2,
            "time": 68.09999999999997,
            "value": 0.3858267716535433
          },
          {
            "number": 2,
            "time": 68.24999999999997,
            "value": 0.3858267716535433
          },
          {
            "number": 2,
            "time": 68.39999999999998,
            "value": 0.3858267716535433
          },
          {
            "number": 2,
            "time": 68.84999999999998,
            "value": 0.3858267716535433
          },
          {
            "number": 2,
            "time": 69.74999999999999,
            "value": 0.3858267716535433
          },
          {
            "number": 2,
            "time": 70.19999999999999,
            "value": 0.3858267716535433
          },
          {
            "number": 2,
            "time": 70.64999999999999,
            "value": 0.3858267716535433
          },
          {
            "number": 2,
            "time": 71.1,
            "value": 0.3858267716535433
          },
          {
            "number": 2,
            "time": 71.39999999999999,
            "value": 0.3858267716535433
          },
          {
            "number": 2,
            "time": 71.475,
            "value": 0.3858267716535433
          },
          {
            "number": 2,
            "time": 71.55,
            "value": 0.3858267716535433
          },
          {
            "number": 2,
            "time": 72,
            "value": 0.3858267716535433
          },
          {
            "number": 2,
            "time": 72.45,
            "value": 0.3858267716535433
          },
          {
            "number": 2,
            "time": 72.9,
            "value": 0.3858267716535433
          },
          {
            "number": 2,
            "time": 73.35000000000001,
            "value": 0.3858267716535433
          },
          {
            "number": 2,
            "time": 73.80000000000001,
            "value": 0.3858267716535433
          },
          {
            "number": 2,
            "time": 74.25000000000001,
            "value": 0.3858267716535433
          },
          {
            "number": 2,
            "time": 75.15000000000002,
            "value": 0.3858267716535433
          },
          {
            "number": 2,
            "time": 75.30000000000003,
            "value": 0.3858267716535433
          },
          {
            "number": 2,
            "time": 75.45000000000003,
            "value": 0.3858267716535433
          },
          {
            "number": 2,
            "time": 75.60000000000004,
            "value": 0.3858267716535433
          },
          {
            "number": 2,
            "time": 75.75000000000004,
            "value": 0.3858267716535433
          },
          {
            "number": 2,
            "time": 75.82500000000005,
            "value": 0.3858267716535433
          },
          {
            "number": 2,
            "time": 75.90000000000003,
            "value": 0.3858267716535433
          },
          {
            "number": 2,
            "time": 97.80000000000004,
            "value": 0.3858267716535433
          },
          {
            "number": 2,
            "time": 97.95000000000005,
            "value": 0.3858267716535433
          },
          {
            "number": 2,
            "time": 98.10000000000005,
            "value": 0.3858267716535433
          },
          {
            "number": 2,
            "time": 98.25000000000006,
            "value": 0.3858267716535433
          },
          {
            "number": 2,
            "time": 98.40000000000006,
            "value": 0.3858267716535433
          },
          {
            "number": 2,
            "time": 98.55000000000007,
            "value": 0.3858267716535433
          },
          {
            "number": 2,
            "time": 98.70000000000007,
            "value": 0.3858267716535433
          },
          {
            "number": 2,
            "time": 98.85000000000008,
            "value": 0.3858267716535433
          },
          {
            "number": 2,
            "time": 99.00000000000009,
            "value": 0.3858267716535433
          },
          {
            "number": 2,
            "time": 99.15000000000009,
            "value": 0.3858267716535433
          },
          {
            "number": 2,
            "time": 99.3000000000001,
            "value": 0.3858267716535433
          },
          {
            "number": 2,
            "time": 99.4500000000001,
            "value": 0.3858267716535433
          },
          {
            "number": 2,
            "time": 99.60000000000011,
            "value": 0.3858267716535433
          },
          {
            "number": 2,
            "time": 99.75000000000011,
            "value": 0.3858267716535433
          },
          {
            "number": 2,
            "time": 99.90000000000012,
            "value": 0.3858267716535433
          },
          {
            "number": 2,
            "time": 100.05000000000013,
            "value": 0.3858267716535433
          },
          {
            "number": 2,
            "time": 100.20000000000013,
            "value": 0.3858267716535433
          },
          {
            "number": 2,
            "time": 100.35000000000014,
            "value": 0.3858267716535433
          },
          {
            "number": 2,
            "time": 100.65000000000015,
            "value": 0.3858267716535433
          },
          {
            "number": 2,
            "time": 100.80000000000015,
            "value": 0.3858267716535433
          },
          {
            "number": 2,
            "time": 100.95000000000016,
            "value": 0.3858267716535433
          },
          {
            "number": 2,
            "time": 101.10000000000016,
            "value": 0.3858267716535433
          },
          {
            "number": 2,
            "time": 101.25000000000017,
            "value": 0.3858267716535433
          },
          {
            "number": 2,
            "time": 101.40000000000018,
            "value": 0.3858267716535433
          },
          {
            "number": 2,
            "time": 101.55000000000018,
            "value": 0.3858267716535433
          },
          {
            "number": 2,
            "time": 101.70000000000019,
            "value": 0.3858267716535433
          },
          {
            "number": 2,
            "time": 101.8500000000002,
            "value": 0.3858267716535433
          },
          {
            "number": 2,
            "time": 102.0000000000002,
            "value": 0.3858267716535433
          },
          {
            "number": 2,
            "time": 102.1500000000002,
            "value": 0.3858267716535433
          },
          {
            "number": 2,
            "time": 102.30000000000021,
            "value": 0.3858267716535433
          },
          {
            "number": 2,
            "time": 102.37500000000021,
            "value": 0.3858267716535433
          },
          {
            "number": 2,
            "time": 102.4500000000002,
            "value": 0.3858267716535433
          },
          {
            "number": 2,
            "time": 102.60000000000021,
            "value": 0.3858267716535433
          },
          {
            "number": 2,
            "time": 102.75000000000021,
            "value": 0.3858267716535433
          },
          {
            "number": 2,
            "time": 102.90000000000022,
            "value": 0.3858267716535433
          },
          {
            "number": 2,
            "time": 103.05000000000022,
            "value": 0.3858267716535433
          },
          {
            "number": 2,
            "time": 103.20000000000023,
            "value": 0.3858267716535433
          },
          {
            "number": 2,
            "time": 103.27500000000023,
            "value": 0.3858267716535433
          },
          {
            "number": 2,
            "time": 103.35000000000022,
            "value": 0.3858267716535433
          },
          {
            "number": 2,
            "time": 103.50000000000023,
            "value": 0.3858267716535433
          },
          {
            "number": 2,
            "time": 104.40000000000023,
            "value": 0.3858267716535433
          },
          {
            "number": 2,
            "time": 105.30000000000024,
            "value": 0.3858267716535433
          }
        ],
        "7": [
          {
            "number": 7,
            "time": 0,
            "value": 0.7874015748031497
          },
          {
            "number": 7,
            "time": 0,
            "value": 0.7874015748031497
          },
          {
            "number": 7,
            "time": 0,
            "value": 0.7874015748031497
          }
        ],
        "10": [
          {
            "number": 10,
            "time": 0,
            "value": 0.5039370078740157
          },
          {
            "number": 10,
            "time": 0,
            "value": 0.5039370078740157
          },
          {
            "number": 10,
            "time": 0,
            "value": 0.5039370078740157
          }
        ],
        "91": [
          {
            "number": 91,
            "time": 0,
            "value": 0
          },
          {
            "number": 91,
            "time": 0,
            "value": 0
          },
          {
            "number": 91,
            "time": 0,
            "value": 0
          }
        ],
        "93": [
          {
            "number": 93,
            "time": 0,
            "value": 0
          },
          {
            "number": 93,
            "time": 0,
            "value": 0
          },
          {
            "number": 93,
            "time": 0,
            "value": 0
          }
        ],
        "121": [
          {
            "number": 121,
            "time": 0,
            "value": 0
          },
          {
            "number": 121,
            "time": 0,
            "value": 0
          },
          {
            "number": 121,
            "time": 0,
            "value": 0
          }
        ]
      },
      "id": 1,
      "name": "Violin 2",
      "instrumentNumber": 44,
      "instrument": "tremolo strings",
      "instrumentFamily": "strings",
      "channelNumber": 2,
      "isPercussion": false
    },
    {
      "startTime": 6,
      "duration": 106.19937499999925,
      "length": 169,
      "notes": [
        {
          "name": "A4",
          "midi": 69,
          "time": 6,
          "velocity": 0.5748031496062992,
          "duration": 1.7993750000000386
        },
        {
          "name": "A4",
          "midi": 69,
          "time": 10.650000000000038,
          "velocity": 0.5748031496062992,
          "duration": 1.6493749999999352
        },
        {
          "name": "A#4",
          "midi": 70,
          "time": 13.499999999999973,
          "velocity": 0.5748031496062992,
          "duration": 1.4993749999999189
        },
        {
          "name": "E4",
          "midi": 64,
          "time": 14.999999999999892,
          "velocity": 0.6299212598425197,
          "duration": 1.4993750000000023
        },
        {
          "name": "G4",
          "midi": 67,
          "time": 16.499999999999893,
          "velocity": 0.9448818897637795,
          "duration": 2.9993749999998656
        },
        {
          "name": "A4",
          "midi": 69,
          "time": 19.49999999999976,
          "velocity": 0.9448818897637795,
          "duration": 1.499374999999933
        },
        {
          "name": "A4",
          "midi": 69,
          "time": 21.74999999999969,
          "velocity": 0.5039370078740157,
          "duration": 0.14937499999999915
        },
        {
          "name": "G4",
          "midi": 67,
          "time": 21.89999999999969,
          "velocity": 0.5039370078740157,
          "duration": 0.14937499999999915
        },
        {
          "name": "F4",
          "midi": 65,
          "time": 22.049999999999688,
          "velocity": 0.5039370078740157,
          "duration": 0.14937499999999915
        },
        {
          "name": "E4",
          "midi": 64,
          "time": 22.199999999999687,
          "velocity": 0.5039370078740157,
          "duration": 0.14937499999999915
        },
        {
          "name": "F4",
          "midi": 65,
          "time": 22.349999999999685,
          "velocity": 0.5039370078740157,
          "duration": 0.14937499999999915
        },
        {
          "name": "G4",
          "midi": 67,
          "time": 22.499999999999684,
          "velocity": 0.5039370078740157,
          "duration": 1.4993750000000006
        },
        {
          "name": "A#4",
          "midi": 70,
          "time": 24.749999999999684,
          "velocity": 0.5039370078740157,
          "duration": 0.14937499999999915
        },
        {
          "name": "A4",
          "midi": 69,
          "time": 24.899999999999682,
          "velocity": 0.5039370078740157,
          "duration": 0.14937499999999915
        },
        {
          "name": "G4",
          "midi": 67,
          "time": 25.04999999999968,
          "velocity": 0.5039370078740157,
          "duration": 0.14937499999999915
        },
        {
          "name": "F4",
          "midi": 65,
          "time": 25.19999999999968,
          "velocity": 0.5039370078740157,
          "duration": 0.14937499999999915
        },
        {
          "name": "E4",
          "midi": 64,
          "time": 25.349999999999678,
          "velocity": 0.5039370078740157,
          "duration": 0.14937499999999915
        },
        {
          "name": "D4",
          "midi": 62,
          "time": 25.499999999999677,
          "velocity": 0.5039370078740157,
          "duration": 0.14937499999999915
        },
        {
          "name": "D4",
          "midi": 62,
          "time": 32.849999999999675,
          "velocity": 0.7559055118110236,
          "duration": 0.8993749999999352
        },
        {
          "name": "G4",
          "midi": 67,
          "time": 33.74999999999961,
          "velocity": 0.5039370078740157,
          "duration": 0.4493750000000034
        },
        {
          "name": "A4",
          "midi": 69,
          "time": 34.19999999999961,
          "velocity": 0.5039370078740157,
          "duration": 0.4493750000000034
        },
        {
          "name": "D4",
          "midi": 62,
          "time": 34.649999999999615,
          "velocity": 0.5039370078740157,
          "duration": 0.8993749999999991
        },
        {
          "name": "G4",
          "midi": 67,
          "time": 35.54999999999961,
          "velocity": 0.5039370078740157,
          "duration": 0.4493750000000034
        },
        {
          "name": "A4",
          "midi": 69,
          "time": 35.999999999999616,
          "velocity": 0.5039370078740157,
          "duration": 0.4493750000000034
        },
        {
          "name": "C5",
          "midi": 72,
          "time": 36.44999999999962,
          "velocity": 0.5039370078740157,
          "duration": 0.8993749999999991
        },
        {
          "name": "F5",
          "midi": 77,
          "time": 37.34999999999962,
          "velocity": 0.5039370078740157,
          "duration": 0.4493750000000034
        },
        {
          "name": "C#5",
          "midi": 73,
          "time": 37.79999999999962,
          "velocity": 0.5039370078740157,
          "duration": 0.4493750000000034
        },
        {
          "name": "E5",
          "midi": 76,
          "time": 38.24999999999962,
          "velocity": 0.5039370078740157,
          "duration": 0.8993749999999991
        },
        {
          "name": "D5",
          "midi": 74,
          "time": 39.14999999999962,
          "velocity": 0.7559055118110236,
          "duration": 0.2993749999999338
        },
        {
          "name": "G4",
          "midi": 67,
          "time": 39.449999999999555,
          "velocity": 0.5039370078740157,
          "duration": 0.14937499999999915
        },
        {
          "name": "A4",
          "midi": 69,
          "time": 39.599999999999554,
          "velocity": 0.7559055118110236,
          "duration": 0.2993749999999338
        },
        {
          "name": "E4",
          "midi": 64,
          "time": 39.89999999999949,
          "velocity": 0.5039370078740157,
          "duration": 0.14937499999999915
        },
        {
          "name": "D4",
          "midi": 62,
          "time": 40.049999999999486,
          "velocity": 0.5039370078740157,
          "duration": 0.8993749999999991
        },
        {
          "name": "G4",
          "midi": 67,
          "time": 40.949999999999484,
          "velocity": 0.5039370078740157,
          "duration": 0.4493750000000034
        },
        {
          "name": "A4",
          "midi": 69,
          "time": 41.39999999999949,
          "velocity": 0.5039370078740157,
          "duration": 0.4493750000000034
        },
        {
          "name": "D4",
          "midi": 62,
          "time": 41.84999999999949,
          "velocity": 0.5039370078740157,
          "duration": 0.8993749999999991
        },
        {
          "name": "G4",
          "midi": 67,
          "time": 42.74999999999949,
          "velocity": 0.5039370078740157,
          "duration": 0.4493750000000034
        },
        {
          "name": "A4",
          "midi": 69,
          "time": 43.19999999999949,
          "velocity": 0.5039370078740157,
          "duration": 0.4493750000000034
        },
        {
          "name": "C5",
          "midi": 72,
          "time": 43.649999999999494,
          "velocity": 0.5039370078740157,
          "duration": 0.8993749999999991
        },
        {
          "name": "F5",
          "midi": 77,
          "time": 44.54999999999949,
          "velocity": 0.5039370078740157,
          "duration": 0.4493750000000034
        },
        {
          "name": "C#5",
          "midi": 73,
          "time": 44.999999999999496,
          "velocity": 0.5039370078740157,
          "duration": 0.4493750000000034
        },
        {
          "name": "E5",
          "midi": 76,
          "time": 45.4499999999995,
          "velocity": 0.5039370078740157,
          "duration": 0.8993749999999991
        },
        {
          "name": "A4",
          "midi": 69,
          "time": 46.3499999999995,
          "velocity": 0.5039370078740157,
          "duration": 0.8993749999999991
        },
        {
          "name": "D4",
          "midi": 62,
          "time": 47.249999999999496,
          "velocity": 0.5039370078740157,
          "duration": 1.349375000000002
        },
        {
          "name": "C4",
          "midi": 60,
          "time": 48.5999999999995,
          "velocity": 0.5039370078740157,
          "duration": 0.4493750000000034
        },
        {
          "name": "A#3",
          "midi": 58,
          "time": 49.0499999999995,
          "velocity": 0.5039370078740157,
          "duration": 1.7993749999999977
        },
        {
          "name": "G3",
          "midi": 55,
          "time": 50.8499999999995,
          "velocity": 0.5039370078740157,
          "duration": 1.7993749999999977
        },
        {
          "name": "F3",
          "midi": 53,
          "time": 52.649999999999494,
          "velocity": 0.5039370078740157,
          "duration": 0.8993749999999991
        },
        {
          "name": "F4",
          "midi": 65,
          "time": 53.54999999999949,
          "velocity": 0.7559055118110236,
          "duration": 0.2993749999999338
        },
        {
          "name": "F4",
          "midi": 65,
          "time": 53.849999999999426,
          "velocity": 0.5039370078740157,
          "duration": 0.14937499999999915
        },
        {
          "name": "E4",
          "midi": 64,
          "time": 53.999999999999424,
          "velocity": 0.7559055118110236,
          "duration": 0.2993749999999338
        },
        {
          "name": "E4",
          "midi": 64,
          "time": 54.29999999999936,
          "velocity": 0.5039370078740157,
          "duration": 0.14937499999999915
        },
        {
          "name": "D4",
          "midi": 62,
          "time": 54.449999999999356,
          "velocity": 0.5039370078740157,
          "duration": 1.7993749999999977
        },
        {
          "name": "A#3",
          "midi": 58,
          "time": 56.24999999999935,
          "velocity": 0.5039370078740157,
          "duration": 0.8993749999999991
        },
        {
          "name": "C4",
          "midi": 60,
          "time": 57.14999999999935,
          "velocity": 0.5039370078740157,
          "duration": 0.8993749999999991
        },
        {
          "name": "C5",
          "midi": 72,
          "time": 59.84999999999935,
          "velocity": 0.5039370078740157,
          "duration": 0.4493750000000034
        },
        {
          "name": "A#4",
          "midi": 70,
          "time": 60.29999999999935,
          "velocity": 0.5039370078740157,
          "duration": 0.4493750000000034
        },
        {
          "name": "A4",
          "midi": 69,
          "time": 60.74999999999935,
          "velocity": 0.7559055118110236,
          "duration": 0.2993749999999409
        },
        {
          "name": "A4",
          "midi": 69,
          "time": 61.049999999999294,
          "velocity": 0.4645669291338583,
          "duration": 0.14937500000000625
        },
        {
          "name": "G4",
          "midi": 67,
          "time": 61.1999999999993,
          "velocity": 0.6692913385826772,
          "duration": 0.2993749999999409
        },
        {
          "name": "G4",
          "midi": 67,
          "time": 61.49999999999924,
          "velocity": 0.4094488188976378,
          "duration": 0.14937500000000625
        },
        {
          "name": "F4",
          "midi": 65,
          "time": 61.649999999999245,
          "velocity": 0.3858267716535433,
          "duration": 0.07437500000000341
        },
        {
          "name": "F4",
          "midi": 65,
          "time": 61.79999999999925,
          "velocity": 0.3858267716535433,
          "duration": 0.07437500000000341
        },
        {
          "name": "F4",
          "midi": 65,
          "time": 61.94999999999926,
          "velocity": 0.3858267716535433,
          "duration": 0.07437500000000341
        },
        {
          "name": "F4",
          "midi": 65,
          "time": 62.09999999999926,
          "velocity": 0.3858267716535433,
          "duration": 0.07437500000000341
        },
        {
          "name": "F4",
          "midi": 65,
          "time": 62.549999999999265,
          "velocity": 0.3858267716535433,
          "duration": 0.07437500000000341
        },
        {
          "name": "F4",
          "midi": 65,
          "time": 62.69999999999927,
          "velocity": 0.3858267716535433,
          "duration": 0.07437500000000341
        },
        {
          "name": "F4",
          "midi": 65,
          "time": 62.84999999999928,
          "velocity": 0.3858267716535433,
          "duration": 0.07437500000000341
        },
        {
          "name": "F4",
          "midi": 65,
          "time": 62.99999999999928,
          "velocity": 0.3858267716535433,
          "duration": 0.07437500000000341
        },
        {
          "name": "A#3",
          "midi": 58,
          "time": 63.449999999999285,
          "velocity": 0.3858267716535433,
          "duration": 0.07437500000000341
        },
        {
          "name": "A#3",
          "midi": 58,
          "time": 63.59999999999929,
          "velocity": 0.3858267716535433,
          "duration": 0.07437500000000341
        },
        {
          "name": "A#3",
          "midi": 58,
          "time": 63.7499999999993,
          "velocity": 0.3858267716535433,
          "duration": 0.07437500000000341
        },
        {
          "name": "A#3",
          "midi": 58,
          "time": 63.8999999999993,
          "velocity": 0.3858267716535433,
          "duration": 0.07437500000000341
        },
        {
          "name": "A#3",
          "midi": 58,
          "time": 64.34999999999931,
          "velocity": 0.3858267716535433,
          "duration": 0.07437500000000341
        },
        {
          "name": "A#3",
          "midi": 58,
          "time": 64.49999999999932,
          "velocity": 0.3858267716535433,
          "duration": 0.07437500000000341
        },
        {
          "name": "A#3",
          "midi": 58,
          "time": 64.64999999999932,
          "velocity": 0.3858267716535433,
          "duration": 0.07437500000000341
        },
        {
          "name": "A#3",
          "midi": 58,
          "time": 64.79999999999933,
          "velocity": 0.3858267716535433,
          "duration": 0.07437500000000341
        },
        {
          "name": "A#3",
          "midi": 58,
          "time": 65.24999999999933,
          "velocity": 0.3858267716535433,
          "duration": 0.07437500000000341
        },
        {
          "name": "A#3",
          "midi": 58,
          "time": 65.39999999999934,
          "velocity": 0.3858267716535433,
          "duration": 0.07437500000000341
        },
        {
          "name": "A#3",
          "midi": 58,
          "time": 65.54999999999934,
          "velocity": 0.3858267716535433,
          "duration": 0.07437500000000341
        },
        {
          "name": "A#3",
          "midi": 58,
          "time": 65.69999999999935,
          "velocity": 0.3858267716535433,
          "duration": 0.07437500000000341
        },
        {
          "name": "C4",
          "midi": 60,
          "time": 66.14999999999935,
          "velocity": 0.3858267716535433,
          "duration": 0.07437500000000341
        },
        {
          "name": "C4",
          "midi": 60,
          "time": 66.29999999999936,
          "velocity": 0.3858267716535433,
          "duration": 0.07437500000000341
        },
        {
          "name": "C4",
          "midi": 60,
          "time": 66.44999999999936,
          "velocity": 0.3858267716535433,
          "duration": 0.07437500000000341
        },
        {
          "name": "C4",
          "midi": 60,
          "time": 66.59999999999937,
          "velocity": 0.3858267716535433,
          "duration": 0.07437500000000341
        },
        {
          "name": "C4",
          "midi": 60,
          "time": 67.04999999999937,
          "velocity": 0.3858267716535433,
          "duration": 0.07437500000000341
        },
        {
          "name": "C4",
          "midi": 60,
          "time": 67.19999999999938,
          "velocity": 0.3858267716535433,
          "duration": 0.07437500000000341
        },
        {
          "name": "C4",
          "midi": 60,
          "time": 67.34999999999938,
          "velocity": 0.3858267716535433,
          "duration": 0.07437500000000341
        },
        {
          "name": "C4",
          "midi": 60,
          "time": 67.49999999999939,
          "velocity": 0.3858267716535433,
          "duration": 0.07437500000000341
        },
        {
          "name": "C4",
          "midi": 60,
          "time": 67.94999999999939,
          "velocity": 0.3858267716535433,
          "duration": 0.07437500000000341
        },
        {
          "name": "C4",
          "midi": 60,
          "time": 68.0999999999994,
          "velocity": 0.3858267716535433,
          "duration": 0.07437500000000341
        },
        {
          "name": "C4",
          "midi": 60,
          "time": 68.2499999999994,
          "velocity": 0.3858267716535433,
          "duration": 0.07437500000000341
        },
        {
          "name": "C4",
          "midi": 60,
          "time": 68.39999999999941,
          "velocity": 0.3858267716535433,
          "duration": 0.07437500000000341
        },
        {
          "name": "F4",
          "midi": 65,
          "time": 68.84999999999941,
          "velocity": 0.3858267716535433,
          "duration": 0.07437500000000341
        },
        {
          "name": "F4",
          "midi": 65,
          "time": 68.99999999999942,
          "velocity": 0.3858267716535433,
          "duration": 0.07437500000000341
        },
        {
          "name": "F4",
          "midi": 65,
          "time": 69.14999999999942,
          "velocity": 0.3858267716535433,
          "duration": 0.07437500000000341
        },
        {
          "name": "F4",
          "midi": 65,
          "time": 69.29999999999943,
          "velocity": 0.3858267716535433,
          "duration": 0.07437500000000341
        },
        {
          "name": "F4",
          "midi": 65,
          "time": 69.74999999999943,
          "velocity": 0.3858267716535433,
          "duration": 0.07437500000000341
        },
        {
          "name": "F4",
          "midi": 65,
          "time": 69.89999999999944,
          "velocity": 0.3858267716535433,
          "duration": 0.07437500000000341
        },
        {
          "name": "F4",
          "midi": 65,
          "time": 70.04999999999944,
          "velocity": 0.3858267716535433,
          "duration": 0.07437500000000341
        },
        {
          "name": "F4",
          "midi": 65,
          "time": 70.19999999999945,
          "velocity": 0.3858267716535433,
          "duration": 0.07437500000000341
        },
        {
          "name": "A#3",
          "midi": 58,
          "time": 70.64999999999945,
          "velocity": 0.3858267716535433,
          "duration": 0.07437500000000341
        },
        {
          "name": "A#3",
          "midi": 58,
          "time": 70.79999999999946,
          "velocity": 0.3858267716535433,
          "duration": 0.07437500000000341
        },
        {
          "name": "A#3",
          "midi": 58,
          "time": 70.94999999999946,
          "velocity": 0.3858267716535433,
          "duration": 0.07437500000000341
        },
        {
          "name": "A#3",
          "midi": 58,
          "time": 71.09999999999947,
          "velocity": 0.3858267716535433,
          "duration": 0.07437500000000341
        },
        {
          "name": "A#3",
          "midi": 58,
          "time": 71.54999999999947,
          "velocity": 0.3858267716535433,
          "duration": 0.07437500000000341
        },
        {
          "name": "A#3",
          "midi": 58,
          "time": 71.69999999999948,
          "velocity": 0.3858267716535433,
          "duration": 0.07437500000000341
        },
        {
          "name": "A#3",
          "midi": 58,
          "time": 71.84999999999948,
          "velocity": 0.3858267716535433,
          "duration": 0.07437500000000341
        },
        {
          "name": "A#3",
          "midi": 58,
          "time": 71.99999999999949,
          "velocity": 0.3858267716535433,
          "duration": 0.07437500000000341
        },
        {
          "name": "A#3",
          "midi": 58,
          "time": 72.44999999999949,
          "velocity": 0.3858267716535433,
          "duration": 0.07437500000000341
        },
        {
          "name": "A#3",
          "midi": 58,
          "time": 72.5999999999995,
          "velocity": 0.3858267716535433,
          "duration": 0.07437500000000341
        },
        {
          "name": "A#3",
          "midi": 58,
          "time": 72.7499999999995,
          "velocity": 0.3858267716535433,
          "duration": 0.07437500000000341
        },
        {
          "name": "A#3",
          "midi": 58,
          "time": 72.89999999999951,
          "velocity": 0.3858267716535433,
          "duration": 0.07437500000000341
        },
        {
          "name": "C#4",
          "midi": 61,
          "time": 73.34999999999951,
          "velocity": 0.3858267716535433,
          "duration": 0.07437500000000341
        },
        {
          "name": "C#4",
          "midi": 61,
          "time": 73.49999999999952,
          "velocity": 0.3858267716535433,
          "duration": 0.07437500000000341
        },
        {
          "name": "C#4",
          "midi": 61,
          "time": 73.64999999999952,
          "velocity": 0.3858267716535433,
          "duration": 0.07437500000000341
        },
        {
          "name": "C#4",
          "midi": 61,
          "time": 73.79999999999953,
          "velocity": 0.3858267716535433,
          "duration": 0.07437500000000341
        },
        {
          "name": "F4",
          "midi": 65,
          "time": 74.24999999999953,
          "velocity": 0.3858267716535433,
          "duration": 0.07437500000000341
        },
        {
          "name": "F4",
          "midi": 65,
          "time": 74.39999999999954,
          "velocity": 0.3858267716535433,
          "duration": 0.07437500000000341
        },
        {
          "name": "F4",
          "midi": 65,
          "time": 74.54999999999954,
          "velocity": 0.3858267716535433,
          "duration": 0.07437500000000341
        },
        {
          "name": "F4",
          "midi": 65,
          "time": 74.69999999999955,
          "velocity": 0.3858267716535433,
          "duration": 0.07437500000000341
        },
        {
          "name": "A3",
          "midi": 57,
          "time": 75.14999999999955,
          "velocity": 0.3858267716535433,
          "duration": 0.07437500000000341
        },
        {
          "name": "A3",
          "midi": 57,
          "time": 75.29999999999956,
          "velocity": 0.3858267716535433,
          "duration": 0.07437500000000341
        },
        {
          "name": "A3",
          "midi": 57,
          "time": 75.44999999999956,
          "velocity": 0.3858267716535433,
          "duration": 0.07437500000000341
        },
        {
          "name": "A3",
          "midi": 57,
          "time": 75.59999999999957,
          "velocity": 0.3858267716535433,
          "duration": 0.07437500000000341
        },
        {
          "name": "A3",
          "midi": 57,
          "time": 75.74999999999957,
          "velocity": 0.3858267716535433,
          "duration": 0.07437500000000341
        },
        {
          "name": "A3",
          "midi": 57,
          "time": 75.82499999999958,
          "velocity": 0.3858267716535433,
          "duration": 0.036874999999994884
        },
        {
          "name": "A3",
          "midi": 57,
          "time": 75.89999999999957,
          "velocity": 0.3858267716535433,
          "duration": 0.07437500000000341
        },
        {
          "name": "A4",
          "midi": 69,
          "time": 82.04999999999957,
          "velocity": 0.5748031496062992,
          "duration": 1.7993749999999267
        },
        {
          "name": "A4",
          "midi": 69,
          "time": 86.69999999999949,
          "velocity": 0.5748031496062992,
          "duration": 1.6493749999999352
        },
        {
          "name": "A#4",
          "midi": 70,
          "time": 89.54999999999943,
          "velocity": 0.5748031496062992,
          "duration": 1.4993749999999295
        },
        {
          "name": "E4",
          "midi": 64,
          "time": 91.04999999999936,
          "velocity": 0.3858267716535433,
          "duration": 0.2993749999999977
        },
        {
          "name": "E4",
          "midi": 64,
          "time": 91.34999999999935,
          "velocity": 0.3858267716535433,
          "duration": 0.2993749999999977
        },
        {
          "name": "E4",
          "midi": 64,
          "time": 91.64999999999935,
          "velocity": 0.3858267716535433,
          "duration": 0.14937500000000625
        },
        {
          "name": "E4",
          "midi": 64,
          "time": 91.79999999999936,
          "velocity": 0.3858267716535433,
          "duration": 0.7493750000000006
        },
        {
          "name": "G4",
          "midi": 67,
          "time": 92.54999999999936,
          "velocity": 0.5748031496062992,
          "duration": 1.4993749999999295
        },
        {
          "name": "G4",
          "midi": 67,
          "time": 94.04999999999929,
          "velocity": 0.5748031496062992,
          "duration": 1.4993749999999295
        },
        {
          "name": "A4",
          "midi": 69,
          "time": 95.54999999999922,
          "velocity": 0.5748031496062992,
          "duration": 1.4993749999999295
        },
        {
          "name": "A4",
          "midi": 69,
          "time": 97.79999999999914,
          "velocity": 0.3858267716535433,
          "duration": 0.14937500000000625
        },
        {
          "name": "G4",
          "midi": 67,
          "time": 97.94999999999915,
          "velocity": 0.3858267716535433,
          "duration": 0.14937500000000625
        },
        {
          "name": "F4",
          "midi": 65,
          "time": 98.09999999999916,
          "velocity": 0.3858267716535433,
          "duration": 0.14937500000000625
        },
        {
          "name": "E4",
          "midi": 64,
          "time": 98.24999999999916,
          "velocity": 0.3858267716535433,
          "duration": 0.14937500000000625
        },
        {
          "name": "F4",
          "midi": 65,
          "time": 98.39999999999917,
          "velocity": 0.3858267716535433,
          "duration": 0.14937500000000625
        },
        {
          "name": "G4",
          "midi": 67,
          "time": 98.54999999999917,
          "velocity": 0.3858267716535433,
          "duration": 1.4993750000000006
        },
        {
          "name": "A3",
          "midi": 57,
          "time": 100.79999999999917,
          "velocity": 0.3858267716535433,
          "duration": 0.07437500000000341
        },
        {
          "name": "A3",
          "midi": 57,
          "time": 100.94999999999918,
          "velocity": 0.3858267716535433,
          "duration": 0.07437500000000341
        },
        {
          "name": "A3",
          "midi": 57,
          "time": 101.09999999999918,
          "velocity": 0.3858267716535433,
          "duration": 0.07437500000000341
        },
        {
          "name": "A3",
          "midi": 57,
          "time": 101.24999999999919,
          "velocity": 0.3858267716535433,
          "duration": 0.07437500000000341
        },
        {
          "name": "A3",
          "midi": 57,
          "time": 101.3999999999992,
          "velocity": 0.3858267716535433,
          "duration": 0.07437500000000341
        },
        {
          "name": "A3",
          "midi": 57,
          "time": 101.4749999999992,
          "velocity": 0.3858267716535433,
          "duration": 0.036874999999994884
        },
        {
          "name": "A3",
          "midi": 57,
          "time": 101.54999999999919,
          "velocity": 0.3858267716535433,
          "duration": 0.07437500000000341
        },
        {
          "name": "A3",
          "midi": 57,
          "time": 101.69999999999919,
          "velocity": 0.3858267716535433,
          "duration": 0.07437500000000341
        },
        {
          "name": "A3",
          "midi": 57,
          "time": 101.8499999999992,
          "velocity": 0.3858267716535433,
          "duration": 0.07437500000000341
        },
        {
          "name": "A3",
          "midi": 57,
          "time": 101.9999999999992,
          "velocity": 0.3858267716535433,
          "duration": 0.07437500000000341
        },
        {
          "name": "A3",
          "midi": 57,
          "time": 102.14999999999921,
          "velocity": 0.3858267716535433,
          "duration": 0.07437500000000341
        },
        {
          "name": "A3",
          "midi": 57,
          "time": 102.29999999999922,
          "velocity": 0.3858267716535433,
          "duration": 0.07437500000000341
        },
        {
          "name": "A3",
          "midi": 57,
          "time": 102.37499999999922,
          "velocity": 0.3858267716535433,
          "duration": 0.036874999999994884
        },
        {
          "name": "A3",
          "midi": 57,
          "time": 102.4499999999992,
          "velocity": 0.3858267716535433,
          "duration": 0.07437500000000341
        },
        {
          "name": "A3",
          "midi": 57,
          "time": 102.59999999999921,
          "velocity": 0.3858267716535433,
          "duration": 0.07437500000000341
        },
        {
          "name": "A3",
          "midi": 57,
          "time": 102.74999999999922,
          "velocity": 0.3858267716535433,
          "duration": 0.07437500000000341
        },
        {
          "name": "A3",
          "midi": 57,
          "time": 102.89999999999922,
          "velocity": 0.3858267716535433,
          "duration": 0.07437500000000341
        },
        {
          "name": "A3",
          "midi": 57,
          "time": 103.04999999999923,
          "velocity": 0.3858267716535433,
          "duration": 0.07437500000000341
        },
        {
          "name": "A3",
          "midi": 57,
          "time": 103.19999999999924,
          "velocity": 0.3858267716535433,
          "duration": 0.07437500000000341
        },
        {
          "name": "A3",
          "midi": 57,
          "time": 103.27499999999924,
          "velocity": 0.3858267716535433,
          "duration": 0.036874999999994884
        },
        {
          "name": "A3",
          "midi": 57,
          "time": 103.34999999999923,
          "velocity": 0.3858267716535433,
          "duration": 0.07437500000000341
        },
        {
          "name": "A#3",
          "midi": 58,
          "time": 103.49999999999923,
          "velocity": 0.3858267716535433,
          "duration": 1.799375000000012
        },
        {
          "name": "A#4",
          "midi": 70,
          "time": 103.49999999999923,
          "velocity": 0.3858267716535433,
          "duration": 1.799375000000012
        },
        {
          "name": "A3",
          "midi": 57,
          "time": 105.29999999999924,
          "velocity": 0.3858267716535433,
          "duration": 0.8993750000000063
        },
        {
          "name": "A4",
          "midi": 69,
          "time": 105.29999999999924,
          "velocity": 0.3858267716535433,
          "duration": 0.8993750000000063
        }
      ],
      "controlChanges": {
        "2": [
          {
            "number": 2,
            "time": 6,
            "value": 0.5748031496062992
          },
          {
            "number": 2,
            "time": 6.000625,
            "value": 0.5748031496062992
          },
          {
            "number": 2,
            "time": 6.001250000000001,
            "value": 0.5748031496062992
          },
          {
            "number": 2,
            "time": 6.001875000000001,
            "value": 0.5669291338582677
          },
          {
            "number": 2,
            "time": 6.002500000000001,
            "value": 0.5669291338582677
          },
          {
            "number": 2,
            "time": 6.003125000000002,
            "value": 0.5669291338582677
          },
          {
            "number": 2,
            "time": 6.003750000000002,
            "value": 0.5669291338582677
          },
          {
            "number": 2,
            "time": 6.004375000000002,
            "value": 0.5669291338582677
          },
          {
            "number": 2,
            "time": 6.005000000000003,
            "value": 0.5590551181102362
          },
          {
            "number": 2,
            "time": 6.005625000000003,
            "value": 0.5590551181102362
          },
          {
            "number": 2,
            "time": 6.006250000000003,
            "value": 0.5590551181102362
          },
          {
            "number": 2,
            "time": 6.0068750000000035,
            "value": 0.5590551181102362
          },
          {
            "number": 2,
            "time": 6.007500000000004,
            "value": 0.5590551181102362
          },
          {
            "number": 2,
            "time": 6.008125000000004,
            "value": 0.5511811023622047
          },
          {
            "number": 2,
            "time": 6.0087500000000045,
            "value": 0.5511811023622047
          },
          {
            "number": 2,
            "time": 6.009375000000005,
            "value": 0.5511811023622047
          },
          {
            "number": 2,
            "time": 6.010000000000005,
            "value": 0.5511811023622047
          },
          {
            "number": 2,
            "time": 6.010625000000005,
            "value": 0.5511811023622047
          },
          {
            "number": 2,
            "time": 6.011250000000006,
            "value": 0.5433070866141733
          },
          {
            "number": 2,
            "time": 6.011875000000006,
            "value": 0.5433070866141733
          },
          {
            "number": 2,
            "time": 6.012500000000006,
            "value": 0.5433070866141733
          },
          {
            "number": 2,
            "time": 6.013125000000007,
            "value": 0.5433070866141733
          },
          {
            "number": 2,
            "time": 6.013750000000007,
            "value": 0.5433070866141733
          },
          {
            "number": 2,
            "time": 6.014375000000007,
            "value": 0.5354330708661418
          },
          {
            "number": 2,
            "time": 6.015000000000008,
            "value": 0.5354330708661418
          },
          {
            "number": 2,
            "time": 6.015625000000008,
            "value": 0.5354330708661418
          },
          {
            "number": 2,
            "time": 6.016250000000008,
            "value": 0.5354330708661418
          },
          {
            "number": 2,
            "time": 6.016875000000009,
            "value": 0.5275590551181102
          },
          {
            "number": 2,
            "time": 6.017500000000009,
            "value": 0.5275590551181102
          },
          {
            "number": 2,
            "time": 6.018125000000009,
            "value": 0.5275590551181102
          },
          {
            "number": 2,
            "time": 6.01875000000001,
            "value": 0.5275590551181102
          },
          {
            "number": 2,
            "time": 6.01937500000001,
            "value": 0.5275590551181102
          },
          {
            "number": 2,
            "time": 6.02000000000001,
            "value": 0.5196850393700787
          },
          {
            "number": 2,
            "time": 6.0206250000000106,
            "value": 0.5196850393700787
          },
          {
            "number": 2,
            "time": 6.021250000000011,
            "value": 0.5196850393700787
          },
          {
            "number": 2,
            "time": 6.021875000000011,
            "value": 0.5196850393700787
          },
          {
            "number": 2,
            "time": 6.0225000000000115,
            "value": 0.5196850393700787
          },
          {
            "number": 2,
            "time": 6.023125000000012,
            "value": 0.5118110236220472
          },
          {
            "number": 2,
            "time": 6.023750000000012,
            "value": 0.5118110236220472
          },
          {
            "number": 2,
            "time": 6.0243750000000125,
            "value": 0.5118110236220472
          },
          {
            "number": 2,
            "time": 6.025000000000013,
            "value": 0.5118110236220472
          },
          {
            "number": 2,
            "time": 6.025625000000013,
            "value": 0.5118110236220472
          },
          {
            "number": 2,
            "time": 6.026250000000013,
            "value": 0.5039370078740157
          },
          {
            "number": 2,
            "time": 6.026875000000014,
            "value": 0.5039370078740157
          },
          {
            "number": 2,
            "time": 6.027500000000014,
            "value": 0.5039370078740157
          },
          {
            "number": 2,
            "time": 6.028125000000014,
            "value": 0.5039370078740157
          },
          {
            "number": 2,
            "time": 6.028750000000015,
            "value": 0.5039370078740157
          },
          {
            "number": 2,
            "time": 6.029375000000015,
            "value": 0.49606299212598426
          },
          {
            "number": 2,
            "time": 6.030000000000015,
            "value": 0.49606299212598426
          },
          {
            "number": 2,
            "time": 6.030625000000016,
            "value": 0.49606299212598426
          },
          {
            "number": 2,
            "time": 6.031250000000016,
            "value": 0.49606299212598426
          },
          {
            "number": 2,
            "time": 6.031875000000016,
            "value": 0.49606299212598426
          },
          {
            "number": 2,
            "time": 6.032500000000017,
            "value": 0.4881889763779528
          },
          {
            "number": 2,
            "time": 6.033125000000017,
            "value": 0.4881889763779528
          },
          {
            "number": 2,
            "time": 6.033750000000017,
            "value": 0.4881889763779528
          },
          {
            "number": 2,
            "time": 6.034375000000018,
            "value": 0.4881889763779528
          },
          {
            "number": 2,
            "time": 6.035000000000018,
            "value": 0.4881889763779528
          },
          {
            "number": 2,
            "time": 6.035625000000018,
            "value": 0.48031496062992124
          },
          {
            "number": 2,
            "time": 6.0362500000000185,
            "value": 0.48031496062992124
          },
          {
            "number": 2,
            "time": 6.036875000000019,
            "value": 0.48031496062992124
          },
          {
            "number": 2,
            "time": 6.037500000000019,
            "value": 0.48031496062992124
          },
          {
            "number": 2,
            "time": 6.0381250000000195,
            "value": 0.48031496062992124
          },
          {
            "number": 2,
            "time": 6.03875000000002,
            "value": 0.47244094488188976
          },
          {
            "number": 2,
            "time": 6.03937500000002,
            "value": 0.47244094488188976
          },
          {
            "number": 2,
            "time": 6.0400000000000205,
            "value": 0.47244094488188976
          },
          {
            "number": 2,
            "time": 6.040625000000021,
            "value": 0.47244094488188976
          },
          {
            "number": 2,
            "time": 6.041250000000021,
            "value": 0.47244094488188976
          },
          {
            "number": 2,
            "time": 6.041875000000021,
            "value": 0.4645669291338583
          },
          {
            "number": 2,
            "time": 6.042500000000022,
            "value": 0.4645669291338583
          },
          {
            "number": 2,
            "time": 6.043125000000022,
            "value": 0.4645669291338583
          },
          {
            "number": 2,
            "time": 6.043750000000022,
            "value": 0.4645669291338583
          },
          {
            "number": 2,
            "time": 6.044375000000023,
            "value": 0.4645669291338583
          },
          {
            "number": 2,
            "time": 6.045000000000023,
            "value": 0.4566929133858268
          },
          {
            "number": 2,
            "time": 6.045625000000023,
            "value": 0.4566929133858268
          },
          {
            "number": 2,
            "time": 6.046250000000024,
            "value": 0.4566929133858268
          },
          {
            "number": 2,
            "time": 6.046875000000024,
            "value": 0.4566929133858268
          },
          {
            "number": 2,
            "time": 6.047500000000024,
            "value": 0.44881889763779526
          },
          {
            "number": 2,
            "time": 6.048125000000025,
            "value": 0.44881889763779526
          },
          {
            "number": 2,
            "time": 6.048750000000025,
            "value": 0.44881889763779526
          },
          {
            "number": 2,
            "time": 6.049375000000025,
            "value": 0.44881889763779526
          },
          {
            "number": 2,
            "time": 6.050000000000026,
            "value": 0.44881889763779526
          },
          {
            "number": 2,
            "time": 6.050625000000026,
            "value": 0.4409448818897638
          },
          {
            "number": 2,
            "time": 6.051250000000026,
            "value": 0.4409448818897638
          },
          {
            "number": 2,
            "time": 6.0518750000000265,
            "value": 0.4409448818897638
          },
          {
            "number": 2,
            "time": 6.052500000000027,
            "value": 0.4409448818897638
          },
          {
            "number": 2,
            "time": 6.053125000000027,
            "value": 0.4409448818897638
          },
          {
            "number": 2,
            "time": 6.0537500000000275,
            "value": 0.4330708661417323
          },
          {
            "number": 2,
            "time": 6.054375000000028,
            "value": 0.4330708661417323
          },
          {
            "number": 2,
            "time": 6.055000000000028,
            "value": 0.4330708661417323
          },
          {
            "number": 2,
            "time": 6.0556250000000285,
            "value": 0.4330708661417323
          },
          {
            "number": 2,
            "time": 6.056250000000029,
            "value": 0.4330708661417323
          },
          {
            "number": 2,
            "time": 6.056875000000029,
            "value": 0.4251968503937008
          },
          {
            "number": 2,
            "time": 6.057500000000029,
            "value": 0.4251968503937008
          },
          {
            "number": 2,
            "time": 6.05812500000003,
            "value": 0.4251968503937008
          },
          {
            "number": 2,
            "time": 6.05875000000003,
            "value": 0.4251968503937008
          },
          {
            "number": 2,
            "time": 6.05937500000003,
            "value": 0.4251968503937008
          },
          {
            "number": 2,
            "time": 6.060000000000031,
            "value": 0.41732283464566927
          },
          {
            "number": 2,
            "time": 6.060625000000031,
            "value": 0.41732283464566927
          },
          {
            "number": 2,
            "time": 6.061250000000031,
            "value": 0.41732283464566927
          },
          {
            "number": 2,
            "time": 6.061875000000032,
            "value": 0.41732283464566927
          },
          {
            "number": 2,
            "time": 6.062500000000032,
            "value": 0.41732283464566927
          },
          {
            "number": 2,
            "time": 6.063125000000032,
            "value": 0.4094488188976378
          },
          {
            "number": 2,
            "time": 6.063750000000033,
            "value": 0.4094488188976378
          },
          {
            "number": 2,
            "time": 6.064375000000033,
            "value": 0.4094488188976378
          },
          {
            "number": 2,
            "time": 6.065000000000033,
            "value": 0.4094488188976378
          },
          {
            "number": 2,
            "time": 6.065625000000034,
            "value": 0.4094488188976378
          },
          {
            "number": 2,
            "time": 6.066250000000034,
            "value": 0.4015748031496063
          },
          {
            "number": 2,
            "time": 6.066875000000034,
            "value": 0.4015748031496063
          },
          {
            "number": 2,
            "time": 6.0675000000000345,
            "value": 0.4015748031496063
          },
          {
            "number": 2,
            "time": 6.068125000000035,
            "value": 0.4015748031496063
          },
          {
            "number": 2,
            "time": 6.068750000000035,
            "value": 0.4015748031496063
          },
          {
            "number": 2,
            "time": 6.0693750000000355,
            "value": 0.3937007874015748
          },
          {
            "number": 2,
            "time": 6.070000000000036,
            "value": 0.3937007874015748
          },
          {
            "number": 2,
            "time": 6.070625000000036,
            "value": 0.3937007874015748
          },
          {
            "number": 2,
            "time": 6.0712500000000365,
            "value": 0.3937007874015748
          },
          {
            "number": 2,
            "time": 6.071875000000037,
            "value": 0.3937007874015748
          },
          {
            "number": 2,
            "time": 6.072500000000037,
            "value": 0.3858267716535433
          },
          {
            "number": 2,
            "time": 6.073125000000037,
            "value": 0.3858267716535433
          },
          {
            "number": 2,
            "time": 6.073750000000038,
            "value": 0.3858267716535433
          },
          {
            "number": 2,
            "time": 6.074375000000038,
            "value": 0.3858267716535433
          },
          {
            "number": 2,
            "time": 6.300000000000038,
            "value": 0.3858267716535433
          },
          {
            "number": 2,
            "time": 6.750000000000038,
            "value": 0.3858267716535433
          },
          {
            "number": 2,
            "time": 7.050000000000038,
            "value": 0.3858267716535433
          },
          {
            "number": 2,
            "time": 7.500000000000038,
            "value": 0.3858267716535433
          },
          {
            "number": 2,
            "time": 10.650000000000038,
            "value": 0.5748031496062992
          },
          {
            "number": 2,
            "time": 10.650625000000037,
            "value": 0.5748031496062992
          },
          {
            "number": 2,
            "time": 10.651250000000037,
            "value": 0.5748031496062992
          },
          {
            "number": 2,
            "time": 10.651875000000036,
            "value": 0.5669291338582677
          },
          {
            "number": 2,
            "time": 10.652500000000035,
            "value": 0.5669291338582677
          },
          {
            "number": 2,
            "time": 10.653125000000035,
            "value": 0.5669291338582677
          },
          {
            "number": 2,
            "time": 10.653750000000034,
            "value": 0.5669291338582677
          },
          {
            "number": 2,
            "time": 10.654375000000034,
            "value": 0.5669291338582677
          },
          {
            "number": 2,
            "time": 10.655000000000033,
            "value": 0.5590551181102362
          },
          {
            "number": 2,
            "time": 10.655625000000033,
            "value": 0.5590551181102362
          },
          {
            "number": 2,
            "time": 10.656250000000032,
            "value": 0.5590551181102362
          },
          {
            "number": 2,
            "time": 10.656875000000031,
            "value": 0.5590551181102362
          },
          {
            "number": 2,
            "time": 10.65750000000003,
            "value": 0.5590551181102362
          },
          {
            "number": 2,
            "time": 10.65812500000003,
            "value": 0.5511811023622047
          },
          {
            "number": 2,
            "time": 10.65875000000003,
            "value": 0.5511811023622047
          },
          {
            "number": 2,
            "time": 10.65937500000003,
            "value": 0.5511811023622047
          },
          {
            "number": 2,
            "time": 10.660000000000029,
            "value": 0.5511811023622047
          },
          {
            "number": 2,
            "time": 10.660625000000028,
            "value": 0.5511811023622047
          },
          {
            "number": 2,
            "time": 10.661250000000027,
            "value": 0.5433070866141733
          },
          {
            "number": 2,
            "time": 10.661875000000027,
            "value": 0.5433070866141733
          },
          {
            "number": 2,
            "time": 10.662500000000026,
            "value": 0.5433070866141733
          },
          {
            "number": 2,
            "time": 10.663125000000026,
            "value": 0.5433070866141733
          },
          {
            "number": 2,
            "time": 10.663750000000025,
            "value": 0.5433070866141733
          },
          {
            "number": 2,
            "time": 10.664375000000025,
            "value": 0.5354330708661418
          },
          {
            "number": 2,
            "time": 10.665000000000024,
            "value": 0.5354330708661418
          },
          {
            "number": 2,
            "time": 10.665625000000023,
            "value": 0.5354330708661418
          },
          {
            "number": 2,
            "time": 10.666250000000023,
            "value": 0.5354330708661418
          },
          {
            "number": 2,
            "time": 10.666875000000022,
            "value": 0.5275590551181102
          },
          {
            "number": 2,
            "time": 10.667500000000022,
            "value": 0.5275590551181102
          },
          {
            "number": 2,
            "time": 10.668125000000021,
            "value": 0.5275590551181102
          },
          {
            "number": 2,
            "time": 10.66875000000002,
            "value": 0.5275590551181102
          },
          {
            "number": 2,
            "time": 10.66937500000002,
            "value": 0.5275590551181102
          },
          {
            "number": 2,
            "time": 10.67000000000002,
            "value": 0.5196850393700787
          },
          {
            "number": 2,
            "time": 10.670625000000019,
            "value": 0.5196850393700787
          },
          {
            "number": 2,
            "time": 10.671250000000018,
            "value": 0.5196850393700787
          },
          {
            "number": 2,
            "time": 10.671875000000018,
            "value": 0.5196850393700787
          },
          {
            "number": 2,
            "time": 10.672500000000017,
            "value": 0.5196850393700787
          },
          {
            "number": 2,
            "time": 10.673125000000017,
            "value": 0.5118110236220472
          },
          {
            "number": 2,
            "time": 10.673750000000016,
            "value": 0.5118110236220472
          },
          {
            "number": 2,
            "time": 10.674375000000015,
            "value": 0.5118110236220472
          },
          {
            "number": 2,
            "time": 10.675000000000015,
            "value": 0.5118110236220472
          },
          {
            "number": 2,
            "time": 10.675625000000014,
            "value": 0.5118110236220472
          },
          {
            "number": 2,
            "time": 10.676250000000014,
            "value": 0.5039370078740157
          },
          {
            "number": 2,
            "time": 10.676875000000013,
            "value": 0.5039370078740157
          },
          {
            "number": 2,
            "time": 10.677500000000013,
            "value": 0.5039370078740157
          },
          {
            "number": 2,
            "time": 10.678125000000012,
            "value": 0.5039370078740157
          },
          {
            "number": 2,
            "time": 10.678750000000012,
            "value": 0.5039370078740157
          },
          {
            "number": 2,
            "time": 10.679375000000011,
            "value": 0.49606299212598426
          },
          {
            "number": 2,
            "time": 10.68000000000001,
            "value": 0.49606299212598426
          },
          {
            "number": 2,
            "time": 10.68062500000001,
            "value": 0.49606299212598426
          },
          {
            "number": 2,
            "time": 10.68125000000001,
            "value": 0.49606299212598426
          },
          {
            "number": 2,
            "time": 10.681875000000009,
            "value": 0.49606299212598426
          },
          {
            "number": 2,
            "time": 10.682500000000008,
            "value": 0.4881889763779528
          },
          {
            "number": 2,
            "time": 10.683125000000008,
            "value": 0.4881889763779528
          },
          {
            "number": 2,
            "time": 10.683750000000007,
            "value": 0.4881889763779528
          },
          {
            "number": 2,
            "time": 10.684375000000006,
            "value": 0.4881889763779528
          },
          {
            "number": 2,
            "time": 10.685000000000006,
            "value": 0.4881889763779528
          },
          {
            "number": 2,
            "time": 10.685625000000005,
            "value": 0.48031496062992124
          },
          {
            "number": 2,
            "time": 10.686250000000005,
            "value": 0.48031496062992124
          },
          {
            "number": 2,
            "time": 10.686875000000004,
            "value": 0.48031496062992124
          },
          {
            "number": 2,
            "time": 10.687500000000004,
            "value": 0.48031496062992124
          },
          {
            "number": 2,
            "time": 10.688125000000003,
            "value": 0.48031496062992124
          },
          {
            "number": 2,
            "time": 10.688750000000002,
            "value": 0.47244094488188976
          },
          {
            "number": 2,
            "time": 10.689375000000002,
            "value": 0.47244094488188976
          },
          {
            "number": 2,
            "time": 10.690000000000001,
            "value": 0.47244094488188976
          },
          {
            "number": 2,
            "time": 10.690625,
            "value": 0.47244094488188976
          },
          {
            "number": 2,
            "time": 10.69125,
            "value": 0.47244094488188976
          },
          {
            "number": 2,
            "time": 10.691875,
            "value": 0.4645669291338583
          },
          {
            "number": 2,
            "time": 10.692499999999999,
            "value": 0.4645669291338583
          },
          {
            "number": 2,
            "time": 10.693124999999998,
            "value": 0.4645669291338583
          },
          {
            "number": 2,
            "time": 10.693749999999998,
            "value": 0.4645669291338583
          },
          {
            "number": 2,
            "time": 10.694374999999997,
            "value": 0.4645669291338583
          },
          {
            "number": 2,
            "time": 10.694999999999997,
            "value": 0.4566929133858268
          },
          {
            "number": 2,
            "time": 10.695624999999996,
            "value": 0.4566929133858268
          },
          {
            "number": 2,
            "time": 10.696249999999996,
            "value": 0.4566929133858268
          },
          {
            "number": 2,
            "time": 10.696874999999995,
            "value": 0.4566929133858268
          },
          {
            "number": 2,
            "time": 10.697499999999994,
            "value": 0.44881889763779526
          },
          {
            "number": 2,
            "time": 10.698124999999994,
            "value": 0.44881889763779526
          },
          {
            "number": 2,
            "time": 10.698749999999993,
            "value": 0.44881889763779526
          },
          {
            "number": 2,
            "time": 10.699374999999993,
            "value": 0.44881889763779526
          },
          {
            "number": 2,
            "time": 10.699999999999992,
            "value": 0.44881889763779526
          },
          {
            "number": 2,
            "time": 10.700624999999992,
            "value": 0.4409448818897638
          },
          {
            "number": 2,
            "time": 10.701249999999991,
            "value": 0.4409448818897638
          },
          {
            "number": 2,
            "time": 10.70187499999999,
            "value": 0.4409448818897638
          },
          {
            "number": 2,
            "time": 10.70249999999999,
            "value": 0.4409448818897638
          },
          {
            "number": 2,
            "time": 10.70312499999999,
            "value": 0.4409448818897638
          },
          {
            "number": 2,
            "time": 10.703749999999989,
            "value": 0.4330708661417323
          },
          {
            "number": 2,
            "time": 10.704374999999988,
            "value": 0.4330708661417323
          },
          {
            "number": 2,
            "time": 10.704999999999988,
            "value": 0.4330708661417323
          },
          {
            "number": 2,
            "time": 10.705624999999987,
            "value": 0.4330708661417323
          },
          {
            "number": 2,
            "time": 10.706249999999986,
            "value": 0.4330708661417323
          },
          {
            "number": 2,
            "time": 10.706874999999986,
            "value": 0.4251968503937008
          },
          {
            "number": 2,
            "time": 10.707499999999985,
            "value": 0.4251968503937008
          },
          {
            "number": 2,
            "time": 10.708124999999985,
            "value": 0.4251968503937008
          },
          {
            "number": 2,
            "time": 10.708749999999984,
            "value": 0.4251968503937008
          },
          {
            "number": 2,
            "time": 10.709374999999984,
            "value": 0.4251968503937008
          },
          {
            "number": 2,
            "time": 10.709999999999983,
            "value": 0.41732283464566927
          },
          {
            "number": 2,
            "time": 10.710624999999983,
            "value": 0.41732283464566927
          },
          {
            "number": 2,
            "time": 10.711249999999982,
            "value": 0.41732283464566927
          },
          {
            "number": 2,
            "time": 10.711874999999981,
            "value": 0.41732283464566927
          },
          {
            "number": 2,
            "time": 10.71249999999998,
            "value": 0.41732283464566927
          },
          {
            "number": 2,
            "time": 10.71312499999998,
            "value": 0.4094488188976378
          },
          {
            "number": 2,
            "time": 10.71374999999998,
            "value": 0.4094488188976378
          },
          {
            "number": 2,
            "time": 10.714374999999979,
            "value": 0.4094488188976378
          },
          {
            "number": 2,
            "time": 10.714999999999979,
            "value": 0.4094488188976378
          },
          {
            "number": 2,
            "time": 10.715624999999978,
            "value": 0.4094488188976378
          },
          {
            "number": 2,
            "time": 10.716249999999977,
            "value": 0.4015748031496063
          },
          {
            "number": 2,
            "time": 10.716874999999977,
            "value": 0.4015748031496063
          },
          {
            "number": 2,
            "time": 10.717499999999976,
            "value": 0.4015748031496063
          },
          {
            "number": 2,
            "time": 10.718124999999976,
            "value": 0.4015748031496063
          },
          {
            "number": 2,
            "time": 10.718749999999975,
            "value": 0.4015748031496063
          },
          {
            "number": 2,
            "time": 10.719374999999975,
            "value": 0.3937007874015748
          },
          {
            "number": 2,
            "time": 10.719999999999974,
            "value": 0.3937007874015748
          },
          {
            "number": 2,
            "time": 10.720624999999973,
            "value": 0.3937007874015748
          },
          {
            "number": 2,
            "time": 10.721249999999973,
            "value": 0.3937007874015748
          },
          {
            "number": 2,
            "time": 10.721874999999972,
            "value": 0.3937007874015748
          },
          {
            "number": 2,
            "time": 10.722499999999972,
            "value": 0.3858267716535433
          },
          {
            "number": 2,
            "time": 10.723124999999971,
            "value": 0.3858267716535433
          },
          {
            "number": 2,
            "time": 10.72374999999997,
            "value": 0.3858267716535433
          },
          {
            "number": 2,
            "time": 10.72437499999997,
            "value": 0.3858267716535433
          },
          {
            "number": 2,
            "time": 10.79999999999997,
            "value": 0.3858267716535433
          },
          {
            "number": 2,
            "time": 11.099999999999971,
            "value": 0.3858267716535433
          },
          {
            "number": 2,
            "time": 11.249999999999972,
            "value": 0.3858267716535433
          },
          {
            "number": 2,
            "time": 11.549999999999972,
            "value": 0.3858267716535433
          },
          {
            "number": 2,
            "time": 11.849999999999973,
            "value": 0.3858267716535433
          },
          {
            "number": 2,
            "time": 11.999999999999973,
            "value": 0.3858267716535433
          },
          {
            "number": 2,
            "time": 13.499999999999973,
            "value": 0.5748031496062992
          },
          {
            "number": 2,
            "time": 13.500624999999973,
            "value": 0.5748031496062992
          },
          {
            "number": 2,
            "time": 13.501249999999972,
            "value": 0.5748031496062992
          },
          {
            "number": 2,
            "time": 13.501874999999972,
            "value": 0.5669291338582677
          },
          {
            "number": 2,
            "time": 13.502499999999971,
            "value": 0.5669291338582677
          },
          {
            "number": 2,
            "time": 13.50312499999997,
            "value": 0.5669291338582677
          },
          {
            "number": 2,
            "time": 13.50374999999997,
            "value": 0.5669291338582677
          },
          {
            "number": 2,
            "time": 13.50437499999997,
            "value": 0.5669291338582677
          },
          {
            "number": 2,
            "time": 13.504999999999969,
            "value": 0.5590551181102362
          },
          {
            "number": 2,
            "time": 13.505624999999968,
            "value": 0.5590551181102362
          },
          {
            "number": 2,
            "time": 13.506249999999968,
            "value": 0.5590551181102362
          },
          {
            "number": 2,
            "time": 13.506874999999967,
            "value": 0.5590551181102362
          },
          {
            "number": 2,
            "time": 13.507499999999967,
            "value": 0.5590551181102362
          },
          {
            "number": 2,
            "time": 13.508124999999966,
            "value": 0.5511811023622047
          },
          {
            "number": 2,
            "time": 13.508749999999965,
            "value": 0.5511811023622047
          },
          {
            "number": 2,
            "time": 13.509374999999965,
            "value": 0.5511811023622047
          },
          {
            "number": 2,
            "time": 13.509999999999964,
            "value": 0.5511811023622047
          },
          {
            "number": 2,
            "time": 13.510624999999964,
            "value": 0.5511811023622047
          },
          {
            "number": 2,
            "time": 13.511249999999963,
            "value": 0.5433070866141733
          },
          {
            "number": 2,
            "time": 13.511874999999963,
            "value": 0.5433070866141733
          },
          {
            "number": 2,
            "time": 13.512499999999962,
            "value": 0.5433070866141733
          },
          {
            "number": 2,
            "time": 13.513124999999961,
            "value": 0.5433070866141733
          },
          {
            "number": 2,
            "time": 13.51374999999996,
            "value": 0.5433070866141733
          },
          {
            "number": 2,
            "time": 13.51437499999996,
            "value": 0.5354330708661418
          },
          {
            "number": 2,
            "time": 13.51499999999996,
            "value": 0.5354330708661418
          },
          {
            "number": 2,
            "time": 13.51562499999996,
            "value": 0.5354330708661418
          },
          {
            "number": 2,
            "time": 13.516249999999959,
            "value": 0.5354330708661418
          },
          {
            "number": 2,
            "time": 13.516874999999958,
            "value": 0.5275590551181102
          },
          {
            "number": 2,
            "time": 13.517499999999957,
            "value": 0.5275590551181102
          },
          {
            "number": 2,
            "time": 13.518124999999957,
            "value": 0.5275590551181102
          },
          {
            "number": 2,
            "time": 13.518749999999956,
            "value": 0.5275590551181102
          },
          {
            "number": 2,
            "time": 13.519374999999956,
            "value": 0.5275590551181102
          },
          {
            "number": 2,
            "time": 13.519999999999955,
            "value": 0.5196850393700787
          },
          {
            "number": 2,
            "time": 13.520624999999955,
            "value": 0.5196850393700787
          },
          {
            "number": 2,
            "time": 13.521249999999954,
            "value": 0.5196850393700787
          },
          {
            "number": 2,
            "time": 13.521874999999953,
            "value": 0.5196850393700787
          },
          {
            "number": 2,
            "time": 13.522499999999953,
            "value": 0.5196850393700787
          },
          {
            "number": 2,
            "time": 13.523124999999952,
            "value": 0.5118110236220472
          },
          {
            "number": 2,
            "time": 13.523749999999952,
            "value": 0.5118110236220472
          },
          {
            "number": 2,
            "time": 13.524374999999951,
            "value": 0.5196850393700787
          },
          {
            "number": 2,
            "time": 13.52499999999995,
            "value": 0.5196850393700787
          },
          {
            "number": 2,
            "time": 13.52562499999995,
            "value": 0.5196850393700787
          },
          {
            "number": 2,
            "time": 13.52624999999995,
            "value": 0.5196850393700787
          },
          {
            "number": 2,
            "time": 13.526874999999949,
            "value": 0.5196850393700787
          },
          {
            "number": 2,
            "time": 13.527499999999948,
            "value": 0.5118110236220472
          },
          {
            "number": 2,
            "time": 13.528124999999948,
            "value": 0.5118110236220472
          },
          {
            "number": 2,
            "time": 13.528749999999947,
            "value": 0.5118110236220472
          },
          {
            "number": 2,
            "time": 13.529374999999947,
            "value": 0.5118110236220472
          },
          {
            "number": 2,
            "time": 13.529999999999946,
            "value": 0.5118110236220472
          },
          {
            "number": 2,
            "time": 13.530624999999946,
            "value": 0.5039370078740157
          },
          {
            "number": 2,
            "time": 13.531249999999945,
            "value": 0.5039370078740157
          },
          {
            "number": 2,
            "time": 13.531874999999944,
            "value": 0.5039370078740157
          },
          {
            "number": 2,
            "time": 13.532499999999944,
            "value": 0.5039370078740157
          },
          {
            "number": 2,
            "time": 13.533124999999943,
            "value": 0.49606299212598426
          },
          {
            "number": 2,
            "time": 13.533749999999943,
            "value": 0.49606299212598426
          },
          {
            "number": 2,
            "time": 13.534374999999942,
            "value": 0.49606299212598426
          },
          {
            "number": 2,
            "time": 13.534999999999942,
            "value": 0.49606299212598426
          },
          {
            "number": 2,
            "time": 13.535624999999941,
            "value": 0.49606299212598426
          },
          {
            "number": 2,
            "time": 13.53624999999994,
            "value": 0.4881889763779528
          },
          {
            "number": 2,
            "time": 13.53687499999994,
            "value": 0.4881889763779528
          },
          {
            "number": 2,
            "time": 13.53749999999994,
            "value": 0.4881889763779528
          },
          {
            "number": 2,
            "time": 13.538124999999939,
            "value": 0.4881889763779528
          },
          {
            "number": 2,
            "time": 13.538749999999938,
            "value": 0.4881889763779528
          },
          {
            "number": 2,
            "time": 13.539374999999938,
            "value": 0.48031496062992124
          },
          {
            "number": 2,
            "time": 13.539999999999937,
            "value": 0.48031496062992124
          },
          {
            "number": 2,
            "time": 13.540624999999936,
            "value": 0.48031496062992124
          },
          {
            "number": 2,
            "time": 13.541249999999936,
            "value": 0.48031496062992124
          },
          {
            "number": 2,
            "time": 13.541874999999935,
            "value": 0.48031496062992124
          },
          {
            "number": 2,
            "time": 13.542499999999935,
            "value": 0.47244094488188976
          },
          {
            "number": 2,
            "time": 13.543124999999934,
            "value": 0.47244094488188976
          },
          {
            "number": 2,
            "time": 13.543749999999934,
            "value": 0.47244094488188976
          },
          {
            "number": 2,
            "time": 13.544374999999933,
            "value": 0.47244094488188976
          },
          {
            "number": 2,
            "time": 13.544999999999932,
            "value": 0.47244094488188976
          },
          {
            "number": 2,
            "time": 13.545624999999932,
            "value": 0.4645669291338583
          },
          {
            "number": 2,
            "time": 13.546249999999931,
            "value": 0.4645669291338583
          },
          {
            "number": 2,
            "time": 13.54687499999993,
            "value": 0.4645669291338583
          },
          {
            "number": 2,
            "time": 13.54749999999993,
            "value": 0.4645669291338583
          },
          {
            "number": 2,
            "time": 13.54812499999993,
            "value": 0.4566929133858268
          },
          {
            "number": 2,
            "time": 13.548749999999929,
            "value": 0.4645669291338583
          },
          {
            "number": 2,
            "time": 13.549374999999928,
            "value": 0.4645669291338583
          },
          {
            "number": 2,
            "time": 13.549999999999928,
            "value": 0.4645669291338583
          },
          {
            "number": 2,
            "time": 13.550624999999927,
            "value": 0.4645669291338583
          },
          {
            "number": 2,
            "time": 13.551249999999927,
            "value": 0.4645669291338583
          },
          {
            "number": 2,
            "time": 13.551874999999926,
            "value": 0.4566929133858268
          },
          {
            "number": 2,
            "time": 13.552499999999926,
            "value": 0.4566929133858268
          },
          {
            "number": 2,
            "time": 13.553124999999925,
            "value": 0.4566929133858268
          },
          {
            "number": 2,
            "time": 13.553749999999924,
            "value": 0.4566929133858268
          },
          {
            "number": 2,
            "time": 13.554374999999924,
            "value": 0.4566929133858268
          },
          {
            "number": 2,
            "time": 13.554999999999923,
            "value": 0.44881889763779526
          },
          {
            "number": 2,
            "time": 13.555624999999923,
            "value": 0.44881889763779526
          },
          {
            "number": 2,
            "time": 13.556249999999922,
            "value": 0.44881889763779526
          },
          {
            "number": 2,
            "time": 13.556874999999922,
            "value": 0.44881889763779526
          },
          {
            "number": 2,
            "time": 13.557499999999921,
            "value": 0.4409448818897638
          },
          {
            "number": 2,
            "time": 13.55812499999992,
            "value": 0.4409448818897638
          },
          {
            "number": 2,
            "time": 13.55874999999992,
            "value": 0.4409448818897638
          },
          {
            "number": 2,
            "time": 13.55937499999992,
            "value": 0.4409448818897638
          },
          {
            "number": 2,
            "time": 13.559999999999919,
            "value": 0.4409448818897638
          },
          {
            "number": 2,
            "time": 13.560624999999918,
            "value": 0.4330708661417323
          },
          {
            "number": 2,
            "time": 13.561249999999918,
            "value": 0.4330708661417323
          },
          {
            "number": 2,
            "time": 13.561874999999917,
            "value": 0.4330708661417323
          },
          {
            "number": 2,
            "time": 13.562499999999917,
            "value": 0.4330708661417323
          },
          {
            "number": 2,
            "time": 13.563124999999916,
            "value": 0.4330708661417323
          },
          {
            "number": 2,
            "time": 13.563749999999915,
            "value": 0.4251968503937008
          },
          {
            "number": 2,
            "time": 13.564374999999915,
            "value": 0.4251968503937008
          },
          {
            "number": 2,
            "time": 13.564999999999914,
            "value": 0.4251968503937008
          },
          {
            "number": 2,
            "time": 13.565624999999914,
            "value": 0.4251968503937008
          },
          {
            "number": 2,
            "time": 13.566249999999913,
            "value": 0.41732283464566927
          },
          {
            "number": 2,
            "time": 13.566874999999913,
            "value": 0.41732283464566927
          },
          {
            "number": 2,
            "time": 13.567499999999912,
            "value": 0.41732283464566927
          },
          {
            "number": 2,
            "time": 13.568124999999911,
            "value": 0.41732283464566927
          },
          {
            "number": 2,
            "time": 13.56874999999991,
            "value": 0.41732283464566927
          },
          {
            "number": 2,
            "time": 13.56937499999991,
            "value": 0.4094488188976378
          },
          {
            "number": 2,
            "time": 13.56999999999991,
            "value": 0.4094488188976378
          },
          {
            "number": 2,
            "time": 13.57062499999991,
            "value": 0.4094488188976378
          },
          {
            "number": 2,
            "time": 13.571249999999909,
            "value": 0.4094488188976378
          },
          {
            "number": 2,
            "time": 13.571874999999908,
            "value": 0.4094488188976378
          },
          {
            "number": 2,
            "time": 13.572499999999907,
            "value": 0.4015748031496063
          },
          {
            "number": 2,
            "time": 13.573124999999907,
            "value": 0.4094488188976378
          },
          {
            "number": 2,
            "time": 13.573749999999906,
            "value": 0.4094488188976378
          },
          {
            "number": 2,
            "time": 13.574374999999906,
            "value": 0.4094488188976378
          },
          {
            "number": 2,
            "time": 13.596874999999907,
            "value": 0.41732283464566927
          },
          {
            "number": 2,
            "time": 13.621249999999906,
            "value": 0.4251968503937008
          },
          {
            "number": 2,
            "time": 13.645624999999905,
            "value": 0.4330708661417323
          },
          {
            "number": 2,
            "time": 13.669374999999905,
            "value": 0.4409448818897638
          },
          {
            "number": 2,
            "time": 13.693749999999904,
            "value": 0.44881889763779526
          },
          {
            "number": 2,
            "time": 13.718124999999903,
            "value": 0.4566929133858268
          },
          {
            "number": 2,
            "time": 13.742499999999902,
            "value": 0.4645669291338583
          },
          {
            "number": 2,
            "time": 13.766249999999902,
            "value": 0.47244094488188976
          },
          {
            "number": 2,
            "time": 13.7906249999999,
            "value": 0.48031496062992124
          },
          {
            "number": 2,
            "time": 13.799999999999901,
            "value": 0.48031496062992124
          },
          {
            "number": 2,
            "time": 13.814999999999902,
            "value": 0.4881889763779528
          },
          {
            "number": 2,
            "time": 13.838749999999902,
            "value": 0.49606299212598426
          },
          {
            "number": 2,
            "time": 13.8631249999999,
            "value": 0.5039370078740157
          },
          {
            "number": 2,
            "time": 13.8874999999999,
            "value": 0.5118110236220472
          },
          {
            "number": 2,
            "time": 13.911874999999899,
            "value": 0.5196850393700787
          },
          {
            "number": 2,
            "time": 13.935624999999899,
            "value": 0.5275590551181102
          },
          {
            "number": 2,
            "time": 13.959999999999898,
            "value": 0.5354330708661418
          },
          {
            "number": 2,
            "time": 13.984374999999897,
            "value": 0.5433070866141733
          },
          {
            "number": 2,
            "time": 14.008124999999897,
            "value": 0.5511811023622047
          },
          {
            "number": 2,
            "time": 14.032499999999896,
            "value": 0.5590551181102362
          },
          {
            "number": 2,
            "time": 14.056874999999895,
            "value": 0.5669291338582677
          },
          {
            "number": 2,
            "time": 14.081249999999894,
            "value": 0.5748031496062992
          },
          {
            "number": 2,
            "time": 14.099999999999895,
            "value": 0.5748031496062992
          },
          {
            "number": 2,
            "time": 14.104999999999896,
            "value": 0.5826771653543307
          },
          {
            "number": 2,
            "time": 14.129374999999895,
            "value": 0.5905511811023622
          },
          {
            "number": 2,
            "time": 14.153749999999894,
            "value": 0.5984251968503937
          },
          {
            "number": 2,
            "time": 14.177499999999894,
            "value": 0.6062992125984252
          },
          {
            "number": 2,
            "time": 14.201874999999893,
            "value": 0.6141732283464567
          },
          {
            "number": 2,
            "time": 14.226249999999892,
            "value": 0.6220472440944882
          },
          {
            "number": 2,
            "time": 14.249999999999892,
            "value": 0.6299212598425197
          },
          {
            "number": 2,
            "time": 14.549999999999892,
            "value": 0.6299212598425197
          },
          {
            "number": 2,
            "time": 14.849999999999893,
            "value": 0.6299212598425197
          },
          {
            "number": 2,
            "time": 14.999999999999892,
            "value": 0.6299212598425197
          },
          {
            "number": 2,
            "time": 15.299999999999892,
            "value": 0.6299212598425197
          },
          {
            "number": 2,
            "time": 15.599999999999893,
            "value": 0.6299212598425197
          },
          {
            "number": 2,
            "time": 15.749999999999893,
            "value": 0.6299212598425197
          },
          {
            "number": 2,
            "time": 16.049999999999894,
            "value": 0.6299212598425197
          },
          {
            "number": 2,
            "time": 16.349999999999895,
            "value": 0.6299212598425197
          },
          {
            "number": 2,
            "time": 16.499999999999893,
            "value": 0.9448818897637795
          },
          {
            "number": 2,
            "time": 16.500624999999893,
            "value": 0.937007874015748
          },
          {
            "number": 2,
            "time": 16.501249999999892,
            "value": 0.937007874015748
          },
          {
            "number": 2,
            "time": 16.50187499999989,
            "value": 0.937007874015748
          },
          {
            "number": 2,
            "time": 16.50249999999989,
            "value": 0.9291338582677166
          },
          {
            "number": 2,
            "time": 16.50312499999989,
            "value": 0.9291338582677166
          },
          {
            "number": 2,
            "time": 16.50374999999989,
            "value": 0.9291338582677166
          },
          {
            "number": 2,
            "time": 16.50437499999989,
            "value": 0.9212598425196851
          },
          {
            "number": 2,
            "time": 16.50499999999989,
            "value": 0.9212598425196851
          },
          {
            "number": 2,
            "time": 16.50562499999989,
            "value": 0.9212598425196851
          },
          {
            "number": 2,
            "time": 16.506249999999888,
            "value": 0.9133858267716536
          },
          {
            "number": 2,
            "time": 16.506874999999887,
            "value": 0.9133858267716536
          },
          {
            "number": 2,
            "time": 16.507499999999887,
            "value": 0.9133858267716536
          },
          {
            "number": 2,
            "time": 16.508124999999886,
            "value": 0.905511811023622
          },
          {
            "number": 2,
            "time": 16.508749999999885,
            "value": 0.905511811023622
          },
          {
            "number": 2,
            "time": 16.509374999999885,
            "value": 0.905511811023622
          },
          {
            "number": 2,
            "time": 16.509999999999884,
            "value": 0.8976377952755905
          },
          {
            "number": 2,
            "time": 16.510624999999884,
            "value": 0.8976377952755905
          },
          {
            "number": 2,
            "time": 16.511249999999883,
            "value": 0.8976377952755905
          },
          {
            "number": 2,
            "time": 16.511874999999883,
            "value": 0.889763779527559
          },
          {
            "number": 2,
            "time": 16.512499999999882,
            "value": 0.889763779527559
          },
          {
            "number": 2,
            "time": 16.51312499999988,
            "value": 0.889763779527559
          },
          {
            "number": 2,
            "time": 16.51374999999988,
            "value": 0.8818897637795275
          },
          {
            "number": 2,
            "time": 16.51437499999988,
            "value": 0.8818897637795275
          },
          {
            "number": 2,
            "time": 16.51499999999988,
            "value": 0.8818897637795275
          },
          {
            "number": 2,
            "time": 16.51562499999988,
            "value": 0.8740157480314961
          },
          {
            "number": 2,
            "time": 16.51624999999988,
            "value": 0.8740157480314961
          },
          {
            "number": 2,
            "time": 16.516874999999878,
            "value": 0.8740157480314961
          },
          {
            "number": 2,
            "time": 16.517499999999878,
            "value": 0.8661417322834646
          },
          {
            "number": 2,
            "time": 16.518124999999877,
            "value": 0.8661417322834646
          },
          {
            "number": 2,
            "time": 16.518749999999876,
            "value": 0.8661417322834646
          },
          {
            "number": 2,
            "time": 16.519374999999876,
            "value": 0.8582677165354331
          },
          {
            "number": 2,
            "time": 16.519999999999875,
            "value": 0.8582677165354331
          },
          {
            "number": 2,
            "time": 16.520624999999875,
            "value": 0.8582677165354331
          },
          {
            "number": 2,
            "time": 16.521249999999874,
            "value": 0.8503937007874016
          },
          {
            "number": 2,
            "time": 16.521874999999874,
            "value": 0.8503937007874016
          },
          {
            "number": 2,
            "time": 16.522499999999873,
            "value": 0.8503937007874016
          },
          {
            "number": 2,
            "time": 16.523124999999872,
            "value": 0.84251968503937
          },
          {
            "number": 2,
            "time": 16.523749999999872,
            "value": 0.84251968503937
          },
          {
            "number": 2,
            "time": 16.52437499999987,
            "value": 0.84251968503937
          },
          {
            "number": 2,
            "time": 16.52499999999987,
            "value": 0.8346456692913385
          },
          {
            "number": 2,
            "time": 16.52562499999987,
            "value": 0.8346456692913385
          },
          {
            "number": 2,
            "time": 16.52624999999987,
            "value": 0.8346456692913385
          },
          {
            "number": 2,
            "time": 16.52687499999987,
            "value": 0.8267716535433071
          },
          {
            "number": 2,
            "time": 16.52749999999987,
            "value": 0.8267716535433071
          },
          {
            "number": 2,
            "time": 16.528124999999868,
            "value": 0.8267716535433071
          },
          {
            "number": 2,
            "time": 16.528749999999867,
            "value": 0.8188976377952756
          },
          {
            "number": 2,
            "time": 16.529374999999867,
            "value": 0.8188976377952756
          },
          {
            "number": 2,
            "time": 16.529999999999866,
            "value": 0.8188976377952756
          },
          {
            "number": 2,
            "time": 16.530624999999866,
            "value": 0.8110236220472441
          },
          {
            "number": 2,
            "time": 16.531249999999865,
            "value": 0.8110236220472441
          },
          {
            "number": 2,
            "time": 16.531874999999864,
            "value": 0.8110236220472441
          },
          {
            "number": 2,
            "time": 16.532499999999864,
            "value": 0.8031496062992126
          },
          {
            "number": 2,
            "time": 16.533124999999863,
            "value": 0.8031496062992126
          },
          {
            "number": 2,
            "time": 16.533749999999863,
            "value": 0.8031496062992126
          },
          {
            "number": 2,
            "time": 16.534374999999862,
            "value": 0.7952755905511811
          },
          {
            "number": 2,
            "time": 16.53499999999986,
            "value": 0.7952755905511811
          },
          {
            "number": 2,
            "time": 16.53562499999986,
            "value": 0.7952755905511811
          },
          {
            "number": 2,
            "time": 16.53624999999986,
            "value": 0.7874015748031497
          },
          {
            "number": 2,
            "time": 16.53687499999986,
            "value": 0.7874015748031497
          },
          {
            "number": 2,
            "time": 16.53749999999986,
            "value": 0.7874015748031497
          },
          {
            "number": 2,
            "time": 16.53812499999986,
            "value": 0.7795275590551181
          },
          {
            "number": 2,
            "time": 16.538749999999858,
            "value": 0.7795275590551181
          },
          {
            "number": 2,
            "time": 16.539374999999858,
            "value": 0.7795275590551181
          },
          {
            "number": 2,
            "time": 16.539999999999857,
            "value": 0.7716535433070866
          },
          {
            "number": 2,
            "time": 16.540624999999856,
            "value": 0.7716535433070866
          },
          {
            "number": 2,
            "time": 16.541249999999856,
            "value": 0.7716535433070866
          },
          {
            "number": 2,
            "time": 16.541874999999855,
            "value": 0.7637795275590551
          },
          {
            "number": 2,
            "time": 16.542499999999855,
            "value": 0.7637795275590551
          },
          {
            "number": 2,
            "time": 16.543124999999854,
            "value": 0.7637795275590551
          },
          {
            "number": 2,
            "time": 16.543749999999854,
            "value": 0.7559055118110236
          },
          {
            "number": 2,
            "time": 16.544374999999853,
            "value": 0.7559055118110236
          },
          {
            "number": 2,
            "time": 16.544999999999852,
            "value": 0.7559055118110236
          },
          {
            "number": 2,
            "time": 16.545624999999852,
            "value": 0.7480314960629921
          },
          {
            "number": 2,
            "time": 16.54624999999985,
            "value": 0.7480314960629921
          },
          {
            "number": 2,
            "time": 16.54687499999985,
            "value": 0.7480314960629921
          },
          {
            "number": 2,
            "time": 16.54749999999985,
            "value": 0.7401574803149606
          },
          {
            "number": 2,
            "time": 16.54812499999985,
            "value": 0.7401574803149606
          },
          {
            "number": 2,
            "time": 16.54874999999985,
            "value": 0.7401574803149606
          },
          {
            "number": 2,
            "time": 16.54937499999985,
            "value": 0.7322834645669292
          },
          {
            "number": 2,
            "time": 16.549999999999848,
            "value": 0.7322834645669292
          },
          {
            "number": 2,
            "time": 16.550624999999847,
            "value": 0.7322834645669292
          },
          {
            "number": 2,
            "time": 16.551249999999847,
            "value": 0.7244094488188977
          },
          {
            "number": 2,
            "time": 16.551874999999846,
            "value": 0.7244094488188977
          },
          {
            "number": 2,
            "time": 16.552499999999846,
            "value": 0.7244094488188977
          },
          {
            "number": 2,
            "time": 16.553124999999845,
            "value": 0.7165354330708661
          },
          {
            "number": 2,
            "time": 16.553749999999845,
            "value": 0.7165354330708661
          },
          {
            "number": 2,
            "time": 16.554374999999844,
            "value": 0.7165354330708661
          },
          {
            "number": 2,
            "time": 16.554999999999843,
            "value": 0.7086614173228346
          },
          {
            "number": 2,
            "time": 16.555624999999843,
            "value": 0.7086614173228346
          },
          {
            "number": 2,
            "time": 16.556249999999842,
            "value": 0.7086614173228346
          },
          {
            "number": 2,
            "time": 16.55687499999984,
            "value": 0.7007874015748031
          },
          {
            "number": 2,
            "time": 16.55749999999984,
            "value": 0.7007874015748031
          },
          {
            "number": 2,
            "time": 16.55812499999984,
            "value": 0.7007874015748031
          },
          {
            "number": 2,
            "time": 16.55874999999984,
            "value": 0.6929133858267716
          },
          {
            "number": 2,
            "time": 16.55937499999984,
            "value": 0.6929133858267716
          },
          {
            "number": 2,
            "time": 16.55999999999984,
            "value": 0.6929133858267716
          },
          {
            "number": 2,
            "time": 16.56062499999984,
            "value": 0.6850393700787402
          },
          {
            "number": 2,
            "time": 16.561249999999838,
            "value": 0.6850393700787402
          },
          {
            "number": 2,
            "time": 16.561874999999837,
            "value": 0.6850393700787402
          },
          {
            "number": 2,
            "time": 16.562499999999837,
            "value": 0.6771653543307087
          },
          {
            "number": 2,
            "time": 16.563124999999836,
            "value": 0.6771653543307087
          },
          {
            "number": 2,
            "time": 16.563749999999835,
            "value": 0.6771653543307087
          },
          {
            "number": 2,
            "time": 16.564374999999835,
            "value": 0.6692913385826772
          },
          {
            "number": 2,
            "time": 16.564999999999834,
            "value": 0.6692913385826772
          },
          {
            "number": 2,
            "time": 16.565624999999834,
            "value": 0.6692913385826772
          },
          {
            "number": 2,
            "time": 16.566249999999833,
            "value": 0.6614173228346457
          },
          {
            "number": 2,
            "time": 16.566874999999833,
            "value": 0.6614173228346457
          },
          {
            "number": 2,
            "time": 16.567499999999832,
            "value": 0.6614173228346457
          },
          {
            "number": 2,
            "time": 16.56812499999983,
            "value": 0.6535433070866141
          },
          {
            "number": 2,
            "time": 16.56874999999983,
            "value": 0.6535433070866141
          },
          {
            "number": 2,
            "time": 16.56937499999983,
            "value": 0.6535433070866141
          },
          {
            "number": 2,
            "time": 16.56999999999983,
            "value": 0.6456692913385826
          },
          {
            "number": 2,
            "time": 16.57062499999983,
            "value": 0.6456692913385826
          },
          {
            "number": 2,
            "time": 16.57124999999983,
            "value": 0.6456692913385826
          },
          {
            "number": 2,
            "time": 16.571874999999828,
            "value": 0.6377952755905512
          },
          {
            "number": 2,
            "time": 16.572499999999827,
            "value": 0.6377952755905512
          },
          {
            "number": 2,
            "time": 16.573124999999827,
            "value": 0.6377952755905512
          },
          {
            "number": 2,
            "time": 16.573749999999826,
            "value": 0.6299212598425197
          },
          {
            "number": 2,
            "time": 16.574374999999826,
            "value": 0.6299212598425197
          },
          {
            "number": 2,
            "time": 16.799999999999827,
            "value": 0.6299212598425197
          },
          {
            "number": 2,
            "time": 17.099999999999827,
            "value": 0.6299212598425197
          },
          {
            "number": 2,
            "time": 17.249999999999826,
            "value": 0.6299212598425197
          },
          {
            "number": 2,
            "time": 17.549999999999827,
            "value": 0.6299212598425197
          },
          {
            "number": 2,
            "time": 17.849999999999827,
            "value": 0.6299212598425197
          },
          {
            "number": 2,
            "time": 17.999999999999826,
            "value": 0.9448818897637795
          },
          {
            "number": 2,
            "time": 18.000624999999825,
            "value": 0.937007874015748
          },
          {
            "number": 2,
            "time": 18.001249999999825,
            "value": 0.937007874015748
          },
          {
            "number": 2,
            "time": 18.001874999999824,
            "value": 0.937007874015748
          },
          {
            "number": 2,
            "time": 18.002499999999824,
            "value": 0.9291338582677166
          },
          {
            "number": 2,
            "time": 18.003124999999823,
            "value": 0.9291338582677166
          },
          {
            "number": 2,
            "time": 18.003749999999823,
            "value": 0.9291338582677166
          },
          {
            "number": 2,
            "time": 18.004374999999822,
            "value": 0.9212598425196851
          },
          {
            "number": 2,
            "time": 18.00499999999982,
            "value": 0.9212598425196851
          },
          {
            "number": 2,
            "time": 18.00562499999982,
            "value": 0.9212598425196851
          },
          {
            "number": 2,
            "time": 18.00624999999982,
            "value": 0.9133858267716536
          },
          {
            "number": 2,
            "time": 18.00687499999982,
            "value": 0.9133858267716536
          },
          {
            "number": 2,
            "time": 18.00749999999982,
            "value": 0.9133858267716536
          },
          {
            "number": 2,
            "time": 18.00812499999982,
            "value": 0.905511811023622
          },
          {
            "number": 2,
            "time": 18.008749999999818,
            "value": 0.905511811023622
          },
          {
            "number": 2,
            "time": 18.009374999999817,
            "value": 0.905511811023622
          },
          {
            "number": 2,
            "time": 18.009999999999817,
            "value": 0.8976377952755905
          },
          {
            "number": 2,
            "time": 18.010624999999816,
            "value": 0.8976377952755905
          },
          {
            "number": 2,
            "time": 18.011249999999816,
            "value": 0.8976377952755905
          },
          {
            "number": 2,
            "time": 18.011874999999815,
            "value": 0.889763779527559
          },
          {
            "number": 2,
            "time": 18.012499999999815,
            "value": 0.889763779527559
          },
          {
            "number": 2,
            "time": 18.013124999999814,
            "value": 0.889763779527559
          },
          {
            "number": 2,
            "time": 18.013749999999813,
            "value": 0.8818897637795275
          },
          {
            "number": 2,
            "time": 18.014374999999813,
            "value": 0.8818897637795275
          },
          {
            "number": 2,
            "time": 18.014999999999812,
            "value": 0.8818897637795275
          },
          {
            "number": 2,
            "time": 18.01562499999981,
            "value": 0.8740157480314961
          },
          {
            "number": 2,
            "time": 18.01624999999981,
            "value": 0.8740157480314961
          },
          {
            "number": 2,
            "time": 18.01687499999981,
            "value": 0.8740157480314961
          },
          {
            "number": 2,
            "time": 18.01749999999981,
            "value": 0.8661417322834646
          },
          {
            "number": 2,
            "time": 18.01812499999981,
            "value": 0.8661417322834646
          },
          {
            "number": 2,
            "time": 18.01874999999981,
            "value": 0.8661417322834646
          },
          {
            "number": 2,
            "time": 18.01937499999981,
            "value": 0.8582677165354331
          },
          {
            "number": 2,
            "time": 18.019999999999808,
            "value": 0.8582677165354331
          },
          {
            "number": 2,
            "time": 18.020624999999807,
            "value": 0.8582677165354331
          },
          {
            "number": 2,
            "time": 18.021249999999807,
            "value": 0.8503937007874016
          },
          {
            "number": 2,
            "time": 18.021874999999806,
            "value": 0.8503937007874016
          },
          {
            "number": 2,
            "time": 18.022499999999805,
            "value": 0.8503937007874016
          },
          {
            "number": 2,
            "time": 18.023124999999805,
            "value": 0.84251968503937
          },
          {
            "number": 2,
            "time": 18.023749999999804,
            "value": 0.84251968503937
          },
          {
            "number": 2,
            "time": 18.024374999999804,
            "value": 0.84251968503937
          },
          {
            "number": 2,
            "time": 18.024999999999803,
            "value": 0.8346456692913385
          },
          {
            "number": 2,
            "time": 18.025624999999803,
            "value": 0.8346456692913385
          },
          {
            "number": 2,
            "time": 18.026249999999802,
            "value": 0.8346456692913385
          },
          {
            "number": 2,
            "time": 18.0268749999998,
            "value": 0.8267716535433071
          },
          {
            "number": 2,
            "time": 18.0274999999998,
            "value": 0.8267716535433071
          },
          {
            "number": 2,
            "time": 18.0281249999998,
            "value": 0.8267716535433071
          },
          {
            "number": 2,
            "time": 18.0287499999998,
            "value": 0.8188976377952756
          },
          {
            "number": 2,
            "time": 18.0293749999998,
            "value": 0.8188976377952756
          },
          {
            "number": 2,
            "time": 18.0299999999998,
            "value": 0.8188976377952756
          },
          {
            "number": 2,
            "time": 18.030624999999798,
            "value": 0.8110236220472441
          },
          {
            "number": 2,
            "time": 18.031249999999797,
            "value": 0.8110236220472441
          },
          {
            "number": 2,
            "time": 18.031874999999797,
            "value": 0.8110236220472441
          },
          {
            "number": 2,
            "time": 18.032499999999796,
            "value": 0.8031496062992126
          },
          {
            "number": 2,
            "time": 18.033124999999796,
            "value": 0.8031496062992126
          },
          {
            "number": 2,
            "time": 18.033749999999795,
            "value": 0.8031496062992126
          },
          {
            "number": 2,
            "time": 18.034374999999795,
            "value": 0.7952755905511811
          },
          {
            "number": 2,
            "time": 18.034999999999794,
            "value": 0.7952755905511811
          },
          {
            "number": 2,
            "time": 18.035624999999794,
            "value": 0.7952755905511811
          },
          {
            "number": 2,
            "time": 18.036249999999793,
            "value": 0.7874015748031497
          },
          {
            "number": 2,
            "time": 18.036874999999792,
            "value": 0.7874015748031497
          },
          {
            "number": 2,
            "time": 18.037499999999792,
            "value": 0.7874015748031497
          },
          {
            "number": 2,
            "time": 18.03812499999979,
            "value": 0.7795275590551181
          },
          {
            "number": 2,
            "time": 18.03874999999979,
            "value": 0.7795275590551181
          },
          {
            "number": 2,
            "time": 18.03937499999979,
            "value": 0.7795275590551181
          },
          {
            "number": 2,
            "time": 18.03999999999979,
            "value": 0.7716535433070866
          },
          {
            "number": 2,
            "time": 18.04062499999979,
            "value": 0.7716535433070866
          },
          {
            "number": 2,
            "time": 18.04124999999979,
            "value": 0.7716535433070866
          },
          {
            "number": 2,
            "time": 18.041874999999788,
            "value": 0.7637795275590551
          },
          {
            "number": 2,
            "time": 18.042499999999787,
            "value": 0.7637795275590551
          },
          {
            "number": 2,
            "time": 18.043124999999787,
            "value": 0.7637795275590551
          },
          {
            "number": 2,
            "time": 18.043749999999786,
            "value": 0.7559055118110236
          },
          {
            "number": 2,
            "time": 18.044374999999786,
            "value": 0.7559055118110236
          },
          {
            "number": 2,
            "time": 18.044999999999785,
            "value": 0.7559055118110236
          },
          {
            "number": 2,
            "time": 18.045624999999784,
            "value": 0.7480314960629921
          },
          {
            "number": 2,
            "time": 18.046249999999784,
            "value": 0.7480314960629921
          },
          {
            "number": 2,
            "time": 18.046874999999783,
            "value": 0.7480314960629921
          },
          {
            "number": 2,
            "time": 18.047499999999783,
            "value": 0.7401574803149606
          },
          {
            "number": 2,
            "time": 18.048124999999782,
            "value": 0.7401574803149606
          },
          {
            "number": 2,
            "time": 18.04874999999978,
            "value": 0.7401574803149606
          },
          {
            "number": 2,
            "time": 18.04937499999978,
            "value": 0.7322834645669292
          },
          {
            "number": 2,
            "time": 18.04999999999978,
            "value": 0.7322834645669292
          },
          {
            "number": 2,
            "time": 18.05062499999978,
            "value": 0.7322834645669292
          },
          {
            "number": 2,
            "time": 18.05124999999978,
            "value": 0.7244094488188977
          },
          {
            "number": 2,
            "time": 18.05187499999978,
            "value": 0.7244094488188977
          },
          {
            "number": 2,
            "time": 18.052499999999778,
            "value": 0.7244094488188977
          },
          {
            "number": 2,
            "time": 18.053124999999778,
            "value": 0.7165354330708661
          },
          {
            "number": 2,
            "time": 18.053749999999777,
            "value": 0.7165354330708661
          },
          {
            "number": 2,
            "time": 18.054374999999776,
            "value": 0.7165354330708661
          },
          {
            "number": 2,
            "time": 18.054999999999776,
            "value": 0.7086614173228346
          },
          {
            "number": 2,
            "time": 18.055624999999775,
            "value": 0.7086614173228346
          },
          {
            "number": 2,
            "time": 18.056249999999775,
            "value": 0.7086614173228346
          },
          {
            "number": 2,
            "time": 18.056874999999774,
            "value": 0.7007874015748031
          },
          {
            "number": 2,
            "time": 18.057499999999774,
            "value": 0.7007874015748031
          },
          {
            "number": 2,
            "time": 18.058124999999773,
            "value": 0.7007874015748031
          },
          {
            "number": 2,
            "time": 18.058749999999772,
            "value": 0.6929133858267716
          },
          {
            "number": 2,
            "time": 18.059374999999772,
            "value": 0.6929133858267716
          },
          {
            "number": 2,
            "time": 18.05999999999977,
            "value": 0.6929133858267716
          },
          {
            "number": 2,
            "time": 18.06062499999977,
            "value": 0.6850393700787402
          },
          {
            "number": 2,
            "time": 18.06124999999977,
            "value": 0.6850393700787402
          },
          {
            "number": 2,
            "time": 18.06187499999977,
            "value": 0.6850393700787402
          },
          {
            "number": 2,
            "time": 18.06249999999977,
            "value": 0.6771653543307087
          },
          {
            "number": 2,
            "time": 18.06312499999977,
            "value": 0.6771653543307087
          },
          {
            "number": 2,
            "time": 18.063749999999768,
            "value": 0.6771653543307087
          },
          {
            "number": 2,
            "time": 18.064374999999767,
            "value": 0.6692913385826772
          },
          {
            "number": 2,
            "time": 18.064999999999767,
            "value": 0.6692913385826772
          },
          {
            "number": 2,
            "time": 18.065624999999766,
            "value": 0.6692913385826772
          },
          {
            "number": 2,
            "time": 18.066249999999766,
            "value": 0.6614173228346457
          },
          {
            "number": 2,
            "time": 18.066874999999765,
            "value": 0.6614173228346457
          },
          {
            "number": 2,
            "time": 18.067499999999765,
            "value": 0.6614173228346457
          },
          {
            "number": 2,
            "time": 18.068124999999764,
            "value": 0.6535433070866141
          },
          {
            "number": 2,
            "time": 18.068749999999763,
            "value": 0.6535433070866141
          },
          {
            "number": 2,
            "time": 18.069374999999763,
            "value": 0.6535433070866141
          },
          {
            "number": 2,
            "time": 18.069999999999762,
            "value": 0.6456692913385826
          },
          {
            "number": 2,
            "time": 18.07062499999976,
            "value": 0.6456692913385826
          },
          {
            "number": 2,
            "time": 18.07124999999976,
            "value": 0.6456692913385826
          },
          {
            "number": 2,
            "time": 18.07187499999976,
            "value": 0.6377952755905512
          },
          {
            "number": 2,
            "time": 18.07249999999976,
            "value": 0.6377952755905512
          },
          {
            "number": 2,
            "time": 18.07312499999976,
            "value": 0.6377952755905512
          },
          {
            "number": 2,
            "time": 18.07374999999976,
            "value": 0.6299212598425197
          },
          {
            "number": 2,
            "time": 18.07437499999976,
            "value": 0.6299212598425197
          },
          {
            "number": 2,
            "time": 18.29999999999976,
            "value": 0.6299212598425197
          },
          {
            "number": 2,
            "time": 18.59999999999976,
            "value": 0.6299212598425197
          },
          {
            "number": 2,
            "time": 18.74999999999976,
            "value": 0.6299212598425197
          },
          {
            "number": 2,
            "time": 19.04999999999976,
            "value": 0.6299212598425197
          },
          {
            "number": 2,
            "time": 19.34999999999976,
            "value": 0.6299212598425197
          },
          {
            "number": 2,
            "time": 19.49999999999976,
            "value": 0.6299212598425197
          },
          {
            "number": 2,
            "time": 19.49999999999976,
            "value": 0.9448818897637795
          },
          {
            "number": 2,
            "time": 19.500624999999758,
            "value": 0.937007874015748
          },
          {
            "number": 2,
            "time": 19.501249999999757,
            "value": 0.937007874015748
          },
          {
            "number": 2,
            "time": 19.501874999999757,
            "value": 0.937007874015748
          },
          {
            "number": 2,
            "time": 19.502499999999756,
            "value": 0.9291338582677166
          },
          {
            "number": 2,
            "time": 19.503124999999756,
            "value": 0.9291338582677166
          },
          {
            "number": 2,
            "time": 19.503749999999755,
            "value": 0.9291338582677166
          },
          {
            "number": 2,
            "time": 19.504374999999754,
            "value": 0.9212598425196851
          },
          {
            "number": 2,
            "time": 19.504999999999754,
            "value": 0.9212598425196851
          },
          {
            "number": 2,
            "time": 19.505624999999753,
            "value": 0.9212598425196851
          },
          {
            "number": 2,
            "time": 19.506249999999753,
            "value": 0.9133858267716536
          },
          {
            "number": 2,
            "time": 19.506874999999752,
            "value": 0.9133858267716536
          },
          {
            "number": 2,
            "time": 19.50749999999975,
            "value": 0.9133858267716536
          },
          {
            "number": 2,
            "time": 19.50812499999975,
            "value": 0.905511811023622
          },
          {
            "number": 2,
            "time": 19.50874999999975,
            "value": 0.905511811023622
          },
          {
            "number": 2,
            "time": 19.50937499999975,
            "value": 0.905511811023622
          },
          {
            "number": 2,
            "time": 19.50999999999975,
            "value": 0.8976377952755905
          },
          {
            "number": 2,
            "time": 19.51062499999975,
            "value": 0.8976377952755905
          },
          {
            "number": 2,
            "time": 19.511249999999748,
            "value": 0.8976377952755905
          },
          {
            "number": 2,
            "time": 19.511874999999748,
            "value": 0.889763779527559
          },
          {
            "number": 2,
            "time": 19.512499999999747,
            "value": 0.889763779527559
          },
          {
            "number": 2,
            "time": 19.513124999999746,
            "value": 0.889763779527559
          },
          {
            "number": 2,
            "time": 19.513749999999746,
            "value": 0.8818897637795275
          },
          {
            "number": 2,
            "time": 19.514374999999745,
            "value": 0.8818897637795275
          },
          {
            "number": 2,
            "time": 19.514999999999745,
            "value": 0.8818897637795275
          },
          {
            "number": 2,
            "time": 19.515624999999744,
            "value": 0.8740157480314961
          },
          {
            "number": 2,
            "time": 19.516249999999744,
            "value": 0.8740157480314961
          },
          {
            "number": 2,
            "time": 19.516874999999743,
            "value": 0.8740157480314961
          },
          {
            "number": 2,
            "time": 19.517499999999742,
            "value": 0.8661417322834646
          },
          {
            "number": 2,
            "time": 19.518124999999742,
            "value": 0.8661417322834646
          },
          {
            "number": 2,
            "time": 19.51874999999974,
            "value": 0.8661417322834646
          },
          {
            "number": 2,
            "time": 19.51937499999974,
            "value": 0.8582677165354331
          },
          {
            "number": 2,
            "time": 19.51999999999974,
            "value": 0.8582677165354331
          },
          {
            "number": 2,
            "time": 19.52062499999974,
            "value": 0.8582677165354331
          },
          {
            "number": 2,
            "time": 19.52124999999974,
            "value": 0.8503937007874016
          },
          {
            "number": 2,
            "time": 19.52187499999974,
            "value": 0.8503937007874016
          },
          {
            "number": 2,
            "time": 19.522499999999738,
            "value": 0.8503937007874016
          },
          {
            "number": 2,
            "time": 19.523124999999737,
            "value": 0.84251968503937
          },
          {
            "number": 2,
            "time": 19.523749999999737,
            "value": 0.84251968503937
          },
          {
            "number": 2,
            "time": 19.524374999999736,
            "value": 0.84251968503937
          },
          {
            "number": 2,
            "time": 19.524999999999736,
            "value": 0.8346456692913385
          },
          {
            "number": 2,
            "time": 19.525624999999735,
            "value": 0.8346456692913385
          },
          {
            "number": 2,
            "time": 19.526249999999735,
            "value": 0.8346456692913385
          },
          {
            "number": 2,
            "time": 19.526874999999734,
            "value": 0.8267716535433071
          },
          {
            "number": 2,
            "time": 19.527499999999733,
            "value": 0.8267716535433071
          },
          {
            "number": 2,
            "time": 19.528124999999733,
            "value": 0.8267716535433071
          },
          {
            "number": 2,
            "time": 19.528749999999732,
            "value": 0.8188976377952756
          },
          {
            "number": 2,
            "time": 19.52937499999973,
            "value": 0.8188976377952756
          },
          {
            "number": 2,
            "time": 19.52999999999973,
            "value": 0.8188976377952756
          },
          {
            "number": 2,
            "time": 19.53062499999973,
            "value": 0.8110236220472441
          },
          {
            "number": 2,
            "time": 19.53124999999973,
            "value": 0.8110236220472441
          },
          {
            "number": 2,
            "time": 19.53187499999973,
            "value": 0.8110236220472441
          },
          {
            "number": 2,
            "time": 19.53249999999973,
            "value": 0.8031496062992126
          },
          {
            "number": 2,
            "time": 19.53312499999973,
            "value": 0.8031496062992126
          },
          {
            "number": 2,
            "time": 19.533749999999728,
            "value": 0.8031496062992126
          },
          {
            "number": 2,
            "time": 19.534374999999727,
            "value": 0.7952755905511811
          },
          {
            "number": 2,
            "time": 19.534999999999727,
            "value": 0.7952755905511811
          },
          {
            "number": 2,
            "time": 19.535624999999726,
            "value": 0.7952755905511811
          },
          {
            "number": 2,
            "time": 19.536249999999725,
            "value": 0.7874015748031497
          },
          {
            "number": 2,
            "time": 19.536874999999725,
            "value": 0.7874015748031497
          },
          {
            "number": 2,
            "time": 19.537499999999724,
            "value": 0.7874015748031497
          },
          {
            "number": 2,
            "time": 19.538124999999724,
            "value": 0.7795275590551181
          },
          {
            "number": 2,
            "time": 19.538749999999723,
            "value": 0.7795275590551181
          },
          {
            "number": 2,
            "time": 19.539374999999723,
            "value": 0.7795275590551181
          },
          {
            "number": 2,
            "time": 19.539999999999722,
            "value": 0.7716535433070866
          },
          {
            "number": 2,
            "time": 19.54062499999972,
            "value": 0.7716535433070866
          },
          {
            "number": 2,
            "time": 19.54124999999972,
            "value": 0.7716535433070866
          },
          {
            "number": 2,
            "time": 19.54187499999972,
            "value": 0.7637795275590551
          },
          {
            "number": 2,
            "time": 19.54249999999972,
            "value": 0.7637795275590551
          },
          {
            "number": 2,
            "time": 19.54312499999972,
            "value": 0.7637795275590551
          },
          {
            "number": 2,
            "time": 19.54374999999972,
            "value": 0.7559055118110236
          },
          {
            "number": 2,
            "time": 19.544374999999718,
            "value": 0.7559055118110236
          },
          {
            "number": 2,
            "time": 19.544999999999717,
            "value": 0.7559055118110236
          },
          {
            "number": 2,
            "time": 19.545624999999717,
            "value": 0.7480314960629921
          },
          {
            "number": 2,
            "time": 19.546249999999716,
            "value": 0.7480314960629921
          },
          {
            "number": 2,
            "time": 19.546874999999716,
            "value": 0.7480314960629921
          },
          {
            "number": 2,
            "time": 19.547499999999715,
            "value": 0.7401574803149606
          },
          {
            "number": 2,
            "time": 19.548124999999715,
            "value": 0.7401574803149606
          },
          {
            "number": 2,
            "time": 19.548749999999714,
            "value": 0.7401574803149606
          },
          {
            "number": 2,
            "time": 19.549374999999714,
            "value": 0.7322834645669292
          },
          {
            "number": 2,
            "time": 19.549999999999713,
            "value": 0.7322834645669292
          },
          {
            "number": 2,
            "time": 19.550624999999712,
            "value": 0.7322834645669292
          },
          {
            "number": 2,
            "time": 19.551249999999712,
            "value": 0.7244094488188977
          },
          {
            "number": 2,
            "time": 19.55187499999971,
            "value": 0.7244094488188977
          },
          {
            "number": 2,
            "time": 19.55249999999971,
            "value": 0.7244094488188977
          },
          {
            "number": 2,
            "time": 19.55312499999971,
            "value": 0.7165354330708661
          },
          {
            "number": 2,
            "time": 19.55374999999971,
            "value": 0.7165354330708661
          },
          {
            "number": 2,
            "time": 19.55437499999971,
            "value": 0.7165354330708661
          },
          {
            "number": 2,
            "time": 19.55499999999971,
            "value": 0.7086614173228346
          },
          {
            "number": 2,
            "time": 19.555624999999708,
            "value": 0.7086614173228346
          },
          {
            "number": 2,
            "time": 19.556249999999707,
            "value": 0.7086614173228346
          },
          {
            "number": 2,
            "time": 19.556874999999707,
            "value": 0.7007874015748031
          },
          {
            "number": 2,
            "time": 19.557499999999706,
            "value": 0.7007874015748031
          },
          {
            "number": 2,
            "time": 19.558124999999706,
            "value": 0.7007874015748031
          },
          {
            "number": 2,
            "time": 19.558749999999705,
            "value": 0.6929133858267716
          },
          {
            "number": 2,
            "time": 19.559374999999704,
            "value": 0.6929133858267716
          },
          {
            "number": 2,
            "time": 19.559999999999704,
            "value": 0.6929133858267716
          },
          {
            "number": 2,
            "time": 19.560624999999703,
            "value": 0.6850393700787402
          },
          {
            "number": 2,
            "time": 19.561249999999703,
            "value": 0.6850393700787402
          },
          {
            "number": 2,
            "time": 19.561874999999702,
            "value": 0.6850393700787402
          },
          {
            "number": 2,
            "time": 19.5624999999997,
            "value": 0.6771653543307087
          },
          {
            "number": 2,
            "time": 19.5631249999997,
            "value": 0.6771653543307087
          },
          {
            "number": 2,
            "time": 19.5637499999997,
            "value": 0.6771653543307087
          },
          {
            "number": 2,
            "time": 19.5643749999997,
            "value": 0.6692913385826772
          },
          {
            "number": 2,
            "time": 19.5649999999997,
            "value": 0.6692913385826772
          },
          {
            "number": 2,
            "time": 19.5656249999997,
            "value": 0.6692913385826772
          },
          {
            "number": 2,
            "time": 19.566249999999698,
            "value": 0.6614173228346457
          },
          {
            "number": 2,
            "time": 19.566874999999698,
            "value": 0.6614173228346457
          },
          {
            "number": 2,
            "time": 19.567499999999697,
            "value": 0.6614173228346457
          },
          {
            "number": 2,
            "time": 19.568124999999696,
            "value": 0.6535433070866141
          },
          {
            "number": 2,
            "time": 19.568749999999696,
            "value": 0.6535433070866141
          },
          {
            "number": 2,
            "time": 19.569374999999695,
            "value": 0.6535433070866141
          },
          {
            "number": 2,
            "time": 19.569999999999695,
            "value": 0.6456692913385826
          },
          {
            "number": 2,
            "time": 19.570624999999694,
            "value": 0.6456692913385826
          },
          {
            "number": 2,
            "time": 19.571249999999694,
            "value": 0.6456692913385826
          },
          {
            "number": 2,
            "time": 19.571874999999693,
            "value": 0.6377952755905512
          },
          {
            "number": 2,
            "time": 19.572499999999692,
            "value": 0.6377952755905512
          },
          {
            "number": 2,
            "time": 19.573124999999692,
            "value": 0.6377952755905512
          },
          {
            "number": 2,
            "time": 19.57374999999969,
            "value": 0.6299212598425197
          },
          {
            "number": 2,
            "time": 19.57437499999969,
            "value": 0.6299212598425197
          },
          {
            "number": 2,
            "time": 19.79999999999969,
            "value": 0.6299212598425197
          },
          {
            "number": 2,
            "time": 20.099999999999692,
            "value": 0.6299212598425197
          },
          {
            "number": 2,
            "time": 20.24999999999969,
            "value": 0.6299212598425197
          },
          {
            "number": 2,
            "time": 20.54999999999969,
            "value": 0.6299212598425197
          },
          {
            "number": 2,
            "time": 20.849999999999692,
            "value": 0.6299212598425197
          },
          {
            "number": 2,
            "time": 21.74999999999969,
            "value": 0.5039370078740157
          },
          {
            "number": 2,
            "time": 21.89999999999969,
            "value": 0.5039370078740157
          },
          {
            "number": 2,
            "time": 22.049999999999688,
            "value": 0.5039370078740157
          },
          {
            "number": 2,
            "time": 22.199999999999687,
            "value": 0.5039370078740157
          },
          {
            "number": 2,
            "time": 22.349999999999685,
            "value": 0.5039370078740157
          },
          {
            "number": 2,
            "time": 22.499999999999684,
            "value": 0.5039370078740157
          },
          {
            "number": 2,
            "time": 22.799999999999685,
            "value": 0.5039370078740157
          },
          {
            "number": 2,
            "time": 23.099999999999685,
            "value": 0.5039370078740157
          },
          {
            "number": 2,
            "time": 23.249999999999684,
            "value": 0.5039370078740157
          },
          {
            "number": 2,
            "time": 23.549999999999685,
            "value": 0.5039370078740157
          },
          {
            "number": 2,
            "time": 23.849999999999685,
            "value": 0.5039370078740157
          },
          {
            "number": 2,
            "time": 24.749999999999684,
            "value": 0.5039370078740157
          },
          {
            "number": 2,
            "time": 24.899999999999682,
            "value": 0.5039370078740157
          },
          {
            "number": 2,
            "time": 25.04999999999968,
            "value": 0.5039370078740157
          },
          {
            "number": 2,
            "time": 25.19999999999968,
            "value": 0.5039370078740157
          },
          {
            "number": 2,
            "time": 25.349999999999678,
            "value": 0.5039370078740157
          },
          {
            "number": 2,
            "time": 25.499999999999677,
            "value": 0.5039370078740157
          },
          {
            "number": 2,
            "time": 32.849999999999675,
            "value": 0.7559055118110236
          },
          {
            "number": 2,
            "time": 32.850624999999674,
            "value": 0.7480314960629921
          },
          {
            "number": 2,
            "time": 32.85249999999967,
            "value": 0.7401574803149606
          },
          {
            "number": 2,
            "time": 32.85499999999967,
            "value": 0.7322834645669292
          },
          {
            "number": 2,
            "time": 32.85749999999967,
            "value": 0.7244094488188977
          },
          {
            "number": 2,
            "time": 32.859999999999665,
            "value": 0.7165354330708661
          },
          {
            "number": 2,
            "time": 32.861874999999664,
            "value": 0.7086614173228346
          },
          {
            "number": 2,
            "time": 32.86437499999966,
            "value": 0.7007874015748031
          },
          {
            "number": 2,
            "time": 32.86687499999966,
            "value": 0.6929133858267716
          },
          {
            "number": 2,
            "time": 32.86937499999966,
            "value": 0.6850393700787402
          },
          {
            "number": 2,
            "time": 32.871249999999655,
            "value": 0.6771653543307087
          },
          {
            "number": 2,
            "time": 32.87374999999965,
            "value": 0.6692913385826772
          },
          {
            "number": 2,
            "time": 32.87624999999965,
            "value": 0.6614173228346457
          },
          {
            "number": 2,
            "time": 32.87874999999965,
            "value": 0.6535433070866141
          },
          {
            "number": 2,
            "time": 32.88062499999965,
            "value": 0.6456692913385826
          },
          {
            "number": 2,
            "time": 32.883124999999644,
            "value": 0.6377952755905512
          },
          {
            "number": 2,
            "time": 32.88562499999964,
            "value": 0.6299212598425197
          },
          {
            "number": 2,
            "time": 32.88812499999964,
            "value": 0.6220472440944882
          },
          {
            "number": 2,
            "time": 32.88999999999964,
            "value": 0.6141732283464567
          },
          {
            "number": 2,
            "time": 32.892499999999636,
            "value": 0.6062992125984252
          },
          {
            "number": 2,
            "time": 32.894999999999634,
            "value": 0.5984251968503937
          },
          {
            "number": 2,
            "time": 32.89749999999963,
            "value": 0.5905511811023622
          },
          {
            "number": 2,
            "time": 32.89937499999963,
            "value": 0.5826771653543307
          },
          {
            "number": 2,
            "time": 32.90187499999963,
            "value": 0.5748031496062992
          },
          {
            "number": 2,
            "time": 32.904374999999625,
            "value": 0.5669291338582677
          },
          {
            "number": 2,
            "time": 32.90687499999962,
            "value": 0.5590551181102362
          },
          {
            "number": 2,
            "time": 32.90874999999962,
            "value": 0.5511811023622047
          },
          {
            "number": 2,
            "time": 32.91124999999962,
            "value": 0.5433070866141733
          },
          {
            "number": 2,
            "time": 32.91374999999962,
            "value": 0.5354330708661418
          },
          {
            "number": 2,
            "time": 32.916249999999614,
            "value": 0.5275590551181102
          },
          {
            "number": 2,
            "time": 32.91812499999961,
            "value": 0.5196850393700787
          },
          {
            "number": 2,
            "time": 32.92062499999961,
            "value": 0.5118110236220472
          },
          {
            "number": 2,
            "time": 32.92312499999961,
            "value": 0.5039370078740157
          },
          {
            "number": 2,
            "time": 33.74999999999961,
            "value": 0.5039370078740157
          },
          {
            "number": 2,
            "time": 34.19999999999961,
            "value": 0.5039370078740157
          },
          {
            "number": 2,
            "time": 34.649999999999615,
            "value": 0.5039370078740157
          },
          {
            "number": 2,
            "time": 35.54999999999961,
            "value": 0.5039370078740157
          },
          {
            "number": 2,
            "time": 35.999999999999616,
            "value": 0.5039370078740157
          },
          {
            "number": 2,
            "time": 36.44999999999962,
            "value": 0.5039370078740157
          },
          {
            "number": 2,
            "time": 37.34999999999962,
            "value": 0.5039370078740157
          },
          {
            "number": 2,
            "time": 37.79999999999962,
            "value": 0.5039370078740157
          },
          {
            "number": 2,
            "time": 38.24999999999962,
            "value": 0.5039370078740157
          },
          {
            "number": 2,
            "time": 39.14999999999962,
            "value": 0.7559055118110236
          },
          {
            "number": 2,
            "time": 39.15062499999962,
            "value": 0.7480314960629921
          },
          {
            "number": 2,
            "time": 39.15124999999962,
            "value": 0.7480314960629921
          },
          {
            "number": 2,
            "time": 39.15187499999962,
            "value": 0.7480314960629921
          },
          {
            "number": 2,
            "time": 39.15249999999962,
            "value": 0.7401574803149606
          },
          {
            "number": 2,
            "time": 39.15312499999962,
            "value": 0.7401574803149606
          },
          {
            "number": 2,
            "time": 39.15374999999962,
            "value": 0.7401574803149606
          },
          {
            "number": 2,
            "time": 39.15437499999962,
            "value": 0.7401574803149606
          },
          {
            "number": 2,
            "time": 39.15499999999962,
            "value": 0.7322834645669292
          },
          {
            "number": 2,
            "time": 39.15562499999962,
            "value": 0.7322834645669292
          },
          {
            "number": 2,
            "time": 39.156249999999616,
            "value": 0.7322834645669292
          },
          {
            "number": 2,
            "time": 39.156874999999616,
            "value": 0.7322834645669292
          },
          {
            "number": 2,
            "time": 39.157499999999615,
            "value": 0.7244094488188977
          },
          {
            "number": 2,
            "time": 39.158124999999615,
            "value": 0.7244094488188977
          },
          {
            "number": 2,
            "time": 39.158749999999614,
            "value": 0.7244094488188977
          },
          {
            "number": 2,
            "time": 39.15937499999961,
            "value": 0.7244094488188977
          },
          {
            "number": 2,
            "time": 39.15999999999961,
            "value": 0.7165354330708661
          },
          {
            "number": 2,
            "time": 39.16062499999961,
            "value": 0.7165354330708661
          },
          {
            "number": 2,
            "time": 39.16124999999961,
            "value": 0.7165354330708661
          },
          {
            "number": 2,
            "time": 39.16187499999961,
            "value": 0.7086614173228346
          },
          {
            "number": 2,
            "time": 39.16249999999961,
            "value": 0.7086614173228346
          },
          {
            "number": 2,
            "time": 39.16312499999961,
            "value": 0.7086614173228346
          },
          {
            "number": 2,
            "time": 39.16374999999961,
            "value": 0.7086614173228346
          },
          {
            "number": 2,
            "time": 39.16437499999961,
            "value": 0.7007874015748031
          },
          {
            "number": 2,
            "time": 39.16499999999961,
            "value": 0.7007874015748031
          },
          {
            "number": 2,
            "time": 39.16562499999961,
            "value": 0.7007874015748031
          },
          {
            "number": 2,
            "time": 39.16624999999961,
            "value": 0.7007874015748031
          },
          {
            "number": 2,
            "time": 39.16687499999961,
            "value": 0.6929133858267716
          },
          {
            "number": 2,
            "time": 39.167499999999606,
            "value": 0.6929133858267716
          },
          {
            "number": 2,
            "time": 39.168124999999606,
            "value": 0.6929133858267716
          },
          {
            "number": 2,
            "time": 39.168749999999605,
            "value": 0.6929133858267716
          },
          {
            "number": 2,
            "time": 39.169374999999604,
            "value": 0.6850393700787402
          },
          {
            "number": 2,
            "time": 39.169999999999604,
            "value": 0.6850393700787402
          },
          {
            "number": 2,
            "time": 39.1706249999996,
            "value": 0.6850393700787402
          },
          {
            "number": 2,
            "time": 39.1712499999996,
            "value": 0.6771653543307087
          },
          {
            "number": 2,
            "time": 39.1718749999996,
            "value": 0.6771653543307087
          },
          {
            "number": 2,
            "time": 39.1724999999996,
            "value": 0.6771653543307087
          },
          {
            "number": 2,
            "time": 39.1731249999996,
            "value": 0.6771653543307087
          },
          {
            "number": 2,
            "time": 39.1737499999996,
            "value": 0.6692913385826772
          },
          {
            "number": 2,
            "time": 39.1743749999996,
            "value": 0.6692913385826772
          },
          {
            "number": 2,
            "time": 39.1749999999996,
            "value": 0.6692913385826772
          },
          {
            "number": 2,
            "time": 39.1756249999996,
            "value": 0.6692913385826772
          },
          {
            "number": 2,
            "time": 39.1762499999996,
            "value": 0.6614173228346457
          },
          {
            "number": 2,
            "time": 39.1768749999996,
            "value": 0.6614173228346457
          },
          {
            "number": 2,
            "time": 39.1774999999996,
            "value": 0.6614173228346457
          },
          {
            "number": 2,
            "time": 39.178124999999596,
            "value": 0.6614173228346457
          },
          {
            "number": 2,
            "time": 39.178749999999596,
            "value": 0.6535433070866141
          },
          {
            "number": 2,
            "time": 39.179374999999595,
            "value": 0.6535433070866141
          },
          {
            "number": 2,
            "time": 39.179999999999595,
            "value": 0.6535433070866141
          },
          {
            "number": 2,
            "time": 39.180624999999594,
            "value": 0.6456692913385826
          },
          {
            "number": 2,
            "time": 39.181249999999594,
            "value": 0.6456692913385826
          },
          {
            "number": 2,
            "time": 39.18187499999959,
            "value": 0.6456692913385826
          },
          {
            "number": 2,
            "time": 39.18249999999959,
            "value": 0.6456692913385826
          },
          {
            "number": 2,
            "time": 39.18312499999959,
            "value": 0.6377952755905512
          },
          {
            "number": 2,
            "time": 39.18374999999959,
            "value": 0.6377952755905512
          },
          {
            "number": 2,
            "time": 39.18437499999959,
            "value": 0.6377952755905512
          },
          {
            "number": 2,
            "time": 39.18499999999959,
            "value": 0.6377952755905512
          },
          {
            "number": 2,
            "time": 39.18562499999959,
            "value": 0.6299212598425197
          },
          {
            "number": 2,
            "time": 39.18624999999959,
            "value": 0.6299212598425197
          },
          {
            "number": 2,
            "time": 39.18687499999959,
            "value": 0.6299212598425197
          },
          {
            "number": 2,
            "time": 39.18749999999959,
            "value": 0.6299212598425197
          },
          {
            "number": 2,
            "time": 39.18812499999959,
            "value": 0.6220472440944882
          },
          {
            "number": 2,
            "time": 39.18874999999959,
            "value": 0.6220472440944882
          },
          {
            "number": 2,
            "time": 39.189374999999586,
            "value": 0.6220472440944882
          },
          {
            "number": 2,
            "time": 39.189999999999586,
            "value": 0.6141732283464567
          },
          {
            "number": 2,
            "time": 39.190624999999585,
            "value": 0.6141732283464567
          },
          {
            "number": 2,
            "time": 39.191249999999584,
            "value": 0.6141732283464567
          },
          {
            "number": 2,
            "time": 39.191874999999584,
            "value": 0.6141732283464567
          },
          {
            "number": 2,
            "time": 39.19249999999958,
            "value": 0.6062992125984252
          },
          {
            "number": 2,
            "time": 39.19312499999958,
            "value": 0.6062992125984252
          },
          {
            "number": 2,
            "time": 39.19374999999958,
            "value": 0.6062992125984252
          },
          {
            "number": 2,
            "time": 39.19437499999958,
            "value": 0.6062992125984252
          },
          {
            "number": 2,
            "time": 39.19499999999958,
            "value": 0.5984251968503937
          },
          {
            "number": 2,
            "time": 39.19562499999958,
            "value": 0.5984251968503937
          },
          {
            "number": 2,
            "time": 39.19624999999958,
            "value": 0.5984251968503937
          },
          {
            "number": 2,
            "time": 39.19687499999958,
            "value": 0.5984251968503937
          },
          {
            "number": 2,
            "time": 39.19749999999958,
            "value": 0.5905511811023622
          },
          {
            "number": 2,
            "time": 39.19812499999958,
            "value": 0.5905511811023622
          },
          {
            "number": 2,
            "time": 39.19874999999958,
            "value": 0.5905511811023622
          },
          {
            "number": 2,
            "time": 39.19937499999958,
            "value": 0.5826771653543307
          },
          {
            "number": 2,
            "time": 39.19999999999958,
            "value": 0.5826771653543307
          },
          {
            "number": 2,
            "time": 39.200624999999576,
            "value": 0.5826771653543307
          },
          {
            "number": 2,
            "time": 39.201249999999575,
            "value": 0.5826771653543307
          },
          {
            "number": 2,
            "time": 39.201874999999575,
            "value": 0.5748031496062992
          },
          {
            "number": 2,
            "time": 39.202499999999574,
            "value": 0.5748031496062992
          },
          {
            "number": 2,
            "time": 39.203124999999574,
            "value": 0.5748031496062992
          },
          {
            "number": 2,
            "time": 39.20374999999957,
            "value": 0.5748031496062992
          },
          {
            "number": 2,
            "time": 39.20437499999957,
            "value": 0.5669291338582677
          },
          {
            "number": 2,
            "time": 39.20499999999957,
            "value": 0.5669291338582677
          },
          {
            "number": 2,
            "time": 39.20562499999957,
            "value": 0.5669291338582677
          },
          {
            "number": 2,
            "time": 39.20624999999957,
            "value": 0.5669291338582677
          },
          {
            "number": 2,
            "time": 39.20687499999957,
            "value": 0.5590551181102362
          },
          {
            "number": 2,
            "time": 39.20749999999957,
            "value": 0.5590551181102362
          },
          {
            "number": 2,
            "time": 39.20812499999957,
            "value": 0.5590551181102362
          },
          {
            "number": 2,
            "time": 39.20874999999957,
            "value": 0.5511811023622047
          },
          {
            "number": 2,
            "time": 39.20937499999957,
            "value": 0.5511811023622047
          },
          {
            "number": 2,
            "time": 39.20999999999957,
            "value": 0.5511811023622047
          },
          {
            "number": 2,
            "time": 39.21062499999957,
            "value": 0.5511811023622047
          },
          {
            "number": 2,
            "time": 39.211249999999566,
            "value": 0.5433070866141733
          },
          {
            "number": 2,
            "time": 39.211874999999566,
            "value": 0.5433070866141733
          },
          {
            "number": 2,
            "time": 39.212499999999565,
            "value": 0.5433070866141733
          },
          {
            "number": 2,
            "time": 39.213124999999565,
            "value": 0.5433070866141733
          },
          {
            "number": 2,
            "time": 39.213749999999564,
            "value": 0.5354330708661418
          },
          {
            "number": 2,
            "time": 39.21437499999956,
            "value": 0.5354330708661418
          },
          {
            "number": 2,
            "time": 39.21499999999956,
            "value": 0.5354330708661418
          },
          {
            "number": 2,
            "time": 39.21562499999956,
            "value": 0.5354330708661418
          },
          {
            "number": 2,
            "time": 39.21624999999956,
            "value": 0.5275590551181102
          },
          {
            "number": 2,
            "time": 39.21687499999956,
            "value": 0.5275590551181102
          },
          {
            "number": 2,
            "time": 39.21749999999956,
            "value": 0.5275590551181102
          },
          {
            "number": 2,
            "time": 39.21812499999956,
            "value": 0.5196850393700787
          },
          {
            "number": 2,
            "time": 39.21874999999956,
            "value": 0.5196850393700787
          },
          {
            "number": 2,
            "time": 39.21937499999956,
            "value": 0.5196850393700787
          },
          {
            "number": 2,
            "time": 39.21999999999956,
            "value": 0.5196850393700787
          },
          {
            "number": 2,
            "time": 39.22062499999956,
            "value": 0.5118110236220472
          },
          {
            "number": 2,
            "time": 39.22124999999956,
            "value": 0.5118110236220472
          },
          {
            "number": 2,
            "time": 39.22187499999956,
            "value": 0.5118110236220472
          },
          {
            "number": 2,
            "time": 39.222499999999556,
            "value": 0.5118110236220472
          },
          {
            "number": 2,
            "time": 39.223124999999555,
            "value": 0.5039370078740157
          },
          {
            "number": 2,
            "time": 39.223749999999555,
            "value": 0.5039370078740157
          },
          {
            "number": 2,
            "time": 39.224374999999554,
            "value": 0.5039370078740157
          },
          {
            "number": 2,
            "time": 39.449999999999555,
            "value": 0.5039370078740157
          },
          {
            "number": 2,
            "time": 39.599999999999554,
            "value": 0.7559055118110236
          },
          {
            "number": 2,
            "time": 39.60062499999955,
            "value": 0.7480314960629921
          },
          {
            "number": 2,
            "time": 39.60124999999955,
            "value": 0.7480314960629921
          },
          {
            "number": 2,
            "time": 39.60187499999955,
            "value": 0.7480314960629921
          },
          {
            "number": 2,
            "time": 39.60249999999955,
            "value": 0.7401574803149606
          },
          {
            "number": 2,
            "time": 39.60312499999955,
            "value": 0.7401574803149606
          },
          {
            "number": 2,
            "time": 39.60374999999955,
            "value": 0.7401574803149606
          },
          {
            "number": 2,
            "time": 39.60437499999955,
            "value": 0.7401574803149606
          },
          {
            "number": 2,
            "time": 39.60499999999955,
            "value": 0.7322834645669292
          },
          {
            "number": 2,
            "time": 39.60562499999955,
            "value": 0.7322834645669292
          },
          {
            "number": 2,
            "time": 39.60624999999955,
            "value": 0.7322834645669292
          },
          {
            "number": 2,
            "time": 39.60687499999955,
            "value": 0.7322834645669292
          },
          {
            "number": 2,
            "time": 39.60749999999955,
            "value": 0.7244094488188977
          },
          {
            "number": 2,
            "time": 39.608124999999546,
            "value": 0.7244094488188977
          },
          {
            "number": 2,
            "time": 39.608749999999546,
            "value": 0.7244094488188977
          },
          {
            "number": 2,
            "time": 39.609374999999545,
            "value": 0.7244094488188977
          },
          {
            "number": 2,
            "time": 39.609999999999545,
            "value": 0.7165354330708661
          },
          {
            "number": 2,
            "time": 39.610624999999544,
            "value": 0.7165354330708661
          },
          {
            "number": 2,
            "time": 39.61124999999954,
            "value": 0.7165354330708661
          },
          {
            "number": 2,
            "time": 39.61187499999954,
            "value": 0.7086614173228346
          },
          {
            "number": 2,
            "time": 39.61249999999954,
            "value": 0.7086614173228346
          },
          {
            "number": 2,
            "time": 39.61312499999954,
            "value": 0.7086614173228346
          },
          {
            "number": 2,
            "time": 39.61374999999954,
            "value": 0.7086614173228346
          },
          {
            "number": 2,
            "time": 39.61437499999954,
            "value": 0.7007874015748031
          },
          {
            "number": 2,
            "time": 39.61499999999954,
            "value": 0.7007874015748031
          },
          {
            "number": 2,
            "time": 39.61562499999954,
            "value": 0.7007874015748031
          },
          {
            "number": 2,
            "time": 39.61624999999954,
            "value": 0.7007874015748031
          },
          {
            "number": 2,
            "time": 39.61687499999954,
            "value": 0.6929133858267716
          },
          {
            "number": 2,
            "time": 39.61749999999954,
            "value": 0.6929133858267716
          },
          {
            "number": 2,
            "time": 39.61812499999954,
            "value": 0.6929133858267716
          },
          {
            "number": 2,
            "time": 39.61874999999954,
            "value": 0.6929133858267716
          },
          {
            "number": 2,
            "time": 39.619374999999536,
            "value": 0.6850393700787402
          },
          {
            "number": 2,
            "time": 39.619999999999536,
            "value": 0.6850393700787402
          },
          {
            "number": 2,
            "time": 39.620624999999535,
            "value": 0.6850393700787402
          },
          {
            "number": 2,
            "time": 39.621249999999534,
            "value": 0.6771653543307087
          },
          {
            "number": 2,
            "time": 39.621874999999534,
            "value": 0.6771653543307087
          },
          {
            "number": 2,
            "time": 39.62249999999953,
            "value": 0.6771653543307087
          },
          {
            "number": 2,
            "time": 39.62312499999953,
            "value": 0.6771653543307087
          },
          {
            "number": 2,
            "time": 39.62374999999953,
            "value": 0.6692913385826772
          },
          {
            "number": 2,
            "time": 39.62437499999953,
            "value": 0.6692913385826772
          },
          {
            "number": 2,
            "time": 39.62499999999953,
            "value": 0.6692913385826772
          },
          {
            "number": 2,
            "time": 39.62562499999953,
            "value": 0.6692913385826772
          },
          {
            "number": 2,
            "time": 39.62624999999953,
            "value": 0.6614173228346457
          },
          {
            "number": 2,
            "time": 39.62687499999953,
            "value": 0.6614173228346457
          },
          {
            "number": 2,
            "time": 39.62749999999953,
            "value": 0.6614173228346457
          },
          {
            "number": 2,
            "time": 39.62812499999953,
            "value": 0.6614173228346457
          },
          {
            "number": 2,
            "time": 39.62874999999953,
            "value": 0.6535433070866141
          },
          {
            "number": 2,
            "time": 39.62937499999953,
            "value": 0.6535433070866141
          },
          {
            "number": 2,
            "time": 39.62999999999953,
            "value": 0.6535433070866141
          },
          {
            "number": 2,
            "time": 39.630624999999526,
            "value": 0.6456692913385826
          },
          {
            "number": 2,
            "time": 39.631249999999525,
            "value": 0.6456692913385826
          },
          {
            "number": 2,
            "time": 39.631874999999525,
            "value": 0.6456692913385826
          },
          {
            "number": 2,
            "time": 39.632499999999524,
            "value": 0.6456692913385826
          },
          {
            "number": 2,
            "time": 39.633124999999524,
            "value": 0.6377952755905512
          },
          {
            "number": 2,
            "time": 39.63374999999952,
            "value": 0.6377952755905512
          },
          {
            "number": 2,
            "time": 39.63437499999952,
            "value": 0.6377952755905512
          },
          {
            "number": 2,
            "time": 39.63499999999952,
            "value": 0.6377952755905512
          },
          {
            "number": 2,
            "time": 39.63562499999952,
            "value": 0.6299212598425197
          },
          {
            "number": 2,
            "time": 39.63624999999952,
            "value": 0.6299212598425197
          },
          {
            "number": 2,
            "time": 39.63687499999952,
            "value": 0.6299212598425197
          },
          {
            "number": 2,
            "time": 39.63749999999952,
            "value": 0.6299212598425197
          },
          {
            "number": 2,
            "time": 39.63812499999952,
            "value": 0.6220472440944882
          },
          {
            "number": 2,
            "time": 39.63874999999952,
            "value": 0.6220472440944882
          },
          {
            "number": 2,
            "time": 39.63937499999952,
            "value": 0.6220472440944882
          },
          {
            "number": 2,
            "time": 39.63999999999952,
            "value": 0.6141732283464567
          },
          {
            "number": 2,
            "time": 39.64062499999952,
            "value": 0.6141732283464567
          },
          {
            "number": 2,
            "time": 39.641249999999516,
            "value": 0.6141732283464567
          },
          {
            "number": 2,
            "time": 39.641874999999516,
            "value": 0.6141732283464567
          },
          {
            "number": 2,
            "time": 39.642499999999515,
            "value": 0.6062992125984252
          },
          {
            "number": 2,
            "time": 39.643124999999515,
            "value": 0.6062992125984252
          },
          {
            "number": 2,
            "time": 39.643749999999514,
            "value": 0.6062992125984252
          },
          {
            "number": 2,
            "time": 39.64437499999951,
            "value": 0.6062992125984252
          },
          {
            "number": 2,
            "time": 39.64499999999951,
            "value": 0.5984251968503937
          },
          {
            "number": 2,
            "time": 39.64562499999951,
            "value": 0.5984251968503937
          },
          {
            "number": 2,
            "time": 39.64624999999951,
            "value": 0.5984251968503937
          },
          {
            "number": 2,
            "time": 39.64687499999951,
            "value": 0.5984251968503937
          },
          {
            "number": 2,
            "time": 39.64749999999951,
            "value": 0.5905511811023622
          },
          {
            "number": 2,
            "time": 39.64812499999951,
            "value": 0.5905511811023622
          },
          {
            "number": 2,
            "time": 39.64874999999951,
            "value": 0.5905511811023622
          },
          {
            "number": 2,
            "time": 39.64937499999951,
            "value": 0.5826771653543307
          },
          {
            "number": 2,
            "time": 39.64999999999951,
            "value": 0.5826771653543307
          },
          {
            "number": 2,
            "time": 39.65062499999951,
            "value": 0.5826771653543307
          },
          {
            "number": 2,
            "time": 39.65124999999951,
            "value": 0.5826771653543307
          },
          {
            "number": 2,
            "time": 39.65187499999951,
            "value": 0.5748031496062992
          },
          {
            "number": 2,
            "time": 39.652499999999506,
            "value": 0.5748031496062992
          },
          {
            "number": 2,
            "time": 39.653124999999505,
            "value": 0.5748031496062992
          },
          {
            "number": 2,
            "time": 39.653749999999505,
            "value": 0.5748031496062992
          },
          {
            "number": 2,
            "time": 39.654374999999504,
            "value": 0.5669291338582677
          },
          {
            "number": 2,
            "time": 39.654999999999504,
            "value": 0.5669291338582677
          },
          {
            "number": 2,
            "time": 39.6556249999995,
            "value": 0.5669291338582677
          },
          {
            "number": 2,
            "time": 39.6562499999995,
            "value": 0.5669291338582677
          },
          {
            "number": 2,
            "time": 39.6568749999995,
            "value": 0.5590551181102362
          },
          {
            "number": 2,
            "time": 39.6574999999995,
            "value": 0.5590551181102362
          },
          {
            "number": 2,
            "time": 39.6581249999995,
            "value": 0.5590551181102362
          },
          {
            "number": 2,
            "time": 39.6587499999995,
            "value": 0.5511811023622047
          },
          {
            "number": 2,
            "time": 39.6593749999995,
            "value": 0.5511811023622047
          },
          {
            "number": 2,
            "time": 39.6599999999995,
            "value": 0.5511811023622047
          },
          {
            "number": 2,
            "time": 39.6606249999995,
            "value": 0.5511811023622047
          },
          {
            "number": 2,
            "time": 39.6612499999995,
            "value": 0.5433070866141733
          },
          {
            "number": 2,
            "time": 39.6618749999995,
            "value": 0.5433070866141733
          },
          {
            "number": 2,
            "time": 39.6624999999995,
            "value": 0.5433070866141733
          },
          {
            "number": 2,
            "time": 39.663124999999496,
            "value": 0.5433070866141733
          },
          {
            "number": 2,
            "time": 39.663749999999496,
            "value": 0.5354330708661418
          },
          {
            "number": 2,
            "time": 39.664374999999495,
            "value": 0.5354330708661418
          },
          {
            "number": 2,
            "time": 39.664999999999495,
            "value": 0.5354330708661418
          },
          {
            "number": 2,
            "time": 39.665624999999494,
            "value": 0.5354330708661418
          },
          {
            "number": 2,
            "time": 39.66624999999949,
            "value": 0.5275590551181102
          },
          {
            "number": 2,
            "time": 39.66687499999949,
            "value": 0.5275590551181102
          },
          {
            "number": 2,
            "time": 39.66749999999949,
            "value": 0.5275590551181102
          },
          {
            "number": 2,
            "time": 39.66812499999949,
            "value": 0.5196850393700787
          },
          {
            "number": 2,
            "time": 39.66874999999949,
            "value": 0.5196850393700787
          },
          {
            "number": 2,
            "time": 39.66937499999949,
            "value": 0.5196850393700787
          },
          {
            "number": 2,
            "time": 39.66999999999949,
            "value": 0.5196850393700787
          },
          {
            "number": 2,
            "time": 39.67062499999949,
            "value": 0.5118110236220472
          },
          {
            "number": 2,
            "time": 39.67124999999949,
            "value": 0.5118110236220472
          },
          {
            "number": 2,
            "time": 39.67187499999949,
            "value": 0.5118110236220472
          },
          {
            "number": 2,
            "time": 39.67249999999949,
            "value": 0.5118110236220472
          },
          {
            "number": 2,
            "time": 39.67312499999949,
            "value": 0.5039370078740157
          },
          {
            "number": 2,
            "time": 39.67374999999949,
            "value": 0.5039370078740157
          },
          {
            "number": 2,
            "time": 39.674374999999486,
            "value": 0.5039370078740157
          },
          {
            "number": 2,
            "time": 39.89999999999949,
            "value": 0.5039370078740157
          },
          {
            "number": 2,
            "time": 40.049999999999486,
            "value": 0.5039370078740157
          },
          {
            "number": 2,
            "time": 40.949999999999484,
            "value": 0.5039370078740157
          },
          {
            "number": 2,
            "time": 41.39999999999949,
            "value": 0.5039370078740157
          },
          {
            "number": 2,
            "time": 41.84999999999949,
            "value": 0.5039370078740157
          },
          {
            "number": 2,
            "time": 42.74999999999949,
            "value": 0.5039370078740157
          },
          {
            "number": 2,
            "time": 43.19999999999949,
            "value": 0.5039370078740157
          },
          {
            "number": 2,
            "time": 43.649999999999494,
            "value": 0.5039370078740157
          },
          {
            "number": 2,
            "time": 44.54999999999949,
            "value": 0.5039370078740157
          },
          {
            "number": 2,
            "time": 44.999999999999496,
            "value": 0.5039370078740157
          },
          {
            "number": 2,
            "time": 45.4499999999995,
            "value": 0.5039370078740157
          },
          {
            "number": 2,
            "time": 46.3499999999995,
            "value": 0.5039370078740157
          },
          {
            "number": 2,
            "time": 47.249999999999496,
            "value": 0.5039370078740157
          },
          {
            "number": 2,
            "time": 48.149999999999494,
            "value": 0.5039370078740157
          },
          {
            "number": 2,
            "time": 48.5999999999995,
            "value": 0.5039370078740157
          },
          {
            "number": 2,
            "time": 49.0499999999995,
            "value": 0.5039370078740157
          },
          {
            "number": 2,
            "time": 49.9499999999995,
            "value": 0.5039370078740157
          },
          {
            "number": 2,
            "time": 50.8499999999995,
            "value": 0.5039370078740157
          },
          {
            "number": 2,
            "time": 51.749999999999496,
            "value": 0.5039370078740157
          },
          {
            "number": 2,
            "time": 52.649999999999494,
            "value": 0.5039370078740157
          },
          {
            "number": 2,
            "time": 53.54999999999949,
            "value": 0.7559055118110236
          },
          {
            "number": 2,
            "time": 53.55062499999949,
            "value": 0.7480314960629921
          },
          {
            "number": 2,
            "time": 53.55124999999949,
            "value": 0.7480314960629921
          },
          {
            "number": 2,
            "time": 53.55187499999949,
            "value": 0.7480314960629921
          },
          {
            "number": 2,
            "time": 53.55249999999949,
            "value": 0.7401574803149606
          },
          {
            "number": 2,
            "time": 53.55312499999949,
            "value": 0.7401574803149606
          },
          {
            "number": 2,
            "time": 53.55374999999949,
            "value": 0.7401574803149606
          },
          {
            "number": 2,
            "time": 53.55437499999949,
            "value": 0.7401574803149606
          },
          {
            "number": 2,
            "time": 53.55499999999949,
            "value": 0.7322834645669292
          },
          {
            "number": 2,
            "time": 53.55562499999949,
            "value": 0.7322834645669292
          },
          {
            "number": 2,
            "time": 53.55624999999949,
            "value": 0.7322834645669292
          },
          {
            "number": 2,
            "time": 53.556874999999486,
            "value": 0.7322834645669292
          },
          {
            "number": 2,
            "time": 53.557499999999486,
            "value": 0.7244094488188977
          },
          {
            "number": 2,
            "time": 53.558124999999485,
            "value": 0.7244094488188977
          },
          {
            "number": 2,
            "time": 53.558749999999485,
            "value": 0.7244094488188977
          },
          {
            "number": 2,
            "time": 53.559374999999484,
            "value": 0.7244094488188977
          },
          {
            "number": 2,
            "time": 53.559999999999484,
            "value": 0.7165354330708661
          },
          {
            "number": 2,
            "time": 53.56062499999948,
            "value": 0.7165354330708661
          },
          {
            "number": 2,
            "time": 53.56124999999948,
            "value": 0.7165354330708661
          },
          {
            "number": 2,
            "time": 53.56187499999948,
            "value": 0.7086614173228346
          },
          {
            "number": 2,
            "time": 53.56249999999948,
            "value": 0.7086614173228346
          },
          {
            "number": 2,
            "time": 53.56312499999948,
            "value": 0.7086614173228346
          },
          {
            "number": 2,
            "time": 53.56374999999948,
            "value": 0.7086614173228346
          },
          {
            "number": 2,
            "time": 53.56437499999948,
            "value": 0.7007874015748031
          },
          {
            "number": 2,
            "time": 53.56499999999948,
            "value": 0.7007874015748031
          },
          {
            "number": 2,
            "time": 53.56562499999948,
            "value": 0.7007874015748031
          },
          {
            "number": 2,
            "time": 53.56624999999948,
            "value": 0.7007874015748031
          },
          {
            "number": 2,
            "time": 53.56687499999948,
            "value": 0.6929133858267716
          },
          {
            "number": 2,
            "time": 53.56749999999948,
            "value": 0.6929133858267716
          },
          {
            "number": 2,
            "time": 53.568124999999476,
            "value": 0.6929133858267716
          },
          {
            "number": 2,
            "time": 53.568749999999476,
            "value": 0.6929133858267716
          },
          {
            "number": 2,
            "time": 53.569374999999475,
            "value": 0.6850393700787402
          },
          {
            "number": 2,
            "time": 53.569999999999474,
            "value": 0.6850393700787402
          },
          {
            "number": 2,
            "time": 53.570624999999474,
            "value": 0.6850393700787402
          },
          {
            "number": 2,
            "time": 53.57124999999947,
            "value": 0.6771653543307087
          },
          {
            "number": 2,
            "time": 53.57187499999947,
            "value": 0.6771653543307087
          },
          {
            "number": 2,
            "time": 53.57249999999947,
            "value": 0.6771653543307087
          },
          {
            "number": 2,
            "time": 53.57312499999947,
            "value": 0.6771653543307087
          },
          {
            "number": 2,
            "time": 53.57374999999947,
            "value": 0.6692913385826772
          },
          {
            "number": 2,
            "time": 53.57437499999947,
            "value": 0.6692913385826772
          },
          {
            "number": 2,
            "time": 53.57499999999947,
            "value": 0.6692913385826772
          },
          {
            "number": 2,
            "time": 53.57562499999947,
            "value": 0.6692913385826772
          },
          {
            "number": 2,
            "time": 53.57624999999947,
            "value": 0.6614173228346457
          },
          {
            "number": 2,
            "time": 53.57687499999947,
            "value": 0.6614173228346457
          },
          {
            "number": 2,
            "time": 53.57749999999947,
            "value": 0.6614173228346457
          },
          {
            "number": 2,
            "time": 53.57812499999947,
            "value": 0.6614173228346457
          },
          {
            "number": 2,
            "time": 53.57874999999947,
            "value": 0.6535433070866141
          },
          {
            "number": 2,
            "time": 53.579374999999466,
            "value": 0.6535433070866141
          },
          {
            "number": 2,
            "time": 53.579999999999465,
            "value": 0.6535433070866141
          },
          {
            "number": 2,
            "time": 53.580624999999465,
            "value": 0.6456692913385826
          },
          {
            "number": 2,
            "time": 53.581249999999464,
            "value": 0.6456692913385826
          },
          {
            "number": 2,
            "time": 53.581874999999464,
            "value": 0.6456692913385826
          },
          {
            "number": 2,
            "time": 53.58249999999946,
            "value": 0.6456692913385826
          },
          {
            "number": 2,
            "time": 53.58312499999946,
            "value": 0.6377952755905512
          },
          {
            "number": 2,
            "time": 53.58374999999946,
            "value": 0.6377952755905512
          },
          {
            "number": 2,
            "time": 53.58437499999946,
            "value": 0.6377952755905512
          },
          {
            "number": 2,
            "time": 53.58499999999946,
            "value": 0.6377952755905512
          },
          {
            "number": 2,
            "time": 53.58562499999946,
            "value": 0.6299212598425197
          },
          {
            "number": 2,
            "time": 53.58624999999946,
            "value": 0.6299212598425197
          },
          {
            "number": 2,
            "time": 53.58687499999946,
            "value": 0.6299212598425197
          },
          {
            "number": 2,
            "time": 53.58749999999946,
            "value": 0.6299212598425197
          },
          {
            "number": 2,
            "time": 53.58812499999946,
            "value": 0.6220472440944882
          },
          {
            "number": 2,
            "time": 53.58874999999946,
            "value": 0.6220472440944882
          },
          {
            "number": 2,
            "time": 53.58937499999946,
            "value": 0.6220472440944882
          },
          {
            "number": 2,
            "time": 53.589999999999456,
            "value": 0.6141732283464567
          },
          {
            "number": 2,
            "time": 53.590624999999456,
            "value": 0.6141732283464567
          },
          {
            "number": 2,
            "time": 53.591249999999455,
            "value": 0.6141732283464567
          },
          {
            "number": 2,
            "time": 53.591874999999455,
            "value": 0.6141732283464567
          },
          {
            "number": 2,
            "time": 53.592499999999454,
            "value": 0.6062992125984252
          },
          {
            "number": 2,
            "time": 53.59312499999945,
            "value": 0.6062992125984252
          },
          {
            "number": 2,
            "time": 53.59374999999945,
            "value": 0.6062992125984252
          },
          {
            "number": 2,
            "time": 53.59437499999945,
            "value": 0.6062992125984252
          },
          {
            "number": 2,
            "time": 53.59499999999945,
            "value": 0.5984251968503937
          },
          {
            "number": 2,
            "time": 53.59562499999945,
            "value": 0.5984251968503937
          },
          {
            "number": 2,
            "time": 53.59624999999945,
            "value": 0.5984251968503937
          },
          {
            "number": 2,
            "time": 53.59687499999945,
            "value": 0.5984251968503937
          },
          {
            "number": 2,
            "time": 53.59749999999945,
            "value": 0.5905511811023622
          },
          {
            "number": 2,
            "time": 53.59812499999945,
            "value": 0.5905511811023622
          },
          {
            "number": 2,
            "time": 53.59874999999945,
            "value": 0.5905511811023622
          },
          {
            "number": 2,
            "time": 53.59937499999945,
            "value": 0.5826771653543307
          },
          {
            "number": 2,
            "time": 53.59999999999945,
            "value": 0.5826771653543307
          },
          {
            "number": 2,
            "time": 53.60062499999945,
            "value": 0.5826771653543307
          },
          {
            "number": 2,
            "time": 53.601249999999446,
            "value": 0.5826771653543307
          },
          {
            "number": 2,
            "time": 53.601874999999445,
            "value": 0.5748031496062992
          },
          {
            "number": 2,
            "time": 53.602499999999445,
            "value": 0.5748031496062992
          },
          {
            "number": 2,
            "time": 53.603124999999444,
            "value": 0.5748031496062992
          },
          {
            "number": 2,
            "time": 53.603749999999444,
            "value": 0.5748031496062992
          },
          {
            "number": 2,
            "time": 53.60437499999944,
            "value": 0.5669291338582677
          },
          {
            "number": 2,
            "time": 53.60499999999944,
            "value": 0.5669291338582677
          },
          {
            "number": 2,
            "time": 53.60562499999944,
            "value": 0.5669291338582677
          },
          {
            "number": 2,
            "time": 53.60624999999944,
            "value": 0.5669291338582677
          },
          {
            "number": 2,
            "time": 53.60687499999944,
            "value": 0.5590551181102362
          },
          {
            "number": 2,
            "time": 53.60749999999944,
            "value": 0.5590551181102362
          },
          {
            "number": 2,
            "time": 53.60812499999944,
            "value": 0.5590551181102362
          },
          {
            "number": 2,
            "time": 53.60874999999944,
            "value": 0.5511811023622047
          },
          {
            "number": 2,
            "time": 53.60937499999944,
            "value": 0.5511811023622047
          },
          {
            "number": 2,
            "time": 53.60999999999944,
            "value": 0.5511811023622047
          },
          {
            "number": 2,
            "time": 53.61062499999944,
            "value": 0.5511811023622047
          },
          {
            "number": 2,
            "time": 53.61124999999944,
            "value": 0.5433070866141733
          },
          {
            "number": 2,
            "time": 53.611874999999436,
            "value": 0.5433070866141733
          },
          {
            "number": 2,
            "time": 53.612499999999436,
            "value": 0.5433070866141733
          },
          {
            "number": 2,
            "time": 53.613124999999435,
            "value": 0.5433070866141733
          },
          {
            "number": 2,
            "time": 53.613749999999435,
            "value": 0.5354330708661418
          },
          {
            "number": 2,
            "time": 53.614374999999434,
            "value": 0.5354330708661418
          },
          {
            "number": 2,
            "time": 53.614999999999434,
            "value": 0.5354330708661418
          },
          {
            "number": 2,
            "time": 53.61562499999943,
            "value": 0.5354330708661418
          },
          {
            "number": 2,
            "time": 53.61624999999943,
            "value": 0.5275590551181102
          },
          {
            "number": 2,
            "time": 53.61687499999943,
            "value": 0.5275590551181102
          },
          {
            "number": 2,
            "time": 53.61749999999943,
            "value": 0.5275590551181102
          },
          {
            "number": 2,
            "time": 53.61812499999943,
            "value": 0.5196850393700787
          },
          {
            "number": 2,
            "time": 53.61874999999943,
            "value": 0.5196850393700787
          },
          {
            "number": 2,
            "time": 53.61937499999943,
            "value": 0.5196850393700787
          },
          {
            "number": 2,
            "time": 53.61999999999943,
            "value": 0.5196850393700787
          },
          {
            "number": 2,
            "time": 53.62062499999943,
            "value": 0.5118110236220472
          },
          {
            "number": 2,
            "time": 53.62124999999943,
            "value": 0.5118110236220472
          },
          {
            "number": 2,
            "time": 53.62187499999943,
            "value": 0.5118110236220472
          },
          {
            "number": 2,
            "time": 53.62249999999943,
            "value": 0.5118110236220472
          },
          {
            "number": 2,
            "time": 53.623124999999426,
            "value": 0.5039370078740157
          },
          {
            "number": 2,
            "time": 53.623749999999426,
            "value": 0.5039370078740157
          },
          {
            "number": 2,
            "time": 53.624374999999425,
            "value": 0.5039370078740157
          },
          {
            "number": 2,
            "time": 53.849999999999426,
            "value": 0.5039370078740157
          },
          {
            "number": 2,
            "time": 53.999999999999424,
            "value": 0.7559055118110236
          },
          {
            "number": 2,
            "time": 54.000624999999424,
            "value": 0.7480314960629921
          },
          {
            "number": 2,
            "time": 54.00124999999942,
            "value": 0.7480314960629921
          },
          {
            "number": 2,
            "time": 54.00187499999942,
            "value": 0.7480314960629921
          },
          {
            "number": 2,
            "time": 54.00249999999942,
            "value": 0.7401574803149606
          },
          {
            "number": 2,
            "time": 54.00312499999942,
            "value": 0.7401574803149606
          },
          {
            "number": 2,
            "time": 54.00374999999942,
            "value": 0.7401574803149606
          },
          {
            "number": 2,
            "time": 54.00437499999942,
            "value": 0.7401574803149606
          },
          {
            "number": 2,
            "time": 54.00499999999942,
            "value": 0.7322834645669292
          },
          {
            "number": 2,
            "time": 54.00562499999942,
            "value": 0.7322834645669292
          },
          {
            "number": 2,
            "time": 54.00624999999942,
            "value": 0.7322834645669292
          },
          {
            "number": 2,
            "time": 54.00687499999942,
            "value": 0.7322834645669292
          },
          {
            "number": 2,
            "time": 54.00749999999942,
            "value": 0.7244094488188977
          },
          {
            "number": 2,
            "time": 54.00812499999942,
            "value": 0.7244094488188977
          },
          {
            "number": 2,
            "time": 54.00874999999942,
            "value": 0.7244094488188977
          },
          {
            "number": 2,
            "time": 54.009374999999416,
            "value": 0.7244094488188977
          },
          {
            "number": 2,
            "time": 54.009999999999415,
            "value": 0.7165354330708661
          },
          {
            "number": 2,
            "time": 54.010624999999415,
            "value": 0.7165354330708661
          },
          {
            "number": 2,
            "time": 54.011249999999414,
            "value": 0.7165354330708661
          },
          {
            "number": 2,
            "time": 54.011874999999414,
            "value": 0.7086614173228346
          },
          {
            "number": 2,
            "time": 54.01249999999941,
            "value": 0.7086614173228346
          },
          {
            "number": 2,
            "time": 54.01312499999941,
            "value": 0.7086614173228346
          },
          {
            "number": 2,
            "time": 54.01374999999941,
            "value": 0.7086614173228346
          },
          {
            "number": 2,
            "time": 54.01437499999941,
            "value": 0.7007874015748031
          },
          {
            "number": 2,
            "time": 54.01499999999941,
            "value": 0.7007874015748031
          },
          {
            "number": 2,
            "time": 54.01562499999941,
            "value": 0.7007874015748031
          },
          {
            "number": 2,
            "time": 54.01624999999941,
            "value": 0.7007874015748031
          },
          {
            "number": 2,
            "time": 54.01687499999941,
            "value": 0.6929133858267716
          },
          {
            "number": 2,
            "time": 54.01749999999941,
            "value": 0.6929133858267716
          },
          {
            "number": 2,
            "time": 54.01812499999941,
            "value": 0.6929133858267716
          },
          {
            "number": 2,
            "time": 54.01874999999941,
            "value": 0.6929133858267716
          },
          {
            "number": 2,
            "time": 54.01937499999941,
            "value": 0.6850393700787402
          },
          {
            "number": 2,
            "time": 54.019999999999406,
            "value": 0.6850393700787402
          },
          {
            "number": 2,
            "time": 54.020624999999406,
            "value": 0.6850393700787402
          },
          {
            "number": 2,
            "time": 54.021249999999405,
            "value": 0.6771653543307087
          },
          {
            "number": 2,
            "time": 54.021874999999405,
            "value": 0.6771653543307087
          },
          {
            "number": 2,
            "time": 54.022499999999404,
            "value": 0.6771653543307087
          },
          {
            "number": 2,
            "time": 54.0231249999994,
            "value": 0.6771653543307087
          },
          {
            "number": 2,
            "time": 54.0237499999994,
            "value": 0.6692913385826772
          },
          {
            "number": 2,
            "time": 54.0243749999994,
            "value": 0.6692913385826772
          },
          {
            "number": 2,
            "time": 54.0249999999994,
            "value": 0.6692913385826772
          },
          {
            "number": 2,
            "time": 54.0256249999994,
            "value": 0.6692913385826772
          },
          {
            "number": 2,
            "time": 54.0262499999994,
            "value": 0.6614173228346457
          },
          {
            "number": 2,
            "time": 54.0268749999994,
            "value": 0.6614173228346457
          },
          {
            "number": 2,
            "time": 54.0274999999994,
            "value": 0.6614173228346457
          },
          {
            "number": 2,
            "time": 54.0281249999994,
            "value": 0.6614173228346457
          },
          {
            "number": 2,
            "time": 54.0287499999994,
            "value": 0.6535433070866141
          },
          {
            "number": 2,
            "time": 54.0293749999994,
            "value": 0.6535433070866141
          },
          {
            "number": 2,
            "time": 54.0299999999994,
            "value": 0.6535433070866141
          },
          {
            "number": 2,
            "time": 54.0306249999994,
            "value": 0.6456692913385826
          },
          {
            "number": 2,
            "time": 54.031249999999396,
            "value": 0.6456692913385826
          },
          {
            "number": 2,
            "time": 54.031874999999395,
            "value": 0.6456692913385826
          },
          {
            "number": 2,
            "time": 54.032499999999395,
            "value": 0.6456692913385826
          },
          {
            "number": 2,
            "time": 54.033124999999394,
            "value": 0.6377952755905512
          },
          {
            "number": 2,
            "time": 54.033749999999394,
            "value": 0.6377952755905512
          },
          {
            "number": 2,
            "time": 54.03437499999939,
            "value": 0.6377952755905512
          },
          {
            "number": 2,
            "time": 54.03499999999939,
            "value": 0.6377952755905512
          },
          {
            "number": 2,
            "time": 54.03562499999939,
            "value": 0.6299212598425197
          },
          {
            "number": 2,
            "time": 54.03624999999939,
            "value": 0.6299212598425197
          },
          {
            "number": 2,
            "time": 54.03687499999939,
            "value": 0.6299212598425197
          },
          {
            "number": 2,
            "time": 54.03749999999939,
            "value": 0.6299212598425197
          },
          {
            "number": 2,
            "time": 54.03812499999939,
            "value": 0.6220472440944882
          },
          {
            "number": 2,
            "time": 54.03874999999939,
            "value": 0.6220472440944882
          },
          {
            "number": 2,
            "time": 54.03937499999939,
            "value": 0.6220472440944882
          },
          {
            "number": 2,
            "time": 54.03999999999939,
            "value": 0.6141732283464567
          },
          {
            "number": 2,
            "time": 54.04062499999939,
            "value": 0.6141732283464567
          },
          {
            "number": 2,
            "time": 54.04124999999939,
            "value": 0.6141732283464567
          },
          {
            "number": 2,
            "time": 54.041874999999386,
            "value": 0.6141732283464567
          },
          {
            "number": 2,
            "time": 54.042499999999386,
            "value": 0.6062992125984252
          },
          {
            "number": 2,
            "time": 54.043124999999385,
            "value": 0.6062992125984252
          },
          {
            "number": 2,
            "time": 54.043749999999385,
            "value": 0.6062992125984252
          },
          {
            "number": 2,
            "time": 54.044374999999384,
            "value": 0.6062992125984252
          },
          {
            "number": 2,
            "time": 54.04499999999938,
            "value": 0.5984251968503937
          },
          {
            "number": 2,
            "time": 54.04562499999938,
            "value": 0.5984251968503937
          },
          {
            "number": 2,
            "time": 54.04624999999938,
            "value": 0.5984251968503937
          },
          {
            "number": 2,
            "time": 54.04687499999938,
            "value": 0.5984251968503937
          },
          {
            "number": 2,
            "time": 54.04749999999938,
            "value": 0.5905511811023622
          },
          {
            "number": 2,
            "time": 54.04812499999938,
            "value": 0.5905511811023622
          },
          {
            "number": 2,
            "time": 54.04874999999938,
            "value": 0.5905511811023622
          },
          {
            "number": 2,
            "time": 54.04937499999938,
            "value": 0.5826771653543307
          },
          {
            "number": 2,
            "time": 54.04999999999938,
            "value": 0.5826771653543307
          },
          {
            "number": 2,
            "time": 54.05062499999938,
            "value": 0.5826771653543307
          },
          {
            "number": 2,
            "time": 54.05124999999938,
            "value": 0.5826771653543307
          },
          {
            "number": 2,
            "time": 54.05187499999938,
            "value": 0.5748031496062992
          },
          {
            "number": 2,
            "time": 54.05249999999938,
            "value": 0.5748031496062992
          },
          {
            "number": 2,
            "time": 54.053124999999376,
            "value": 0.5748031496062992
          },
          {
            "number": 2,
            "time": 54.053749999999376,
            "value": 0.5748031496062992
          },
          {
            "number": 2,
            "time": 54.054374999999375,
            "value": 0.5669291338582677
          },
          {
            "number": 2,
            "time": 54.054999999999374,
            "value": 0.5669291338582677
          },
          {
            "number": 2,
            "time": 54.055624999999374,
            "value": 0.5669291338582677
          },
          {
            "number": 2,
            "time": 54.05624999999937,
            "value": 0.5669291338582677
          },
          {
            "number": 2,
            "time": 54.05687499999937,
            "value": 0.5590551181102362
          },
          {
            "number": 2,
            "time": 54.05749999999937,
            "value": 0.5590551181102362
          },
          {
            "number": 2,
            "time": 54.05812499999937,
            "value": 0.5590551181102362
          },
          {
            "number": 2,
            "time": 54.05874999999937,
            "value": 0.5511811023622047
          },
          {
            "number": 2,
            "time": 54.05937499999937,
            "value": 0.5511811023622047
          },
          {
            "number": 2,
            "time": 54.05999999999937,
            "value": 0.5511811023622047
          },
          {
            "number": 2,
            "time": 54.06062499999937,
            "value": 0.5511811023622047
          },
          {
            "number": 2,
            "time": 54.06124999999937,
            "value": 0.5433070866141733
          },
          {
            "number": 2,
            "time": 54.06187499999937,
            "value": 0.5433070866141733
          },
          {
            "number": 2,
            "time": 54.06249999999937,
            "value": 0.5433070866141733
          },
          {
            "number": 2,
            "time": 54.06312499999937,
            "value": 0.5433070866141733
          },
          {
            "number": 2,
            "time": 54.06374999999937,
            "value": 0.5354330708661418
          },
          {
            "number": 2,
            "time": 54.064374999999366,
            "value": 0.5354330708661418
          },
          {
            "number": 2,
            "time": 54.064999999999365,
            "value": 0.5354330708661418
          },
          {
            "number": 2,
            "time": 54.065624999999365,
            "value": 0.5354330708661418
          },
          {
            "number": 2,
            "time": 54.066249999999364,
            "value": 0.5275590551181102
          },
          {
            "number": 2,
            "time": 54.066874999999364,
            "value": 0.5275590551181102
          },
          {
            "number": 2,
            "time": 54.06749999999936,
            "value": 0.5275590551181102
          },
          {
            "number": 2,
            "time": 54.06812499999936,
            "value": 0.5196850393700787
          },
          {
            "number": 2,
            "time": 54.06874999999936,
            "value": 0.5196850393700787
          },
          {
            "number": 2,
            "time": 54.06937499999936,
            "value": 0.5196850393700787
          },
          {
            "number": 2,
            "time": 54.06999999999936,
            "value": 0.5196850393700787
          },
          {
            "number": 2,
            "time": 54.07062499999936,
            "value": 0.5118110236220472
          },
          {
            "number": 2,
            "time": 54.07124999999936,
            "value": 0.5118110236220472
          },
          {
            "number": 2,
            "time": 54.07187499999936,
            "value": 0.5118110236220472
          },
          {
            "number": 2,
            "time": 54.07249999999936,
            "value": 0.5118110236220472
          },
          {
            "number": 2,
            "time": 54.07312499999936,
            "value": 0.5039370078740157
          },
          {
            "number": 2,
            "time": 54.07374999999936,
            "value": 0.5039370078740157
          },
          {
            "number": 2,
            "time": 54.07437499999936,
            "value": 0.5039370078740157
          },
          {
            "number": 2,
            "time": 54.29999999999936,
            "value": 0.5039370078740157
          },
          {
            "number": 2,
            "time": 54.449999999999356,
            "value": 0.5039370078740157
          },
          {
            "number": 2,
            "time": 55.349999999999355,
            "value": 0.5039370078740157
          },
          {
            "number": 2,
            "time": 56.24999999999935,
            "value": 0.5039370078740157
          },
          {
            "number": 2,
            "time": 57.14999999999935,
            "value": 0.5039370078740157
          },
          {
            "number": 2,
            "time": 59.84999999999935,
            "value": 0.5039370078740157
          },
          {
            "number": 2,
            "time": 60.29999999999935,
            "value": 0.5039370078740157
          },
          {
            "number": 2,
            "time": 60.74999999999935,
            "value": 0.5039370078740157
          },
          {
            "number": 2,
            "time": 60.74999999999935,
            "value": 0.7559055118110236
          },
          {
            "number": 2,
            "time": 60.75062499999935,
            "value": 0.7480314960629921
          },
          {
            "number": 2,
            "time": 60.75124999999935,
            "value": 0.7480314960629921
          },
          {
            "number": 2,
            "time": 60.75187499999935,
            "value": 0.7480314960629921
          },
          {
            "number": 2,
            "time": 60.75249999999935,
            "value": 0.7401574803149606
          },
          {
            "number": 2,
            "time": 60.75312499999935,
            "value": 0.7401574803149606
          },
          {
            "number": 2,
            "time": 60.75374999999935,
            "value": 0.7401574803149606
          },
          {
            "number": 2,
            "time": 60.75437499999935,
            "value": 0.7401574803149606
          },
          {
            "number": 2,
            "time": 60.75499999999935,
            "value": 0.7322834645669292
          },
          {
            "number": 2,
            "time": 60.75562499999935,
            "value": 0.7322834645669292
          },
          {
            "number": 2,
            "time": 60.75624999999935,
            "value": 0.7322834645669292
          },
          {
            "number": 2,
            "time": 60.75687499999935,
            "value": 0.7322834645669292
          },
          {
            "number": 2,
            "time": 60.75749999999935,
            "value": 0.7244094488188977
          },
          {
            "number": 2,
            "time": 60.758124999999346,
            "value": 0.7244094488188977
          },
          {
            "number": 2,
            "time": 60.758749999999345,
            "value": 0.7244094488188977
          },
          {
            "number": 2,
            "time": 60.759374999999345,
            "value": 0.7244094488188977
          },
          {
            "number": 2,
            "time": 60.759999999999344,
            "value": 0.7165354330708661
          },
          {
            "number": 2,
            "time": 60.760624999999344,
            "value": 0.7165354330708661
          },
          {
            "number": 2,
            "time": 60.76124999999934,
            "value": 0.7165354330708661
          },
          {
            "number": 2,
            "time": 60.76187499999934,
            "value": 0.7086614173228346
          },
          {
            "number": 2,
            "time": 60.76249999999934,
            "value": 0.7086614173228346
          },
          {
            "number": 2,
            "time": 60.76312499999934,
            "value": 0.7086614173228346
          },
          {
            "number": 2,
            "time": 60.76374999999934,
            "value": 0.7086614173228346
          },
          {
            "number": 2,
            "time": 60.76437499999934,
            "value": 0.7007874015748031
          },
          {
            "number": 2,
            "time": 60.76499999999934,
            "value": 0.7007874015748031
          },
          {
            "number": 2,
            "time": 60.76562499999934,
            "value": 0.7007874015748031
          },
          {
            "number": 2,
            "time": 60.76624999999934,
            "value": 0.7007874015748031
          },
          {
            "number": 2,
            "time": 60.76687499999934,
            "value": 0.6929133858267716
          },
          {
            "number": 2,
            "time": 60.76749999999934,
            "value": 0.6929133858267716
          },
          {
            "number": 2,
            "time": 60.76812499999934,
            "value": 0.6929133858267716
          },
          {
            "number": 2,
            "time": 60.768749999999336,
            "value": 0.6929133858267716
          },
          {
            "number": 2,
            "time": 60.769374999999336,
            "value": 0.6850393700787402
          },
          {
            "number": 2,
            "time": 60.769999999999335,
            "value": 0.6850393700787402
          },
          {
            "number": 2,
            "time": 60.770624999999335,
            "value": 0.6850393700787402
          },
          {
            "number": 2,
            "time": 60.771249999999334,
            "value": 0.6771653543307087
          },
          {
            "number": 2,
            "time": 60.77187499999933,
            "value": 0.6771653543307087
          },
          {
            "number": 2,
            "time": 60.77249999999933,
            "value": 0.6771653543307087
          },
          {
            "number": 2,
            "time": 60.77312499999933,
            "value": 0.6771653543307087
          },
          {
            "number": 2,
            "time": 60.77374999999933,
            "value": 0.6692913385826772
          },
          {
            "number": 2,
            "time": 60.77437499999933,
            "value": 0.6692913385826772
          },
          {
            "number": 2,
            "time": 60.77499999999933,
            "value": 0.6692913385826772
          },
          {
            "number": 2,
            "time": 60.77562499999933,
            "value": 0.6692913385826772
          },
          {
            "number": 2,
            "time": 60.77624999999933,
            "value": 0.6614173228346457
          },
          {
            "number": 2,
            "time": 60.77687499999933,
            "value": 0.6614173228346457
          },
          {
            "number": 2,
            "time": 60.77749999999933,
            "value": 0.6614173228346457
          },
          {
            "number": 2,
            "time": 60.77812499999933,
            "value": 0.6614173228346457
          },
          {
            "number": 2,
            "time": 60.77874999999933,
            "value": 0.6535433070866141
          },
          {
            "number": 2,
            "time": 60.77937499999933,
            "value": 0.6535433070866141
          },
          {
            "number": 2,
            "time": 60.779999999999326,
            "value": 0.6535433070866141
          },
          {
            "number": 2,
            "time": 60.780624999999326,
            "value": 0.6456692913385826
          },
          {
            "number": 2,
            "time": 60.781249999999325,
            "value": 0.6456692913385826
          },
          {
            "number": 2,
            "time": 60.781874999999324,
            "value": 0.6456692913385826
          },
          {
            "number": 2,
            "time": 60.782499999999324,
            "value": 0.6456692913385826
          },
          {
            "number": 2,
            "time": 60.78312499999932,
            "value": 0.6377952755905512
          },
          {
            "number": 2,
            "time": 60.78374999999932,
            "value": 0.6377952755905512
          },
          {
            "number": 2,
            "time": 60.78437499999932,
            "value": 0.6377952755905512
          },
          {
            "number": 2,
            "time": 60.78499999999932,
            "value": 0.6377952755905512
          },
          {
            "number": 2,
            "time": 60.78562499999932,
            "value": 0.6299212598425197
          },
          {
            "number": 2,
            "time": 60.78624999999932,
            "value": 0.6299212598425197
          },
          {
            "number": 2,
            "time": 60.78687499999932,
            "value": 0.6299212598425197
          },
          {
            "number": 2,
            "time": 60.78749999999932,
            "value": 0.6299212598425197
          },
          {
            "number": 2,
            "time": 60.78812499999932,
            "value": 0.6220472440944882
          },
          {
            "number": 2,
            "time": 60.78874999999932,
            "value": 0.6220472440944882
          },
          {
            "number": 2,
            "time": 60.78937499999932,
            "value": 0.6220472440944882
          },
          {
            "number": 2,
            "time": 60.78999999999932,
            "value": 0.6141732283464567
          },
          {
            "number": 2,
            "time": 60.79062499999932,
            "value": 0.6141732283464567
          },
          {
            "number": 2,
            "time": 60.791249999999316,
            "value": 0.6141732283464567
          },
          {
            "number": 2,
            "time": 60.791874999999315,
            "value": 0.6141732283464567
          },
          {
            "number": 2,
            "time": 60.792499999999315,
            "value": 0.6062992125984252
          },
          {
            "number": 2,
            "time": 60.793124999999314,
            "value": 0.6062992125984252
          },
          {
            "number": 2,
            "time": 60.793749999999314,
            "value": 0.6062992125984252
          },
          {
            "number": 2,
            "time": 60.79437499999931,
            "value": 0.6062992125984252
          },
          {
            "number": 2,
            "time": 60.79499999999931,
            "value": 0.5984251968503937
          },
          {
            "number": 2,
            "time": 60.79562499999931,
            "value": 0.5984251968503937
          },
          {
            "number": 2,
            "time": 60.79624999999931,
            "value": 0.5984251968503937
          },
          {
            "number": 2,
            "time": 60.79687499999931,
            "value": 0.5984251968503937
          },
          {
            "number": 2,
            "time": 60.79749999999931,
            "value": 0.5905511811023622
          },
          {
            "number": 2,
            "time": 60.79812499999931,
            "value": 0.5905511811023622
          },
          {
            "number": 2,
            "time": 60.79874999999931,
            "value": 0.5905511811023622
          },
          {
            "number": 2,
            "time": 60.79937499999931,
            "value": 0.5826771653543307
          },
          {
            "number": 2,
            "time": 60.79999999999931,
            "value": 0.5826771653543307
          },
          {
            "number": 2,
            "time": 60.80062499999931,
            "value": 0.5826771653543307
          },
          {
            "number": 2,
            "time": 60.80124999999931,
            "value": 0.5826771653543307
          },
          {
            "number": 2,
            "time": 60.801874999999306,
            "value": 0.5748031496062992
          },
          {
            "number": 2,
            "time": 60.802499999999306,
            "value": 0.5748031496062992
          },
          {
            "number": 2,
            "time": 60.803124999999305,
            "value": 0.5748031496062992
          },
          {
            "number": 2,
            "time": 60.803749999999305,
            "value": 0.5748031496062992
          },
          {
            "number": 2,
            "time": 60.804374999999304,
            "value": 0.5669291338582677
          },
          {
            "number": 2,
            "time": 60.8049999999993,
            "value": 0.5669291338582677
          },
          {
            "number": 2,
            "time": 60.8056249999993,
            "value": 0.5669291338582677
          },
          {
            "number": 2,
            "time": 60.8062499999993,
            "value": 0.5669291338582677
          },
          {
            "number": 2,
            "time": 60.8068749999993,
            "value": 0.5590551181102362
          },
          {
            "number": 2,
            "time": 60.8074999999993,
            "value": 0.5590551181102362
          },
          {
            "number": 2,
            "time": 60.8081249999993,
            "value": 0.5590551181102362
          },
          {
            "number": 2,
            "time": 60.8087499999993,
            "value": 0.5511811023622047
          },
          {
            "number": 2,
            "time": 60.8093749999993,
            "value": 0.5511811023622047
          },
          {
            "number": 2,
            "time": 60.8099999999993,
            "value": 0.5433070866141733
          },
          {
            "number": 2,
            "time": 60.8106249999993,
            "value": 0.5433070866141733
          },
          {
            "number": 2,
            "time": 60.8112499999993,
            "value": 0.5354330708661418
          },
          {
            "number": 2,
            "time": 60.8118749999993,
            "value": 0.5354330708661418
          },
          {
            "number": 2,
            "time": 60.8124999999993,
            "value": 0.5354330708661418
          },
          {
            "number": 2,
            "time": 60.813124999999296,
            "value": 0.5275590551181102
          },
          {
            "number": 2,
            "time": 60.813749999999295,
            "value": 0.5275590551181102
          },
          {
            "number": 2,
            "time": 60.814374999999295,
            "value": 0.5275590551181102
          },
          {
            "number": 2,
            "time": 60.814999999999294,
            "value": 0.5275590551181102
          },
          {
            "number": 2,
            "time": 60.815624999999294,
            "value": 0.5196850393700787
          },
          {
            "number": 2,
            "time": 60.81624999999929,
            "value": 0.5196850393700787
          },
          {
            "number": 2,
            "time": 60.81687499999929,
            "value": 0.5196850393700787
          },
          {
            "number": 2,
            "time": 60.81749999999929,
            "value": 0.5196850393700787
          },
          {
            "number": 2,
            "time": 60.81812499999929,
            "value": 0.5118110236220472
          },
          {
            "number": 2,
            "time": 60.81874999999929,
            "value": 0.5118110236220472
          },
          {
            "number": 2,
            "time": 60.81937499999929,
            "value": 0.5118110236220472
          },
          {
            "number": 2,
            "time": 60.81999999999929,
            "value": 0.5118110236220472
          },
          {
            "number": 2,
            "time": 60.82062499999929,
            "value": 0.5039370078740157
          },
          {
            "number": 2,
            "time": 60.82124999999929,
            "value": 0.5039370078740157
          },
          {
            "number": 2,
            "time": 60.82187499999929,
            "value": 0.5039370078740157
          },
          {
            "number": 2,
            "time": 60.82249999999929,
            "value": 0.5039370078740157
          },
          {
            "number": 2,
            "time": 60.82312499999929,
            "value": 0.49606299212598426
          },
          {
            "number": 2,
            "time": 60.823749999999286,
            "value": 0.49606299212598426
          },
          {
            "number": 2,
            "time": 60.824374999999286,
            "value": 0.49606299212598426
          },
          {
            "number": 2,
            "time": 60.86999999999929,
            "value": 0.4881889763779528
          },
          {
            "number": 2,
            "time": 60.92999999999929,
            "value": 0.48031496062992124
          },
          {
            "number": 2,
            "time": 60.98999999999929,
            "value": 0.47244094488188976
          },
          {
            "number": 2,
            "time": 61.049999999999294,
            "value": 0.4645669291338583
          },
          {
            "number": 2,
            "time": 61.109999999999296,
            "value": 0.4566929133858268
          },
          {
            "number": 2,
            "time": 61.1699999999993,
            "value": 0.44881889763779526
          },
          {
            "number": 2,
            "time": 61.1999999999993,
            "value": 0.6692913385826772
          },
          {
            "number": 2,
            "time": 61.2006249999993,
            "value": 0.6692913385826772
          },
          {
            "number": 2,
            "time": 61.2012499999993,
            "value": 0.6692913385826772
          },
          {
            "number": 2,
            "time": 61.2018749999993,
            "value": 0.6614173228346457
          },
          {
            "number": 2,
            "time": 61.2024999999993,
            "value": 0.6614173228346457
          },
          {
            "number": 2,
            "time": 61.2031249999993,
            "value": 0.6614173228346457
          },
          {
            "number": 2,
            "time": 61.203749999999296,
            "value": 0.6614173228346457
          },
          {
            "number": 2,
            "time": 61.204374999999295,
            "value": 0.6535433070866141
          },
          {
            "number": 2,
            "time": 61.204999999999295,
            "value": 0.6535433070866141
          },
          {
            "number": 2,
            "time": 61.205624999999294,
            "value": 0.6535433070866141
          },
          {
            "number": 2,
            "time": 61.206249999999294,
            "value": 0.6535433070866141
          },
          {
            "number": 2,
            "time": 61.20687499999929,
            "value": 0.6456692913385826
          },
          {
            "number": 2,
            "time": 61.20749999999929,
            "value": 0.6456692913385826
          },
          {
            "number": 2,
            "time": 61.20812499999929,
            "value": 0.6456692913385826
          },
          {
            "number": 2,
            "time": 61.20874999999929,
            "value": 0.6456692913385826
          },
          {
            "number": 2,
            "time": 61.20937499999929,
            "value": 0.6377952755905512
          },
          {
            "number": 2,
            "time": 61.20999999999929,
            "value": 0.6377952755905512
          },
          {
            "number": 2,
            "time": 61.21062499999929,
            "value": 0.6377952755905512
          },
          {
            "number": 2,
            "time": 61.21124999999929,
            "value": 0.6377952755905512
          },
          {
            "number": 2,
            "time": 61.21187499999929,
            "value": 0.6299212598425197
          },
          {
            "number": 2,
            "time": 61.21249999999929,
            "value": 0.6299212598425197
          },
          {
            "number": 2,
            "time": 61.21312499999929,
            "value": 0.6299212598425197
          },
          {
            "number": 2,
            "time": 61.21374999999929,
            "value": 0.6299212598425197
          },
          {
            "number": 2,
            "time": 61.214374999999286,
            "value": 0.6299212598425197
          },
          {
            "number": 2,
            "time": 61.214999999999286,
            "value": 0.6220472440944882
          },
          {
            "number": 2,
            "time": 61.215624999999285,
            "value": 0.6220472440944882
          },
          {
            "number": 2,
            "time": 61.216249999999285,
            "value": 0.6220472440944882
          },
          {
            "number": 2,
            "time": 61.216874999999284,
            "value": 0.6220472440944882
          },
          {
            "number": 2,
            "time": 61.21749999999928,
            "value": 0.6141732283464567
          },
          {
            "number": 2,
            "time": 61.21812499999928,
            "value": 0.6141732283464567
          },
          {
            "number": 2,
            "time": 61.21874999999928,
            "value": 0.6141732283464567
          },
          {
            "number": 2,
            "time": 61.21937499999928,
            "value": 0.6141732283464567
          },
          {
            "number": 2,
            "time": 61.21999999999928,
            "value": 0.6062992125984252
          },
          {
            "number": 2,
            "time": 61.22062499999928,
            "value": 0.6062992125984252
          },
          {
            "number": 2,
            "time": 61.22124999999928,
            "value": 0.6062992125984252
          },
          {
            "number": 2,
            "time": 61.22187499999928,
            "value": 0.6062992125984252
          },
          {
            "number": 2,
            "time": 61.22249999999928,
            "value": 0.5984251968503937
          },
          {
            "number": 2,
            "time": 61.22312499999928,
            "value": 0.5984251968503937
          },
          {
            "number": 2,
            "time": 61.22374999999928,
            "value": 0.5984251968503937
          },
          {
            "number": 2,
            "time": 61.22437499999928,
            "value": 0.5984251968503937
          },
          {
            "number": 2,
            "time": 61.22499999999928,
            "value": 0.5984251968503937
          },
          {
            "number": 2,
            "time": 61.225624999999276,
            "value": 0.5905511811023622
          },
          {
            "number": 2,
            "time": 61.226249999999276,
            "value": 0.5905511811023622
          },
          {
            "number": 2,
            "time": 61.226874999999275,
            "value": 0.5905511811023622
          },
          {
            "number": 2,
            "time": 61.227499999999274,
            "value": 0.5905511811023622
          },
          {
            "number": 2,
            "time": 61.228124999999274,
            "value": 0.5826771653543307
          },
          {
            "number": 2,
            "time": 61.22874999999927,
            "value": 0.5826771653543307
          },
          {
            "number": 2,
            "time": 61.22937499999927,
            "value": 0.5826771653543307
          },
          {
            "number": 2,
            "time": 61.22999999999927,
            "value": 0.4409448818897638
          },
          {
            "number": 2,
            "time": 61.22999999999927,
            "value": 0.5669291338582677
          },
          {
            "number": 2,
            "time": 61.23062499999927,
            "value": 0.5669291338582677
          },
          {
            "number": 2,
            "time": 61.23124999999927,
            "value": 0.5669291338582677
          },
          {
            "number": 2,
            "time": 61.23187499999927,
            "value": 0.5669291338582677
          },
          {
            "number": 2,
            "time": 61.23249999999927,
            "value": 0.5590551181102362
          },
          {
            "number": 2,
            "time": 61.23312499999927,
            "value": 0.5590551181102362
          },
          {
            "number": 2,
            "time": 61.23374999999927,
            "value": 0.5590551181102362
          },
          {
            "number": 2,
            "time": 61.23437499999927,
            "value": 0.5590551181102362
          },
          {
            "number": 2,
            "time": 61.23499999999927,
            "value": 0.5511811023622047
          },
          {
            "number": 2,
            "time": 61.23562499999927,
            "value": 0.5511811023622047
          },
          {
            "number": 2,
            "time": 61.236249999999266,
            "value": 0.5511811023622047
          },
          {
            "number": 2,
            "time": 61.236874999999266,
            "value": 0.5511811023622047
          },
          {
            "number": 2,
            "time": 61.237499999999265,
            "value": 0.5511811023622047
          },
          {
            "number": 2,
            "time": 61.238124999999265,
            "value": 0.5433070866141733
          },
          {
            "number": 2,
            "time": 61.238749999999264,
            "value": 0.5433070866141733
          },
          {
            "number": 2,
            "time": 61.239374999999264,
            "value": 0.5433070866141733
          },
          {
            "number": 2,
            "time": 61.23999999999926,
            "value": 0.5433070866141733
          },
          {
            "number": 2,
            "time": 61.24062499999926,
            "value": 0.5354330708661418
          },
          {
            "number": 2,
            "time": 61.24124999999926,
            "value": 0.5354330708661418
          },
          {
            "number": 2,
            "time": 61.24187499999926,
            "value": 0.5354330708661418
          },
          {
            "number": 2,
            "time": 61.24249999999926,
            "value": 0.5354330708661418
          },
          {
            "number": 2,
            "time": 61.24312499999926,
            "value": 0.5275590551181102
          },
          {
            "number": 2,
            "time": 61.24374999999926,
            "value": 0.5275590551181102
          },
          {
            "number": 2,
            "time": 61.24437499999926,
            "value": 0.5275590551181102
          },
          {
            "number": 2,
            "time": 61.24499999999926,
            "value": 0.5275590551181102
          },
          {
            "number": 2,
            "time": 61.24562499999926,
            "value": 0.5196850393700787
          },
          {
            "number": 2,
            "time": 61.24624999999926,
            "value": 0.5196850393700787
          },
          {
            "number": 2,
            "time": 61.24687499999926,
            "value": 0.5196850393700787
          },
          {
            "number": 2,
            "time": 61.247499999999256,
            "value": 0.5196850393700787
          },
          {
            "number": 2,
            "time": 61.248124999999256,
            "value": 0.5196850393700787
          },
          {
            "number": 2,
            "time": 61.248749999999255,
            "value": 0.5118110236220472
          },
          {
            "number": 2,
            "time": 61.249374999999254,
            "value": 0.5118110236220472
          },
          {
            "number": 2,
            "time": 61.249999999999254,
            "value": 0.5118110236220472
          },
          {
            "number": 2,
            "time": 61.25062499999925,
            "value": 0.5118110236220472
          },
          {
            "number": 2,
            "time": 61.25124999999925,
            "value": 0.5039370078740157
          },
          {
            "number": 2,
            "time": 61.25187499999925,
            "value": 0.5039370078740157
          },
          {
            "number": 2,
            "time": 61.25249999999925,
            "value": 0.5039370078740157
          },
          {
            "number": 2,
            "time": 61.25312499999925,
            "value": 0.5039370078740157
          },
          {
            "number": 2,
            "time": 61.25374999999925,
            "value": 0.49606299212598426
          },
          {
            "number": 2,
            "time": 61.25437499999925,
            "value": 0.49606299212598426
          },
          {
            "number": 2,
            "time": 61.25499999999925,
            "value": 0.49606299212598426
          },
          {
            "number": 2,
            "time": 61.25562499999925,
            "value": 0.49606299212598426
          },
          {
            "number": 2,
            "time": 61.25624999999925,
            "value": 0.49606299212598426
          },
          {
            "number": 2,
            "time": 61.25687499999925,
            "value": 0.4881889763779528
          },
          {
            "number": 2,
            "time": 61.25749999999925,
            "value": 0.4881889763779528
          },
          {
            "number": 2,
            "time": 61.25812499999925,
            "value": 0.4881889763779528
          },
          {
            "number": 2,
            "time": 61.258749999999246,
            "value": 0.4881889763779528
          },
          {
            "number": 2,
            "time": 61.259374999999245,
            "value": 0.48031496062992124
          },
          {
            "number": 2,
            "time": 61.259999999999245,
            "value": 0.48031496062992124
          },
          {
            "number": 2,
            "time": 61.260624999999244,
            "value": 0.48031496062992124
          },
          {
            "number": 2,
            "time": 61.261249999999244,
            "value": 0.48031496062992124
          },
          {
            "number": 2,
            "time": 61.26187499999924,
            "value": 0.47244094488188976
          },
          {
            "number": 2,
            "time": 61.26249999999924,
            "value": 0.47244094488188976
          },
          {
            "number": 2,
            "time": 61.26312499999924,
            "value": 0.47244094488188976
          },
          {
            "number": 2,
            "time": 61.26374999999924,
            "value": 0.47244094488188976
          },
          {
            "number": 2,
            "time": 61.26437499999924,
            "value": 0.4645669291338583
          },
          {
            "number": 2,
            "time": 61.26499999999924,
            "value": 0.4645669291338583
          },
          {
            "number": 2,
            "time": 61.26562499999924,
            "value": 0.4645669291338583
          },
          {
            "number": 2,
            "time": 61.26624999999924,
            "value": 0.4645669291338583
          },
          {
            "number": 2,
            "time": 61.26687499999924,
            "value": 0.4645669291338583
          },
          {
            "number": 2,
            "time": 61.26749999999924,
            "value": 0.4566929133858268
          },
          {
            "number": 2,
            "time": 61.26812499999924,
            "value": 0.4566929133858268
          },
          {
            "number": 2,
            "time": 61.26874999999924,
            "value": 0.4566929133858268
          },
          {
            "number": 2,
            "time": 61.269374999999236,
            "value": 0.4566929133858268
          },
          {
            "number": 2,
            "time": 61.269999999999236,
            "value": 0.44881889763779526
          },
          {
            "number": 2,
            "time": 61.270624999999235,
            "value": 0.44881889763779526
          },
          {
            "number": 2,
            "time": 61.271249999999235,
            "value": 0.44881889763779526
          },
          {
            "number": 2,
            "time": 61.271874999999234,
            "value": 0.44881889763779526
          },
          {
            "number": 2,
            "time": 61.27249999999923,
            "value": 0.4409448818897638
          },
          {
            "number": 2,
            "time": 61.27312499999923,
            "value": 0.4409448818897638
          },
          {
            "number": 2,
            "time": 61.27374999999923,
            "value": 0.4409448818897638
          },
          {
            "number": 2,
            "time": 61.27437499999923,
            "value": 0.4409448818897638
          },
          {
            "number": 2,
            "time": 61.28999999999923,
            "value": 0.4330708661417323
          },
          {
            "number": 2,
            "time": 61.349999999999234,
            "value": 0.4251968503937008
          },
          {
            "number": 2,
            "time": 61.409999999999236,
            "value": 0.41732283464566927
          },
          {
            "number": 2,
            "time": 61.46999999999924,
            "value": 0.4094488188976378
          },
          {
            "number": 2,
            "time": 61.49999999999924,
            "value": 0.4094488188976378
          },
          {
            "number": 2,
            "time": 61.52999999999924,
            "value": 0.4015748031496063
          },
          {
            "number": 2,
            "time": 61.58999999999924,
            "value": 0.3937007874015748
          },
          {
            "number": 2,
            "time": 61.649999999999245,
            "value": 0.3858267716535433
          },
          {
            "number": 2,
            "time": 61.79999999999925,
            "value": 0.3858267716535433
          },
          {
            "number": 2,
            "time": 61.94999999999926,
            "value": 0.3858267716535433
          },
          {
            "number": 2,
            "time": 62.09999999999926,
            "value": 0.3858267716535433
          },
          {
            "number": 2,
            "time": 62.549999999999265,
            "value": 0.3858267716535433
          },
          {
            "number": 2,
            "time": 62.69999999999927,
            "value": 0.3858267716535433
          },
          {
            "number": 2,
            "time": 62.84999999999928,
            "value": 0.3858267716535433
          },
          {
            "number": 2,
            "time": 62.99999999999928,
            "value": 0.3858267716535433
          },
          {
            "number": 2,
            "time": 63.449999999999285,
            "value": 0.3858267716535433
          },
          {
            "number": 2,
            "time": 63.59999999999929,
            "value": 0.3858267716535433
          },
          {
            "number": 2,
            "time": 63.7499999999993,
            "value": 0.3858267716535433
          },
          {
            "number": 2,
            "time": 63.8999999999993,
            "value": 0.3858267716535433
          },
          {
            "number": 2,
            "time": 64.34999999999931,
            "value": 0.3858267716535433
          },
          {
            "number": 2,
            "time": 64.49999999999932,
            "value": 0.3858267716535433
          },
          {
            "number": 2,
            "time": 64.64999999999932,
            "value": 0.3858267716535433
          },
          {
            "number": 2,
            "time": 64.79999999999933,
            "value": 0.3858267716535433
          },
          {
            "number": 2,
            "time": 65.24999999999933,
            "value": 0.3858267716535433
          },
          {
            "number": 2,
            "time": 65.39999999999934,
            "value": 0.3858267716535433
          },
          {
            "number": 2,
            "time": 65.54999999999934,
            "value": 0.3858267716535433
          },
          {
            "number": 2,
            "time": 65.69999999999935,
            "value": 0.3858267716535433
          },
          {
            "number": 2,
            "time": 66.14999999999935,
            "value": 0.3858267716535433
          },
          {
            "number": 2,
            "time": 66.29999999999936,
            "value": 0.3858267716535433
          },
          {
            "number": 2,
            "time": 66.44999999999936,
            "value": 0.3858267716535433
          },
          {
            "number": 2,
            "time": 66.59999999999937,
            "value": 0.3858267716535433
          },
          {
            "number": 2,
            "time": 67.04999999999937,
            "value": 0.3858267716535433
          },
          {
            "number": 2,
            "time": 67.19999999999938,
            "value": 0.3858267716535433
          },
          {
            "number": 2,
            "time": 67.34999999999938,
            "value": 0.3858267716535433
          },
          {
            "number": 2,
            "time": 67.49999999999939,
            "value": 0.3858267716535433
          },
          {
            "number": 2,
            "time": 67.94999999999939,
            "value": 0.3858267716535433
          },
          {
            "number": 2,
            "time": 68.0999999999994,
            "value": 0.3858267716535433
          },
          {
            "number": 2,
            "time": 68.2499999999994,
            "value": 0.3858267716535433
          },
          {
            "number": 2,
            "time": 68.39999999999941,
            "value": 0.3858267716535433
          },
          {
            "number": 2,
            "time": 68.84999999999941,
            "value": 0.3858267716535433
          },
          {
            "number": 2,
            "time": 68.99999999999942,
            "value": 0.3858267716535433
          },
          {
            "number": 2,
            "time": 69.74999999999943,
            "value": 0.3858267716535433
          },
          {
            "number": 2,
            "time": 69.89999999999944,
            "value": 0.3858267716535433
          },
          {
            "number": 2,
            "time": 70.19999999999945,
            "value": 0.3858267716535433
          },
          {
            "number": 2,
            "time": 70.64999999999945,
            "value": 0.3858267716535433
          },
          {
            "number": 2,
            "time": 70.79999999999946,
            "value": 0.3858267716535433
          },
          {
            "number": 2,
            "time": 71.09999999999947,
            "value": 0.3858267716535433
          },
          {
            "number": 2,
            "time": 71.54999999999947,
            "value": 0.3858267716535433
          },
          {
            "number": 2,
            "time": 71.69999999999948,
            "value": 0.3858267716535433
          },
          {
            "number": 2,
            "time": 71.99999999999949,
            "value": 0.3858267716535433
          },
          {
            "number": 2,
            "time": 72.44999999999949,
            "value": 0.3858267716535433
          },
          {
            "number": 2,
            "time": 72.5999999999995,
            "value": 0.3858267716535433
          },
          {
            "number": 2,
            "time": 72.89999999999951,
            "value": 0.3858267716535433
          },
          {
            "number": 2,
            "time": 73.34999999999951,
            "value": 0.3858267716535433
          },
          {
            "number": 2,
            "time": 73.49999999999952,
            "value": 0.3858267716535433
          },
          {
            "number": 2,
            "time": 73.79999999999953,
            "value": 0.3858267716535433
          },
          {
            "number": 2,
            "time": 74.24999999999953,
            "value": 0.3858267716535433
          },
          {
            "number": 2,
            "time": 74.39999999999954,
            "value": 0.3858267716535433
          },
          {
            "number": 2,
            "time": 75.14999999999955,
            "value": 0.3858267716535433
          },
          {
            "number": 2,
            "time": 75.29999999999956,
            "value": 0.3858267716535433
          },
          {
            "number": 2,
            "time": 75.44999999999956,
            "value": 0.3858267716535433
          },
          {
            "number": 2,
            "time": 75.59999999999957,
            "value": 0.3858267716535433
          },
          {
            "number": 2,
            "time": 75.74999999999957,
            "value": 0.3858267716535433
          },
          {
            "number": 2,
            "time": 75.82499999999958,
            "value": 0.3858267716535433
          },
          {
            "number": 2,
            "time": 75.89999999999957,
            "value": 0.3858267716535433
          },
          {
            "number": 2,
            "time": 76.04999999999957,
            "value": 0.3858267716535433
          },
          {
            "number": 2,
            "time": 82.04999999999957,
            "value": 0.5748031496062992
          },
          {
            "number": 2,
            "time": 82.05062499999957,
            "value": 0.5748031496062992
          },
          {
            "number": 2,
            "time": 82.05124999999957,
            "value": 0.5748031496062992
          },
          {
            "number": 2,
            "time": 82.05187499999957,
            "value": 0.5669291338582677
          },
          {
            "number": 2,
            "time": 82.05249999999957,
            "value": 0.5669291338582677
          },
          {
            "number": 2,
            "time": 82.05312499999957,
            "value": 0.5669291338582677
          },
          {
            "number": 2,
            "time": 82.05374999999957,
            "value": 0.5669291338582677
          },
          {
            "number": 2,
            "time": 82.05437499999957,
            "value": 0.5669291338582677
          },
          {
            "number": 2,
            "time": 82.05499999999957,
            "value": 0.5590551181102362
          },
          {
            "number": 2,
            "time": 82.05562499999957,
            "value": 0.5590551181102362
          },
          {
            "number": 2,
            "time": 82.05624999999957,
            "value": 0.5590551181102362
          },
          {
            "number": 2,
            "time": 82.05687499999956,
            "value": 0.5590551181102362
          },
          {
            "number": 2,
            "time": 82.05749999999956,
            "value": 0.5590551181102362
          },
          {
            "number": 2,
            "time": 82.05812499999956,
            "value": 0.5511811023622047
          },
          {
            "number": 2,
            "time": 82.05874999999956,
            "value": 0.5511811023622047
          },
          {
            "number": 2,
            "time": 82.05937499999956,
            "value": 0.5511811023622047
          },
          {
            "number": 2,
            "time": 82.05999999999956,
            "value": 0.5511811023622047
          },
          {
            "number": 2,
            "time": 82.06062499999956,
            "value": 0.5511811023622047
          },
          {
            "number": 2,
            "time": 82.06124999999956,
            "value": 0.5433070866141733
          },
          {
            "number": 2,
            "time": 82.06187499999956,
            "value": 0.5433070866141733
          },
          {
            "number": 2,
            "time": 82.06249999999956,
            "value": 0.5433070866141733
          },
          {
            "number": 2,
            "time": 82.06312499999956,
            "value": 0.5433070866141733
          },
          {
            "number": 2,
            "time": 82.06374999999956,
            "value": 0.5433070866141733
          },
          {
            "number": 2,
            "time": 82.06437499999956,
            "value": 0.5354330708661418
          },
          {
            "number": 2,
            "time": 82.06499999999956,
            "value": 0.5354330708661418
          },
          {
            "number": 2,
            "time": 82.06562499999956,
            "value": 0.5354330708661418
          },
          {
            "number": 2,
            "time": 82.06624999999956,
            "value": 0.5354330708661418
          },
          {
            "number": 2,
            "time": 82.06687499999956,
            "value": 0.5275590551181102
          },
          {
            "number": 2,
            "time": 82.06749999999955,
            "value": 0.5275590551181102
          },
          {
            "number": 2,
            "time": 82.06812499999955,
            "value": 0.5275590551181102
          },
          {
            "number": 2,
            "time": 82.06874999999955,
            "value": 0.5275590551181102
          },
          {
            "number": 2,
            "time": 82.06937499999955,
            "value": 0.5275590551181102
          },
          {
            "number": 2,
            "time": 82.06999999999955,
            "value": 0.5196850393700787
          },
          {
            "number": 2,
            "time": 82.07062499999955,
            "value": 0.5196850393700787
          },
          {
            "number": 2,
            "time": 82.07124999999955,
            "value": 0.5196850393700787
          },
          {
            "number": 2,
            "time": 82.07187499999955,
            "value": 0.5196850393700787
          },
          {
            "number": 2,
            "time": 82.07249999999955,
            "value": 0.5196850393700787
          },
          {
            "number": 2,
            "time": 82.07312499999955,
            "value": 0.5118110236220472
          },
          {
            "number": 2,
            "time": 82.07374999999955,
            "value": 0.5118110236220472
          },
          {
            "number": 2,
            "time": 82.07437499999955,
            "value": 0.5118110236220472
          },
          {
            "number": 2,
            "time": 82.07499999999955,
            "value": 0.5118110236220472
          },
          {
            "number": 2,
            "time": 82.07562499999955,
            "value": 0.5118110236220472
          },
          {
            "number": 2,
            "time": 82.07624999999955,
            "value": 0.5039370078740157
          },
          {
            "number": 2,
            "time": 82.07687499999955,
            "value": 0.5039370078740157
          },
          {
            "number": 2,
            "time": 82.07749999999955,
            "value": 0.5039370078740157
          },
          {
            "number": 2,
            "time": 82.07812499999955,
            "value": 0.5039370078740157
          },
          {
            "number": 2,
            "time": 82.07874999999954,
            "value": 0.5039370078740157
          },
          {
            "number": 2,
            "time": 82.07937499999954,
            "value": 0.49606299212598426
          },
          {
            "number": 2,
            "time": 82.07999999999954,
            "value": 0.49606299212598426
          },
          {
            "number": 2,
            "time": 82.08062499999954,
            "value": 0.49606299212598426
          },
          {
            "number": 2,
            "time": 82.08124999999954,
            "value": 0.49606299212598426
          },
          {
            "number": 2,
            "time": 82.08187499999954,
            "value": 0.49606299212598426
          },
          {
            "number": 2,
            "time": 82.08249999999954,
            "value": 0.4881889763779528
          },
          {
            "number": 2,
            "time": 82.08312499999954,
            "value": 0.4881889763779528
          },
          {
            "number": 2,
            "time": 82.08374999999954,
            "value": 0.4881889763779528
          },
          {
            "number": 2,
            "time": 82.08437499999954,
            "value": 0.4881889763779528
          },
          {
            "number": 2,
            "time": 82.08499999999954,
            "value": 0.4881889763779528
          },
          {
            "number": 2,
            "time": 82.08562499999954,
            "value": 0.48031496062992124
          },
          {
            "number": 2,
            "time": 82.08624999999954,
            "value": 0.48031496062992124
          },
          {
            "number": 2,
            "time": 82.08687499999954,
            "value": 0.48031496062992124
          },
          {
            "number": 2,
            "time": 82.08749999999954,
            "value": 0.48031496062992124
          },
          {
            "number": 2,
            "time": 82.08812499999954,
            "value": 0.48031496062992124
          },
          {
            "number": 2,
            "time": 82.08874999999954,
            "value": 0.47244094488188976
          },
          {
            "number": 2,
            "time": 82.08937499999954,
            "value": 0.47244094488188976
          },
          {
            "number": 2,
            "time": 82.08999999999953,
            "value": 0.47244094488188976
          },
          {
            "number": 2,
            "time": 82.09062499999953,
            "value": 0.47244094488188976
          },
          {
            "number": 2,
            "time": 82.09124999999953,
            "value": 0.47244094488188976
          },
          {
            "number": 2,
            "time": 82.09187499999953,
            "value": 0.4645669291338583
          },
          {
            "number": 2,
            "time": 82.09249999999953,
            "value": 0.4645669291338583
          },
          {
            "number": 2,
            "time": 82.09312499999953,
            "value": 0.4645669291338583
          },
          {
            "number": 2,
            "time": 82.09374999999953,
            "value": 0.4645669291338583
          },
          {
            "number": 2,
            "time": 82.09437499999953,
            "value": 0.4645669291338583
          },
          {
            "number": 2,
            "time": 82.09499999999953,
            "value": 0.4566929133858268
          },
          {
            "number": 2,
            "time": 82.09562499999953,
            "value": 0.4566929133858268
          },
          {
            "number": 2,
            "time": 82.09624999999953,
            "value": 0.4566929133858268
          },
          {
            "number": 2,
            "time": 82.09687499999953,
            "value": 0.4566929133858268
          },
          {
            "number": 2,
            "time": 82.09749999999953,
            "value": 0.44881889763779526
          },
          {
            "number": 2,
            "time": 82.09812499999953,
            "value": 0.44881889763779526
          },
          {
            "number": 2,
            "time": 82.09874999999953,
            "value": 0.44881889763779526
          },
          {
            "number": 2,
            "time": 82.09937499999953,
            "value": 0.44881889763779526
          },
          {
            "number": 2,
            "time": 82.09999999999953,
            "value": 0.44881889763779526
          },
          {
            "number": 2,
            "time": 82.10062499999952,
            "value": 0.4409448818897638
          },
          {
            "number": 2,
            "time": 82.10124999999952,
            "value": 0.4409448818897638
          },
          {
            "number": 2,
            "time": 82.10187499999952,
            "value": 0.4409448818897638
          },
          {
            "number": 2,
            "time": 82.10249999999952,
            "value": 0.4409448818897638
          },
          {
            "number": 2,
            "time": 82.10312499999952,
            "value": 0.4409448818897638
          },
          {
            "number": 2,
            "time": 82.10374999999952,
            "value": 0.4330708661417323
          },
          {
            "number": 2,
            "time": 82.10437499999952,
            "value": 0.4330708661417323
          },
          {
            "number": 2,
            "time": 82.10499999999952,
            "value": 0.4330708661417323
          },
          {
            "number": 2,
            "time": 82.10562499999952,
            "value": 0.4330708661417323
          },
          {
            "number": 2,
            "time": 82.10624999999952,
            "value": 0.4330708661417323
          },
          {
            "number": 2,
            "time": 82.10687499999952,
            "value": 0.4251968503937008
          },
          {
            "number": 2,
            "time": 82.10749999999952,
            "value": 0.4251968503937008
          },
          {
            "number": 2,
            "time": 82.10812499999952,
            "value": 0.4251968503937008
          },
          {
            "number": 2,
            "time": 82.10874999999952,
            "value": 0.4251968503937008
          },
          {
            "number": 2,
            "time": 82.10937499999952,
            "value": 0.4251968503937008
          },
          {
            "number": 2,
            "time": 82.10999999999952,
            "value": 0.41732283464566927
          },
          {
            "number": 2,
            "time": 82.11062499999952,
            "value": 0.41732283464566927
          },
          {
            "number": 2,
            "time": 82.11124999999952,
            "value": 0.41732283464566927
          },
          {
            "number": 2,
            "time": 82.11187499999951,
            "value": 0.41732283464566927
          },
          {
            "number": 2,
            "time": 82.11249999999951,
            "value": 0.41732283464566927
          },
          {
            "number": 2,
            "time": 82.11312499999951,
            "value": 0.4094488188976378
          },
          {
            "number": 2,
            "time": 82.11374999999951,
            "value": 0.4094488188976378
          },
          {
            "number": 2,
            "time": 82.11437499999951,
            "value": 0.4094488188976378
          },
          {
            "number": 2,
            "time": 82.11499999999951,
            "value": 0.4094488188976378
          },
          {
            "number": 2,
            "time": 82.11562499999951,
            "value": 0.4094488188976378
          },
          {
            "number": 2,
            "time": 82.11624999999951,
            "value": 0.4015748031496063
          },
          {
            "number": 2,
            "time": 82.11687499999951,
            "value": 0.4015748031496063
          },
          {
            "number": 2,
            "time": 82.11749999999951,
            "value": 0.4015748031496063
          },
          {
            "number": 2,
            "time": 82.11812499999951,
            "value": 0.4015748031496063
          },
          {
            "number": 2,
            "time": 82.11874999999951,
            "value": 0.4015748031496063
          },
          {
            "number": 2,
            "time": 82.11937499999951,
            "value": 0.3937007874015748
          },
          {
            "number": 2,
            "time": 82.11999999999951,
            "value": 0.3937007874015748
          },
          {
            "number": 2,
            "time": 82.1206249999995,
            "value": 0.3937007874015748
          },
          {
            "number": 2,
            "time": 82.1212499999995,
            "value": 0.3937007874015748
          },
          {
            "number": 2,
            "time": 82.1218749999995,
            "value": 0.3937007874015748
          },
          {
            "number": 2,
            "time": 82.1224999999995,
            "value": 0.3858267716535433
          },
          {
            "number": 2,
            "time": 82.1231249999995,
            "value": 0.3858267716535433
          },
          {
            "number": 2,
            "time": 82.1237499999995,
            "value": 0.3858267716535433
          },
          {
            "number": 2,
            "time": 82.1243749999995,
            "value": 0.3858267716535433
          },
          {
            "number": 2,
            "time": 82.3499999999995,
            "value": 0.3858267716535433
          },
          {
            "number": 2,
            "time": 82.6499999999995,
            "value": 0.3858267716535433
          },
          {
            "number": 2,
            "time": 82.7999999999995,
            "value": 0.3858267716535433
          },
          {
            "number": 2,
            "time": 83.0999999999995,
            "value": 0.3858267716535433
          },
          {
            "number": 2,
            "time": 83.3999999999995,
            "value": 0.3858267716535433
          },
          {
            "number": 2,
            "time": 83.5499999999995,
            "value": 0.3858267716535433
          },
          {
            "number": 2,
            "time": 86.69999999999949,
            "value": 0.5748031496062992
          },
          {
            "number": 2,
            "time": 86.70062499999949,
            "value": 0.5748031496062992
          },
          {
            "number": 2,
            "time": 86.70124999999949,
            "value": 0.5748031496062992
          },
          {
            "number": 2,
            "time": 86.70187499999949,
            "value": 0.5669291338582677
          },
          {
            "number": 2,
            "time": 86.70249999999949,
            "value": 0.5669291338582677
          },
          {
            "number": 2,
            "time": 86.70312499999949,
            "value": 0.5669291338582677
          },
          {
            "number": 2,
            "time": 86.70374999999949,
            "value": 0.5669291338582677
          },
          {
            "number": 2,
            "time": 86.70437499999949,
            "value": 0.5669291338582677
          },
          {
            "number": 2,
            "time": 86.70499999999949,
            "value": 0.5590551181102362
          },
          {
            "number": 2,
            "time": 86.70562499999949,
            "value": 0.5590551181102362
          },
          {
            "number": 2,
            "time": 86.70624999999949,
            "value": 0.5590551181102362
          },
          {
            "number": 2,
            "time": 86.70687499999948,
            "value": 0.5590551181102362
          },
          {
            "number": 2,
            "time": 86.70749999999948,
            "value": 0.5590551181102362
          },
          {
            "number": 2,
            "time": 86.70812499999948,
            "value": 0.5511811023622047
          },
          {
            "number": 2,
            "time": 86.70874999999948,
            "value": 0.5511811023622047
          },
          {
            "number": 2,
            "time": 86.70937499999948,
            "value": 0.5511811023622047
          },
          {
            "number": 2,
            "time": 86.70999999999948,
            "value": 0.5511811023622047
          },
          {
            "number": 2,
            "time": 86.71062499999948,
            "value": 0.5511811023622047
          },
          {
            "number": 2,
            "time": 86.71124999999948,
            "value": 0.5433070866141733
          },
          {
            "number": 2,
            "time": 86.71187499999948,
            "value": 0.5433070866141733
          },
          {
            "number": 2,
            "time": 86.71249999999948,
            "value": 0.5433070866141733
          },
          {
            "number": 2,
            "time": 86.71312499999948,
            "value": 0.5433070866141733
          },
          {
            "number": 2,
            "time": 86.71374999999948,
            "value": 0.5433070866141733
          },
          {
            "number": 2,
            "time": 86.71437499999948,
            "value": 0.5354330708661418
          },
          {
            "number": 2,
            "time": 86.71499999999948,
            "value": 0.5354330708661418
          },
          {
            "number": 2,
            "time": 86.71562499999948,
            "value": 0.5354330708661418
          },
          {
            "number": 2,
            "time": 86.71624999999948,
            "value": 0.5354330708661418
          },
          {
            "number": 2,
            "time": 86.71687499999948,
            "value": 0.5275590551181102
          },
          {
            "number": 2,
            "time": 86.71749999999948,
            "value": 0.5275590551181102
          },
          {
            "number": 2,
            "time": 86.71812499999947,
            "value": 0.5275590551181102
          },
          {
            "number": 2,
            "time": 86.71874999999947,
            "value": 0.5275590551181102
          },
          {
            "number": 2,
            "time": 86.71937499999947,
            "value": 0.5275590551181102
          },
          {
            "number": 2,
            "time": 86.71999999999947,
            "value": 0.5196850393700787
          },
          {
            "number": 2,
            "time": 86.72062499999947,
            "value": 0.5196850393700787
          },
          {
            "number": 2,
            "time": 86.72124999999947,
            "value": 0.5196850393700787
          },
          {
            "number": 2,
            "time": 86.72187499999947,
            "value": 0.5196850393700787
          },
          {
            "number": 2,
            "time": 86.72249999999947,
            "value": 0.5196850393700787
          },
          {
            "number": 2,
            "time": 86.72312499999947,
            "value": 0.5118110236220472
          },
          {
            "number": 2,
            "time": 86.72374999999947,
            "value": 0.5118110236220472
          },
          {
            "number": 2,
            "time": 86.72437499999947,
            "value": 0.5118110236220472
          },
          {
            "number": 2,
            "time": 86.72499999999947,
            "value": 0.5118110236220472
          },
          {
            "number": 2,
            "time": 86.72562499999947,
            "value": 0.5118110236220472
          },
          {
            "number": 2,
            "time": 86.72624999999947,
            "value": 0.5039370078740157
          },
          {
            "number": 2,
            "time": 86.72687499999947,
            "value": 0.5039370078740157
          },
          {
            "number": 2,
            "time": 86.72749999999947,
            "value": 0.5039370078740157
          },
          {
            "number": 2,
            "time": 86.72812499999947,
            "value": 0.5039370078740157
          },
          {
            "number": 2,
            "time": 86.72874999999947,
            "value": 0.5039370078740157
          },
          {
            "number": 2,
            "time": 86.72937499999946,
            "value": 0.49606299212598426
          },
          {
            "number": 2,
            "time": 86.72999999999946,
            "value": 0.49606299212598426
          },
          {
            "number": 2,
            "time": 86.73062499999946,
            "value": 0.49606299212598426
          },
          {
            "number": 2,
            "time": 86.73124999999946,
            "value": 0.49606299212598426
          },
          {
            "number": 2,
            "time": 86.73187499999946,
            "value": 0.49606299212598426
          },
          {
            "number": 2,
            "time": 86.73249999999946,
            "value": 0.4881889763779528
          },
          {
            "number": 2,
            "time": 86.73312499999946,
            "value": 0.4881889763779528
          },
          {
            "number": 2,
            "time": 86.73374999999946,
            "value": 0.4881889763779528
          },
          {
            "number": 2,
            "time": 86.73437499999946,
            "value": 0.4881889763779528
          },
          {
            "number": 2,
            "time": 86.73499999999946,
            "value": 0.4881889763779528
          },
          {
            "number": 2,
            "time": 86.73562499999946,
            "value": 0.48031496062992124
          },
          {
            "number": 2,
            "time": 86.73624999999946,
            "value": 0.48031496062992124
          },
          {
            "number": 2,
            "time": 86.73687499999946,
            "value": 0.48031496062992124
          },
          {
            "number": 2,
            "time": 86.73749999999946,
            "value": 0.48031496062992124
          },
          {
            "number": 2,
            "time": 86.73812499999946,
            "value": 0.48031496062992124
          },
          {
            "number": 2,
            "time": 86.73874999999946,
            "value": 0.47244094488188976
          },
          {
            "number": 2,
            "time": 86.73937499999946,
            "value": 0.47244094488188976
          },
          {
            "number": 2,
            "time": 86.73999999999945,
            "value": 0.47244094488188976
          },
          {
            "number": 2,
            "time": 86.74062499999945,
            "value": 0.47244094488188976
          },
          {
            "number": 2,
            "time": 86.74124999999945,
            "value": 0.47244094488188976
          },
          {
            "number": 2,
            "time": 86.74187499999945,
            "value": 0.4645669291338583
          },
          {
            "number": 2,
            "time": 86.74249999999945,
            "value": 0.4645669291338583
          },
          {
            "number": 2,
            "time": 86.74312499999945,
            "value": 0.4645669291338583
          },
          {
            "number": 2,
            "time": 86.74374999999945,
            "value": 0.4645669291338583
          },
          {
            "number": 2,
            "time": 86.74437499999945,
            "value": 0.4645669291338583
          },
          {
            "number": 2,
            "time": 86.74499999999945,
            "value": 0.4566929133858268
          },
          {
            "number": 2,
            "time": 86.74562499999945,
            "value": 0.4566929133858268
          },
          {
            "number": 2,
            "time": 86.74624999999945,
            "value": 0.4566929133858268
          },
          {
            "number": 2,
            "time": 86.74687499999945,
            "value": 0.4566929133858268
          },
          {
            "number": 2,
            "time": 86.74749999999945,
            "value": 0.44881889763779526
          },
          {
            "number": 2,
            "time": 86.74812499999945,
            "value": 0.44881889763779526
          },
          {
            "number": 2,
            "time": 86.74874999999945,
            "value": 0.44881889763779526
          },
          {
            "number": 2,
            "time": 86.74937499999945,
            "value": 0.44881889763779526
          },
          {
            "number": 2,
            "time": 86.74999999999945,
            "value": 0.44881889763779526
          },
          {
            "number": 2,
            "time": 86.75062499999945,
            "value": 0.4409448818897638
          },
          {
            "number": 2,
            "time": 86.75124999999944,
            "value": 0.4409448818897638
          },
          {
            "number": 2,
            "time": 86.75187499999944,
            "value": 0.4409448818897638
          },
          {
            "number": 2,
            "time": 86.75249999999944,
            "value": 0.4409448818897638
          },
          {
            "number": 2,
            "time": 86.75312499999944,
            "value": 0.4409448818897638
          },
          {
            "number": 2,
            "time": 86.75374999999944,
            "value": 0.4330708661417323
          },
          {
            "number": 2,
            "time": 86.75437499999944,
            "value": 0.4330708661417323
          },
          {
            "number": 2,
            "time": 86.75499999999944,
            "value": 0.4330708661417323
          },
          {
            "number": 2,
            "time": 86.75562499999944,
            "value": 0.4330708661417323
          },
          {
            "number": 2,
            "time": 86.75624999999944,
            "value": 0.4330708661417323
          },
          {
            "number": 2,
            "time": 86.75687499999944,
            "value": 0.4251968503937008
          },
          {
            "number": 2,
            "time": 86.75749999999944,
            "value": 0.4251968503937008
          },
          {
            "number": 2,
            "time": 86.75812499999944,
            "value": 0.4251968503937008
          },
          {
            "number": 2,
            "time": 86.75874999999944,
            "value": 0.4251968503937008
          },
          {
            "number": 2,
            "time": 86.75937499999944,
            "value": 0.4251968503937008
          },
          {
            "number": 2,
            "time": 86.75999999999944,
            "value": 0.41732283464566927
          },
          {
            "number": 2,
            "time": 86.76062499999944,
            "value": 0.41732283464566927
          },
          {
            "number": 2,
            "time": 86.76124999999944,
            "value": 0.41732283464566927
          },
          {
            "number": 2,
            "time": 86.76187499999943,
            "value": 0.41732283464566927
          },
          {
            "number": 2,
            "time": 86.76249999999943,
            "value": 0.41732283464566927
          },
          {
            "number": 2,
            "time": 86.76312499999943,
            "value": 0.4094488188976378
          },
          {
            "number": 2,
            "time": 86.76374999999943,
            "value": 0.4094488188976378
          },
          {
            "number": 2,
            "time": 86.76437499999943,
            "value": 0.4094488188976378
          },
          {
            "number": 2,
            "time": 86.76499999999943,
            "value": 0.4094488188976378
          },
          {
            "number": 2,
            "time": 86.76562499999943,
            "value": 0.4094488188976378
          },
          {
            "number": 2,
            "time": 86.76624999999943,
            "value": 0.4015748031496063
          },
          {
            "number": 2,
            "time": 86.76687499999943,
            "value": 0.4015748031496063
          },
          {
            "number": 2,
            "time": 86.76749999999943,
            "value": 0.4015748031496063
          },
          {
            "number": 2,
            "time": 86.76812499999943,
            "value": 0.4015748031496063
          },
          {
            "number": 2,
            "time": 86.76874999999943,
            "value": 0.4015748031496063
          },
          {
            "number": 2,
            "time": 86.76937499999943,
            "value": 0.3937007874015748
          },
          {
            "number": 2,
            "time": 86.76999999999943,
            "value": 0.3937007874015748
          },
          {
            "number": 2,
            "time": 86.77062499999943,
            "value": 0.3937007874015748
          },
          {
            "number": 2,
            "time": 86.77124999999943,
            "value": 0.3937007874015748
          },
          {
            "number": 2,
            "time": 86.77187499999943,
            "value": 0.3937007874015748
          },
          {
            "number": 2,
            "time": 86.77249999999943,
            "value": 0.3858267716535433
          },
          {
            "number": 2,
            "time": 86.77312499999942,
            "value": 0.3858267716535433
          },
          {
            "number": 2,
            "time": 86.77374999999942,
            "value": 0.3858267716535433
          },
          {
            "number": 2,
            "time": 86.77437499999942,
            "value": 0.3858267716535433
          },
          {
            "number": 2,
            "time": 86.84999999999943,
            "value": 0.3858267716535433
          },
          {
            "number": 2,
            "time": 87.14999999999942,
            "value": 0.3858267716535433
          },
          {
            "number": 2,
            "time": 87.29999999999943,
            "value": 0.3858267716535433
          },
          {
            "number": 2,
            "time": 87.59999999999943,
            "value": 0.3858267716535433
          },
          {
            "number": 2,
            "time": 87.89999999999942,
            "value": 0.3858267716535433
          },
          {
            "number": 2,
            "time": 88.04999999999943,
            "value": 0.3858267716535433
          },
          {
            "number": 2,
            "time": 89.54999999999943,
            "value": 0.5748031496062992
          },
          {
            "number": 2,
            "time": 89.55062499999943,
            "value": 0.5748031496062992
          },
          {
            "number": 2,
            "time": 89.55124999999943,
            "value": 0.5748031496062992
          },
          {
            "number": 2,
            "time": 89.55187499999943,
            "value": 0.5669291338582677
          },
          {
            "number": 2,
            "time": 89.55249999999943,
            "value": 0.5669291338582677
          },
          {
            "number": 2,
            "time": 89.55312499999943,
            "value": 0.5669291338582677
          },
          {
            "number": 2,
            "time": 89.55374999999943,
            "value": 0.5669291338582677
          },
          {
            "number": 2,
            "time": 89.55437499999942,
            "value": 0.5669291338582677
          },
          {
            "number": 2,
            "time": 89.55499999999942,
            "value": 0.5590551181102362
          },
          {
            "number": 2,
            "time": 89.55562499999942,
            "value": 0.5590551181102362
          },
          {
            "number": 2,
            "time": 89.55624999999942,
            "value": 0.5590551181102362
          },
          {
            "number": 2,
            "time": 89.55687499999942,
            "value": 0.5590551181102362
          },
          {
            "number": 2,
            "time": 89.55749999999942,
            "value": 0.5590551181102362
          },
          {
            "number": 2,
            "time": 89.55812499999942,
            "value": 0.5511811023622047
          },
          {
            "number": 2,
            "time": 89.55874999999942,
            "value": 0.5511811023622047
          },
          {
            "number": 2,
            "time": 89.55937499999942,
            "value": 0.5511811023622047
          },
          {
            "number": 2,
            "time": 89.55999999999942,
            "value": 0.5511811023622047
          },
          {
            "number": 2,
            "time": 89.56062499999942,
            "value": 0.5511811023622047
          },
          {
            "number": 2,
            "time": 89.56124999999942,
            "value": 0.5433070866141733
          },
          {
            "number": 2,
            "time": 89.56187499999942,
            "value": 0.5433070866141733
          },
          {
            "number": 2,
            "time": 89.56249999999942,
            "value": 0.5433070866141733
          },
          {
            "number": 2,
            "time": 89.56312499999942,
            "value": 0.5433070866141733
          },
          {
            "number": 2,
            "time": 89.56374999999942,
            "value": 0.5433070866141733
          },
          {
            "number": 2,
            "time": 89.56437499999942,
            "value": 0.5354330708661418
          },
          {
            "number": 2,
            "time": 89.56499999999942,
            "value": 0.5354330708661418
          },
          {
            "number": 2,
            "time": 89.56562499999941,
            "value": 0.5354330708661418
          },
          {
            "number": 2,
            "time": 89.56624999999941,
            "value": 0.5354330708661418
          },
          {
            "number": 2,
            "time": 89.56687499999941,
            "value": 0.5275590551181102
          },
          {
            "number": 2,
            "time": 89.56749999999941,
            "value": 0.5275590551181102
          },
          {
            "number": 2,
            "time": 89.56812499999941,
            "value": 0.5275590551181102
          },
          {
            "number": 2,
            "time": 89.56874999999941,
            "value": 0.5275590551181102
          },
          {
            "number": 2,
            "time": 89.56937499999941,
            "value": 0.5275590551181102
          },
          {
            "number": 2,
            "time": 89.56999999999941,
            "value": 0.5196850393700787
          },
          {
            "number": 2,
            "time": 89.57062499999941,
            "value": 0.5196850393700787
          },
          {
            "number": 2,
            "time": 89.57124999999941,
            "value": 0.5196850393700787
          },
          {
            "number": 2,
            "time": 89.57187499999941,
            "value": 0.5196850393700787
          },
          {
            "number": 2,
            "time": 89.57249999999941,
            "value": 0.5196850393700787
          },
          {
            "number": 2,
            "time": 89.57312499999941,
            "value": 0.5118110236220472
          },
          {
            "number": 2,
            "time": 89.57374999999941,
            "value": 0.5118110236220472
          },
          {
            "number": 2,
            "time": 89.5743749999994,
            "value": 0.5118110236220472
          },
          {
            "number": 2,
            "time": 89.5749999999994,
            "value": 0.5118110236220472
          },
          {
            "number": 2,
            "time": 89.5756249999994,
            "value": 0.5118110236220472
          },
          {
            "number": 2,
            "time": 89.5762499999994,
            "value": 0.5039370078740157
          },
          {
            "number": 2,
            "time": 89.5768749999994,
            "value": 0.5039370078740157
          },
          {
            "number": 2,
            "time": 89.5774999999994,
            "value": 0.5039370078740157
          },
          {
            "number": 2,
            "time": 89.5781249999994,
            "value": 0.5039370078740157
          },
          {
            "number": 2,
            "time": 89.5787499999994,
            "value": 0.5039370078740157
          },
          {
            "number": 2,
            "time": 89.5793749999994,
            "value": 0.49606299212598426
          },
          {
            "number": 2,
            "time": 89.5799999999994,
            "value": 0.49606299212598426
          },
          {
            "number": 2,
            "time": 89.5806249999994,
            "value": 0.49606299212598426
          },
          {
            "number": 2,
            "time": 89.5812499999994,
            "value": 0.49606299212598426
          },
          {
            "number": 2,
            "time": 89.5818749999994,
            "value": 0.49606299212598426
          },
          {
            "number": 2,
            "time": 89.5824999999994,
            "value": 0.4881889763779528
          },
          {
            "number": 2,
            "time": 89.5831249999994,
            "value": 0.4881889763779528
          },
          {
            "number": 2,
            "time": 89.5837499999994,
            "value": 0.4881889763779528
          },
          {
            "number": 2,
            "time": 89.5843749999994,
            "value": 0.4881889763779528
          },
          {
            "number": 2,
            "time": 89.5849999999994,
            "value": 0.4881889763779528
          },
          {
            "number": 2,
            "time": 89.5856249999994,
            "value": 0.48031496062992124
          },
          {
            "number": 2,
            "time": 89.5862499999994,
            "value": 0.48031496062992124
          },
          {
            "number": 2,
            "time": 89.5868749999994,
            "value": 0.48031496062992124
          },
          {
            "number": 2,
            "time": 89.5874999999994,
            "value": 0.48031496062992124
          },
          {
            "number": 2,
            "time": 89.5881249999994,
            "value": 0.48031496062992124
          },
          {
            "number": 2,
            "time": 89.5887499999994,
            "value": 0.47244094488188976
          },
          {
            "number": 2,
            "time": 89.5893749999994,
            "value": 0.47244094488188976
          },
          {
            "number": 2,
            "time": 89.58999999999939,
            "value": 0.47244094488188976
          },
          {
            "number": 2,
            "time": 89.59062499999939,
            "value": 0.47244094488188976
          },
          {
            "number": 2,
            "time": 89.59124999999939,
            "value": 0.47244094488188976
          },
          {
            "number": 2,
            "time": 89.59187499999939,
            "value": 0.4645669291338583
          },
          {
            "number": 2,
            "time": 89.59249999999939,
            "value": 0.4645669291338583
          },
          {
            "number": 2,
            "time": 89.59312499999939,
            "value": 0.4645669291338583
          },
          {
            "number": 2,
            "time": 89.59374999999939,
            "value": 0.4645669291338583
          },
          {
            "number": 2,
            "time": 89.59437499999939,
            "value": 0.4645669291338583
          },
          {
            "number": 2,
            "time": 89.59499999999939,
            "value": 0.4566929133858268
          },
          {
            "number": 2,
            "time": 89.59562499999939,
            "value": 0.4566929133858268
          },
          {
            "number": 2,
            "time": 89.59624999999939,
            "value": 0.4566929133858268
          },
          {
            "number": 2,
            "time": 89.59687499999939,
            "value": 0.4566929133858268
          },
          {
            "number": 2,
            "time": 89.59749999999939,
            "value": 0.44881889763779526
          },
          {
            "number": 2,
            "time": 89.59812499999938,
            "value": 0.44881889763779526
          },
          {
            "number": 2,
            "time": 89.59874999999938,
            "value": 0.44881889763779526
          },
          {
            "number": 2,
            "time": 89.59937499999938,
            "value": 0.44881889763779526
          },
          {
            "number": 2,
            "time": 89.59999999999938,
            "value": 0.44881889763779526
          },
          {
            "number": 2,
            "time": 89.60062499999938,
            "value": 0.4409448818897638
          },
          {
            "number": 2,
            "time": 89.60124999999938,
            "value": 0.4409448818897638
          },
          {
            "number": 2,
            "time": 89.60187499999938,
            "value": 0.4409448818897638
          },
          {
            "number": 2,
            "time": 89.60249999999938,
            "value": 0.4409448818897638
          },
          {
            "number": 2,
            "time": 89.60312499999938,
            "value": 0.4409448818897638
          },
          {
            "number": 2,
            "time": 89.60374999999938,
            "value": 0.4330708661417323
          },
          {
            "number": 2,
            "time": 89.60437499999938,
            "value": 0.4330708661417323
          },
          {
            "number": 2,
            "time": 89.60499999999938,
            "value": 0.4330708661417323
          },
          {
            "number": 2,
            "time": 89.60562499999938,
            "value": 0.4330708661417323
          },
          {
            "number": 2,
            "time": 89.60624999999938,
            "value": 0.4330708661417323
          },
          {
            "number": 2,
            "time": 89.60687499999938,
            "value": 0.4251968503937008
          },
          {
            "number": 2,
            "time": 89.60749999999938,
            "value": 0.4251968503937008
          },
          {
            "number": 2,
            "time": 89.60812499999938,
            "value": 0.4251968503937008
          },
          {
            "number": 2,
            "time": 89.60874999999938,
            "value": 0.4251968503937008
          },
          {
            "number": 2,
            "time": 89.60937499999937,
            "value": 0.4251968503937008
          },
          {
            "number": 2,
            "time": 89.60999999999937,
            "value": 0.41732283464566927
          },
          {
            "number": 2,
            "time": 89.61062499999937,
            "value": 0.41732283464566927
          },
          {
            "number": 2,
            "time": 89.61124999999937,
            "value": 0.41732283464566927
          },
          {
            "number": 2,
            "time": 89.61187499999937,
            "value": 0.41732283464566927
          },
          {
            "number": 2,
            "time": 89.61249999999937,
            "value": 0.41732283464566927
          },
          {
            "number": 2,
            "time": 89.61312499999937,
            "value": 0.4094488188976378
          },
          {
            "number": 2,
            "time": 89.61374999999937,
            "value": 0.4094488188976378
          },
          {
            "number": 2,
            "time": 89.61437499999937,
            "value": 0.4094488188976378
          },
          {
            "number": 2,
            "time": 89.61499999999937,
            "value": 0.4094488188976378
          },
          {
            "number": 2,
            "time": 89.61562499999937,
            "value": 0.4094488188976378
          },
          {
            "number": 2,
            "time": 89.61624999999937,
            "value": 0.4015748031496063
          },
          {
            "number": 2,
            "time": 89.61687499999937,
            "value": 0.4015748031496063
          },
          {
            "number": 2,
            "time": 89.61749999999937,
            "value": 0.4015748031496063
          },
          {
            "number": 2,
            "time": 89.61812499999937,
            "value": 0.4015748031496063
          },
          {
            "number": 2,
            "time": 89.61874999999937,
            "value": 0.4015748031496063
          },
          {
            "number": 2,
            "time": 89.61937499999937,
            "value": 0.3937007874015748
          },
          {
            "number": 2,
            "time": 89.61999999999937,
            "value": 0.3937007874015748
          },
          {
            "number": 2,
            "time": 89.62062499999936,
            "value": 0.3937007874015748
          },
          {
            "number": 2,
            "time": 89.62124999999936,
            "value": 0.3937007874015748
          },
          {
            "number": 2,
            "time": 89.62187499999936,
            "value": 0.3937007874015748
          },
          {
            "number": 2,
            "time": 89.62249999999936,
            "value": 0.3858267716535433
          },
          {
            "number": 2,
            "time": 89.62312499999936,
            "value": 0.3858267716535433
          },
          {
            "number": 2,
            "time": 89.62374999999936,
            "value": 0.3858267716535433
          },
          {
            "number": 2,
            "time": 89.62437499999936,
            "value": 0.3858267716535433
          },
          {
            "number": 2,
            "time": 89.84999999999935,
            "value": 0.3858267716535433
          },
          {
            "number": 2,
            "time": 90.14999999999935,
            "value": 0.3858267716535433
          },
          {
            "number": 2,
            "time": 90.29999999999936,
            "value": 0.3858267716535433
          },
          {
            "number": 2,
            "time": 90.59999999999935,
            "value": 0.3858267716535433
          },
          {
            "number": 2,
            "time": 90.89999999999935,
            "value": 0.3858267716535433
          },
          {
            "number": 2,
            "time": 91.04999999999936,
            "value": 0.3858267716535433
          },
          {
            "number": 2,
            "time": 91.34999999999935,
            "value": 0.3858267716535433
          },
          {
            "number": 2,
            "time": 91.64999999999935,
            "value": 0.3858267716535433
          },
          {
            "number": 2,
            "time": 91.79999999999936,
            "value": 0.3858267716535433
          },
          {
            "number": 2,
            "time": 92.09999999999935,
            "value": 0.3858267716535433
          },
          {
            "number": 2,
            "time": 92.39999999999935,
            "value": 0.3858267716535433
          },
          {
            "number": 2,
            "time": 92.54999999999936,
            "value": 0.5748031496062992
          },
          {
            "number": 2,
            "time": 92.55062499999936,
            "value": 0.5748031496062992
          },
          {
            "number": 2,
            "time": 92.55124999999936,
            "value": 0.5748031496062992
          },
          {
            "number": 2,
            "time": 92.55187499999936,
            "value": 0.5669291338582677
          },
          {
            "number": 2,
            "time": 92.55249999999936,
            "value": 0.5669291338582677
          },
          {
            "number": 2,
            "time": 92.55312499999935,
            "value": 0.5669291338582677
          },
          {
            "number": 2,
            "time": 92.55374999999935,
            "value": 0.5669291338582677
          },
          {
            "number": 2,
            "time": 92.55437499999935,
            "value": 0.5669291338582677
          },
          {
            "number": 2,
            "time": 92.55499999999935,
            "value": 0.5590551181102362
          },
          {
            "number": 2,
            "time": 92.55562499999935,
            "value": 0.5590551181102362
          },
          {
            "number": 2,
            "time": 92.55624999999935,
            "value": 0.5590551181102362
          },
          {
            "number": 2,
            "time": 92.55687499999935,
            "value": 0.5590551181102362
          },
          {
            "number": 2,
            "time": 92.55749999999935,
            "value": 0.5590551181102362
          },
          {
            "number": 2,
            "time": 92.55812499999935,
            "value": 0.5511811023622047
          },
          {
            "number": 2,
            "time": 92.55874999999935,
            "value": 0.5511811023622047
          },
          {
            "number": 2,
            "time": 92.55937499999935,
            "value": 0.5511811023622047
          },
          {
            "number": 2,
            "time": 92.55999999999935,
            "value": 0.5511811023622047
          },
          {
            "number": 2,
            "time": 92.56062499999935,
            "value": 0.5511811023622047
          },
          {
            "number": 2,
            "time": 92.56124999999935,
            "value": 0.5433070866141733
          },
          {
            "number": 2,
            "time": 92.56187499999935,
            "value": 0.5433070866141733
          },
          {
            "number": 2,
            "time": 92.56249999999935,
            "value": 0.5433070866141733
          },
          {
            "number": 2,
            "time": 92.56312499999935,
            "value": 0.5433070866141733
          },
          {
            "number": 2,
            "time": 92.56374999999935,
            "value": 0.5433070866141733
          },
          {
            "number": 2,
            "time": 92.56437499999934,
            "value": 0.5354330708661418
          },
          {
            "number": 2,
            "time": 92.56499999999934,
            "value": 0.5354330708661418
          },
          {
            "number": 2,
            "time": 92.56562499999934,
            "value": 0.5354330708661418
          },
          {
            "number": 2,
            "time": 92.56624999999934,
            "value": 0.5354330708661418
          },
          {
            "number": 2,
            "time": 92.56687499999934,
            "value": 0.5275590551181102
          },
          {
            "number": 2,
            "time": 92.56749999999934,
            "value": 0.5275590551181102
          },
          {
            "number": 2,
            "time": 92.56812499999934,
            "value": 0.5275590551181102
          },
          {
            "number": 2,
            "time": 92.56874999999934,
            "value": 0.5275590551181102
          },
          {
            "number": 2,
            "time": 92.56937499999934,
            "value": 0.5275590551181102
          },
          {
            "number": 2,
            "time": 92.56999999999934,
            "value": 0.5196850393700787
          },
          {
            "number": 2,
            "time": 92.57062499999934,
            "value": 0.5196850393700787
          },
          {
            "number": 2,
            "time": 92.57124999999934,
            "value": 0.5196850393700787
          },
          {
            "number": 2,
            "time": 92.57187499999934,
            "value": 0.5196850393700787
          },
          {
            "number": 2,
            "time": 92.57249999999934,
            "value": 0.5196850393700787
          },
          {
            "number": 2,
            "time": 92.57312499999934,
            "value": 0.5118110236220472
          },
          {
            "number": 2,
            "time": 92.57374999999934,
            "value": 0.5118110236220472
          },
          {
            "number": 2,
            "time": 92.57437499999934,
            "value": 0.5118110236220472
          },
          {
            "number": 2,
            "time": 92.57499999999933,
            "value": 0.5118110236220472
          },
          {
            "number": 2,
            "time": 92.57562499999933,
            "value": 0.5118110236220472
          },
          {
            "number": 2,
            "time": 92.57624999999933,
            "value": 0.5039370078740157
          },
          {
            "number": 2,
            "time": 92.57687499999933,
            "value": 0.5039370078740157
          },
          {
            "number": 2,
            "time": 92.57749999999933,
            "value": 0.5039370078740157
          },
          {
            "number": 2,
            "time": 92.57812499999933,
            "value": 0.5039370078740157
          },
          {
            "number": 2,
            "time": 92.57874999999933,
            "value": 0.5039370078740157
          },
          {
            "number": 2,
            "time": 92.57937499999933,
            "value": 0.49606299212598426
          },
          {
            "number": 2,
            "time": 92.57999999999933,
            "value": 0.49606299212598426
          },
          {
            "number": 2,
            "time": 92.58062499999933,
            "value": 0.49606299212598426
          },
          {
            "number": 2,
            "time": 92.58124999999933,
            "value": 0.49606299212598426
          },
          {
            "number": 2,
            "time": 92.58187499999933,
            "value": 0.49606299212598426
          },
          {
            "number": 2,
            "time": 92.58249999999933,
            "value": 0.4881889763779528
          },
          {
            "number": 2,
            "time": 92.58312499999933,
            "value": 0.4881889763779528
          },
          {
            "number": 2,
            "time": 92.58374999999933,
            "value": 0.4881889763779528
          },
          {
            "number": 2,
            "time": 92.58437499999933,
            "value": 0.4881889763779528
          },
          {
            "number": 2,
            "time": 92.58499999999933,
            "value": 0.4881889763779528
          },
          {
            "number": 2,
            "time": 92.58562499999933,
            "value": 0.48031496062992124
          },
          {
            "number": 2,
            "time": 92.58624999999932,
            "value": 0.48031496062992124
          },
          {
            "number": 2,
            "time": 92.58687499999932,
            "value": 0.48031496062992124
          },
          {
            "number": 2,
            "time": 92.58749999999932,
            "value": 0.48031496062992124
          },
          {
            "number": 2,
            "time": 92.58812499999932,
            "value": 0.48031496062992124
          },
          {
            "number": 2,
            "time": 92.58874999999932,
            "value": 0.47244094488188976
          },
          {
            "number": 2,
            "time": 92.58937499999932,
            "value": 0.47244094488188976
          },
          {
            "number": 2,
            "time": 92.58999999999932,
            "value": 0.47244094488188976
          },
          {
            "number": 2,
            "time": 92.59062499999932,
            "value": 0.47244094488188976
          },
          {
            "number": 2,
            "time": 92.59124999999932,
            "value": 0.47244094488188976
          },
          {
            "number": 2,
            "time": 92.59187499999932,
            "value": 0.4645669291338583
          },
          {
            "number": 2,
            "time": 92.59249999999932,
            "value": 0.4645669291338583
          },
          {
            "number": 2,
            "time": 92.59312499999932,
            "value": 0.4645669291338583
          },
          {
            "number": 2,
            "time": 92.59374999999932,
            "value": 0.4645669291338583
          },
          {
            "number": 2,
            "time": 92.59437499999932,
            "value": 0.4645669291338583
          },
          {
            "number": 2,
            "time": 92.59499999999932,
            "value": 0.4566929133858268
          },
          {
            "number": 2,
            "time": 92.59562499999932,
            "value": 0.4566929133858268
          },
          {
            "number": 2,
            "time": 92.59624999999932,
            "value": 0.4566929133858268
          },
          {
            "number": 2,
            "time": 92.59687499999932,
            "value": 0.4566929133858268
          },
          {
            "number": 2,
            "time": 92.59749999999931,
            "value": 0.44881889763779526
          },
          {
            "number": 2,
            "time": 92.59812499999931,
            "value": 0.44881889763779526
          },
          {
            "number": 2,
            "time": 92.59874999999931,
            "value": 0.44881889763779526
          },
          {
            "number": 2,
            "time": 92.59937499999931,
            "value": 0.44881889763779526
          },
          {
            "number": 2,
            "time": 92.59999999999931,
            "value": 0.44881889763779526
          },
          {
            "number": 2,
            "time": 92.60062499999931,
            "value": 0.4409448818897638
          },
          {
            "number": 2,
            "time": 92.60124999999931,
            "value": 0.4409448818897638
          },
          {
            "number": 2,
            "time": 92.60187499999931,
            "value": 0.4409448818897638
          },
          {
            "number": 2,
            "time": 92.60249999999931,
            "value": 0.4409448818897638
          },
          {
            "number": 2,
            "time": 92.60312499999931,
            "value": 0.4409448818897638
          },
          {
            "number": 2,
            "time": 92.60374999999931,
            "value": 0.4330708661417323
          },
          {
            "number": 2,
            "time": 92.60437499999931,
            "value": 0.4330708661417323
          },
          {
            "number": 2,
            "time": 92.60499999999931,
            "value": 0.4330708661417323
          },
          {
            "number": 2,
            "time": 92.6056249999993,
            "value": 0.4330708661417323
          },
          {
            "number": 2,
            "time": 92.6062499999993,
            "value": 0.4330708661417323
          },
          {
            "number": 2,
            "time": 92.6068749999993,
            "value": 0.4251968503937008
          },
          {
            "number": 2,
            "time": 92.6074999999993,
            "value": 0.4251968503937008
          },
          {
            "number": 2,
            "time": 92.6081249999993,
            "value": 0.4251968503937008
          },
          {
            "number": 2,
            "time": 92.6087499999993,
            "value": 0.4251968503937008
          },
          {
            "number": 2,
            "time": 92.6093749999993,
            "value": 0.4251968503937008
          },
          {
            "number": 2,
            "time": 92.6099999999993,
            "value": 0.41732283464566927
          },
          {
            "number": 2,
            "time": 92.6106249999993,
            "value": 0.41732283464566927
          },
          {
            "number": 2,
            "time": 92.6112499999993,
            "value": 0.41732283464566927
          },
          {
            "number": 2,
            "time": 92.6118749999993,
            "value": 0.41732283464566927
          },
          {
            "number": 2,
            "time": 92.6124999999993,
            "value": 0.41732283464566927
          },
          {
            "number": 2,
            "time": 92.6131249999993,
            "value": 0.4094488188976378
          },
          {
            "number": 2,
            "time": 92.6137499999993,
            "value": 0.4094488188976378
          },
          {
            "number": 2,
            "time": 92.6143749999993,
            "value": 0.4094488188976378
          },
          {
            "number": 2,
            "time": 92.6149999999993,
            "value": 0.4094488188976378
          },
          {
            "number": 2,
            "time": 92.6156249999993,
            "value": 0.4094488188976378
          },
          {
            "number": 2,
            "time": 92.6162499999993,
            "value": 0.4015748031496063
          },
          {
            "number": 2,
            "time": 92.6168749999993,
            "value": 0.4015748031496063
          },
          {
            "number": 2,
            "time": 92.6174999999993,
            "value": 0.4015748031496063
          },
          {
            "number": 2,
            "time": 92.6181249999993,
            "value": 0.4015748031496063
          },
          {
            "number": 2,
            "time": 92.6187499999993,
            "value": 0.4015748031496063
          },
          {
            "number": 2,
            "time": 92.6193749999993,
            "value": 0.3937007874015748
          },
          {
            "number": 2,
            "time": 92.6199999999993,
            "value": 0.3937007874015748
          },
          {
            "number": 2,
            "time": 92.6206249999993,
            "value": 0.3937007874015748
          },
          {
            "number": 2,
            "time": 92.62124999999929,
            "value": 0.3937007874015748
          },
          {
            "number": 2,
            "time": 92.62187499999929,
            "value": 0.3937007874015748
          },
          {
            "number": 2,
            "time": 92.62249999999929,
            "value": 0.3858267716535433
          },
          {
            "number": 2,
            "time": 92.62312499999929,
            "value": 0.3858267716535433
          },
          {
            "number": 2,
            "time": 92.62374999999929,
            "value": 0.3858267716535433
          },
          {
            "number": 2,
            "time": 92.62437499999929,
            "value": 0.3858267716535433
          },
          {
            "number": 2,
            "time": 92.84999999999928,
            "value": 0.3858267716535433
          },
          {
            "number": 2,
            "time": 93.14999999999928,
            "value": 0.3858267716535433
          },
          {
            "number": 2,
            "time": 93.29999999999929,
            "value": 0.3858267716535433
          },
          {
            "number": 2,
            "time": 93.59999999999928,
            "value": 0.3858267716535433
          },
          {
            "number": 2,
            "time": 93.89999999999928,
            "value": 0.3858267716535433
          },
          {
            "number": 2,
            "time": 94.04999999999929,
            "value": 0.5748031496062992
          },
          {
            "number": 2,
            "time": 94.05062499999929,
            "value": 0.5748031496062992
          },
          {
            "number": 2,
            "time": 94.05124999999929,
            "value": 0.5748031496062992
          },
          {
            "number": 2,
            "time": 94.05187499999928,
            "value": 0.5669291338582677
          },
          {
            "number": 2,
            "time": 94.05249999999928,
            "value": 0.5669291338582677
          },
          {
            "number": 2,
            "time": 94.05312499999928,
            "value": 0.5669291338582677
          },
          {
            "number": 2,
            "time": 94.05374999999928,
            "value": 0.5669291338582677
          },
          {
            "number": 2,
            "time": 94.05437499999928,
            "value": 0.5669291338582677
          },
          {
            "number": 2,
            "time": 94.05499999999928,
            "value": 0.5590551181102362
          },
          {
            "number": 2,
            "time": 94.05562499999928,
            "value": 0.5590551181102362
          },
          {
            "number": 2,
            "time": 94.05624999999928,
            "value": 0.5590551181102362
          },
          {
            "number": 2,
            "time": 94.05687499999928,
            "value": 0.5590551181102362
          },
          {
            "number": 2,
            "time": 94.05749999999928,
            "value": 0.5590551181102362
          },
          {
            "number": 2,
            "time": 94.05812499999928,
            "value": 0.5511811023622047
          },
          {
            "number": 2,
            "time": 94.05874999999928,
            "value": 0.5511811023622047
          },
          {
            "number": 2,
            "time": 94.05937499999928,
            "value": 0.5511811023622047
          },
          {
            "number": 2,
            "time": 94.05999999999928,
            "value": 0.5511811023622047
          },
          {
            "number": 2,
            "time": 94.06062499999928,
            "value": 0.5511811023622047
          },
          {
            "number": 2,
            "time": 94.06124999999928,
            "value": 0.5433070866141733
          },
          {
            "number": 2,
            "time": 94.06187499999928,
            "value": 0.5433070866141733
          },
          {
            "number": 2,
            "time": 94.06249999999928,
            "value": 0.5433070866141733
          },
          {
            "number": 2,
            "time": 94.06312499999927,
            "value": 0.5433070866141733
          },
          {
            "number": 2,
            "time": 94.06374999999927,
            "value": 0.5433070866141733
          },
          {
            "number": 2,
            "time": 94.06437499999927,
            "value": 0.5354330708661418
          },
          {
            "number": 2,
            "time": 94.06499999999927,
            "value": 0.5354330708661418
          },
          {
            "number": 2,
            "time": 94.06562499999927,
            "value": 0.5354330708661418
          },
          {
            "number": 2,
            "time": 94.06624999999927,
            "value": 0.5354330708661418
          },
          {
            "number": 2,
            "time": 94.06687499999927,
            "value": 0.5275590551181102
          },
          {
            "number": 2,
            "time": 94.06749999999927,
            "value": 0.5275590551181102
          },
          {
            "number": 2,
            "time": 94.06812499999927,
            "value": 0.5275590551181102
          },
          {
            "number": 2,
            "time": 94.06874999999927,
            "value": 0.5275590551181102
          },
          {
            "number": 2,
            "time": 94.06937499999927,
            "value": 0.5275590551181102
          },
          {
            "number": 2,
            "time": 94.06999999999927,
            "value": 0.5196850393700787
          },
          {
            "number": 2,
            "time": 94.07062499999927,
            "value": 0.5196850393700787
          },
          {
            "number": 2,
            "time": 94.07124999999927,
            "value": 0.5196850393700787
          },
          {
            "number": 2,
            "time": 94.07187499999927,
            "value": 0.5196850393700787
          },
          {
            "number": 2,
            "time": 94.07249999999927,
            "value": 0.5196850393700787
          },
          {
            "number": 2,
            "time": 94.07312499999927,
            "value": 0.5118110236220472
          },
          {
            "number": 2,
            "time": 94.07374999999927,
            "value": 0.5118110236220472
          },
          {
            "number": 2,
            "time": 94.07437499999926,
            "value": 0.5118110236220472
          },
          {
            "number": 2,
            "time": 94.07499999999926,
            "value": 0.5118110236220472
          },
          {
            "number": 2,
            "time": 94.07562499999926,
            "value": 0.5118110236220472
          },
          {
            "number": 2,
            "time": 94.07624999999926,
            "value": 0.5039370078740157
          },
          {
            "number": 2,
            "time": 94.07687499999926,
            "value": 0.5039370078740157
          },
          {
            "number": 2,
            "time": 94.07749999999926,
            "value": 0.5039370078740157
          },
          {
            "number": 2,
            "time": 94.07812499999926,
            "value": 0.5039370078740157
          },
          {
            "number": 2,
            "time": 94.07874999999926,
            "value": 0.5039370078740157
          },
          {
            "number": 2,
            "time": 94.07937499999926,
            "value": 0.49606299212598426
          },
          {
            "number": 2,
            "time": 94.07999999999926,
            "value": 0.49606299212598426
          },
          {
            "number": 2,
            "time": 94.08062499999926,
            "value": 0.49606299212598426
          },
          {
            "number": 2,
            "time": 94.08124999999926,
            "value": 0.49606299212598426
          },
          {
            "number": 2,
            "time": 94.08187499999926,
            "value": 0.49606299212598426
          },
          {
            "number": 2,
            "time": 94.08249999999926,
            "value": 0.4881889763779528
          },
          {
            "number": 2,
            "time": 94.08312499999926,
            "value": 0.4881889763779528
          },
          {
            "number": 2,
            "time": 94.08374999999926,
            "value": 0.4881889763779528
          },
          {
            "number": 2,
            "time": 94.08437499999926,
            "value": 0.4881889763779528
          },
          {
            "number": 2,
            "time": 94.08499999999925,
            "value": 0.4881889763779528
          },
          {
            "number": 2,
            "time": 94.08562499999925,
            "value": 0.48031496062992124
          },
          {
            "number": 2,
            "time": 94.08624999999925,
            "value": 0.48031496062992124
          },
          {
            "number": 2,
            "time": 94.08687499999925,
            "value": 0.48031496062992124
          },
          {
            "number": 2,
            "time": 94.08749999999925,
            "value": 0.48031496062992124
          },
          {
            "number": 2,
            "time": 94.08812499999925,
            "value": 0.48031496062992124
          },
          {
            "number": 2,
            "time": 94.08874999999925,
            "value": 0.47244094488188976
          },
          {
            "number": 2,
            "time": 94.08937499999925,
            "value": 0.47244094488188976
          },
          {
            "number": 2,
            "time": 94.08999999999925,
            "value": 0.47244094488188976
          },
          {
            "number": 2,
            "time": 94.09062499999925,
            "value": 0.47244094488188976
          },
          {
            "number": 2,
            "time": 94.09124999999925,
            "value": 0.47244094488188976
          },
          {
            "number": 2,
            "time": 94.09187499999925,
            "value": 0.4645669291338583
          },
          {
            "number": 2,
            "time": 94.09249999999925,
            "value": 0.4645669291338583
          },
          {
            "number": 2,
            "time": 94.09312499999925,
            "value": 0.4645669291338583
          },
          {
            "number": 2,
            "time": 94.09374999999925,
            "value": 0.4645669291338583
          },
          {
            "number": 2,
            "time": 94.09437499999925,
            "value": 0.4645669291338583
          },
          {
            "number": 2,
            "time": 94.09499999999925,
            "value": 0.4566929133858268
          },
          {
            "number": 2,
            "time": 94.09562499999925,
            "value": 0.4566929133858268
          },
          {
            "number": 2,
            "time": 94.09624999999924,
            "value": 0.4566929133858268
          },
          {
            "number": 2,
            "time": 94.09687499999924,
            "value": 0.4566929133858268
          },
          {
            "number": 2,
            "time": 94.09749999999924,
            "value": 0.44881889763779526
          },
          {
            "number": 2,
            "time": 94.09812499999924,
            "value": 0.44881889763779526
          },
          {
            "number": 2,
            "time": 94.09874999999924,
            "value": 0.44881889763779526
          },
          {
            "number": 2,
            "time": 94.09937499999924,
            "value": 0.44881889763779526
          },
          {
            "number": 2,
            "time": 94.09999999999924,
            "value": 0.44881889763779526
          },
          {
            "number": 2,
            "time": 94.10062499999924,
            "value": 0.4409448818897638
          },
          {
            "number": 2,
            "time": 94.10124999999924,
            "value": 0.4409448818897638
          },
          {
            "number": 2,
            "time": 94.10187499999924,
            "value": 0.4409448818897638
          },
          {
            "number": 2,
            "time": 94.10249999999924,
            "value": 0.4409448818897638
          },
          {
            "number": 2,
            "time": 94.10312499999924,
            "value": 0.4409448818897638
          },
          {
            "number": 2,
            "time": 94.10374999999924,
            "value": 0.4330708661417323
          },
          {
            "number": 2,
            "time": 94.10437499999924,
            "value": 0.4330708661417323
          },
          {
            "number": 2,
            "time": 94.10499999999924,
            "value": 0.4330708661417323
          },
          {
            "number": 2,
            "time": 94.10562499999924,
            "value": 0.4330708661417323
          },
          {
            "number": 2,
            "time": 94.10624999999924,
            "value": 0.4330708661417323
          },
          {
            "number": 2,
            "time": 94.10687499999923,
            "value": 0.4251968503937008
          },
          {
            "number": 2,
            "time": 94.10749999999923,
            "value": 0.4251968503937008
          },
          {
            "number": 2,
            "time": 94.10812499999923,
            "value": 0.4251968503937008
          },
          {
            "number": 2,
            "time": 94.10874999999923,
            "value": 0.4251968503937008
          },
          {
            "number": 2,
            "time": 94.10937499999923,
            "value": 0.4251968503937008
          },
          {
            "number": 2,
            "time": 94.10999999999923,
            "value": 0.41732283464566927
          },
          {
            "number": 2,
            "time": 94.11062499999923,
            "value": 0.41732283464566927
          },
          {
            "number": 2,
            "time": 94.11124999999923,
            "value": 0.41732283464566927
          },
          {
            "number": 2,
            "time": 94.11187499999923,
            "value": 0.41732283464566927
          },
          {
            "number": 2,
            "time": 94.11249999999923,
            "value": 0.41732283464566927
          },
          {
            "number": 2,
            "time": 94.11312499999923,
            "value": 0.4094488188976378
          },
          {
            "number": 2,
            "time": 94.11374999999923,
            "value": 0.4094488188976378
          },
          {
            "number": 2,
            "time": 94.11437499999923,
            "value": 0.4094488188976378
          },
          {
            "number": 2,
            "time": 94.11499999999923,
            "value": 0.4094488188976378
          },
          {
            "number": 2,
            "time": 94.11562499999923,
            "value": 0.4094488188976378
          },
          {
            "number": 2,
            "time": 94.11624999999923,
            "value": 0.4015748031496063
          },
          {
            "number": 2,
            "time": 94.11687499999923,
            "value": 0.4015748031496063
          },
          {
            "number": 2,
            "time": 94.11749999999923,
            "value": 0.4015748031496063
          },
          {
            "number": 2,
            "time": 94.11812499999922,
            "value": 0.4015748031496063
          },
          {
            "number": 2,
            "time": 94.11874999999922,
            "value": 0.4015748031496063
          },
          {
            "number": 2,
            "time": 94.11937499999922,
            "value": 0.3937007874015748
          },
          {
            "number": 2,
            "time": 94.11999999999922,
            "value": 0.3937007874015748
          },
          {
            "number": 2,
            "time": 94.12062499999922,
            "value": 0.3937007874015748
          },
          {
            "number": 2,
            "time": 94.12124999999922,
            "value": 0.3937007874015748
          },
          {
            "number": 2,
            "time": 94.12187499999922,
            "value": 0.3937007874015748
          },
          {
            "number": 2,
            "time": 94.12249999999922,
            "value": 0.3858267716535433
          },
          {
            "number": 2,
            "time": 94.12312499999922,
            "value": 0.3858267716535433
          },
          {
            "number": 2,
            "time": 94.12374999999922,
            "value": 0.3858267716535433
          },
          {
            "number": 2,
            "time": 94.12437499999922,
            "value": 0.3858267716535433
          },
          {
            "number": 2,
            "time": 94.34999999999921,
            "value": 0.3858267716535433
          },
          {
            "number": 2,
            "time": 94.64999999999921,
            "value": 0.3858267716535433
          },
          {
            "number": 2,
            "time": 94.79999999999922,
            "value": 0.3858267716535433
          },
          {
            "number": 2,
            "time": 95.09999999999921,
            "value": 0.3858267716535433
          },
          {
            "number": 2,
            "time": 95.39999999999921,
            "value": 0.3858267716535433
          },
          {
            "number": 2,
            "time": 95.54999999999922,
            "value": 0.5748031496062992
          },
          {
            "number": 2,
            "time": 95.55062499999921,
            "value": 0.5748031496062992
          },
          {
            "number": 2,
            "time": 95.55124999999921,
            "value": 0.5748031496062992
          },
          {
            "number": 2,
            "time": 95.55187499999921,
            "value": 0.5669291338582677
          },
          {
            "number": 2,
            "time": 95.55249999999921,
            "value": 0.5669291338582677
          },
          {
            "number": 2,
            "time": 95.55312499999921,
            "value": 0.5669291338582677
          },
          {
            "number": 2,
            "time": 95.55374999999921,
            "value": 0.5669291338582677
          },
          {
            "number": 2,
            "time": 95.55437499999921,
            "value": 0.5669291338582677
          },
          {
            "number": 2,
            "time": 95.55499999999921,
            "value": 0.5590551181102362
          },
          {
            "number": 2,
            "time": 95.55562499999921,
            "value": 0.5590551181102362
          },
          {
            "number": 2,
            "time": 95.55624999999921,
            "value": 0.5590551181102362
          },
          {
            "number": 2,
            "time": 95.55687499999921,
            "value": 0.5590551181102362
          },
          {
            "number": 2,
            "time": 95.55749999999921,
            "value": 0.5590551181102362
          },
          {
            "number": 2,
            "time": 95.55812499999921,
            "value": 0.5511811023622047
          },
          {
            "number": 2,
            "time": 95.55874999999921,
            "value": 0.5511811023622047
          },
          {
            "number": 2,
            "time": 95.5593749999992,
            "value": 0.5511811023622047
          },
          {
            "number": 2,
            "time": 95.5599999999992,
            "value": 0.5511811023622047
          },
          {
            "number": 2,
            "time": 95.5606249999992,
            "value": 0.5511811023622047
          },
          {
            "number": 2,
            "time": 95.5612499999992,
            "value": 0.5433070866141733
          },
          {
            "number": 2,
            "time": 95.5618749999992,
            "value": 0.5433070866141733
          },
          {
            "number": 2,
            "time": 95.5624999999992,
            "value": 0.5433070866141733
          },
          {
            "number": 2,
            "time": 95.5631249999992,
            "value": 0.5433070866141733
          },
          {
            "number": 2,
            "time": 95.5637499999992,
            "value": 0.5433070866141733
          },
          {
            "number": 2,
            "time": 95.5643749999992,
            "value": 0.5354330708661418
          },
          {
            "number": 2,
            "time": 95.5649999999992,
            "value": 0.5354330708661418
          },
          {
            "number": 2,
            "time": 95.5656249999992,
            "value": 0.5354330708661418
          },
          {
            "number": 2,
            "time": 95.5662499999992,
            "value": 0.5354330708661418
          },
          {
            "number": 2,
            "time": 95.5668749999992,
            "value": 0.5275590551181102
          },
          {
            "number": 2,
            "time": 95.5674999999992,
            "value": 0.5275590551181102
          },
          {
            "number": 2,
            "time": 95.5681249999992,
            "value": 0.5275590551181102
          },
          {
            "number": 2,
            "time": 95.5687499999992,
            "value": 0.5275590551181102
          },
          {
            "number": 2,
            "time": 95.5693749999992,
            "value": 0.5275590551181102
          },
          {
            "number": 2,
            "time": 95.5699999999992,
            "value": 0.5196850393700787
          },
          {
            "number": 2,
            "time": 95.5706249999992,
            "value": 0.5196850393700787
          },
          {
            "number": 2,
            "time": 95.5712499999992,
            "value": 0.5196850393700787
          },
          {
            "number": 2,
            "time": 95.5718749999992,
            "value": 0.5196850393700787
          },
          {
            "number": 2,
            "time": 95.5724999999992,
            "value": 0.5196850393700787
          },
          {
            "number": 2,
            "time": 95.5731249999992,
            "value": 0.5118110236220472
          },
          {
            "number": 2,
            "time": 95.5737499999992,
            "value": 0.5118110236220472
          },
          {
            "number": 2,
            "time": 95.5743749999992,
            "value": 0.5118110236220472
          },
          {
            "number": 2,
            "time": 95.57499999999919,
            "value": 0.5118110236220472
          },
          {
            "number": 2,
            "time": 95.57562499999919,
            "value": 0.5118110236220472
          },
          {
            "number": 2,
            "time": 95.57624999999919,
            "value": 0.5039370078740157
          },
          {
            "number": 2,
            "time": 95.57687499999919,
            "value": 0.5039370078740157
          },
          {
            "number": 2,
            "time": 95.57749999999919,
            "value": 0.5039370078740157
          },
          {
            "number": 2,
            "time": 95.57812499999919,
            "value": 0.5039370078740157
          },
          {
            "number": 2,
            "time": 95.57874999999919,
            "value": 0.5039370078740157
          },
          {
            "number": 2,
            "time": 95.57937499999919,
            "value": 0.49606299212598426
          },
          {
            "number": 2,
            "time": 95.57999999999919,
            "value": 0.49606299212598426
          },
          {
            "number": 2,
            "time": 95.58062499999919,
            "value": 0.49606299212598426
          },
          {
            "number": 2,
            "time": 95.58124999999919,
            "value": 0.49606299212598426
          },
          {
            "number": 2,
            "time": 95.58187499999919,
            "value": 0.49606299212598426
          },
          {
            "number": 2,
            "time": 95.58249999999919,
            "value": 0.4881889763779528
          },
          {
            "number": 2,
            "time": 95.58312499999919,
            "value": 0.4881889763779528
          },
          {
            "number": 2,
            "time": 95.58374999999918,
            "value": 0.4881889763779528
          },
          {
            "number": 2,
            "time": 95.58437499999918,
            "value": 0.4881889763779528
          },
          {
            "number": 2,
            "time": 95.58499999999918,
            "value": 0.4881889763779528
          },
          {
            "number": 2,
            "time": 95.58562499999918,
            "value": 0.48031496062992124
          },
          {
            "number": 2,
            "time": 95.58624999999918,
            "value": 0.48031496062992124
          },
          {
            "number": 2,
            "time": 95.58687499999918,
            "value": 0.48031496062992124
          },
          {
            "number": 2,
            "time": 95.58749999999918,
            "value": 0.48031496062992124
          },
          {
            "number": 2,
            "time": 95.58812499999918,
            "value": 0.48031496062992124
          },
          {
            "number": 2,
            "time": 95.58874999999918,
            "value": 0.47244094488188976
          },
          {
            "number": 2,
            "time": 95.58937499999918,
            "value": 0.47244094488188976
          },
          {
            "number": 2,
            "time": 95.58999999999918,
            "value": 0.47244094488188976
          },
          {
            "number": 2,
            "time": 95.59062499999918,
            "value": 0.47244094488188976
          },
          {
            "number": 2,
            "time": 95.59124999999918,
            "value": 0.47244094488188976
          },
          {
            "number": 2,
            "time": 95.59187499999918,
            "value": 0.4645669291338583
          },
          {
            "number": 2,
            "time": 95.59249999999918,
            "value": 0.4645669291338583
          },
          {
            "number": 2,
            "time": 95.59312499999918,
            "value": 0.4645669291338583
          },
          {
            "number": 2,
            "time": 95.59374999999918,
            "value": 0.4645669291338583
          },
          {
            "number": 2,
            "time": 95.59437499999918,
            "value": 0.4645669291338583
          },
          {
            "number": 2,
            "time": 95.59499999999917,
            "value": 0.4566929133858268
          },
          {
            "number": 2,
            "time": 95.59562499999917,
            "value": 0.4566929133858268
          },
          {
            "number": 2,
            "time": 95.59624999999917,
            "value": 0.4566929133858268
          },
          {
            "number": 2,
            "time": 95.59687499999917,
            "value": 0.4566929133858268
          },
          {
            "number": 2,
            "time": 95.59749999999917,
            "value": 0.44881889763779526
          },
          {
            "number": 2,
            "time": 95.59812499999917,
            "value": 0.44881889763779526
          },
          {
            "number": 2,
            "time": 95.59874999999917,
            "value": 0.44881889763779526
          },
          {
            "number": 2,
            "time": 95.59937499999917,
            "value": 0.44881889763779526
          },
          {
            "number": 2,
            "time": 95.59999999999917,
            "value": 0.44881889763779526
          },
          {
            "number": 2,
            "time": 95.60062499999917,
            "value": 0.4409448818897638
          },
          {
            "number": 2,
            "time": 95.60124999999917,
            "value": 0.4409448818897638
          },
          {
            "number": 2,
            "time": 95.60187499999917,
            "value": 0.4409448818897638
          },
          {
            "number": 2,
            "time": 95.60249999999917,
            "value": 0.4409448818897638
          },
          {
            "number": 2,
            "time": 95.60312499999917,
            "value": 0.4409448818897638
          },
          {
            "number": 2,
            "time": 95.60374999999917,
            "value": 0.4330708661417323
          },
          {
            "number": 2,
            "time": 95.60437499999917,
            "value": 0.4330708661417323
          },
          {
            "number": 2,
            "time": 95.60499999999917,
            "value": 0.4330708661417323
          },
          {
            "number": 2,
            "time": 95.60562499999916,
            "value": 0.4330708661417323
          },
          {
            "number": 2,
            "time": 95.60624999999916,
            "value": 0.4330708661417323
          },
          {
            "number": 2,
            "time": 95.60687499999916,
            "value": 0.4251968503937008
          },
          {
            "number": 2,
            "time": 95.60749999999916,
            "value": 0.4251968503937008
          },
          {
            "number": 2,
            "time": 95.60812499999916,
            "value": 0.4251968503937008
          },
          {
            "number": 2,
            "time": 95.60874999999916,
            "value": 0.4251968503937008
          },
          {
            "number": 2,
            "time": 95.60937499999916,
            "value": 0.4251968503937008
          },
          {
            "number": 2,
            "time": 95.60999999999916,
            "value": 0.41732283464566927
          },
          {
            "number": 2,
            "time": 95.61062499999916,
            "value": 0.41732283464566927
          },
          {
            "number": 2,
            "time": 95.61124999999916,
            "value": 0.41732283464566927
          },
          {
            "number": 2,
            "time": 95.61187499999916,
            "value": 0.41732283464566927
          },
          {
            "number": 2,
            "time": 95.61249999999916,
            "value": 0.41732283464566927
          },
          {
            "number": 2,
            "time": 95.61312499999916,
            "value": 0.4094488188976378
          },
          {
            "number": 2,
            "time": 95.61374999999916,
            "value": 0.4094488188976378
          },
          {
            "number": 2,
            "time": 95.61437499999916,
            "value": 0.4094488188976378
          },
          {
            "number": 2,
            "time": 95.61499999999916,
            "value": 0.4094488188976378
          },
          {
            "number": 2,
            "time": 95.61562499999916,
            "value": 0.4094488188976378
          },
          {
            "number": 2,
            "time": 95.61624999999916,
            "value": 0.4015748031496063
          },
          {
            "number": 2,
            "time": 95.61687499999915,
            "value": 0.4015748031496063
          },
          {
            "number": 2,
            "time": 95.61749999999915,
            "value": 0.4015748031496063
          },
          {
            "number": 2,
            "time": 95.61812499999915,
            "value": 0.4015748031496063
          },
          {
            "number": 2,
            "time": 95.61874999999915,
            "value": 0.4015748031496063
          },
          {
            "number": 2,
            "time": 95.61937499999915,
            "value": 0.3937007874015748
          },
          {
            "number": 2,
            "time": 95.61999999999915,
            "value": 0.3937007874015748
          },
          {
            "number": 2,
            "time": 95.62062499999915,
            "value": 0.3937007874015748
          },
          {
            "number": 2,
            "time": 95.62124999999915,
            "value": 0.3937007874015748
          },
          {
            "number": 2,
            "time": 95.62187499999915,
            "value": 0.3937007874015748
          },
          {
            "number": 2,
            "time": 95.62249999999915,
            "value": 0.3858267716535433
          },
          {
            "number": 2,
            "time": 95.62312499999915,
            "value": 0.3858267716535433
          },
          {
            "number": 2,
            "time": 95.62374999999915,
            "value": 0.3858267716535433
          },
          {
            "number": 2,
            "time": 95.62437499999915,
            "value": 0.3858267716535433
          },
          {
            "number": 2,
            "time": 95.84999999999914,
            "value": 0.3858267716535433
          },
          {
            "number": 2,
            "time": 96.14999999999914,
            "value": 0.3858267716535433
          },
          {
            "number": 2,
            "time": 96.29999999999914,
            "value": 0.3858267716535433
          },
          {
            "number": 2,
            "time": 96.59999999999914,
            "value": 0.3858267716535433
          },
          {
            "number": 2,
            "time": 96.74999999999915,
            "value": 0.3858267716535433
          },
          {
            "number": 2,
            "time": 97.79999999999914,
            "value": 0.3858267716535433
          },
          {
            "number": 2,
            "time": 97.94999999999915,
            "value": 0.3858267716535433
          },
          {
            "number": 2,
            "time": 98.09999999999916,
            "value": 0.3858267716535433
          },
          {
            "number": 2,
            "time": 98.24999999999916,
            "value": 0.3858267716535433
          },
          {
            "number": 2,
            "time": 98.39999999999917,
            "value": 0.3858267716535433
          },
          {
            "number": 2,
            "time": 98.54999999999917,
            "value": 0.3858267716535433
          },
          {
            "number": 2,
            "time": 98.84999999999917,
            "value": 0.3858267716535433
          },
          {
            "number": 2,
            "time": 99.29999999999917,
            "value": 0.3858267716535433
          },
          {
            "number": 2,
            "time": 99.59999999999917,
            "value": 0.3858267716535433
          },
          {
            "number": 2,
            "time": 100.79999999999917,
            "value": 0.3858267716535433
          },
          {
            "number": 2,
            "time": 100.94999999999918,
            "value": 0.3858267716535433
          },
          {
            "number": 2,
            "time": 101.09999999999918,
            "value": 0.3858267716535433
          },
          {
            "number": 2,
            "time": 101.24999999999919,
            "value": 0.3858267716535433
          },
          {
            "number": 2,
            "time": 101.3999999999992,
            "value": 0.3858267716535433
          },
          {
            "number": 2,
            "time": 101.4749999999992,
            "value": 0.3858267716535433
          },
          {
            "number": 2,
            "time": 101.54999999999919,
            "value": 0.3858267716535433
          },
          {
            "number": 2,
            "time": 101.69999999999919,
            "value": 0.3858267716535433
          },
          {
            "number": 2,
            "time": 101.8499999999992,
            "value": 0.3858267716535433
          },
          {
            "number": 2,
            "time": 101.9999999999992,
            "value": 0.3858267716535433
          },
          {
            "number": 2,
            "time": 102.14999999999921,
            "value": 0.3858267716535433
          },
          {
            "number": 2,
            "time": 102.29999999999922,
            "value": 0.3858267716535433
          },
          {
            "number": 2,
            "time": 102.37499999999922,
            "value": 0.3858267716535433
          },
          {
            "number": 2,
            "time": 102.4499999999992,
            "value": 0.3858267716535433
          },
          {
            "number": 2,
            "time": 102.59999999999921,
            "value": 0.3858267716535433
          },
          {
            "number": 2,
            "time": 102.74999999999922,
            "value": 0.3858267716535433
          },
          {
            "number": 2,
            "time": 102.89999999999922,
            "value": 0.3858267716535433
          },
          {
            "number": 2,
            "time": 103.04999999999923,
            "value": 0.3858267716535433
          },
          {
            "number": 2,
            "time": 103.19999999999924,
            "value": 0.3858267716535433
          },
          {
            "number": 2,
            "time": 103.27499999999924,
            "value": 0.3858267716535433
          },
          {
            "number": 2,
            "time": 103.34999999999923,
            "value": 0.3858267716535433
          },
          {
            "number": 2,
            "time": 103.49999999999923,
            "value": 0.3858267716535433
          },
          {
            "number": 2,
            "time": 104.39999999999924,
            "value": 0.3858267716535433
          },
          {
            "number": 2,
            "time": 105.29999999999924,
            "value": 0.3858267716535433
          }
        ],
        "7": [
          {
            "number": 7,
            "time": 0,
            "value": 0.7874015748031497
          },
          {
            "number": 7,
            "time": 0,
            "value": 0.7874015748031497
          },
          {
            "number": 7,
            "time": 0,
            "value": 0.7874015748031497
          }
        ],
        "10": [
          {
            "number": 10,
            "time": 0,
            "value": 0.5039370078740157
          },
          {
            "number": 10,
            "time": 0,
            "value": 0.5039370078740157
          },
          {
            "number": 10,
            "time": 0,
            "value": 0.5039370078740157
          }
        ],
        "91": [
          {
            "number": 91,
            "time": 0,
            "value": 0
          },
          {
            "number": 91,
            "time": 0,
            "value": 0
          },
          {
            "number": 91,
            "time": 0,
            "value": 0
          }
        ],
        "93": [
          {
            "number": 93,
            "time": 0,
            "value": 0
          },
          {
            "number": 93,
            "time": 0,
            "value": 0
          },
          {
            "number": 93,
            "time": 0,
            "value": 0
          }
        ],
        "121": [
          {
            "number": 121,
            "time": 0,
            "value": 0
          },
          {
            "number": 121,
            "time": 0,
            "value": 0
          },
          {
            "number": 121,
            "time": 0,
            "value": 0
          }
        ]
      },
      "id": 2,
      "name": "Viola",
      "instrumentNumber": 44,
      "instrument": "tremolo strings",
      "instrumentFamily": "strings",
      "channelNumber": 5,
      "isPercussion": false
    },
    {
      "startTime": 9,
      "duration": 106.19937499999943,
      "length": 283,
      "notes": [
        {
          "name": "E3",
          "midi": 52,
          "time": 9,
          "velocity": 0.4566929133858268,
          "duration": 0.09937500000000021
        },
        {
          "name": "F3",
          "midi": 53,
          "time": 10.2,
          "velocity": 0.4566929133858268,
          "duration": 0.09937499999993094
        },
        {
          "name": "E3",
          "midi": 52,
          "time": 10.34999999999993,
          "velocity": 0.4566929133858268,
          "duration": 0.09937499999993094
        },
        {
          "name": "D3",
          "midi": 50,
          "time": 10.499999999999861,
          "velocity": 0.3858267716535433,
          "duration": 0.14937499999999915
        },
        {
          "name": "D2",
          "midi": 38,
          "time": 11.999999999999861,
          "velocity": 0.5039370078740157,
          "duration": 0.14937499999999915
        },
        {
          "name": "A2",
          "midi": 45,
          "time": 12.14999999999986,
          "velocity": 0.5118110236220472,
          "duration": 0.14937499999999915
        },
        {
          "name": "E2",
          "midi": 40,
          "time": 12.299999999999859,
          "velocity": 0.5275590551181102,
          "duration": 0.14937499999999915
        },
        {
          "name": "F2",
          "midi": 41,
          "time": 12.449999999999857,
          "velocity": 0.5354330708661418,
          "duration": 0.14937500000000092
        },
        {
          "name": "G2",
          "midi": 43,
          "time": 12.599999999999858,
          "velocity": 0.5511811023622047,
          "duration": 0.14937500000000092
        },
        {
          "name": "D2",
          "midi": 38,
          "time": 12.749999999999858,
          "velocity": 0.5669291338582677,
          "duration": 0.14937499999999915
        },
        {
          "name": "E2",
          "midi": 40,
          "time": 12.899999999999856,
          "velocity": 0.5748031496062992,
          "duration": 0.14937499999999915
        },
        {
          "name": "F2",
          "midi": 41,
          "time": 13.049999999999855,
          "velocity": 0.5905511811023622,
          "duration": 0.14937499999999915
        },
        {
          "name": "C3",
          "midi": 48,
          "time": 13.199999999999854,
          "velocity": 0.5984251968503937,
          "duration": 0.14937500000000092
        },
        {
          "name": "D3",
          "midi": 50,
          "time": 13.349999999999854,
          "velocity": 0.6141732283464567,
          "duration": 0.14937500000000092
        },
        {
          "name": "E3",
          "midi": 52,
          "time": 13.499999999999854,
          "velocity": 0.6299212598425197,
          "duration": 0.2993749999999995
        },
        {
          "name": "E3",
          "midi": 52,
          "time": 14.249999999999854,
          "velocity": 0.6299212598425197,
          "duration": 0.14937499999999915
        },
        {
          "name": "E3",
          "midi": 52,
          "time": 14.999999999999854,
          "velocity": 0.6299212598425197,
          "duration": 0.14937499999999915
        },
        {
          "name": "E3",
          "midi": 52,
          "time": 15.749999999999854,
          "velocity": 0.6299212598425197,
          "duration": 0.14937499999999915
        },
        {
          "name": "F3",
          "midi": 53,
          "time": 16.499999999999854,
          "velocity": 0.6299212598425197,
          "duration": 0.14937499999999915
        },
        {
          "name": "F3",
          "midi": 53,
          "time": 17.249999999999854,
          "velocity": 0.6299212598425197,
          "duration": 0.14937499999999915
        },
        {
          "name": "A3",
          "midi": 57,
          "time": 17.999999999999854,
          "velocity": 0.6299212598425197,
          "duration": 0.14937499999999915
        },
        {
          "name": "A3",
          "midi": 57,
          "time": 18.749999999999854,
          "velocity": 0.6299212598425197,
          "duration": 0.14937499999999915
        },
        {
          "name": "D4",
          "midi": 62,
          "time": 19.499999999999854,
          "velocity": 0.6299212598425197,
          "duration": 0.14937499999999915
        },
        {
          "name": "D4",
          "midi": 62,
          "time": 20.249999999999854,
          "velocity": 0.6299212598425197,
          "duration": 0.14937499999999915
        },
        {
          "name": "A#3",
          "midi": 58,
          "time": 22.499999999999854,
          "velocity": 0.6299212598425197,
          "duration": 0.14937499999999915
        },
        {
          "name": "A#3",
          "midi": 58,
          "time": 23.249999999999854,
          "velocity": 0.6299212598425197,
          "duration": 0.14937499999999915
        },
        {
          "name": "A#3",
          "midi": 58,
          "time": 23.999999999999854,
          "velocity": 0.6299212598425197,
          "duration": 0.14937499999999915
        },
        {
          "name": "A#3",
          "midi": 58,
          "time": 24.749999999999854,
          "velocity": 0.6299212598425197,
          "duration": 0.14937499999999915
        },
        {
          "name": "C#3",
          "midi": 49,
          "time": 25.649999999999853,
          "velocity": 0.9448818897637795,
          "duration": 0.14937499999993165
        },
        {
          "name": "E3",
          "midi": 52,
          "time": 25.799999999999784,
          "velocity": 0.6299212598425197,
          "duration": 0.14937499999999915
        },
        {
          "name": "G3",
          "midi": 55,
          "time": 25.949999999999783,
          "velocity": 0.6299212598425197,
          "duration": 0.14937499999999915
        },
        {
          "name": "A#3",
          "midi": 58,
          "time": 26.09999999999978,
          "velocity": 0.6299212598425197,
          "duration": 0.14937499999999915
        },
        {
          "name": "C#3",
          "midi": 49,
          "time": 26.54999999999978,
          "velocity": 0.9448818897637795,
          "duration": 0.14937499999993165
        },
        {
          "name": "E3",
          "midi": 52,
          "time": 26.69999999999971,
          "velocity": 0.6299212598425197,
          "duration": 0.14937499999999915
        },
        {
          "name": "G3",
          "midi": 55,
          "time": 26.84999999999971,
          "velocity": 0.6299212598425197,
          "duration": 0.14937499999999915
        },
        {
          "name": "A#3",
          "midi": 58,
          "time": 26.99999999999971,
          "velocity": 0.6299212598425197,
          "duration": 0.14937499999999915
        },
        {
          "name": "C4",
          "midi": 60,
          "time": 27.149999999999707,
          "velocity": 0.6299212598425197,
          "duration": 0.14937499999999915
        },
        {
          "name": "A#3",
          "midi": 58,
          "time": 27.299999999999706,
          "velocity": 0.6299212598425197,
          "duration": 0.14937499999999915
        },
        {
          "name": "A2",
          "midi": 45,
          "time": 27.449999999999704,
          "velocity": 0.9448818897637795,
          "duration": 0.14937499999993165
        },
        {
          "name": "C#3",
          "midi": 49,
          "time": 27.599999999999635,
          "velocity": 0.6299212598425197,
          "duration": 0.14937499999999915
        },
        {
          "name": "E3",
          "midi": 52,
          "time": 27.749999999999634,
          "velocity": 0.6299212598425197,
          "duration": 0.14937499999999915
        },
        {
          "name": "G3",
          "midi": 55,
          "time": 27.899999999999633,
          "velocity": 0.6299212598425197,
          "duration": 0.14937499999999915
        },
        {
          "name": "A2",
          "midi": 45,
          "time": 28.349999999999632,
          "velocity": 0.9448818897637795,
          "duration": 0.14937499999993165
        },
        {
          "name": "C#3",
          "midi": 49,
          "time": 28.499999999999563,
          "velocity": 0.6299212598425197,
          "duration": 0.14937499999999915
        },
        {
          "name": "E3",
          "midi": 52,
          "time": 28.64999999999956,
          "velocity": 0.6299212598425197,
          "duration": 0.14937499999999915
        },
        {
          "name": "G3",
          "midi": 55,
          "time": 28.79999999999956,
          "velocity": 0.6299212598425197,
          "duration": 0.14937499999999915
        },
        {
          "name": "E3",
          "midi": 52,
          "time": 28.94999999999956,
          "velocity": 0.6299212598425197,
          "duration": 0.14937499999999915
        },
        {
          "name": "G2",
          "midi": 43,
          "time": 29.099999999999557,
          "velocity": 0.6299212598425197,
          "duration": 0.14937499999999915
        },
        {
          "name": "F2",
          "midi": 41,
          "time": 29.249999999999556,
          "velocity": 0.9448818897637795,
          "duration": 0.14937499999993165
        },
        {
          "name": "A2",
          "midi": 45,
          "time": 29.399999999999487,
          "velocity": 0.6299212598425197,
          "duration": 0.14937499999999915
        },
        {
          "name": "D3",
          "midi": 50,
          "time": 29.549999999999486,
          "velocity": 0.6299212598425197,
          "duration": 0.14937499999999915
        },
        {
          "name": "F3",
          "midi": 53,
          "time": 29.699999999999484,
          "velocity": 0.6299212598425197,
          "duration": 0.14937499999999915
        },
        {
          "name": "F2",
          "midi": 41,
          "time": 30.149999999999483,
          "velocity": 0.9448818897637795,
          "duration": 0.14937499999993165
        },
        {
          "name": "A2",
          "midi": 45,
          "time": 30.299999999999415,
          "velocity": 0.6299212598425197,
          "duration": 0.14937499999999915
        },
        {
          "name": "D3",
          "midi": 50,
          "time": 30.449999999999413,
          "velocity": 0.6299212598425197,
          "duration": 0.14937499999999915
        },
        {
          "name": "F3",
          "midi": 53,
          "time": 30.59999999999941,
          "velocity": 0.6299212598425197,
          "duration": 0.14937499999999915
        },
        {
          "name": "G3",
          "midi": 55,
          "time": 30.74999999999941,
          "velocity": 0.6299212598425197,
          "duration": 0.14937499999999915
        },
        {
          "name": "A3",
          "midi": 57,
          "time": 30.89999999999941,
          "velocity": 0.6299212598425197,
          "duration": 0.14937499999999915
        },
        {
          "name": "A2",
          "midi": 45,
          "time": 31.049999999999407,
          "velocity": 0.9448818897637795,
          "duration": 0.14937499999993165
        },
        {
          "name": "C#3",
          "midi": 49,
          "time": 31.19999999999934,
          "velocity": 0.6299212598425197,
          "duration": 0.14937499999999915
        },
        {
          "name": "E3",
          "midi": 52,
          "time": 31.349999999999337,
          "velocity": 0.6299212598425197,
          "duration": 0.14937499999999915
        },
        {
          "name": "G3",
          "midi": 55,
          "time": 31.499999999999336,
          "velocity": 0.6299212598425197,
          "duration": 0.14937499999999915
        },
        {
          "name": "A3",
          "midi": 57,
          "time": 31.649999999999334,
          "velocity": 0.6299212598425197,
          "duration": 0.14937499999999915
        },
        {
          "name": "G3",
          "midi": 55,
          "time": 31.799999999999333,
          "velocity": 0.6299212598425197,
          "duration": 0.14937499999999915
        },
        {
          "name": "E3",
          "midi": 52,
          "time": 31.94999999999933,
          "velocity": 0.9448818897637795,
          "duration": 0.14937499999993875
        },
        {
          "name": "A2",
          "midi": 45,
          "time": 32.39999999999927,
          "velocity": 0.9448818897637795,
          "duration": 0.1493749999999352
        },
        {
          "name": "D3",
          "midi": 50,
          "time": 38.249999999999204,
          "velocity": 0.6299212598425197,
          "duration": 0.8993749999999991
        },
        {
          "name": "D3",
          "midi": 50,
          "time": 39.1499999999992,
          "velocity": 0.9448818897637795,
          "duration": 0.2993749999999338
        },
        {
          "name": "G2",
          "midi": 43,
          "time": 39.449999999999136,
          "velocity": 0.6299212598425197,
          "duration": 0.14937499999999915
        },
        {
          "name": "A2",
          "midi": 45,
          "time": 39.599999999999135,
          "velocity": 0.9448818897637795,
          "duration": 0.2993749999999338
        },
        {
          "name": "E2",
          "midi": 40,
          "time": 39.89999999999907,
          "velocity": 0.6299212598425197,
          "duration": 0.14937499999999915
        },
        {
          "name": "D2",
          "midi": 38,
          "time": 40.049999999999066,
          "velocity": 0.6299212598425197,
          "duration": 0.8993749999999991
        },
        {
          "name": "G2",
          "midi": 43,
          "time": 40.949999999999065,
          "velocity": 0.6299212598425197,
          "duration": 0.4493750000000034
        },
        {
          "name": "A2",
          "midi": 45,
          "time": 41.39999999999907,
          "velocity": 0.6299212598425197,
          "duration": 0.4493750000000034
        },
        {
          "name": "G2",
          "midi": 43,
          "time": 41.84999999999907,
          "velocity": 0.6299212598425197,
          "duration": 0.8993749999999991
        },
        {
          "name": "G2",
          "midi": 43,
          "time": 42.74999999999907,
          "velocity": 0.6299212598425197,
          "duration": 0.4493750000000034
        },
        {
          "name": "A2",
          "midi": 45,
          "time": 43.19999999999907,
          "velocity": 0.6299212598425197,
          "duration": 0.4493750000000034
        },
        {
          "name": "C3",
          "midi": 48,
          "time": 43.649999999999075,
          "velocity": 0.6299212598425197,
          "duration": 0.4493750000000034
        },
        {
          "name": "D3",
          "midi": 50,
          "time": 44.09999999999908,
          "velocity": 0.6299212598425197,
          "duration": 0.4493750000000034
        },
        {
          "name": "F3",
          "midi": 53,
          "time": 44.54999999999908,
          "velocity": 0.6299212598425197,
          "duration": 0.4493750000000034
        },
        {
          "name": "E3",
          "midi": 52,
          "time": 44.99999999999908,
          "velocity": 0.6299212598425197,
          "duration": 0.4493750000000034
        },
        {
          "name": "E3",
          "midi": 52,
          "time": 45.449999999999086,
          "velocity": 0.9448818897637795,
          "duration": 0.1493749999999352
        },
        {
          "name": "E3",
          "midi": 52,
          "time": 45.59999999999902,
          "velocity": 0.6299212598425197,
          "duration": 0.14937499999999915
        },
        {
          "name": "E3",
          "midi": 52,
          "time": 45.74999999999902,
          "velocity": 0.6299212598425197,
          "duration": 0.14937499999999915
        },
        {
          "name": "F3",
          "midi": 53,
          "time": 45.89999999999902,
          "velocity": 0.9448818897637795,
          "duration": 0.1493749999999352
        },
        {
          "name": "F3",
          "midi": 53,
          "time": 46.04999999999895,
          "velocity": 0.6299212598425197,
          "duration": 0.14937499999999915
        },
        {
          "name": "F3",
          "midi": 53,
          "time": 46.19999999999895,
          "velocity": 0.6299212598425197,
          "duration": 0.14937499999999915
        },
        {
          "name": "G3",
          "midi": 55,
          "time": 46.34999999999895,
          "velocity": 0.9448818897637795,
          "duration": 0.1493749999999352
        },
        {
          "name": "G3",
          "midi": 55,
          "time": 46.499999999998884,
          "velocity": 0.6299212598425197,
          "duration": 0.14937499999999915
        },
        {
          "name": "G3",
          "midi": 55,
          "time": 46.64999999999888,
          "velocity": 0.6299212598425197,
          "duration": 0.14937499999999915
        },
        {
          "name": "A3",
          "midi": 57,
          "time": 46.79999999999888,
          "velocity": 0.9448818897637795,
          "duration": 0.1493749999999352
        },
        {
          "name": "A3",
          "midi": 57,
          "time": 46.949999999998816,
          "velocity": 0.6299212598425197,
          "duration": 0.14937499999999915
        },
        {
          "name": "A3",
          "midi": 57,
          "time": 47.099999999998815,
          "velocity": 0.6299212598425197,
          "duration": 0.14937499999999915
        },
        {
          "name": "A3",
          "midi": 57,
          "time": 47.24999999999881,
          "velocity": 0.6299212598425197,
          "duration": 1.7993749999999977
        },
        {
          "name": "G3",
          "midi": 55,
          "time": 49.04999999999881,
          "velocity": 0.6299212598425197,
          "duration": 1.7993749999999977
        },
        {
          "name": "A#3",
          "midi": 58,
          "time": 50.84999999999881,
          "velocity": 0.6299212598425197,
          "duration": 0.8993749999999991
        },
        {
          "name": "C4",
          "midi": 60,
          "time": 51.749999999998806,
          "velocity": 0.6299212598425197,
          "duration": 0.8993749999999991
        },
        {
          "name": "A3",
          "midi": 57,
          "time": 52.649999999998805,
          "velocity": 0.6299212598425197,
          "duration": 0.4493750000000034
        },
        {
          "name": "A3",
          "midi": 57,
          "time": 53.09999999999881,
          "velocity": 0.6299212598425197,
          "duration": 0.4493750000000034
        },
        {
          "name": "F3",
          "midi": 53,
          "time": 53.54999999999881,
          "velocity": 0.9448818897637795,
          "duration": 0.2993749999999338
        },
        {
          "name": "F3",
          "midi": 53,
          "time": 53.849999999998744,
          "velocity": 0.6299212598425197,
          "duration": 0.14937499999999915
        },
        {
          "name": "E3",
          "midi": 52,
          "time": 53.99999999999874,
          "velocity": 0.9448818897637795,
          "duration": 0.2993749999999338
        },
        {
          "name": "E3",
          "midi": 52,
          "time": 54.299999999998676,
          "velocity": 0.6299212598425197,
          "duration": 0.14937499999999915
        },
        {
          "name": "D3",
          "midi": 50,
          "time": 54.449999999998674,
          "velocity": 0.6299212598425197,
          "duration": 1.349375000000002
        },
        {
          "name": "F3",
          "midi": 53,
          "time": 55.799999999998676,
          "velocity": 0.9448818897637795,
          "duration": 0.44937499999993236
        },
        {
          "name": "D3",
          "midi": 50,
          "time": 56.24999999999861,
          "velocity": 0.6299212598425197,
          "duration": 1.7993749999999977
        },
        {
          "name": "F3",
          "midi": 53,
          "time": 58.49999999999861,
          "velocity": 0.6299212598425197,
          "duration": 0.4493750000000034
        },
        {
          "name": "G3",
          "midi": 55,
          "time": 58.94999999999861,
          "velocity": 0.6299212598425197,
          "duration": 0.4493750000000034
        },
        {
          "name": "A3",
          "midi": 57,
          "time": 59.39999999999861,
          "velocity": 0.6299212598425197,
          "duration": 0.4493750000000034
        },
        {
          "name": "D4",
          "midi": 62,
          "time": 59.849999999998616,
          "velocity": 0.6299212598425197,
          "duration": 0.4493750000000034
        },
        {
          "name": "E4",
          "midi": 64,
          "time": 60.29999999999862,
          "velocity": 0.6299212598425197,
          "duration": 0.4493750000000034
        },
        {
          "name": "D4",
          "midi": 62,
          "time": 60.74999999999862,
          "velocity": 0.9448818897637795,
          "duration": 0.299374999999948
        },
        {
          "name": "D4",
          "midi": 62,
          "time": 61.04999999999857,
          "velocity": 0.5511811023622047,
          "duration": 0.14937500000000625
        },
        {
          "name": "A3",
          "midi": 57,
          "time": 61.199999999998575,
          "velocity": 0.7637795275590551,
          "duration": 0.299374999999948
        },
        {
          "name": "A3",
          "midi": 57,
          "time": 61.49999999999852,
          "velocity": 0.4330708661417323,
          "duration": 0.14937500000001336
        },
        {
          "name": "D3",
          "midi": 50,
          "time": 68.84999999999853,
          "velocity": 0.3858267716535433,
          "duration": 0.8993750000000063
        },
        {
          "name": "E3",
          "midi": 52,
          "time": 69.74999999999854,
          "velocity": 0.3858267716535433,
          "duration": 0.4493750000000034
        },
        {
          "name": "F3",
          "midi": 53,
          "time": 70.19999999999854,
          "velocity": 0.3858267716535433,
          "duration": 0.4493750000000034
        },
        {
          "name": "G3",
          "midi": 55,
          "time": 70.64999999999854,
          "velocity": 0.3858267716535433,
          "duration": 0.7493750000000006
        },
        {
          "name": "F3",
          "midi": 53,
          "time": 71.39999999999854,
          "velocity": 0.3858267716535433,
          "duration": 0.07437500000000341
        },
        {
          "name": "E3",
          "midi": 52,
          "time": 71.47499999999854,
          "velocity": 0.3858267716535433,
          "duration": 0.07437500000000341
        },
        {
          "name": "D3",
          "midi": 50,
          "time": 71.54999999999855,
          "velocity": 0.3858267716535433,
          "duration": 0.4493750000000034
        },
        {
          "name": "C#3",
          "midi": 49,
          "time": 71.99999999999855,
          "velocity": 0.3858267716535433,
          "duration": 0.4493750000000034
        },
        {
          "name": "A#2",
          "midi": 46,
          "time": 72.44999999999855,
          "velocity": 0.3858267716535433,
          "duration": 0.4493750000000034
        },
        {
          "name": "A2",
          "midi": 45,
          "time": 72.89999999999856,
          "velocity": 0.3858267716535433,
          "duration": 0.4493750000000034
        },
        {
          "name": "C#3",
          "midi": 49,
          "time": 73.34999999999856,
          "velocity": 0.3858267716535433,
          "duration": 0.4493750000000034
        },
        {
          "name": "E3",
          "midi": 52,
          "time": 73.79999999999856,
          "velocity": 0.3858267716535433,
          "duration": 0.4493750000000034
        },
        {
          "name": "D3",
          "midi": 50,
          "time": 74.24999999999856,
          "velocity": 0.3858267716535433,
          "duration": 0.8993750000000063
        },
        {
          "name": "F3",
          "midi": 53,
          "time": 75.14999999999857,
          "velocity": 0.3858267716535433,
          "duration": 0.14937500000000625
        },
        {
          "name": "E3",
          "midi": 52,
          "time": 75.59999999999857,
          "velocity": 0.3858267716535433,
          "duration": 0.14937500000000625
        },
        {
          "name": "D3",
          "midi": 50,
          "time": 76.04999999999858,
          "velocity": 0.3858267716535433,
          "duration": 0.14937500000000625
        },
        {
          "name": "A3",
          "midi": 57,
          "time": 76.19999999999858,
          "velocity": 0.3858267716535433,
          "duration": 0.14937500000000625
        },
        {
          "name": "E3",
          "midi": 52,
          "time": 76.34999999999859,
          "velocity": 0.3858267716535433,
          "duration": 0.14937500000000625
        },
        {
          "name": "F3",
          "midi": 53,
          "time": 76.4999999999986,
          "velocity": 0.3858267716535433,
          "duration": 0.14937500000000625
        },
        {
          "name": "G3",
          "midi": 55,
          "time": 76.6499999999986,
          "velocity": 0.3858267716535433,
          "duration": 0.14937500000000625
        },
        {
          "name": "D3",
          "midi": 50,
          "time": 76.7999999999986,
          "velocity": 0.3858267716535433,
          "duration": 0.14937500000000625
        },
        {
          "name": "A3",
          "midi": 57,
          "time": 76.94999999999861,
          "velocity": 0.3858267716535433,
          "duration": 0.14937500000000625
        },
        {
          "name": "E3",
          "midi": 52,
          "time": 77.09999999999862,
          "velocity": 0.3858267716535433,
          "duration": 0.14937500000000625
        },
        {
          "name": "F3",
          "midi": 53,
          "time": 77.24999999999862,
          "velocity": 0.3858267716535433,
          "duration": 0.14937500000000625
        },
        {
          "name": "G3",
          "midi": 55,
          "time": 77.39999999999863,
          "velocity": 0.3858267716535433,
          "duration": 0.14937500000000625
        },
        {
          "name": "D3",
          "midi": 50,
          "time": 77.54999999999863,
          "velocity": 0.3858267716535433,
          "duration": 0.14937500000000625
        },
        {
          "name": "A3",
          "midi": 57,
          "time": 77.69999999999864,
          "velocity": 0.3858267716535433,
          "duration": 0.14937500000000625
        },
        {
          "name": "E3",
          "midi": 52,
          "time": 77.84999999999864,
          "velocity": 0.3858267716535433,
          "duration": 0.14937500000000625
        },
        {
          "name": "F3",
          "midi": 53,
          "time": 77.99999999999865,
          "velocity": 0.3858267716535433,
          "duration": 0.14937500000000625
        },
        {
          "name": "G3",
          "midi": 55,
          "time": 78.14999999999866,
          "velocity": 0.3858267716535433,
          "duration": 0.14937500000000625
        },
        {
          "name": "D3",
          "midi": 50,
          "time": 78.29999999999866,
          "velocity": 0.3858267716535433,
          "duration": 0.14937500000000625
        },
        {
          "name": "A3",
          "midi": 57,
          "time": 78.44999999999867,
          "velocity": 0.3858267716535433,
          "duration": 0.14937500000000625
        },
        {
          "name": "E3",
          "midi": 52,
          "time": 78.59999999999867,
          "velocity": 0.3858267716535433,
          "duration": 0.14937500000000625
        },
        {
          "name": "F3",
          "midi": 53,
          "time": 78.74999999999868,
          "velocity": 0.3858267716535433,
          "duration": 0.14937500000000625
        },
        {
          "name": "G3",
          "midi": 55,
          "time": 78.89999999999868,
          "velocity": 0.3858267716535433,
          "duration": 0.14937500000000625
        },
        {
          "name": "D3",
          "midi": 50,
          "time": 79.04999999999869,
          "velocity": 0.3858267716535433,
          "duration": 0.14937500000000625
        },
        {
          "name": "A3",
          "midi": 57,
          "time": 79.1999999999987,
          "velocity": 0.3858267716535433,
          "duration": 0.14937500000000625
        },
        {
          "name": "E3",
          "midi": 52,
          "time": 79.3499999999987,
          "velocity": 0.3858267716535433,
          "duration": 0.14937500000000625
        },
        {
          "name": "F3",
          "midi": 53,
          "time": 79.4999999999987,
          "velocity": 0.3858267716535433,
          "duration": 0.14937500000000625
        },
        {
          "name": "G3",
          "midi": 55,
          "time": 79.64999999999871,
          "velocity": 0.3858267716535433,
          "duration": 0.14937500000000625
        },
        {
          "name": "D3",
          "midi": 50,
          "time": 79.79999999999872,
          "velocity": 0.3858267716535433,
          "duration": 0.14937500000000625
        },
        {
          "name": "A3",
          "midi": 57,
          "time": 79.94999999999872,
          "velocity": 0.3858267716535433,
          "duration": 0.14937500000000625
        },
        {
          "name": "E3",
          "midi": 52,
          "time": 80.09999999999873,
          "velocity": 0.3858267716535433,
          "duration": 0.14937500000000625
        },
        {
          "name": "F3",
          "midi": 53,
          "time": 80.24999999999874,
          "velocity": 0.3858267716535433,
          "duration": 0.14937500000000625
        },
        {
          "name": "G3",
          "midi": 55,
          "time": 80.39999999999874,
          "velocity": 0.3858267716535433,
          "duration": 0.14937500000000625
        },
        {
          "name": "D3",
          "midi": 50,
          "time": 80.54999999999875,
          "velocity": 0.3858267716535433,
          "duration": 0.14937500000000625
        },
        {
          "name": "A3",
          "midi": 57,
          "time": 80.69999999999875,
          "velocity": 0.3858267716535433,
          "duration": 0.14937500000000625
        },
        {
          "name": "E3",
          "midi": 52,
          "time": 80.84999999999876,
          "velocity": 0.3858267716535433,
          "duration": 0.14937500000000625
        },
        {
          "name": "F3",
          "midi": 53,
          "time": 80.99999999999876,
          "velocity": 0.3858267716535433,
          "duration": 0.14937500000000625
        },
        {
          "name": "G3",
          "midi": 55,
          "time": 81.14999999999877,
          "velocity": 0.3858267716535433,
          "duration": 0.14937500000000625
        },
        {
          "name": "D3",
          "midi": 50,
          "time": 81.29999999999878,
          "velocity": 0.3858267716535433,
          "duration": 0.14937500000000625
        },
        {
          "name": "A3",
          "midi": 57,
          "time": 81.44999999999878,
          "velocity": 0.3858267716535433,
          "duration": 0.14937500000000625
        },
        {
          "name": "E3",
          "midi": 52,
          "time": 81.59999999999879,
          "velocity": 0.3858267716535433,
          "duration": 0.14937500000000625
        },
        {
          "name": "F3",
          "midi": 53,
          "time": 81.74999999999879,
          "velocity": 0.3858267716535433,
          "duration": 0.14937500000000625
        },
        {
          "name": "G3",
          "midi": 55,
          "time": 81.8999999999988,
          "velocity": 0.3858267716535433,
          "duration": 0.14937500000000625
        },
        {
          "name": "D3",
          "midi": 50,
          "time": 82.0499999999988,
          "velocity": 0.3858267716535433,
          "duration": 0.14937500000000625
        },
        {
          "name": "A3",
          "midi": 57,
          "time": 82.19999999999881,
          "velocity": 0.3858267716535433,
          "duration": 0.14937500000000625
        },
        {
          "name": "E3",
          "midi": 52,
          "time": 82.34999999999881,
          "velocity": 0.3858267716535433,
          "duration": 0.14937500000000625
        },
        {
          "name": "F3",
          "midi": 53,
          "time": 82.49999999999882,
          "velocity": 0.3858267716535433,
          "duration": 0.14937500000000625
        },
        {
          "name": "G3",
          "midi": 55,
          "time": 82.64999999999883,
          "velocity": 0.3858267716535433,
          "duration": 0.14937500000000625
        },
        {
          "name": "D3",
          "midi": 50,
          "time": 82.79999999999883,
          "velocity": 0.3858267716535433,
          "duration": 0.14937500000000625
        },
        {
          "name": "A3",
          "midi": 57,
          "time": 82.94999999999884,
          "velocity": 0.3858267716535433,
          "duration": 0.14937500000000625
        },
        {
          "name": "E3",
          "midi": 52,
          "time": 83.09999999999884,
          "velocity": 0.3858267716535433,
          "duration": 0.14937500000000625
        },
        {
          "name": "F3",
          "midi": 53,
          "time": 83.24999999999885,
          "velocity": 0.3858267716535433,
          "duration": 0.14937500000000625
        },
        {
          "name": "G3",
          "midi": 55,
          "time": 83.39999999999885,
          "velocity": 0.3858267716535433,
          "duration": 0.14937500000000625
        },
        {
          "name": "D3",
          "midi": 50,
          "time": 83.54999999999886,
          "velocity": 0.3858267716535433,
          "duration": 0.14937500000000625
        },
        {
          "name": "A3",
          "midi": 57,
          "time": 83.69999999999887,
          "velocity": 0.3858267716535433,
          "duration": 0.14937500000000625
        },
        {
          "name": "E3",
          "midi": 52,
          "time": 83.84999999999887,
          "velocity": 0.3858267716535433,
          "duration": 0.14937500000000625
        },
        {
          "name": "F3",
          "midi": 53,
          "time": 83.99999999999888,
          "velocity": 0.3858267716535433,
          "duration": 0.14937500000000625
        },
        {
          "name": "G3",
          "midi": 55,
          "time": 84.14999999999888,
          "velocity": 0.3858267716535433,
          "duration": 0.14937500000000625
        },
        {
          "name": "D3",
          "midi": 50,
          "time": 84.29999999999889,
          "velocity": 0.3858267716535433,
          "duration": 0.14937500000000625
        },
        {
          "name": "A3",
          "midi": 57,
          "time": 84.4499999999989,
          "velocity": 0.3858267716535433,
          "duration": 0.14937500000000625
        },
        {
          "name": "E3",
          "midi": 52,
          "time": 84.5999999999989,
          "velocity": 0.3858267716535433,
          "duration": 0.14937500000000625
        },
        {
          "name": "F3",
          "midi": 53,
          "time": 84.7499999999989,
          "velocity": 0.3858267716535433,
          "duration": 0.14937500000000625
        },
        {
          "name": "G3",
          "midi": 55,
          "time": 84.89999999999891,
          "velocity": 0.3858267716535433,
          "duration": 0.14937500000000625
        },
        {
          "name": "A3",
          "midi": 57,
          "time": 85.04999999999892,
          "velocity": 0.3858267716535433,
          "duration": 0.14937500000000625
        },
        {
          "name": "E3",
          "midi": 52,
          "time": 85.19999999999892,
          "velocity": 0.3858267716535433,
          "duration": 0.14937500000000625
        },
        {
          "name": "G3",
          "midi": 55,
          "time": 85.34999999999893,
          "velocity": 0.3858267716535433,
          "duration": 0.14937500000000625
        },
        {
          "name": "F3",
          "midi": 53,
          "time": 85.49999999999893,
          "velocity": 0.3858267716535433,
          "duration": 0.14937500000000625
        },
        {
          "name": "E3",
          "midi": 52,
          "time": 85.64999999999894,
          "velocity": 0.3858267716535433,
          "duration": 0.14937500000000625
        },
        {
          "name": "A3",
          "midi": 57,
          "time": 85.79999999999895,
          "velocity": 0.3858267716535433,
          "duration": 0.14937500000000625
        },
        {
          "name": "E3",
          "midi": 52,
          "time": 85.94999999999895,
          "velocity": 0.3858267716535433,
          "duration": 0.14937500000000625
        },
        {
          "name": "G3",
          "midi": 55,
          "time": 86.09999999999896,
          "velocity": 0.3858267716535433,
          "duration": 0.14937500000000625
        },
        {
          "name": "F3",
          "midi": 53,
          "time": 86.24999999999896,
          "velocity": 0.3858267716535433,
          "duration": 0.14937500000000625
        },
        {
          "name": "E3",
          "midi": 52,
          "time": 86.39999999999897,
          "velocity": 0.3858267716535433,
          "duration": 0.14937500000000625
        },
        {
          "name": "D3",
          "midi": 50,
          "time": 86.54999999999897,
          "velocity": 0.3858267716535433,
          "duration": 0.14937500000000625
        },
        {
          "name": "A3",
          "midi": 57,
          "time": 86.69999999999898,
          "velocity": 0.3858267716535433,
          "duration": 0.14937500000000625
        },
        {
          "name": "E3",
          "midi": 52,
          "time": 86.84999999999899,
          "velocity": 0.3858267716535433,
          "duration": 0.14937500000000625
        },
        {
          "name": "F3",
          "midi": 53,
          "time": 86.99999999999899,
          "velocity": 0.3858267716535433,
          "duration": 0.14937500000000625
        },
        {
          "name": "G3",
          "midi": 55,
          "time": 87.149999999999,
          "velocity": 0.3858267716535433,
          "duration": 0.14937500000000625
        },
        {
          "name": "D3",
          "midi": 50,
          "time": 87.299999999999,
          "velocity": 0.3858267716535433,
          "duration": 0.14937500000000625
        },
        {
          "name": "A3",
          "midi": 57,
          "time": 87.44999999999901,
          "velocity": 0.3858267716535433,
          "duration": 0.14937500000000625
        },
        {
          "name": "E3",
          "midi": 52,
          "time": 87.59999999999901,
          "velocity": 0.3858267716535433,
          "duration": 0.14937500000000625
        },
        {
          "name": "F3",
          "midi": 53,
          "time": 87.74999999999902,
          "velocity": 0.3858267716535433,
          "duration": 0.14937500000000625
        },
        {
          "name": "G3",
          "midi": 55,
          "time": 87.89999999999903,
          "velocity": 0.3858267716535433,
          "duration": 0.14937500000000625
        },
        {
          "name": "D3",
          "midi": 50,
          "time": 88.04999999999903,
          "velocity": 0.3858267716535433,
          "duration": 0.14937500000000625
        },
        {
          "name": "A3",
          "midi": 57,
          "time": 88.19999999999904,
          "velocity": 0.3858267716535433,
          "duration": 0.14937500000000625
        },
        {
          "name": "E3",
          "midi": 52,
          "time": 88.34999999999904,
          "velocity": 0.3858267716535433,
          "duration": 0.14937500000000625
        },
        {
          "name": "F3",
          "midi": 53,
          "time": 88.49999999999905,
          "velocity": 0.3858267716535433,
          "duration": 0.14937500000000625
        },
        {
          "name": "G3",
          "midi": 55,
          "time": 88.64999999999905,
          "velocity": 0.3858267716535433,
          "duration": 0.14937500000000625
        },
        {
          "name": "D3",
          "midi": 50,
          "time": 88.79999999999906,
          "velocity": 0.3858267716535433,
          "duration": 0.14937500000000625
        },
        {
          "name": "E3",
          "midi": 52,
          "time": 88.94999999999906,
          "velocity": 0.3858267716535433,
          "duration": 0.14937500000000625
        },
        {
          "name": "F3",
          "midi": 53,
          "time": 89.09999999999907,
          "velocity": 0.3858267716535433,
          "duration": 0.14937500000000625
        },
        {
          "name": "C4",
          "midi": 60,
          "time": 89.24999999999908,
          "velocity": 0.3858267716535433,
          "duration": 0.14937500000000625
        },
        {
          "name": "D4",
          "midi": 62,
          "time": 89.39999999999908,
          "velocity": 0.3858267716535433,
          "duration": 0.14937500000000625
        },
        {
          "name": "C4",
          "midi": 60,
          "time": 89.54999999999909,
          "velocity": 0.3858267716535433,
          "duration": 0.14937500000000625
        },
        {
          "name": "A#3",
          "midi": 58,
          "time": 89.6999999999991,
          "velocity": 0.3858267716535433,
          "duration": 0.14937500000000625
        },
        {
          "name": "E3",
          "midi": 52,
          "time": 89.8499999999991,
          "velocity": 0.3858267716535433,
          "duration": 0.14937500000000625
        },
        {
          "name": "F3",
          "midi": 53,
          "time": 89.9999999999991,
          "velocity": 0.3858267716535433,
          "duration": 0.14937500000000625
        },
        {
          "name": "G3",
          "midi": 55,
          "time": 90.14999999999911,
          "velocity": 0.3858267716535433,
          "duration": 0.14937500000000625
        },
        {
          "name": "A3",
          "midi": 57,
          "time": 90.29999999999912,
          "velocity": 0.3858267716535433,
          "duration": 0.14937500000000625
        },
        {
          "name": "A#3",
          "midi": 58,
          "time": 90.44999999999912,
          "velocity": 0.3858267716535433,
          "duration": 0.14937500000000625
        },
        {
          "name": "E3",
          "midi": 52,
          "time": 90.59999999999913,
          "velocity": 0.3858267716535433,
          "duration": 0.14937500000000625
        },
        {
          "name": "F3",
          "midi": 53,
          "time": 90.74999999999913,
          "velocity": 0.3858267716535433,
          "duration": 0.14937500000000625
        },
        {
          "name": "G3",
          "midi": 55,
          "time": 90.89999999999914,
          "velocity": 0.3858267716535433,
          "duration": 0.14937500000000625
        },
        {
          "name": "A3",
          "midi": 57,
          "time": 91.04999999999914,
          "velocity": 0.3858267716535433,
          "duration": 0.14937500000000625
        },
        {
          "name": "A#3",
          "midi": 58,
          "time": 91.19999999999915,
          "velocity": 0.3858267716535433,
          "duration": 0.14937500000000625
        },
        {
          "name": "E3",
          "midi": 52,
          "time": 91.34999999999916,
          "velocity": 0.3858267716535433,
          "duration": 0.14937500000000625
        },
        {
          "name": "F3",
          "midi": 53,
          "time": 91.49999999999916,
          "velocity": 0.3858267716535433,
          "duration": 0.14937500000000625
        },
        {
          "name": "G3",
          "midi": 55,
          "time": 91.64999999999917,
          "velocity": 0.3858267716535433,
          "duration": 0.14937500000000625
        },
        {
          "name": "A3",
          "midi": 57,
          "time": 91.79999999999917,
          "velocity": 0.3858267716535433,
          "duration": 0.14937500000000625
        },
        {
          "name": "A#3",
          "midi": 58,
          "time": 91.94999999999918,
          "velocity": 0.3858267716535433,
          "duration": 0.14937500000000625
        },
        {
          "name": "E3",
          "midi": 52,
          "time": 92.09999999999918,
          "velocity": 0.3858267716535433,
          "duration": 0.14937500000000625
        },
        {
          "name": "F3",
          "midi": 53,
          "time": 92.24999999999919,
          "velocity": 0.3858267716535433,
          "duration": 0.14937500000000625
        },
        {
          "name": "G3",
          "midi": 55,
          "time": 92.3999999999992,
          "velocity": 0.3858267716535433,
          "duration": 0.14937500000000625
        },
        {
          "name": "A#3",
          "midi": 58,
          "time": 92.5499999999992,
          "velocity": 0.3858267716535433,
          "duration": 0.14937500000000625
        },
        {
          "name": "C4",
          "midi": 60,
          "time": 92.6999999999992,
          "velocity": 0.3858267716535433,
          "duration": 0.14937500000000625
        },
        {
          "name": "E3",
          "midi": 52,
          "time": 92.84999999999921,
          "velocity": 0.3858267716535433,
          "duration": 0.14937500000000625
        },
        {
          "name": "F3",
          "midi": 53,
          "time": 92.99999999999922,
          "velocity": 0.3858267716535433,
          "duration": 0.14937500000000625
        },
        {
          "name": "G3",
          "midi": 55,
          "time": 93.14999999999922,
          "velocity": 0.3858267716535433,
          "duration": 0.14937500000000625
        },
        {
          "name": "A#3",
          "midi": 58,
          "time": 93.29999999999923,
          "velocity": 0.3858267716535433,
          "duration": 0.14937500000000625
        },
        {
          "name": "C4",
          "midi": 60,
          "time": 93.44999999999924,
          "velocity": 0.3858267716535433,
          "duration": 0.14937500000000625
        },
        {
          "name": "E3",
          "midi": 52,
          "time": 93.59999999999924,
          "velocity": 0.3858267716535433,
          "duration": 0.14937500000000625
        },
        {
          "name": "F3",
          "midi": 53,
          "time": 93.74999999999925,
          "velocity": 0.3858267716535433,
          "duration": 0.14937500000000625
        },
        {
          "name": "G3",
          "midi": 55,
          "time": 93.89999999999925,
          "velocity": 0.3858267716535433,
          "duration": 0.14937500000000625
        },
        {
          "name": "A#3",
          "midi": 58,
          "time": 94.04999999999926,
          "velocity": 0.3858267716535433,
          "duration": 0.14937500000000625
        },
        {
          "name": "C4",
          "midi": 60,
          "time": 94.19999999999926,
          "velocity": 0.3858267716535433,
          "duration": 0.14937500000000625
        },
        {
          "name": "E3",
          "midi": 52,
          "time": 94.34999999999927,
          "velocity": 0.3858267716535433,
          "duration": 0.14937500000000625
        },
        {
          "name": "F3",
          "midi": 53,
          "time": 94.49999999999928,
          "velocity": 0.3858267716535433,
          "duration": 0.14937500000000625
        },
        {
          "name": "G3",
          "midi": 55,
          "time": 94.64999999999928,
          "velocity": 0.3858267716535433,
          "duration": 0.14937500000000625
        },
        {
          "name": "A3",
          "midi": 57,
          "time": 94.79999999999929,
          "velocity": 0.3858267716535433,
          "duration": 0.14937500000000625
        },
        {
          "name": "C4",
          "midi": 60,
          "time": 94.94999999999929,
          "velocity": 0.3858267716535433,
          "duration": 0.14937500000000625
        },
        {
          "name": "E3",
          "midi": 52,
          "time": 95.0999999999993,
          "velocity": 0.3858267716535433,
          "duration": 0.14937500000000625
        },
        {
          "name": "F3",
          "midi": 53,
          "time": 95.2499999999993,
          "velocity": 0.3858267716535433,
          "duration": 0.14937500000000625
        },
        {
          "name": "G3",
          "midi": 55,
          "time": 95.39999999999931,
          "velocity": 0.3858267716535433,
          "duration": 0.14937500000000625
        },
        {
          "name": "A3",
          "midi": 57,
          "time": 95.54999999999932,
          "velocity": 0.3858267716535433,
          "duration": 0.14937500000000625
        },
        {
          "name": "D4",
          "midi": 62,
          "time": 95.69999999999932,
          "velocity": 0.3858267716535433,
          "duration": 0.14937500000000625
        },
        {
          "name": "E3",
          "midi": 52,
          "time": 95.84999999999933,
          "velocity": 0.3858267716535433,
          "duration": 0.14937500000000625
        },
        {
          "name": "F3",
          "midi": 53,
          "time": 95.99999999999933,
          "velocity": 0.3858267716535433,
          "duration": 0.14937500000000625
        },
        {
          "name": "C4",
          "midi": 60,
          "time": 96.14999999999934,
          "velocity": 0.3858267716535433,
          "duration": 0.14937500000000625
        },
        {
          "name": "A3",
          "midi": 57,
          "time": 96.29999999999934,
          "velocity": 0.3858267716535433,
          "duration": 0.14937500000000625
        },
        {
          "name": "D4",
          "midi": 62,
          "time": 96.44999999999935,
          "velocity": 0.3858267716535433,
          "duration": 0.14937500000000625
        },
        {
          "name": "E3",
          "midi": 52,
          "time": 96.59999999999935,
          "velocity": 0.3858267716535433,
          "duration": 0.14937500000000625
        },
        {
          "name": "F3",
          "midi": 53,
          "time": 96.74999999999936,
          "velocity": 0.3858267716535433,
          "duration": 0.14937500000000625
        },
        {
          "name": "C4",
          "midi": 60,
          "time": 96.89999999999937,
          "velocity": 0.3858267716535433,
          "duration": 0.14937500000000625
        },
        {
          "name": "A3",
          "midi": 57,
          "time": 97.04999999999937,
          "velocity": 0.3858267716535433,
          "duration": 0.14937500000000625
        },
        {
          "name": "D4",
          "midi": 62,
          "time": 97.19999999999938,
          "velocity": 0.3858267716535433,
          "duration": 0.14937500000000625
        },
        {
          "name": "E3",
          "midi": 52,
          "time": 97.34999999999938,
          "velocity": 0.3858267716535433,
          "duration": 0.14937500000000625
        },
        {
          "name": "F3",
          "midi": 53,
          "time": 97.49999999999939,
          "velocity": 0.3858267716535433,
          "duration": 0.14937500000000625
        },
        {
          "name": "A3",
          "midi": 57,
          "time": 97.6499999999994,
          "velocity": 0.3858267716535433,
          "duration": 0.14937500000000625
        },
        {
          "name": "F3",
          "midi": 53,
          "time": 100.7999999999994,
          "velocity": 0.3858267716535433,
          "duration": 0.14937500000000625
        },
        {
          "name": "E3",
          "midi": 52,
          "time": 101.2499999999994,
          "velocity": 0.3858267716535433,
          "duration": 0.14937500000000625
        },
        {
          "name": "F3",
          "midi": 53,
          "time": 101.6999999999994,
          "velocity": 0.3858267716535433,
          "duration": 0.14937500000000625
        },
        {
          "name": "E3",
          "midi": 52,
          "time": 102.14999999999941,
          "velocity": 0.3858267716535433,
          "duration": 0.14937500000000625
        },
        {
          "name": "F3",
          "midi": 53,
          "time": 102.59999999999941,
          "velocity": 0.3858267716535433,
          "duration": 0.14937500000000625
        },
        {
          "name": "E3",
          "midi": 52,
          "time": 103.04999999999941,
          "velocity": 0.3858267716535433,
          "duration": 0.14937500000000625
        },
        {
          "name": "A2",
          "midi": 45,
          "time": 103.49999999999942,
          "velocity": 0.3858267716535433,
          "duration": 2.6993750000000176
        },
        {
          "name": "A3",
          "midi": 57,
          "time": 103.49999999999942,
          "velocity": 0.3858267716535433,
          "duration": 2.6993750000000176
        }
      ],
      "controlChanges": {
        "2": [
          {
            "number": 2,
            "time": 9,
            "value": 0.4566929133858268
          },
          {
            "number": 2,
            "time": 9.00625,
            "value": 0.44881889763779526
          },
          {
            "number": 2,
            "time": 9.014375,
            "value": 0.4409448818897638
          },
          {
            "number": 2,
            "time": 9.021875,
            "value": 0.4330708661417323
          },
          {
            "number": 2,
            "time": 9.029375,
            "value": 0.4251968503937008
          },
          {
            "number": 2,
            "time": 9.036875,
            "value": 0.41732283464566927
          },
          {
            "number": 2,
            "time": 9.045,
            "value": 0.4094488188976378
          },
          {
            "number": 2,
            "time": 9.0525,
            "value": 0.4015748031496063
          },
          {
            "number": 2,
            "time": 9.06,
            "value": 0.3937007874015748
          },
          {
            "number": 2,
            "time": 9.0675,
            "value": 0.3858267716535433
          },
          {
            "number": 2,
            "time": 10.2,
            "value": 0.4566929133858268
          },
          {
            "number": 2,
            "time": 10.200624999999999,
            "value": 0.4566929133858268
          },
          {
            "number": 2,
            "time": 10.201249999999998,
            "value": 0.4566929133858268
          },
          {
            "number": 2,
            "time": 10.201874999999998,
            "value": 0.4566929133858268
          },
          {
            "number": 2,
            "time": 10.202499999999997,
            "value": 0.4566929133858268
          },
          {
            "number": 2,
            "time": 10.203124999999996,
            "value": 0.4566929133858268
          },
          {
            "number": 2,
            "time": 10.203749999999996,
            "value": 0.4566929133858268
          },
          {
            "number": 2,
            "time": 10.204374999999995,
            "value": 0.4566929133858268
          },
          {
            "number": 2,
            "time": 10.204999999999995,
            "value": 0.4566929133858268
          },
          {
            "number": 2,
            "time": 10.205624999999994,
            "value": 0.4566929133858268
          },
          {
            "number": 2,
            "time": 10.206249999999994,
            "value": 0.44881889763779526
          },
          {
            "number": 2,
            "time": 10.206874999999993,
            "value": 0.44881889763779526
          },
          {
            "number": 2,
            "time": 10.207499999999992,
            "value": 0.44881889763779526
          },
          {
            "number": 2,
            "time": 10.208124999999992,
            "value": 0.44881889763779526
          },
          {
            "number": 2,
            "time": 10.208749999999991,
            "value": 0.44881889763779526
          },
          {
            "number": 2,
            "time": 10.20937499999999,
            "value": 0.44881889763779526
          },
          {
            "number": 2,
            "time": 10.20999999999999,
            "value": 0.44881889763779526
          },
          {
            "number": 2,
            "time": 10.21062499999999,
            "value": 0.44881889763779526
          },
          {
            "number": 2,
            "time": 10.211249999999989,
            "value": 0.44881889763779526
          },
          {
            "number": 2,
            "time": 10.211874999999988,
            "value": 0.44881889763779526
          },
          {
            "number": 2,
            "time": 10.212499999999988,
            "value": 0.44881889763779526
          },
          {
            "number": 2,
            "time": 10.213124999999987,
            "value": 0.44881889763779526
          },
          {
            "number": 2,
            "time": 10.213749999999987,
            "value": 0.44881889763779526
          },
          {
            "number": 2,
            "time": 10.214374999999986,
            "value": 0.4409448818897638
          },
          {
            "number": 2,
            "time": 10.214999999999986,
            "value": 0.4409448818897638
          },
          {
            "number": 2,
            "time": 10.215624999999985,
            "value": 0.4409448818897638
          },
          {
            "number": 2,
            "time": 10.216249999999985,
            "value": 0.4409448818897638
          },
          {
            "number": 2,
            "time": 10.216874999999984,
            "value": 0.4409448818897638
          },
          {
            "number": 2,
            "time": 10.217499999999983,
            "value": 0.4409448818897638
          },
          {
            "number": 2,
            "time": 10.218124999999983,
            "value": 0.4409448818897638
          },
          {
            "number": 2,
            "time": 10.218749999999982,
            "value": 0.4409448818897638
          },
          {
            "number": 2,
            "time": 10.219374999999982,
            "value": 0.4409448818897638
          },
          {
            "number": 2,
            "time": 10.219999999999981,
            "value": 0.4409448818897638
          },
          {
            "number": 2,
            "time": 10.22062499999998,
            "value": 0.4409448818897638
          },
          {
            "number": 2,
            "time": 10.22124999999998,
            "value": 0.4409448818897638
          },
          {
            "number": 2,
            "time": 10.22187499999998,
            "value": 0.4330708661417323
          },
          {
            "number": 2,
            "time": 10.222499999999979,
            "value": 0.4330708661417323
          },
          {
            "number": 2,
            "time": 10.223124999999978,
            "value": 0.4330708661417323
          },
          {
            "number": 2,
            "time": 10.223749999999978,
            "value": 0.4330708661417323
          },
          {
            "number": 2,
            "time": 10.224374999999977,
            "value": 0.4330708661417323
          },
          {
            "number": 2,
            "time": 10.224999999999977,
            "value": 0.4330708661417323
          },
          {
            "number": 2,
            "time": 10.225624999999976,
            "value": 0.4330708661417323
          },
          {
            "number": 2,
            "time": 10.226249999999975,
            "value": 0.4330708661417323
          },
          {
            "number": 2,
            "time": 10.226874999999975,
            "value": 0.4330708661417323
          },
          {
            "number": 2,
            "time": 10.227499999999974,
            "value": 0.4330708661417323
          },
          {
            "number": 2,
            "time": 10.228124999999974,
            "value": 0.4330708661417323
          },
          {
            "number": 2,
            "time": 10.228749999999973,
            "value": 0.4330708661417323
          },
          {
            "number": 2,
            "time": 10.229374999999973,
            "value": 0.4251968503937008
          },
          {
            "number": 2,
            "time": 10.229999999999972,
            "value": 0.4251968503937008
          },
          {
            "number": 2,
            "time": 10.230624999999971,
            "value": 0.4251968503937008
          },
          {
            "number": 2,
            "time": 10.23124999999997,
            "value": 0.4251968503937008
          },
          {
            "number": 2,
            "time": 10.23187499999997,
            "value": 0.4251968503937008
          },
          {
            "number": 2,
            "time": 10.23249999999997,
            "value": 0.4251968503937008
          },
          {
            "number": 2,
            "time": 10.23312499999997,
            "value": 0.4251968503937008
          },
          {
            "number": 2,
            "time": 10.233749999999969,
            "value": 0.4251968503937008
          },
          {
            "number": 2,
            "time": 10.234374999999968,
            "value": 0.4251968503937008
          },
          {
            "number": 2,
            "time": 10.234999999999967,
            "value": 0.4251968503937008
          },
          {
            "number": 2,
            "time": 10.235624999999967,
            "value": 0.4251968503937008
          },
          {
            "number": 2,
            "time": 10.236249999999966,
            "value": 0.4251968503937008
          },
          {
            "number": 2,
            "time": 10.236874999999966,
            "value": 0.41732283464566927
          },
          {
            "number": 2,
            "time": 10.237499999999965,
            "value": 0.41732283464566927
          },
          {
            "number": 2,
            "time": 10.238124999999965,
            "value": 0.41732283464566927
          },
          {
            "number": 2,
            "time": 10.238749999999964,
            "value": 0.41732283464566927
          },
          {
            "number": 2,
            "time": 10.239374999999963,
            "value": 0.41732283464566927
          },
          {
            "number": 2,
            "time": 10.239999999999963,
            "value": 0.41732283464566927
          },
          {
            "number": 2,
            "time": 10.240624999999962,
            "value": 0.41732283464566927
          },
          {
            "number": 2,
            "time": 10.241249999999962,
            "value": 0.41732283464566927
          },
          {
            "number": 2,
            "time": 10.241874999999961,
            "value": 0.41732283464566927
          },
          {
            "number": 2,
            "time": 10.24249999999996,
            "value": 0.41732283464566927
          },
          {
            "number": 2,
            "time": 10.24312499999996,
            "value": 0.41732283464566927
          },
          {
            "number": 2,
            "time": 10.24374999999996,
            "value": 0.41732283464566927
          },
          {
            "number": 2,
            "time": 10.244374999999959,
            "value": 0.41732283464566927
          },
          {
            "number": 2,
            "time": 10.244999999999958,
            "value": 0.4094488188976378
          },
          {
            "number": 2,
            "time": 10.245624999999958,
            "value": 0.4094488188976378
          },
          {
            "number": 2,
            "time": 10.246249999999957,
            "value": 0.4094488188976378
          },
          {
            "number": 2,
            "time": 10.246874999999957,
            "value": 0.4094488188976378
          },
          {
            "number": 2,
            "time": 10.247499999999956,
            "value": 0.4094488188976378
          },
          {
            "number": 2,
            "time": 10.248124999999956,
            "value": 0.4094488188976378
          },
          {
            "number": 2,
            "time": 10.248749999999955,
            "value": 0.4094488188976378
          },
          {
            "number": 2,
            "time": 10.249374999999954,
            "value": 0.4094488188976378
          },
          {
            "number": 2,
            "time": 10.249999999999954,
            "value": 0.4094488188976378
          },
          {
            "number": 2,
            "time": 10.250624999999953,
            "value": 0.4094488188976378
          },
          {
            "number": 2,
            "time": 10.251249999999953,
            "value": 0.4094488188976378
          },
          {
            "number": 2,
            "time": 10.251874999999952,
            "value": 0.4094488188976378
          },
          {
            "number": 2,
            "time": 10.252499999999952,
            "value": 0.4015748031496063
          },
          {
            "number": 2,
            "time": 10.253124999999951,
            "value": 0.4015748031496063
          },
          {
            "number": 2,
            "time": 10.25374999999995,
            "value": 0.4015748031496063
          },
          {
            "number": 2,
            "time": 10.25437499999995,
            "value": 0.4015748031496063
          },
          {
            "number": 2,
            "time": 10.25499999999995,
            "value": 0.4015748031496063
          },
          {
            "number": 2,
            "time": 10.255624999999949,
            "value": 0.4015748031496063
          },
          {
            "number": 2,
            "time": 10.256249999999948,
            "value": 0.4015748031496063
          },
          {
            "number": 2,
            "time": 10.256874999999948,
            "value": 0.4015748031496063
          },
          {
            "number": 2,
            "time": 10.257499999999947,
            "value": 0.4015748031496063
          },
          {
            "number": 2,
            "time": 10.258124999999946,
            "value": 0.4015748031496063
          },
          {
            "number": 2,
            "time": 10.258749999999946,
            "value": 0.4015748031496063
          },
          {
            "number": 2,
            "time": 10.259374999999945,
            "value": 0.4015748031496063
          },
          {
            "number": 2,
            "time": 10.259999999999945,
            "value": 0.3937007874015748
          },
          {
            "number": 2,
            "time": 10.260624999999944,
            "value": 0.3937007874015748
          },
          {
            "number": 2,
            "time": 10.261249999999944,
            "value": 0.3937007874015748
          },
          {
            "number": 2,
            "time": 10.261874999999943,
            "value": 0.3937007874015748
          },
          {
            "number": 2,
            "time": 10.262499999999942,
            "value": 0.3937007874015748
          },
          {
            "number": 2,
            "time": 10.263124999999942,
            "value": 0.3937007874015748
          },
          {
            "number": 2,
            "time": 10.263749999999941,
            "value": 0.3937007874015748
          },
          {
            "number": 2,
            "time": 10.26437499999994,
            "value": 0.3937007874015748
          },
          {
            "number": 2,
            "time": 10.26499999999994,
            "value": 0.3937007874015748
          },
          {
            "number": 2,
            "time": 10.26562499999994,
            "value": 0.3937007874015748
          },
          {
            "number": 2,
            "time": 10.266249999999939,
            "value": 0.3937007874015748
          },
          {
            "number": 2,
            "time": 10.266874999999938,
            "value": 0.3937007874015748
          },
          {
            "number": 2,
            "time": 10.267499999999938,
            "value": 0.3858267716535433
          },
          {
            "number": 2,
            "time": 10.268124999999937,
            "value": 0.3858267716535433
          },
          {
            "number": 2,
            "time": 10.268749999999937,
            "value": 0.3858267716535433
          },
          {
            "number": 2,
            "time": 10.269374999999936,
            "value": 0.3858267716535433
          },
          {
            "number": 2,
            "time": 10.269999999999936,
            "value": 0.3858267716535433
          },
          {
            "number": 2,
            "time": 10.270624999999935,
            "value": 0.3858267716535433
          },
          {
            "number": 2,
            "time": 10.271249999999934,
            "value": 0.3858267716535433
          },
          {
            "number": 2,
            "time": 10.271874999999934,
            "value": 0.3858267716535433
          },
          {
            "number": 2,
            "time": 10.272499999999933,
            "value": 0.3858267716535433
          },
          {
            "number": 2,
            "time": 10.273124999999933,
            "value": 0.3858267716535433
          },
          {
            "number": 2,
            "time": 10.273749999999932,
            "value": 0.3858267716535433
          },
          {
            "number": 2,
            "time": 10.274374999999932,
            "value": 0.3858267716535433
          },
          {
            "number": 2,
            "time": 10.274999999999931,
            "value": 0.3858267716535433
          },
          {
            "number": 2,
            "time": 10.34999999999993,
            "value": 0.4566929133858268
          },
          {
            "number": 2,
            "time": 10.35062499999993,
            "value": 0.4566929133858268
          },
          {
            "number": 2,
            "time": 10.35124999999993,
            "value": 0.4566929133858268
          },
          {
            "number": 2,
            "time": 10.351874999999929,
            "value": 0.4566929133858268
          },
          {
            "number": 2,
            "time": 10.352499999999928,
            "value": 0.4566929133858268
          },
          {
            "number": 2,
            "time": 10.353124999999928,
            "value": 0.4566929133858268
          },
          {
            "number": 2,
            "time": 10.353749999999927,
            "value": 0.4566929133858268
          },
          {
            "number": 2,
            "time": 10.354374999999926,
            "value": 0.4566929133858268
          },
          {
            "number": 2,
            "time": 10.354999999999926,
            "value": 0.4566929133858268
          },
          {
            "number": 2,
            "time": 10.355624999999925,
            "value": 0.4566929133858268
          },
          {
            "number": 2,
            "time": 10.356249999999925,
            "value": 0.44881889763779526
          },
          {
            "number": 2,
            "time": 10.356874999999924,
            "value": 0.44881889763779526
          },
          {
            "number": 2,
            "time": 10.357499999999924,
            "value": 0.44881889763779526
          },
          {
            "number": 2,
            "time": 10.358124999999923,
            "value": 0.44881889763779526
          },
          {
            "number": 2,
            "time": 10.358749999999922,
            "value": 0.44881889763779526
          },
          {
            "number": 2,
            "time": 10.359374999999922,
            "value": 0.44881889763779526
          },
          {
            "number": 2,
            "time": 10.359999999999921,
            "value": 0.44881889763779526
          },
          {
            "number": 2,
            "time": 10.36062499999992,
            "value": 0.44881889763779526
          },
          {
            "number": 2,
            "time": 10.36124999999992,
            "value": 0.44881889763779526
          },
          {
            "number": 2,
            "time": 10.36187499999992,
            "value": 0.44881889763779526
          },
          {
            "number": 2,
            "time": 10.362499999999919,
            "value": 0.44881889763779526
          },
          {
            "number": 2,
            "time": 10.363124999999918,
            "value": 0.44881889763779526
          },
          {
            "number": 2,
            "time": 10.363749999999918,
            "value": 0.44881889763779526
          },
          {
            "number": 2,
            "time": 10.364374999999917,
            "value": 0.4409448818897638
          },
          {
            "number": 2,
            "time": 10.364999999999917,
            "value": 0.4409448818897638
          },
          {
            "number": 2,
            "time": 10.365624999999916,
            "value": 0.4409448818897638
          },
          {
            "number": 2,
            "time": 10.366249999999916,
            "value": 0.4409448818897638
          },
          {
            "number": 2,
            "time": 10.366874999999915,
            "value": 0.4409448818897638
          },
          {
            "number": 2,
            "time": 10.367499999999914,
            "value": 0.4409448818897638
          },
          {
            "number": 2,
            "time": 10.368124999999914,
            "value": 0.4409448818897638
          },
          {
            "number": 2,
            "time": 10.368749999999913,
            "value": 0.4409448818897638
          },
          {
            "number": 2,
            "time": 10.369374999999913,
            "value": 0.4409448818897638
          },
          {
            "number": 2,
            "time": 10.369999999999912,
            "value": 0.4409448818897638
          },
          {
            "number": 2,
            "time": 10.370624999999912,
            "value": 0.4409448818897638
          },
          {
            "number": 2,
            "time": 10.371249999999911,
            "value": 0.4409448818897638
          },
          {
            "number": 2,
            "time": 10.37187499999991,
            "value": 0.4330708661417323
          },
          {
            "number": 2,
            "time": 10.37249999999991,
            "value": 0.4330708661417323
          },
          {
            "number": 2,
            "time": 10.37312499999991,
            "value": 0.4330708661417323
          },
          {
            "number": 2,
            "time": 10.373749999999909,
            "value": 0.4330708661417323
          },
          {
            "number": 2,
            "time": 10.374374999999908,
            "value": 0.4330708661417323
          },
          {
            "number": 2,
            "time": 10.374999999999908,
            "value": 0.4330708661417323
          },
          {
            "number": 2,
            "time": 10.375624999999907,
            "value": 0.4330708661417323
          },
          {
            "number": 2,
            "time": 10.376249999999906,
            "value": 0.4330708661417323
          },
          {
            "number": 2,
            "time": 10.376874999999906,
            "value": 0.4330708661417323
          },
          {
            "number": 2,
            "time": 10.377499999999905,
            "value": 0.4330708661417323
          },
          {
            "number": 2,
            "time": 10.378124999999905,
            "value": 0.4330708661417323
          },
          {
            "number": 2,
            "time": 10.378749999999904,
            "value": 0.4330708661417323
          },
          {
            "number": 2,
            "time": 10.379374999999904,
            "value": 0.4251968503937008
          },
          {
            "number": 2,
            "time": 10.379999999999903,
            "value": 0.4251968503937008
          },
          {
            "number": 2,
            "time": 10.380624999999903,
            "value": 0.4251968503937008
          },
          {
            "number": 2,
            "time": 10.381249999999902,
            "value": 0.4251968503937008
          },
          {
            "number": 2,
            "time": 10.381874999999901,
            "value": 0.4251968503937008
          },
          {
            "number": 2,
            "time": 10.3824999999999,
            "value": 0.4251968503937008
          },
          {
            "number": 2,
            "time": 10.3831249999999,
            "value": 0.4251968503937008
          },
          {
            "number": 2,
            "time": 10.3837499999999,
            "value": 0.4251968503937008
          },
          {
            "number": 2,
            "time": 10.384374999999899,
            "value": 0.4251968503937008
          },
          {
            "number": 2,
            "time": 10.384999999999899,
            "value": 0.4251968503937008
          },
          {
            "number": 2,
            "time": 10.385624999999898,
            "value": 0.4251968503937008
          },
          {
            "number": 2,
            "time": 10.386249999999897,
            "value": 0.4251968503937008
          },
          {
            "number": 2,
            "time": 10.386874999999897,
            "value": 0.41732283464566927
          },
          {
            "number": 2,
            "time": 10.387499999999896,
            "value": 0.41732283464566927
          },
          {
            "number": 2,
            "time": 10.388124999999896,
            "value": 0.41732283464566927
          },
          {
            "number": 2,
            "time": 10.388749999999895,
            "value": 0.41732283464566927
          },
          {
            "number": 2,
            "time": 10.389374999999895,
            "value": 0.41732283464566927
          },
          {
            "number": 2,
            "time": 10.389999999999894,
            "value": 0.41732283464566927
          },
          {
            "number": 2,
            "time": 10.390624999999893,
            "value": 0.41732283464566927
          },
          {
            "number": 2,
            "time": 10.391249999999893,
            "value": 0.41732283464566927
          },
          {
            "number": 2,
            "time": 10.391874999999892,
            "value": 0.41732283464566927
          },
          {
            "number": 2,
            "time": 10.392499999999892,
            "value": 0.41732283464566927
          },
          {
            "number": 2,
            "time": 10.393124999999891,
            "value": 0.41732283464566927
          },
          {
            "number": 2,
            "time": 10.39374999999989,
            "value": 0.41732283464566927
          },
          {
            "number": 2,
            "time": 10.39437499999989,
            "value": 0.41732283464566927
          },
          {
            "number": 2,
            "time": 10.39499999999989,
            "value": 0.4094488188976378
          },
          {
            "number": 2,
            "time": 10.395624999999889,
            "value": 0.4094488188976378
          },
          {
            "number": 2,
            "time": 10.396249999999888,
            "value": 0.4094488188976378
          },
          {
            "number": 2,
            "time": 10.396874999999888,
            "value": 0.4094488188976378
          },
          {
            "number": 2,
            "time": 10.397499999999887,
            "value": 0.4094488188976378
          },
          {
            "number": 2,
            "time": 10.398124999999887,
            "value": 0.4094488188976378
          },
          {
            "number": 2,
            "time": 10.398749999999886,
            "value": 0.4094488188976378
          },
          {
            "number": 2,
            "time": 10.399374999999885,
            "value": 0.4094488188976378
          },
          {
            "number": 2,
            "time": 10.399999999999885,
            "value": 0.4094488188976378
          },
          {
            "number": 2,
            "time": 10.400624999999884,
            "value": 0.4094488188976378
          },
          {
            "number": 2,
            "time": 10.401249999999884,
            "value": 0.4094488188976378
          },
          {
            "number": 2,
            "time": 10.401874999999883,
            "value": 0.4094488188976378
          },
          {
            "number": 2,
            "time": 10.402499999999883,
            "value": 0.4015748031496063
          },
          {
            "number": 2,
            "time": 10.403124999999882,
            "value": 0.4015748031496063
          },
          {
            "number": 2,
            "time": 10.403749999999881,
            "value": 0.4015748031496063
          },
          {
            "number": 2,
            "time": 10.404374999999881,
            "value": 0.4015748031496063
          },
          {
            "number": 2,
            "time": 10.40499999999988,
            "value": 0.4015748031496063
          },
          {
            "number": 2,
            "time": 10.40562499999988,
            "value": 0.4015748031496063
          },
          {
            "number": 2,
            "time": 10.40624999999988,
            "value": 0.4015748031496063
          },
          {
            "number": 2,
            "time": 10.406874999999879,
            "value": 0.4015748031496063
          },
          {
            "number": 2,
            "time": 10.407499999999878,
            "value": 0.4015748031496063
          },
          {
            "number": 2,
            "time": 10.408124999999878,
            "value": 0.4015748031496063
          },
          {
            "number": 2,
            "time": 10.408749999999877,
            "value": 0.4015748031496063
          },
          {
            "number": 2,
            "time": 10.409374999999876,
            "value": 0.4015748031496063
          },
          {
            "number": 2,
            "time": 10.409999999999876,
            "value": 0.3937007874015748
          },
          {
            "number": 2,
            "time": 10.410624999999875,
            "value": 0.3937007874015748
          },
          {
            "number": 2,
            "time": 10.411249999999875,
            "value": 0.3937007874015748
          },
          {
            "number": 2,
            "time": 10.411874999999874,
            "value": 0.3937007874015748
          },
          {
            "number": 2,
            "time": 10.412499999999874,
            "value": 0.3937007874015748
          },
          {
            "number": 2,
            "time": 10.413124999999873,
            "value": 0.3937007874015748
          },
          {
            "number": 2,
            "time": 10.413749999999872,
            "value": 0.3937007874015748
          },
          {
            "number": 2,
            "time": 10.414374999999872,
            "value": 0.3937007874015748
          },
          {
            "number": 2,
            "time": 10.414999999999871,
            "value": 0.3937007874015748
          },
          {
            "number": 2,
            "time": 10.41562499999987,
            "value": 0.3937007874015748
          },
          {
            "number": 2,
            "time": 10.41624999999987,
            "value": 0.3937007874015748
          },
          {
            "number": 2,
            "time": 10.41687499999987,
            "value": 0.3937007874015748
          },
          {
            "number": 2,
            "time": 10.417499999999869,
            "value": 0.3858267716535433
          },
          {
            "number": 2,
            "time": 10.418124999999868,
            "value": 0.3858267716535433
          },
          {
            "number": 2,
            "time": 10.418749999999868,
            "value": 0.3858267716535433
          },
          {
            "number": 2,
            "time": 10.419374999999867,
            "value": 0.3858267716535433
          },
          {
            "number": 2,
            "time": 10.419999999999867,
            "value": 0.3858267716535433
          },
          {
            "number": 2,
            "time": 10.420624999999866,
            "value": 0.3858267716535433
          },
          {
            "number": 2,
            "time": 10.421249999999866,
            "value": 0.3858267716535433
          },
          {
            "number": 2,
            "time": 10.421874999999865,
            "value": 0.3858267716535433
          },
          {
            "number": 2,
            "time": 10.422499999999864,
            "value": 0.3858267716535433
          },
          {
            "number": 2,
            "time": 10.423124999999864,
            "value": 0.3858267716535433
          },
          {
            "number": 2,
            "time": 10.423749999999863,
            "value": 0.3858267716535433
          },
          {
            "number": 2,
            "time": 10.424374999999863,
            "value": 0.3858267716535433
          },
          {
            "number": 2,
            "time": 10.424999999999862,
            "value": 0.3858267716535433
          },
          {
            "number": 2,
            "time": 10.499999999999861,
            "value": 0.3858267716535433
          },
          {
            "number": 2,
            "time": 11.999999999999861,
            "value": 0.5039370078740157
          },
          {
            "number": 2,
            "time": 12.093749999999861,
            "value": 0.5118110236220472
          },
          {
            "number": 2,
            "time": 12.14999999999986,
            "value": 0.5118110236220472
          },
          {
            "number": 2,
            "time": 12.18749999999986,
            "value": 0.5196850393700787
          },
          {
            "number": 2,
            "time": 12.28124999999986,
            "value": 0.5275590551181102
          },
          {
            "number": 2,
            "time": 12.299999999999859,
            "value": 0.5275590551181102
          },
          {
            "number": 2,
            "time": 12.374999999999858,
            "value": 0.5354330708661418
          },
          {
            "number": 2,
            "time": 12.449999999999857,
            "value": 0.5354330708661418
          },
          {
            "number": 2,
            "time": 12.468749999999858,
            "value": 0.5433070866141733
          },
          {
            "number": 2,
            "time": 12.562499999999858,
            "value": 0.5511811023622047
          },
          {
            "number": 2,
            "time": 12.599999999999858,
            "value": 0.5511811023622047
          },
          {
            "number": 2,
            "time": 12.656249999999858,
            "value": 0.5590551181102362
          },
          {
            "number": 2,
            "time": 12.749999999999858,
            "value": 0.5669291338582677
          },
          {
            "number": 2,
            "time": 12.843749999999858,
            "value": 0.5748031496062992
          },
          {
            "number": 2,
            "time": 12.899999999999856,
            "value": 0.5748031496062992
          },
          {
            "number": 2,
            "time": 12.937499999999856,
            "value": 0.5826771653543307
          },
          {
            "number": 2,
            "time": 13.031249999999856,
            "value": 0.5905511811023622
          },
          {
            "number": 2,
            "time": 13.049999999999855,
            "value": 0.5905511811023622
          },
          {
            "number": 2,
            "time": 13.124999999999854,
            "value": 0.5984251968503937
          },
          {
            "number": 2,
            "time": 13.199999999999854,
            "value": 0.5984251968503937
          },
          {
            "number": 2,
            "time": 13.218749999999854,
            "value": 0.6062992125984252
          },
          {
            "number": 2,
            "time": 13.312499999999854,
            "value": 0.6141732283464567
          },
          {
            "number": 2,
            "time": 13.349999999999854,
            "value": 0.6141732283464567
          },
          {
            "number": 2,
            "time": 13.406249999999854,
            "value": 0.6220472440944882
          },
          {
            "number": 2,
            "time": 13.499999999999854,
            "value": 0.6299212598425197
          },
          {
            "number": 2,
            "time": 14.249999999999854,
            "value": 0.6299212598425197
          },
          {
            "number": 2,
            "time": 14.999999999999854,
            "value": 0.6299212598425197
          },
          {
            "number": 2,
            "time": 15.749999999999854,
            "value": 0.6299212598425197
          },
          {
            "number": 2,
            "time": 16.499999999999854,
            "value": 0.6299212598425197
          },
          {
            "number": 2,
            "time": 17.249999999999854,
            "value": 0.6299212598425197
          },
          {
            "number": 2,
            "time": 17.999999999999854,
            "value": 0.6299212598425197
          },
          {
            "number": 2,
            "time": 18.749999999999854,
            "value": 0.6299212598425197
          },
          {
            "number": 2,
            "time": 19.499999999999854,
            "value": 0.6299212598425197
          },
          {
            "number": 2,
            "time": 20.249999999999854,
            "value": 0.6299212598425197
          },
          {
            "number": 2,
            "time": 22.499999999999854,
            "value": 0.6299212598425197
          },
          {
            "number": 2,
            "time": 23.249999999999854,
            "value": 0.6299212598425197
          },
          {
            "number": 2,
            "time": 23.999999999999854,
            "value": 0.6299212598425197
          },
          {
            "number": 2,
            "time": 24.749999999999854,
            "value": 0.6299212598425197
          },
          {
            "number": 2,
            "time": 25.649999999999853,
            "value": 0.9448818897637795
          },
          {
            "number": 2,
            "time": 25.650624999999852,
            "value": 0.937007874015748
          },
          {
            "number": 2,
            "time": 25.65249999999985,
            "value": 0.9291338582677166
          },
          {
            "number": 2,
            "time": 25.65437499999985,
            "value": 0.9212598425196851
          },
          {
            "number": 2,
            "time": 25.656249999999847,
            "value": 0.9133858267716536
          },
          {
            "number": 2,
            "time": 25.658124999999846,
            "value": 0.905511811023622
          },
          {
            "number": 2,
            "time": 25.659999999999844,
            "value": 0.8976377952755905
          },
          {
            "number": 2,
            "time": 25.661874999999842,
            "value": 0.889763779527559
          },
          {
            "number": 2,
            "time": 25.66374999999984,
            "value": 0.8818897637795275
          },
          {
            "number": 2,
            "time": 25.66562499999984,
            "value": 0.8740157480314961
          },
          {
            "number": 2,
            "time": 25.667499999999837,
            "value": 0.8661417322834646
          },
          {
            "number": 2,
            "time": 25.669374999999835,
            "value": 0.8582677165354331
          },
          {
            "number": 2,
            "time": 25.671249999999834,
            "value": 0.8503937007874016
          },
          {
            "number": 2,
            "time": 25.673124999999832,
            "value": 0.84251968503937
          },
          {
            "number": 2,
            "time": 25.67499999999983,
            "value": 0.8346456692913385
          },
          {
            "number": 2,
            "time": 25.67687499999983,
            "value": 0.8267716535433071
          },
          {
            "number": 2,
            "time": 25.678749999999827,
            "value": 0.8188976377952756
          },
          {
            "number": 2,
            "time": 25.680624999999825,
            "value": 0.8110236220472441
          },
          {
            "number": 2,
            "time": 25.682499999999823,
            "value": 0.8031496062992126
          },
          {
            "number": 2,
            "time": 25.68437499999982,
            "value": 0.7952755905511811
          },
          {
            "number": 2,
            "time": 25.68624999999982,
            "value": 0.7874015748031497
          },
          {
            "number": 2,
            "time": 25.68812499999982,
            "value": 0.7795275590551181
          },
          {
            "number": 2,
            "time": 25.689999999999817,
            "value": 0.7716535433070866
          },
          {
            "number": 2,
            "time": 25.691874999999815,
            "value": 0.7637795275590551
          },
          {
            "number": 2,
            "time": 25.693749999999813,
            "value": 0.7559055118110236
          },
          {
            "number": 2,
            "time": 25.69562499999981,
            "value": 0.7480314960629921
          },
          {
            "number": 2,
            "time": 25.69749999999981,
            "value": 0.7401574803149606
          },
          {
            "number": 2,
            "time": 25.699374999999808,
            "value": 0.7322834645669292
          },
          {
            "number": 2,
            "time": 25.701249999999806,
            "value": 0.7244094488188977
          },
          {
            "number": 2,
            "time": 25.703124999999805,
            "value": 0.7165354330708661
          },
          {
            "number": 2,
            "time": 25.704999999999803,
            "value": 0.7086614173228346
          },
          {
            "number": 2,
            "time": 25.7068749999998,
            "value": 0.7007874015748031
          },
          {
            "number": 2,
            "time": 25.7087499999998,
            "value": 0.6929133858267716
          },
          {
            "number": 2,
            "time": 25.710624999999798,
            "value": 0.6850393700787402
          },
          {
            "number": 2,
            "time": 25.712499999999796,
            "value": 0.6771653543307087
          },
          {
            "number": 2,
            "time": 25.714374999999794,
            "value": 0.6692913385826772
          },
          {
            "number": 2,
            "time": 25.716249999999793,
            "value": 0.6614173228346457
          },
          {
            "number": 2,
            "time": 25.71812499999979,
            "value": 0.6535433070866141
          },
          {
            "number": 2,
            "time": 25.71999999999979,
            "value": 0.6456692913385826
          },
          {
            "number": 2,
            "time": 25.721874999999788,
            "value": 0.6377952755905512
          },
          {
            "number": 2,
            "time": 25.723749999999786,
            "value": 0.6299212598425197
          },
          {
            "number": 2,
            "time": 25.799999999999784,
            "value": 0.6299212598425197
          },
          {
            "number": 2,
            "time": 25.949999999999783,
            "value": 0.6299212598425197
          },
          {
            "number": 2,
            "time": 26.09999999999978,
            "value": 0.6299212598425197
          },
          {
            "number": 2,
            "time": 26.54999999999978,
            "value": 0.9448818897637795
          },
          {
            "number": 2,
            "time": 26.55062499999978,
            "value": 0.937007874015748
          },
          {
            "number": 2,
            "time": 26.552499999999778,
            "value": 0.9291338582677166
          },
          {
            "number": 2,
            "time": 26.554374999999776,
            "value": 0.9212598425196851
          },
          {
            "number": 2,
            "time": 26.556249999999775,
            "value": 0.9133858267716536
          },
          {
            "number": 2,
            "time": 26.558124999999773,
            "value": 0.905511811023622
          },
          {
            "number": 2,
            "time": 26.55999999999977,
            "value": 0.8976377952755905
          },
          {
            "number": 2,
            "time": 26.56187499999977,
            "value": 0.889763779527559
          },
          {
            "number": 2,
            "time": 26.563749999999768,
            "value": 0.8818897637795275
          },
          {
            "number": 2,
            "time": 26.565624999999766,
            "value": 0.8740157480314961
          },
          {
            "number": 2,
            "time": 26.567499999999765,
            "value": 0.8661417322834646
          },
          {
            "number": 2,
            "time": 26.569374999999763,
            "value": 0.8582677165354331
          },
          {
            "number": 2,
            "time": 26.57124999999976,
            "value": 0.8503937007874016
          },
          {
            "number": 2,
            "time": 26.57312499999976,
            "value": 0.84251968503937
          },
          {
            "number": 2,
            "time": 26.574999999999758,
            "value": 0.8346456692913385
          },
          {
            "number": 2,
            "time": 26.576874999999756,
            "value": 0.8267716535433071
          },
          {
            "number": 2,
            "time": 26.578749999999754,
            "value": 0.8188976377952756
          },
          {
            "number": 2,
            "time": 26.580624999999753,
            "value": 0.8110236220472441
          },
          {
            "number": 2,
            "time": 26.58249999999975,
            "value": 0.8031496062992126
          },
          {
            "number": 2,
            "time": 26.58437499999975,
            "value": 0.7952755905511811
          },
          {
            "number": 2,
            "time": 26.586249999999747,
            "value": 0.7874015748031497
          },
          {
            "number": 2,
            "time": 26.588124999999746,
            "value": 0.7795275590551181
          },
          {
            "number": 2,
            "time": 26.589999999999744,
            "value": 0.7716535433070866
          },
          {
            "number": 2,
            "time": 26.591874999999742,
            "value": 0.7637795275590551
          },
          {
            "number": 2,
            "time": 26.59374999999974,
            "value": 0.7559055118110236
          },
          {
            "number": 2,
            "time": 26.59562499999974,
            "value": 0.7480314960629921
          },
          {
            "number": 2,
            "time": 26.597499999999737,
            "value": 0.7401574803149606
          },
          {
            "number": 2,
            "time": 26.599374999999736,
            "value": 0.7322834645669292
          },
          {
            "number": 2,
            "time": 26.601249999999734,
            "value": 0.7244094488188977
          },
          {
            "number": 2,
            "time": 26.603124999999732,
            "value": 0.7165354330708661
          },
          {
            "number": 2,
            "time": 26.60499999999973,
            "value": 0.7086614173228346
          },
          {
            "number": 2,
            "time": 26.60687499999973,
            "value": 0.7007874015748031
          },
          {
            "number": 2,
            "time": 26.608749999999727,
            "value": 0.6929133858267716
          },
          {
            "number": 2,
            "time": 26.610624999999725,
            "value": 0.6850393700787402
          },
          {
            "number": 2,
            "time": 26.612499999999724,
            "value": 0.6771653543307087
          },
          {
            "number": 2,
            "time": 26.614374999999722,
            "value": 0.6692913385826772
          },
          {
            "number": 2,
            "time": 26.61624999999972,
            "value": 0.6614173228346457
          },
          {
            "number": 2,
            "time": 26.61812499999972,
            "value": 0.6535433070866141
          },
          {
            "number": 2,
            "time": 26.619999999999717,
            "value": 0.6456692913385826
          },
          {
            "number": 2,
            "time": 26.621874999999715,
            "value": 0.6377952755905512
          },
          {
            "number": 2,
            "time": 26.623749999999713,
            "value": 0.6299212598425197
          },
          {
            "number": 2,
            "time": 26.69999999999971,
            "value": 0.6299212598425197
          },
          {
            "number": 2,
            "time": 26.84999999999971,
            "value": 0.6299212598425197
          },
          {
            "number": 2,
            "time": 26.99999999999971,
            "value": 0.6299212598425197
          },
          {
            "number": 2,
            "time": 27.149999999999707,
            "value": 0.6299212598425197
          },
          {
            "number": 2,
            "time": 27.299999999999706,
            "value": 0.6299212598425197
          },
          {
            "number": 2,
            "time": 27.449999999999704,
            "value": 0.9448818897637795
          },
          {
            "number": 2,
            "time": 27.450624999999704,
            "value": 0.937007874015748
          },
          {
            "number": 2,
            "time": 27.452499999999702,
            "value": 0.9291338582677166
          },
          {
            "number": 2,
            "time": 27.4543749999997,
            "value": 0.9212598425196851
          },
          {
            "number": 2,
            "time": 27.4562499999997,
            "value": 0.9133858267716536
          },
          {
            "number": 2,
            "time": 27.458124999999697,
            "value": 0.905511811023622
          },
          {
            "number": 2,
            "time": 27.459999999999695,
            "value": 0.8976377952755905
          },
          {
            "number": 2,
            "time": 27.461874999999694,
            "value": 0.889763779527559
          },
          {
            "number": 2,
            "time": 27.463749999999692,
            "value": 0.8818897637795275
          },
          {
            "number": 2,
            "time": 27.46562499999969,
            "value": 0.8740157480314961
          },
          {
            "number": 2,
            "time": 27.46749999999969,
            "value": 0.8661417322834646
          },
          {
            "number": 2,
            "time": 27.469374999999687,
            "value": 0.8582677165354331
          },
          {
            "number": 2,
            "time": 27.471249999999685,
            "value": 0.8503937007874016
          },
          {
            "number": 2,
            "time": 27.473124999999683,
            "value": 0.84251968503937
          },
          {
            "number": 2,
            "time": 27.47499999999968,
            "value": 0.8346456692913385
          },
          {
            "number": 2,
            "time": 27.47687499999968,
            "value": 0.8267716535433071
          },
          {
            "number": 2,
            "time": 27.47874999999968,
            "value": 0.8188976377952756
          },
          {
            "number": 2,
            "time": 27.480624999999677,
            "value": 0.8110236220472441
          },
          {
            "number": 2,
            "time": 27.482499999999675,
            "value": 0.8031496062992126
          },
          {
            "number": 2,
            "time": 27.484374999999673,
            "value": 0.7952755905511811
          },
          {
            "number": 2,
            "time": 27.48624999999967,
            "value": 0.7874015748031497
          },
          {
            "number": 2,
            "time": 27.48812499999967,
            "value": 0.7795275590551181
          },
          {
            "number": 2,
            "time": 27.489999999999668,
            "value": 0.7716535433070866
          },
          {
            "number": 2,
            "time": 27.491874999999666,
            "value": 0.7637795275590551
          },
          {
            "number": 2,
            "time": 27.493749999999665,
            "value": 0.7559055118110236
          },
          {
            "number": 2,
            "time": 27.495624999999663,
            "value": 0.7480314960629921
          },
          {
            "number": 2,
            "time": 27.49749999999966,
            "value": 0.7401574803149606
          },
          {
            "number": 2,
            "time": 27.49937499999966,
            "value": 0.7322834645669292
          },
          {
            "number": 2,
            "time": 27.501249999999658,
            "value": 0.7244094488188977
          },
          {
            "number": 2,
            "time": 27.503124999999656,
            "value": 0.7165354330708661
          },
          {
            "number": 2,
            "time": 27.504999999999654,
            "value": 0.7086614173228346
          },
          {
            "number": 2,
            "time": 27.506874999999653,
            "value": 0.7007874015748031
          },
          {
            "number": 2,
            "time": 27.50874999999965,
            "value": 0.6929133858267716
          },
          {
            "number": 2,
            "time": 27.51062499999965,
            "value": 0.6850393700787402
          },
          {
            "number": 2,
            "time": 27.512499999999648,
            "value": 0.6771653543307087
          },
          {
            "number": 2,
            "time": 27.514374999999646,
            "value": 0.6692913385826772
          },
          {
            "number": 2,
            "time": 27.516249999999644,
            "value": 0.6614173228346457
          },
          {
            "number": 2,
            "time": 27.518124999999642,
            "value": 0.6535433070866141
          },
          {
            "number": 2,
            "time": 27.51999999999964,
            "value": 0.6456692913385826
          },
          {
            "number": 2,
            "time": 27.52187499999964,
            "value": 0.6377952755905512
          },
          {
            "number": 2,
            "time": 27.523749999999637,
            "value": 0.6299212598425197
          },
          {
            "number": 2,
            "time": 27.599999999999635,
            "value": 0.6299212598425197
          },
          {
            "number": 2,
            "time": 27.749999999999634,
            "value": 0.6299212598425197
          },
          {
            "number": 2,
            "time": 27.899999999999633,
            "value": 0.6299212598425197
          },
          {
            "number": 2,
            "time": 28.349999999999632,
            "value": 0.9448818897637795
          },
          {
            "number": 2,
            "time": 28.35062499999963,
            "value": 0.937007874015748
          },
          {
            "number": 2,
            "time": 28.35249999999963,
            "value": 0.9291338582677166
          },
          {
            "number": 2,
            "time": 28.354374999999628,
            "value": 0.9212598425196851
          },
          {
            "number": 2,
            "time": 28.356249999999626,
            "value": 0.9133858267716536
          },
          {
            "number": 2,
            "time": 28.358124999999625,
            "value": 0.905511811023622
          },
          {
            "number": 2,
            "time": 28.359999999999623,
            "value": 0.8976377952755905
          },
          {
            "number": 2,
            "time": 28.36187499999962,
            "value": 0.889763779527559
          },
          {
            "number": 2,
            "time": 28.36374999999962,
            "value": 0.8818897637795275
          },
          {
            "number": 2,
            "time": 28.365624999999618,
            "value": 0.8740157480314961
          },
          {
            "number": 2,
            "time": 28.367499999999616,
            "value": 0.8661417322834646
          },
          {
            "number": 2,
            "time": 28.369374999999614,
            "value": 0.8582677165354331
          },
          {
            "number": 2,
            "time": 28.371249999999613,
            "value": 0.8503937007874016
          },
          {
            "number": 2,
            "time": 28.37312499999961,
            "value": 0.84251968503937
          },
          {
            "number": 2,
            "time": 28.37499999999961,
            "value": 0.8346456692913385
          },
          {
            "number": 2,
            "time": 28.376874999999607,
            "value": 0.8267716535433071
          },
          {
            "number": 2,
            "time": 28.378749999999606,
            "value": 0.8188976377952756
          },
          {
            "number": 2,
            "time": 28.380624999999604,
            "value": 0.8110236220472441
          },
          {
            "number": 2,
            "time": 28.382499999999602,
            "value": 0.8031496062992126
          },
          {
            "number": 2,
            "time": 28.3843749999996,
            "value": 0.7952755905511811
          },
          {
            "number": 2,
            "time": 28.3862499999996,
            "value": 0.7874015748031497
          },
          {
            "number": 2,
            "time": 28.388124999999597,
            "value": 0.7795275590551181
          },
          {
            "number": 2,
            "time": 28.389999999999596,
            "value": 0.7716535433070866
          },
          {
            "number": 2,
            "time": 28.391874999999594,
            "value": 0.7637795275590551
          },
          {
            "number": 2,
            "time": 28.393749999999592,
            "value": 0.7559055118110236
          },
          {
            "number": 2,
            "time": 28.39562499999959,
            "value": 0.7480314960629921
          },
          {
            "number": 2,
            "time": 28.39749999999959,
            "value": 0.7401574803149606
          },
          {
            "number": 2,
            "time": 28.399374999999587,
            "value": 0.7322834645669292
          },
          {
            "number": 2,
            "time": 28.401249999999585,
            "value": 0.7244094488188977
          },
          {
            "number": 2,
            "time": 28.403124999999584,
            "value": 0.7165354330708661
          },
          {
            "number": 2,
            "time": 28.404999999999582,
            "value": 0.7086614173228346
          },
          {
            "number": 2,
            "time": 28.40687499999958,
            "value": 0.7007874015748031
          },
          {
            "number": 2,
            "time": 28.40874999999958,
            "value": 0.6929133858267716
          },
          {
            "number": 2,
            "time": 28.410624999999577,
            "value": 0.6850393700787402
          },
          {
            "number": 2,
            "time": 28.412499999999575,
            "value": 0.6771653543307087
          },
          {
            "number": 2,
            "time": 28.414374999999573,
            "value": 0.6692913385826772
          },
          {
            "number": 2,
            "time": 28.41624999999957,
            "value": 0.6614173228346457
          },
          {
            "number": 2,
            "time": 28.41812499999957,
            "value": 0.6535433070866141
          },
          {
            "number": 2,
            "time": 28.41999999999957,
            "value": 0.6456692913385826
          },
          {
            "number": 2,
            "time": 28.421874999999567,
            "value": 0.6377952755905512
          },
          {
            "number": 2,
            "time": 28.423749999999565,
            "value": 0.6299212598425197
          },
          {
            "number": 2,
            "time": 28.499999999999563,
            "value": 0.6299212598425197
          },
          {
            "number": 2,
            "time": 28.64999999999956,
            "value": 0.6299212598425197
          },
          {
            "number": 2,
            "time": 28.79999999999956,
            "value": 0.6299212598425197
          },
          {
            "number": 2,
            "time": 28.94999999999956,
            "value": 0.6299212598425197
          },
          {
            "number": 2,
            "time": 29.099999999999557,
            "value": 0.6299212598425197
          },
          {
            "number": 2,
            "time": 29.249999999999556,
            "value": 0.9448818897637795
          },
          {
            "number": 2,
            "time": 29.250624999999555,
            "value": 0.937007874015748
          },
          {
            "number": 2,
            "time": 29.252499999999554,
            "value": 0.9291338582677166
          },
          {
            "number": 2,
            "time": 29.254374999999552,
            "value": 0.9212598425196851
          },
          {
            "number": 2,
            "time": 29.25624999999955,
            "value": 0.9133858267716536
          },
          {
            "number": 2,
            "time": 29.25812499999955,
            "value": 0.905511811023622
          },
          {
            "number": 2,
            "time": 29.259999999999547,
            "value": 0.8976377952755905
          },
          {
            "number": 2,
            "time": 29.261874999999545,
            "value": 0.889763779527559
          },
          {
            "number": 2,
            "time": 29.263749999999543,
            "value": 0.8818897637795275
          },
          {
            "number": 2,
            "time": 29.26562499999954,
            "value": 0.8740157480314961
          },
          {
            "number": 2,
            "time": 29.26749999999954,
            "value": 0.8661417322834646
          },
          {
            "number": 2,
            "time": 29.26937499999954,
            "value": 0.8582677165354331
          },
          {
            "number": 2,
            "time": 29.271249999999537,
            "value": 0.8503937007874016
          },
          {
            "number": 2,
            "time": 29.273124999999535,
            "value": 0.84251968503937
          },
          {
            "number": 2,
            "time": 29.274999999999533,
            "value": 0.8346456692913385
          },
          {
            "number": 2,
            "time": 29.27687499999953,
            "value": 0.8267716535433071
          },
          {
            "number": 2,
            "time": 29.27874999999953,
            "value": 0.8188976377952756
          },
          {
            "number": 2,
            "time": 29.280624999999528,
            "value": 0.8110236220472441
          },
          {
            "number": 2,
            "time": 29.282499999999526,
            "value": 0.8031496062992126
          },
          {
            "number": 2,
            "time": 29.284374999999525,
            "value": 0.7952755905511811
          },
          {
            "number": 2,
            "time": 29.286249999999523,
            "value": 0.7874015748031497
          },
          {
            "number": 2,
            "time": 29.28812499999952,
            "value": 0.7795275590551181
          },
          {
            "number": 2,
            "time": 29.28999999999952,
            "value": 0.7716535433070866
          },
          {
            "number": 2,
            "time": 29.291874999999518,
            "value": 0.7637795275590551
          },
          {
            "number": 2,
            "time": 29.293749999999516,
            "value": 0.7559055118110236
          },
          {
            "number": 2,
            "time": 29.295624999999514,
            "value": 0.7480314960629921
          },
          {
            "number": 2,
            "time": 29.297499999999513,
            "value": 0.7401574803149606
          },
          {
            "number": 2,
            "time": 29.29937499999951,
            "value": 0.7322834645669292
          },
          {
            "number": 2,
            "time": 29.30124999999951,
            "value": 0.7244094488188977
          },
          {
            "number": 2,
            "time": 29.303124999999508,
            "value": 0.7165354330708661
          },
          {
            "number": 2,
            "time": 29.304999999999506,
            "value": 0.7086614173228346
          },
          {
            "number": 2,
            "time": 29.306874999999504,
            "value": 0.7007874015748031
          },
          {
            "number": 2,
            "time": 29.308749999999502,
            "value": 0.6929133858267716
          },
          {
            "number": 2,
            "time": 29.3106249999995,
            "value": 0.6850393700787402
          },
          {
            "number": 2,
            "time": 29.3124999999995,
            "value": 0.6771653543307087
          },
          {
            "number": 2,
            "time": 29.314374999999497,
            "value": 0.6692913385826772
          },
          {
            "number": 2,
            "time": 29.316249999999496,
            "value": 0.6614173228346457
          },
          {
            "number": 2,
            "time": 29.318124999999494,
            "value": 0.6535433070866141
          },
          {
            "number": 2,
            "time": 29.319999999999492,
            "value": 0.6456692913385826
          },
          {
            "number": 2,
            "time": 29.32187499999949,
            "value": 0.6377952755905512
          },
          {
            "number": 2,
            "time": 29.32374999999949,
            "value": 0.6299212598425197
          },
          {
            "number": 2,
            "time": 29.399999999999487,
            "value": 0.6299212598425197
          },
          {
            "number": 2,
            "time": 29.549999999999486,
            "value": 0.6299212598425197
          },
          {
            "number": 2,
            "time": 29.699999999999484,
            "value": 0.6299212598425197
          },
          {
            "number": 2,
            "time": 30.149999999999483,
            "value": 0.9448818897637795
          },
          {
            "number": 2,
            "time": 30.150624999999483,
            "value": 0.937007874015748
          },
          {
            "number": 2,
            "time": 30.15249999999948,
            "value": 0.9291338582677166
          },
          {
            "number": 2,
            "time": 30.15437499999948,
            "value": 0.9212598425196851
          },
          {
            "number": 2,
            "time": 30.156249999999478,
            "value": 0.9133858267716536
          },
          {
            "number": 2,
            "time": 30.158124999999476,
            "value": 0.905511811023622
          },
          {
            "number": 2,
            "time": 30.159999999999474,
            "value": 0.8976377952755905
          },
          {
            "number": 2,
            "time": 30.161874999999473,
            "value": 0.889763779527559
          },
          {
            "number": 2,
            "time": 30.16374999999947,
            "value": 0.8818897637795275
          },
          {
            "number": 2,
            "time": 30.16562499999947,
            "value": 0.8740157480314961
          },
          {
            "number": 2,
            "time": 30.167499999999468,
            "value": 0.8661417322834646
          },
          {
            "number": 2,
            "time": 30.169374999999466,
            "value": 0.8582677165354331
          },
          {
            "number": 2,
            "time": 30.171249999999464,
            "value": 0.8503937007874016
          },
          {
            "number": 2,
            "time": 30.173124999999462,
            "value": 0.84251968503937
          },
          {
            "number": 2,
            "time": 30.17499999999946,
            "value": 0.8346456692913385
          },
          {
            "number": 2,
            "time": 30.17687499999946,
            "value": 0.8267716535433071
          },
          {
            "number": 2,
            "time": 30.178749999999457,
            "value": 0.8188976377952756
          },
          {
            "number": 2,
            "time": 30.180624999999456,
            "value": 0.8110236220472441
          },
          {
            "number": 2,
            "time": 30.182499999999454,
            "value": 0.8031496062992126
          },
          {
            "number": 2,
            "time": 30.184374999999452,
            "value": 0.7952755905511811
          },
          {
            "number": 2,
            "time": 30.18624999999945,
            "value": 0.7874015748031497
          },
          {
            "number": 2,
            "time": 30.18812499999945,
            "value": 0.7795275590551181
          },
          {
            "number": 2,
            "time": 30.189999999999447,
            "value": 0.7716535433070866
          },
          {
            "number": 2,
            "time": 30.191874999999445,
            "value": 0.7637795275590551
          },
          {
            "number": 2,
            "time": 30.193749999999444,
            "value": 0.7559055118110236
          },
          {
            "number": 2,
            "time": 30.195624999999442,
            "value": 0.7480314960629921
          },
          {
            "number": 2,
            "time": 30.19749999999944,
            "value": 0.7401574803149606
          },
          {
            "number": 2,
            "time": 30.19937499999944,
            "value": 0.7322834645669292
          },
          {
            "number": 2,
            "time": 30.201249999999437,
            "value": 0.7244094488188977
          },
          {
            "number": 2,
            "time": 30.203124999999435,
            "value": 0.7165354330708661
          },
          {
            "number": 2,
            "time": 30.204999999999433,
            "value": 0.7086614173228346
          },
          {
            "number": 2,
            "time": 30.20687499999943,
            "value": 0.7007874015748031
          },
          {
            "number": 2,
            "time": 30.20874999999943,
            "value": 0.6929133858267716
          },
          {
            "number": 2,
            "time": 30.21062499999943,
            "value": 0.6850393700787402
          },
          {
            "number": 2,
            "time": 30.212499999999427,
            "value": 0.6771653543307087
          },
          {
            "number": 2,
            "time": 30.214374999999425,
            "value": 0.6692913385826772
          },
          {
            "number": 2,
            "time": 30.216249999999423,
            "value": 0.6614173228346457
          },
          {
            "number": 2,
            "time": 30.21812499999942,
            "value": 0.6535433070866141
          },
          {
            "number": 2,
            "time": 30.21999999999942,
            "value": 0.6456692913385826
          },
          {
            "number": 2,
            "time": 30.221874999999418,
            "value": 0.6377952755905512
          },
          {
            "number": 2,
            "time": 30.223749999999416,
            "value": 0.6299212598425197
          },
          {
            "number": 2,
            "time": 30.299999999999415,
            "value": 0.6299212598425197
          },
          {
            "number": 2,
            "time": 30.449999999999413,
            "value": 0.6299212598425197
          },
          {
            "number": 2,
            "time": 30.59999999999941,
            "value": 0.6299212598425197
          },
          {
            "number": 2,
            "time": 30.74999999999941,
            "value": 0.6299212598425197
          },
          {
            "number": 2,
            "time": 30.89999999999941,
            "value": 0.6299212598425197
          },
          {
            "number": 2,
            "time": 31.049999999999407,
            "value": 0.9448818897637795
          },
          {
            "number": 2,
            "time": 31.050624999999407,
            "value": 0.937007874015748
          },
          {
            "number": 2,
            "time": 31.052499999999405,
            "value": 0.9291338582677166
          },
          {
            "number": 2,
            "time": 31.054374999999403,
            "value": 0.9212598425196851
          },
          {
            "number": 2,
            "time": 31.0562499999994,
            "value": 0.9133858267716536
          },
          {
            "number": 2,
            "time": 31.0581249999994,
            "value": 0.905511811023622
          },
          {
            "number": 2,
            "time": 31.0599999999994,
            "value": 0.8976377952755905
          },
          {
            "number": 2,
            "time": 31.061874999999397,
            "value": 0.889763779527559
          },
          {
            "number": 2,
            "time": 31.063749999999395,
            "value": 0.8818897637795275
          },
          {
            "number": 2,
            "time": 31.065624999999393,
            "value": 0.8740157480314961
          },
          {
            "number": 2,
            "time": 31.06749999999939,
            "value": 0.8661417322834646
          },
          {
            "number": 2,
            "time": 31.06937499999939,
            "value": 0.8582677165354331
          },
          {
            "number": 2,
            "time": 31.071249999999388,
            "value": 0.8503937007874016
          },
          {
            "number": 2,
            "time": 31.073124999999386,
            "value": 0.84251968503937
          },
          {
            "number": 2,
            "time": 31.074999999999385,
            "value": 0.8346456692913385
          },
          {
            "number": 2,
            "time": 31.076874999999383,
            "value": 0.8267716535433071
          },
          {
            "number": 2,
            "time": 31.07874999999938,
            "value": 0.8188976377952756
          },
          {
            "number": 2,
            "time": 31.08062499999938,
            "value": 0.8110236220472441
          },
          {
            "number": 2,
            "time": 31.082499999999378,
            "value": 0.8031496062992126
          },
          {
            "number": 2,
            "time": 31.084374999999376,
            "value": 0.7952755905511811
          },
          {
            "number": 2,
            "time": 31.086249999999374,
            "value": 0.7874015748031497
          },
          {
            "number": 2,
            "time": 31.088124999999373,
            "value": 0.7795275590551181
          },
          {
            "number": 2,
            "time": 31.08999999999937,
            "value": 0.7716535433070866
          },
          {
            "number": 2,
            "time": 31.09187499999937,
            "value": 0.7637795275590551
          },
          {
            "number": 2,
            "time": 31.093749999999368,
            "value": 0.7559055118110236
          },
          {
            "number": 2,
            "time": 31.095624999999366,
            "value": 0.7480314960629921
          },
          {
            "number": 2,
            "time": 31.097499999999364,
            "value": 0.7401574803149606
          },
          {
            "number": 2,
            "time": 31.099374999999363,
            "value": 0.7322834645669292
          },
          {
            "number": 2,
            "time": 31.10124999999936,
            "value": 0.7244094488188977
          },
          {
            "number": 2,
            "time": 31.10312499999936,
            "value": 0.7165354330708661
          },
          {
            "number": 2,
            "time": 31.104999999999357,
            "value": 0.7086614173228346
          },
          {
            "number": 2,
            "time": 31.106874999999356,
            "value": 0.7007874015748031
          },
          {
            "number": 2,
            "time": 31.108749999999354,
            "value": 0.6929133858267716
          },
          {
            "number": 2,
            "time": 31.110624999999352,
            "value": 0.6850393700787402
          },
          {
            "number": 2,
            "time": 31.11249999999935,
            "value": 0.6771653543307087
          },
          {
            "number": 2,
            "time": 31.11437499999935,
            "value": 0.6692913385826772
          },
          {
            "number": 2,
            "time": 31.116249999999347,
            "value": 0.6614173228346457
          },
          {
            "number": 2,
            "time": 31.118124999999345,
            "value": 0.6535433070866141
          },
          {
            "number": 2,
            "time": 31.119999999999344,
            "value": 0.6456692913385826
          },
          {
            "number": 2,
            "time": 31.121874999999342,
            "value": 0.6377952755905512
          },
          {
            "number": 2,
            "time": 31.12374999999934,
            "value": 0.6299212598425197
          },
          {
            "number": 2,
            "time": 31.19999999999934,
            "value": 0.6299212598425197
          },
          {
            "number": 2,
            "time": 31.349999999999337,
            "value": 0.6299212598425197
          },
          {
            "number": 2,
            "time": 31.499999999999336,
            "value": 0.6299212598425197
          },
          {
            "number": 2,
            "time": 31.649999999999334,
            "value": 0.6299212598425197
          },
          {
            "number": 2,
            "time": 31.799999999999333,
            "value": 0.6299212598425197
          },
          {
            "number": 2,
            "time": 31.94999999999933,
            "value": 0.9448818897637795
          },
          {
            "number": 2,
            "time": 31.95062499999933,
            "value": 0.937007874015748
          },
          {
            "number": 2,
            "time": 31.95249999999933,
            "value": 0.9291338582677166
          },
          {
            "number": 2,
            "time": 31.954374999999327,
            "value": 0.9212598425196851
          },
          {
            "number": 2,
            "time": 31.956249999999326,
            "value": 0.9133858267716536
          },
          {
            "number": 2,
            "time": 31.958124999999324,
            "value": 0.905511811023622
          },
          {
            "number": 2,
            "time": 31.959999999999322,
            "value": 0.8976377952755905
          },
          {
            "number": 2,
            "time": 31.96187499999932,
            "value": 0.889763779527559
          },
          {
            "number": 2,
            "time": 31.96374999999932,
            "value": 0.8818897637795275
          },
          {
            "number": 2,
            "time": 31.965624999999317,
            "value": 0.8740157480314961
          },
          {
            "number": 2,
            "time": 31.967499999999315,
            "value": 0.8661417322834646
          },
          {
            "number": 2,
            "time": 31.969374999999314,
            "value": 0.8582677165354331
          },
          {
            "number": 2,
            "time": 31.971249999999312,
            "value": 0.8503937007874016
          },
          {
            "number": 2,
            "time": 31.97312499999931,
            "value": 0.84251968503937
          },
          {
            "number": 2,
            "time": 31.97499999999931,
            "value": 0.8346456692913385
          },
          {
            "number": 2,
            "time": 31.976874999999307,
            "value": 0.8267716535433071
          },
          {
            "number": 2,
            "time": 31.978749999999305,
            "value": 0.8188976377952756
          },
          {
            "number": 2,
            "time": 31.980624999999304,
            "value": 0.8110236220472441
          },
          {
            "number": 2,
            "time": 31.982499999999302,
            "value": 0.8031496062992126
          },
          {
            "number": 2,
            "time": 31.9843749999993,
            "value": 0.7952755905511811
          },
          {
            "number": 2,
            "time": 31.9862499999993,
            "value": 0.7874015748031497
          },
          {
            "number": 2,
            "time": 31.988124999999297,
            "value": 0.7795275590551181
          },
          {
            "number": 2,
            "time": 31.989999999999295,
            "value": 0.7716535433070866
          },
          {
            "number": 2,
            "time": 31.991874999999293,
            "value": 0.7637795275590551
          },
          {
            "number": 2,
            "time": 31.99374999999929,
            "value": 0.7559055118110236
          },
          {
            "number": 2,
            "time": 31.99562499999929,
            "value": 0.7480314960629921
          },
          {
            "number": 2,
            "time": 31.997499999999288,
            "value": 0.7401574803149606
          },
          {
            "number": 2,
            "time": 31.999374999999286,
            "value": 0.7322834645669292
          },
          {
            "number": 2,
            "time": 32.00124999999929,
            "value": 0.7244094488188977
          },
          {
            "number": 2,
            "time": 32.00312499999929,
            "value": 0.7165354330708661
          },
          {
            "number": 2,
            "time": 32.004999999999285,
            "value": 0.7086614173228346
          },
          {
            "number": 2,
            "time": 32.00687499999928,
            "value": 0.7007874015748031
          },
          {
            "number": 2,
            "time": 32.00874999999928,
            "value": 0.6929133858267716
          },
          {
            "number": 2,
            "time": 32.01062499999928,
            "value": 0.6850393700787402
          },
          {
            "number": 2,
            "time": 32.01249999999928,
            "value": 0.6771653543307087
          },
          {
            "number": 2,
            "time": 32.014374999999276,
            "value": 0.6692913385826772
          },
          {
            "number": 2,
            "time": 32.016249999999275,
            "value": 0.6614173228346457
          },
          {
            "number": 2,
            "time": 32.01812499999927,
            "value": 0.6535433070866141
          },
          {
            "number": 2,
            "time": 32.01999999999927,
            "value": 0.6456692913385826
          },
          {
            "number": 2,
            "time": 32.02187499999927,
            "value": 0.6377952755905512
          },
          {
            "number": 2,
            "time": 32.02374999999927,
            "value": 0.6299212598425197
          },
          {
            "number": 2,
            "time": 32.39999999999927,
            "value": 0.9448818897637795
          },
          {
            "number": 2,
            "time": 32.400624999999266,
            "value": 0.937007874015748
          },
          {
            "number": 2,
            "time": 32.402499999999264,
            "value": 0.9291338582677166
          },
          {
            "number": 2,
            "time": 32.40437499999926,
            "value": 0.9212598425196851
          },
          {
            "number": 2,
            "time": 32.40624999999926,
            "value": 0.9133858267716536
          },
          {
            "number": 2,
            "time": 32.40812499999926,
            "value": 0.905511811023622
          },
          {
            "number": 2,
            "time": 32.40999999999926,
            "value": 0.8976377952755905
          },
          {
            "number": 2,
            "time": 32.411874999999256,
            "value": 0.889763779527559
          },
          {
            "number": 2,
            "time": 32.412499999999255,
            "value": 0.889763779527559
          },
          {
            "number": 2,
            "time": 32.413749999999254,
            "value": 0.8818897637795275
          },
          {
            "number": 2,
            "time": 32.41562499999925,
            "value": 0.8740157480314961
          },
          {
            "number": 2,
            "time": 32.41749999999925,
            "value": 0.8661417322834646
          },
          {
            "number": 2,
            "time": 32.41937499999925,
            "value": 0.8582677165354331
          },
          {
            "number": 2,
            "time": 32.42124999999925,
            "value": 0.8503937007874016
          },
          {
            "number": 2,
            "time": 32.423124999999246,
            "value": 0.84251968503937
          },
          {
            "number": 2,
            "time": 32.424374999999245,
            "value": 0.84251968503937
          },
          {
            "number": 2,
            "time": 32.424999999999244,
            "value": 0.8346456692913385
          },
          {
            "number": 2,
            "time": 32.42687499999924,
            "value": 0.8267716535433071
          },
          {
            "number": 2,
            "time": 32.42874999999924,
            "value": 0.8188976377952756
          },
          {
            "number": 2,
            "time": 32.43062499999924,
            "value": 0.8110236220472441
          },
          {
            "number": 2,
            "time": 32.43249999999924,
            "value": 0.8031496062992126
          },
          {
            "number": 2,
            "time": 32.434374999999235,
            "value": 0.7952755905511811
          },
          {
            "number": 2,
            "time": 32.436249999999234,
            "value": 0.7874015748031497
          },
          {
            "number": 2,
            "time": 32.43687499999923,
            "value": 0.7874015748031497
          },
          {
            "number": 2,
            "time": 32.43812499999923,
            "value": 0.7795275590551181
          },
          {
            "number": 2,
            "time": 32.43999999999923,
            "value": 0.7716535433070866
          },
          {
            "number": 2,
            "time": 32.44187499999923,
            "value": 0.7637795275590551
          },
          {
            "number": 2,
            "time": 32.44374999999923,
            "value": 0.7559055118110236
          },
          {
            "number": 2,
            "time": 32.445624999999225,
            "value": 0.7480314960629921
          },
          {
            "number": 2,
            "time": 32.44749999999922,
            "value": 0.7401574803149606
          },
          {
            "number": 2,
            "time": 32.44874999999922,
            "value": 0.7401574803149606
          },
          {
            "number": 2,
            "time": 32.44937499999922,
            "value": 0.7322834645669292
          },
          {
            "number": 2,
            "time": 32.45124999999922,
            "value": 0.7244094488188977
          },
          {
            "number": 2,
            "time": 32.45312499999922,
            "value": 0.7165354330708661
          },
          {
            "number": 2,
            "time": 32.45499999999922,
            "value": 0.7086614173228346
          },
          {
            "number": 2,
            "time": 32.456874999999215,
            "value": 0.7007874015748031
          },
          {
            "number": 2,
            "time": 32.45874999999921,
            "value": 0.6929133858267716
          },
          {
            "number": 2,
            "time": 32.46062499999921,
            "value": 0.6850393700787402
          },
          {
            "number": 2,
            "time": 32.46249999999921,
            "value": 0.6771653543307087
          },
          {
            "number": 2,
            "time": 32.46437499999921,
            "value": 0.6692913385826772
          },
          {
            "number": 2,
            "time": 32.46624999999921,
            "value": 0.6614173228346457
          },
          {
            "number": 2,
            "time": 32.468124999999205,
            "value": 0.6535433070866141
          },
          {
            "number": 2,
            "time": 32.4699999999992,
            "value": 0.6456692913385826
          },
          {
            "number": 2,
            "time": 32.4718749999992,
            "value": 0.6377952755905512
          },
          {
            "number": 2,
            "time": 32.4731249999992,
            "value": 0.6377952755905512
          },
          {
            "number": 2,
            "time": 32.4737499999992,
            "value": 0.6299212598425197
          },
          {
            "number": 2,
            "time": 38.249999999999204,
            "value": 0.6299212598425197
          },
          {
            "number": 2,
            "time": 39.1499999999992,
            "value": 0.9448818897637795
          },
          {
            "number": 2,
            "time": 39.1506249999992,
            "value": 0.937007874015748
          },
          {
            "number": 2,
            "time": 39.1512499999992,
            "value": 0.937007874015748
          },
          {
            "number": 2,
            "time": 39.1518749999992,
            "value": 0.937007874015748
          },
          {
            "number": 2,
            "time": 39.1524999999992,
            "value": 0.9291338582677166
          },
          {
            "number": 2,
            "time": 39.1531249999992,
            "value": 0.9291338582677166
          },
          {
            "number": 2,
            "time": 39.1537499999992,
            "value": 0.9291338582677166
          },
          {
            "number": 2,
            "time": 39.1543749999992,
            "value": 0.9212598425196851
          },
          {
            "number": 2,
            "time": 39.1549999999992,
            "value": 0.9212598425196851
          },
          {
            "number": 2,
            "time": 39.1556249999992,
            "value": 0.9212598425196851
          },
          {
            "number": 2,
            "time": 39.1562499999992,
            "value": 0.9133858267716536
          },
          {
            "number": 2,
            "time": 39.1568749999992,
            "value": 0.9133858267716536
          },
          {
            "number": 2,
            "time": 39.157499999999196,
            "value": 0.9133858267716536
          },
          {
            "number": 2,
            "time": 39.158124999999195,
            "value": 0.905511811023622
          },
          {
            "number": 2,
            "time": 39.158749999999195,
            "value": 0.905511811023622
          },
          {
            "number": 2,
            "time": 39.159374999999194,
            "value": 0.905511811023622
          },
          {
            "number": 2,
            "time": 39.159999999999194,
            "value": 0.8976377952755905
          },
          {
            "number": 2,
            "time": 39.16062499999919,
            "value": 0.8976377952755905
          },
          {
            "number": 2,
            "time": 39.16124999999919,
            "value": 0.8976377952755905
          },
          {
            "number": 2,
            "time": 39.16187499999919,
            "value": 0.889763779527559
          },
          {
            "number": 2,
            "time": 39.16249999999919,
            "value": 0.889763779527559
          },
          {
            "number": 2,
            "time": 39.16312499999919,
            "value": 0.889763779527559
          },
          {
            "number": 2,
            "time": 39.16374999999919,
            "value": 0.8818897637795275
          },
          {
            "number": 2,
            "time": 39.16437499999919,
            "value": 0.8818897637795275
          },
          {
            "number": 2,
            "time": 39.16499999999919,
            "value": 0.8818897637795275
          },
          {
            "number": 2,
            "time": 39.16562499999919,
            "value": 0.8740157480314961
          },
          {
            "number": 2,
            "time": 39.16624999999919,
            "value": 0.8740157480314961
          },
          {
            "number": 2,
            "time": 39.16687499999919,
            "value": 0.8740157480314961
          },
          {
            "number": 2,
            "time": 39.16749999999919,
            "value": 0.8661417322834646
          },
          {
            "number": 2,
            "time": 39.168124999999186,
            "value": 0.8661417322834646
          },
          {
            "number": 2,
            "time": 39.168749999999186,
            "value": 0.8661417322834646
          },
          {
            "number": 2,
            "time": 39.169374999999185,
            "value": 0.8582677165354331
          },
          {
            "number": 2,
            "time": 39.169999999999185,
            "value": 0.8582677165354331
          },
          {
            "number": 2,
            "time": 39.170624999999184,
            "value": 0.8582677165354331
          },
          {
            "number": 2,
            "time": 39.17124999999918,
            "value": 0.8503937007874016
          },
          {
            "number": 2,
            "time": 39.17187499999918,
            "value": 0.8503937007874016
          },
          {
            "number": 2,
            "time": 39.17249999999918,
            "value": 0.8503937007874016
          },
          {
            "number": 2,
            "time": 39.17312499999918,
            "value": 0.84251968503937
          },
          {
            "number": 2,
            "time": 39.17374999999918,
            "value": 0.84251968503937
          },
          {
            "number": 2,
            "time": 39.17437499999918,
            "value": 0.84251968503937
          },
          {
            "number": 2,
            "time": 39.17499999999918,
            "value": 0.8346456692913385
          },
          {
            "number": 2,
            "time": 39.17562499999918,
            "value": 0.8346456692913385
          },
          {
            "number": 2,
            "time": 39.17624999999918,
            "value": 0.8346456692913385
          },
          {
            "number": 2,
            "time": 39.17687499999918,
            "value": 0.8267716535433071
          },
          {
            "number": 2,
            "time": 39.17749999999918,
            "value": 0.8267716535433071
          },
          {
            "number": 2,
            "time": 39.17812499999918,
            "value": 0.8267716535433071
          },
          {
            "number": 2,
            "time": 39.17874999999918,
            "value": 0.8188976377952756
          },
          {
            "number": 2,
            "time": 39.179374999999176,
            "value": 0.8188976377952756
          },
          {
            "number": 2,
            "time": 39.179999999999175,
            "value": 0.8188976377952756
          },
          {
            "number": 2,
            "time": 39.180624999999175,
            "value": 0.8110236220472441
          },
          {
            "number": 2,
            "time": 39.181249999999174,
            "value": 0.8110236220472441
          },
          {
            "number": 2,
            "time": 39.181874999999174,
            "value": 0.8110236220472441
          },
          {
            "number": 2,
            "time": 39.18249999999917,
            "value": 0.8031496062992126
          },
          {
            "number": 2,
            "time": 39.18312499999917,
            "value": 0.8031496062992126
          },
          {
            "number": 2,
            "time": 39.18374999999917,
            "value": 0.8031496062992126
          },
          {
            "number": 2,
            "time": 39.18437499999917,
            "value": 0.7952755905511811
          },
          {
            "number": 2,
            "time": 39.18499999999917,
            "value": 0.7952755905511811
          },
          {
            "number": 2,
            "time": 39.18562499999917,
            "value": 0.7952755905511811
          },
          {
            "number": 2,
            "time": 39.18624999999917,
            "value": 0.7874015748031497
          },
          {
            "number": 2,
            "time": 39.18687499999917,
            "value": 0.7874015748031497
          },
          {
            "number": 2,
            "time": 39.18749999999917,
            "value": 0.7874015748031497
          },
          {
            "number": 2,
            "time": 39.18812499999917,
            "value": 0.7795275590551181
          },
          {
            "number": 2,
            "time": 39.18874999999917,
            "value": 0.7795275590551181
          },
          {
            "number": 2,
            "time": 39.18937499999917,
            "value": 0.7795275590551181
          },
          {
            "number": 2,
            "time": 39.189999999999166,
            "value": 0.7716535433070866
          },
          {
            "number": 2,
            "time": 39.190624999999166,
            "value": 0.7716535433070866
          },
          {
            "number": 2,
            "time": 39.191249999999165,
            "value": 0.7716535433070866
          },
          {
            "number": 2,
            "time": 39.191874999999165,
            "value": 0.7637795275590551
          },
          {
            "number": 2,
            "time": 39.192499999999164,
            "value": 0.7637795275590551
          },
          {
            "number": 2,
            "time": 39.19312499999916,
            "value": 0.7637795275590551
          },
          {
            "number": 2,
            "time": 39.19374999999916,
            "value": 0.7559055118110236
          },
          {
            "number": 2,
            "time": 39.19437499999916,
            "value": 0.7559055118110236
          },
          {
            "number": 2,
            "time": 39.19499999999916,
            "value": 0.7559055118110236
          },
          {
            "number": 2,
            "time": 39.19562499999916,
            "value": 0.7480314960629921
          },
          {
            "number": 2,
            "time": 39.19624999999916,
            "value": 0.7480314960629921
          },
          {
            "number": 2,
            "time": 39.19687499999916,
            "value": 0.7480314960629921
          },
          {
            "number": 2,
            "time": 39.19749999999916,
            "value": 0.7401574803149606
          },
          {
            "number": 2,
            "time": 39.19812499999916,
            "value": 0.7401574803149606
          },
          {
            "number": 2,
            "time": 39.19874999999916,
            "value": 0.7401574803149606
          },
          {
            "number": 2,
            "time": 39.19937499999916,
            "value": 0.7322834645669292
          },
          {
            "number": 2,
            "time": 39.19999999999916,
            "value": 0.7322834645669292
          },
          {
            "number": 2,
            "time": 39.20062499999916,
            "value": 0.7322834645669292
          },
          {
            "number": 2,
            "time": 39.201249999999156,
            "value": 0.7244094488188977
          },
          {
            "number": 2,
            "time": 39.201874999999156,
            "value": 0.7244094488188977
          },
          {
            "number": 2,
            "time": 39.202499999999155,
            "value": 0.7244094488188977
          },
          {
            "number": 2,
            "time": 39.203124999999154,
            "value": 0.7165354330708661
          },
          {
            "number": 2,
            "time": 39.203749999999154,
            "value": 0.7165354330708661
          },
          {
            "number": 2,
            "time": 39.20437499999915,
            "value": 0.7165354330708661
          },
          {
            "number": 2,
            "time": 39.20499999999915,
            "value": 0.7086614173228346
          },
          {
            "number": 2,
            "time": 39.20562499999915,
            "value": 0.7086614173228346
          },
          {
            "number": 2,
            "time": 39.20624999999915,
            "value": 0.7086614173228346
          },
          {
            "number": 2,
            "time": 39.20687499999915,
            "value": 0.7007874015748031
          },
          {
            "number": 2,
            "time": 39.20749999999915,
            "value": 0.7007874015748031
          },
          {
            "number": 2,
            "time": 39.20812499999915,
            "value": 0.7007874015748031
          },
          {
            "number": 2,
            "time": 39.20874999999915,
            "value": 0.6929133858267716
          },
          {
            "number": 2,
            "time": 39.20937499999915,
            "value": 0.6929133858267716
          },
          {
            "number": 2,
            "time": 39.20999999999915,
            "value": 0.6929133858267716
          },
          {
            "number": 2,
            "time": 39.21062499999915,
            "value": 0.6850393700787402
          },
          {
            "number": 2,
            "time": 39.21124999999915,
            "value": 0.6850393700787402
          },
          {
            "number": 2,
            "time": 39.21187499999915,
            "value": 0.6850393700787402
          },
          {
            "number": 2,
            "time": 39.212499999999146,
            "value": 0.6771653543307087
          },
          {
            "number": 2,
            "time": 39.213124999999145,
            "value": 0.6771653543307087
          },
          {
            "number": 2,
            "time": 39.213749999999145,
            "value": 0.6771653543307087
          },
          {
            "number": 2,
            "time": 39.214374999999144,
            "value": 0.6692913385826772
          },
          {
            "number": 2,
            "time": 39.214999999999144,
            "value": 0.6692913385826772
          },
          {
            "number": 2,
            "time": 39.21562499999914,
            "value": 0.6692913385826772
          },
          {
            "number": 2,
            "time": 39.21624999999914,
            "value": 0.6614173228346457
          },
          {
            "number": 2,
            "time": 39.21687499999914,
            "value": 0.6614173228346457
          },
          {
            "number": 2,
            "time": 39.21749999999914,
            "value": 0.6614173228346457
          },
          {
            "number": 2,
            "time": 39.21812499999914,
            "value": 0.6535433070866141
          },
          {
            "number": 2,
            "time": 39.21874999999914,
            "value": 0.6535433070866141
          },
          {
            "number": 2,
            "time": 39.21937499999914,
            "value": 0.6535433070866141
          },
          {
            "number": 2,
            "time": 39.21999999999914,
            "value": 0.6456692913385826
          },
          {
            "number": 2,
            "time": 39.22062499999914,
            "value": 0.6456692913385826
          },
          {
            "number": 2,
            "time": 39.22124999999914,
            "value": 0.6456692913385826
          },
          {
            "number": 2,
            "time": 39.22187499999914,
            "value": 0.6377952755905512
          },
          {
            "number": 2,
            "time": 39.22249999999914,
            "value": 0.6377952755905512
          },
          {
            "number": 2,
            "time": 39.223124999999136,
            "value": 0.6377952755905512
          },
          {
            "number": 2,
            "time": 39.223749999999136,
            "value": 0.6299212598425197
          },
          {
            "number": 2,
            "time": 39.224374999999135,
            "value": 0.6299212598425197
          },
          {
            "number": 2,
            "time": 39.449999999999136,
            "value": 0.6299212598425197
          },
          {
            "number": 2,
            "time": 39.599999999999135,
            "value": 0.9448818897637795
          },
          {
            "number": 2,
            "time": 39.600624999999134,
            "value": 0.937007874015748
          },
          {
            "number": 2,
            "time": 39.60124999999913,
            "value": 0.937007874015748
          },
          {
            "number": 2,
            "time": 39.60187499999913,
            "value": 0.937007874015748
          },
          {
            "number": 2,
            "time": 39.60249999999913,
            "value": 0.9291338582677166
          },
          {
            "number": 2,
            "time": 39.60312499999913,
            "value": 0.9291338582677166
          },
          {
            "number": 2,
            "time": 39.60374999999913,
            "value": 0.9291338582677166
          },
          {
            "number": 2,
            "time": 39.60437499999913,
            "value": 0.9212598425196851
          },
          {
            "number": 2,
            "time": 39.60499999999913,
            "value": 0.9212598425196851
          },
          {
            "number": 2,
            "time": 39.60562499999913,
            "value": 0.9212598425196851
          },
          {
            "number": 2,
            "time": 39.60624999999913,
            "value": 0.9133858267716536
          },
          {
            "number": 2,
            "time": 39.60687499999913,
            "value": 0.9133858267716536
          },
          {
            "number": 2,
            "time": 39.60749999999913,
            "value": 0.9133858267716536
          },
          {
            "number": 2,
            "time": 39.60812499999913,
            "value": 0.905511811023622
          },
          {
            "number": 2,
            "time": 39.60874999999913,
            "value": 0.905511811023622
          },
          {
            "number": 2,
            "time": 39.609374999999126,
            "value": 0.905511811023622
          },
          {
            "number": 2,
            "time": 39.609999999999125,
            "value": 0.8976377952755905
          },
          {
            "number": 2,
            "time": 39.610624999999125,
            "value": 0.8976377952755905
          },
          {
            "number": 2,
            "time": 39.611249999999124,
            "value": 0.8976377952755905
          },
          {
            "number": 2,
            "time": 39.611874999999124,
            "value": 0.889763779527559
          },
          {
            "number": 2,
            "time": 39.61249999999912,
            "value": 0.889763779527559
          },
          {
            "number": 2,
            "time": 39.61312499999912,
            "value": 0.889763779527559
          },
          {
            "number": 2,
            "time": 39.61374999999912,
            "value": 0.8818897637795275
          },
          {
            "number": 2,
            "time": 39.61437499999912,
            "value": 0.8818897637795275
          },
          {
            "number": 2,
            "time": 39.61499999999912,
            "value": 0.8818897637795275
          },
          {
            "number": 2,
            "time": 39.61562499999912,
            "value": 0.8740157480314961
          },
          {
            "number": 2,
            "time": 39.61624999999912,
            "value": 0.8740157480314961
          },
          {
            "number": 2,
            "time": 39.61687499999912,
            "value": 0.8740157480314961
          },
          {
            "number": 2,
            "time": 39.61749999999912,
            "value": 0.8661417322834646
          },
          {
            "number": 2,
            "time": 39.61812499999912,
            "value": 0.8661417322834646
          },
          {
            "number": 2,
            "time": 39.61874999999912,
            "value": 0.8661417322834646
          },
          {
            "number": 2,
            "time": 39.61937499999912,
            "value": 0.8582677165354331
          },
          {
            "number": 2,
            "time": 39.619999999999116,
            "value": 0.8582677165354331
          },
          {
            "number": 2,
            "time": 39.620624999999116,
            "value": 0.8582677165354331
          },
          {
            "number": 2,
            "time": 39.621249999999115,
            "value": 0.8503937007874016
          },
          {
            "number": 2,
            "time": 39.621874999999115,
            "value": 0.8503937007874016
          },
          {
            "number": 2,
            "time": 39.622499999999114,
            "value": 0.8503937007874016
          },
          {
            "number": 2,
            "time": 39.62312499999911,
            "value": 0.84251968503937
          },
          {
            "number": 2,
            "time": 39.62374999999911,
            "value": 0.84251968503937
          },
          {
            "number": 2,
            "time": 39.62437499999911,
            "value": 0.84251968503937
          },
          {
            "number": 2,
            "time": 39.62499999999911,
            "value": 0.8346456692913385
          },
          {
            "number": 2,
            "time": 39.62562499999911,
            "value": 0.8346456692913385
          },
          {
            "number": 2,
            "time": 39.62624999999911,
            "value": 0.8346456692913385
          },
          {
            "number": 2,
            "time": 39.62687499999911,
            "value": 0.8267716535433071
          },
          {
            "number": 2,
            "time": 39.62749999999911,
            "value": 0.8267716535433071
          },
          {
            "number": 2,
            "time": 39.62812499999911,
            "value": 0.8267716535433071
          },
          {
            "number": 2,
            "time": 39.62874999999911,
            "value": 0.8188976377952756
          },
          {
            "number": 2,
            "time": 39.62937499999911,
            "value": 0.8188976377952756
          },
          {
            "number": 2,
            "time": 39.62999999999911,
            "value": 0.8188976377952756
          },
          {
            "number": 2,
            "time": 39.63062499999911,
            "value": 0.8110236220472441
          },
          {
            "number": 2,
            "time": 39.631249999999106,
            "value": 0.8110236220472441
          },
          {
            "number": 2,
            "time": 39.631874999999106,
            "value": 0.8110236220472441
          },
          {
            "number": 2,
            "time": 39.632499999999105,
            "value": 0.8031496062992126
          },
          {
            "number": 2,
            "time": 39.633124999999104,
            "value": 0.8031496062992126
          },
          {
            "number": 2,
            "time": 39.633749999999104,
            "value": 0.8031496062992126
          },
          {
            "number": 2,
            "time": 39.6343749999991,
            "value": 0.7952755905511811
          },
          {
            "number": 2,
            "time": 39.6349999999991,
            "value": 0.7952755905511811
          },
          {
            "number": 2,
            "time": 39.6356249999991,
            "value": 0.7952755905511811
          },
          {
            "number": 2,
            "time": 39.6362499999991,
            "value": 0.7874015748031497
          },
          {
            "number": 2,
            "time": 39.6368749999991,
            "value": 0.7874015748031497
          },
          {
            "number": 2,
            "time": 39.6374999999991,
            "value": 0.7874015748031497
          },
          {
            "number": 2,
            "time": 39.6381249999991,
            "value": 0.7795275590551181
          },
          {
            "number": 2,
            "time": 39.6387499999991,
            "value": 0.7795275590551181
          },
          {
            "number": 2,
            "time": 39.6393749999991,
            "value": 0.7795275590551181
          },
          {
            "number": 2,
            "time": 39.6399999999991,
            "value": 0.7716535433070866
          },
          {
            "number": 2,
            "time": 39.6406249999991,
            "value": 0.7716535433070866
          },
          {
            "number": 2,
            "time": 39.6412499999991,
            "value": 0.7716535433070866
          },
          {
            "number": 2,
            "time": 39.6418749999991,
            "value": 0.7637795275590551
          },
          {
            "number": 2,
            "time": 39.642499999999096,
            "value": 0.7637795275590551
          },
          {
            "number": 2,
            "time": 39.643124999999095,
            "value": 0.7637795275590551
          },
          {
            "number": 2,
            "time": 39.643749999999095,
            "value": 0.7559055118110236
          },
          {
            "number": 2,
            "time": 39.644374999999094,
            "value": 0.7559055118110236
          },
          {
            "number": 2,
            "time": 39.644999999999094,
            "value": 0.7559055118110236
          },
          {
            "number": 2,
            "time": 39.64562499999909,
            "value": 0.7480314960629921
          },
          {
            "number": 2,
            "time": 39.64624999999909,
            "value": 0.7480314960629921
          },
          {
            "number": 2,
            "time": 39.64687499999909,
            "value": 0.7480314960629921
          },
          {
            "number": 2,
            "time": 39.64749999999909,
            "value": 0.7401574803149606
          },
          {
            "number": 2,
            "time": 39.64812499999909,
            "value": 0.7401574803149606
          },
          {
            "number": 2,
            "time": 39.64874999999909,
            "value": 0.7401574803149606
          },
          {
            "number": 2,
            "time": 39.64937499999909,
            "value": 0.7322834645669292
          },
          {
            "number": 2,
            "time": 39.64999999999909,
            "value": 0.7322834645669292
          },
          {
            "number": 2,
            "time": 39.65062499999909,
            "value": 0.7322834645669292
          },
          {
            "number": 2,
            "time": 39.65124999999909,
            "value": 0.7244094488188977
          },
          {
            "number": 2,
            "time": 39.65187499999909,
            "value": 0.7244094488188977
          },
          {
            "number": 2,
            "time": 39.65249999999909,
            "value": 0.7244094488188977
          },
          {
            "number": 2,
            "time": 39.653124999999086,
            "value": 0.7165354330708661
          },
          {
            "number": 2,
            "time": 39.653749999999086,
            "value": 0.7165354330708661
          },
          {
            "number": 2,
            "time": 39.654374999999085,
            "value": 0.7165354330708661
          },
          {
            "number": 2,
            "time": 39.654999999999085,
            "value": 0.7086614173228346
          },
          {
            "number": 2,
            "time": 39.655624999999084,
            "value": 0.7086614173228346
          },
          {
            "number": 2,
            "time": 39.65624999999908,
            "value": 0.7086614173228346
          },
          {
            "number": 2,
            "time": 39.65687499999908,
            "value": 0.7007874015748031
          },
          {
            "number": 2,
            "time": 39.65749999999908,
            "value": 0.7007874015748031
          },
          {
            "number": 2,
            "time": 39.65812499999908,
            "value": 0.7007874015748031
          },
          {
            "number": 2,
            "time": 39.65874999999908,
            "value": 0.6929133858267716
          },
          {
            "number": 2,
            "time": 39.65937499999908,
            "value": 0.6929133858267716
          },
          {
            "number": 2,
            "time": 39.65999999999908,
            "value": 0.6929133858267716
          },
          {
            "number": 2,
            "time": 39.66062499999908,
            "value": 0.6850393700787402
          },
          {
            "number": 2,
            "time": 39.66124999999908,
            "value": 0.6850393700787402
          },
          {
            "number": 2,
            "time": 39.66187499999908,
            "value": 0.6850393700787402
          },
          {
            "number": 2,
            "time": 39.66249999999908,
            "value": 0.6771653543307087
          },
          {
            "number": 2,
            "time": 39.66312499999908,
            "value": 0.6771653543307087
          },
          {
            "number": 2,
            "time": 39.66374999999908,
            "value": 0.6771653543307087
          },
          {
            "number": 2,
            "time": 39.664374999999076,
            "value": 0.6692913385826772
          },
          {
            "number": 2,
            "time": 39.664999999999075,
            "value": 0.6692913385826772
          },
          {
            "number": 2,
            "time": 39.665624999999075,
            "value": 0.6692913385826772
          },
          {
            "number": 2,
            "time": 39.666249999999074,
            "value": 0.6614173228346457
          },
          {
            "number": 2,
            "time": 39.666874999999074,
            "value": 0.6614173228346457
          },
          {
            "number": 2,
            "time": 39.66749999999907,
            "value": 0.6614173228346457
          },
          {
            "number": 2,
            "time": 39.66812499999907,
            "value": 0.6535433070866141
          },
          {
            "number": 2,
            "time": 39.66874999999907,
            "value": 0.6535433070866141
          },
          {
            "number": 2,
            "time": 39.66937499999907,
            "value": 0.6535433070866141
          },
          {
            "number": 2,
            "time": 39.66999999999907,
            "value": 0.6456692913385826
          },
          {
            "number": 2,
            "time": 39.67062499999907,
            "value": 0.6456692913385826
          },
          {
            "number": 2,
            "time": 39.67124999999907,
            "value": 0.6456692913385826
          },
          {
            "number": 2,
            "time": 39.67187499999907,
            "value": 0.6377952755905512
          },
          {
            "number": 2,
            "time": 39.67249999999907,
            "value": 0.6377952755905512
          },
          {
            "number": 2,
            "time": 39.67312499999907,
            "value": 0.6377952755905512
          },
          {
            "number": 2,
            "time": 39.67374999999907,
            "value": 0.6299212598425197
          },
          {
            "number": 2,
            "time": 39.67437499999907,
            "value": 0.6299212598425197
          },
          {
            "number": 2,
            "time": 39.89999999999907,
            "value": 0.6299212598425197
          },
          {
            "number": 2,
            "time": 40.049999999999066,
            "value": 0.6299212598425197
          },
          {
            "number": 2,
            "time": 40.949999999999065,
            "value": 0.6299212598425197
          },
          {
            "number": 2,
            "time": 41.39999999999907,
            "value": 0.6299212598425197
          },
          {
            "number": 2,
            "time": 41.84999999999907,
            "value": 0.6299212598425197
          },
          {
            "number": 2,
            "time": 42.74999999999907,
            "value": 0.6299212598425197
          },
          {
            "number": 2,
            "time": 43.19999999999907,
            "value": 0.6299212598425197
          },
          {
            "number": 2,
            "time": 43.649999999999075,
            "value": 0.6299212598425197
          },
          {
            "number": 2,
            "time": 44.09999999999908,
            "value": 0.6299212598425197
          },
          {
            "number": 2,
            "time": 44.54999999999908,
            "value": 0.6299212598425197
          },
          {
            "number": 2,
            "time": 44.99999999999908,
            "value": 0.6299212598425197
          },
          {
            "number": 2,
            "time": 45.449999999999086,
            "value": 0.9448818897637795
          },
          {
            "number": 2,
            "time": 45.450624999999086,
            "value": 0.937007874015748
          },
          {
            "number": 2,
            "time": 45.452499999999084,
            "value": 0.9291338582677166
          },
          {
            "number": 2,
            "time": 45.45437499999908,
            "value": 0.9212598425196851
          },
          {
            "number": 2,
            "time": 45.45624999999908,
            "value": 0.9133858267716536
          },
          {
            "number": 2,
            "time": 45.45812499999908,
            "value": 0.905511811023622
          },
          {
            "number": 2,
            "time": 45.45999999999908,
            "value": 0.8976377952755905
          },
          {
            "number": 2,
            "time": 45.461874999999075,
            "value": 0.889763779527559
          },
          {
            "number": 2,
            "time": 45.463749999999074,
            "value": 0.8818897637795275
          },
          {
            "number": 2,
            "time": 45.46562499999907,
            "value": 0.8740157480314961
          },
          {
            "number": 2,
            "time": 45.46749999999907,
            "value": 0.8661417322834646
          },
          {
            "number": 2,
            "time": 45.46937499999907,
            "value": 0.8582677165354331
          },
          {
            "number": 2,
            "time": 45.47124999999907,
            "value": 0.8503937007874016
          },
          {
            "number": 2,
            "time": 45.473124999999065,
            "value": 0.84251968503937
          },
          {
            "number": 2,
            "time": 45.47499999999906,
            "value": 0.8346456692913385
          },
          {
            "number": 2,
            "time": 45.47687499999906,
            "value": 0.8267716535433071
          },
          {
            "number": 2,
            "time": 45.47874999999906,
            "value": 0.8188976377952756
          },
          {
            "number": 2,
            "time": 45.48062499999906,
            "value": 0.8110236220472441
          },
          {
            "number": 2,
            "time": 45.48249999999906,
            "value": 0.8031496062992126
          },
          {
            "number": 2,
            "time": 45.484374999999055,
            "value": 0.7952755905511811
          },
          {
            "number": 2,
            "time": 45.48624999999905,
            "value": 0.7874015748031497
          },
          {
            "number": 2,
            "time": 45.48812499999905,
            "value": 0.7795275590551181
          },
          {
            "number": 2,
            "time": 45.48999999999905,
            "value": 0.7716535433070866
          },
          {
            "number": 2,
            "time": 45.49187499999905,
            "value": 0.7637795275590551
          },
          {
            "number": 2,
            "time": 45.49374999999905,
            "value": 0.7559055118110236
          },
          {
            "number": 2,
            "time": 45.495624999999045,
            "value": 0.7480314960629921
          },
          {
            "number": 2,
            "time": 45.49749999999904,
            "value": 0.7401574803149606
          },
          {
            "number": 2,
            "time": 45.49937499999904,
            "value": 0.7322834645669292
          },
          {
            "number": 2,
            "time": 45.50124999999904,
            "value": 0.7244094488188977
          },
          {
            "number": 2,
            "time": 45.50312499999904,
            "value": 0.7165354330708661
          },
          {
            "number": 2,
            "time": 45.504999999999036,
            "value": 0.7086614173228346
          },
          {
            "number": 2,
            "time": 45.506874999999035,
            "value": 0.7007874015748031
          },
          {
            "number": 2,
            "time": 45.50874999999903,
            "value": 0.6929133858267716
          },
          {
            "number": 2,
            "time": 45.51062499999903,
            "value": 0.6850393700787402
          },
          {
            "number": 2,
            "time": 45.51249999999903,
            "value": 0.6771653543307087
          },
          {
            "number": 2,
            "time": 45.51437499999903,
            "value": 0.6692913385826772
          },
          {
            "number": 2,
            "time": 45.516249999999026,
            "value": 0.6614173228346457
          },
          {
            "number": 2,
            "time": 45.518124999999024,
            "value": 0.6535433070866141
          },
          {
            "number": 2,
            "time": 45.51999999999902,
            "value": 0.6456692913385826
          },
          {
            "number": 2,
            "time": 45.52187499999902,
            "value": 0.6377952755905512
          },
          {
            "number": 2,
            "time": 45.52374999999902,
            "value": 0.6299212598425197
          },
          {
            "number": 2,
            "time": 45.59999999999902,
            "value": 0.6299212598425197
          },
          {
            "number": 2,
            "time": 45.74999999999902,
            "value": 0.6299212598425197
          },
          {
            "number": 2,
            "time": 45.89999999999902,
            "value": 0.9448818897637795
          },
          {
            "number": 2,
            "time": 45.90062499999902,
            "value": 0.937007874015748
          },
          {
            "number": 2,
            "time": 45.902499999999016,
            "value": 0.9291338582677166
          },
          {
            "number": 2,
            "time": 45.904374999999014,
            "value": 0.9212598425196851
          },
          {
            "number": 2,
            "time": 45.90624999999901,
            "value": 0.9133858267716536
          },
          {
            "number": 2,
            "time": 45.90812499999901,
            "value": 0.905511811023622
          },
          {
            "number": 2,
            "time": 45.90999999999901,
            "value": 0.8976377952755905
          },
          {
            "number": 2,
            "time": 45.91187499999901,
            "value": 0.889763779527559
          },
          {
            "number": 2,
            "time": 45.913749999999006,
            "value": 0.8818897637795275
          },
          {
            "number": 2,
            "time": 45.915624999999004,
            "value": 0.8740157480314961
          },
          {
            "number": 2,
            "time": 45.917499999999,
            "value": 0.8661417322834646
          },
          {
            "number": 2,
            "time": 45.919374999999,
            "value": 0.8582677165354331
          },
          {
            "number": 2,
            "time": 45.921249999999,
            "value": 0.8503937007874016
          },
          {
            "number": 2,
            "time": 45.923124999999,
            "value": 0.84251968503937
          },
          {
            "number": 2,
            "time": 45.924999999998995,
            "value": 0.8346456692913385
          },
          {
            "number": 2,
            "time": 45.926874999998994,
            "value": 0.8267716535433071
          },
          {
            "number": 2,
            "time": 45.92874999999899,
            "value": 0.8188976377952756
          },
          {
            "number": 2,
            "time": 45.93062499999899,
            "value": 0.8110236220472441
          },
          {
            "number": 2,
            "time": 45.93249999999899,
            "value": 0.8031496062992126
          },
          {
            "number": 2,
            "time": 45.93437499999899,
            "value": 0.7952755905511811
          },
          {
            "number": 2,
            "time": 45.936249999998985,
            "value": 0.7874015748031497
          },
          {
            "number": 2,
            "time": 45.93812499999898,
            "value": 0.7795275590551181
          },
          {
            "number": 2,
            "time": 45.93999999999898,
            "value": 0.7716535433070866
          },
          {
            "number": 2,
            "time": 45.94187499999898,
            "value": 0.7637795275590551
          },
          {
            "number": 2,
            "time": 45.94374999999898,
            "value": 0.7559055118110236
          },
          {
            "number": 2,
            "time": 45.94562499999898,
            "value": 0.7480314960629921
          },
          {
            "number": 2,
            "time": 45.947499999998975,
            "value": 0.7401574803149606
          },
          {
            "number": 2,
            "time": 45.94937499999897,
            "value": 0.7322834645669292
          },
          {
            "number": 2,
            "time": 45.95124999999897,
            "value": 0.7244094488188977
          },
          {
            "number": 2,
            "time": 45.95312499999897,
            "value": 0.7165354330708661
          },
          {
            "number": 2,
            "time": 45.95499999999897,
            "value": 0.7086614173228346
          },
          {
            "number": 2,
            "time": 45.956874999998966,
            "value": 0.7007874015748031
          },
          {
            "number": 2,
            "time": 45.958749999998965,
            "value": 0.6929133858267716
          },
          {
            "number": 2,
            "time": 45.96062499999896,
            "value": 0.6850393700787402
          },
          {
            "number": 2,
            "time": 45.96249999999896,
            "value": 0.6771653543307087
          },
          {
            "number": 2,
            "time": 45.96437499999896,
            "value": 0.6692913385826772
          },
          {
            "number": 2,
            "time": 45.96624999999896,
            "value": 0.6614173228346457
          },
          {
            "number": 2,
            "time": 45.968124999998956,
            "value": 0.6535433070866141
          },
          {
            "number": 2,
            "time": 45.969999999998954,
            "value": 0.6456692913385826
          },
          {
            "number": 2,
            "time": 45.97187499999895,
            "value": 0.6377952755905512
          },
          {
            "number": 2,
            "time": 45.97374999999895,
            "value": 0.6299212598425197
          },
          {
            "number": 2,
            "time": 46.04999999999895,
            "value": 0.6299212598425197
          },
          {
            "number": 2,
            "time": 46.19999999999895,
            "value": 0.6299212598425197
          },
          {
            "number": 2,
            "time": 46.34999999999895,
            "value": 0.6299212598425197
          },
          {
            "number": 2,
            "time": 46.34999999999895,
            "value": 0.9448818897637795
          },
          {
            "number": 2,
            "time": 46.35062499999895,
            "value": 0.937007874015748
          },
          {
            "number": 2,
            "time": 46.35124999999895,
            "value": 0.937007874015748
          },
          {
            "number": 2,
            "time": 46.35187499999895,
            "value": 0.937007874015748
          },
          {
            "number": 2,
            "time": 46.35249999999895,
            "value": 0.9291338582677166
          },
          {
            "number": 2,
            "time": 46.35312499999895,
            "value": 0.9291338582677166
          },
          {
            "number": 2,
            "time": 46.353749999998946,
            "value": 0.9291338582677166
          },
          {
            "number": 2,
            "time": 46.354374999998946,
            "value": 0.9212598425196851
          },
          {
            "number": 2,
            "time": 46.354999999998945,
            "value": 0.9212598425196851
          },
          {
            "number": 2,
            "time": 46.355624999998945,
            "value": 0.9212598425196851
          },
          {
            "number": 2,
            "time": 46.356249999998944,
            "value": 0.9133858267716536
          },
          {
            "number": 2,
            "time": 46.356874999998944,
            "value": 0.9133858267716536
          },
          {
            "number": 2,
            "time": 46.35749999999894,
            "value": 0.9133858267716536
          },
          {
            "number": 2,
            "time": 46.35812499999894,
            "value": 0.905511811023622
          },
          {
            "number": 2,
            "time": 46.35874999999894,
            "value": 0.905511811023622
          },
          {
            "number": 2,
            "time": 46.35937499999894,
            "value": 0.905511811023622
          },
          {
            "number": 2,
            "time": 46.35999999999894,
            "value": 0.8976377952755905
          },
          {
            "number": 2,
            "time": 46.36062499999894,
            "value": 0.8976377952755905
          },
          {
            "number": 2,
            "time": 46.36124999999894,
            "value": 0.8976377952755905
          },
          {
            "number": 2,
            "time": 46.36187499999894,
            "value": 0.889763779527559
          },
          {
            "number": 2,
            "time": 46.36249999999894,
            "value": 0.889763779527559
          },
          {
            "number": 2,
            "time": 46.36312499999894,
            "value": 0.889763779527559
          },
          {
            "number": 2,
            "time": 46.36374999999894,
            "value": 0.8818897637795275
          },
          {
            "number": 2,
            "time": 46.36437499999894,
            "value": 0.8818897637795275
          },
          {
            "number": 2,
            "time": 46.364999999998936,
            "value": 0.8818897637795275
          },
          {
            "number": 2,
            "time": 46.365624999998936,
            "value": 0.8740157480314961
          },
          {
            "number": 2,
            "time": 46.366249999998935,
            "value": 0.8740157480314961
          },
          {
            "number": 2,
            "time": 46.366874999998934,
            "value": 0.8740157480314961
          },
          {
            "number": 2,
            "time": 46.367499999998934,
            "value": 0.8661417322834646
          },
          {
            "number": 2,
            "time": 46.36812499999893,
            "value": 0.8661417322834646
          },
          {
            "number": 2,
            "time": 46.36874999999893,
            "value": 0.8661417322834646
          },
          {
            "number": 2,
            "time": 46.36937499999893,
            "value": 0.8582677165354331
          },
          {
            "number": 2,
            "time": 46.36999999999893,
            "value": 0.8582677165354331
          },
          {
            "number": 2,
            "time": 46.37062499999893,
            "value": 0.8582677165354331
          },
          {
            "number": 2,
            "time": 46.37124999999893,
            "value": 0.8503937007874016
          },
          {
            "number": 2,
            "time": 46.37187499999893,
            "value": 0.8503937007874016
          },
          {
            "number": 2,
            "time": 46.37249999999893,
            "value": 0.8503937007874016
          },
          {
            "number": 2,
            "time": 46.37312499999893,
            "value": 0.84251968503937
          },
          {
            "number": 2,
            "time": 46.37374999999893,
            "value": 0.84251968503937
          },
          {
            "number": 2,
            "time": 46.37437499999893,
            "value": 0.84251968503937
          },
          {
            "number": 2,
            "time": 46.37499999999893,
            "value": 0.8346456692913385
          },
          {
            "number": 2,
            "time": 46.37562499999893,
            "value": 0.8346456692913385
          },
          {
            "number": 2,
            "time": 46.376249999998926,
            "value": 0.8346456692913385
          },
          {
            "number": 2,
            "time": 46.376874999998925,
            "value": 0.8267716535433071
          },
          {
            "number": 2,
            "time": 46.377499999998925,
            "value": 0.8267716535433071
          },
          {
            "number": 2,
            "time": 46.378124999998924,
            "value": 0.8267716535433071
          },
          {
            "number": 2,
            "time": 46.378749999998924,
            "value": 0.8188976377952756
          },
          {
            "number": 2,
            "time": 46.37937499999892,
            "value": 0.8188976377952756
          },
          {
            "number": 2,
            "time": 46.37999999999892,
            "value": 0.8188976377952756
          },
          {
            "number": 2,
            "time": 46.38062499999892,
            "value": 0.8110236220472441
          },
          {
            "number": 2,
            "time": 46.38124999999892,
            "value": 0.8110236220472441
          },
          {
            "number": 2,
            "time": 46.38187499999892,
            "value": 0.8110236220472441
          },
          {
            "number": 2,
            "time": 46.38249999999892,
            "value": 0.8031496062992126
          },
          {
            "number": 2,
            "time": 46.38312499999892,
            "value": 0.8031496062992126
          },
          {
            "number": 2,
            "time": 46.38374999999892,
            "value": 0.8031496062992126
          },
          {
            "number": 2,
            "time": 46.38437499999892,
            "value": 0.7952755905511811
          },
          {
            "number": 2,
            "time": 46.38499999999892,
            "value": 0.7952755905511811
          },
          {
            "number": 2,
            "time": 46.38562499999892,
            "value": 0.7952755905511811
          },
          {
            "number": 2,
            "time": 46.38624999999892,
            "value": 0.7874015748031497
          },
          {
            "number": 2,
            "time": 46.386874999998916,
            "value": 0.7874015748031497
          },
          {
            "number": 2,
            "time": 46.387499999998916,
            "value": 0.7874015748031497
          },
          {
            "number": 2,
            "time": 46.388124999998915,
            "value": 0.7795275590551181
          },
          {
            "number": 2,
            "time": 46.388749999998915,
            "value": 0.7795275590551181
          },
          {
            "number": 2,
            "time": 46.389374999998914,
            "value": 0.7795275590551181
          },
          {
            "number": 2,
            "time": 46.38999999999891,
            "value": 0.7716535433070866
          },
          {
            "number": 2,
            "time": 46.39062499999891,
            "value": 0.7716535433070866
          },
          {
            "number": 2,
            "time": 46.39124999999891,
            "value": 0.7716535433070866
          },
          {
            "number": 2,
            "time": 46.39187499999891,
            "value": 0.7637795275590551
          },
          {
            "number": 2,
            "time": 46.39249999999891,
            "value": 0.7637795275590551
          },
          {
            "number": 2,
            "time": 46.39312499999891,
            "value": 0.7637795275590551
          },
          {
            "number": 2,
            "time": 46.39374999999891,
            "value": 0.7559055118110236
          },
          {
            "number": 2,
            "time": 46.39437499999891,
            "value": 0.7559055118110236
          },
          {
            "number": 2,
            "time": 46.39499999999891,
            "value": 0.7559055118110236
          },
          {
            "number": 2,
            "time": 46.39562499999891,
            "value": 0.7480314960629921
          },
          {
            "number": 2,
            "time": 46.39624999999891,
            "value": 0.7480314960629921
          },
          {
            "number": 2,
            "time": 46.39687499999891,
            "value": 0.7480314960629921
          },
          {
            "number": 2,
            "time": 46.39749999999891,
            "value": 0.7401574803149606
          },
          {
            "number": 2,
            "time": 46.398124999998906,
            "value": 0.7401574803149606
          },
          {
            "number": 2,
            "time": 46.398749999998905,
            "value": 0.7401574803149606
          },
          {
            "number": 2,
            "time": 46.399374999998905,
            "value": 0.7322834645669292
          },
          {
            "number": 2,
            "time": 46.399999999998904,
            "value": 0.7322834645669292
          },
          {
            "number": 2,
            "time": 46.400624999998904,
            "value": 0.7322834645669292
          },
          {
            "number": 2,
            "time": 46.4012499999989,
            "value": 0.7244094488188977
          },
          {
            "number": 2,
            "time": 46.4018749999989,
            "value": 0.7244094488188977
          },
          {
            "number": 2,
            "time": 46.4024999999989,
            "value": 0.7244094488188977
          },
          {
            "number": 2,
            "time": 46.4031249999989,
            "value": 0.7165354330708661
          },
          {
            "number": 2,
            "time": 46.4037499999989,
            "value": 0.7165354330708661
          },
          {
            "number": 2,
            "time": 46.4043749999989,
            "value": 0.7165354330708661
          },
          {
            "number": 2,
            "time": 46.4049999999989,
            "value": 0.7086614173228346
          },
          {
            "number": 2,
            "time": 46.4056249999989,
            "value": 0.7086614173228346
          },
          {
            "number": 2,
            "time": 46.4062499999989,
            "value": 0.7086614173228346
          },
          {
            "number": 2,
            "time": 46.4068749999989,
            "value": 0.7007874015748031
          },
          {
            "number": 2,
            "time": 46.4074999999989,
            "value": 0.7007874015748031
          },
          {
            "number": 2,
            "time": 46.4081249999989,
            "value": 0.7007874015748031
          },
          {
            "number": 2,
            "time": 46.408749999998896,
            "value": 0.6929133858267716
          },
          {
            "number": 2,
            "time": 46.409374999998896,
            "value": 0.6929133858267716
          },
          {
            "number": 2,
            "time": 46.409999999998895,
            "value": 0.6929133858267716
          },
          {
            "number": 2,
            "time": 46.410624999998895,
            "value": 0.6850393700787402
          },
          {
            "number": 2,
            "time": 46.411249999998894,
            "value": 0.6850393700787402
          },
          {
            "number": 2,
            "time": 46.41187499999889,
            "value": 0.6850393700787402
          },
          {
            "number": 2,
            "time": 46.41249999999889,
            "value": 0.6771653543307087
          },
          {
            "number": 2,
            "time": 46.41312499999889,
            "value": 0.6771653543307087
          },
          {
            "number": 2,
            "time": 46.41374999999889,
            "value": 0.6771653543307087
          },
          {
            "number": 2,
            "time": 46.41437499999889,
            "value": 0.6692913385826772
          },
          {
            "number": 2,
            "time": 46.41499999999889,
            "value": 0.6692913385826772
          },
          {
            "number": 2,
            "time": 46.41562499999889,
            "value": 0.6692913385826772
          },
          {
            "number": 2,
            "time": 46.41624999999889,
            "value": 0.6614173228346457
          },
          {
            "number": 2,
            "time": 46.41687499999889,
            "value": 0.6614173228346457
          },
          {
            "number": 2,
            "time": 46.41749999999889,
            "value": 0.6614173228346457
          },
          {
            "number": 2,
            "time": 46.41812499999889,
            "value": 0.6535433070866141
          },
          {
            "number": 2,
            "time": 46.41874999999889,
            "value": 0.6535433070866141
          },
          {
            "number": 2,
            "time": 46.41937499999889,
            "value": 0.6535433070866141
          },
          {
            "number": 2,
            "time": 46.419999999998886,
            "value": 0.6456692913385826
          },
          {
            "number": 2,
            "time": 46.420624999998886,
            "value": 0.6456692913385826
          },
          {
            "number": 2,
            "time": 46.421249999998885,
            "value": 0.6456692913385826
          },
          {
            "number": 2,
            "time": 46.421874999998884,
            "value": 0.6377952755905512
          },
          {
            "number": 2,
            "time": 46.422499999998884,
            "value": 0.6377952755905512
          },
          {
            "number": 2,
            "time": 46.42312499999888,
            "value": 0.6377952755905512
          },
          {
            "number": 2,
            "time": 46.42374999999888,
            "value": 0.6299212598425197
          },
          {
            "number": 2,
            "time": 46.42437499999888,
            "value": 0.6299212598425197
          },
          {
            "number": 2,
            "time": 46.499999999998884,
            "value": 0.6299212598425197
          },
          {
            "number": 2,
            "time": 46.64999999999888,
            "value": 0.6299212598425197
          },
          {
            "number": 2,
            "time": 46.79999999999888,
            "value": 0.9448818897637795
          },
          {
            "number": 2,
            "time": 46.80062499999888,
            "value": 0.937007874015748
          },
          {
            "number": 2,
            "time": 46.80124999999888,
            "value": 0.937007874015748
          },
          {
            "number": 2,
            "time": 46.80187499999888,
            "value": 0.937007874015748
          },
          {
            "number": 2,
            "time": 46.80249999999888,
            "value": 0.9291338582677166
          },
          {
            "number": 2,
            "time": 46.80312499999888,
            "value": 0.9291338582677166
          },
          {
            "number": 2,
            "time": 46.80374999999888,
            "value": 0.9291338582677166
          },
          {
            "number": 2,
            "time": 46.80437499999888,
            "value": 0.9212598425196851
          },
          {
            "number": 2,
            "time": 46.80499999999888,
            "value": 0.9212598425196851
          },
          {
            "number": 2,
            "time": 46.80562499999888,
            "value": 0.9212598425196851
          },
          {
            "number": 2,
            "time": 46.806249999998876,
            "value": 0.9133858267716536
          },
          {
            "number": 2,
            "time": 46.806874999998875,
            "value": 0.9133858267716536
          },
          {
            "number": 2,
            "time": 46.807499999998875,
            "value": 0.9133858267716536
          },
          {
            "number": 2,
            "time": 46.808124999998874,
            "value": 0.905511811023622
          },
          {
            "number": 2,
            "time": 46.808749999998874,
            "value": 0.905511811023622
          },
          {
            "number": 2,
            "time": 46.80937499999887,
            "value": 0.905511811023622
          },
          {
            "number": 2,
            "time": 46.80999999999887,
            "value": 0.8976377952755905
          },
          {
            "number": 2,
            "time": 46.81062499999887,
            "value": 0.8976377952755905
          },
          {
            "number": 2,
            "time": 46.81124999999887,
            "value": 0.8976377952755905
          },
          {
            "number": 2,
            "time": 46.81187499999887,
            "value": 0.889763779527559
          },
          {
            "number": 2,
            "time": 46.81249999999887,
            "value": 0.889763779527559
          },
          {
            "number": 2,
            "time": 46.81312499999887,
            "value": 0.889763779527559
          },
          {
            "number": 2,
            "time": 46.81374999999887,
            "value": 0.8818897637795275
          },
          {
            "number": 2,
            "time": 46.81437499999887,
            "value": 0.8818897637795275
          },
          {
            "number": 2,
            "time": 46.81499999999887,
            "value": 0.8818897637795275
          },
          {
            "number": 2,
            "time": 46.81562499999887,
            "value": 0.8740157480314961
          },
          {
            "number": 2,
            "time": 46.81624999999887,
            "value": 0.8740157480314961
          },
          {
            "number": 2,
            "time": 46.816874999998866,
            "value": 0.8740157480314961
          },
          {
            "number": 2,
            "time": 46.817499999998866,
            "value": 0.8661417322834646
          },
          {
            "number": 2,
            "time": 46.818124999998865,
            "value": 0.8661417322834646
          },
          {
            "number": 2,
            "time": 46.818749999998865,
            "value": 0.8661417322834646
          },
          {
            "number": 2,
            "time": 46.819374999998864,
            "value": 0.8582677165354331
          },
          {
            "number": 2,
            "time": 46.81999999999886,
            "value": 0.8582677165354331
          },
          {
            "number": 2,
            "time": 46.82062499999886,
            "value": 0.8582677165354331
          },
          {
            "number": 2,
            "time": 46.82124999999886,
            "value": 0.8503937007874016
          },
          {
            "number": 2,
            "time": 46.82187499999886,
            "value": 0.8503937007874016
          },
          {
            "number": 2,
            "time": 46.82249999999886,
            "value": 0.8503937007874016
          },
          {
            "number": 2,
            "time": 46.82312499999886,
            "value": 0.84251968503937
          },
          {
            "number": 2,
            "time": 46.82374999999886,
            "value": 0.84251968503937
          },
          {
            "number": 2,
            "time": 46.82437499999886,
            "value": 0.84251968503937
          },
          {
            "number": 2,
            "time": 46.82499999999886,
            "value": 0.8346456692913385
          },
          {
            "number": 2,
            "time": 46.82562499999886,
            "value": 0.8346456692913385
          },
          {
            "number": 2,
            "time": 46.82624999999886,
            "value": 0.8346456692913385
          },
          {
            "number": 2,
            "time": 46.82687499999886,
            "value": 0.8267716535433071
          },
          {
            "number": 2,
            "time": 46.82749999999886,
            "value": 0.8267716535433071
          },
          {
            "number": 2,
            "time": 46.828124999998856,
            "value": 0.8267716535433071
          },
          {
            "number": 2,
            "time": 46.828749999998855,
            "value": 0.8188976377952756
          },
          {
            "number": 2,
            "time": 46.829374999998855,
            "value": 0.8188976377952756
          },
          {
            "number": 2,
            "time": 46.829999999998854,
            "value": 0.8188976377952756
          },
          {
            "number": 2,
            "time": 46.830624999998854,
            "value": 0.8110236220472441
          },
          {
            "number": 2,
            "time": 46.83124999999885,
            "value": 0.8110236220472441
          },
          {
            "number": 2,
            "time": 46.83187499999885,
            "value": 0.8110236220472441
          },
          {
            "number": 2,
            "time": 46.83249999999885,
            "value": 0.8031496062992126
          },
          {
            "number": 2,
            "time": 46.83312499999885,
            "value": 0.8031496062992126
          },
          {
            "number": 2,
            "time": 46.83374999999885,
            "value": 0.8031496062992126
          },
          {
            "number": 2,
            "time": 46.83437499999885,
            "value": 0.7952755905511811
          },
          {
            "number": 2,
            "time": 46.83499999999885,
            "value": 0.7952755905511811
          },
          {
            "number": 2,
            "time": 46.83562499999885,
            "value": 0.7952755905511811
          },
          {
            "number": 2,
            "time": 46.83624999999885,
            "value": 0.7874015748031497
          },
          {
            "number": 2,
            "time": 46.83687499999885,
            "value": 0.7874015748031497
          },
          {
            "number": 2,
            "time": 46.83749999999885,
            "value": 0.7874015748031497
          },
          {
            "number": 2,
            "time": 46.83812499999885,
            "value": 0.7795275590551181
          },
          {
            "number": 2,
            "time": 46.838749999998846,
            "value": 0.7795275590551181
          },
          {
            "number": 2,
            "time": 46.839374999998846,
            "value": 0.7795275590551181
          },
          {
            "number": 2,
            "time": 46.839999999998845,
            "value": 0.7716535433070866
          },
          {
            "number": 2,
            "time": 46.840624999998845,
            "value": 0.7716535433070866
          },
          {
            "number": 2,
            "time": 46.841249999998844,
            "value": 0.7716535433070866
          },
          {
            "number": 2,
            "time": 46.84187499999884,
            "value": 0.7637795275590551
          },
          {
            "number": 2,
            "time": 46.84249999999884,
            "value": 0.7637795275590551
          },
          {
            "number": 2,
            "time": 46.84312499999884,
            "value": 0.7637795275590551
          },
          {
            "number": 2,
            "time": 46.84374999999884,
            "value": 0.7559055118110236
          },
          {
            "number": 2,
            "time": 46.84437499999884,
            "value": 0.7559055118110236
          },
          {
            "number": 2,
            "time": 46.84499999999884,
            "value": 0.7559055118110236
          },
          {
            "number": 2,
            "time": 46.84562499999884,
            "value": 0.7480314960629921
          },
          {
            "number": 2,
            "time": 46.84624999999884,
            "value": 0.7480314960629921
          },
          {
            "number": 2,
            "time": 46.84687499999884,
            "value": 0.7480314960629921
          },
          {
            "number": 2,
            "time": 46.84749999999884,
            "value": 0.7401574803149606
          },
          {
            "number": 2,
            "time": 46.84812499999884,
            "value": 0.7401574803149606
          },
          {
            "number": 2,
            "time": 46.84874999999884,
            "value": 0.7401574803149606
          },
          {
            "number": 2,
            "time": 46.84937499999884,
            "value": 0.7322834645669292
          },
          {
            "number": 2,
            "time": 46.849999999998836,
            "value": 0.7322834645669292
          },
          {
            "number": 2,
            "time": 46.850624999998836,
            "value": 0.7322834645669292
          },
          {
            "number": 2,
            "time": 46.851249999998835,
            "value": 0.7244094488188977
          },
          {
            "number": 2,
            "time": 46.851874999998834,
            "value": 0.7244094488188977
          },
          {
            "number": 2,
            "time": 46.852499999998834,
            "value": 0.7244094488188977
          },
          {
            "number": 2,
            "time": 46.85312499999883,
            "value": 0.7165354330708661
          },
          {
            "number": 2,
            "time": 46.85374999999883,
            "value": 0.7165354330708661
          },
          {
            "number": 2,
            "time": 46.85437499999883,
            "value": 0.7165354330708661
          },
          {
            "number": 2,
            "time": 46.85499999999883,
            "value": 0.7086614173228346
          },
          {
            "number": 2,
            "time": 46.85562499999883,
            "value": 0.7086614173228346
          },
          {
            "number": 2,
            "time": 46.85624999999883,
            "value": 0.7086614173228346
          },
          {
            "number": 2,
            "time": 46.85687499999883,
            "value": 0.7007874015748031
          },
          {
            "number": 2,
            "time": 46.85749999999883,
            "value": 0.7007874015748031
          },
          {
            "number": 2,
            "time": 46.85812499999883,
            "value": 0.7007874015748031
          },
          {
            "number": 2,
            "time": 46.85874999999883,
            "value": 0.6929133858267716
          },
          {
            "number": 2,
            "time": 46.85937499999883,
            "value": 0.6929133858267716
          },
          {
            "number": 2,
            "time": 46.85999999999883,
            "value": 0.6929133858267716
          },
          {
            "number": 2,
            "time": 46.86062499999883,
            "value": 0.6850393700787402
          },
          {
            "number": 2,
            "time": 46.861249999998826,
            "value": 0.6850393700787402
          },
          {
            "number": 2,
            "time": 46.861874999998825,
            "value": 0.6850393700787402
          },
          {
            "number": 2,
            "time": 46.862499999998825,
            "value": 0.6771653543307087
          },
          {
            "number": 2,
            "time": 46.863124999998824,
            "value": 0.6771653543307087
          },
          {
            "number": 2,
            "time": 46.863749999998824,
            "value": 0.6771653543307087
          },
          {
            "number": 2,
            "time": 46.86437499999882,
            "value": 0.6692913385826772
          },
          {
            "number": 2,
            "time": 46.86499999999882,
            "value": 0.6692913385826772
          },
          {
            "number": 2,
            "time": 46.86562499999882,
            "value": 0.6692913385826772
          },
          {
            "number": 2,
            "time": 46.86624999999882,
            "value": 0.6614173228346457
          },
          {
            "number": 2,
            "time": 46.86687499999882,
            "value": 0.6614173228346457
          },
          {
            "number": 2,
            "time": 46.86749999999882,
            "value": 0.6614173228346457
          },
          {
            "number": 2,
            "time": 46.86812499999882,
            "value": 0.6535433070866141
          },
          {
            "number": 2,
            "time": 46.86874999999882,
            "value": 0.6535433070866141
          },
          {
            "number": 2,
            "time": 46.86937499999882,
            "value": 0.6535433070866141
          },
          {
            "number": 2,
            "time": 46.86999999999882,
            "value": 0.6456692913385826
          },
          {
            "number": 2,
            "time": 46.87062499999882,
            "value": 0.6456692913385826
          },
          {
            "number": 2,
            "time": 46.87124999999882,
            "value": 0.6456692913385826
          },
          {
            "number": 2,
            "time": 46.871874999998816,
            "value": 0.6377952755905512
          },
          {
            "number": 2,
            "time": 46.872499999998816,
            "value": 0.6377952755905512
          },
          {
            "number": 2,
            "time": 46.873124999998815,
            "value": 0.6377952755905512
          },
          {
            "number": 2,
            "time": 46.873749999998815,
            "value": 0.6299212598425197
          },
          {
            "number": 2,
            "time": 46.874374999998814,
            "value": 0.6299212598425197
          },
          {
            "number": 2,
            "time": 46.949999999998816,
            "value": 0.6299212598425197
          },
          {
            "number": 2,
            "time": 47.099999999998815,
            "value": 0.6299212598425197
          },
          {
            "number": 2,
            "time": 47.24999999999881,
            "value": 0.6299212598425197
          },
          {
            "number": 2,
            "time": 48.14999999999881,
            "value": 0.6299212598425197
          },
          {
            "number": 2,
            "time": 49.04999999999881,
            "value": 0.6299212598425197
          },
          {
            "number": 2,
            "time": 49.94999999999881,
            "value": 0.6299212598425197
          },
          {
            "number": 2,
            "time": 50.84999999999881,
            "value": 0.6299212598425197
          },
          {
            "number": 2,
            "time": 51.749999999998806,
            "value": 0.6299212598425197
          },
          {
            "number": 2,
            "time": 52.649999999998805,
            "value": 0.6299212598425197
          },
          {
            "number": 2,
            "time": 53.09999999999881,
            "value": 0.6299212598425197
          },
          {
            "number": 2,
            "time": 53.54999999999881,
            "value": 0.9448818897637795
          },
          {
            "number": 2,
            "time": 53.55062499999881,
            "value": 0.937007874015748
          },
          {
            "number": 2,
            "time": 53.55124999999881,
            "value": 0.937007874015748
          },
          {
            "number": 2,
            "time": 53.55187499999881,
            "value": 0.937007874015748
          },
          {
            "number": 2,
            "time": 53.55249999999881,
            "value": 0.9291338582677166
          },
          {
            "number": 2,
            "time": 53.55312499999881,
            "value": 0.9291338582677166
          },
          {
            "number": 2,
            "time": 53.55374999999881,
            "value": 0.9291338582677166
          },
          {
            "number": 2,
            "time": 53.55437499999881,
            "value": 0.9212598425196851
          },
          {
            "number": 2,
            "time": 53.554999999998806,
            "value": 0.9212598425196851
          },
          {
            "number": 2,
            "time": 53.555624999998805,
            "value": 0.9212598425196851
          },
          {
            "number": 2,
            "time": 53.556249999998805,
            "value": 0.9133858267716536
          },
          {
            "number": 2,
            "time": 53.556874999998804,
            "value": 0.9133858267716536
          },
          {
            "number": 2,
            "time": 53.557499999998804,
            "value": 0.9133858267716536
          },
          {
            "number": 2,
            "time": 53.5581249999988,
            "value": 0.905511811023622
          },
          {
            "number": 2,
            "time": 53.5587499999988,
            "value": 0.905511811023622
          },
          {
            "number": 2,
            "time": 53.5593749999988,
            "value": 0.905511811023622
          },
          {
            "number": 2,
            "time": 53.5599999999988,
            "value": 0.8976377952755905
          },
          {
            "number": 2,
            "time": 53.5606249999988,
            "value": 0.8976377952755905
          },
          {
            "number": 2,
            "time": 53.5612499999988,
            "value": 0.8976377952755905
          },
          {
            "number": 2,
            "time": 53.5618749999988,
            "value": 0.889763779527559
          },
          {
            "number": 2,
            "time": 53.5624999999988,
            "value": 0.889763779527559
          },
          {
            "number": 2,
            "time": 53.5631249999988,
            "value": 0.889763779527559
          },
          {
            "number": 2,
            "time": 53.5637499999988,
            "value": 0.8818897637795275
          },
          {
            "number": 2,
            "time": 53.5643749999988,
            "value": 0.8818897637795275
          },
          {
            "number": 2,
            "time": 53.5649999999988,
            "value": 0.8818897637795275
          },
          {
            "number": 2,
            "time": 53.565624999998796,
            "value": 0.8740157480314961
          },
          {
            "number": 2,
            "time": 53.566249999998796,
            "value": 0.8740157480314961
          },
          {
            "number": 2,
            "time": 53.566874999998795,
            "value": 0.8740157480314961
          },
          {
            "number": 2,
            "time": 53.567499999998795,
            "value": 0.8661417322834646
          },
          {
            "number": 2,
            "time": 53.568124999998794,
            "value": 0.8661417322834646
          },
          {
            "number": 2,
            "time": 53.56874999999879,
            "value": 0.8661417322834646
          },
          {
            "number": 2,
            "time": 53.56937499999879,
            "value": 0.8582677165354331
          },
          {
            "number": 2,
            "time": 53.56999999999879,
            "value": 0.8582677165354331
          },
          {
            "number": 2,
            "time": 53.57062499999879,
            "value": 0.8582677165354331
          },
          {
            "number": 2,
            "time": 53.57124999999879,
            "value": 0.8503937007874016
          },
          {
            "number": 2,
            "time": 53.57187499999879,
            "value": 0.8503937007874016
          },
          {
            "number": 2,
            "time": 53.57249999999879,
            "value": 0.8503937007874016
          },
          {
            "number": 2,
            "time": 53.57312499999879,
            "value": 0.84251968503937
          },
          {
            "number": 2,
            "time": 53.57374999999879,
            "value": 0.84251968503937
          },
          {
            "number": 2,
            "time": 53.57437499999879,
            "value": 0.84251968503937
          },
          {
            "number": 2,
            "time": 53.57499999999879,
            "value": 0.8346456692913385
          },
          {
            "number": 2,
            "time": 53.57562499999879,
            "value": 0.8346456692913385
          },
          {
            "number": 2,
            "time": 53.57624999999879,
            "value": 0.8346456692913385
          },
          {
            "number": 2,
            "time": 53.576874999998786,
            "value": 0.8267716535433071
          },
          {
            "number": 2,
            "time": 53.577499999998786,
            "value": 0.8267716535433071
          },
          {
            "number": 2,
            "time": 53.578124999998785,
            "value": 0.8267716535433071
          },
          {
            "number": 2,
            "time": 53.578749999998784,
            "value": 0.8188976377952756
          },
          {
            "number": 2,
            "time": 53.579374999998784,
            "value": 0.8188976377952756
          },
          {
            "number": 2,
            "time": 53.57999999999878,
            "value": 0.8188976377952756
          },
          {
            "number": 2,
            "time": 53.58062499999878,
            "value": 0.8110236220472441
          },
          {
            "number": 2,
            "time": 53.58124999999878,
            "value": 0.8110236220472441
          },
          {
            "number": 2,
            "time": 53.58187499999878,
            "value": 0.8110236220472441
          },
          {
            "number": 2,
            "time": 53.58249999999878,
            "value": 0.8031496062992126
          },
          {
            "number": 2,
            "time": 53.58312499999878,
            "value": 0.8031496062992126
          },
          {
            "number": 2,
            "time": 53.58374999999878,
            "value": 0.8031496062992126
          },
          {
            "number": 2,
            "time": 53.58437499999878,
            "value": 0.7952755905511811
          },
          {
            "number": 2,
            "time": 53.58499999999878,
            "value": 0.7952755905511811
          },
          {
            "number": 2,
            "time": 53.58562499999878,
            "value": 0.7952755905511811
          },
          {
            "number": 2,
            "time": 53.58624999999878,
            "value": 0.7874015748031497
          },
          {
            "number": 2,
            "time": 53.58687499999878,
            "value": 0.7874015748031497
          },
          {
            "number": 2,
            "time": 53.587499999998776,
            "value": 0.7874015748031497
          },
          {
            "number": 2,
            "time": 53.588124999998776,
            "value": 0.7795275590551181
          },
          {
            "number": 2,
            "time": 53.588749999998775,
            "value": 0.7795275590551181
          },
          {
            "number": 2,
            "time": 53.589374999998775,
            "value": 0.7795275590551181
          },
          {
            "number": 2,
            "time": 53.589999999998774,
            "value": 0.7716535433070866
          },
          {
            "number": 2,
            "time": 53.590624999998774,
            "value": 0.7716535433070866
          },
          {
            "number": 2,
            "time": 53.59124999999877,
            "value": 0.7716535433070866
          },
          {
            "number": 2,
            "time": 53.59187499999877,
            "value": 0.7637795275590551
          },
          {
            "number": 2,
            "time": 53.59249999999877,
            "value": 0.7637795275590551
          },
          {
            "number": 2,
            "time": 53.59312499999877,
            "value": 0.7637795275590551
          },
          {
            "number": 2,
            "time": 53.59374999999877,
            "value": 0.7559055118110236
          },
          {
            "number": 2,
            "time": 53.59437499999877,
            "value": 0.7559055118110236
          },
          {
            "number": 2,
            "time": 53.59499999999877,
            "value": 0.7559055118110236
          },
          {
            "number": 2,
            "time": 53.59562499999877,
            "value": 0.7480314960629921
          },
          {
            "number": 2,
            "time": 53.59624999999877,
            "value": 0.7480314960629921
          },
          {
            "number": 2,
            "time": 53.59687499999877,
            "value": 0.7480314960629921
          },
          {
            "number": 2,
            "time": 53.59749999999877,
            "value": 0.7401574803149606
          },
          {
            "number": 2,
            "time": 53.59812499999877,
            "value": 0.7401574803149606
          },
          {
            "number": 2,
            "time": 53.598749999998766,
            "value": 0.7401574803149606
          },
          {
            "number": 2,
            "time": 53.599374999998766,
            "value": 0.7322834645669292
          },
          {
            "number": 2,
            "time": 53.599999999998765,
            "value": 0.7322834645669292
          },
          {
            "number": 2,
            "time": 53.600624999998765,
            "value": 0.7322834645669292
          },
          {
            "number": 2,
            "time": 53.601249999998764,
            "value": 0.7244094488188977
          },
          {
            "number": 2,
            "time": 53.60187499999876,
            "value": 0.7244094488188977
          },
          {
            "number": 2,
            "time": 53.60249999999876,
            "value": 0.7244094488188977
          },
          {
            "number": 2,
            "time": 53.60312499999876,
            "value": 0.7165354330708661
          },
          {
            "number": 2,
            "time": 53.60374999999876,
            "value": 0.7165354330708661
          },
          {
            "number": 2,
            "time": 53.60437499999876,
            "value": 0.7165354330708661
          },
          {
            "number": 2,
            "time": 53.60499999999876,
            "value": 0.7086614173228346
          },
          {
            "number": 2,
            "time": 53.60562499999876,
            "value": 0.7086614173228346
          },
          {
            "number": 2,
            "time": 53.60624999999876,
            "value": 0.7086614173228346
          },
          {
            "number": 2,
            "time": 53.60687499999876,
            "value": 0.7007874015748031
          },
          {
            "number": 2,
            "time": 53.60749999999876,
            "value": 0.7007874015748031
          },
          {
            "number": 2,
            "time": 53.60812499999876,
            "value": 0.7007874015748031
          },
          {
            "number": 2,
            "time": 53.60874999999876,
            "value": 0.6929133858267716
          },
          {
            "number": 2,
            "time": 53.60937499999876,
            "value": 0.6929133858267716
          },
          {
            "number": 2,
            "time": 53.609999999998756,
            "value": 0.6929133858267716
          },
          {
            "number": 2,
            "time": 53.610624999998755,
            "value": 0.6850393700787402
          },
          {
            "number": 2,
            "time": 53.611249999998755,
            "value": 0.6850393700787402
          },
          {
            "number": 2,
            "time": 53.611874999998754,
            "value": 0.6850393700787402
          },
          {
            "number": 2,
            "time": 53.612499999998754,
            "value": 0.6771653543307087
          },
          {
            "number": 2,
            "time": 53.61312499999875,
            "value": 0.6771653543307087
          },
          {
            "number": 2,
            "time": 53.61374999999875,
            "value": 0.6771653543307087
          },
          {
            "number": 2,
            "time": 53.61437499999875,
            "value": 0.6692913385826772
          },
          {
            "number": 2,
            "time": 53.61499999999875,
            "value": 0.6692913385826772
          },
          {
            "number": 2,
            "time": 53.61562499999875,
            "value": 0.6692913385826772
          },
          {
            "number": 2,
            "time": 53.61624999999875,
            "value": 0.6614173228346457
          },
          {
            "number": 2,
            "time": 53.61687499999875,
            "value": 0.6614173228346457
          },
          {
            "number": 2,
            "time": 53.61749999999875,
            "value": 0.6614173228346457
          },
          {
            "number": 2,
            "time": 53.61812499999875,
            "value": 0.6535433070866141
          },
          {
            "number": 2,
            "time": 53.61874999999875,
            "value": 0.6535433070866141
          },
          {
            "number": 2,
            "time": 53.61937499999875,
            "value": 0.6535433070866141
          },
          {
            "number": 2,
            "time": 53.61999999999875,
            "value": 0.6456692913385826
          },
          {
            "number": 2,
            "time": 53.620624999998746,
            "value": 0.6456692913385826
          },
          {
            "number": 2,
            "time": 53.621249999998746,
            "value": 0.6456692913385826
          },
          {
            "number": 2,
            "time": 53.621874999998745,
            "value": 0.6377952755905512
          },
          {
            "number": 2,
            "time": 53.622499999998745,
            "value": 0.6377952755905512
          },
          {
            "number": 2,
            "time": 53.623124999998744,
            "value": 0.6377952755905512
          },
          {
            "number": 2,
            "time": 53.62374999999874,
            "value": 0.6299212598425197
          },
          {
            "number": 2,
            "time": 53.62437499999874,
            "value": 0.6299212598425197
          },
          {
            "number": 2,
            "time": 53.849999999998744,
            "value": 0.6299212598425197
          },
          {
            "number": 2,
            "time": 53.99999999999874,
            "value": 0.9448818897637795
          },
          {
            "number": 2,
            "time": 54.00062499999874,
            "value": 0.937007874015748
          },
          {
            "number": 2,
            "time": 54.00124999999874,
            "value": 0.937007874015748
          },
          {
            "number": 2,
            "time": 54.00187499999874,
            "value": 0.937007874015748
          },
          {
            "number": 2,
            "time": 54.00249999999874,
            "value": 0.9291338582677166
          },
          {
            "number": 2,
            "time": 54.00312499999874,
            "value": 0.9291338582677166
          },
          {
            "number": 2,
            "time": 54.00374999999874,
            "value": 0.9291338582677166
          },
          {
            "number": 2,
            "time": 54.00437499999874,
            "value": 0.9212598425196851
          },
          {
            "number": 2,
            "time": 54.00499999999874,
            "value": 0.9212598425196851
          },
          {
            "number": 2,
            "time": 54.00562499999874,
            "value": 0.9212598425196851
          },
          {
            "number": 2,
            "time": 54.00624999999874,
            "value": 0.9133858267716536
          },
          {
            "number": 2,
            "time": 54.006874999998736,
            "value": 0.9133858267716536
          },
          {
            "number": 2,
            "time": 54.007499999998736,
            "value": 0.9133858267716536
          },
          {
            "number": 2,
            "time": 54.008124999998735,
            "value": 0.905511811023622
          },
          {
            "number": 2,
            "time": 54.008749999998734,
            "value": 0.905511811023622
          },
          {
            "number": 2,
            "time": 54.009374999998734,
            "value": 0.905511811023622
          },
          {
            "number": 2,
            "time": 54.00999999999873,
            "value": 0.8976377952755905
          },
          {
            "number": 2,
            "time": 54.01062499999873,
            "value": 0.8976377952755905
          },
          {
            "number": 2,
            "time": 54.01124999999873,
            "value": 0.8976377952755905
          },
          {
            "number": 2,
            "time": 54.01187499999873,
            "value": 0.889763779527559
          },
          {
            "number": 2,
            "time": 54.01249999999873,
            "value": 0.889763779527559
          },
          {
            "number": 2,
            "time": 54.01312499999873,
            "value": 0.889763779527559
          },
          {
            "number": 2,
            "time": 54.01374999999873,
            "value": 0.8818897637795275
          },
          {
            "number": 2,
            "time": 54.01437499999873,
            "value": 0.8818897637795275
          },
          {
            "number": 2,
            "time": 54.01499999999873,
            "value": 0.8818897637795275
          },
          {
            "number": 2,
            "time": 54.01562499999873,
            "value": 0.8740157480314961
          },
          {
            "number": 2,
            "time": 54.01624999999873,
            "value": 0.8740157480314961
          },
          {
            "number": 2,
            "time": 54.01687499999873,
            "value": 0.8740157480314961
          },
          {
            "number": 2,
            "time": 54.017499999998726,
            "value": 0.8661417322834646
          },
          {
            "number": 2,
            "time": 54.018124999998726,
            "value": 0.8661417322834646
          },
          {
            "number": 2,
            "time": 54.018749999998725,
            "value": 0.8661417322834646
          },
          {
            "number": 2,
            "time": 54.019374999998725,
            "value": 0.8582677165354331
          },
          {
            "number": 2,
            "time": 54.019999999998724,
            "value": 0.8582677165354331
          },
          {
            "number": 2,
            "time": 54.020624999998724,
            "value": 0.8582677165354331
          },
          {
            "number": 2,
            "time": 54.02124999999872,
            "value": 0.8503937007874016
          },
          {
            "number": 2,
            "time": 54.02187499999872,
            "value": 0.8503937007874016
          },
          {
            "number": 2,
            "time": 54.02249999999872,
            "value": 0.8503937007874016
          },
          {
            "number": 2,
            "time": 54.02312499999872,
            "value": 0.84251968503937
          },
          {
            "number": 2,
            "time": 54.02374999999872,
            "value": 0.84251968503937
          },
          {
            "number": 2,
            "time": 54.02437499999872,
            "value": 0.84251968503937
          },
          {
            "number": 2,
            "time": 54.02499999999872,
            "value": 0.8346456692913385
          },
          {
            "number": 2,
            "time": 54.02562499999872,
            "value": 0.8346456692913385
          },
          {
            "number": 2,
            "time": 54.02624999999872,
            "value": 0.8346456692913385
          },
          {
            "number": 2,
            "time": 54.02687499999872,
            "value": 0.8267716535433071
          },
          {
            "number": 2,
            "time": 54.02749999999872,
            "value": 0.8267716535433071
          },
          {
            "number": 2,
            "time": 54.02812499999872,
            "value": 0.8267716535433071
          },
          {
            "number": 2,
            "time": 54.028749999998716,
            "value": 0.8188976377952756
          },
          {
            "number": 2,
            "time": 54.029374999998716,
            "value": 0.8188976377952756
          },
          {
            "number": 2,
            "time": 54.029999999998715,
            "value": 0.8188976377952756
          },
          {
            "number": 2,
            "time": 54.030624999998714,
            "value": 0.8110236220472441
          },
          {
            "number": 2,
            "time": 54.031249999998714,
            "value": 0.8110236220472441
          },
          {
            "number": 2,
            "time": 54.03187499999871,
            "value": 0.8110236220472441
          },
          {
            "number": 2,
            "time": 54.03249999999871,
            "value": 0.8031496062992126
          },
          {
            "number": 2,
            "time": 54.03312499999871,
            "value": 0.8031496062992126
          },
          {
            "number": 2,
            "time": 54.03374999999871,
            "value": 0.8031496062992126
          },
          {
            "number": 2,
            "time": 54.03437499999871,
            "value": 0.7952755905511811
          },
          {
            "number": 2,
            "time": 54.03499999999871,
            "value": 0.7952755905511811
          },
          {
            "number": 2,
            "time": 54.03562499999871,
            "value": 0.7952755905511811
          },
          {
            "number": 2,
            "time": 54.03624999999871,
            "value": 0.7874015748031497
          },
          {
            "number": 2,
            "time": 54.03687499999871,
            "value": 0.7874015748031497
          },
          {
            "number": 2,
            "time": 54.03749999999871,
            "value": 0.7874015748031497
          },
          {
            "number": 2,
            "time": 54.03812499999871,
            "value": 0.7795275590551181
          },
          {
            "number": 2,
            "time": 54.03874999999871,
            "value": 0.7795275590551181
          },
          {
            "number": 2,
            "time": 54.03937499999871,
            "value": 0.7795275590551181
          },
          {
            "number": 2,
            "time": 54.039999999998706,
            "value": 0.7716535433070866
          },
          {
            "number": 2,
            "time": 54.040624999998705,
            "value": 0.7716535433070866
          },
          {
            "number": 2,
            "time": 54.041249999998705,
            "value": 0.7716535433070866
          },
          {
            "number": 2,
            "time": 54.041874999998704,
            "value": 0.7637795275590551
          },
          {
            "number": 2,
            "time": 54.042499999998704,
            "value": 0.7637795275590551
          },
          {
            "number": 2,
            "time": 54.0431249999987,
            "value": 0.7637795275590551
          },
          {
            "number": 2,
            "time": 54.0437499999987,
            "value": 0.7559055118110236
          },
          {
            "number": 2,
            "time": 54.0443749999987,
            "value": 0.7559055118110236
          },
          {
            "number": 2,
            "time": 54.0449999999987,
            "value": 0.7559055118110236
          },
          {
            "number": 2,
            "time": 54.0456249999987,
            "value": 0.7480314960629921
          },
          {
            "number": 2,
            "time": 54.0462499999987,
            "value": 0.7480314960629921
          },
          {
            "number": 2,
            "time": 54.0468749999987,
            "value": 0.7480314960629921
          },
          {
            "number": 2,
            "time": 54.0474999999987,
            "value": 0.7401574803149606
          },
          {
            "number": 2,
            "time": 54.0481249999987,
            "value": 0.7401574803149606
          },
          {
            "number": 2,
            "time": 54.0487499999987,
            "value": 0.7401574803149606
          },
          {
            "number": 2,
            "time": 54.0493749999987,
            "value": 0.7322834645669292
          },
          {
            "number": 2,
            "time": 54.0499999999987,
            "value": 0.7322834645669292
          },
          {
            "number": 2,
            "time": 54.050624999998696,
            "value": 0.7322834645669292
          },
          {
            "number": 2,
            "time": 54.051249999998696,
            "value": 0.7244094488188977
          },
          {
            "number": 2,
            "time": 54.051874999998695,
            "value": 0.7244094488188977
          },
          {
            "number": 2,
            "time": 54.052499999998695,
            "value": 0.7244094488188977
          },
          {
            "number": 2,
            "time": 54.053124999998694,
            "value": 0.7165354330708661
          },
          {
            "number": 2,
            "time": 54.05374999999869,
            "value": 0.7165354330708661
          },
          {
            "number": 2,
            "time": 54.05437499999869,
            "value": 0.7165354330708661
          },
          {
            "number": 2,
            "time": 54.05499999999869,
            "value": 0.7086614173228346
          },
          {
            "number": 2,
            "time": 54.05562499999869,
            "value": 0.7086614173228346
          },
          {
            "number": 2,
            "time": 54.05624999999869,
            "value": 0.7086614173228346
          },
          {
            "number": 2,
            "time": 54.05687499999869,
            "value": 0.7007874015748031
          },
          {
            "number": 2,
            "time": 54.05749999999869,
            "value": 0.7007874015748031
          },
          {
            "number": 2,
            "time": 54.05812499999869,
            "value": 0.7007874015748031
          },
          {
            "number": 2,
            "time": 54.05874999999869,
            "value": 0.6929133858267716
          },
          {
            "number": 2,
            "time": 54.05937499999869,
            "value": 0.6929133858267716
          },
          {
            "number": 2,
            "time": 54.05999999999869,
            "value": 0.6929133858267716
          },
          {
            "number": 2,
            "time": 54.06062499999869,
            "value": 0.6850393700787402
          },
          {
            "number": 2,
            "time": 54.06124999999869,
            "value": 0.6850393700787402
          },
          {
            "number": 2,
            "time": 54.061874999998686,
            "value": 0.6850393700787402
          },
          {
            "number": 2,
            "time": 54.062499999998685,
            "value": 0.6771653543307087
          },
          {
            "number": 2,
            "time": 54.063124999998685,
            "value": 0.6771653543307087
          },
          {
            "number": 2,
            "time": 54.063749999998684,
            "value": 0.6771653543307087
          },
          {
            "number": 2,
            "time": 54.064374999998684,
            "value": 0.6692913385826772
          },
          {
            "number": 2,
            "time": 54.06499999999868,
            "value": 0.6692913385826772
          },
          {
            "number": 2,
            "time": 54.06562499999868,
            "value": 0.6692913385826772
          },
          {
            "number": 2,
            "time": 54.06624999999868,
            "value": 0.6614173228346457
          },
          {
            "number": 2,
            "time": 54.06687499999868,
            "value": 0.6614173228346457
          },
          {
            "number": 2,
            "time": 54.06749999999868,
            "value": 0.6614173228346457
          },
          {
            "number": 2,
            "time": 54.06812499999868,
            "value": 0.6535433070866141
          },
          {
            "number": 2,
            "time": 54.06874999999868,
            "value": 0.6535433070866141
          },
          {
            "number": 2,
            "time": 54.06937499999868,
            "value": 0.6535433070866141
          },
          {
            "number": 2,
            "time": 54.06999999999868,
            "value": 0.6456692913385826
          },
          {
            "number": 2,
            "time": 54.07062499999868,
            "value": 0.6456692913385826
          },
          {
            "number": 2,
            "time": 54.07124999999868,
            "value": 0.6456692913385826
          },
          {
            "number": 2,
            "time": 54.07187499999868,
            "value": 0.6377952755905512
          },
          {
            "number": 2,
            "time": 54.072499999998676,
            "value": 0.6377952755905512
          },
          {
            "number": 2,
            "time": 54.073124999998676,
            "value": 0.6377952755905512
          },
          {
            "number": 2,
            "time": 54.073749999998675,
            "value": 0.6299212598425197
          },
          {
            "number": 2,
            "time": 54.074374999998675,
            "value": 0.6299212598425197
          },
          {
            "number": 2,
            "time": 54.299999999998676,
            "value": 0.6299212598425197
          },
          {
            "number": 2,
            "time": 54.449999999998674,
            "value": 0.6299212598425197
          },
          {
            "number": 2,
            "time": 55.34999999999867,
            "value": 0.6299212598425197
          },
          {
            "number": 2,
            "time": 55.799999999998676,
            "value": 0.9448818897637795
          },
          {
            "number": 2,
            "time": 55.800624999998675,
            "value": 0.937007874015748
          },
          {
            "number": 2,
            "time": 55.801249999998674,
            "value": 0.937007874015748
          },
          {
            "number": 2,
            "time": 55.801874999998674,
            "value": 0.937007874015748
          },
          {
            "number": 2,
            "time": 55.80249999999867,
            "value": 0.9291338582677166
          },
          {
            "number": 2,
            "time": 55.80312499999867,
            "value": 0.9291338582677166
          },
          {
            "number": 2,
            "time": 55.80374999999867,
            "value": 0.9291338582677166
          },
          {
            "number": 2,
            "time": 55.80437499999867,
            "value": 0.9212598425196851
          },
          {
            "number": 2,
            "time": 55.80499999999867,
            "value": 0.9212598425196851
          },
          {
            "number": 2,
            "time": 55.80562499999867,
            "value": 0.9212598425196851
          },
          {
            "number": 2,
            "time": 55.80624999999867,
            "value": 0.9133858267716536
          },
          {
            "number": 2,
            "time": 55.80687499999867,
            "value": 0.9133858267716536
          },
          {
            "number": 2,
            "time": 55.80749999999867,
            "value": 0.9133858267716536
          },
          {
            "number": 2,
            "time": 55.80812499999867,
            "value": 0.905511811023622
          },
          {
            "number": 2,
            "time": 55.80874999999867,
            "value": 0.905511811023622
          },
          {
            "number": 2,
            "time": 55.80937499999867,
            "value": 0.905511811023622
          },
          {
            "number": 2,
            "time": 55.80999999999867,
            "value": 0.8976377952755905
          },
          {
            "number": 2,
            "time": 55.810624999998666,
            "value": 0.8976377952755905
          },
          {
            "number": 2,
            "time": 55.811249999998665,
            "value": 0.8976377952755905
          },
          {
            "number": 2,
            "time": 55.811874999998665,
            "value": 0.889763779527559
          },
          {
            "number": 2,
            "time": 55.812499999998664,
            "value": 0.889763779527559
          },
          {
            "number": 2,
            "time": 55.813124999998664,
            "value": 0.889763779527559
          },
          {
            "number": 2,
            "time": 55.81374999999866,
            "value": 0.8818897637795275
          },
          {
            "number": 2,
            "time": 55.81437499999866,
            "value": 0.8818897637795275
          },
          {
            "number": 2,
            "time": 55.81499999999866,
            "value": 0.8818897637795275
          },
          {
            "number": 2,
            "time": 55.81562499999866,
            "value": 0.8740157480314961
          },
          {
            "number": 2,
            "time": 55.81624999999866,
            "value": 0.8740157480314961
          },
          {
            "number": 2,
            "time": 55.81687499999866,
            "value": 0.8740157480314961
          },
          {
            "number": 2,
            "time": 55.81749999999866,
            "value": 0.8661417322834646
          },
          {
            "number": 2,
            "time": 55.81812499999866,
            "value": 0.8661417322834646
          },
          {
            "number": 2,
            "time": 55.81874999999866,
            "value": 0.8661417322834646
          },
          {
            "number": 2,
            "time": 55.81937499999866,
            "value": 0.8582677165354331
          },
          {
            "number": 2,
            "time": 55.81999999999866,
            "value": 0.8582677165354331
          },
          {
            "number": 2,
            "time": 55.82062499999866,
            "value": 0.8582677165354331
          },
          {
            "number": 2,
            "time": 55.821249999998656,
            "value": 0.8503937007874016
          },
          {
            "number": 2,
            "time": 55.821874999998656,
            "value": 0.8503937007874016
          },
          {
            "number": 2,
            "time": 55.822499999998655,
            "value": 0.8503937007874016
          },
          {
            "number": 2,
            "time": 55.823124999998655,
            "value": 0.84251968503937
          },
          {
            "number": 2,
            "time": 55.823749999998654,
            "value": 0.84251968503937
          },
          {
            "number": 2,
            "time": 55.82437499999865,
            "value": 0.84251968503937
          },
          {
            "number": 2,
            "time": 55.82499999999865,
            "value": 0.8346456692913385
          },
          {
            "number": 2,
            "time": 55.82562499999865,
            "value": 0.8346456692913385
          },
          {
            "number": 2,
            "time": 55.82624999999865,
            "value": 0.8346456692913385
          },
          {
            "number": 2,
            "time": 55.82687499999865,
            "value": 0.8267716535433071
          },
          {
            "number": 2,
            "time": 55.82749999999865,
            "value": 0.8267716535433071
          },
          {
            "number": 2,
            "time": 55.82812499999865,
            "value": 0.8267716535433071
          },
          {
            "number": 2,
            "time": 55.82874999999865,
            "value": 0.8188976377952756
          },
          {
            "number": 2,
            "time": 55.82937499999865,
            "value": 0.8188976377952756
          },
          {
            "number": 2,
            "time": 55.82999999999865,
            "value": 0.8188976377952756
          },
          {
            "number": 2,
            "time": 55.83062499999865,
            "value": 0.8110236220472441
          },
          {
            "number": 2,
            "time": 55.83124999999865,
            "value": 0.8110236220472441
          },
          {
            "number": 2,
            "time": 55.83187499999865,
            "value": 0.8110236220472441
          },
          {
            "number": 2,
            "time": 55.832499999998646,
            "value": 0.8031496062992126
          },
          {
            "number": 2,
            "time": 55.833124999998645,
            "value": 0.8031496062992126
          },
          {
            "number": 2,
            "time": 55.833749999998645,
            "value": 0.8031496062992126
          },
          {
            "number": 2,
            "time": 55.834374999998644,
            "value": 0.7952755905511811
          },
          {
            "number": 2,
            "time": 55.834999999998644,
            "value": 0.7952755905511811
          },
          {
            "number": 2,
            "time": 55.83562499999864,
            "value": 0.7952755905511811
          },
          {
            "number": 2,
            "time": 55.83624999999864,
            "value": 0.7874015748031497
          },
          {
            "number": 2,
            "time": 55.83687499999864,
            "value": 0.7874015748031497
          },
          {
            "number": 2,
            "time": 55.83749999999864,
            "value": 0.7874015748031497
          },
          {
            "number": 2,
            "time": 55.83812499999864,
            "value": 0.7795275590551181
          },
          {
            "number": 2,
            "time": 55.83874999999864,
            "value": 0.7795275590551181
          },
          {
            "number": 2,
            "time": 55.83937499999864,
            "value": 0.7795275590551181
          },
          {
            "number": 2,
            "time": 55.83999999999864,
            "value": 0.7716535433070866
          },
          {
            "number": 2,
            "time": 55.84062499999864,
            "value": 0.7716535433070866
          },
          {
            "number": 2,
            "time": 55.84124999999864,
            "value": 0.7716535433070866
          },
          {
            "number": 2,
            "time": 55.84187499999864,
            "value": 0.7637795275590551
          },
          {
            "number": 2,
            "time": 55.84249999999864,
            "value": 0.7637795275590551
          },
          {
            "number": 2,
            "time": 55.843124999998636,
            "value": 0.7637795275590551
          },
          {
            "number": 2,
            "time": 55.843749999998636,
            "value": 0.7559055118110236
          },
          {
            "number": 2,
            "time": 55.844374999998635,
            "value": 0.7559055118110236
          },
          {
            "number": 2,
            "time": 55.844999999998635,
            "value": 0.7559055118110236
          },
          {
            "number": 2,
            "time": 55.845624999998634,
            "value": 0.7480314960629921
          },
          {
            "number": 2,
            "time": 55.84624999999863,
            "value": 0.7480314960629921
          },
          {
            "number": 2,
            "time": 55.84687499999863,
            "value": 0.7480314960629921
          },
          {
            "number": 2,
            "time": 55.84749999999863,
            "value": 0.7401574803149606
          },
          {
            "number": 2,
            "time": 55.84812499999863,
            "value": 0.7401574803149606
          },
          {
            "number": 2,
            "time": 55.84874999999863,
            "value": 0.7401574803149606
          },
          {
            "number": 2,
            "time": 55.84937499999863,
            "value": 0.7322834645669292
          },
          {
            "number": 2,
            "time": 55.84999999999863,
            "value": 0.7322834645669292
          },
          {
            "number": 2,
            "time": 55.85062499999863,
            "value": 0.7322834645669292
          },
          {
            "number": 2,
            "time": 55.85124999999863,
            "value": 0.7244094488188977
          },
          {
            "number": 2,
            "time": 55.85187499999863,
            "value": 0.7244094488188977
          },
          {
            "number": 2,
            "time": 55.85249999999863,
            "value": 0.7244094488188977
          },
          {
            "number": 2,
            "time": 55.85312499999863,
            "value": 0.7165354330708661
          },
          {
            "number": 2,
            "time": 55.85374999999863,
            "value": 0.7165354330708661
          },
          {
            "number": 2,
            "time": 55.854374999998626,
            "value": 0.7165354330708661
          },
          {
            "number": 2,
            "time": 55.854999999998626,
            "value": 0.7086614173228346
          },
          {
            "number": 2,
            "time": 55.855624999998625,
            "value": 0.7086614173228346
          },
          {
            "number": 2,
            "time": 55.856249999998624,
            "value": 0.7086614173228346
          },
          {
            "number": 2,
            "time": 55.856874999998624,
            "value": 0.7007874015748031
          },
          {
            "number": 2,
            "time": 55.85749999999862,
            "value": 0.7007874015748031
          },
          {
            "number": 2,
            "time": 55.85812499999862,
            "value": 0.7007874015748031
          },
          {
            "number": 2,
            "time": 55.85874999999862,
            "value": 0.6929133858267716
          },
          {
            "number": 2,
            "time": 55.85937499999862,
            "value": 0.6929133858267716
          },
          {
            "number": 2,
            "time": 55.85999999999862,
            "value": 0.6929133858267716
          },
          {
            "number": 2,
            "time": 55.86062499999862,
            "value": 0.6850393700787402
          },
          {
            "number": 2,
            "time": 55.86124999999862,
            "value": 0.6850393700787402
          },
          {
            "number": 2,
            "time": 55.86187499999862,
            "value": 0.6850393700787402
          },
          {
            "number": 2,
            "time": 55.86249999999862,
            "value": 0.6771653543307087
          },
          {
            "number": 2,
            "time": 55.86312499999862,
            "value": 0.6771653543307087
          },
          {
            "number": 2,
            "time": 55.86374999999862,
            "value": 0.6771653543307087
          },
          {
            "number": 2,
            "time": 55.86437499999862,
            "value": 0.6692913385826772
          },
          {
            "number": 2,
            "time": 55.864999999998616,
            "value": 0.6692913385826772
          },
          {
            "number": 2,
            "time": 55.865624999998616,
            "value": 0.6692913385826772
          },
          {
            "number": 2,
            "time": 55.866249999998615,
            "value": 0.6614173228346457
          },
          {
            "number": 2,
            "time": 55.866874999998615,
            "value": 0.6614173228346457
          },
          {
            "number": 2,
            "time": 55.867499999998614,
            "value": 0.6614173228346457
          },
          {
            "number": 2,
            "time": 55.868124999998614,
            "value": 0.6535433070866141
          },
          {
            "number": 2,
            "time": 55.86874999999861,
            "value": 0.6535433070866141
          },
          {
            "number": 2,
            "time": 55.86937499999861,
            "value": 0.6535433070866141
          },
          {
            "number": 2,
            "time": 55.86999999999861,
            "value": 0.6456692913385826
          },
          {
            "number": 2,
            "time": 55.87062499999861,
            "value": 0.6456692913385826
          },
          {
            "number": 2,
            "time": 55.87124999999861,
            "value": 0.6456692913385826
          },
          {
            "number": 2,
            "time": 55.87187499999861,
            "value": 0.6377952755905512
          },
          {
            "number": 2,
            "time": 55.87249999999861,
            "value": 0.6377952755905512
          },
          {
            "number": 2,
            "time": 55.87312499999861,
            "value": 0.6377952755905512
          },
          {
            "number": 2,
            "time": 55.87374999999861,
            "value": 0.6299212598425197
          },
          {
            "number": 2,
            "time": 55.87437499999861,
            "value": 0.6299212598425197
          },
          {
            "number": 2,
            "time": 56.24999999999861,
            "value": 0.6299212598425197
          },
          {
            "number": 2,
            "time": 57.149999999998606,
            "value": 0.6299212598425197
          },
          {
            "number": 2,
            "time": 58.49999999999861,
            "value": 0.6299212598425197
          },
          {
            "number": 2,
            "time": 58.94999999999861,
            "value": 0.6299212598425197
          },
          {
            "number": 2,
            "time": 59.39999999999861,
            "value": 0.6299212598425197
          },
          {
            "number": 2,
            "time": 59.849999999998616,
            "value": 0.6299212598425197
          },
          {
            "number": 2,
            "time": 60.29999999999862,
            "value": 0.6299212598425197
          },
          {
            "number": 2,
            "time": 60.74999999999862,
            "value": 0.6299212598425197
          },
          {
            "number": 2,
            "time": 60.74999999999862,
            "value": 0.9448818897637795
          },
          {
            "number": 2,
            "time": 60.75062499999862,
            "value": 0.937007874015748
          },
          {
            "number": 2,
            "time": 60.75124999999862,
            "value": 0.937007874015748
          },
          {
            "number": 2,
            "time": 60.75187499999862,
            "value": 0.937007874015748
          },
          {
            "number": 2,
            "time": 60.75249999999862,
            "value": 0.9291338582677166
          },
          {
            "number": 2,
            "time": 60.75312499999862,
            "value": 0.9291338582677166
          },
          {
            "number": 2,
            "time": 60.75374999999862,
            "value": 0.9291338582677166
          },
          {
            "number": 2,
            "time": 60.75437499999862,
            "value": 0.9212598425196851
          },
          {
            "number": 2,
            "time": 60.75499999999862,
            "value": 0.9212598425196851
          },
          {
            "number": 2,
            "time": 60.755624999998616,
            "value": 0.9212598425196851
          },
          {
            "number": 2,
            "time": 60.756249999998616,
            "value": 0.9133858267716536
          },
          {
            "number": 2,
            "time": 60.756874999998615,
            "value": 0.9133858267716536
          },
          {
            "number": 2,
            "time": 60.757499999998615,
            "value": 0.9133858267716536
          },
          {
            "number": 2,
            "time": 60.758124999998614,
            "value": 0.905511811023622
          },
          {
            "number": 2,
            "time": 60.758749999998614,
            "value": 0.905511811023622
          },
          {
            "number": 2,
            "time": 60.75937499999861,
            "value": 0.905511811023622
          },
          {
            "number": 2,
            "time": 60.75999999999861,
            "value": 0.8976377952755905
          },
          {
            "number": 2,
            "time": 60.76062499999861,
            "value": 0.8976377952755905
          },
          {
            "number": 2,
            "time": 60.76124999999861,
            "value": 0.8976377952755905
          },
          {
            "number": 2,
            "time": 60.76187499999861,
            "value": 0.889763779527559
          },
          {
            "number": 2,
            "time": 60.76249999999861,
            "value": 0.889763779527559
          },
          {
            "number": 2,
            "time": 60.76312499999861,
            "value": 0.889763779527559
          },
          {
            "number": 2,
            "time": 60.76374999999861,
            "value": 0.8818897637795275
          },
          {
            "number": 2,
            "time": 60.76437499999861,
            "value": 0.8818897637795275
          },
          {
            "number": 2,
            "time": 60.76499999999861,
            "value": 0.8818897637795275
          },
          {
            "number": 2,
            "time": 60.76562499999861,
            "value": 0.8740157480314961
          },
          {
            "number": 2,
            "time": 60.76624999999861,
            "value": 0.8740157480314961
          },
          {
            "number": 2,
            "time": 60.766874999998606,
            "value": 0.8740157480314961
          },
          {
            "number": 2,
            "time": 60.767499999998606,
            "value": 0.8661417322834646
          },
          {
            "number": 2,
            "time": 60.768124999998605,
            "value": 0.8661417322834646
          },
          {
            "number": 2,
            "time": 60.768749999998604,
            "value": 0.8661417322834646
          },
          {
            "number": 2,
            "time": 60.769374999998604,
            "value": 0.8582677165354331
          },
          {
            "number": 2,
            "time": 60.7699999999986,
            "value": 0.8582677165354331
          },
          {
            "number": 2,
            "time": 60.7706249999986,
            "value": 0.8582677165354331
          },
          {
            "number": 2,
            "time": 60.7712499999986,
            "value": 0.8503937007874016
          },
          {
            "number": 2,
            "time": 60.7718749999986,
            "value": 0.8503937007874016
          },
          {
            "number": 2,
            "time": 60.7724999999986,
            "value": 0.8503937007874016
          },
          {
            "number": 2,
            "time": 60.7731249999986,
            "value": 0.84251968503937
          },
          {
            "number": 2,
            "time": 60.7737499999986,
            "value": 0.84251968503937
          },
          {
            "number": 2,
            "time": 60.7743749999986,
            "value": 0.84251968503937
          },
          {
            "number": 2,
            "time": 60.7749999999986,
            "value": 0.8346456692913385
          },
          {
            "number": 2,
            "time": 60.7756249999986,
            "value": 0.8346456692913385
          },
          {
            "number": 2,
            "time": 60.7762499999986,
            "value": 0.8346456692913385
          },
          {
            "number": 2,
            "time": 60.7768749999986,
            "value": 0.8267716535433071
          },
          {
            "number": 2,
            "time": 60.7774999999986,
            "value": 0.8267716535433071
          },
          {
            "number": 2,
            "time": 60.778124999998596,
            "value": 0.8267716535433071
          },
          {
            "number": 2,
            "time": 60.778749999998595,
            "value": 0.8188976377952756
          },
          {
            "number": 2,
            "time": 60.779374999998595,
            "value": 0.8110236220472441
          },
          {
            "number": 2,
            "time": 60.779999999998594,
            "value": 0.8031496062992126
          },
          {
            "number": 2,
            "time": 60.780624999998594,
            "value": 0.8031496062992126
          },
          {
            "number": 2,
            "time": 60.78124999999859,
            "value": 0.8031496062992126
          },
          {
            "number": 2,
            "time": 60.78187499999859,
            "value": 0.7952755905511811
          },
          {
            "number": 2,
            "time": 60.78249999999859,
            "value": 0.7952755905511811
          },
          {
            "number": 2,
            "time": 60.78312499999859,
            "value": 0.7952755905511811
          },
          {
            "number": 2,
            "time": 60.78374999999859,
            "value": 0.7874015748031497
          },
          {
            "number": 2,
            "time": 60.78437499999859,
            "value": 0.7874015748031497
          },
          {
            "number": 2,
            "time": 60.78499999999859,
            "value": 0.7874015748031497
          },
          {
            "number": 2,
            "time": 60.78562499999859,
            "value": 0.7795275590551181
          },
          {
            "number": 2,
            "time": 60.78624999999859,
            "value": 0.7795275590551181
          },
          {
            "number": 2,
            "time": 60.78687499999859,
            "value": 0.7795275590551181
          },
          {
            "number": 2,
            "time": 60.78749999999859,
            "value": 0.7716535433070866
          },
          {
            "number": 2,
            "time": 60.78812499999859,
            "value": 0.7716535433070866
          },
          {
            "number": 2,
            "time": 60.788749999998586,
            "value": 0.7716535433070866
          },
          {
            "number": 2,
            "time": 60.789374999998586,
            "value": 0.7637795275590551
          },
          {
            "number": 2,
            "time": 60.789999999998585,
            "value": 0.7637795275590551
          },
          {
            "number": 2,
            "time": 60.790624999998585,
            "value": 0.7637795275590551
          },
          {
            "number": 2,
            "time": 60.791249999998584,
            "value": 0.7559055118110236
          },
          {
            "number": 2,
            "time": 60.79187499999858,
            "value": 0.7559055118110236
          },
          {
            "number": 2,
            "time": 60.79249999999858,
            "value": 0.7559055118110236
          },
          {
            "number": 2,
            "time": 60.79312499999858,
            "value": 0.7480314960629921
          },
          {
            "number": 2,
            "time": 60.79374999999858,
            "value": 0.7480314960629921
          },
          {
            "number": 2,
            "time": 60.79437499999858,
            "value": 0.7480314960629921
          },
          {
            "number": 2,
            "time": 60.79499999999858,
            "value": 0.7401574803149606
          },
          {
            "number": 2,
            "time": 60.79562499999858,
            "value": 0.7401574803149606
          },
          {
            "number": 2,
            "time": 60.79624999999858,
            "value": 0.7401574803149606
          },
          {
            "number": 2,
            "time": 60.79687499999858,
            "value": 0.7322834645669292
          },
          {
            "number": 2,
            "time": 60.79749999999858,
            "value": 0.7322834645669292
          },
          {
            "number": 2,
            "time": 60.79812499999858,
            "value": 0.7322834645669292
          },
          {
            "number": 2,
            "time": 60.79874999999858,
            "value": 0.7244094488188977
          },
          {
            "number": 2,
            "time": 60.79937499999858,
            "value": 0.7244094488188977
          },
          {
            "number": 2,
            "time": 60.799999999998576,
            "value": 0.7244094488188977
          },
          {
            "number": 2,
            "time": 60.800624999998576,
            "value": 0.7165354330708661
          },
          {
            "number": 2,
            "time": 60.801249999998575,
            "value": 0.7165354330708661
          },
          {
            "number": 2,
            "time": 60.801874999998574,
            "value": 0.7165354330708661
          },
          {
            "number": 2,
            "time": 60.802499999998574,
            "value": 0.7086614173228346
          },
          {
            "number": 2,
            "time": 60.80312499999857,
            "value": 0.7086614173228346
          },
          {
            "number": 2,
            "time": 60.80374999999857,
            "value": 0.7086614173228346
          },
          {
            "number": 2,
            "time": 60.80437499999857,
            "value": 0.7007874015748031
          },
          {
            "number": 2,
            "time": 60.80499999999857,
            "value": 0.7007874015748031
          },
          {
            "number": 2,
            "time": 60.80562499999857,
            "value": 0.7007874015748031
          },
          {
            "number": 2,
            "time": 60.80624999999857,
            "value": 0.6929133858267716
          },
          {
            "number": 2,
            "time": 60.80687499999857,
            "value": 0.6929133858267716
          },
          {
            "number": 2,
            "time": 60.80749999999857,
            "value": 0.6929133858267716
          },
          {
            "number": 2,
            "time": 60.80812499999857,
            "value": 0.6771653543307087
          },
          {
            "number": 2,
            "time": 60.80874999999857,
            "value": 0.6771653543307087
          },
          {
            "number": 2,
            "time": 60.80937499999857,
            "value": 0.6771653543307087
          },
          {
            "number": 2,
            "time": 60.80999999999857,
            "value": 0.6692913385826772
          },
          {
            "number": 2,
            "time": 60.810624999998566,
            "value": 0.6692913385826772
          },
          {
            "number": 2,
            "time": 60.811249999998566,
            "value": 0.6692913385826772
          },
          {
            "number": 2,
            "time": 60.811874999998565,
            "value": 0.6614173228346457
          },
          {
            "number": 2,
            "time": 60.812499999998565,
            "value": 0.6614173228346457
          },
          {
            "number": 2,
            "time": 60.813124999998564,
            "value": 0.6614173228346457
          },
          {
            "number": 2,
            "time": 60.813749999998564,
            "value": 0.6535433070866141
          },
          {
            "number": 2,
            "time": 60.81437499999856,
            "value": 0.6535433070866141
          },
          {
            "number": 2,
            "time": 60.81499999999856,
            "value": 0.6535433070866141
          },
          {
            "number": 2,
            "time": 60.81562499999856,
            "value": 0.6456692913385826
          },
          {
            "number": 2,
            "time": 60.81624999999856,
            "value": 0.6456692913385826
          },
          {
            "number": 2,
            "time": 60.81687499999856,
            "value": 0.6456692913385826
          },
          {
            "number": 2,
            "time": 60.81749999999856,
            "value": 0.6377952755905512
          },
          {
            "number": 2,
            "time": 60.81812499999856,
            "value": 0.6377952755905512
          },
          {
            "number": 2,
            "time": 60.81874999999856,
            "value": 0.6377952755905512
          },
          {
            "number": 2,
            "time": 60.81937499999856,
            "value": 0.6299212598425197
          },
          {
            "number": 2,
            "time": 60.81999999999856,
            "value": 0.6299212598425197
          },
          {
            "number": 2,
            "time": 60.82062499999856,
            "value": 0.6299212598425197
          },
          {
            "number": 2,
            "time": 60.82124999999856,
            "value": 0.6220472440944882
          },
          {
            "number": 2,
            "time": 60.821874999998556,
            "value": 0.6220472440944882
          },
          {
            "number": 2,
            "time": 60.822499999998556,
            "value": 0.6220472440944882
          },
          {
            "number": 2,
            "time": 60.823124999998555,
            "value": 0.6141732283464567
          },
          {
            "number": 2,
            "time": 60.823749999998554,
            "value": 0.6141732283464567
          },
          {
            "number": 2,
            "time": 60.824374999998554,
            "value": 0.6141732283464567
          },
          {
            "number": 2,
            "time": 60.837499999998556,
            "value": 0.6062992125984252
          },
          {
            "number": 2,
            "time": 60.86624999999856,
            "value": 0.5984251968503937
          },
          {
            "number": 2,
            "time": 60.89562499999856,
            "value": 0.5905511811023622
          },
          {
            "number": 2,
            "time": 60.92437499999856,
            "value": 0.5826771653543307
          },
          {
            "number": 2,
            "time": 60.953749999998564,
            "value": 0.5748031496062992
          },
          {
            "number": 2,
            "time": 60.982499999998566,
            "value": 0.5669291338582677
          },
          {
            "number": 2,
            "time": 61.01187499999857,
            "value": 0.5590551181102362
          },
          {
            "number": 2,
            "time": 61.04062499999857,
            "value": 0.5511811023622047
          },
          {
            "number": 2,
            "time": 61.04999999999857,
            "value": 0.5511811023622047
          },
          {
            "number": 2,
            "time": 61.069374999998566,
            "value": 0.5433070866141733
          },
          {
            "number": 2,
            "time": 61.09874999999857,
            "value": 0.5354330708661418
          },
          {
            "number": 2,
            "time": 61.12749999999857,
            "value": 0.5275590551181102
          },
          {
            "number": 2,
            "time": 61.15687499999857,
            "value": 0.5196850393700787
          },
          {
            "number": 2,
            "time": 61.18562499999857,
            "value": 0.5118110236220472
          },
          {
            "number": 2,
            "time": 61.199999999998575,
            "value": 0.7637795275590551
          },
          {
            "number": 2,
            "time": 61.200624999998574,
            "value": 0.7637795275590551
          },
          {
            "number": 2,
            "time": 61.20124999999857,
            "value": 0.7559055118110236
          },
          {
            "number": 2,
            "time": 61.20187499999857,
            "value": 0.7559055118110236
          },
          {
            "number": 2,
            "time": 61.20249999999857,
            "value": 0.7559055118110236
          },
          {
            "number": 2,
            "time": 61.20312499999857,
            "value": 0.7559055118110236
          },
          {
            "number": 2,
            "time": 61.20374999999857,
            "value": 0.7480314960629921
          },
          {
            "number": 2,
            "time": 61.20437499999857,
            "value": 0.7480314960629921
          },
          {
            "number": 2,
            "time": 61.20499999999857,
            "value": 0.7480314960629921
          },
          {
            "number": 2,
            "time": 61.20562499999857,
            "value": 0.7480314960629921
          },
          {
            "number": 2,
            "time": 61.20624999999857,
            "value": 0.7401574803149606
          },
          {
            "number": 2,
            "time": 61.20687499999857,
            "value": 0.7401574803149606
          },
          {
            "number": 2,
            "time": 61.20749999999857,
            "value": 0.7401574803149606
          },
          {
            "number": 2,
            "time": 61.20812499999857,
            "value": 0.7322834645669292
          },
          {
            "number": 2,
            "time": 61.20874999999857,
            "value": 0.7322834645669292
          },
          {
            "number": 2,
            "time": 61.209374999998566,
            "value": 0.7322834645669292
          },
          {
            "number": 2,
            "time": 61.209999999998566,
            "value": 0.7322834645669292
          },
          {
            "number": 2,
            "time": 61.210624999998565,
            "value": 0.7244094488188977
          },
          {
            "number": 2,
            "time": 61.211249999998564,
            "value": 0.7244094488188977
          },
          {
            "number": 2,
            "time": 61.211874999998564,
            "value": 0.7244094488188977
          },
          {
            "number": 2,
            "time": 61.21249999999856,
            "value": 0.7244094488188977
          },
          {
            "number": 2,
            "time": 61.21312499999856,
            "value": 0.7165354330708661
          },
          {
            "number": 2,
            "time": 61.21374999999856,
            "value": 0.7165354330708661
          },
          {
            "number": 2,
            "time": 61.21437499999856,
            "value": 0.7165354330708661
          },
          {
            "number": 2,
            "time": 61.21499999999856,
            "value": 0.5039370078740157
          },
          {
            "number": 2,
            "time": 61.21499999999856,
            "value": 0.7007874015748031
          },
          {
            "number": 2,
            "time": 61.21562499999856,
            "value": 0.7007874015748031
          },
          {
            "number": 2,
            "time": 61.21624999999856,
            "value": 0.7007874015748031
          },
          {
            "number": 2,
            "time": 61.21687499999856,
            "value": 0.6929133858267716
          },
          {
            "number": 2,
            "time": 61.21749999999856,
            "value": 0.6929133858267716
          },
          {
            "number": 2,
            "time": 61.21812499999856,
            "value": 0.6929133858267716
          },
          {
            "number": 2,
            "time": 61.21874999999856,
            "value": 0.6929133858267716
          },
          {
            "number": 2,
            "time": 61.21937499999856,
            "value": 0.6850393700787402
          },
          {
            "number": 2,
            "time": 61.21999999999856,
            "value": 0.6850393700787402
          },
          {
            "number": 2,
            "time": 61.220624999998556,
            "value": 0.6850393700787402
          },
          {
            "number": 2,
            "time": 61.221249999998555,
            "value": 0.6771653543307087
          },
          {
            "number": 2,
            "time": 61.221874999998555,
            "value": 0.6771653543307087
          },
          {
            "number": 2,
            "time": 61.222499999998554,
            "value": 0.6771653543307087
          },
          {
            "number": 2,
            "time": 61.223124999998554,
            "value": 0.6771653543307087
          },
          {
            "number": 2,
            "time": 61.22374999999855,
            "value": 0.6692913385826772
          },
          {
            "number": 2,
            "time": 61.22437499999855,
            "value": 0.6692913385826772
          },
          {
            "number": 2,
            "time": 61.22499999999855,
            "value": 0.6692913385826772
          },
          {
            "number": 2,
            "time": 61.22562499999855,
            "value": 0.6692913385826772
          },
          {
            "number": 2,
            "time": 61.22624999999855,
            "value": 0.6614173228346457
          },
          {
            "number": 2,
            "time": 61.22687499999855,
            "value": 0.6614173228346457
          },
          {
            "number": 2,
            "time": 61.22749999999855,
            "value": 0.6614173228346457
          },
          {
            "number": 2,
            "time": 61.22812499999855,
            "value": 0.6614173228346457
          },
          {
            "number": 2,
            "time": 61.22874999999855,
            "value": 0.6535433070866141
          },
          {
            "number": 2,
            "time": 61.22937499999855,
            "value": 0.6535433070866141
          },
          {
            "number": 2,
            "time": 61.22999999999855,
            "value": 0.6535433070866141
          },
          {
            "number": 2,
            "time": 61.23062499999855,
            "value": 0.6456692913385826
          },
          {
            "number": 2,
            "time": 61.231249999998546,
            "value": 0.6456692913385826
          },
          {
            "number": 2,
            "time": 61.231874999998546,
            "value": 0.6456692913385826
          },
          {
            "number": 2,
            "time": 61.232499999998545,
            "value": 0.6456692913385826
          },
          {
            "number": 2,
            "time": 61.233124999998545,
            "value": 0.6377952755905512
          },
          {
            "number": 2,
            "time": 61.233749999998544,
            "value": 0.6377952755905512
          },
          {
            "number": 2,
            "time": 61.23437499999854,
            "value": 0.6377952755905512
          },
          {
            "number": 2,
            "time": 61.23499999999854,
            "value": 0.6377952755905512
          },
          {
            "number": 2,
            "time": 61.23562499999854,
            "value": 0.6299212598425197
          },
          {
            "number": 2,
            "time": 61.23624999999854,
            "value": 0.6299212598425197
          },
          {
            "number": 2,
            "time": 61.23687499999854,
            "value": 0.6299212598425197
          },
          {
            "number": 2,
            "time": 61.23749999999854,
            "value": 0.6299212598425197
          },
          {
            "number": 2,
            "time": 61.23812499999854,
            "value": 0.6220472440944882
          },
          {
            "number": 2,
            "time": 61.23874999999854,
            "value": 0.6220472440944882
          },
          {
            "number": 2,
            "time": 61.23937499999854,
            "value": 0.6220472440944882
          },
          {
            "number": 2,
            "time": 61.23999999999854,
            "value": 0.6141732283464567
          },
          {
            "number": 2,
            "time": 61.24062499999854,
            "value": 0.6141732283464567
          },
          {
            "number": 2,
            "time": 61.24124999999854,
            "value": 0.6141732283464567
          },
          {
            "number": 2,
            "time": 61.24187499999854,
            "value": 0.6141732283464567
          },
          {
            "number": 2,
            "time": 61.242499999998536,
            "value": 0.6062992125984252
          },
          {
            "number": 2,
            "time": 61.243124999998535,
            "value": 0.6062992125984252
          },
          {
            "number": 2,
            "time": 61.243749999998535,
            "value": 0.49606299212598426
          },
          {
            "number": 2,
            "time": 61.243749999998535,
            "value": 0.5984251968503937
          },
          {
            "number": 2,
            "time": 61.244374999998534,
            "value": 0.5905511811023622
          },
          {
            "number": 2,
            "time": 61.244999999998534,
            "value": 0.5905511811023622
          },
          {
            "number": 2,
            "time": 61.24562499999853,
            "value": 0.5905511811023622
          },
          {
            "number": 2,
            "time": 61.24624999999853,
            "value": 0.5905511811023622
          },
          {
            "number": 2,
            "time": 61.24687499999853,
            "value": 0.5826771653543307
          },
          {
            "number": 2,
            "time": 61.24749999999853,
            "value": 0.5826771653543307
          },
          {
            "number": 2,
            "time": 61.24812499999853,
            "value": 0.5826771653543307
          },
          {
            "number": 2,
            "time": 61.24874999999853,
            "value": 0.5826771653543307
          },
          {
            "number": 2,
            "time": 61.24937499999853,
            "value": 0.5748031496062992
          },
          {
            "number": 2,
            "time": 61.24999999999853,
            "value": 0.5748031496062992
          },
          {
            "number": 2,
            "time": 61.25062499999853,
            "value": 0.5748031496062992
          },
          {
            "number": 2,
            "time": 61.25124999999853,
            "value": 0.5669291338582677
          },
          {
            "number": 2,
            "time": 61.25187499999853,
            "value": 0.5669291338582677
          },
          {
            "number": 2,
            "time": 61.25249999999853,
            "value": 0.5669291338582677
          },
          {
            "number": 2,
            "time": 61.253124999998526,
            "value": 0.5669291338582677
          },
          {
            "number": 2,
            "time": 61.253749999998526,
            "value": 0.5590551181102362
          },
          {
            "number": 2,
            "time": 61.254374999998525,
            "value": 0.5590551181102362
          },
          {
            "number": 2,
            "time": 61.254999999998525,
            "value": 0.5590551181102362
          },
          {
            "number": 2,
            "time": 61.255624999998524,
            "value": 0.5590551181102362
          },
          {
            "number": 2,
            "time": 61.25624999999852,
            "value": 0.5511811023622047
          },
          {
            "number": 2,
            "time": 61.25687499999852,
            "value": 0.5511811023622047
          },
          {
            "number": 2,
            "time": 61.25749999999852,
            "value": 0.5511811023622047
          },
          {
            "number": 2,
            "time": 61.25812499999852,
            "value": 0.5511811023622047
          },
          {
            "number": 2,
            "time": 61.25874999999852,
            "value": 0.5433070866141733
          },
          {
            "number": 2,
            "time": 61.25937499999852,
            "value": 0.5433070866141733
          },
          {
            "number": 2,
            "time": 61.25999999999852,
            "value": 0.5433070866141733
          },
          {
            "number": 2,
            "time": 61.26062499999852,
            "value": 0.5433070866141733
          },
          {
            "number": 2,
            "time": 61.26124999999852,
            "value": 0.5354330708661418
          },
          {
            "number": 2,
            "time": 61.26187499999852,
            "value": 0.5354330708661418
          },
          {
            "number": 2,
            "time": 61.26249999999852,
            "value": 0.5354330708661418
          },
          {
            "number": 2,
            "time": 61.26312499999852,
            "value": 0.5275590551181102
          },
          {
            "number": 2,
            "time": 61.26374999999852,
            "value": 0.5275590551181102
          },
          {
            "number": 2,
            "time": 61.264374999998516,
            "value": 0.5275590551181102
          },
          {
            "number": 2,
            "time": 61.264999999998516,
            "value": 0.5275590551181102
          },
          {
            "number": 2,
            "time": 61.265624999998515,
            "value": 0.5196850393700787
          },
          {
            "number": 2,
            "time": 61.266249999998514,
            "value": 0.5196850393700787
          },
          {
            "number": 2,
            "time": 61.266874999998514,
            "value": 0.5196850393700787
          },
          {
            "number": 2,
            "time": 61.26749999999851,
            "value": 0.5196850393700787
          },
          {
            "number": 2,
            "time": 61.26812499999851,
            "value": 0.5118110236220472
          },
          {
            "number": 2,
            "time": 61.26874999999851,
            "value": 0.5118110236220472
          },
          {
            "number": 2,
            "time": 61.26937499999851,
            "value": 0.5118110236220472
          },
          {
            "number": 2,
            "time": 61.26999999999851,
            "value": 0.5118110236220472
          },
          {
            "number": 2,
            "time": 61.27062499999851,
            "value": 0.5039370078740157
          },
          {
            "number": 2,
            "time": 61.27124999999851,
            "value": 0.5039370078740157
          },
          {
            "number": 2,
            "time": 61.27187499999851,
            "value": 0.5039370078740157
          },
          {
            "number": 2,
            "time": 61.27249999999851,
            "value": 0.5039370078740157
          },
          {
            "number": 2,
            "time": 61.27312499999851,
            "value": 0.4881889763779528
          },
          {
            "number": 2,
            "time": 61.27374999999851,
            "value": 0.4881889763779528
          },
          {
            "number": 2,
            "time": 61.27437499999851,
            "value": 0.4881889763779528
          },
          {
            "number": 2,
            "time": 61.30187499999851,
            "value": 0.48031496062992124
          },
          {
            "number": 2,
            "time": 61.33124999999851,
            "value": 0.47244094488188976
          },
          {
            "number": 2,
            "time": 61.359999999998514,
            "value": 0.4645669291338583
          },
          {
            "number": 2,
            "time": 61.38874999999852,
            "value": 0.4566929133858268
          },
          {
            "number": 2,
            "time": 61.41812499999852,
            "value": 0.44881889763779526
          },
          {
            "number": 2,
            "time": 61.44687499999852,
            "value": 0.4409448818897638
          },
          {
            "number": 2,
            "time": 61.47624999999852,
            "value": 0.4330708661417323
          },
          {
            "number": 2,
            "time": 61.49999999999852,
            "value": 0.4330708661417323
          },
          {
            "number": 2,
            "time": 61.504999999998525,
            "value": 0.4251968503937008
          },
          {
            "number": 2,
            "time": 61.534374999998526,
            "value": 0.41732283464566927
          },
          {
            "number": 2,
            "time": 61.56312499999853,
            "value": 0.4094488188976378
          },
          {
            "number": 2,
            "time": 61.59249999999853,
            "value": 0.4015748031496063
          },
          {
            "number": 2,
            "time": 61.62124999999853,
            "value": 0.3937007874015748
          },
          {
            "number": 2,
            "time": 61.649999999998535,
            "value": 0.3858267716535433
          },
          {
            "number": 2,
            "time": 68.84999999999853,
            "value": 0.3858267716535433
          },
          {
            "number": 2,
            "time": 69.74999999999854,
            "value": 0.3858267716535433
          },
          {
            "number": 2,
            "time": 70.19999999999854,
            "value": 0.3858267716535433
          },
          {
            "number": 2,
            "time": 70.64999999999854,
            "value": 0.3858267716535433
          },
          {
            "number": 2,
            "time": 71.09999999999854,
            "value": 0.3858267716535433
          },
          {
            "number": 2,
            "time": 71.39999999999854,
            "value": 0.3858267716535433
          },
          {
            "number": 2,
            "time": 71.47499999999854,
            "value": 0.3858267716535433
          },
          {
            "number": 2,
            "time": 71.54999999999855,
            "value": 0.3858267716535433
          },
          {
            "number": 2,
            "time": 71.99999999999855,
            "value": 0.3858267716535433
          },
          {
            "number": 2,
            "time": 72.44999999999855,
            "value": 0.3858267716535433
          },
          {
            "number": 2,
            "time": 72.89999999999856,
            "value": 0.3858267716535433
          },
          {
            "number": 2,
            "time": 73.34999999999856,
            "value": 0.3858267716535433
          },
          {
            "number": 2,
            "time": 73.79999999999856,
            "value": 0.3858267716535433
          },
          {
            "number": 2,
            "time": 74.24999999999856,
            "value": 0.3858267716535433
          },
          {
            "number": 2,
            "time": 75.14999999999857,
            "value": 0.3858267716535433
          },
          {
            "number": 2,
            "time": 75.59999999999857,
            "value": 0.3858267716535433
          },
          {
            "number": 2,
            "time": 76.04999999999858,
            "value": 0.3858267716535433
          },
          {
            "number": 2,
            "time": 79.1999999999987,
            "value": 0.3858267716535433
          },
          {
            "number": 2,
            "time": 79.3499999999987,
            "value": 0.3858267716535433
          },
          {
            "number": 2,
            "time": 79.4999999999987,
            "value": 0.3858267716535433
          },
          {
            "number": 2,
            "time": 79.64999999999871,
            "value": 0.3858267716535433
          },
          {
            "number": 2,
            "time": 79.79999999999872,
            "value": 0.3858267716535433
          },
          {
            "number": 2,
            "time": 79.94999999999872,
            "value": 0.3858267716535433
          },
          {
            "number": 2,
            "time": 80.09999999999873,
            "value": 0.3858267716535433
          },
          {
            "number": 2,
            "time": 80.24999999999874,
            "value": 0.3858267716535433
          },
          {
            "number": 2,
            "time": 80.54999999999875,
            "value": 0.3858267716535433
          },
          {
            "number": 2,
            "time": 80.69999999999875,
            "value": 0.3858267716535433
          },
          {
            "number": 2,
            "time": 80.84999999999876,
            "value": 0.3858267716535433
          },
          {
            "number": 2,
            "time": 80.99999999999876,
            "value": 0.3858267716535433
          },
          {
            "number": 2,
            "time": 81.44999999999878,
            "value": 0.3858267716535433
          },
          {
            "number": 2,
            "time": 81.74999999999879,
            "value": 0.3858267716535433
          },
          {
            "number": 2,
            "time": 81.8999999999988,
            "value": 0.3858267716535433
          },
          {
            "number": 2,
            "time": 82.0499999999988,
            "value": 0.3858267716535433
          },
          {
            "number": 2,
            "time": 82.19999999999881,
            "value": 0.3858267716535433
          },
          {
            "number": 2,
            "time": 82.34999999999881,
            "value": 0.3858267716535433
          },
          {
            "number": 2,
            "time": 82.49999999999882,
            "value": 0.3858267716535433
          },
          {
            "number": 2,
            "time": 82.64999999999883,
            "value": 0.3858267716535433
          },
          {
            "number": 2,
            "time": 82.79999999999883,
            "value": 0.3858267716535433
          },
          {
            "number": 2,
            "time": 82.94999999999884,
            "value": 0.3858267716535433
          },
          {
            "number": 2,
            "time": 83.09999999999884,
            "value": 0.3858267716535433
          },
          {
            "number": 2,
            "time": 83.24999999999885,
            "value": 0.3858267716535433
          },
          {
            "number": 2,
            "time": 83.39999999999885,
            "value": 0.3858267716535433
          },
          {
            "number": 2,
            "time": 83.54999999999886,
            "value": 0.3858267716535433
          },
          {
            "number": 2,
            "time": 83.69999999999887,
            "value": 0.3858267716535433
          },
          {
            "number": 2,
            "time": 83.99999999999888,
            "value": 0.3858267716535433
          },
          {
            "number": 2,
            "time": 84.4499999999989,
            "value": 0.3858267716535433
          },
          {
            "number": 2,
            "time": 84.7499999999989,
            "value": 0.3858267716535433
          },
          {
            "number": 2,
            "time": 85.64999999999894,
            "value": 0.3858267716535433
          },
          {
            "number": 2,
            "time": 86.39999999999897,
            "value": 0.3858267716535433
          },
          {
            "number": 2,
            "time": 86.54999999999897,
            "value": 0.3858267716535433
          },
          {
            "number": 2,
            "time": 86.69999999999898,
            "value": 0.3858267716535433
          },
          {
            "number": 2,
            "time": 86.84999999999899,
            "value": 0.3858267716535433
          },
          {
            "number": 2,
            "time": 86.99999999999899,
            "value": 0.3858267716535433
          },
          {
            "number": 2,
            "time": 87.149999999999,
            "value": 0.3858267716535433
          },
          {
            "number": 2,
            "time": 87.299999999999,
            "value": 0.3858267716535433
          },
          {
            "number": 2,
            "time": 87.44999999999901,
            "value": 0.3858267716535433
          },
          {
            "number": 2,
            "time": 87.59999999999901,
            "value": 0.3858267716535433
          },
          {
            "number": 2,
            "time": 87.74999999999902,
            "value": 0.3858267716535433
          },
          {
            "number": 2,
            "time": 87.89999999999903,
            "value": 0.3858267716535433
          },
          {
            "number": 2,
            "time": 88.04999999999903,
            "value": 0.3858267716535433
          },
          {
            "number": 2,
            "time": 88.19999999999904,
            "value": 0.3858267716535433
          },
          {
            "number": 2,
            "time": 88.49999999999905,
            "value": 0.3858267716535433
          },
          {
            "number": 2,
            "time": 88.94999999999906,
            "value": 0.3858267716535433
          },
          {
            "number": 2,
            "time": 89.24999999999908,
            "value": 0.3858267716535433
          },
          {
            "number": 2,
            "time": 89.54999999999909,
            "value": 0.3858267716535433
          },
          {
            "number": 2,
            "time": 89.6999999999991,
            "value": 0.3858267716535433
          },
          {
            "number": 2,
            "time": 89.8499999999991,
            "value": 0.3858267716535433
          },
          {
            "number": 2,
            "time": 90.14999999999911,
            "value": 0.3858267716535433
          },
          {
            "number": 2,
            "time": 90.29999999999912,
            "value": 0.3858267716535433
          },
          {
            "number": 2,
            "time": 90.44999999999912,
            "value": 0.3858267716535433
          },
          {
            "number": 2,
            "time": 90.59999999999913,
            "value": 0.3858267716535433
          },
          {
            "number": 2,
            "time": 90.89999999999914,
            "value": 0.3858267716535433
          },
          {
            "number": 2,
            "time": 91.04999999999914,
            "value": 0.3858267716535433
          },
          {
            "number": 2,
            "time": 91.19999999999915,
            "value": 0.3858267716535433
          },
          {
            "number": 2,
            "time": 91.34999999999916,
            "value": 0.3858267716535433
          },
          {
            "number": 2,
            "time": 91.64999999999917,
            "value": 0.3858267716535433
          },
          {
            "number": 2,
            "time": 91.79999999999917,
            "value": 0.3858267716535433
          },
          {
            "number": 2,
            "time": 91.94999999999918,
            "value": 0.3858267716535433
          },
          {
            "number": 2,
            "time": 92.09999999999918,
            "value": 0.3858267716535433
          },
          {
            "number": 2,
            "time": 92.3999999999992,
            "value": 0.3858267716535433
          },
          {
            "number": 2,
            "time": 92.5499999999992,
            "value": 0.3858267716535433
          },
          {
            "number": 2,
            "time": 92.6999999999992,
            "value": 0.3858267716535433
          },
          {
            "number": 2,
            "time": 92.84999999999921,
            "value": 0.3858267716535433
          },
          {
            "number": 2,
            "time": 93.14999999999922,
            "value": 0.3858267716535433
          },
          {
            "number": 2,
            "time": 93.29999999999923,
            "value": 0.3858267716535433
          },
          {
            "number": 2,
            "time": 93.44999999999924,
            "value": 0.3858267716535433
          },
          {
            "number": 2,
            "time": 93.59999999999924,
            "value": 0.3858267716535433
          },
          {
            "number": 2,
            "time": 93.89999999999925,
            "value": 0.3858267716535433
          },
          {
            "number": 2,
            "time": 94.04999999999926,
            "value": 0.3858267716535433
          },
          {
            "number": 2,
            "time": 94.19999999999926,
            "value": 0.3858267716535433
          },
          {
            "number": 2,
            "time": 94.34999999999927,
            "value": 0.3858267716535433
          },
          {
            "number": 2,
            "time": 94.64999999999928,
            "value": 0.3858267716535433
          },
          {
            "number": 2,
            "time": 94.79999999999929,
            "value": 0.3858267716535433
          },
          {
            "number": 2,
            "time": 94.94999999999929,
            "value": 0.3858267716535433
          },
          {
            "number": 2,
            "time": 95.0999999999993,
            "value": 0.3858267716535433
          },
          {
            "number": 2,
            "time": 95.39999999999931,
            "value": 0.3858267716535433
          },
          {
            "number": 2,
            "time": 95.54999999999932,
            "value": 0.3858267716535433
          },
          {
            "number": 2,
            "time": 95.69999999999932,
            "value": 0.3858267716535433
          },
          {
            "number": 2,
            "time": 95.84999999999933,
            "value": 0.3858267716535433
          },
          {
            "number": 2,
            "time": 96.14999999999934,
            "value": 0.3858267716535433
          },
          {
            "number": 2,
            "time": 96.29999999999934,
            "value": 0.3858267716535433
          },
          {
            "number": 2,
            "time": 96.44999999999935,
            "value": 0.3858267716535433
          },
          {
            "number": 2,
            "time": 96.59999999999935,
            "value": 0.3858267716535433
          },
          {
            "number": 2,
            "time": 96.74999999999936,
            "value": 0.3858267716535433
          },
          {
            "number": 2,
            "time": 96.89999999999937,
            "value": 0.3858267716535433
          },
          {
            "number": 2,
            "time": 97.04999999999937,
            "value": 0.3858267716535433
          },
          {
            "number": 2,
            "time": 97.19999999999938,
            "value": 0.3858267716535433
          },
          {
            "number": 2,
            "time": 97.34999999999938,
            "value": 0.3858267716535433
          },
          {
            "number": 2,
            "time": 97.49999999999939,
            "value": 0.3858267716535433
          },
          {
            "number": 2,
            "time": 100.7999999999994,
            "value": 0.3858267716535433
          },
          {
            "number": 2,
            "time": 101.2499999999994,
            "value": 0.3858267716535433
          },
          {
            "number": 2,
            "time": 101.6999999999994,
            "value": 0.3858267716535433
          },
          {
            "number": 2,
            "time": 102.14999999999941,
            "value": 0.3858267716535433
          },
          {
            "number": 2,
            "time": 102.59999999999941,
            "value": 0.3858267716535433
          },
          {
            "number": 2,
            "time": 103.04999999999941,
            "value": 0.3858267716535433
          },
          {
            "number": 2,
            "time": 103.49999999999942,
            "value": 0.3858267716535433
          },
          {
            "number": 2,
            "time": 104.39999999999942,
            "value": 0.3858267716535433
          },
          {
            "number": 2,
            "time": 105.29999999999943,
            "value": 0.3858267716535433
          }
        ],
        "7": [
          {
            "number": 7,
            "time": 0,
            "value": 0.7874015748031497
          },
          {
            "number": 7,
            "time": 0,
            "value": 0.7874015748031497
          },
          {
            "number": 7,
            "time": 0,
            "value": 0.7874015748031497
          }
        ],
        "10": [
          {
            "number": 10,
            "time": 0,
            "value": 0.5039370078740157
          },
          {
            "number": 10,
            "time": 0,
            "value": 0.5039370078740157
          },
          {
            "number": 10,
            "time": 0,
            "value": 0.5039370078740157
          }
        ],
        "91": [
          {
            "number": 91,
            "time": 0,
            "value": 0
          },
          {
            "number": 91,
            "time": 0,
            "value": 0
          },
          {
            "number": 91,
            "time": 0,
            "value": 0
          }
        ],
        "93": [
          {
            "number": 93,
            "time": 0,
            "value": 0
          },
          {
            "number": 93,
            "time": 0,
            "value": 0
          },
          {
            "number": 93,
            "time": 0,
            "value": 0
          }
        ],
        "121": [
          {
            "number": 121,
            "time": 0,
            "value": 0
          },
          {
            "number": 121,
            "time": 0,
            "value": 0
          },
          {
            "number": 121,
            "time": 0,
            "value": 0
          }
        ]
      },
      "id": 3,
      "name": "Violoncello",
      "instrumentNumber": 44,
      "instrument": "tremolo strings",
      "instrumentFamily": "strings",
      "channelNumber": 8,
      "isPercussion": false
    },
    {
      "startTime": 3,
      "duration": 106.19937499999878,
      "length": 219,
      "notes": [
        {
          "name": "D2",
          "midi": 38,
          "time": 3,
          "velocity": 0.3858267716535433,
          "duration": 0.14937500000000004
        },
        {
          "name": "D2",
          "midi": 38,
          "time": 3.3,
          "velocity": 0.3858267716535433,
          "duration": 0.14937500000000004
        },
        {
          "name": "D2",
          "midi": 38,
          "time": 3.75,
          "velocity": 0.3858267716535433,
          "duration": 0.14937500000000004
        },
        {
          "name": "D2",
          "midi": 38,
          "time": 4.05,
          "velocity": 0.3858267716535433,
          "duration": 0.14937500000000004
        },
        {
          "name": "D2",
          "midi": 38,
          "time": 4.5,
          "velocity": 0.3858267716535433,
          "duration": 0.14937500000000004
        },
        {
          "name": "D2",
          "midi": 38,
          "time": 4.8,
          "velocity": 0.3858267716535433,
          "duration": 0.14937500000000004
        },
        {
          "name": "D2",
          "midi": 38,
          "time": 5.25,
          "velocity": 0.3858267716535433,
          "duration": 0.14937500000000004
        },
        {
          "name": "D2",
          "midi": 38,
          "time": 5.55,
          "velocity": 0.3858267716535433,
          "duration": 0.14937500000000004
        },
        {
          "name": "D2",
          "midi": 38,
          "time": 6,
          "velocity": 0.3858267716535433,
          "duration": 0.14937500000000004
        },
        {
          "name": "D2",
          "midi": 38,
          "time": 6.3,
          "velocity": 0.3858267716535433,
          "duration": 0.14937500000000004
        },
        {
          "name": "D2",
          "midi": 38,
          "time": 6.75,
          "velocity": 0.3858267716535433,
          "duration": 0.14937500000000004
        },
        {
          "name": "D2",
          "midi": 38,
          "time": 7.05,
          "velocity": 0.3858267716535433,
          "duration": 0.14937500000000004
        },
        {
          "name": "D2",
          "midi": 38,
          "time": 7.5,
          "velocity": 0.3858267716535433,
          "duration": 0.14937500000000004
        },
        {
          "name": "D2",
          "midi": 38,
          "time": 7.8,
          "velocity": 0.3858267716535433,
          "duration": 0.14937500000000004
        },
        {
          "name": "D2",
          "midi": 38,
          "time": 8.25,
          "velocity": 0.3858267716535433,
          "duration": 0.14937499999999915
        },
        {
          "name": "D2",
          "midi": 38,
          "time": 8.549999999999999,
          "velocity": 0.3858267716535433,
          "duration": 0.14937499999999915
        },
        {
          "name": "C2",
          "midi": 36,
          "time": 9.449999999999998,
          "velocity": 0.4566929133858268,
          "duration": 0.09937500000000021
        },
        {
          "name": "C2",
          "midi": 36,
          "time": 10.199999999999998,
          "velocity": 0.4566929133858268,
          "duration": 0.09937499999993094
        },
        {
          "name": "C#2",
          "midi": 37,
          "time": 10.349999999999929,
          "velocity": 0.4566929133858268,
          "duration": 0.09937499999993094
        },
        {
          "name": "D2",
          "midi": 38,
          "time": 10.49999999999986,
          "velocity": 0.3858267716535433,
          "duration": 0.14937499999999915
        },
        {
          "name": "D2",
          "midi": 38,
          "time": 10.799999999999859,
          "velocity": 0.3858267716535433,
          "duration": 0.14937499999999915
        },
        {
          "name": "D2",
          "midi": 38,
          "time": 11.249999999999858,
          "velocity": 0.3858267716535433,
          "duration": 0.14937499999999915
        },
        {
          "name": "D2",
          "midi": 38,
          "time": 11.549999999999857,
          "velocity": 0.3858267716535433,
          "duration": 0.14937499999999915
        },
        {
          "name": "D2",
          "midi": 38,
          "time": 11.999999999999856,
          "velocity": 0.3858267716535433,
          "duration": 0.14937499999999915
        },
        {
          "name": "D2",
          "midi": 38,
          "time": 12.299999999999855,
          "velocity": 0.3858267716535433,
          "duration": 0.14937499999999915
        },
        {
          "name": "D2",
          "midi": 38,
          "time": 12.749999999999854,
          "velocity": 0.3858267716535433,
          "duration": 0.14937499999999915
        },
        {
          "name": "D2",
          "midi": 38,
          "time": 13.049999999999853,
          "velocity": 0.3858267716535433,
          "duration": 0.14937499999999915
        },
        {
          "name": "A2",
          "midi": 45,
          "time": 13.499999999999853,
          "velocity": 0.6299212598425197,
          "duration": 0.14937499999999915
        },
        {
          "name": "A2",
          "midi": 45,
          "time": 14.24999999999985,
          "velocity": 0.6299212598425197,
          "duration": 0.14937499999999915
        },
        {
          "name": "A2",
          "midi": 45,
          "time": 14.99999999999985,
          "velocity": 0.6299212598425197,
          "duration": 0.14937499999999915
        },
        {
          "name": "A2",
          "midi": 45,
          "time": 15.74999999999985,
          "velocity": 0.6299212598425197,
          "duration": 0.14937499999999915
        },
        {
          "name": "G2",
          "midi": 43,
          "time": 16.49999999999985,
          "velocity": 0.6299212598425197,
          "duration": 0.14937499999999915
        },
        {
          "name": "G2",
          "midi": 43,
          "time": 17.24999999999985,
          "velocity": 0.6299212598425197,
          "duration": 0.14937499999999915
        },
        {
          "name": "G2",
          "midi": 43,
          "time": 17.99999999999985,
          "velocity": 0.6299212598425197,
          "duration": 0.14937499999999915
        },
        {
          "name": "G2",
          "midi": 43,
          "time": 18.74999999999985,
          "velocity": 0.6299212598425197,
          "duration": 0.14937499999999915
        },
        {
          "name": "F2",
          "midi": 41,
          "time": 19.49999999999985,
          "velocity": 0.6299212598425197,
          "duration": 0.14937499999999915
        },
        {
          "name": "F2",
          "midi": 41,
          "time": 20.24999999999985,
          "velocity": 0.6299212598425197,
          "duration": 0.14937499999999915
        },
        {
          "name": "F2",
          "midi": 41,
          "time": 20.69999999999985,
          "velocity": 0.6299212598425197,
          "duration": 0.14937499999999915
        },
        {
          "name": "F2",
          "midi": 41,
          "time": 20.99999999999985,
          "velocity": 0.6299212598425197,
          "duration": 0.14937499999999915
        },
        {
          "name": "F2",
          "midi": 41,
          "time": 21.44999999999985,
          "velocity": 0.6299212598425197,
          "duration": 0.14937499999999915
        },
        {
          "name": "F2",
          "midi": 41,
          "time": 21.74999999999985,
          "velocity": 0.6299212598425197,
          "duration": 0.14937499999999915
        },
        {
          "name": "F2",
          "midi": 41,
          "time": 22.19999999999985,
          "velocity": 0.6299212598425197,
          "duration": 0.14937499999999915
        },
        {
          "name": "A#2",
          "midi": 46,
          "time": 22.49999999999985,
          "velocity": 0.6299212598425197,
          "duration": 0.14937499999999915
        },
        {
          "name": "A#2",
          "midi": 46,
          "time": 23.24999999999985,
          "velocity": 0.6299212598425197,
          "duration": 0.14937499999999915
        },
        {
          "name": "A#2",
          "midi": 46,
          "time": 23.99999999999985,
          "velocity": 0.6299212598425197,
          "duration": 0.14937499999999915
        },
        {
          "name": "A#2",
          "midi": 46,
          "time": 24.74999999999985,
          "velocity": 0.6299212598425197,
          "duration": 0.14937499999999915
        },
        {
          "name": "A#2",
          "midi": 46,
          "time": 25.19999999999985,
          "velocity": 0.6299212598425197,
          "duration": 0.14937499999999915
        },
        {
          "name": "A#2",
          "midi": 46,
          "time": 25.34999999999985,
          "velocity": 0.6299212598425197,
          "duration": 0.14937499999999915
        },
        {
          "name": "A#2",
          "midi": 46,
          "time": 25.499999999999847,
          "velocity": 0.6299212598425197,
          "duration": 0.14937499999999915
        },
        {
          "name": "A1",
          "midi": 33,
          "time": 25.649999999999846,
          "velocity": 0.6299212598425197,
          "duration": 0.14937499999999915
        },
        {
          "name": "E2",
          "midi": 40,
          "time": 26.099999999999845,
          "velocity": 0.6299212598425197,
          "duration": 0.14937499999999915
        },
        {
          "name": "G2",
          "midi": 43,
          "time": 26.399999999999846,
          "velocity": 0.6299212598425197,
          "duration": 0.07437499999999986
        },
        {
          "name": "F2",
          "midi": 41,
          "time": 26.474999999999845,
          "velocity": 0.6299212598425197,
          "duration": 0.07437499999999986
        },
        {
          "name": "E2",
          "midi": 40,
          "time": 26.549999999999844,
          "velocity": 0.6299212598425197,
          "duration": 0.14937499999999915
        },
        {
          "name": "A1",
          "midi": 33,
          "time": 26.999999999999844,
          "velocity": 0.6299212598425197,
          "duration": 0.14937499999999915
        },
        {
          "name": "A1",
          "midi": 33,
          "time": 27.449999999999843,
          "velocity": 0.6299212598425197,
          "duration": 0.14937499999999915
        },
        {
          "name": "E2",
          "midi": 40,
          "time": 27.899999999999842,
          "velocity": 0.6299212598425197,
          "duration": 0.14937499999999915
        },
        {
          "name": "E2",
          "midi": 40,
          "time": 28.199999999999843,
          "velocity": 0.6299212598425197,
          "duration": 0.07437499999999986
        },
        {
          "name": "C2",
          "midi": 36,
          "time": 28.274999999999842,
          "velocity": 0.6299212598425197,
          "duration": 0.07437499999999986
        },
        {
          "name": "A1",
          "midi": 33,
          "time": 28.34999999999984,
          "velocity": 0.6299212598425197,
          "duration": 0.14937499999999915
        },
        {
          "name": "G1",
          "midi": 31,
          "time": 28.79999999999984,
          "velocity": 0.6299212598425197,
          "duration": 0.14937499999999915
        },
        {
          "name": "F1",
          "midi": 29,
          "time": 29.24999999999984,
          "velocity": 0.6299212598425197,
          "duration": 0.14937499999999915
        },
        {
          "name": "D2",
          "midi": 38,
          "time": 29.69999999999984,
          "velocity": 0.6299212598425197,
          "duration": 0.14937499999999915
        },
        {
          "name": "D2",
          "midi": 38,
          "time": 29.99999999999984,
          "velocity": 0.6299212598425197,
          "duration": 0.07437499999999986
        },
        {
          "name": "A1",
          "midi": 33,
          "time": 30.07499999999984,
          "velocity": 0.6299212598425197,
          "duration": 0.07437499999999986
        },
        {
          "name": "F1",
          "midi": 29,
          "time": 30.14999999999984,
          "velocity": 0.6299212598425197,
          "duration": 0.14937499999999915
        },
        {
          "name": "D2",
          "midi": 38,
          "time": 30.599999999999838,
          "velocity": 0.6299212598425197,
          "duration": 0.14937499999999915
        },
        {
          "name": "C#2",
          "midi": 37,
          "time": 31.049999999999837,
          "velocity": 0.6299212598425197,
          "duration": 0.14937499999999915
        },
        {
          "name": "E1",
          "midi": 28,
          "time": 31.499999999999837,
          "velocity": 0.6299212598425197,
          "duration": 0.14937499999999915
        },
        {
          "name": "C#2",
          "midi": 37,
          "time": 31.949999999999836,
          "velocity": 0.6299212598425197,
          "duration": 0.1493750000000027
        },
        {
          "name": "A#1",
          "midi": 34,
          "time": 32.09999999999984,
          "velocity": 0.6456692913385826,
          "duration": 0.14937499999999204
        },
        {
          "name": "A1",
          "midi": 33,
          "time": 32.24999999999983,
          "velocity": 0.6692913385826772,
          "duration": 0.14937499999999915
        },
        {
          "name": "G1",
          "midi": 31,
          "time": 32.39999999999983,
          "velocity": 0.6929133858267716,
          "duration": 0.14937499999999915
        },
        {
          "name": "F1",
          "midi": 29,
          "time": 32.54999999999983,
          "velocity": 0.7086614173228346,
          "duration": 0.14937499999999204
        },
        {
          "name": "E1",
          "midi": 28,
          "time": 32.69999999999982,
          "velocity": 0.7322834645669292,
          "duration": 0.14937499999999915
        },
        {
          "name": "D2",
          "midi": 38,
          "time": 32.84999999999982,
          "velocity": 0.7559055118110236,
          "duration": 0.14937499999999915
        },
        {
          "name": "D3",
          "midi": 50,
          "time": 33.29999999999981,
          "velocity": 0.7559055118110236,
          "duration": 0.14937499999999915
        },
        {
          "name": "D2",
          "midi": 38,
          "time": 33.74999999999981,
          "velocity": 0.7559055118110236,
          "duration": 0.14937499999999915
        },
        {
          "name": "C2",
          "midi": 36,
          "time": 34.199999999999804,
          "velocity": 0.7559055118110236,
          "duration": 0.14937499999999915
        },
        {
          "name": "A#1",
          "midi": 34,
          "time": 34.6499999999998,
          "velocity": 0.7559055118110236,
          "duration": 0.14937499999999915
        },
        {
          "name": "A#2",
          "midi": 46,
          "time": 35.099999999999795,
          "velocity": 0.7559055118110236,
          "duration": 0.14937499999999915
        },
        {
          "name": "A#1",
          "midi": 34,
          "time": 35.54999999999979,
          "velocity": 0.7559055118110236,
          "duration": 0.14937499999999915
        },
        {
          "name": "A1",
          "midi": 33,
          "time": 35.99999999999979,
          "velocity": 0.7559055118110236,
          "duration": 0.14937499999999915
        },
        {
          "name": "G1",
          "midi": 31,
          "time": 36.44999999999978,
          "velocity": 0.7559055118110236,
          "duration": 0.14937499999999915
        },
        {
          "name": "D3",
          "midi": 50,
          "time": 36.89999999999978,
          "velocity": 0.7559055118110236,
          "duration": 0.14937499999999915
        },
        {
          "name": "E3",
          "midi": 52,
          "time": 37.349999999999774,
          "velocity": 0.7559055118110236,
          "duration": 0.14937499999999915
        },
        {
          "name": "F3",
          "midi": 53,
          "time": 37.79999999999977,
          "velocity": 0.7559055118110236,
          "duration": 0.14937499999999915
        },
        {
          "name": "D3",
          "midi": 50,
          "time": 38.249999999999766,
          "velocity": 0.7559055118110236,
          "duration": 0.14937499999999915
        },
        {
          "name": "C3",
          "midi": 48,
          "time": 38.69999999999976,
          "velocity": 0.7559055118110236,
          "duration": 0.14937499999999915
        },
        {
          "name": "D3",
          "midi": 50,
          "time": 39.14999999999976,
          "velocity": 1,
          "duration": 0.2993749999999338
        },
        {
          "name": "E3",
          "midi": 52,
          "time": 39.44999999999969,
          "velocity": 0.7559055118110236,
          "duration": 0.14937499999999915
        },
        {
          "name": "F3",
          "midi": 53,
          "time": 39.59999999999969,
          "velocity": 1,
          "duration": 0.2993749999999338
        },
        {
          "name": "A2",
          "midi": 45,
          "time": 39.89999999999962,
          "velocity": 0.7559055118110236,
          "duration": 0.14937499999999915
        },
        {
          "name": "D2",
          "midi": 38,
          "time": 40.04999999999962,
          "velocity": 0.7559055118110236,
          "duration": 0.14937499999999915
        },
        {
          "name": "D3",
          "midi": 50,
          "time": 40.499999999999616,
          "velocity": 0.7559055118110236,
          "duration": 0.14937499999999915
        },
        {
          "name": "D2",
          "midi": 38,
          "time": 40.94999999999961,
          "velocity": 0.7559055118110236,
          "duration": 0.14937499999999915
        },
        {
          "name": "C2",
          "midi": 36,
          "time": 41.39999999999961,
          "velocity": 0.7559055118110236,
          "duration": 0.14937499999999915
        },
        {
          "name": "A#1",
          "midi": 34,
          "time": 41.8499999999996,
          "velocity": 0.7559055118110236,
          "duration": 0.14937499999999915
        },
        {
          "name": "A#2",
          "midi": 46,
          "time": 42.2999999999996,
          "velocity": 0.7559055118110236,
          "duration": 0.14937499999999915
        },
        {
          "name": "A#1",
          "midi": 34,
          "time": 42.749999999999595,
          "velocity": 0.7559055118110236,
          "duration": 0.14937499999999915
        },
        {
          "name": "A1",
          "midi": 33,
          "time": 43.19999999999959,
          "velocity": 0.7559055118110236,
          "duration": 0.14937499999999915
        },
        {
          "name": "G1",
          "midi": 31,
          "time": 43.64999999999959,
          "velocity": 0.7559055118110236,
          "duration": 0.14937499999999915
        },
        {
          "name": "D2",
          "midi": 38,
          "time": 44.09999999999958,
          "velocity": 0.7559055118110236,
          "duration": 0.14937499999999915
        },
        {
          "name": "E2",
          "midi": 40,
          "time": 44.54999999999958,
          "velocity": 0.7559055118110236,
          "duration": 0.14937499999999915
        },
        {
          "name": "F2",
          "midi": 41,
          "time": 44.999999999999574,
          "velocity": 0.7559055118110236,
          "duration": 0.14937499999999915
        },
        {
          "name": "E2",
          "midi": 40,
          "time": 45.44999999999957,
          "velocity": 0.7559055118110236,
          "duration": 0.14937499999999915
        },
        {
          "name": "C2",
          "midi": 36,
          "time": 45.899999999999565,
          "velocity": 0.7559055118110236,
          "duration": 0.14937499999999915
        },
        {
          "name": "A1",
          "midi": 33,
          "time": 46.34999999999956,
          "velocity": 1,
          "duration": 0.1493749999999352
        },
        {
          "name": "A1",
          "midi": 33,
          "time": 46.649999999999494,
          "velocity": 0.7559055118110236,
          "duration": 0.14937499999999915
        },
        {
          "name": "E1",
          "midi": 28,
          "time": 46.79999999999949,
          "velocity": 1,
          "duration": 0.1493749999999352
        },
        {
          "name": "E1",
          "midi": 28,
          "time": 47.099999999999426,
          "velocity": 0.7559055118110236,
          "duration": 0.14937499999999915
        },
        {
          "name": "D2",
          "midi": 38,
          "time": 47.249999999999424,
          "velocity": 0.7559055118110236,
          "duration": 1.7993749999999977
        },
        {
          "name": "A#1",
          "midi": 34,
          "time": 49.04999999999942,
          "velocity": 0.7559055118110236,
          "duration": 1.349375000000002
        },
        {
          "name": "A1",
          "midi": 33,
          "time": 50.39999999999942,
          "velocity": 1,
          "duration": 0.4493749999999537
        },
        {
          "name": "G1",
          "midi": 31,
          "time": 50.849999999999376,
          "velocity": 1,
          "duration": 1.3493749999999594
        },
        {
          "name": "A1",
          "midi": 33,
          "time": 52.199999999999335,
          "velocity": 1,
          "duration": 0.44937499999993236
        },
        {
          "name": "D2",
          "midi": 38,
          "time": 52.64999999999927,
          "velocity": 1,
          "duration": 0.8993749999999352
        },
        {
          "name": "A2",
          "midi": 45,
          "time": 53.5499999999992,
          "velocity": 1,
          "duration": 0.2993749999999338
        },
        {
          "name": "A2",
          "midi": 45,
          "time": 53.849999999999135,
          "velocity": 0.7559055118110236,
          "duration": 0.14937499999999915
        },
        {
          "name": "A2",
          "midi": 45,
          "time": 53.99999999999913,
          "velocity": 1,
          "duration": 0.2993749999999338
        },
        {
          "name": "A2",
          "midi": 45,
          "time": 54.299999999999066,
          "velocity": 0.7559055118110236,
          "duration": 0.14937499999999915
        },
        {
          "name": "D2",
          "midi": 38,
          "time": 54.449999999999065,
          "velocity": 0.7559055118110236,
          "duration": 1.349375000000002
        },
        {
          "name": "F2",
          "midi": 41,
          "time": 55.799999999999066,
          "velocity": 1,
          "duration": 0.44937499999993236
        },
        {
          "name": "G2",
          "midi": 43,
          "time": 56.249999999999,
          "velocity": 1,
          "duration": 0.8993749999999565
        },
        {
          "name": "A2",
          "midi": 45,
          "time": 57.149999999998954,
          "velocity": 0.7559055118110236,
          "duration": 0.8993749999999991
        },
        {
          "name": "A#2",
          "midi": 46,
          "time": 58.499999999998956,
          "velocity": 1,
          "duration": 0.8993749999999565
        },
        {
          "name": "A2",
          "midi": 45,
          "time": 59.39999999999891,
          "velocity": 1,
          "duration": 0.4493749999999537
        },
        {
          "name": "D2",
          "midi": 38,
          "time": 59.849999999998865,
          "velocity": 1,
          "duration": 0.8993749999999565
        },
        {
          "name": "F2",
          "midi": 41,
          "time": 60.74999999999882,
          "velocity": 1,
          "duration": 0.29937499999989825
        },
        {
          "name": "F2",
          "midi": 41,
          "time": 61.04999999999872,
          "velocity": 0.6377952755905512,
          "duration": 0.14937499999997783
        },
        {
          "name": "E2",
          "midi": 40,
          "time": 61.199999999998695,
          "velocity": 0.8582677165354331,
          "duration": 0.29937499999989825
        },
        {
          "name": "E2",
          "midi": 40,
          "time": 61.49999999999859,
          "velocity": 0.44881889763779526,
          "duration": 0.14937499999997783
        },
        {
          "name": "D2",
          "midi": 38,
          "time": 61.64999999999857,
          "velocity": 0.3858267716535433,
          "duration": 0.14937499999999915
        },
        {
          "name": "D2",
          "midi": 38,
          "time": 62.54999999999857,
          "velocity": 0.3858267716535433,
          "duration": 0.14937499999999915
        },
        {
          "name": "F2",
          "midi": 41,
          "time": 63.44999999999857,
          "velocity": 0.3858267716535433,
          "duration": 0.14937499999999915
        },
        {
          "name": "F2",
          "midi": 41,
          "time": 64.34999999999857,
          "velocity": 0.3858267716535433,
          "duration": 0.14937500000000625
        },
        {
          "name": "G2",
          "midi": 43,
          "time": 65.24999999999858,
          "velocity": 0.3858267716535433,
          "duration": 0.14937500000000625
        },
        {
          "name": "C2",
          "midi": 36,
          "time": 66.14999999999858,
          "velocity": 0.3858267716535433,
          "duration": 0.14937500000000625
        },
        {
          "name": "F2",
          "midi": 41,
          "time": 67.04999999999859,
          "velocity": 0.3858267716535433,
          "duration": 0.14937500000000625
        },
        {
          "name": "F2",
          "midi": 41,
          "time": 67.9499999999986,
          "velocity": 0.3858267716535433,
          "duration": 0.14937500000000625
        },
        {
          "name": "E2",
          "midi": 40,
          "time": 68.3999999999986,
          "velocity": 0.3858267716535433,
          "duration": 0.14937500000000625
        },
        {
          "name": "D2",
          "midi": 38,
          "time": 68.8499999999986,
          "velocity": 0.3858267716535433,
          "duration": 0.14937500000000625
        },
        {
          "name": "D2",
          "midi": 38,
          "time": 69.74999999999861,
          "velocity": 0.3858267716535433,
          "duration": 0.14937500000000625
        },
        {
          "name": "G2",
          "midi": 43,
          "time": 70.64999999999861,
          "velocity": 0.3858267716535433,
          "duration": 0.14937500000000625
        },
        {
          "name": "F2",
          "midi": 41,
          "time": 71.39999999999861,
          "velocity": 0.3858267716535433,
          "duration": 0.07437500000000341
        },
        {
          "name": "E2",
          "midi": 40,
          "time": 71.47499999999862,
          "velocity": 0.3858267716535433,
          "duration": 0.07437500000000341
        },
        {
          "name": "D2",
          "midi": 38,
          "time": 71.54999999999862,
          "velocity": 0.3858267716535433,
          "duration": 0.14937500000000625
        },
        {
          "name": "A#2",
          "midi": 46,
          "time": 72.44999999999862,
          "velocity": 0.3858267716535433,
          "duration": 0.14937500000000625
        },
        {
          "name": "C#3",
          "midi": 49,
          "time": 73.34999999999863,
          "velocity": 0.3858267716535433,
          "duration": 0.14937500000000625
        },
        {
          "name": "E3",
          "midi": 52,
          "time": 74.24999999999864,
          "velocity": 0.3858267716535433,
          "duration": 0.14937500000000625
        },
        {
          "name": "A2",
          "midi": 45,
          "time": 75.14999999999864,
          "velocity": 0.3858267716535433,
          "duration": 0.14937500000000625
        },
        {
          "name": "A1",
          "midi": 33,
          "time": 75.59999999999864,
          "velocity": 0.3858267716535433,
          "duration": 0.14937500000000625
        },
        {
          "name": "D2",
          "midi": 38,
          "time": 79.04999999999865,
          "velocity": 0.3858267716535433,
          "duration": 0.14937500000000625
        },
        {
          "name": "D2",
          "midi": 38,
          "time": 79.34999999999866,
          "velocity": 0.3858267716535433,
          "duration": 0.14937500000000625
        },
        {
          "name": "D2",
          "midi": 38,
          "time": 79.79999999999866,
          "velocity": 0.3858267716535433,
          "duration": 0.14937500000000625
        },
        {
          "name": "D2",
          "midi": 38,
          "time": 80.09999999999867,
          "velocity": 0.3858267716535433,
          "duration": 0.14937500000000625
        },
        {
          "name": "C2",
          "midi": 36,
          "time": 80.39999999999868,
          "velocity": 0.3858267716535433,
          "duration": 0.14937500000000625
        },
        {
          "name": "D2",
          "midi": 38,
          "time": 80.54999999999869,
          "velocity": 0.3858267716535433,
          "duration": 0.14937500000000625
        },
        {
          "name": "D2",
          "midi": 38,
          "time": 80.8499999999987,
          "velocity": 0.3858267716535433,
          "duration": 0.14937500000000625
        },
        {
          "name": "D2",
          "midi": 38,
          "time": 81.2999999999987,
          "velocity": 0.3858267716535433,
          "duration": 0.14937500000000625
        },
        {
          "name": "D2",
          "midi": 38,
          "time": 81.59999999999872,
          "velocity": 0.3858267716535433,
          "duration": 0.14937500000000625
        },
        {
          "name": "C2",
          "midi": 36,
          "time": 81.89999999999873,
          "velocity": 0.3858267716535433,
          "duration": 0.14937500000000625
        },
        {
          "name": "D2",
          "midi": 38,
          "time": 82.04999999999873,
          "velocity": 0.3858267716535433,
          "duration": 0.14937500000000625
        },
        {
          "name": "D2",
          "midi": 38,
          "time": 82.34999999999874,
          "velocity": 0.3858267716535433,
          "duration": 0.14937500000000625
        },
        {
          "name": "D2",
          "midi": 38,
          "time": 82.79999999999875,
          "velocity": 0.3858267716535433,
          "duration": 0.14937500000000625
        },
        {
          "name": "D2",
          "midi": 38,
          "time": 83.09999999999876,
          "velocity": 0.3858267716535433,
          "duration": 0.14937500000000625
        },
        {
          "name": "C2",
          "midi": 36,
          "time": 83.39999999999877,
          "velocity": 0.3858267716535433,
          "duration": 0.14937500000000625
        },
        {
          "name": "D2",
          "midi": 38,
          "time": 83.54999999999878,
          "velocity": 0.3858267716535433,
          "duration": 0.14937500000000625
        },
        {
          "name": "D2",
          "midi": 38,
          "time": 83.84999999999879,
          "velocity": 0.3858267716535433,
          "duration": 0.14937500000000625
        },
        {
          "name": "D2",
          "midi": 38,
          "time": 84.29999999999879,
          "velocity": 0.3858267716535433,
          "duration": 0.14937500000000625
        },
        {
          "name": "D2",
          "midi": 38,
          "time": 84.5999999999988,
          "velocity": 0.3858267716535433,
          "duration": 0.14937500000000625
        },
        {
          "name": "C2",
          "midi": 36,
          "time": 85.4999999999988,
          "velocity": 0.4566929133858268,
          "duration": 0.09937499999996646
        },
        {
          "name": "C2",
          "midi": 36,
          "time": 86.24999999999878,
          "velocity": 0.4566929133858268,
          "duration": 0.09937499999996646
        },
        {
          "name": "C#2",
          "midi": 37,
          "time": 86.39999999999874,
          "velocity": 0.4566929133858268,
          "duration": 0.09937499999996646
        },
        {
          "name": "D2",
          "midi": 38,
          "time": 86.5499999999987,
          "velocity": 0.3858267716535433,
          "duration": 0.14937500000000625
        },
        {
          "name": "D2",
          "midi": 38,
          "time": 86.84999999999872,
          "velocity": 0.3858267716535433,
          "duration": 0.14937500000000625
        },
        {
          "name": "D2",
          "midi": 38,
          "time": 87.29999999999872,
          "velocity": 0.3858267716535433,
          "duration": 0.14937500000000625
        },
        {
          "name": "D2",
          "midi": 38,
          "time": 87.59999999999873,
          "velocity": 0.3858267716535433,
          "duration": 0.14937500000000625
        },
        {
          "name": "D2",
          "midi": 38,
          "time": 88.04999999999873,
          "velocity": 0.3858267716535433,
          "duration": 0.14937500000000625
        },
        {
          "name": "D2",
          "midi": 38,
          "time": 88.34999999999874,
          "velocity": 0.3858267716535433,
          "duration": 0.14937500000000625
        },
        {
          "name": "D2",
          "midi": 38,
          "time": 88.79999999999875,
          "velocity": 0.3858267716535433,
          "duration": 0.14937500000000625
        },
        {
          "name": "D2",
          "midi": 38,
          "time": 89.09999999999876,
          "velocity": 0.3858267716535433,
          "duration": 0.14937500000000625
        },
        {
          "name": "A2",
          "midi": 45,
          "time": 89.54999999999876,
          "velocity": 0.7559055118110236,
          "duration": 0.14937500000000625
        },
        {
          "name": "A2",
          "midi": 45,
          "time": 90.29999999999876,
          "velocity": 0.7559055118110236,
          "duration": 0.14937500000000625
        },
        {
          "name": "A2",
          "midi": 45,
          "time": 91.04999999999876,
          "velocity": 0.7559055118110236,
          "duration": 0.14937500000000625
        },
        {
          "name": "A2",
          "midi": 45,
          "time": 91.79999999999876,
          "velocity": 0.7559055118110236,
          "duration": 0.14937500000000625
        },
        {
          "name": "G2",
          "midi": 43,
          "time": 92.54999999999876,
          "velocity": 0.7559055118110236,
          "duration": 0.14937500000000625
        },
        {
          "name": "G2",
          "midi": 43,
          "time": 93.29999999999876,
          "velocity": 0.7559055118110236,
          "duration": 0.14937500000000625
        },
        {
          "name": "G2",
          "midi": 43,
          "time": 94.04999999999876,
          "velocity": 0.7559055118110236,
          "duration": 0.14937500000000625
        },
        {
          "name": "G2",
          "midi": 43,
          "time": 94.79999999999876,
          "velocity": 0.7559055118110236,
          "duration": 0.14937500000000625
        },
        {
          "name": "F2",
          "midi": 41,
          "time": 95.54999999999876,
          "velocity": 0.7559055118110236,
          "duration": 0.4493750000000034
        },
        {
          "name": "F2",
          "midi": 41,
          "time": 95.99999999999876,
          "velocity": 0.7559055118110236,
          "duration": 0.14937500000000625
        },
        {
          "name": "E3",
          "midi": 52,
          "time": 96.14999999999877,
          "velocity": 0.7559055118110236,
          "duration": 0.14937500000000625
        },
        {
          "name": "E2",
          "midi": 40,
          "time": 96.29999999999878,
          "velocity": 0.7559055118110236,
          "duration": 0.14937500000000625
        },
        {
          "name": "F2",
          "midi": 41,
          "time": 96.44999999999878,
          "velocity": 0.7559055118110236,
          "duration": 0.2993749999999977
        },
        {
          "name": "E2",
          "midi": 40,
          "time": 96.74999999999878,
          "velocity": 0.7559055118110236,
          "duration": 0.14937500000000625
        },
        {
          "name": "F2",
          "midi": 41,
          "time": 96.89999999999878,
          "velocity": 0.7559055118110236,
          "duration": 0.14937500000000625
        },
        {
          "name": "E3",
          "midi": 52,
          "time": 97.04999999999879,
          "velocity": 0.7559055118110236,
          "duration": 0.14937500000000625
        },
        {
          "name": "E2",
          "midi": 40,
          "time": 97.1999999999988,
          "velocity": 0.7559055118110236,
          "duration": 0.14937500000000625
        },
        {
          "name": "F2",
          "midi": 41,
          "time": 97.3499999999988,
          "velocity": 0.7559055118110236,
          "duration": 0.2993749999999977
        },
        {
          "name": "E2",
          "midi": 40,
          "time": 97.6499999999988,
          "velocity": 0.7559055118110236,
          "duration": 0.14937500000000625
        },
        {
          "name": "F2",
          "midi": 41,
          "time": 97.7999999999988,
          "velocity": 0.7559055118110236,
          "duration": 0.14937500000000625
        },
        {
          "name": "E2",
          "midi": 40,
          "time": 98.09999999999881,
          "velocity": 0.7559055118110236,
          "duration": 0.14937500000000625
        },
        {
          "name": "D2",
          "midi": 38,
          "time": 98.39999999999883,
          "velocity": 0.7559055118110236,
          "duration": 0.14937500000000625
        },
        {
          "name": "A#1",
          "midi": 34,
          "time": 98.54999999999883,
          "velocity": 0.905511811023622,
          "duration": 0.6006249999999369
        },
        {
          "name": "A#1",
          "midi": 34,
          "time": 99.29999999999878,
          "velocity": 0.7559055118110236,
          "duration": 0.2993749999999977
        },
        {
          "name": "A#1",
          "midi": 34,
          "time": 99.74999999999878,
          "velocity": 0.7559055118110236,
          "duration": 0.14937500000000625
        },
        {
          "name": "A2",
          "midi": 45,
          "time": 99.89999999999878,
          "velocity": 0.7559055118110236,
          "duration": 0.14937500000000625
        },
        {
          "name": "A#1",
          "midi": 34,
          "time": 100.04999999999879,
          "velocity": 0.905511811023622,
          "duration": 0.6006249999999369
        },
        {
          "name": "A#1",
          "midi": 34,
          "time": 100.79999999999873,
          "velocity": 0.7559055118110236,
          "duration": 0.2993749999999977
        },
        {
          "name": "A#1",
          "midi": 34,
          "time": 101.24999999999874,
          "velocity": 0.7559055118110236,
          "duration": 0.14937500000000625
        },
        {
          "name": "A2",
          "midi": 45,
          "time": 101.39999999999874,
          "velocity": 0.7559055118110236,
          "duration": 0.14937500000000625
        },
        {
          "name": "A1",
          "midi": 33,
          "time": 101.54999999999875,
          "velocity": 0.7559055118110236,
          "duration": 0.14937500000000625
        },
        {
          "name": "A2",
          "midi": 45,
          "time": 101.69999999999875,
          "velocity": 0.7559055118110236,
          "duration": 0.14937500000000625
        },
        {
          "name": "A1",
          "midi": 33,
          "time": 102.14999999999876,
          "velocity": 0.7559055118110236,
          "duration": 0.14937500000000625
        },
        {
          "name": "E1",
          "midi": 28,
          "time": 102.59999999999876,
          "velocity": 0.7559055118110236,
          "duration": 0.14937500000000625
        },
        {
          "name": "A1",
          "midi": 33,
          "time": 103.04999999999876,
          "velocity": 0.7559055118110236,
          "duration": 0.14937500000000625
        },
        {
          "name": "D1",
          "midi": 26,
          "time": 103.49999999999876,
          "velocity": 0.7559055118110236,
          "duration": 2.6993750000000176
        },
        {
          "name": "D2",
          "midi": 38,
          "time": 103.49999999999876,
          "velocity": 0.7559055118110236,
          "duration": 2.6993750000000176
        }
      ],
      "controlChanges": {
        "2": [
          {
            "number": 2,
            "time": 3,
            "value": 0.3858267716535433
          },
          {
            "number": 2,
            "time": 3.3,
            "value": 0.3858267716535433
          },
          {
            "number": 2,
            "time": 3.75,
            "value": 0.3858267716535433
          },
          {
            "number": 2,
            "time": 4.05,
            "value": 0.3858267716535433
          },
          {
            "number": 2,
            "time": 4.5,
            "value": 0.3858267716535433
          },
          {
            "number": 2,
            "time": 4.8,
            "value": 0.3858267716535433
          },
          {
            "number": 2,
            "time": 5.25,
            "value": 0.3858267716535433
          },
          {
            "number": 2,
            "time": 5.55,
            "value": 0.3858267716535433
          },
          {
            "number": 2,
            "time": 6,
            "value": 0.3858267716535433
          },
          {
            "number": 2,
            "time": 6.3,
            "value": 0.3858267716535433
          },
          {
            "number": 2,
            "time": 6.75,
            "value": 0.3858267716535433
          },
          {
            "number": 2,
            "time": 7.05,
            "value": 0.3858267716535433
          },
          {
            "number": 2,
            "time": 7.5,
            "value": 0.3858267716535433
          },
          {
            "number": 2,
            "time": 7.8,
            "value": 0.3858267716535433
          },
          {
            "number": 2,
            "time": 8.25,
            "value": 0.3858267716535433
          },
          {
            "number": 2,
            "time": 8.549999999999999,
            "value": 0.3858267716535433
          },
          {
            "number": 2,
            "time": 9.449999999999998,
            "value": 0.4566929133858268
          },
          {
            "number": 2,
            "time": 9.456249999999997,
            "value": 0.44881889763779526
          },
          {
            "number": 2,
            "time": 9.464374999999997,
            "value": 0.4409448818897638
          },
          {
            "number": 2,
            "time": 9.471874999999997,
            "value": 0.4330708661417323
          },
          {
            "number": 2,
            "time": 9.479374999999997,
            "value": 0.4251968503937008
          },
          {
            "number": 2,
            "time": 9.486874999999998,
            "value": 0.41732283464566927
          },
          {
            "number": 2,
            "time": 9.494999999999997,
            "value": 0.4094488188976378
          },
          {
            "number": 2,
            "time": 9.502499999999998,
            "value": 0.4015748031496063
          },
          {
            "number": 2,
            "time": 9.509999999999998,
            "value": 0.3937007874015748
          },
          {
            "number": 2,
            "time": 9.517499999999998,
            "value": 0.3858267716535433
          },
          {
            "number": 2,
            "time": 10.199999999999998,
            "value": 0.4566929133858268
          },
          {
            "number": 2,
            "time": 10.200624999999997,
            "value": 0.4566929133858268
          },
          {
            "number": 2,
            "time": 10.201249999999996,
            "value": 0.4566929133858268
          },
          {
            "number": 2,
            "time": 10.201874999999996,
            "value": 0.4566929133858268
          },
          {
            "number": 2,
            "time": 10.202499999999995,
            "value": 0.4566929133858268
          },
          {
            "number": 2,
            "time": 10.203124999999995,
            "value": 0.4566929133858268
          },
          {
            "number": 2,
            "time": 10.203749999999994,
            "value": 0.4566929133858268
          },
          {
            "number": 2,
            "time": 10.204374999999994,
            "value": 0.4566929133858268
          },
          {
            "number": 2,
            "time": 10.204999999999993,
            "value": 0.4566929133858268
          },
          {
            "number": 2,
            "time": 10.205624999999992,
            "value": 0.4566929133858268
          },
          {
            "number": 2,
            "time": 10.206249999999992,
            "value": 0.44881889763779526
          },
          {
            "number": 2,
            "time": 10.206874999999991,
            "value": 0.44881889763779526
          },
          {
            "number": 2,
            "time": 10.20749999999999,
            "value": 0.44881889763779526
          },
          {
            "number": 2,
            "time": 10.20812499999999,
            "value": 0.44881889763779526
          },
          {
            "number": 2,
            "time": 10.20874999999999,
            "value": 0.44881889763779526
          },
          {
            "number": 2,
            "time": 10.209374999999989,
            "value": 0.44881889763779526
          },
          {
            "number": 2,
            "time": 10.209999999999988,
            "value": 0.44881889763779526
          },
          {
            "number": 2,
            "time": 10.210624999999988,
            "value": 0.44881889763779526
          },
          {
            "number": 2,
            "time": 10.211249999999987,
            "value": 0.44881889763779526
          },
          {
            "number": 2,
            "time": 10.211874999999987,
            "value": 0.44881889763779526
          },
          {
            "number": 2,
            "time": 10.212499999999986,
            "value": 0.44881889763779526
          },
          {
            "number": 2,
            "time": 10.213124999999986,
            "value": 0.44881889763779526
          },
          {
            "number": 2,
            "time": 10.213749999999985,
            "value": 0.44881889763779526
          },
          {
            "number": 2,
            "time": 10.214374999999984,
            "value": 0.4409448818897638
          },
          {
            "number": 2,
            "time": 10.214999999999984,
            "value": 0.4409448818897638
          },
          {
            "number": 2,
            "time": 10.215624999999983,
            "value": 0.4409448818897638
          },
          {
            "number": 2,
            "time": 10.216249999999983,
            "value": 0.4409448818897638
          },
          {
            "number": 2,
            "time": 10.216874999999982,
            "value": 0.4409448818897638
          },
          {
            "number": 2,
            "time": 10.217499999999982,
            "value": 0.4409448818897638
          },
          {
            "number": 2,
            "time": 10.218124999999981,
            "value": 0.4409448818897638
          },
          {
            "number": 2,
            "time": 10.21874999999998,
            "value": 0.4409448818897638
          },
          {
            "number": 2,
            "time": 10.21937499999998,
            "value": 0.4409448818897638
          },
          {
            "number": 2,
            "time": 10.21999999999998,
            "value": 0.4409448818897638
          },
          {
            "number": 2,
            "time": 10.220624999999979,
            "value": 0.4409448818897638
          },
          {
            "number": 2,
            "time": 10.221249999999978,
            "value": 0.4409448818897638
          },
          {
            "number": 2,
            "time": 10.221874999999978,
            "value": 0.4330708661417323
          },
          {
            "number": 2,
            "time": 10.222499999999977,
            "value": 0.4330708661417323
          },
          {
            "number": 2,
            "time": 10.223124999999976,
            "value": 0.4330708661417323
          },
          {
            "number": 2,
            "time": 10.223749999999976,
            "value": 0.4330708661417323
          },
          {
            "number": 2,
            "time": 10.224374999999975,
            "value": 0.4330708661417323
          },
          {
            "number": 2,
            "time": 10.224999999999975,
            "value": 0.4330708661417323
          },
          {
            "number": 2,
            "time": 10.225624999999974,
            "value": 0.4330708661417323
          },
          {
            "number": 2,
            "time": 10.226249999999974,
            "value": 0.4330708661417323
          },
          {
            "number": 2,
            "time": 10.226874999999973,
            "value": 0.4330708661417323
          },
          {
            "number": 2,
            "time": 10.227499999999973,
            "value": 0.4330708661417323
          },
          {
            "number": 2,
            "time": 10.228124999999972,
            "value": 0.4330708661417323
          },
          {
            "number": 2,
            "time": 10.228749999999971,
            "value": 0.4330708661417323
          },
          {
            "number": 2,
            "time": 10.22937499999997,
            "value": 0.4251968503937008
          },
          {
            "number": 2,
            "time": 10.22999999999997,
            "value": 0.4251968503937008
          },
          {
            "number": 2,
            "time": 10.23062499999997,
            "value": 0.4251968503937008
          },
          {
            "number": 2,
            "time": 10.231249999999969,
            "value": 0.4251968503937008
          },
          {
            "number": 2,
            "time": 10.231874999999969,
            "value": 0.4251968503937008
          },
          {
            "number": 2,
            "time": 10.232499999999968,
            "value": 0.4251968503937008
          },
          {
            "number": 2,
            "time": 10.233124999999967,
            "value": 0.4251968503937008
          },
          {
            "number": 2,
            "time": 10.233749999999967,
            "value": 0.4251968503937008
          },
          {
            "number": 2,
            "time": 10.234374999999966,
            "value": 0.4251968503937008
          },
          {
            "number": 2,
            "time": 10.234999999999966,
            "value": 0.4251968503937008
          },
          {
            "number": 2,
            "time": 10.235624999999965,
            "value": 0.4251968503937008
          },
          {
            "number": 2,
            "time": 10.236249999999965,
            "value": 0.4251968503937008
          },
          {
            "number": 2,
            "time": 10.236874999999964,
            "value": 0.41732283464566927
          },
          {
            "number": 2,
            "time": 10.237499999999963,
            "value": 0.41732283464566927
          },
          {
            "number": 2,
            "time": 10.238124999999963,
            "value": 0.41732283464566927
          },
          {
            "number": 2,
            "time": 10.238749999999962,
            "value": 0.41732283464566927
          },
          {
            "number": 2,
            "time": 10.239374999999962,
            "value": 0.41732283464566927
          },
          {
            "number": 2,
            "time": 10.239999999999961,
            "value": 0.41732283464566927
          },
          {
            "number": 2,
            "time": 10.24062499999996,
            "value": 0.41732283464566927
          },
          {
            "number": 2,
            "time": 10.24124999999996,
            "value": 0.41732283464566927
          },
          {
            "number": 2,
            "time": 10.24187499999996,
            "value": 0.41732283464566927
          },
          {
            "number": 2,
            "time": 10.242499999999959,
            "value": 0.41732283464566927
          },
          {
            "number": 2,
            "time": 10.243124999999958,
            "value": 0.41732283464566927
          },
          {
            "number": 2,
            "time": 10.243749999999958,
            "value": 0.41732283464566927
          },
          {
            "number": 2,
            "time": 10.244374999999957,
            "value": 0.41732283464566927
          },
          {
            "number": 2,
            "time": 10.244999999999957,
            "value": 0.4094488188976378
          },
          {
            "number": 2,
            "time": 10.245624999999956,
            "value": 0.4094488188976378
          },
          {
            "number": 2,
            "time": 10.246249999999955,
            "value": 0.4094488188976378
          },
          {
            "number": 2,
            "time": 10.246874999999955,
            "value": 0.4094488188976378
          },
          {
            "number": 2,
            "time": 10.247499999999954,
            "value": 0.4094488188976378
          },
          {
            "number": 2,
            "time": 10.248124999999954,
            "value": 0.4094488188976378
          },
          {
            "number": 2,
            "time": 10.248749999999953,
            "value": 0.4094488188976378
          },
          {
            "number": 2,
            "time": 10.249374999999953,
            "value": 0.4094488188976378
          },
          {
            "number": 2,
            "time": 10.249999999999952,
            "value": 0.4094488188976378
          },
          {
            "number": 2,
            "time": 10.250624999999951,
            "value": 0.4094488188976378
          },
          {
            "number": 2,
            "time": 10.251249999999951,
            "value": 0.4094488188976378
          },
          {
            "number": 2,
            "time": 10.25187499999995,
            "value": 0.4094488188976378
          },
          {
            "number": 2,
            "time": 10.25249999999995,
            "value": 0.4015748031496063
          },
          {
            "number": 2,
            "time": 10.25312499999995,
            "value": 0.4015748031496063
          },
          {
            "number": 2,
            "time": 10.253749999999949,
            "value": 0.4015748031496063
          },
          {
            "number": 2,
            "time": 10.254374999999948,
            "value": 0.4015748031496063
          },
          {
            "number": 2,
            "time": 10.254999999999947,
            "value": 0.4015748031496063
          },
          {
            "number": 2,
            "time": 10.255624999999947,
            "value": 0.4015748031496063
          },
          {
            "number": 2,
            "time": 10.256249999999946,
            "value": 0.4015748031496063
          },
          {
            "number": 2,
            "time": 10.256874999999946,
            "value": 0.4015748031496063
          },
          {
            "number": 2,
            "time": 10.257499999999945,
            "value": 0.4015748031496063
          },
          {
            "number": 2,
            "time": 10.258124999999945,
            "value": 0.4015748031496063
          },
          {
            "number": 2,
            "time": 10.258749999999944,
            "value": 0.4015748031496063
          },
          {
            "number": 2,
            "time": 10.259374999999944,
            "value": 0.4015748031496063
          },
          {
            "number": 2,
            "time": 10.259999999999943,
            "value": 0.3937007874015748
          },
          {
            "number": 2,
            "time": 10.260624999999942,
            "value": 0.3937007874015748
          },
          {
            "number": 2,
            "time": 10.261249999999942,
            "value": 0.3937007874015748
          },
          {
            "number": 2,
            "time": 10.261874999999941,
            "value": 0.3937007874015748
          },
          {
            "number": 2,
            "time": 10.26249999999994,
            "value": 0.3937007874015748
          },
          {
            "number": 2,
            "time": 10.26312499999994,
            "value": 0.3937007874015748
          },
          {
            "number": 2,
            "time": 10.26374999999994,
            "value": 0.3937007874015748
          },
          {
            "number": 2,
            "time": 10.264374999999939,
            "value": 0.3937007874015748
          },
          {
            "number": 2,
            "time": 10.264999999999938,
            "value": 0.3937007874015748
          },
          {
            "number": 2,
            "time": 10.265624999999938,
            "value": 0.3937007874015748
          },
          {
            "number": 2,
            "time": 10.266249999999937,
            "value": 0.3937007874015748
          },
          {
            "number": 2,
            "time": 10.266874999999937,
            "value": 0.3937007874015748
          },
          {
            "number": 2,
            "time": 10.267499999999936,
            "value": 0.3858267716535433
          },
          {
            "number": 2,
            "time": 10.268124999999936,
            "value": 0.3858267716535433
          },
          {
            "number": 2,
            "time": 10.268749999999935,
            "value": 0.3858267716535433
          },
          {
            "number": 2,
            "time": 10.269374999999934,
            "value": 0.3858267716535433
          },
          {
            "number": 2,
            "time": 10.269999999999934,
            "value": 0.3858267716535433
          },
          {
            "number": 2,
            "time": 10.270624999999933,
            "value": 0.3858267716535433
          },
          {
            "number": 2,
            "time": 10.271249999999933,
            "value": 0.3858267716535433
          },
          {
            "number": 2,
            "time": 10.271874999999932,
            "value": 0.3858267716535433
          },
          {
            "number": 2,
            "time": 10.272499999999932,
            "value": 0.3858267716535433
          },
          {
            "number": 2,
            "time": 10.273124999999931,
            "value": 0.3858267716535433
          },
          {
            "number": 2,
            "time": 10.27374999999993,
            "value": 0.3858267716535433
          },
          {
            "number": 2,
            "time": 10.27437499999993,
            "value": 0.3858267716535433
          },
          {
            "number": 2,
            "time": 10.27499999999993,
            "value": 0.3858267716535433
          },
          {
            "number": 2,
            "time": 10.349999999999929,
            "value": 0.4566929133858268
          },
          {
            "number": 2,
            "time": 10.350624999999928,
            "value": 0.4566929133858268
          },
          {
            "number": 2,
            "time": 10.351249999999927,
            "value": 0.4566929133858268
          },
          {
            "number": 2,
            "time": 10.351874999999927,
            "value": 0.4566929133858268
          },
          {
            "number": 2,
            "time": 10.352499999999926,
            "value": 0.4566929133858268
          },
          {
            "number": 2,
            "time": 10.353124999999926,
            "value": 0.4566929133858268
          },
          {
            "number": 2,
            "time": 10.353749999999925,
            "value": 0.4566929133858268
          },
          {
            "number": 2,
            "time": 10.354374999999925,
            "value": 0.4566929133858268
          },
          {
            "number": 2,
            "time": 10.354999999999924,
            "value": 0.4566929133858268
          },
          {
            "number": 2,
            "time": 10.355624999999923,
            "value": 0.4566929133858268
          },
          {
            "number": 2,
            "time": 10.356249999999923,
            "value": 0.44881889763779526
          },
          {
            "number": 2,
            "time": 10.356874999999922,
            "value": 0.44881889763779526
          },
          {
            "number": 2,
            "time": 10.357499999999922,
            "value": 0.44881889763779526
          },
          {
            "number": 2,
            "time": 10.358124999999921,
            "value": 0.44881889763779526
          },
          {
            "number": 2,
            "time": 10.35874999999992,
            "value": 0.44881889763779526
          },
          {
            "number": 2,
            "time": 10.35937499999992,
            "value": 0.44881889763779526
          },
          {
            "number": 2,
            "time": 10.35999999999992,
            "value": 0.44881889763779526
          },
          {
            "number": 2,
            "time": 10.360624999999919,
            "value": 0.44881889763779526
          },
          {
            "number": 2,
            "time": 10.361249999999918,
            "value": 0.44881889763779526
          },
          {
            "number": 2,
            "time": 10.361874999999918,
            "value": 0.44881889763779526
          },
          {
            "number": 2,
            "time": 10.362499999999917,
            "value": 0.44881889763779526
          },
          {
            "number": 2,
            "time": 10.363124999999917,
            "value": 0.44881889763779526
          },
          {
            "number": 2,
            "time": 10.363749999999916,
            "value": 0.44881889763779526
          },
          {
            "number": 2,
            "time": 10.364374999999916,
            "value": 0.4409448818897638
          },
          {
            "number": 2,
            "time": 10.364999999999915,
            "value": 0.4409448818897638
          },
          {
            "number": 2,
            "time": 10.365624999999914,
            "value": 0.4409448818897638
          },
          {
            "number": 2,
            "time": 10.366249999999914,
            "value": 0.4409448818897638
          },
          {
            "number": 2,
            "time": 10.366874999999913,
            "value": 0.4409448818897638
          },
          {
            "number": 2,
            "time": 10.367499999999913,
            "value": 0.4409448818897638
          },
          {
            "number": 2,
            "time": 10.368124999999912,
            "value": 0.4409448818897638
          },
          {
            "number": 2,
            "time": 10.368749999999912,
            "value": 0.4409448818897638
          },
          {
            "number": 2,
            "time": 10.369374999999911,
            "value": 0.4409448818897638
          },
          {
            "number": 2,
            "time": 10.36999999999991,
            "value": 0.4409448818897638
          },
          {
            "number": 2,
            "time": 10.37062499999991,
            "value": 0.4409448818897638
          },
          {
            "number": 2,
            "time": 10.37124999999991,
            "value": 0.4409448818897638
          },
          {
            "number": 2,
            "time": 10.371874999999909,
            "value": 0.4330708661417323
          },
          {
            "number": 2,
            "time": 10.372499999999908,
            "value": 0.4330708661417323
          },
          {
            "number": 2,
            "time": 10.373124999999908,
            "value": 0.4330708661417323
          },
          {
            "number": 2,
            "time": 10.373749999999907,
            "value": 0.4330708661417323
          },
          {
            "number": 2,
            "time": 10.374374999999906,
            "value": 0.4330708661417323
          },
          {
            "number": 2,
            "time": 10.374999999999906,
            "value": 0.4330708661417323
          },
          {
            "number": 2,
            "time": 10.375624999999905,
            "value": 0.4330708661417323
          },
          {
            "number": 2,
            "time": 10.376249999999905,
            "value": 0.4330708661417323
          },
          {
            "number": 2,
            "time": 10.376874999999904,
            "value": 0.4330708661417323
          },
          {
            "number": 2,
            "time": 10.377499999999904,
            "value": 0.4330708661417323
          },
          {
            "number": 2,
            "time": 10.378124999999903,
            "value": 0.4330708661417323
          },
          {
            "number": 2,
            "time": 10.378749999999902,
            "value": 0.4330708661417323
          },
          {
            "number": 2,
            "time": 10.379374999999902,
            "value": 0.4251968503937008
          },
          {
            "number": 2,
            "time": 10.379999999999901,
            "value": 0.4251968503937008
          },
          {
            "number": 2,
            "time": 10.3806249999999,
            "value": 0.4251968503937008
          },
          {
            "number": 2,
            "time": 10.3812499999999,
            "value": 0.4251968503937008
          },
          {
            "number": 2,
            "time": 10.3818749999999,
            "value": 0.4251968503937008
          },
          {
            "number": 2,
            "time": 10.382499999999899,
            "value": 0.4251968503937008
          },
          {
            "number": 2,
            "time": 10.383124999999898,
            "value": 0.4251968503937008
          },
          {
            "number": 2,
            "time": 10.383749999999898,
            "value": 0.4251968503937008
          },
          {
            "number": 2,
            "time": 10.384374999999897,
            "value": 0.4251968503937008
          },
          {
            "number": 2,
            "time": 10.384999999999897,
            "value": 0.4251968503937008
          },
          {
            "number": 2,
            "time": 10.385624999999896,
            "value": 0.4251968503937008
          },
          {
            "number": 2,
            "time": 10.386249999999896,
            "value": 0.4251968503937008
          },
          {
            "number": 2,
            "time": 10.386874999999895,
            "value": 0.41732283464566927
          },
          {
            "number": 2,
            "time": 10.387499999999894,
            "value": 0.41732283464566927
          },
          {
            "number": 2,
            "time": 10.388124999999894,
            "value": 0.41732283464566927
          },
          {
            "number": 2,
            "time": 10.388749999999893,
            "value": 0.41732283464566927
          },
          {
            "number": 2,
            "time": 10.389374999999893,
            "value": 0.41732283464566927
          },
          {
            "number": 2,
            "time": 10.389999999999892,
            "value": 0.41732283464566927
          },
          {
            "number": 2,
            "time": 10.390624999999892,
            "value": 0.41732283464566927
          },
          {
            "number": 2,
            "time": 10.391249999999891,
            "value": 0.41732283464566927
          },
          {
            "number": 2,
            "time": 10.39187499999989,
            "value": 0.41732283464566927
          },
          {
            "number": 2,
            "time": 10.39249999999989,
            "value": 0.41732283464566927
          },
          {
            "number": 2,
            "time": 10.39312499999989,
            "value": 0.41732283464566927
          },
          {
            "number": 2,
            "time": 10.393749999999889,
            "value": 0.41732283464566927
          },
          {
            "number": 2,
            "time": 10.394374999999888,
            "value": 0.41732283464566927
          },
          {
            "number": 2,
            "time": 10.394999999999888,
            "value": 0.4094488188976378
          },
          {
            "number": 2,
            "time": 10.395624999999887,
            "value": 0.4094488188976378
          },
          {
            "number": 2,
            "time": 10.396249999999887,
            "value": 0.4094488188976378
          },
          {
            "number": 2,
            "time": 10.396874999999886,
            "value": 0.4094488188976378
          },
          {
            "number": 2,
            "time": 10.397499999999885,
            "value": 0.4094488188976378
          },
          {
            "number": 2,
            "time": 10.398124999999885,
            "value": 0.4094488188976378
          },
          {
            "number": 2,
            "time": 10.398749999999884,
            "value": 0.4094488188976378
          },
          {
            "number": 2,
            "time": 10.399374999999884,
            "value": 0.4094488188976378
          },
          {
            "number": 2,
            "time": 10.399999999999883,
            "value": 0.4094488188976378
          },
          {
            "number": 2,
            "time": 10.400624999999883,
            "value": 0.4094488188976378
          },
          {
            "number": 2,
            "time": 10.401249999999882,
            "value": 0.4094488188976378
          },
          {
            "number": 2,
            "time": 10.401874999999881,
            "value": 0.4094488188976378
          },
          {
            "number": 2,
            "time": 10.40249999999988,
            "value": 0.4015748031496063
          },
          {
            "number": 2,
            "time": 10.40312499999988,
            "value": 0.4015748031496063
          },
          {
            "number": 2,
            "time": 10.40374999999988,
            "value": 0.4015748031496063
          },
          {
            "number": 2,
            "time": 10.40437499999988,
            "value": 0.4015748031496063
          },
          {
            "number": 2,
            "time": 10.404999999999879,
            "value": 0.4015748031496063
          },
          {
            "number": 2,
            "time": 10.405624999999878,
            "value": 0.4015748031496063
          },
          {
            "number": 2,
            "time": 10.406249999999877,
            "value": 0.4015748031496063
          },
          {
            "number": 2,
            "time": 10.406874999999877,
            "value": 0.4015748031496063
          },
          {
            "number": 2,
            "time": 10.407499999999876,
            "value": 0.4015748031496063
          },
          {
            "number": 2,
            "time": 10.408124999999876,
            "value": 0.4015748031496063
          },
          {
            "number": 2,
            "time": 10.408749999999875,
            "value": 0.4015748031496063
          },
          {
            "number": 2,
            "time": 10.409374999999875,
            "value": 0.4015748031496063
          },
          {
            "number": 2,
            "time": 10.409999999999874,
            "value": 0.3937007874015748
          },
          {
            "number": 2,
            "time": 10.410624999999873,
            "value": 0.3937007874015748
          },
          {
            "number": 2,
            "time": 10.411249999999873,
            "value": 0.3937007874015748
          },
          {
            "number": 2,
            "time": 10.411874999999872,
            "value": 0.3937007874015748
          },
          {
            "number": 2,
            "time": 10.412499999999872,
            "value": 0.3937007874015748
          },
          {
            "number": 2,
            "time": 10.413124999999871,
            "value": 0.3937007874015748
          },
          {
            "number": 2,
            "time": 10.41374999999987,
            "value": 0.3937007874015748
          },
          {
            "number": 2,
            "time": 10.41437499999987,
            "value": 0.3937007874015748
          },
          {
            "number": 2,
            "time": 10.41499999999987,
            "value": 0.3937007874015748
          },
          {
            "number": 2,
            "time": 10.415624999999869,
            "value": 0.3937007874015748
          },
          {
            "number": 2,
            "time": 10.416249999999868,
            "value": 0.3937007874015748
          },
          {
            "number": 2,
            "time": 10.416874999999868,
            "value": 0.3937007874015748
          },
          {
            "number": 2,
            "time": 10.417499999999867,
            "value": 0.3858267716535433
          },
          {
            "number": 2,
            "time": 10.418124999999867,
            "value": 0.3858267716535433
          },
          {
            "number": 2,
            "time": 10.418749999999866,
            "value": 0.3858267716535433
          },
          {
            "number": 2,
            "time": 10.419374999999865,
            "value": 0.3858267716535433
          },
          {
            "number": 2,
            "time": 10.419999999999865,
            "value": 0.3858267716535433
          },
          {
            "number": 2,
            "time": 10.420624999999864,
            "value": 0.3858267716535433
          },
          {
            "number": 2,
            "time": 10.421249999999864,
            "value": 0.3858267716535433
          },
          {
            "number": 2,
            "time": 10.421874999999863,
            "value": 0.3858267716535433
          },
          {
            "number": 2,
            "time": 10.422499999999863,
            "value": 0.3858267716535433
          },
          {
            "number": 2,
            "time": 10.423124999999862,
            "value": 0.3858267716535433
          },
          {
            "number": 2,
            "time": 10.423749999999862,
            "value": 0.3858267716535433
          },
          {
            "number": 2,
            "time": 10.424374999999861,
            "value": 0.3858267716535433
          },
          {
            "number": 2,
            "time": 10.42499999999986,
            "value": 0.3858267716535433
          },
          {
            "number": 2,
            "time": 10.49999999999986,
            "value": 0.3858267716535433
          },
          {
            "number": 2,
            "time": 10.799999999999859,
            "value": 0.3858267716535433
          },
          {
            "number": 2,
            "time": 11.249999999999858,
            "value": 0.3858267716535433
          },
          {
            "number": 2,
            "time": 11.549999999999857,
            "value": 0.3858267716535433
          },
          {
            "number": 2,
            "time": 11.999999999999856,
            "value": 0.3858267716535433
          },
          {
            "number": 2,
            "time": 12.299999999999855,
            "value": 0.3858267716535433
          },
          {
            "number": 2,
            "time": 12.749999999999854,
            "value": 0.3858267716535433
          },
          {
            "number": 2,
            "time": 13.049999999999853,
            "value": 0.3858267716535433
          },
          {
            "number": 2,
            "time": 13.499999999999853,
            "value": 0.6299212598425197
          },
          {
            "number": 2,
            "time": 14.24999999999985,
            "value": 0.6299212598425197
          },
          {
            "number": 2,
            "time": 14.99999999999985,
            "value": 0.6299212598425197
          },
          {
            "number": 2,
            "time": 15.74999999999985,
            "value": 0.6299212598425197
          },
          {
            "number": 2,
            "time": 16.49999999999985,
            "value": 0.6299212598425197
          },
          {
            "number": 2,
            "time": 17.24999999999985,
            "value": 0.6299212598425197
          },
          {
            "number": 2,
            "time": 17.99999999999985,
            "value": 0.6299212598425197
          },
          {
            "number": 2,
            "time": 18.74999999999985,
            "value": 0.6299212598425197
          },
          {
            "number": 2,
            "time": 19.49999999999985,
            "value": 0.6299212598425197
          },
          {
            "number": 2,
            "time": 20.24999999999985,
            "value": 0.6299212598425197
          },
          {
            "number": 2,
            "time": 20.69999999999985,
            "value": 0.6299212598425197
          },
          {
            "number": 2,
            "time": 20.99999999999985,
            "value": 0.6299212598425197
          },
          {
            "number": 2,
            "time": 21.44999999999985,
            "value": 0.6299212598425197
          },
          {
            "number": 2,
            "time": 21.74999999999985,
            "value": 0.6299212598425197
          },
          {
            "number": 2,
            "time": 22.19999999999985,
            "value": 0.6299212598425197
          },
          {
            "number": 2,
            "time": 22.49999999999985,
            "value": 0.6299212598425197
          },
          {
            "number": 2,
            "time": 23.24999999999985,
            "value": 0.6299212598425197
          },
          {
            "number": 2,
            "time": 23.99999999999985,
            "value": 0.6299212598425197
          },
          {
            "number": 2,
            "time": 24.74999999999985,
            "value": 0.6299212598425197
          },
          {
            "number": 2,
            "time": 25.19999999999985,
            "value": 0.6299212598425197
          },
          {
            "number": 2,
            "time": 25.34999999999985,
            "value": 0.6299212598425197
          },
          {
            "number": 2,
            "time": 25.499999999999847,
            "value": 0.6299212598425197
          },
          {
            "number": 2,
            "time": 25.649999999999846,
            "value": 0.6299212598425197
          },
          {
            "number": 2,
            "time": 26.099999999999845,
            "value": 0.6299212598425197
          },
          {
            "number": 2,
            "time": 26.399999999999846,
            "value": 0.6299212598425197
          },
          {
            "number": 2,
            "time": 26.549999999999844,
            "value": 0.6299212598425197
          },
          {
            "number": 2,
            "time": 26.999999999999844,
            "value": 0.6299212598425197
          },
          {
            "number": 2,
            "time": 27.449999999999843,
            "value": 0.6299212598425197
          },
          {
            "number": 2,
            "time": 27.899999999999842,
            "value": 0.6299212598425197
          },
          {
            "number": 2,
            "time": 28.199999999999843,
            "value": 0.6299212598425197
          },
          {
            "number": 2,
            "time": 28.34999999999984,
            "value": 0.6299212598425197
          },
          {
            "number": 2,
            "time": 28.79999999999984,
            "value": 0.6299212598425197
          },
          {
            "number": 2,
            "time": 29.24999999999984,
            "value": 0.6299212598425197
          },
          {
            "number": 2,
            "time": 29.69999999999984,
            "value": 0.6299212598425197
          },
          {
            "number": 2,
            "time": 29.99999999999984,
            "value": 0.6299212598425197
          },
          {
            "number": 2,
            "time": 30.14999999999984,
            "value": 0.6299212598425197
          },
          {
            "number": 2,
            "time": 30.599999999999838,
            "value": 0.6299212598425197
          },
          {
            "number": 2,
            "time": 31.049999999999837,
            "value": 0.6299212598425197
          },
          {
            "number": 2,
            "time": 31.499999999999837,
            "value": 0.6299212598425197
          },
          {
            "number": 2,
            "time": 31.949999999999836,
            "value": 0.6299212598425197
          },
          {
            "number": 2,
            "time": 32.00624999999984,
            "value": 0.6377952755905512
          },
          {
            "number": 2,
            "time": 32.06249999999984,
            "value": 0.6456692913385826
          },
          {
            "number": 2,
            "time": 32.09999999999984,
            "value": 0.6456692913385826
          },
          {
            "number": 2,
            "time": 32.118749999999835,
            "value": 0.6535433070866141
          },
          {
            "number": 2,
            "time": 32.174999999999834,
            "value": 0.6614173228346457
          },
          {
            "number": 2,
            "time": 32.23124999999983,
            "value": 0.6692913385826772
          },
          {
            "number": 2,
            "time": 32.24999999999983,
            "value": 0.6692913385826772
          },
          {
            "number": 2,
            "time": 32.28749999999983,
            "value": 0.6771653543307087
          },
          {
            "number": 2,
            "time": 32.34374999999983,
            "value": 0.6850393700787402
          },
          {
            "number": 2,
            "time": 32.39999999999983,
            "value": 0.6929133858267716
          },
          {
            "number": 2,
            "time": 32.45624999999983,
            "value": 0.7007874015748031
          },
          {
            "number": 2,
            "time": 32.512499999999825,
            "value": 0.7086614173228346
          },
          {
            "number": 2,
            "time": 32.54999999999983,
            "value": 0.7086614173228346
          },
          {
            "number": 2,
            "time": 32.568749999999824,
            "value": 0.7165354330708661
          },
          {
            "number": 2,
            "time": 32.62499999999982,
            "value": 0.7244094488188977
          },
          {
            "number": 2,
            "time": 32.68124999999982,
            "value": 0.7322834645669292
          },
          {
            "number": 2,
            "time": 32.69999999999982,
            "value": 0.7322834645669292
          },
          {
            "number": 2,
            "time": 32.73749999999982,
            "value": 0.7401574803149606
          },
          {
            "number": 2,
            "time": 32.79374999999982,
            "value": 0.7480314960629921
          },
          {
            "number": 2,
            "time": 32.84999999999982,
            "value": 0.7559055118110236
          },
          {
            "number": 2,
            "time": 32.84999999999982,
            "value": 0.7559055118110236
          },
          {
            "number": 2,
            "time": 33.29999999999981,
            "value": 0.7559055118110236
          },
          {
            "number": 2,
            "time": 33.74999999999981,
            "value": 0.7559055118110236
          },
          {
            "number": 2,
            "time": 34.199999999999804,
            "value": 0.7559055118110236
          },
          {
            "number": 2,
            "time": 34.6499999999998,
            "value": 0.7559055118110236
          },
          {
            "number": 2,
            "time": 35.099999999999795,
            "value": 0.7559055118110236
          },
          {
            "number": 2,
            "time": 35.54999999999979,
            "value": 0.7559055118110236
          },
          {
            "number": 2,
            "time": 35.99999999999979,
            "value": 0.7559055118110236
          },
          {
            "number": 2,
            "time": 36.44999999999978,
            "value": 0.7559055118110236
          },
          {
            "number": 2,
            "time": 36.89999999999978,
            "value": 0.7559055118110236
          },
          {
            "number": 2,
            "time": 37.349999999999774,
            "value": 0.7559055118110236
          },
          {
            "number": 2,
            "time": 37.79999999999977,
            "value": 0.7559055118110236
          },
          {
            "number": 2,
            "time": 38.249999999999766,
            "value": 0.7559055118110236
          },
          {
            "number": 2,
            "time": 38.69999999999976,
            "value": 0.7559055118110236
          },
          {
            "number": 2,
            "time": 39.14999999999976,
            "value": 1
          },
          {
            "number": 2,
            "time": 39.150624999999756,
            "value": 1
          },
          {
            "number": 2,
            "time": 39.151249999999756,
            "value": 1
          },
          {
            "number": 2,
            "time": 39.151874999999755,
            "value": 1
          },
          {
            "number": 2,
            "time": 39.152499999999755,
            "value": 1
          },
          {
            "number": 2,
            "time": 39.153124999999754,
            "value": 1
          },
          {
            "number": 2,
            "time": 39.153749999999754,
            "value": 1
          },
          {
            "number": 2,
            "time": 39.15437499999975,
            "value": 1
          },
          {
            "number": 2,
            "time": 39.15499999999975,
            "value": 1
          },
          {
            "number": 2,
            "time": 39.15562499999975,
            "value": 1
          },
          {
            "number": 2,
            "time": 39.15624999999975,
            "value": 1
          },
          {
            "number": 2,
            "time": 39.15687499999975,
            "value": 1
          },
          {
            "number": 2,
            "time": 39.15749999999975,
            "value": 1
          },
          {
            "number": 2,
            "time": 39.15812499999975,
            "value": 1
          },
          {
            "number": 2,
            "time": 39.15874999999975,
            "value": 1
          },
          {
            "number": 2,
            "time": 39.15937499999975,
            "value": 1
          },
          {
            "number": 2,
            "time": 39.15999999999975,
            "value": 1
          },
          {
            "number": 2,
            "time": 39.16062499999975,
            "value": 1
          },
          {
            "number": 2,
            "time": 39.16124999999975,
            "value": 1
          },
          {
            "number": 2,
            "time": 39.161874999999746,
            "value": 1
          },
          {
            "number": 2,
            "time": 39.162499999999746,
            "value": 1
          },
          {
            "number": 2,
            "time": 39.163124999999745,
            "value": 1
          },
          {
            "number": 2,
            "time": 39.163749999999744,
            "value": 1
          },
          {
            "number": 2,
            "time": 39.164374999999744,
            "value": 1
          },
          {
            "number": 2,
            "time": 39.16499999999974,
            "value": 1
          },
          {
            "number": 2,
            "time": 39.16562499999974,
            "value": 1
          },
          {
            "number": 2,
            "time": 39.16624999999974,
            "value": 1
          },
          {
            "number": 2,
            "time": 39.16687499999974,
            "value": 1
          },
          {
            "number": 2,
            "time": 39.16749999999974,
            "value": 1
          },
          {
            "number": 2,
            "time": 39.16812499999974,
            "value": 1
          },
          {
            "number": 2,
            "time": 39.16874999999974,
            "value": 1
          },
          {
            "number": 2,
            "time": 39.16937499999974,
            "value": 1
          },
          {
            "number": 2,
            "time": 39.16999999999974,
            "value": 1
          },
          {
            "number": 2,
            "time": 39.17062499999974,
            "value": 1
          },
          {
            "number": 2,
            "time": 39.17124999999974,
            "value": 1
          },
          {
            "number": 2,
            "time": 39.17187499999974,
            "value": 1
          },
          {
            "number": 2,
            "time": 39.17249999999974,
            "value": 1
          },
          {
            "number": 2,
            "time": 39.173124999999736,
            "value": 1
          },
          {
            "number": 2,
            "time": 39.173749999999735,
            "value": 1
          },
          {
            "number": 2,
            "time": 39.174374999999735,
            "value": 1
          },
          {
            "number": 2,
            "time": 39.174999999999734,
            "value": 1
          },
          {
            "number": 2,
            "time": 39.175624999999734,
            "value": 1
          },
          {
            "number": 2,
            "time": 39.17624999999973,
            "value": 1
          },
          {
            "number": 2,
            "time": 39.17687499999973,
            "value": 0.9921259842519685
          },
          {
            "number": 2,
            "time": 39.17749999999973,
            "value": 0.9921259842519685
          },
          {
            "number": 2,
            "time": 39.17812499999973,
            "value": 0.9921259842519685
          },
          {
            "number": 2,
            "time": 39.17874999999973,
            "value": 0.984251968503937
          },
          {
            "number": 2,
            "time": 39.17937499999973,
            "value": 0.984251968503937
          },
          {
            "number": 2,
            "time": 39.17999999999973,
            "value": 0.9763779527559056
          },
          {
            "number": 2,
            "time": 39.18062499999973,
            "value": 0.9763779527559056
          },
          {
            "number": 2,
            "time": 39.18124999999973,
            "value": 0.9763779527559056
          },
          {
            "number": 2,
            "time": 39.18187499999973,
            "value": 0.968503937007874
          },
          {
            "number": 2,
            "time": 39.18249999999973,
            "value": 0.968503937007874
          },
          {
            "number": 2,
            "time": 39.18312499999973,
            "value": 0.9606299212598425
          },
          {
            "number": 2,
            "time": 39.183749999999726,
            "value": 0.9606299212598425
          },
          {
            "number": 2,
            "time": 39.184374999999726,
            "value": 0.9606299212598425
          },
          {
            "number": 2,
            "time": 39.184999999999725,
            "value": 0.952755905511811
          },
          {
            "number": 2,
            "time": 39.185624999999725,
            "value": 0.952755905511811
          },
          {
            "number": 2,
            "time": 39.186249999999724,
            "value": 0.9448818897637795
          },
          {
            "number": 2,
            "time": 39.18687499999972,
            "value": 0.9448818897637795
          },
          {
            "number": 2,
            "time": 39.18749999999972,
            "value": 0.9448818897637795
          },
          {
            "number": 2,
            "time": 39.18812499999972,
            "value": 0.937007874015748
          },
          {
            "number": 2,
            "time": 39.18874999999972,
            "value": 0.937007874015748
          },
          {
            "number": 2,
            "time": 39.18937499999972,
            "value": 0.9291338582677166
          },
          {
            "number": 2,
            "time": 39.18999999999972,
            "value": 0.9291338582677166
          },
          {
            "number": 2,
            "time": 39.19062499999972,
            "value": 0.9291338582677166
          },
          {
            "number": 2,
            "time": 39.19124999999972,
            "value": 0.9212598425196851
          },
          {
            "number": 2,
            "time": 39.19187499999972,
            "value": 0.9212598425196851
          },
          {
            "number": 2,
            "time": 39.19249999999972,
            "value": 0.9133858267716536
          },
          {
            "number": 2,
            "time": 39.19312499999972,
            "value": 0.9133858267716536
          },
          {
            "number": 2,
            "time": 39.19374999999972,
            "value": 0.9133858267716536
          },
          {
            "number": 2,
            "time": 39.19437499999972,
            "value": 0.905511811023622
          },
          {
            "number": 2,
            "time": 39.194999999999716,
            "value": 0.905511811023622
          },
          {
            "number": 2,
            "time": 39.195624999999715,
            "value": 0.8976377952755905
          },
          {
            "number": 2,
            "time": 39.196249999999715,
            "value": 0.8976377952755905
          },
          {
            "number": 2,
            "time": 39.196874999999714,
            "value": 0.8976377952755905
          },
          {
            "number": 2,
            "time": 39.197499999999714,
            "value": 0.889763779527559
          },
          {
            "number": 2,
            "time": 39.19812499999971,
            "value": 0.889763779527559
          },
          {
            "number": 2,
            "time": 39.19874999999971,
            "value": 0.8818897637795275
          },
          {
            "number": 2,
            "time": 39.19937499999971,
            "value": 0.8818897637795275
          },
          {
            "number": 2,
            "time": 39.19999999999971,
            "value": 0.8818897637795275
          },
          {
            "number": 2,
            "time": 39.20062499999971,
            "value": 0.8740157480314961
          },
          {
            "number": 2,
            "time": 39.20124999999971,
            "value": 0.8740157480314961
          },
          {
            "number": 2,
            "time": 39.20187499999971,
            "value": 0.8661417322834646
          },
          {
            "number": 2,
            "time": 39.20249999999971,
            "value": 0.8661417322834646
          },
          {
            "number": 2,
            "time": 39.20312499999971,
            "value": 0.8661417322834646
          },
          {
            "number": 2,
            "time": 39.20374999999971,
            "value": 0.8582677165354331
          },
          {
            "number": 2,
            "time": 39.20437499999971,
            "value": 0.8582677165354331
          },
          {
            "number": 2,
            "time": 39.20499999999971,
            "value": 0.8503937007874016
          },
          {
            "number": 2,
            "time": 39.205624999999706,
            "value": 0.8503937007874016
          },
          {
            "number": 2,
            "time": 39.206249999999706,
            "value": 0.8503937007874016
          },
          {
            "number": 2,
            "time": 39.206874999999705,
            "value": 0.84251968503937
          },
          {
            "number": 2,
            "time": 39.207499999999705,
            "value": 0.84251968503937
          },
          {
            "number": 2,
            "time": 39.208124999999704,
            "value": 0.8346456692913385
          },
          {
            "number": 2,
            "time": 39.208749999999704,
            "value": 0.8346456692913385
          },
          {
            "number": 2,
            "time": 39.2093749999997,
            "value": 0.8346456692913385
          },
          {
            "number": 2,
            "time": 39.2099999999997,
            "value": 0.8267716535433071
          },
          {
            "number": 2,
            "time": 39.2106249999997,
            "value": 0.8267716535433071
          },
          {
            "number": 2,
            "time": 39.2112499999997,
            "value": 0.8188976377952756
          },
          {
            "number": 2,
            "time": 39.2118749999997,
            "value": 0.8188976377952756
          },
          {
            "number": 2,
            "time": 39.2124999999997,
            "value": 0.8188976377952756
          },
          {
            "number": 2,
            "time": 39.2131249999997,
            "value": 0.8110236220472441
          },
          {
            "number": 2,
            "time": 39.2137499999997,
            "value": 0.8110236220472441
          },
          {
            "number": 2,
            "time": 39.2143749999997,
            "value": 0.8031496062992126
          },
          {
            "number": 2,
            "time": 39.2149999999997,
            "value": 0.8031496062992126
          },
          {
            "number": 2,
            "time": 39.2156249999997,
            "value": 0.8031496062992126
          },
          {
            "number": 2,
            "time": 39.2162499999997,
            "value": 0.7952755905511811
          },
          {
            "number": 2,
            "time": 39.216874999999696,
            "value": 0.7952755905511811
          },
          {
            "number": 2,
            "time": 39.217499999999696,
            "value": 0.7874015748031497
          },
          {
            "number": 2,
            "time": 39.218124999999695,
            "value": 0.7874015748031497
          },
          {
            "number": 2,
            "time": 39.218749999999694,
            "value": 0.7874015748031497
          },
          {
            "number": 2,
            "time": 39.219374999999694,
            "value": 0.7795275590551181
          },
          {
            "number": 2,
            "time": 39.21999999999969,
            "value": 0.7795275590551181
          },
          {
            "number": 2,
            "time": 39.22062499999969,
            "value": 0.7716535433070866
          },
          {
            "number": 2,
            "time": 39.22124999999969,
            "value": 0.7716535433070866
          },
          {
            "number": 2,
            "time": 39.22187499999969,
            "value": 0.7716535433070866
          },
          {
            "number": 2,
            "time": 39.22249999999969,
            "value": 0.7637795275590551
          },
          {
            "number": 2,
            "time": 39.22312499999969,
            "value": 0.7637795275590551
          },
          {
            "number": 2,
            "time": 39.22374999999969,
            "value": 0.7559055118110236
          },
          {
            "number": 2,
            "time": 39.22437499999969,
            "value": 0.7559055118110236
          },
          {
            "number": 2,
            "time": 39.44999999999969,
            "value": 0.7559055118110236
          },
          {
            "number": 2,
            "time": 39.59999999999969,
            "value": 1
          },
          {
            "number": 2,
            "time": 39.60062499999969,
            "value": 1
          },
          {
            "number": 2,
            "time": 39.60124999999969,
            "value": 1
          },
          {
            "number": 2,
            "time": 39.60187499999969,
            "value": 1
          },
          {
            "number": 2,
            "time": 39.60249999999969,
            "value": 1
          },
          {
            "number": 2,
            "time": 39.603124999999686,
            "value": 1
          },
          {
            "number": 2,
            "time": 39.603749999999685,
            "value": 1
          },
          {
            "number": 2,
            "time": 39.604374999999685,
            "value": 1
          },
          {
            "number": 2,
            "time": 39.604999999999684,
            "value": 1
          },
          {
            "number": 2,
            "time": 39.605624999999684,
            "value": 1
          },
          {
            "number": 2,
            "time": 39.60624999999968,
            "value": 1
          },
          {
            "number": 2,
            "time": 39.60687499999968,
            "value": 1
          },
          {
            "number": 2,
            "time": 39.60749999999968,
            "value": 1
          },
          {
            "number": 2,
            "time": 39.60812499999968,
            "value": 1
          },
          {
            "number": 2,
            "time": 39.60874999999968,
            "value": 1
          },
          {
            "number": 2,
            "time": 39.60937499999968,
            "value": 1
          },
          {
            "number": 2,
            "time": 39.60999999999968,
            "value": 1
          },
          {
            "number": 2,
            "time": 39.61062499999968,
            "value": 1
          },
          {
            "number": 2,
            "time": 39.61124999999968,
            "value": 1
          },
          {
            "number": 2,
            "time": 39.61187499999968,
            "value": 1
          },
          {
            "number": 2,
            "time": 39.61249999999968,
            "value": 1
          },
          {
            "number": 2,
            "time": 39.61312499999968,
            "value": 1
          },
          {
            "number": 2,
            "time": 39.613749999999676,
            "value": 1
          },
          {
            "number": 2,
            "time": 39.614374999999676,
            "value": 1
          },
          {
            "number": 2,
            "time": 39.614999999999675,
            "value": 1
          },
          {
            "number": 2,
            "time": 39.615624999999675,
            "value": 1
          },
          {
            "number": 2,
            "time": 39.616249999999674,
            "value": 1
          },
          {
            "number": 2,
            "time": 39.61687499999967,
            "value": 1
          },
          {
            "number": 2,
            "time": 39.61749999999967,
            "value": 1
          },
          {
            "number": 2,
            "time": 39.61812499999967,
            "value": 1
          },
          {
            "number": 2,
            "time": 39.61874999999967,
            "value": 1
          },
          {
            "number": 2,
            "time": 39.61937499999967,
            "value": 1
          },
          {
            "number": 2,
            "time": 39.61999999999967,
            "value": 1
          },
          {
            "number": 2,
            "time": 39.62062499999967,
            "value": 1
          },
          {
            "number": 2,
            "time": 39.62124999999967,
            "value": 1
          },
          {
            "number": 2,
            "time": 39.62187499999967,
            "value": 1
          },
          {
            "number": 2,
            "time": 39.62249999999967,
            "value": 1
          },
          {
            "number": 2,
            "time": 39.62312499999967,
            "value": 1
          },
          {
            "number": 2,
            "time": 39.62374999999967,
            "value": 1
          },
          {
            "number": 2,
            "time": 39.62437499999967,
            "value": 1
          },
          {
            "number": 2,
            "time": 39.624999999999666,
            "value": 1
          },
          {
            "number": 2,
            "time": 39.625624999999665,
            "value": 1
          },
          {
            "number": 2,
            "time": 39.626249999999665,
            "value": 1
          },
          {
            "number": 2,
            "time": 39.626874999999664,
            "value": 0.9921259842519685
          },
          {
            "number": 2,
            "time": 39.627499999999664,
            "value": 0.9921259842519685
          },
          {
            "number": 2,
            "time": 39.62812499999966,
            "value": 0.9921259842519685
          },
          {
            "number": 2,
            "time": 39.62874999999966,
            "value": 0.984251968503937
          },
          {
            "number": 2,
            "time": 39.62937499999966,
            "value": 0.984251968503937
          },
          {
            "number": 2,
            "time": 39.62999999999966,
            "value": 0.9763779527559056
          },
          {
            "number": 2,
            "time": 39.63062499999966,
            "value": 0.9763779527559056
          },
          {
            "number": 2,
            "time": 39.63124999999966,
            "value": 0.9763779527559056
          },
          {
            "number": 2,
            "time": 39.63187499999966,
            "value": 0.968503937007874
          },
          {
            "number": 2,
            "time": 39.63249999999966,
            "value": 0.968503937007874
          },
          {
            "number": 2,
            "time": 39.63312499999966,
            "value": 0.9606299212598425
          },
          {
            "number": 2,
            "time": 39.63374999999966,
            "value": 0.9606299212598425
          },
          {
            "number": 2,
            "time": 39.63437499999966,
            "value": 0.9606299212598425
          },
          {
            "number": 2,
            "time": 39.63499999999966,
            "value": 0.952755905511811
          },
          {
            "number": 2,
            "time": 39.635624999999656,
            "value": 0.952755905511811
          },
          {
            "number": 2,
            "time": 39.636249999999656,
            "value": 0.9448818897637795
          },
          {
            "number": 2,
            "time": 39.636874999999655,
            "value": 0.9448818897637795
          },
          {
            "number": 2,
            "time": 39.637499999999655,
            "value": 0.9448818897637795
          },
          {
            "number": 2,
            "time": 39.638124999999654,
            "value": 0.937007874015748
          },
          {
            "number": 2,
            "time": 39.63874999999965,
            "value": 0.937007874015748
          },
          {
            "number": 2,
            "time": 39.63937499999965,
            "value": 0.9291338582677166
          },
          {
            "number": 2,
            "time": 39.63999999999965,
            "value": 0.9291338582677166
          },
          {
            "number": 2,
            "time": 39.64062499999965,
            "value": 0.9291338582677166
          },
          {
            "number": 2,
            "time": 39.64124999999965,
            "value": 0.9212598425196851
          },
          {
            "number": 2,
            "time": 39.64187499999965,
            "value": 0.9212598425196851
          },
          {
            "number": 2,
            "time": 39.64249999999965,
            "value": 0.9133858267716536
          },
          {
            "number": 2,
            "time": 39.64312499999965,
            "value": 0.9133858267716536
          },
          {
            "number": 2,
            "time": 39.64374999999965,
            "value": 0.9133858267716536
          },
          {
            "number": 2,
            "time": 39.64437499999965,
            "value": 0.905511811023622
          },
          {
            "number": 2,
            "time": 39.64499999999965,
            "value": 0.905511811023622
          },
          {
            "number": 2,
            "time": 39.64562499999965,
            "value": 0.8976377952755905
          },
          {
            "number": 2,
            "time": 39.64624999999965,
            "value": 0.8976377952755905
          },
          {
            "number": 2,
            "time": 39.646874999999646,
            "value": 0.8976377952755905
          },
          {
            "number": 2,
            "time": 39.647499999999646,
            "value": 0.889763779527559
          },
          {
            "number": 2,
            "time": 39.648124999999645,
            "value": 0.889763779527559
          },
          {
            "number": 2,
            "time": 39.648749999999644,
            "value": 0.8818897637795275
          },
          {
            "number": 2,
            "time": 39.649374999999644,
            "value": 0.8818897637795275
          },
          {
            "number": 2,
            "time": 39.64999999999964,
            "value": 0.8818897637795275
          },
          {
            "number": 2,
            "time": 39.65062499999964,
            "value": 0.8740157480314961
          },
          {
            "number": 2,
            "time": 39.65124999999964,
            "value": 0.8740157480314961
          },
          {
            "number": 2,
            "time": 39.65187499999964,
            "value": 0.8661417322834646
          },
          {
            "number": 2,
            "time": 39.65249999999964,
            "value": 0.8661417322834646
          },
          {
            "number": 2,
            "time": 39.65312499999964,
            "value": 0.8661417322834646
          },
          {
            "number": 2,
            "time": 39.65374999999964,
            "value": 0.8582677165354331
          },
          {
            "number": 2,
            "time": 39.65437499999964,
            "value": 0.8582677165354331
          },
          {
            "number": 2,
            "time": 39.65499999999964,
            "value": 0.8503937007874016
          },
          {
            "number": 2,
            "time": 39.65562499999964,
            "value": 0.8503937007874016
          },
          {
            "number": 2,
            "time": 39.65624999999964,
            "value": 0.8503937007874016
          },
          {
            "number": 2,
            "time": 39.65687499999964,
            "value": 0.84251968503937
          },
          {
            "number": 2,
            "time": 39.65749999999964,
            "value": 0.84251968503937
          },
          {
            "number": 2,
            "time": 39.658124999999636,
            "value": 0.8346456692913385
          },
          {
            "number": 2,
            "time": 39.658749999999635,
            "value": 0.8346456692913385
          },
          {
            "number": 2,
            "time": 39.659374999999635,
            "value": 0.8346456692913385
          },
          {
            "number": 2,
            "time": 39.659999999999634,
            "value": 0.8267716535433071
          },
          {
            "number": 2,
            "time": 39.660624999999634,
            "value": 0.8267716535433071
          },
          {
            "number": 2,
            "time": 39.66124999999963,
            "value": 0.8188976377952756
          },
          {
            "number": 2,
            "time": 39.66187499999963,
            "value": 0.8188976377952756
          },
          {
            "number": 2,
            "time": 39.66249999999963,
            "value": 0.8188976377952756
          },
          {
            "number": 2,
            "time": 39.66312499999963,
            "value": 0.8110236220472441
          },
          {
            "number": 2,
            "time": 39.66374999999963,
            "value": 0.8110236220472441
          },
          {
            "number": 2,
            "time": 39.66437499999963,
            "value": 0.8031496062992126
          },
          {
            "number": 2,
            "time": 39.66499999999963,
            "value": 0.8031496062992126
          },
          {
            "number": 2,
            "time": 39.66562499999963,
            "value": 0.8031496062992126
          },
          {
            "number": 2,
            "time": 39.66624999999963,
            "value": 0.7952755905511811
          },
          {
            "number": 2,
            "time": 39.66687499999963,
            "value": 0.7952755905511811
          },
          {
            "number": 2,
            "time": 39.66749999999963,
            "value": 0.7874015748031497
          },
          {
            "number": 2,
            "time": 39.66812499999963,
            "value": 0.7874015748031497
          },
          {
            "number": 2,
            "time": 39.668749999999626,
            "value": 0.7874015748031497
          },
          {
            "number": 2,
            "time": 39.669374999999626,
            "value": 0.7795275590551181
          },
          {
            "number": 2,
            "time": 39.669999999999625,
            "value": 0.7795275590551181
          },
          {
            "number": 2,
            "time": 39.670624999999625,
            "value": 0.7716535433070866
          },
          {
            "number": 2,
            "time": 39.671249999999624,
            "value": 0.7716535433070866
          },
          {
            "number": 2,
            "time": 39.67187499999962,
            "value": 0.7716535433070866
          },
          {
            "number": 2,
            "time": 39.67249999999962,
            "value": 0.7637795275590551
          },
          {
            "number": 2,
            "time": 39.67312499999962,
            "value": 0.7637795275590551
          },
          {
            "number": 2,
            "time": 39.67374999999962,
            "value": 0.7559055118110236
          },
          {
            "number": 2,
            "time": 39.67437499999962,
            "value": 0.7559055118110236
          },
          {
            "number": 2,
            "time": 39.89999999999962,
            "value": 0.7559055118110236
          },
          {
            "number": 2,
            "time": 40.04999999999962,
            "value": 0.7559055118110236
          },
          {
            "number": 2,
            "time": 40.499999999999616,
            "value": 0.7559055118110236
          },
          {
            "number": 2,
            "time": 40.94999999999961,
            "value": 0.7559055118110236
          },
          {
            "number": 2,
            "time": 41.39999999999961,
            "value": 0.7559055118110236
          },
          {
            "number": 2,
            "time": 41.8499999999996,
            "value": 0.7559055118110236
          },
          {
            "number": 2,
            "time": 42.2999999999996,
            "value": 0.7559055118110236
          },
          {
            "number": 2,
            "time": 42.749999999999595,
            "value": 0.7559055118110236
          },
          {
            "number": 2,
            "time": 43.19999999999959,
            "value": 0.7559055118110236
          },
          {
            "number": 2,
            "time": 43.64999999999959,
            "value": 0.7559055118110236
          },
          {
            "number": 2,
            "time": 44.09999999999958,
            "value": 0.7559055118110236
          },
          {
            "number": 2,
            "time": 44.54999999999958,
            "value": 0.7559055118110236
          },
          {
            "number": 2,
            "time": 44.999999999999574,
            "value": 0.7559055118110236
          },
          {
            "number": 2,
            "time": 45.44999999999957,
            "value": 0.7559055118110236
          },
          {
            "number": 2,
            "time": 45.899999999999565,
            "value": 0.7559055118110236
          },
          {
            "number": 2,
            "time": 46.34999999999956,
            "value": 1
          },
          {
            "number": 2,
            "time": 46.35062499999956,
            "value": 1
          },
          {
            "number": 2,
            "time": 46.35124999999956,
            "value": 1
          },
          {
            "number": 2,
            "time": 46.35187499999956,
            "value": 1
          },
          {
            "number": 2,
            "time": 46.35249999999956,
            "value": 1
          },
          {
            "number": 2,
            "time": 46.35312499999956,
            "value": 1
          },
          {
            "number": 2,
            "time": 46.35374999999956,
            "value": 1
          },
          {
            "number": 2,
            "time": 46.35437499999956,
            "value": 1
          },
          {
            "number": 2,
            "time": 46.354999999999556,
            "value": 1
          },
          {
            "number": 2,
            "time": 46.355624999999556,
            "value": 1
          },
          {
            "number": 2,
            "time": 46.356249999999555,
            "value": 1
          },
          {
            "number": 2,
            "time": 46.356874999999555,
            "value": 1
          },
          {
            "number": 2,
            "time": 46.357499999999554,
            "value": 1
          },
          {
            "number": 2,
            "time": 46.35812499999955,
            "value": 1
          },
          {
            "number": 2,
            "time": 46.35874999999955,
            "value": 1
          },
          {
            "number": 2,
            "time": 46.35937499999955,
            "value": 1
          },
          {
            "number": 2,
            "time": 46.35999999999955,
            "value": 1
          },
          {
            "number": 2,
            "time": 46.36062499999955,
            "value": 1
          },
          {
            "number": 2,
            "time": 46.36124999999955,
            "value": 1
          },
          {
            "number": 2,
            "time": 46.36187499999955,
            "value": 1
          },
          {
            "number": 2,
            "time": 46.36249999999955,
            "value": 1
          },
          {
            "number": 2,
            "time": 46.36312499999955,
            "value": 1
          },
          {
            "number": 2,
            "time": 46.36374999999955,
            "value": 1
          },
          {
            "number": 2,
            "time": 46.36437499999955,
            "value": 1
          },
          {
            "number": 2,
            "time": 46.36499999999955,
            "value": 1
          },
          {
            "number": 2,
            "time": 46.36562499999955,
            "value": 1
          },
          {
            "number": 2,
            "time": 46.366249999999546,
            "value": 1
          },
          {
            "number": 2,
            "time": 46.366874999999546,
            "value": 1
          },
          {
            "number": 2,
            "time": 46.367499999999545,
            "value": 1
          },
          {
            "number": 2,
            "time": 46.368124999999544,
            "value": 1
          },
          {
            "number": 2,
            "time": 46.368749999999544,
            "value": 1
          },
          {
            "number": 2,
            "time": 46.36937499999954,
            "value": 1
          },
          {
            "number": 2,
            "time": 46.36999999999954,
            "value": 1
          },
          {
            "number": 2,
            "time": 46.37062499999954,
            "value": 1
          },
          {
            "number": 2,
            "time": 46.37124999999954,
            "value": 1
          },
          {
            "number": 2,
            "time": 46.37187499999954,
            "value": 1
          },
          {
            "number": 2,
            "time": 46.37249999999954,
            "value": 1
          },
          {
            "number": 2,
            "time": 46.37312499999954,
            "value": 1
          },
          {
            "number": 2,
            "time": 46.37374999999954,
            "value": 1
          },
          {
            "number": 2,
            "time": 46.37437499999954,
            "value": 1
          },
          {
            "number": 2,
            "time": 46.37499999999954,
            "value": 1
          },
          {
            "number": 2,
            "time": 46.37562499999954,
            "value": 1
          },
          {
            "number": 2,
            "time": 46.37624999999954,
            "value": 1
          },
          {
            "number": 2,
            "time": 46.376874999999536,
            "value": 0.9921259842519685
          },
          {
            "number": 2,
            "time": 46.377499999999536,
            "value": 0.9921259842519685
          },
          {
            "number": 2,
            "time": 46.378124999999535,
            "value": 0.9921259842519685
          },
          {
            "number": 2,
            "time": 46.378749999999535,
            "value": 0.984251968503937
          },
          {
            "number": 2,
            "time": 46.379374999999534,
            "value": 0.984251968503937
          },
          {
            "number": 2,
            "time": 46.379999999999534,
            "value": 0.9763779527559056
          },
          {
            "number": 2,
            "time": 46.38062499999953,
            "value": 0.9763779527559056
          },
          {
            "number": 2,
            "time": 46.38124999999953,
            "value": 0.9763779527559056
          },
          {
            "number": 2,
            "time": 46.38187499999953,
            "value": 0.968503937007874
          },
          {
            "number": 2,
            "time": 46.38249999999953,
            "value": 0.968503937007874
          },
          {
            "number": 2,
            "time": 46.38312499999953,
            "value": 0.9606299212598425
          },
          {
            "number": 2,
            "time": 46.38374999999953,
            "value": 0.9606299212598425
          },
          {
            "number": 2,
            "time": 46.38437499999953,
            "value": 0.9606299212598425
          },
          {
            "number": 2,
            "time": 46.38499999999953,
            "value": 0.952755905511811
          },
          {
            "number": 2,
            "time": 46.38562499999953,
            "value": 0.952755905511811
          },
          {
            "number": 2,
            "time": 46.38624999999953,
            "value": 0.9448818897637795
          },
          {
            "number": 2,
            "time": 46.38687499999953,
            "value": 0.9448818897637795
          },
          {
            "number": 2,
            "time": 46.38749999999953,
            "value": 0.9448818897637795
          },
          {
            "number": 2,
            "time": 46.388124999999526,
            "value": 0.937007874015748
          },
          {
            "number": 2,
            "time": 46.388749999999526,
            "value": 0.937007874015748
          },
          {
            "number": 2,
            "time": 46.389374999999525,
            "value": 0.9291338582677166
          },
          {
            "number": 2,
            "time": 46.389999999999525,
            "value": 0.9291338582677166
          },
          {
            "number": 2,
            "time": 46.390624999999524,
            "value": 0.9291338582677166
          },
          {
            "number": 2,
            "time": 46.39124999999952,
            "value": 0.9212598425196851
          },
          {
            "number": 2,
            "time": 46.39187499999952,
            "value": 0.9212598425196851
          },
          {
            "number": 2,
            "time": 46.39249999999952,
            "value": 0.9133858267716536
          },
          {
            "number": 2,
            "time": 46.39312499999952,
            "value": 0.9133858267716536
          },
          {
            "number": 2,
            "time": 46.39374999999952,
            "value": 0.9133858267716536
          },
          {
            "number": 2,
            "time": 46.39437499999952,
            "value": 0.905511811023622
          },
          {
            "number": 2,
            "time": 46.39499999999952,
            "value": 0.905511811023622
          },
          {
            "number": 2,
            "time": 46.39562499999952,
            "value": 0.8976377952755905
          },
          {
            "number": 2,
            "time": 46.39624999999952,
            "value": 0.8976377952755905
          },
          {
            "number": 2,
            "time": 46.39687499999952,
            "value": 0.8976377952755905
          },
          {
            "number": 2,
            "time": 46.39749999999952,
            "value": 0.889763779527559
          },
          {
            "number": 2,
            "time": 46.39812499999952,
            "value": 0.889763779527559
          },
          {
            "number": 2,
            "time": 46.39874999999952,
            "value": 0.8818897637795275
          },
          {
            "number": 2,
            "time": 46.399374999999516,
            "value": 0.8818897637795275
          },
          {
            "number": 2,
            "time": 46.399999999999515,
            "value": 0.8818897637795275
          },
          {
            "number": 2,
            "time": 46.400624999999515,
            "value": 0.8740157480314961
          },
          {
            "number": 2,
            "time": 46.401249999999514,
            "value": 0.8740157480314961
          },
          {
            "number": 2,
            "time": 46.401874999999514,
            "value": 0.8661417322834646
          },
          {
            "number": 2,
            "time": 46.40249999999951,
            "value": 0.8661417322834646
          },
          {
            "number": 2,
            "time": 46.40312499999951,
            "value": 0.8661417322834646
          },
          {
            "number": 2,
            "time": 46.40374999999951,
            "value": 0.8582677165354331
          },
          {
            "number": 2,
            "time": 46.40437499999951,
            "value": 0.8582677165354331
          },
          {
            "number": 2,
            "time": 46.40499999999951,
            "value": 0.8503937007874016
          },
          {
            "number": 2,
            "time": 46.40562499999951,
            "value": 0.8503937007874016
          },
          {
            "number": 2,
            "time": 46.40624999999951,
            "value": 0.8503937007874016
          },
          {
            "number": 2,
            "time": 46.40687499999951,
            "value": 0.84251968503937
          },
          {
            "number": 2,
            "time": 46.40749999999951,
            "value": 0.84251968503937
          },
          {
            "number": 2,
            "time": 46.40812499999951,
            "value": 0.8346456692913385
          },
          {
            "number": 2,
            "time": 46.40874999999951,
            "value": 0.8346456692913385
          },
          {
            "number": 2,
            "time": 46.40937499999951,
            "value": 0.8346456692913385
          },
          {
            "number": 2,
            "time": 46.409999999999506,
            "value": 0.8267716535433071
          },
          {
            "number": 2,
            "time": 46.410624999999506,
            "value": 0.8267716535433071
          },
          {
            "number": 2,
            "time": 46.411249999999505,
            "value": 0.8188976377952756
          },
          {
            "number": 2,
            "time": 46.411874999999505,
            "value": 0.8188976377952756
          },
          {
            "number": 2,
            "time": 46.412499999999504,
            "value": 0.8188976377952756
          },
          {
            "number": 2,
            "time": 46.4131249999995,
            "value": 0.8110236220472441
          },
          {
            "number": 2,
            "time": 46.4137499999995,
            "value": 0.8110236220472441
          },
          {
            "number": 2,
            "time": 46.4143749999995,
            "value": 0.8031496062992126
          },
          {
            "number": 2,
            "time": 46.4149999999995,
            "value": 0.8031496062992126
          },
          {
            "number": 2,
            "time": 46.4156249999995,
            "value": 0.8031496062992126
          },
          {
            "number": 2,
            "time": 46.4162499999995,
            "value": 0.7952755905511811
          },
          {
            "number": 2,
            "time": 46.4168749999995,
            "value": 0.7952755905511811
          },
          {
            "number": 2,
            "time": 46.4174999999995,
            "value": 0.7874015748031497
          },
          {
            "number": 2,
            "time": 46.4181249999995,
            "value": 0.7874015748031497
          },
          {
            "number": 2,
            "time": 46.4187499999995,
            "value": 0.7874015748031497
          },
          {
            "number": 2,
            "time": 46.4193749999995,
            "value": 0.7795275590551181
          },
          {
            "number": 2,
            "time": 46.4199999999995,
            "value": 0.7795275590551181
          },
          {
            "number": 2,
            "time": 46.4206249999995,
            "value": 0.7716535433070866
          },
          {
            "number": 2,
            "time": 46.421249999999496,
            "value": 0.7716535433070866
          },
          {
            "number": 2,
            "time": 46.421874999999496,
            "value": 0.7716535433070866
          },
          {
            "number": 2,
            "time": 46.422499999999495,
            "value": 0.7637795275590551
          },
          {
            "number": 2,
            "time": 46.423124999999494,
            "value": 0.7637795275590551
          },
          {
            "number": 2,
            "time": 46.423749999999494,
            "value": 0.7559055118110236
          },
          {
            "number": 2,
            "time": 46.42437499999949,
            "value": 0.7559055118110236
          },
          {
            "number": 2,
            "time": 46.649999999999494,
            "value": 0.7559055118110236
          },
          {
            "number": 2,
            "time": 46.79999999999949,
            "value": 1
          },
          {
            "number": 2,
            "time": 46.80062499999949,
            "value": 1
          },
          {
            "number": 2,
            "time": 46.80124999999949,
            "value": 1
          },
          {
            "number": 2,
            "time": 46.80187499999949,
            "value": 1
          },
          {
            "number": 2,
            "time": 46.80249999999949,
            "value": 1
          },
          {
            "number": 2,
            "time": 46.80312499999949,
            "value": 1
          },
          {
            "number": 2,
            "time": 46.80374999999949,
            "value": 1
          },
          {
            "number": 2,
            "time": 46.80437499999949,
            "value": 1
          },
          {
            "number": 2,
            "time": 46.80499999999949,
            "value": 1
          },
          {
            "number": 2,
            "time": 46.80562499999949,
            "value": 1
          },
          {
            "number": 2,
            "time": 46.80624999999949,
            "value": 1
          },
          {
            "number": 2,
            "time": 46.806874999999486,
            "value": 1
          },
          {
            "number": 2,
            "time": 46.807499999999486,
            "value": 1
          },
          {
            "number": 2,
            "time": 46.808124999999485,
            "value": 1
          },
          {
            "number": 2,
            "time": 46.808749999999485,
            "value": 1
          },
          {
            "number": 2,
            "time": 46.809374999999484,
            "value": 1
          },
          {
            "number": 2,
            "time": 46.809999999999484,
            "value": 1
          },
          {
            "number": 2,
            "time": 46.81062499999948,
            "value": 1
          },
          {
            "number": 2,
            "time": 46.81124999999948,
            "value": 1
          },
          {
            "number": 2,
            "time": 46.81187499999948,
            "value": 1
          },
          {
            "number": 2,
            "time": 46.81249999999948,
            "value": 1
          },
          {
            "number": 2,
            "time": 46.81312499999948,
            "value": 1
          },
          {
            "number": 2,
            "time": 46.81374999999948,
            "value": 1
          },
          {
            "number": 2,
            "time": 46.81437499999948,
            "value": 1
          },
          {
            "number": 2,
            "time": 46.81499999999948,
            "value": 1
          },
          {
            "number": 2,
            "time": 46.81562499999948,
            "value": 1
          },
          {
            "number": 2,
            "time": 46.81624999999948,
            "value": 1
          },
          {
            "number": 2,
            "time": 46.81687499999948,
            "value": 1
          },
          {
            "number": 2,
            "time": 46.81749999999948,
            "value": 1
          },
          {
            "number": 2,
            "time": 46.818124999999476,
            "value": 1
          },
          {
            "number": 2,
            "time": 46.818749999999476,
            "value": 1
          },
          {
            "number": 2,
            "time": 46.819374999999475,
            "value": 1
          },
          {
            "number": 2,
            "time": 46.819999999999474,
            "value": 1
          },
          {
            "number": 2,
            "time": 46.820624999999474,
            "value": 1
          },
          {
            "number": 2,
            "time": 46.82124999999947,
            "value": 1
          },
          {
            "number": 2,
            "time": 46.82187499999947,
            "value": 1
          },
          {
            "number": 2,
            "time": 46.82249999999947,
            "value": 1
          },
          {
            "number": 2,
            "time": 46.82312499999947,
            "value": 1
          },
          {
            "number": 2,
            "time": 46.82374999999947,
            "value": 1
          },
          {
            "number": 2,
            "time": 46.82437499999947,
            "value": 1
          },
          {
            "number": 2,
            "time": 46.82499999999947,
            "value": 1
          },
          {
            "number": 2,
            "time": 46.82562499999947,
            "value": 1
          },
          {
            "number": 2,
            "time": 46.82624999999947,
            "value": 1
          },
          {
            "number": 2,
            "time": 46.82687499999947,
            "value": 0.9921259842519685
          },
          {
            "number": 2,
            "time": 46.82749999999947,
            "value": 0.9921259842519685
          },
          {
            "number": 2,
            "time": 46.82812499999947,
            "value": 0.9921259842519685
          },
          {
            "number": 2,
            "time": 46.82874999999947,
            "value": 0.984251968503937
          },
          {
            "number": 2,
            "time": 46.829374999999466,
            "value": 0.984251968503937
          },
          {
            "number": 2,
            "time": 46.829999999999465,
            "value": 0.9763779527559056
          },
          {
            "number": 2,
            "time": 46.830624999999465,
            "value": 0.9763779527559056
          },
          {
            "number": 2,
            "time": 46.831249999999464,
            "value": 0.9763779527559056
          },
          {
            "number": 2,
            "time": 46.831874999999464,
            "value": 0.968503937007874
          },
          {
            "number": 2,
            "time": 46.83249999999946,
            "value": 0.968503937007874
          },
          {
            "number": 2,
            "time": 46.83312499999946,
            "value": 0.9606299212598425
          },
          {
            "number": 2,
            "time": 46.83374999999946,
            "value": 0.9606299212598425
          },
          {
            "number": 2,
            "time": 46.83437499999946,
            "value": 0.9606299212598425
          },
          {
            "number": 2,
            "time": 46.83499999999946,
            "value": 0.952755905511811
          },
          {
            "number": 2,
            "time": 46.83562499999946,
            "value": 0.952755905511811
          },
          {
            "number": 2,
            "time": 46.83624999999946,
            "value": 0.9448818897637795
          },
          {
            "number": 2,
            "time": 46.83687499999946,
            "value": 0.9448818897637795
          },
          {
            "number": 2,
            "time": 46.83749999999946,
            "value": 0.9448818897637795
          },
          {
            "number": 2,
            "time": 46.83812499999946,
            "value": 0.937007874015748
          },
          {
            "number": 2,
            "time": 46.83874999999946,
            "value": 0.937007874015748
          },
          {
            "number": 2,
            "time": 46.83937499999946,
            "value": 0.9291338582677166
          },
          {
            "number": 2,
            "time": 46.839999999999456,
            "value": 0.9291338582677166
          },
          {
            "number": 2,
            "time": 46.840624999999456,
            "value": 0.9291338582677166
          },
          {
            "number": 2,
            "time": 46.841249999999455,
            "value": 0.9212598425196851
          },
          {
            "number": 2,
            "time": 46.841874999999455,
            "value": 0.9212598425196851
          },
          {
            "number": 2,
            "time": 46.842499999999454,
            "value": 0.9133858267716536
          },
          {
            "number": 2,
            "time": 46.84312499999945,
            "value": 0.9133858267716536
          },
          {
            "number": 2,
            "time": 46.84374999999945,
            "value": 0.9133858267716536
          },
          {
            "number": 2,
            "time": 46.84437499999945,
            "value": 0.905511811023622
          },
          {
            "number": 2,
            "time": 46.84499999999945,
            "value": 0.905511811023622
          },
          {
            "number": 2,
            "time": 46.84562499999945,
            "value": 0.8976377952755905
          },
          {
            "number": 2,
            "time": 46.84624999999945,
            "value": 0.8976377952755905
          },
          {
            "number": 2,
            "time": 46.84687499999945,
            "value": 0.8976377952755905
          },
          {
            "number": 2,
            "time": 46.84749999999945,
            "value": 0.889763779527559
          },
          {
            "number": 2,
            "time": 46.84812499999945,
            "value": 0.889763779527559
          },
          {
            "number": 2,
            "time": 46.84874999999945,
            "value": 0.8818897637795275
          },
          {
            "number": 2,
            "time": 46.84937499999945,
            "value": 0.8818897637795275
          },
          {
            "number": 2,
            "time": 46.84999999999945,
            "value": 0.8818897637795275
          },
          {
            "number": 2,
            "time": 46.85062499999945,
            "value": 0.8740157480314961
          },
          {
            "number": 2,
            "time": 46.851249999999446,
            "value": 0.8740157480314961
          },
          {
            "number": 2,
            "time": 46.851874999999445,
            "value": 0.8661417322834646
          },
          {
            "number": 2,
            "time": 46.852499999999445,
            "value": 0.8661417322834646
          },
          {
            "number": 2,
            "time": 46.853124999999444,
            "value": 0.8661417322834646
          },
          {
            "number": 2,
            "time": 46.853749999999444,
            "value": 0.8582677165354331
          },
          {
            "number": 2,
            "time": 46.85437499999944,
            "value": 0.8582677165354331
          },
          {
            "number": 2,
            "time": 46.85499999999944,
            "value": 0.8503937007874016
          },
          {
            "number": 2,
            "time": 46.85562499999944,
            "value": 0.8503937007874016
          },
          {
            "number": 2,
            "time": 46.85624999999944,
            "value": 0.8503937007874016
          },
          {
            "number": 2,
            "time": 46.85687499999944,
            "value": 0.84251968503937
          },
          {
            "number": 2,
            "time": 46.85749999999944,
            "value": 0.84251968503937
          },
          {
            "number": 2,
            "time": 46.85812499999944,
            "value": 0.8346456692913385
          },
          {
            "number": 2,
            "time": 46.85874999999944,
            "value": 0.8346456692913385
          },
          {
            "number": 2,
            "time": 46.85937499999944,
            "value": 0.8346456692913385
          },
          {
            "number": 2,
            "time": 46.85999999999944,
            "value": 0.8267716535433071
          },
          {
            "number": 2,
            "time": 46.86062499999944,
            "value": 0.8267716535433071
          },
          {
            "number": 2,
            "time": 46.86124999999944,
            "value": 0.8188976377952756
          },
          {
            "number": 2,
            "time": 46.861874999999436,
            "value": 0.8188976377952756
          },
          {
            "number": 2,
            "time": 46.862499999999436,
            "value": 0.8188976377952756
          },
          {
            "number": 2,
            "time": 46.863124999999435,
            "value": 0.8110236220472441
          },
          {
            "number": 2,
            "time": 46.863749999999435,
            "value": 0.8110236220472441
          },
          {
            "number": 2,
            "time": 46.864374999999434,
            "value": 0.8031496062992126
          },
          {
            "number": 2,
            "time": 46.864999999999434,
            "value": 0.8031496062992126
          },
          {
            "number": 2,
            "time": 46.86562499999943,
            "value": 0.8031496062992126
          },
          {
            "number": 2,
            "time": 46.86624999999943,
            "value": 0.7952755905511811
          },
          {
            "number": 2,
            "time": 46.86687499999943,
            "value": 0.7952755905511811
          },
          {
            "number": 2,
            "time": 46.86749999999943,
            "value": 0.7874015748031497
          },
          {
            "number": 2,
            "time": 46.86812499999943,
            "value": 0.7874015748031497
          },
          {
            "number": 2,
            "time": 46.86874999999943,
            "value": 0.7874015748031497
          },
          {
            "number": 2,
            "time": 46.86937499999943,
            "value": 0.7795275590551181
          },
          {
            "number": 2,
            "time": 46.86999999999943,
            "value": 0.7795275590551181
          },
          {
            "number": 2,
            "time": 46.87062499999943,
            "value": 0.7716535433070866
          },
          {
            "number": 2,
            "time": 46.87124999999943,
            "value": 0.7716535433070866
          },
          {
            "number": 2,
            "time": 46.87187499999943,
            "value": 0.7716535433070866
          },
          {
            "number": 2,
            "time": 46.87249999999943,
            "value": 0.7637795275590551
          },
          {
            "number": 2,
            "time": 46.873124999999426,
            "value": 0.7637795275590551
          },
          {
            "number": 2,
            "time": 46.873749999999426,
            "value": 0.7559055118110236
          },
          {
            "number": 2,
            "time": 46.874374999999425,
            "value": 0.7559055118110236
          },
          {
            "number": 2,
            "time": 47.099999999999426,
            "value": 0.7559055118110236
          },
          {
            "number": 2,
            "time": 47.249999999999424,
            "value": 0.7559055118110236
          },
          {
            "number": 2,
            "time": 48.14999999999942,
            "value": 0.7559055118110236
          },
          {
            "number": 2,
            "time": 49.04999999999942,
            "value": 0.7559055118110236
          },
          {
            "number": 2,
            "time": 49.94999999999942,
            "value": 0.7559055118110236
          },
          {
            "number": 2,
            "time": 50.39999999999942,
            "value": 1
          },
          {
            "number": 2,
            "time": 50.42687499999942,
            "value": 0.9921259842519685
          },
          {
            "number": 2,
            "time": 50.42874999999942,
            "value": 0.984251968503937
          },
          {
            "number": 2,
            "time": 50.42999999999942,
            "value": 0.9763779527559056
          },
          {
            "number": 2,
            "time": 50.431874999999415,
            "value": 0.968503937007874
          },
          {
            "number": 2,
            "time": 50.433124999999414,
            "value": 0.9606299212598425
          },
          {
            "number": 2,
            "time": 50.43499999999941,
            "value": 0.952755905511811
          },
          {
            "number": 2,
            "time": 50.43624999999941,
            "value": 0.9448818897637795
          },
          {
            "number": 2,
            "time": 50.43812499999941,
            "value": 0.937007874015748
          },
          {
            "number": 2,
            "time": 50.43937499999941,
            "value": 0.9291338582677166
          },
          {
            "number": 2,
            "time": 50.44124999999941,
            "value": 0.9212598425196851
          },
          {
            "number": 2,
            "time": 50.442499999999406,
            "value": 0.9133858267716536
          },
          {
            "number": 2,
            "time": 50.444374999999404,
            "value": 0.905511811023622
          },
          {
            "number": 2,
            "time": 50.4456249999994,
            "value": 0.8976377952755905
          },
          {
            "number": 2,
            "time": 50.4474999999994,
            "value": 0.889763779527559
          },
          {
            "number": 2,
            "time": 50.4487499999994,
            "value": 0.8818897637795275
          },
          {
            "number": 2,
            "time": 50.4506249999994,
            "value": 0.8740157480314961
          },
          {
            "number": 2,
            "time": 50.4518749999994,
            "value": 0.8661417322834646
          },
          {
            "number": 2,
            "time": 50.453749999999395,
            "value": 0.8582677165354331
          },
          {
            "number": 2,
            "time": 50.454999999999394,
            "value": 0.8503937007874016
          },
          {
            "number": 2,
            "time": 50.45687499999939,
            "value": 0.84251968503937
          },
          {
            "number": 2,
            "time": 50.45812499999939,
            "value": 0.8346456692913385
          },
          {
            "number": 2,
            "time": 50.45999999999939,
            "value": 0.8267716535433071
          },
          {
            "number": 2,
            "time": 50.46124999999939,
            "value": 0.8188976377952756
          },
          {
            "number": 2,
            "time": 50.46312499999939,
            "value": 0.8110236220472441
          },
          {
            "number": 2,
            "time": 50.464374999999386,
            "value": 0.8031496062992126
          },
          {
            "number": 2,
            "time": 50.466249999999384,
            "value": 0.7952755905511811
          },
          {
            "number": 2,
            "time": 50.46749999999938,
            "value": 0.7874015748031497
          },
          {
            "number": 2,
            "time": 50.46937499999938,
            "value": 0.7795275590551181
          },
          {
            "number": 2,
            "time": 50.47062499999938,
            "value": 0.7716535433070866
          },
          {
            "number": 2,
            "time": 50.47249999999938,
            "value": 0.7637795275590551
          },
          {
            "number": 2,
            "time": 50.47374999999938,
            "value": 0.7559055118110236
          },
          {
            "number": 2,
            "time": 50.849999999999376,
            "value": 1
          },
          {
            "number": 2,
            "time": 50.87687499999937,
            "value": 0.9921259842519685
          },
          {
            "number": 2,
            "time": 50.87874999999937,
            "value": 0.984251968503937
          },
          {
            "number": 2,
            "time": 50.87999999999937,
            "value": 0.9763779527559056
          },
          {
            "number": 2,
            "time": 50.88187499999937,
            "value": 0.968503937007874
          },
          {
            "number": 2,
            "time": 50.88312499999937,
            "value": 0.9606299212598425
          },
          {
            "number": 2,
            "time": 50.884999999999366,
            "value": 0.952755905511811
          },
          {
            "number": 2,
            "time": 50.886249999999364,
            "value": 0.9448818897637795
          },
          {
            "number": 2,
            "time": 50.88812499999936,
            "value": 0.937007874015748
          },
          {
            "number": 2,
            "time": 50.88937499999936,
            "value": 0.9291338582677166
          },
          {
            "number": 2,
            "time": 50.89124999999936,
            "value": 0.9212598425196851
          },
          {
            "number": 2,
            "time": 50.89249999999936,
            "value": 0.9133858267716536
          },
          {
            "number": 2,
            "time": 50.89437499999936,
            "value": 0.905511811023622
          },
          {
            "number": 2,
            "time": 50.895624999999356,
            "value": 0.8976377952755905
          },
          {
            "number": 2,
            "time": 50.897499999999354,
            "value": 0.889763779527559
          },
          {
            "number": 2,
            "time": 50.89874999999935,
            "value": 0.8818897637795275
          },
          {
            "number": 2,
            "time": 50.90062499999935,
            "value": 0.8740157480314961
          },
          {
            "number": 2,
            "time": 50.90187499999935,
            "value": 0.8661417322834646
          },
          {
            "number": 2,
            "time": 50.90374999999935,
            "value": 0.8582677165354331
          },
          {
            "number": 2,
            "time": 50.90499999999935,
            "value": 0.8503937007874016
          },
          {
            "number": 2,
            "time": 50.906874999999346,
            "value": 0.84251968503937
          },
          {
            "number": 2,
            "time": 50.908124999999345,
            "value": 0.8346456692913385
          },
          {
            "number": 2,
            "time": 50.90999999999934,
            "value": 0.8267716535433071
          },
          {
            "number": 2,
            "time": 50.91124999999934,
            "value": 0.8188976377952756
          },
          {
            "number": 2,
            "time": 50.91312499999934,
            "value": 0.8110236220472441
          },
          {
            "number": 2,
            "time": 50.91437499999934,
            "value": 0.8031496062992126
          },
          {
            "number": 2,
            "time": 50.91624999999934,
            "value": 0.7952755905511811
          },
          {
            "number": 2,
            "time": 50.917499999999336,
            "value": 0.7874015748031497
          },
          {
            "number": 2,
            "time": 50.919374999999334,
            "value": 0.7795275590551181
          },
          {
            "number": 2,
            "time": 50.92062499999933,
            "value": 0.7716535433070866
          },
          {
            "number": 2,
            "time": 50.92249999999933,
            "value": 0.7637795275590551
          },
          {
            "number": 2,
            "time": 50.92374999999933,
            "value": 0.7559055118110236
          },
          {
            "number": 2,
            "time": 51.74999999999933,
            "value": 0.7559055118110236
          },
          {
            "number": 2,
            "time": 52.199999999999335,
            "value": 1
          },
          {
            "number": 2,
            "time": 52.200624999999334,
            "value": 1
          },
          {
            "number": 2,
            "time": 52.201249999999334,
            "value": 1
          },
          {
            "number": 2,
            "time": 52.20187499999933,
            "value": 1
          },
          {
            "number": 2,
            "time": 52.20249999999933,
            "value": 1
          },
          {
            "number": 2,
            "time": 52.20312499999933,
            "value": 1
          },
          {
            "number": 2,
            "time": 52.20374999999933,
            "value": 1
          },
          {
            "number": 2,
            "time": 52.20437499999933,
            "value": 1
          },
          {
            "number": 2,
            "time": 52.20499999999933,
            "value": 1
          },
          {
            "number": 2,
            "time": 52.20562499999933,
            "value": 1
          },
          {
            "number": 2,
            "time": 52.20624999999933,
            "value": 1
          },
          {
            "number": 2,
            "time": 52.20687499999933,
            "value": 1
          },
          {
            "number": 2,
            "time": 52.20749999999933,
            "value": 1
          },
          {
            "number": 2,
            "time": 52.20812499999933,
            "value": 1
          },
          {
            "number": 2,
            "time": 52.20874999999933,
            "value": 1
          },
          {
            "number": 2,
            "time": 52.209374999999326,
            "value": 1
          },
          {
            "number": 2,
            "time": 52.209999999999326,
            "value": 1
          },
          {
            "number": 2,
            "time": 52.210624999999325,
            "value": 1
          },
          {
            "number": 2,
            "time": 52.211249999999325,
            "value": 1
          },
          {
            "number": 2,
            "time": 52.211874999999324,
            "value": 1
          },
          {
            "number": 2,
            "time": 52.212499999999324,
            "value": 1
          },
          {
            "number": 2,
            "time": 52.21312499999932,
            "value": 1
          },
          {
            "number": 2,
            "time": 52.21374999999932,
            "value": 1
          },
          {
            "number": 2,
            "time": 52.21437499999932,
            "value": 1
          },
          {
            "number": 2,
            "time": 52.21499999999932,
            "value": 1
          },
          {
            "number": 2,
            "time": 52.21562499999932,
            "value": 1
          },
          {
            "number": 2,
            "time": 52.21624999999932,
            "value": 1
          },
          {
            "number": 2,
            "time": 52.21687499999932,
            "value": 1
          },
          {
            "number": 2,
            "time": 52.21749999999932,
            "value": 1
          },
          {
            "number": 2,
            "time": 52.21812499999932,
            "value": 1
          },
          {
            "number": 2,
            "time": 52.21874999999932,
            "value": 1
          },
          {
            "number": 2,
            "time": 52.21937499999932,
            "value": 1
          },
          {
            "number": 2,
            "time": 52.21999999999932,
            "value": 1
          },
          {
            "number": 2,
            "time": 52.220624999999316,
            "value": 1
          },
          {
            "number": 2,
            "time": 52.221249999999316,
            "value": 1
          },
          {
            "number": 2,
            "time": 52.221874999999315,
            "value": 1
          },
          {
            "number": 2,
            "time": 52.222499999999314,
            "value": 1
          },
          {
            "number": 2,
            "time": 52.223124999999314,
            "value": 1
          },
          {
            "number": 2,
            "time": 52.22374999999931,
            "value": 1
          },
          {
            "number": 2,
            "time": 52.22437499999931,
            "value": 1
          },
          {
            "number": 2,
            "time": 52.22499999999931,
            "value": 1
          },
          {
            "number": 2,
            "time": 52.22562499999931,
            "value": 1
          },
          {
            "number": 2,
            "time": 52.22624999999931,
            "value": 1
          },
          {
            "number": 2,
            "time": 52.22687499999931,
            "value": 0.9921259842519685
          },
          {
            "number": 2,
            "time": 52.22749999999931,
            "value": 0.9921259842519685
          },
          {
            "number": 2,
            "time": 52.22812499999931,
            "value": 0.9921259842519685
          },
          {
            "number": 2,
            "time": 52.22874999999931,
            "value": 0.984251968503937
          },
          {
            "number": 2,
            "time": 52.22937499999931,
            "value": 0.984251968503937
          },
          {
            "number": 2,
            "time": 52.22999999999931,
            "value": 0.9763779527559056
          },
          {
            "number": 2,
            "time": 52.23062499999931,
            "value": 0.9763779527559056
          },
          {
            "number": 2,
            "time": 52.23124999999931,
            "value": 0.9763779527559056
          },
          {
            "number": 2,
            "time": 52.231874999999306,
            "value": 0.968503937007874
          },
          {
            "number": 2,
            "time": 52.232499999999305,
            "value": 0.968503937007874
          },
          {
            "number": 2,
            "time": 52.233124999999305,
            "value": 0.9606299212598425
          },
          {
            "number": 2,
            "time": 52.233749999999304,
            "value": 0.9606299212598425
          },
          {
            "number": 2,
            "time": 52.234374999999304,
            "value": 0.9606299212598425
          },
          {
            "number": 2,
            "time": 52.2349999999993,
            "value": 0.952755905511811
          },
          {
            "number": 2,
            "time": 52.2356249999993,
            "value": 0.952755905511811
          },
          {
            "number": 2,
            "time": 52.2362499999993,
            "value": 0.9448818897637795
          },
          {
            "number": 2,
            "time": 52.2368749999993,
            "value": 0.9448818897637795
          },
          {
            "number": 2,
            "time": 52.2374999999993,
            "value": 0.9448818897637795
          },
          {
            "number": 2,
            "time": 52.2381249999993,
            "value": 0.937007874015748
          },
          {
            "number": 2,
            "time": 52.2387499999993,
            "value": 0.937007874015748
          },
          {
            "number": 2,
            "time": 52.2393749999993,
            "value": 0.9291338582677166
          },
          {
            "number": 2,
            "time": 52.2399999999993,
            "value": 0.9291338582677166
          },
          {
            "number": 2,
            "time": 52.2406249999993,
            "value": 0.9291338582677166
          },
          {
            "number": 2,
            "time": 52.2412499999993,
            "value": 0.9212598425196851
          },
          {
            "number": 2,
            "time": 52.2418749999993,
            "value": 0.9212598425196851
          },
          {
            "number": 2,
            "time": 52.242499999999296,
            "value": 0.9133858267716536
          },
          {
            "number": 2,
            "time": 52.243124999999296,
            "value": 0.9133858267716536
          },
          {
            "number": 2,
            "time": 52.243749999999295,
            "value": 0.9133858267716536
          },
          {
            "number": 2,
            "time": 52.244374999999295,
            "value": 0.905511811023622
          },
          {
            "number": 2,
            "time": 52.244999999999294,
            "value": 0.905511811023622
          },
          {
            "number": 2,
            "time": 52.24562499999929,
            "value": 0.8976377952755905
          },
          {
            "number": 2,
            "time": 52.24624999999929,
            "value": 0.8976377952755905
          },
          {
            "number": 2,
            "time": 52.24687499999929,
            "value": 0.8976377952755905
          },
          {
            "number": 2,
            "time": 52.24749999999929,
            "value": 0.889763779527559
          },
          {
            "number": 2,
            "time": 52.24812499999929,
            "value": 0.889763779527559
          },
          {
            "number": 2,
            "time": 52.24874999999929,
            "value": 0.8818897637795275
          },
          {
            "number": 2,
            "time": 52.24937499999929,
            "value": 0.8818897637795275
          },
          {
            "number": 2,
            "time": 52.24999999999929,
            "value": 0.8818897637795275
          },
          {
            "number": 2,
            "time": 52.25062499999929,
            "value": 0.8740157480314961
          },
          {
            "number": 2,
            "time": 52.25124999999929,
            "value": 0.8740157480314961
          },
          {
            "number": 2,
            "time": 52.25187499999929,
            "value": 0.8661417322834646
          },
          {
            "number": 2,
            "time": 52.25249999999929,
            "value": 0.8661417322834646
          },
          {
            "number": 2,
            "time": 52.25312499999929,
            "value": 0.8661417322834646
          },
          {
            "number": 2,
            "time": 52.253749999999286,
            "value": 0.8582677165354331
          },
          {
            "number": 2,
            "time": 52.254374999999285,
            "value": 0.8582677165354331
          },
          {
            "number": 2,
            "time": 52.254999999999285,
            "value": 0.8503937007874016
          },
          {
            "number": 2,
            "time": 52.255624999999284,
            "value": 0.8503937007874016
          },
          {
            "number": 2,
            "time": 52.256249999999284,
            "value": 0.8503937007874016
          },
          {
            "number": 2,
            "time": 52.25687499999928,
            "value": 0.84251968503937
          },
          {
            "number": 2,
            "time": 52.25749999999928,
            "value": 0.84251968503937
          },
          {
            "number": 2,
            "time": 52.25812499999928,
            "value": 0.8346456692913385
          },
          {
            "number": 2,
            "time": 52.25874999999928,
            "value": 0.8346456692913385
          },
          {
            "number": 2,
            "time": 52.25937499999928,
            "value": 0.8346456692913385
          },
          {
            "number": 2,
            "time": 52.25999999999928,
            "value": 0.8267716535433071
          },
          {
            "number": 2,
            "time": 52.26062499999928,
            "value": 0.8267716535433071
          },
          {
            "number": 2,
            "time": 52.26124999999928,
            "value": 0.8188976377952756
          },
          {
            "number": 2,
            "time": 52.26187499999928,
            "value": 0.8188976377952756
          },
          {
            "number": 2,
            "time": 52.26249999999928,
            "value": 0.8188976377952756
          },
          {
            "number": 2,
            "time": 52.26312499999928,
            "value": 0.8110236220472441
          },
          {
            "number": 2,
            "time": 52.26374999999928,
            "value": 0.8110236220472441
          },
          {
            "number": 2,
            "time": 52.264374999999276,
            "value": 0.8031496062992126
          },
          {
            "number": 2,
            "time": 52.264999999999276,
            "value": 0.8031496062992126
          },
          {
            "number": 2,
            "time": 52.265624999999275,
            "value": 0.8031496062992126
          },
          {
            "number": 2,
            "time": 52.266249999999275,
            "value": 0.7952755905511811
          },
          {
            "number": 2,
            "time": 52.266874999999274,
            "value": 0.7952755905511811
          },
          {
            "number": 2,
            "time": 52.26749999999927,
            "value": 0.7874015748031497
          },
          {
            "number": 2,
            "time": 52.26812499999927,
            "value": 0.7874015748031497
          },
          {
            "number": 2,
            "time": 52.26874999999927,
            "value": 0.7874015748031497
          },
          {
            "number": 2,
            "time": 52.26937499999927,
            "value": 0.7795275590551181
          },
          {
            "number": 2,
            "time": 52.26999999999927,
            "value": 0.7795275590551181
          },
          {
            "number": 2,
            "time": 52.27062499999927,
            "value": 0.7716535433070866
          },
          {
            "number": 2,
            "time": 52.27124999999927,
            "value": 0.7716535433070866
          },
          {
            "number": 2,
            "time": 52.27187499999927,
            "value": 0.7716535433070866
          },
          {
            "number": 2,
            "time": 52.27249999999927,
            "value": 0.7637795275590551
          },
          {
            "number": 2,
            "time": 52.27312499999927,
            "value": 0.7637795275590551
          },
          {
            "number": 2,
            "time": 52.27374999999927,
            "value": 0.7559055118110236
          },
          {
            "number": 2,
            "time": 52.27437499999927,
            "value": 0.7559055118110236
          },
          {
            "number": 2,
            "time": 52.64999999999927,
            "value": 1
          },
          {
            "number": 2,
            "time": 52.650624999999266,
            "value": 1
          },
          {
            "number": 2,
            "time": 52.651249999999266,
            "value": 1
          },
          {
            "number": 2,
            "time": 52.651874999999265,
            "value": 1
          },
          {
            "number": 2,
            "time": 52.652499999999264,
            "value": 1
          },
          {
            "number": 2,
            "time": 52.653124999999264,
            "value": 1
          },
          {
            "number": 2,
            "time": 52.65374999999926,
            "value": 1
          },
          {
            "number": 2,
            "time": 52.65437499999926,
            "value": 1
          },
          {
            "number": 2,
            "time": 52.65499999999926,
            "value": 1
          },
          {
            "number": 2,
            "time": 52.65562499999926,
            "value": 1
          },
          {
            "number": 2,
            "time": 52.65624999999926,
            "value": 1
          },
          {
            "number": 2,
            "time": 52.65687499999926,
            "value": 1
          },
          {
            "number": 2,
            "time": 52.65749999999926,
            "value": 1
          },
          {
            "number": 2,
            "time": 52.65812499999926,
            "value": 1
          },
          {
            "number": 2,
            "time": 52.65874999999926,
            "value": 1
          },
          {
            "number": 2,
            "time": 52.65937499999926,
            "value": 1
          },
          {
            "number": 2,
            "time": 52.65999999999926,
            "value": 1
          },
          {
            "number": 2,
            "time": 52.66062499999926,
            "value": 1
          },
          {
            "number": 2,
            "time": 52.66124999999926,
            "value": 1
          },
          {
            "number": 2,
            "time": 52.661874999999256,
            "value": 1
          },
          {
            "number": 2,
            "time": 52.662499999999255,
            "value": 1
          },
          {
            "number": 2,
            "time": 52.663124999999255,
            "value": 1
          },
          {
            "number": 2,
            "time": 52.663749999999254,
            "value": 1
          },
          {
            "number": 2,
            "time": 52.664374999999254,
            "value": 1
          },
          {
            "number": 2,
            "time": 52.66499999999925,
            "value": 1
          },
          {
            "number": 2,
            "time": 52.66562499999925,
            "value": 1
          },
          {
            "number": 2,
            "time": 52.66624999999925,
            "value": 1
          },
          {
            "number": 2,
            "time": 52.66687499999925,
            "value": 1
          },
          {
            "number": 2,
            "time": 52.66749999999925,
            "value": 1
          },
          {
            "number": 2,
            "time": 52.66812499999925,
            "value": 1
          },
          {
            "number": 2,
            "time": 52.66874999999925,
            "value": 1
          },
          {
            "number": 2,
            "time": 52.66937499999925,
            "value": 1
          },
          {
            "number": 2,
            "time": 52.66999999999925,
            "value": 1
          },
          {
            "number": 2,
            "time": 52.67062499999925,
            "value": 1
          },
          {
            "number": 2,
            "time": 52.67124999999925,
            "value": 1
          },
          {
            "number": 2,
            "time": 52.67187499999925,
            "value": 1
          },
          {
            "number": 2,
            "time": 52.672499999999246,
            "value": 1
          },
          {
            "number": 2,
            "time": 52.673124999999246,
            "value": 1
          },
          {
            "number": 2,
            "time": 52.673749999999245,
            "value": 1
          },
          {
            "number": 2,
            "time": 52.674374999999245,
            "value": 1
          },
          {
            "number": 2,
            "time": 52.674999999999244,
            "value": 1
          },
          {
            "number": 2,
            "time": 52.67562499999924,
            "value": 1
          },
          {
            "number": 2,
            "time": 52.67624999999924,
            "value": 1
          },
          {
            "number": 2,
            "time": 52.67687499999924,
            "value": 0.9921259842519685
          },
          {
            "number": 2,
            "time": 52.67749999999924,
            "value": 0.9921259842519685
          },
          {
            "number": 2,
            "time": 52.67812499999924,
            "value": 0.9921259842519685
          },
          {
            "number": 2,
            "time": 52.67874999999924,
            "value": 0.984251968503937
          },
          {
            "number": 2,
            "time": 52.67937499999924,
            "value": 0.984251968503937
          },
          {
            "number": 2,
            "time": 52.67999999999924,
            "value": 0.9763779527559056
          },
          {
            "number": 2,
            "time": 52.68062499999924,
            "value": 0.9763779527559056
          },
          {
            "number": 2,
            "time": 52.68124999999924,
            "value": 0.9763779527559056
          },
          {
            "number": 2,
            "time": 52.68187499999924,
            "value": 0.968503937007874
          },
          {
            "number": 2,
            "time": 52.68249999999924,
            "value": 0.968503937007874
          },
          {
            "number": 2,
            "time": 52.68312499999924,
            "value": 0.9606299212598425
          },
          {
            "number": 2,
            "time": 52.683749999999236,
            "value": 0.9606299212598425
          },
          {
            "number": 2,
            "time": 52.684374999999235,
            "value": 0.9606299212598425
          },
          {
            "number": 2,
            "time": 52.684999999999235,
            "value": 0.952755905511811
          },
          {
            "number": 2,
            "time": 52.685624999999234,
            "value": 0.952755905511811
          },
          {
            "number": 2,
            "time": 52.686249999999234,
            "value": 0.9448818897637795
          },
          {
            "number": 2,
            "time": 52.68687499999923,
            "value": 0.9448818897637795
          },
          {
            "number": 2,
            "time": 52.68749999999923,
            "value": 0.9448818897637795
          },
          {
            "number": 2,
            "time": 52.68812499999923,
            "value": 0.937007874015748
          },
          {
            "number": 2,
            "time": 52.68874999999923,
            "value": 0.937007874015748
          },
          {
            "number": 2,
            "time": 52.68937499999923,
            "value": 0.9291338582677166
          },
          {
            "number": 2,
            "time": 52.68999999999923,
            "value": 0.9291338582677166
          },
          {
            "number": 2,
            "time": 52.69062499999923,
            "value": 0.9291338582677166
          },
          {
            "number": 2,
            "time": 52.69124999999923,
            "value": 0.9212598425196851
          },
          {
            "number": 2,
            "time": 52.69187499999923,
            "value": 0.9212598425196851
          },
          {
            "number": 2,
            "time": 52.69249999999923,
            "value": 0.9133858267716536
          },
          {
            "number": 2,
            "time": 52.69312499999923,
            "value": 0.9133858267716536
          },
          {
            "number": 2,
            "time": 52.69374999999923,
            "value": 0.9133858267716536
          },
          {
            "number": 2,
            "time": 52.694374999999226,
            "value": 0.905511811023622
          },
          {
            "number": 2,
            "time": 52.694999999999226,
            "value": 0.905511811023622
          },
          {
            "number": 2,
            "time": 52.695624999999225,
            "value": 0.8976377952755905
          },
          {
            "number": 2,
            "time": 52.696249999999225,
            "value": 0.8976377952755905
          },
          {
            "number": 2,
            "time": 52.696874999999224,
            "value": 0.8976377952755905
          },
          {
            "number": 2,
            "time": 52.69749999999922,
            "value": 0.889763779527559
          },
          {
            "number": 2,
            "time": 52.69812499999922,
            "value": 0.889763779527559
          },
          {
            "number": 2,
            "time": 52.69874999999922,
            "value": 0.8818897637795275
          },
          {
            "number": 2,
            "time": 52.69937499999922,
            "value": 0.8818897637795275
          },
          {
            "number": 2,
            "time": 52.69999999999922,
            "value": 0.8818897637795275
          },
          {
            "number": 2,
            "time": 52.70062499999922,
            "value": 0.8740157480314961
          },
          {
            "number": 2,
            "time": 52.70124999999922,
            "value": 0.8740157480314961
          },
          {
            "number": 2,
            "time": 52.70187499999922,
            "value": 0.8661417322834646
          },
          {
            "number": 2,
            "time": 52.70249999999922,
            "value": 0.8661417322834646
          },
          {
            "number": 2,
            "time": 52.70312499999922,
            "value": 0.8661417322834646
          },
          {
            "number": 2,
            "time": 52.70374999999922,
            "value": 0.8582677165354331
          },
          {
            "number": 2,
            "time": 52.70437499999922,
            "value": 0.8582677165354331
          },
          {
            "number": 2,
            "time": 52.70499999999922,
            "value": 0.8503937007874016
          },
          {
            "number": 2,
            "time": 52.705624999999216,
            "value": 0.8503937007874016
          },
          {
            "number": 2,
            "time": 52.706249999999216,
            "value": 0.8503937007874016
          },
          {
            "number": 2,
            "time": 52.706874999999215,
            "value": 0.84251968503937
          },
          {
            "number": 2,
            "time": 52.707499999999214,
            "value": 0.84251968503937
          },
          {
            "number": 2,
            "time": 52.708124999999214,
            "value": 0.8346456692913385
          },
          {
            "number": 2,
            "time": 52.70874999999921,
            "value": 0.8346456692913385
          },
          {
            "number": 2,
            "time": 52.70937499999921,
            "value": 0.8346456692913385
          },
          {
            "number": 2,
            "time": 52.70999999999921,
            "value": 0.8267716535433071
          },
          {
            "number": 2,
            "time": 52.71062499999921,
            "value": 0.8267716535433071
          },
          {
            "number": 2,
            "time": 52.71124999999921,
            "value": 0.8188976377952756
          },
          {
            "number": 2,
            "time": 52.71187499999921,
            "value": 0.8188976377952756
          },
          {
            "number": 2,
            "time": 52.71249999999921,
            "value": 0.8188976377952756
          },
          {
            "number": 2,
            "time": 52.71312499999921,
            "value": 0.8110236220472441
          },
          {
            "number": 2,
            "time": 52.71374999999921,
            "value": 0.8110236220472441
          },
          {
            "number": 2,
            "time": 52.71437499999921,
            "value": 0.8031496062992126
          },
          {
            "number": 2,
            "time": 52.71499999999921,
            "value": 0.8031496062992126
          },
          {
            "number": 2,
            "time": 52.71562499999921,
            "value": 0.8031496062992126
          },
          {
            "number": 2,
            "time": 52.71624999999921,
            "value": 0.7952755905511811
          },
          {
            "number": 2,
            "time": 52.716874999999206,
            "value": 0.7952755905511811
          },
          {
            "number": 2,
            "time": 52.717499999999205,
            "value": 0.7874015748031497
          },
          {
            "number": 2,
            "time": 52.718124999999205,
            "value": 0.7874015748031497
          },
          {
            "number": 2,
            "time": 52.718749999999204,
            "value": 0.7874015748031497
          },
          {
            "number": 2,
            "time": 52.719374999999204,
            "value": 0.7795275590551181
          },
          {
            "number": 2,
            "time": 52.7199999999992,
            "value": 0.7795275590551181
          },
          {
            "number": 2,
            "time": 52.7206249999992,
            "value": 0.7716535433070866
          },
          {
            "number": 2,
            "time": 52.7212499999992,
            "value": 0.7716535433070866
          },
          {
            "number": 2,
            "time": 52.7218749999992,
            "value": 0.7716535433070866
          },
          {
            "number": 2,
            "time": 52.7224999999992,
            "value": 0.7637795275590551
          },
          {
            "number": 2,
            "time": 52.7231249999992,
            "value": 0.7637795275590551
          },
          {
            "number": 2,
            "time": 52.7237499999992,
            "value": 0.7559055118110236
          },
          {
            "number": 2,
            "time": 52.7243749999992,
            "value": 0.7559055118110236
          },
          {
            "number": 2,
            "time": 53.5499999999992,
            "value": 1
          },
          {
            "number": 2,
            "time": 53.5506249999992,
            "value": 1
          },
          {
            "number": 2,
            "time": 53.5512499999992,
            "value": 1
          },
          {
            "number": 2,
            "time": 53.5518749999992,
            "value": 1
          },
          {
            "number": 2,
            "time": 53.5524999999992,
            "value": 1
          },
          {
            "number": 2,
            "time": 53.5531249999992,
            "value": 1
          },
          {
            "number": 2,
            "time": 53.5537499999992,
            "value": 1
          },
          {
            "number": 2,
            "time": 53.5543749999992,
            "value": 1
          },
          {
            "number": 2,
            "time": 53.5549999999992,
            "value": 1
          },
          {
            "number": 2,
            "time": 53.555624999999196,
            "value": 1
          },
          {
            "number": 2,
            "time": 53.556249999999196,
            "value": 1
          },
          {
            "number": 2,
            "time": 53.556874999999195,
            "value": 1
          },
          {
            "number": 2,
            "time": 53.557499999999195,
            "value": 1
          },
          {
            "number": 2,
            "time": 53.558124999999194,
            "value": 1
          },
          {
            "number": 2,
            "time": 53.55874999999919,
            "value": 1
          },
          {
            "number": 2,
            "time": 53.55937499999919,
            "value": 1
          },
          {
            "number": 2,
            "time": 53.55999999999919,
            "value": 1
          },
          {
            "number": 2,
            "time": 53.56062499999919,
            "value": 1
          },
          {
            "number": 2,
            "time": 53.56124999999919,
            "value": 1
          },
          {
            "number": 2,
            "time": 53.56187499999919,
            "value": 1
          },
          {
            "number": 2,
            "time": 53.56249999999919,
            "value": 1
          },
          {
            "number": 2,
            "time": 53.56312499999919,
            "value": 1
          },
          {
            "number": 2,
            "time": 53.56374999999919,
            "value": 1
          },
          {
            "number": 2,
            "time": 53.56437499999919,
            "value": 1
          },
          {
            "number": 2,
            "time": 53.56499999999919,
            "value": 1
          },
          {
            "number": 2,
            "time": 53.56562499999919,
            "value": 1
          },
          {
            "number": 2,
            "time": 53.56624999999919,
            "value": 1
          },
          {
            "number": 2,
            "time": 53.566874999999186,
            "value": 1
          },
          {
            "number": 2,
            "time": 53.567499999999185,
            "value": 1
          },
          {
            "number": 2,
            "time": 53.568124999999185,
            "value": 1
          },
          {
            "number": 2,
            "time": 53.568749999999184,
            "value": 1
          },
          {
            "number": 2,
            "time": 53.569374999999184,
            "value": 1
          },
          {
            "number": 2,
            "time": 53.56999999999918,
            "value": 1
          },
          {
            "number": 2,
            "time": 53.57062499999918,
            "value": 1
          },
          {
            "number": 2,
            "time": 53.57124999999918,
            "value": 1
          },
          {
            "number": 2,
            "time": 53.57187499999918,
            "value": 1
          },
          {
            "number": 2,
            "time": 53.57249999999918,
            "value": 1
          },
          {
            "number": 2,
            "time": 53.57312499999918,
            "value": 1
          },
          {
            "number": 2,
            "time": 53.57374999999918,
            "value": 1
          },
          {
            "number": 2,
            "time": 53.57437499999918,
            "value": 1
          },
          {
            "number": 2,
            "time": 53.57499999999918,
            "value": 1
          },
          {
            "number": 2,
            "time": 53.57562499999918,
            "value": 1
          },
          {
            "number": 2,
            "time": 53.57624999999918,
            "value": 1
          },
          {
            "number": 2,
            "time": 53.57687499999918,
            "value": 0.9921259842519685
          },
          {
            "number": 2,
            "time": 53.577499999999176,
            "value": 0.9921259842519685
          },
          {
            "number": 2,
            "time": 53.578124999999176,
            "value": 0.9921259842519685
          },
          {
            "number": 2,
            "time": 53.578749999999175,
            "value": 0.984251968503937
          },
          {
            "number": 2,
            "time": 53.579374999999175,
            "value": 0.984251968503937
          },
          {
            "number": 2,
            "time": 53.579999999999174,
            "value": 0.9763779527559056
          },
          {
            "number": 2,
            "time": 53.58062499999917,
            "value": 0.9763779527559056
          },
          {
            "number": 2,
            "time": 53.58124999999917,
            "value": 0.9763779527559056
          },
          {
            "number": 2,
            "time": 53.58187499999917,
            "value": 0.968503937007874
          },
          {
            "number": 2,
            "time": 53.58249999999917,
            "value": 0.968503937007874
          },
          {
            "number": 2,
            "time": 53.58312499999917,
            "value": 0.9606299212598425
          },
          {
            "number": 2,
            "time": 53.58374999999917,
            "value": 0.9606299212598425
          },
          {
            "number": 2,
            "time": 53.58437499999917,
            "value": 0.9606299212598425
          },
          {
            "number": 2,
            "time": 53.58499999999917,
            "value": 0.952755905511811
          },
          {
            "number": 2,
            "time": 53.58562499999917,
            "value": 0.952755905511811
          },
          {
            "number": 2,
            "time": 53.58624999999917,
            "value": 0.9448818897637795
          },
          {
            "number": 2,
            "time": 53.58687499999917,
            "value": 0.9448818897637795
          },
          {
            "number": 2,
            "time": 53.58749999999917,
            "value": 0.9448818897637795
          },
          {
            "number": 2,
            "time": 53.58812499999917,
            "value": 0.937007874015748
          },
          {
            "number": 2,
            "time": 53.588749999999166,
            "value": 0.937007874015748
          },
          {
            "number": 2,
            "time": 53.589374999999166,
            "value": 0.9291338582677166
          },
          {
            "number": 2,
            "time": 53.589999999999165,
            "value": 0.9291338582677166
          },
          {
            "number": 2,
            "time": 53.590624999999164,
            "value": 0.9291338582677166
          },
          {
            "number": 2,
            "time": 53.591249999999164,
            "value": 0.9212598425196851
          },
          {
            "number": 2,
            "time": 53.59187499999916,
            "value": 0.9212598425196851
          },
          {
            "number": 2,
            "time": 53.59249999999916,
            "value": 0.9133858267716536
          },
          {
            "number": 2,
            "time": 53.59312499999916,
            "value": 0.9133858267716536
          },
          {
            "number": 2,
            "time": 53.59374999999916,
            "value": 0.9133858267716536
          },
          {
            "number": 2,
            "time": 53.59437499999916,
            "value": 0.905511811023622
          },
          {
            "number": 2,
            "time": 53.59499999999916,
            "value": 0.905511811023622
          },
          {
            "number": 2,
            "time": 53.59562499999916,
            "value": 0.8976377952755905
          },
          {
            "number": 2,
            "time": 53.59624999999916,
            "value": 0.8976377952755905
          },
          {
            "number": 2,
            "time": 53.59687499999916,
            "value": 0.8976377952755905
          },
          {
            "number": 2,
            "time": 53.59749999999916,
            "value": 0.889763779527559
          },
          {
            "number": 2,
            "time": 53.59812499999916,
            "value": 0.889763779527559
          },
          {
            "number": 2,
            "time": 53.59874999999916,
            "value": 0.8818897637795275
          },
          {
            "number": 2,
            "time": 53.599374999999156,
            "value": 0.8818897637795275
          },
          {
            "number": 2,
            "time": 53.599999999999156,
            "value": 0.8818897637795275
          },
          {
            "number": 2,
            "time": 53.600624999999155,
            "value": 0.8740157480314961
          },
          {
            "number": 2,
            "time": 53.601249999999155,
            "value": 0.8740157480314961
          },
          {
            "number": 2,
            "time": 53.601874999999154,
            "value": 0.8661417322834646
          },
          {
            "number": 2,
            "time": 53.602499999999154,
            "value": 0.8661417322834646
          },
          {
            "number": 2,
            "time": 53.60312499999915,
            "value": 0.8661417322834646
          },
          {
            "number": 2,
            "time": 53.60374999999915,
            "value": 0.8582677165354331
          },
          {
            "number": 2,
            "time": 53.60437499999915,
            "value": 0.8582677165354331
          },
          {
            "number": 2,
            "time": 53.60499999999915,
            "value": 0.8503937007874016
          },
          {
            "number": 2,
            "time": 53.60562499999915,
            "value": 0.8503937007874016
          },
          {
            "number": 2,
            "time": 53.60624999999915,
            "value": 0.8503937007874016
          },
          {
            "number": 2,
            "time": 53.60687499999915,
            "value": 0.84251968503937
          },
          {
            "number": 2,
            "time": 53.60749999999915,
            "value": 0.84251968503937
          },
          {
            "number": 2,
            "time": 53.60812499999915,
            "value": 0.8346456692913385
          },
          {
            "number": 2,
            "time": 53.60874999999915,
            "value": 0.8346456692913385
          },
          {
            "number": 2,
            "time": 53.60937499999915,
            "value": 0.8346456692913385
          },
          {
            "number": 2,
            "time": 53.60999999999915,
            "value": 0.8267716535433071
          },
          {
            "number": 2,
            "time": 53.610624999999146,
            "value": 0.8267716535433071
          },
          {
            "number": 2,
            "time": 53.611249999999146,
            "value": 0.8188976377952756
          },
          {
            "number": 2,
            "time": 53.611874999999145,
            "value": 0.8188976377952756
          },
          {
            "number": 2,
            "time": 53.612499999999145,
            "value": 0.8188976377952756
          },
          {
            "number": 2,
            "time": 53.613124999999144,
            "value": 0.8110236220472441
          },
          {
            "number": 2,
            "time": 53.61374999999914,
            "value": 0.8110236220472441
          },
          {
            "number": 2,
            "time": 53.61437499999914,
            "value": 0.8031496062992126
          },
          {
            "number": 2,
            "time": 53.61499999999914,
            "value": 0.8031496062992126
          },
          {
            "number": 2,
            "time": 53.61562499999914,
            "value": 0.8031496062992126
          },
          {
            "number": 2,
            "time": 53.61624999999914,
            "value": 0.7952755905511811
          },
          {
            "number": 2,
            "time": 53.61687499999914,
            "value": 0.7952755905511811
          },
          {
            "number": 2,
            "time": 53.61749999999914,
            "value": 0.7874015748031497
          },
          {
            "number": 2,
            "time": 53.61812499999914,
            "value": 0.7874015748031497
          },
          {
            "number": 2,
            "time": 53.61874999999914,
            "value": 0.7874015748031497
          },
          {
            "number": 2,
            "time": 53.61937499999914,
            "value": 0.7795275590551181
          },
          {
            "number": 2,
            "time": 53.61999999999914,
            "value": 0.7795275590551181
          },
          {
            "number": 2,
            "time": 53.62062499999914,
            "value": 0.7716535433070866
          },
          {
            "number": 2,
            "time": 53.62124999999914,
            "value": 0.7716535433070866
          },
          {
            "number": 2,
            "time": 53.621874999999136,
            "value": 0.7716535433070866
          },
          {
            "number": 2,
            "time": 53.622499999999135,
            "value": 0.7637795275590551
          },
          {
            "number": 2,
            "time": 53.623124999999135,
            "value": 0.7637795275590551
          },
          {
            "number": 2,
            "time": 53.623749999999134,
            "value": 0.7559055118110236
          },
          {
            "number": 2,
            "time": 53.624374999999134,
            "value": 0.7559055118110236
          },
          {
            "number": 2,
            "time": 53.849999999999135,
            "value": 0.7559055118110236
          },
          {
            "number": 2,
            "time": 53.99999999999913,
            "value": 1
          },
          {
            "number": 2,
            "time": 54.00062499999913,
            "value": 1
          },
          {
            "number": 2,
            "time": 54.00124999999913,
            "value": 1
          },
          {
            "number": 2,
            "time": 54.00187499999913,
            "value": 1
          },
          {
            "number": 2,
            "time": 54.00249999999913,
            "value": 1
          },
          {
            "number": 2,
            "time": 54.00312499999913,
            "value": 1
          },
          {
            "number": 2,
            "time": 54.00374999999913,
            "value": 1
          },
          {
            "number": 2,
            "time": 54.00437499999913,
            "value": 1
          },
          {
            "number": 2,
            "time": 54.00499999999913,
            "value": 1
          },
          {
            "number": 2,
            "time": 54.00562499999913,
            "value": 1
          },
          {
            "number": 2,
            "time": 54.00624999999913,
            "value": 1
          },
          {
            "number": 2,
            "time": 54.00687499999913,
            "value": 1
          },
          {
            "number": 2,
            "time": 54.007499999999126,
            "value": 1
          },
          {
            "number": 2,
            "time": 54.008124999999126,
            "value": 1
          },
          {
            "number": 2,
            "time": 54.008749999999125,
            "value": 1
          },
          {
            "number": 2,
            "time": 54.009374999999125,
            "value": 1
          },
          {
            "number": 2,
            "time": 54.009999999999124,
            "value": 1
          },
          {
            "number": 2,
            "time": 54.01062499999912,
            "value": 1
          },
          {
            "number": 2,
            "time": 54.01124999999912,
            "value": 1
          },
          {
            "number": 2,
            "time": 54.01187499999912,
            "value": 1
          },
          {
            "number": 2,
            "time": 54.01249999999912,
            "value": 1
          },
          {
            "number": 2,
            "time": 54.01312499999912,
            "value": 1
          },
          {
            "number": 2,
            "time": 54.01374999999912,
            "value": 1
          },
          {
            "number": 2,
            "time": 54.01437499999912,
            "value": 1
          },
          {
            "number": 2,
            "time": 54.01499999999912,
            "value": 1
          },
          {
            "number": 2,
            "time": 54.01562499999912,
            "value": 1
          },
          {
            "number": 2,
            "time": 54.01624999999912,
            "value": 1
          },
          {
            "number": 2,
            "time": 54.01687499999912,
            "value": 1
          },
          {
            "number": 2,
            "time": 54.01749999999912,
            "value": 1
          },
          {
            "number": 2,
            "time": 54.01812499999912,
            "value": 1
          },
          {
            "number": 2,
            "time": 54.018749999999116,
            "value": 1
          },
          {
            "number": 2,
            "time": 54.019374999999116,
            "value": 1
          },
          {
            "number": 2,
            "time": 54.019999999999115,
            "value": 1
          },
          {
            "number": 2,
            "time": 54.020624999999114,
            "value": 1
          },
          {
            "number": 2,
            "time": 54.021249999999114,
            "value": 1
          },
          {
            "number": 2,
            "time": 54.02187499999911,
            "value": 1
          },
          {
            "number": 2,
            "time": 54.02249999999911,
            "value": 1
          },
          {
            "number": 2,
            "time": 54.02312499999911,
            "value": 1
          },
          {
            "number": 2,
            "time": 54.02374999999911,
            "value": 1
          },
          {
            "number": 2,
            "time": 54.02437499999911,
            "value": 1
          },
          {
            "number": 2,
            "time": 54.02499999999911,
            "value": 1
          },
          {
            "number": 2,
            "time": 54.02562499999911,
            "value": 1
          },
          {
            "number": 2,
            "time": 54.02624999999911,
            "value": 1
          },
          {
            "number": 2,
            "time": 54.02687499999911,
            "value": 0.9921259842519685
          },
          {
            "number": 2,
            "time": 54.02749999999911,
            "value": 0.9921259842519685
          },
          {
            "number": 2,
            "time": 54.02812499999911,
            "value": 0.9921259842519685
          },
          {
            "number": 2,
            "time": 54.02874999999911,
            "value": 0.984251968503937
          },
          {
            "number": 2,
            "time": 54.029374999999106,
            "value": 0.984251968503937
          },
          {
            "number": 2,
            "time": 54.029999999999106,
            "value": 0.9763779527559056
          },
          {
            "number": 2,
            "time": 54.030624999999105,
            "value": 0.9763779527559056
          },
          {
            "number": 2,
            "time": 54.031249999999105,
            "value": 0.9763779527559056
          },
          {
            "number": 2,
            "time": 54.031874999999104,
            "value": 0.968503937007874
          },
          {
            "number": 2,
            "time": 54.032499999999104,
            "value": 0.968503937007874
          },
          {
            "number": 2,
            "time": 54.0331249999991,
            "value": 0.9606299212598425
          },
          {
            "number": 2,
            "time": 54.0337499999991,
            "value": 0.9606299212598425
          },
          {
            "number": 2,
            "time": 54.0343749999991,
            "value": 0.9606299212598425
          },
          {
            "number": 2,
            "time": 54.0349999999991,
            "value": 0.952755905511811
          },
          {
            "number": 2,
            "time": 54.0356249999991,
            "value": 0.952755905511811
          },
          {
            "number": 2,
            "time": 54.0362499999991,
            "value": 0.9448818897637795
          },
          {
            "number": 2,
            "time": 54.0368749999991,
            "value": 0.9448818897637795
          },
          {
            "number": 2,
            "time": 54.0374999999991,
            "value": 0.9448818897637795
          },
          {
            "number": 2,
            "time": 54.0381249999991,
            "value": 0.937007874015748
          },
          {
            "number": 2,
            "time": 54.0387499999991,
            "value": 0.937007874015748
          },
          {
            "number": 2,
            "time": 54.0393749999991,
            "value": 0.9291338582677166
          },
          {
            "number": 2,
            "time": 54.0399999999991,
            "value": 0.9291338582677166
          },
          {
            "number": 2,
            "time": 54.040624999999096,
            "value": 0.9291338582677166
          },
          {
            "number": 2,
            "time": 54.041249999999096,
            "value": 0.9212598425196851
          },
          {
            "number": 2,
            "time": 54.041874999999095,
            "value": 0.9212598425196851
          },
          {
            "number": 2,
            "time": 54.042499999999094,
            "value": 0.9133858267716536
          },
          {
            "number": 2,
            "time": 54.043124999999094,
            "value": 0.9133858267716536
          },
          {
            "number": 2,
            "time": 54.04374999999909,
            "value": 0.9133858267716536
          },
          {
            "number": 2,
            "time": 54.04437499999909,
            "value": 0.905511811023622
          },
          {
            "number": 2,
            "time": 54.04499999999909,
            "value": 0.905511811023622
          },
          {
            "number": 2,
            "time": 54.04562499999909,
            "value": 0.8976377952755905
          },
          {
            "number": 2,
            "time": 54.04624999999909,
            "value": 0.8976377952755905
          },
          {
            "number": 2,
            "time": 54.04687499999909,
            "value": 0.8976377952755905
          },
          {
            "number": 2,
            "time": 54.04749999999909,
            "value": 0.889763779527559
          },
          {
            "number": 2,
            "time": 54.04812499999909,
            "value": 0.889763779527559
          },
          {
            "number": 2,
            "time": 54.04874999999909,
            "value": 0.8818897637795275
          },
          {
            "number": 2,
            "time": 54.04937499999909,
            "value": 0.8818897637795275
          },
          {
            "number": 2,
            "time": 54.04999999999909,
            "value": 0.8818897637795275
          },
          {
            "number": 2,
            "time": 54.05062499999909,
            "value": 0.8740157480314961
          },
          {
            "number": 2,
            "time": 54.05124999999909,
            "value": 0.8740157480314961
          },
          {
            "number": 2,
            "time": 54.051874999999086,
            "value": 0.8661417322834646
          },
          {
            "number": 2,
            "time": 54.052499999999085,
            "value": 0.8661417322834646
          },
          {
            "number": 2,
            "time": 54.053124999999085,
            "value": 0.8661417322834646
          },
          {
            "number": 2,
            "time": 54.053749999999084,
            "value": 0.8582677165354331
          },
          {
            "number": 2,
            "time": 54.054374999999084,
            "value": 0.8582677165354331
          },
          {
            "number": 2,
            "time": 54.05499999999908,
            "value": 0.8503937007874016
          },
          {
            "number": 2,
            "time": 54.05562499999908,
            "value": 0.8503937007874016
          },
          {
            "number": 2,
            "time": 54.05624999999908,
            "value": 0.8503937007874016
          },
          {
            "number": 2,
            "time": 54.05687499999908,
            "value": 0.84251968503937
          },
          {
            "number": 2,
            "time": 54.05749999999908,
            "value": 0.84251968503937
          },
          {
            "number": 2,
            "time": 54.05812499999908,
            "value": 0.8346456692913385
          },
          {
            "number": 2,
            "time": 54.05874999999908,
            "value": 0.8346456692913385
          },
          {
            "number": 2,
            "time": 54.05937499999908,
            "value": 0.8346456692913385
          },
          {
            "number": 2,
            "time": 54.05999999999908,
            "value": 0.8267716535433071
          },
          {
            "number": 2,
            "time": 54.06062499999908,
            "value": 0.8267716535433071
          },
          {
            "number": 2,
            "time": 54.06124999999908,
            "value": 0.8188976377952756
          },
          {
            "number": 2,
            "time": 54.06187499999908,
            "value": 0.8188976377952756
          },
          {
            "number": 2,
            "time": 54.062499999999076,
            "value": 0.8188976377952756
          },
          {
            "number": 2,
            "time": 54.063124999999076,
            "value": 0.8110236220472441
          },
          {
            "number": 2,
            "time": 54.063749999999075,
            "value": 0.8110236220472441
          },
          {
            "number": 2,
            "time": 54.064374999999075,
            "value": 0.8031496062992126
          },
          {
            "number": 2,
            "time": 54.064999999999074,
            "value": 0.8031496062992126
          },
          {
            "number": 2,
            "time": 54.06562499999907,
            "value": 0.8031496062992126
          },
          {
            "number": 2,
            "time": 54.06624999999907,
            "value": 0.7952755905511811
          },
          {
            "number": 2,
            "time": 54.06687499999907,
            "value": 0.7952755905511811
          },
          {
            "number": 2,
            "time": 54.06749999999907,
            "value": 0.7874015748031497
          },
          {
            "number": 2,
            "time": 54.06812499999907,
            "value": 0.7874015748031497
          },
          {
            "number": 2,
            "time": 54.06874999999907,
            "value": 0.7874015748031497
          },
          {
            "number": 2,
            "time": 54.06937499999907,
            "value": 0.7795275590551181
          },
          {
            "number": 2,
            "time": 54.06999999999907,
            "value": 0.7795275590551181
          },
          {
            "number": 2,
            "time": 54.07062499999907,
            "value": 0.7716535433070866
          },
          {
            "number": 2,
            "time": 54.07124999999907,
            "value": 0.7716535433070866
          },
          {
            "number": 2,
            "time": 54.07187499999907,
            "value": 0.7716535433070866
          },
          {
            "number": 2,
            "time": 54.07249999999907,
            "value": 0.7637795275590551
          },
          {
            "number": 2,
            "time": 54.07312499999907,
            "value": 0.7637795275590551
          },
          {
            "number": 2,
            "time": 54.073749999999066,
            "value": 0.7559055118110236
          },
          {
            "number": 2,
            "time": 54.074374999999065,
            "value": 0.7559055118110236
          },
          {
            "number": 2,
            "time": 54.299999999999066,
            "value": 0.7559055118110236
          },
          {
            "number": 2,
            "time": 54.449999999999065,
            "value": 0.7559055118110236
          },
          {
            "number": 2,
            "time": 55.34999999999906,
            "value": 0.7559055118110236
          },
          {
            "number": 2,
            "time": 55.799999999999066,
            "value": 1
          },
          {
            "number": 2,
            "time": 55.800624999999066,
            "value": 1
          },
          {
            "number": 2,
            "time": 55.801249999999065,
            "value": 1
          },
          {
            "number": 2,
            "time": 55.801874999999065,
            "value": 1
          },
          {
            "number": 2,
            "time": 55.802499999999064,
            "value": 1
          },
          {
            "number": 2,
            "time": 55.80312499999906,
            "value": 1
          },
          {
            "number": 2,
            "time": 55.80374999999906,
            "value": 1
          },
          {
            "number": 2,
            "time": 55.80437499999906,
            "value": 1
          },
          {
            "number": 2,
            "time": 55.80499999999906,
            "value": 1
          },
          {
            "number": 2,
            "time": 55.80562499999906,
            "value": 1
          },
          {
            "number": 2,
            "time": 55.80624999999906,
            "value": 1
          },
          {
            "number": 2,
            "time": 55.80687499999906,
            "value": 1
          },
          {
            "number": 2,
            "time": 55.80749999999906,
            "value": 1
          },
          {
            "number": 2,
            "time": 55.80812499999906,
            "value": 1
          },
          {
            "number": 2,
            "time": 55.80874999999906,
            "value": 1
          },
          {
            "number": 2,
            "time": 55.80937499999906,
            "value": 1
          },
          {
            "number": 2,
            "time": 55.80999999999906,
            "value": 1
          },
          {
            "number": 2,
            "time": 55.81062499999906,
            "value": 1
          },
          {
            "number": 2,
            "time": 55.811249999999056,
            "value": 1
          },
          {
            "number": 2,
            "time": 55.811874999999056,
            "value": 1
          },
          {
            "number": 2,
            "time": 55.812499999999055,
            "value": 1
          },
          {
            "number": 2,
            "time": 55.813124999999054,
            "value": 1
          },
          {
            "number": 2,
            "time": 55.813749999999054,
            "value": 1
          },
          {
            "number": 2,
            "time": 55.81437499999905,
            "value": 1
          },
          {
            "number": 2,
            "time": 55.81499999999905,
            "value": 1
          },
          {
            "number": 2,
            "time": 55.81562499999905,
            "value": 1
          },
          {
            "number": 2,
            "time": 55.81624999999905,
            "value": 1
          },
          {
            "number": 2,
            "time": 55.81687499999905,
            "value": 1
          },
          {
            "number": 2,
            "time": 55.81749999999905,
            "value": 1
          },
          {
            "number": 2,
            "time": 55.81812499999905,
            "value": 1
          },
          {
            "number": 2,
            "time": 55.81874999999905,
            "value": 1
          },
          {
            "number": 2,
            "time": 55.81937499999905,
            "value": 1
          },
          {
            "number": 2,
            "time": 55.81999999999905,
            "value": 1
          },
          {
            "number": 2,
            "time": 55.82062499999905,
            "value": 1
          },
          {
            "number": 2,
            "time": 55.82124999999905,
            "value": 1
          },
          {
            "number": 2,
            "time": 55.82187499999905,
            "value": 1
          },
          {
            "number": 2,
            "time": 55.822499999999046,
            "value": 1
          },
          {
            "number": 2,
            "time": 55.823124999999045,
            "value": 1
          },
          {
            "number": 2,
            "time": 55.823749999999045,
            "value": 1
          },
          {
            "number": 2,
            "time": 55.824374999999044,
            "value": 1
          },
          {
            "number": 2,
            "time": 55.824999999999044,
            "value": 1
          },
          {
            "number": 2,
            "time": 55.82562499999904,
            "value": 1
          },
          {
            "number": 2,
            "time": 55.82624999999904,
            "value": 1
          },
          {
            "number": 2,
            "time": 55.82687499999904,
            "value": 0.9921259842519685
          },
          {
            "number": 2,
            "time": 55.82749999999904,
            "value": 0.9921259842519685
          },
          {
            "number": 2,
            "time": 55.82812499999904,
            "value": 0.9921259842519685
          },
          {
            "number": 2,
            "time": 55.82874999999904,
            "value": 0.984251968503937
          },
          {
            "number": 2,
            "time": 55.82937499999904,
            "value": 0.984251968503937
          },
          {
            "number": 2,
            "time": 55.82999999999904,
            "value": 0.9763779527559056
          },
          {
            "number": 2,
            "time": 55.83062499999904,
            "value": 0.9763779527559056
          },
          {
            "number": 2,
            "time": 55.83124999999904,
            "value": 0.9763779527559056
          },
          {
            "number": 2,
            "time": 55.83187499999904,
            "value": 0.968503937007874
          },
          {
            "number": 2,
            "time": 55.83249999999904,
            "value": 0.968503937007874
          },
          {
            "number": 2,
            "time": 55.833124999999036,
            "value": 0.9606299212598425
          },
          {
            "number": 2,
            "time": 55.833749999999036,
            "value": 0.9606299212598425
          },
          {
            "number": 2,
            "time": 55.834374999999035,
            "value": 0.9606299212598425
          },
          {
            "number": 2,
            "time": 55.834999999999035,
            "value": 0.952755905511811
          },
          {
            "number": 2,
            "time": 55.835624999999034,
            "value": 0.952755905511811
          },
          {
            "number": 2,
            "time": 55.83624999999903,
            "value": 0.9448818897637795
          },
          {
            "number": 2,
            "time": 55.83687499999903,
            "value": 0.9448818897637795
          },
          {
            "number": 2,
            "time": 55.83749999999903,
            "value": 0.9448818897637795
          },
          {
            "number": 2,
            "time": 55.83812499999903,
            "value": 0.937007874015748
          },
          {
            "number": 2,
            "time": 55.83874999999903,
            "value": 0.937007874015748
          },
          {
            "number": 2,
            "time": 55.83937499999903,
            "value": 0.9291338582677166
          },
          {
            "number": 2,
            "time": 55.83999999999903,
            "value": 0.9291338582677166
          },
          {
            "number": 2,
            "time": 55.84062499999903,
            "value": 0.9291338582677166
          },
          {
            "number": 2,
            "time": 55.84124999999903,
            "value": 0.9212598425196851
          },
          {
            "number": 2,
            "time": 55.84187499999903,
            "value": 0.9212598425196851
          },
          {
            "number": 2,
            "time": 55.84249999999903,
            "value": 0.9133858267716536
          },
          {
            "number": 2,
            "time": 55.84312499999903,
            "value": 0.9133858267716536
          },
          {
            "number": 2,
            "time": 55.84374999999903,
            "value": 0.9133858267716536
          },
          {
            "number": 2,
            "time": 55.844374999999026,
            "value": 0.905511811023622
          },
          {
            "number": 2,
            "time": 55.844999999999025,
            "value": 0.905511811023622
          },
          {
            "number": 2,
            "time": 55.845624999999025,
            "value": 0.8976377952755905
          },
          {
            "number": 2,
            "time": 55.846249999999024,
            "value": 0.8976377952755905
          },
          {
            "number": 2,
            "time": 55.846874999999024,
            "value": 0.8976377952755905
          },
          {
            "number": 2,
            "time": 55.84749999999902,
            "value": 0.889763779527559
          },
          {
            "number": 2,
            "time": 55.84812499999902,
            "value": 0.889763779527559
          },
          {
            "number": 2,
            "time": 55.84874999999902,
            "value": 0.8818897637795275
          },
          {
            "number": 2,
            "time": 55.84937499999902,
            "value": 0.8818897637795275
          },
          {
            "number": 2,
            "time": 55.84999999999902,
            "value": 0.8818897637795275
          },
          {
            "number": 2,
            "time": 55.85062499999902,
            "value": 0.8740157480314961
          },
          {
            "number": 2,
            "time": 55.85124999999902,
            "value": 0.8740157480314961
          },
          {
            "number": 2,
            "time": 55.85187499999902,
            "value": 0.8661417322834646
          },
          {
            "number": 2,
            "time": 55.85249999999902,
            "value": 0.8661417322834646
          },
          {
            "number": 2,
            "time": 55.85312499999902,
            "value": 0.8661417322834646
          },
          {
            "number": 2,
            "time": 55.85374999999902,
            "value": 0.8582677165354331
          },
          {
            "number": 2,
            "time": 55.85437499999902,
            "value": 0.8582677165354331
          },
          {
            "number": 2,
            "time": 55.854999999999016,
            "value": 0.8503937007874016
          },
          {
            "number": 2,
            "time": 55.855624999999016,
            "value": 0.8503937007874016
          },
          {
            "number": 2,
            "time": 55.856249999999015,
            "value": 0.8503937007874016
          },
          {
            "number": 2,
            "time": 55.856874999999015,
            "value": 0.84251968503937
          },
          {
            "number": 2,
            "time": 55.857499999999014,
            "value": 0.84251968503937
          },
          {
            "number": 2,
            "time": 55.85812499999901,
            "value": 0.8346456692913385
          },
          {
            "number": 2,
            "time": 55.85874999999901,
            "value": 0.8346456692913385
          },
          {
            "number": 2,
            "time": 55.85937499999901,
            "value": 0.8346456692913385
          },
          {
            "number": 2,
            "time": 55.85999999999901,
            "value": 0.8267716535433071
          },
          {
            "number": 2,
            "time": 55.86062499999901,
            "value": 0.8267716535433071
          },
          {
            "number": 2,
            "time": 55.86124999999901,
            "value": 0.8188976377952756
          },
          {
            "number": 2,
            "time": 55.86187499999901,
            "value": 0.8188976377952756
          },
          {
            "number": 2,
            "time": 55.86249999999901,
            "value": 0.8188976377952756
          },
          {
            "number": 2,
            "time": 55.86312499999901,
            "value": 0.8110236220472441
          },
          {
            "number": 2,
            "time": 55.86374999999901,
            "value": 0.8110236220472441
          },
          {
            "number": 2,
            "time": 55.86437499999901,
            "value": 0.8031496062992126
          },
          {
            "number": 2,
            "time": 55.86499999999901,
            "value": 0.8031496062992126
          },
          {
            "number": 2,
            "time": 55.86562499999901,
            "value": 0.8031496062992126
          },
          {
            "number": 2,
            "time": 55.866249999999006,
            "value": 0.7952755905511811
          },
          {
            "number": 2,
            "time": 55.866874999999006,
            "value": 0.7952755905511811
          },
          {
            "number": 2,
            "time": 55.867499999999005,
            "value": 0.7874015748031497
          },
          {
            "number": 2,
            "time": 55.868124999999004,
            "value": 0.7874015748031497
          },
          {
            "number": 2,
            "time": 55.868749999999004,
            "value": 0.7874015748031497
          },
          {
            "number": 2,
            "time": 55.869374999999,
            "value": 0.7795275590551181
          },
          {
            "number": 2,
            "time": 55.869999999999,
            "value": 0.7795275590551181
          },
          {
            "number": 2,
            "time": 55.870624999999,
            "value": 0.7716535433070866
          },
          {
            "number": 2,
            "time": 55.871249999999,
            "value": 0.7716535433070866
          },
          {
            "number": 2,
            "time": 55.871874999999,
            "value": 0.7716535433070866
          },
          {
            "number": 2,
            "time": 55.872499999999,
            "value": 0.7637795275590551
          },
          {
            "number": 2,
            "time": 55.873124999999,
            "value": 0.7637795275590551
          },
          {
            "number": 2,
            "time": 55.873749999999,
            "value": 0.7559055118110236
          },
          {
            "number": 2,
            "time": 55.874374999999,
            "value": 0.7559055118110236
          },
          {
            "number": 2,
            "time": 56.249999999999,
            "value": 1
          },
          {
            "number": 2,
            "time": 56.276874999998995,
            "value": 0.9921259842519685
          },
          {
            "number": 2,
            "time": 56.27874999999899,
            "value": 0.984251968503937
          },
          {
            "number": 2,
            "time": 56.27999999999899,
            "value": 0.9763779527559056
          },
          {
            "number": 2,
            "time": 56.28187499999899,
            "value": 0.968503937007874
          },
          {
            "number": 2,
            "time": 56.28312499999899,
            "value": 0.9606299212598425
          },
          {
            "number": 2,
            "time": 56.28499999999899,
            "value": 0.952755905511811
          },
          {
            "number": 2,
            "time": 56.28624999999899,
            "value": 0.9448818897637795
          },
          {
            "number": 2,
            "time": 56.288124999998985,
            "value": 0.937007874015748
          },
          {
            "number": 2,
            "time": 56.289374999998984,
            "value": 0.9291338582677166
          },
          {
            "number": 2,
            "time": 56.29124999999898,
            "value": 0.9212598425196851
          },
          {
            "number": 2,
            "time": 56.29249999999898,
            "value": 0.9133858267716536
          },
          {
            "number": 2,
            "time": 56.29437499999898,
            "value": 0.905511811023622
          },
          {
            "number": 2,
            "time": 56.29562499999898,
            "value": 0.8976377952755905
          },
          {
            "number": 2,
            "time": 56.297499999998976,
            "value": 0.889763779527559
          },
          {
            "number": 2,
            "time": 56.298749999998975,
            "value": 0.8818897637795275
          },
          {
            "number": 2,
            "time": 56.30062499999897,
            "value": 0.8740157480314961
          },
          {
            "number": 2,
            "time": 56.30187499999897,
            "value": 0.8661417322834646
          },
          {
            "number": 2,
            "time": 56.30374999999897,
            "value": 0.8582677165354331
          },
          {
            "number": 2,
            "time": 56.30499999999897,
            "value": 0.8503937007874016
          },
          {
            "number": 2,
            "time": 56.30687499999897,
            "value": 0.84251968503937
          },
          {
            "number": 2,
            "time": 56.30812499999897,
            "value": 0.8346456692913385
          },
          {
            "number": 2,
            "time": 56.309999999998965,
            "value": 0.8267716535433071
          },
          {
            "number": 2,
            "time": 56.311249999998964,
            "value": 0.8188976377952756
          },
          {
            "number": 2,
            "time": 56.31312499999896,
            "value": 0.8110236220472441
          },
          {
            "number": 2,
            "time": 56.31437499999896,
            "value": 0.8031496062992126
          },
          {
            "number": 2,
            "time": 56.31624999999896,
            "value": 0.7952755905511811
          },
          {
            "number": 2,
            "time": 56.31749999999896,
            "value": 0.7874015748031497
          },
          {
            "number": 2,
            "time": 56.319374999998956,
            "value": 0.7795275590551181
          },
          {
            "number": 2,
            "time": 56.320624999998955,
            "value": 0.7716535433070866
          },
          {
            "number": 2,
            "time": 56.32249999999895,
            "value": 0.7637795275590551
          },
          {
            "number": 2,
            "time": 56.32374999999895,
            "value": 0.7559055118110236
          },
          {
            "number": 2,
            "time": 57.149999999998954,
            "value": 0.7559055118110236
          },
          {
            "number": 2,
            "time": 58.499999999998956,
            "value": 1
          },
          {
            "number": 2,
            "time": 58.52687499999895,
            "value": 0.9921259842519685
          },
          {
            "number": 2,
            "time": 58.52874999999895,
            "value": 0.984251968503937
          },
          {
            "number": 2,
            "time": 58.52999999999895,
            "value": 0.9763779527559056
          },
          {
            "number": 2,
            "time": 58.53187499999895,
            "value": 0.968503937007874
          },
          {
            "number": 2,
            "time": 58.53312499999895,
            "value": 0.9606299212598425
          },
          {
            "number": 2,
            "time": 58.534999999998945,
            "value": 0.952755905511811
          },
          {
            "number": 2,
            "time": 58.536249999998944,
            "value": 0.9448818897637795
          },
          {
            "number": 2,
            "time": 58.53812499999894,
            "value": 0.937007874015748
          },
          {
            "number": 2,
            "time": 58.53937499999894,
            "value": 0.9291338582677166
          },
          {
            "number": 2,
            "time": 58.54124999999894,
            "value": 0.9212598425196851
          },
          {
            "number": 2,
            "time": 58.54249999999894,
            "value": 0.9133858267716536
          },
          {
            "number": 2,
            "time": 58.54437499999894,
            "value": 0.905511811023622
          },
          {
            "number": 2,
            "time": 58.545624999998935,
            "value": 0.8976377952755905
          },
          {
            "number": 2,
            "time": 58.547499999998934,
            "value": 0.889763779527559
          },
          {
            "number": 2,
            "time": 58.54874999999893,
            "value": 0.8818897637795275
          },
          {
            "number": 2,
            "time": 58.55062499999893,
            "value": 0.8740157480314961
          },
          {
            "number": 2,
            "time": 58.55187499999893,
            "value": 0.8661417322834646
          },
          {
            "number": 2,
            "time": 58.55374999999893,
            "value": 0.8582677165354331
          },
          {
            "number": 2,
            "time": 58.55499999999893,
            "value": 0.8503937007874016
          },
          {
            "number": 2,
            "time": 58.556874999998925,
            "value": 0.84251968503937
          },
          {
            "number": 2,
            "time": 58.558124999998924,
            "value": 0.8346456692913385
          },
          {
            "number": 2,
            "time": 58.55999999999892,
            "value": 0.8267716535433071
          },
          {
            "number": 2,
            "time": 58.56124999999892,
            "value": 0.8188976377952756
          },
          {
            "number": 2,
            "time": 58.56312499999892,
            "value": 0.8110236220472441
          },
          {
            "number": 2,
            "time": 58.56437499999892,
            "value": 0.8031496062992126
          },
          {
            "number": 2,
            "time": 58.56624999999892,
            "value": 0.7952755905511811
          },
          {
            "number": 2,
            "time": 58.567499999998915,
            "value": 0.7874015748031497
          },
          {
            "number": 2,
            "time": 58.569374999998914,
            "value": 0.7795275590551181
          },
          {
            "number": 2,
            "time": 58.57062499999891,
            "value": 0.7716535433070866
          },
          {
            "number": 2,
            "time": 58.57249999999891,
            "value": 0.7637795275590551
          },
          {
            "number": 2,
            "time": 58.57374999999891,
            "value": 0.7559055118110236
          },
          {
            "number": 2,
            "time": 58.94999999999891,
            "value": 0.7559055118110236
          },
          {
            "number": 2,
            "time": 59.39999999999891,
            "value": 1
          },
          {
            "number": 2,
            "time": 59.42687499999891,
            "value": 0.9921259842519685
          },
          {
            "number": 2,
            "time": 59.42874999999891,
            "value": 0.984251968503937
          },
          {
            "number": 2,
            "time": 59.429999999998905,
            "value": 0.9763779527559056
          },
          {
            "number": 2,
            "time": 59.431874999998904,
            "value": 0.968503937007874
          },
          {
            "number": 2,
            "time": 59.4331249999989,
            "value": 0.9606299212598425
          },
          {
            "number": 2,
            "time": 59.4349999999989,
            "value": 0.952755905511811
          },
          {
            "number": 2,
            "time": 59.4362499999989,
            "value": 0.9448818897637795
          },
          {
            "number": 2,
            "time": 59.4381249999989,
            "value": 0.937007874015748
          },
          {
            "number": 2,
            "time": 59.4393749999989,
            "value": 0.9291338582677166
          },
          {
            "number": 2,
            "time": 59.441249999998895,
            "value": 0.9212598425196851
          },
          {
            "number": 2,
            "time": 59.442499999998894,
            "value": 0.9133858267716536
          },
          {
            "number": 2,
            "time": 59.44437499999889,
            "value": 0.905511811023622
          },
          {
            "number": 2,
            "time": 59.44562499999889,
            "value": 0.8976377952755905
          },
          {
            "number": 2,
            "time": 59.44749999999889,
            "value": 0.889763779527559
          },
          {
            "number": 2,
            "time": 59.44874999999889,
            "value": 0.8818897637795275
          },
          {
            "number": 2,
            "time": 59.45062499999889,
            "value": 0.8740157480314961
          },
          {
            "number": 2,
            "time": 59.451874999998886,
            "value": 0.8661417322834646
          },
          {
            "number": 2,
            "time": 59.453749999998884,
            "value": 0.8582677165354331
          },
          {
            "number": 2,
            "time": 59.45499999999888,
            "value": 0.8503937007874016
          },
          {
            "number": 2,
            "time": 59.45687499999888,
            "value": 0.84251968503937
          },
          {
            "number": 2,
            "time": 59.45812499999888,
            "value": 0.8346456692913385
          },
          {
            "number": 2,
            "time": 59.45999999999888,
            "value": 0.8267716535433071
          },
          {
            "number": 2,
            "time": 59.46124999999888,
            "value": 0.8188976377952756
          },
          {
            "number": 2,
            "time": 59.463124999998875,
            "value": 0.8110236220472441
          },
          {
            "number": 2,
            "time": 59.464374999998874,
            "value": 0.8031496062992126
          },
          {
            "number": 2,
            "time": 59.46624999999887,
            "value": 0.7952755905511811
          },
          {
            "number": 2,
            "time": 59.46749999999887,
            "value": 0.7874015748031497
          },
          {
            "number": 2,
            "time": 59.46937499999887,
            "value": 0.7795275590551181
          },
          {
            "number": 2,
            "time": 59.47062499999887,
            "value": 0.7716535433070866
          },
          {
            "number": 2,
            "time": 59.47249999999887,
            "value": 0.7637795275590551
          },
          {
            "number": 2,
            "time": 59.473749999998866,
            "value": 0.7559055118110236
          },
          {
            "number": 2,
            "time": 59.849999999998865,
            "value": 1
          },
          {
            "number": 2,
            "time": 59.87687499999886,
            "value": 0.9921259842519685
          },
          {
            "number": 2,
            "time": 59.87874999999886,
            "value": 0.984251968503937
          },
          {
            "number": 2,
            "time": 59.87999999999886,
            "value": 0.9763779527559056
          },
          {
            "number": 2,
            "time": 59.88187499999886,
            "value": 0.968503937007874
          },
          {
            "number": 2,
            "time": 59.883124999998856,
            "value": 0.9606299212598425
          },
          {
            "number": 2,
            "time": 59.884999999998854,
            "value": 0.952755905511811
          },
          {
            "number": 2,
            "time": 59.88624999999885,
            "value": 0.9448818897637795
          },
          {
            "number": 2,
            "time": 59.88812499999885,
            "value": 0.937007874015748
          },
          {
            "number": 2,
            "time": 59.88937499999885,
            "value": 0.9291338582677166
          },
          {
            "number": 2,
            "time": 59.89124999999885,
            "value": 0.9212598425196851
          },
          {
            "number": 2,
            "time": 59.89249999999885,
            "value": 0.9133858267716536
          },
          {
            "number": 2,
            "time": 59.894374999998846,
            "value": 0.905511811023622
          },
          {
            "number": 2,
            "time": 59.895624999998844,
            "value": 0.8976377952755905
          },
          {
            "number": 2,
            "time": 59.89749999999884,
            "value": 0.889763779527559
          },
          {
            "number": 2,
            "time": 59.89874999999884,
            "value": 0.8818897637795275
          },
          {
            "number": 2,
            "time": 59.90062499999884,
            "value": 0.8740157480314961
          },
          {
            "number": 2,
            "time": 59.90187499999884,
            "value": 0.8661417322834646
          },
          {
            "number": 2,
            "time": 59.90374999999884,
            "value": 0.8582677165354331
          },
          {
            "number": 2,
            "time": 59.904999999998836,
            "value": 0.8503937007874016
          },
          {
            "number": 2,
            "time": 59.906874999998834,
            "value": 0.84251968503937
          },
          {
            "number": 2,
            "time": 59.90812499999883,
            "value": 0.8346456692913385
          },
          {
            "number": 2,
            "time": 59.90999999999883,
            "value": 0.8267716535433071
          },
          {
            "number": 2,
            "time": 59.91124999999883,
            "value": 0.8188976377952756
          },
          {
            "number": 2,
            "time": 59.91312499999883,
            "value": 0.8110236220472441
          },
          {
            "number": 2,
            "time": 59.91437499999883,
            "value": 0.8031496062992126
          },
          {
            "number": 2,
            "time": 59.916249999998826,
            "value": 0.7952755905511811
          },
          {
            "number": 2,
            "time": 59.917499999998824,
            "value": 0.7874015748031497
          },
          {
            "number": 2,
            "time": 59.91937499999882,
            "value": 0.7795275590551181
          },
          {
            "number": 2,
            "time": 59.92062499999882,
            "value": 0.7716535433070866
          },
          {
            "number": 2,
            "time": 59.92249999999882,
            "value": 0.7637795275590551
          },
          {
            "number": 2,
            "time": 59.92374999999882,
            "value": 0.7559055118110236
          },
          {
            "number": 2,
            "time": 60.74999999999882,
            "value": 0.7559055118110236
          },
          {
            "number": 2,
            "time": 60.74999999999882,
            "value": 1
          },
          {
            "number": 2,
            "time": 60.75062499999882,
            "value": 1
          },
          {
            "number": 2,
            "time": 60.75124999999882,
            "value": 1
          },
          {
            "number": 2,
            "time": 60.75187499999882,
            "value": 1
          },
          {
            "number": 2,
            "time": 60.75249999999882,
            "value": 1
          },
          {
            "number": 2,
            "time": 60.75312499999882,
            "value": 1
          },
          {
            "number": 2,
            "time": 60.75374999999882,
            "value": 1
          },
          {
            "number": 2,
            "time": 60.75437499999882,
            "value": 1
          },
          {
            "number": 2,
            "time": 60.754999999998816,
            "value": 1
          },
          {
            "number": 2,
            "time": 60.755624999998815,
            "value": 1
          },
          {
            "number": 2,
            "time": 60.756249999998815,
            "value": 1
          },
          {
            "number": 2,
            "time": 60.756874999998814,
            "value": 1
          },
          {
            "number": 2,
            "time": 60.757499999998814,
            "value": 1
          },
          {
            "number": 2,
            "time": 60.75812499999881,
            "value": 1
          },
          {
            "number": 2,
            "time": 60.75874999999881,
            "value": 1
          },
          {
            "number": 2,
            "time": 60.75937499999881,
            "value": 1
          },
          {
            "number": 2,
            "time": 60.75999999999881,
            "value": 1
          },
          {
            "number": 2,
            "time": 60.76062499999881,
            "value": 1
          },
          {
            "number": 2,
            "time": 60.76124999999881,
            "value": 1
          },
          {
            "number": 2,
            "time": 60.76187499999881,
            "value": 1
          },
          {
            "number": 2,
            "time": 60.76249999999881,
            "value": 1
          },
          {
            "number": 2,
            "time": 60.76312499999881,
            "value": 1
          },
          {
            "number": 2,
            "time": 60.76374999999881,
            "value": 1
          },
          {
            "number": 2,
            "time": 60.76437499999881,
            "value": 1
          },
          {
            "number": 2,
            "time": 60.76499999999881,
            "value": 1
          },
          {
            "number": 2,
            "time": 60.765624999998806,
            "value": 1
          },
          {
            "number": 2,
            "time": 60.766249999998806,
            "value": 1
          },
          {
            "number": 2,
            "time": 60.766874999998805,
            "value": 1
          },
          {
            "number": 2,
            "time": 60.767499999998805,
            "value": 1
          },
          {
            "number": 2,
            "time": 60.768124999998804,
            "value": 1
          },
          {
            "number": 2,
            "time": 60.7687499999988,
            "value": 1
          },
          {
            "number": 2,
            "time": 60.7693749999988,
            "value": 1
          },
          {
            "number": 2,
            "time": 60.7699999999988,
            "value": 1
          },
          {
            "number": 2,
            "time": 60.7706249999988,
            "value": 1
          },
          {
            "number": 2,
            "time": 60.7712499999988,
            "value": 1
          },
          {
            "number": 2,
            "time": 60.7718749999988,
            "value": 1
          },
          {
            "number": 2,
            "time": 60.7724999999988,
            "value": 1
          },
          {
            "number": 2,
            "time": 60.7731249999988,
            "value": 1
          },
          {
            "number": 2,
            "time": 60.7737499999988,
            "value": 1
          },
          {
            "number": 2,
            "time": 60.7743749999988,
            "value": 1
          },
          {
            "number": 2,
            "time": 60.7749999999988,
            "value": 0.9921259842519685
          },
          {
            "number": 2,
            "time": 60.7756249999988,
            "value": 0.9921259842519685
          },
          {
            "number": 2,
            "time": 60.7762499999988,
            "value": 0.984251968503937
          },
          {
            "number": 2,
            "time": 60.776874999998796,
            "value": 0.984251968503937
          },
          {
            "number": 2,
            "time": 60.777499999998795,
            "value": 0.984251968503937
          },
          {
            "number": 2,
            "time": 60.778124999998795,
            "value": 0.9763779527559056
          },
          {
            "number": 2,
            "time": 60.778749999998794,
            "value": 0.9763779527559056
          },
          {
            "number": 2,
            "time": 60.779374999998794,
            "value": 0.968503937007874
          },
          {
            "number": 2,
            "time": 60.77999999999879,
            "value": 0.968503937007874
          },
          {
            "number": 2,
            "time": 60.78062499999879,
            "value": 0.968503937007874
          },
          {
            "number": 2,
            "time": 60.78124999999879,
            "value": 0.9606299212598425
          },
          {
            "number": 2,
            "time": 60.78187499999879,
            "value": 0.9606299212598425
          },
          {
            "number": 2,
            "time": 60.78249999999879,
            "value": 0.952755905511811
          },
          {
            "number": 2,
            "time": 60.78312499999879,
            "value": 0.952755905511811
          },
          {
            "number": 2,
            "time": 60.78374999999879,
            "value": 0.952755905511811
          },
          {
            "number": 2,
            "time": 60.78437499999879,
            "value": 0.9448818897637795
          },
          {
            "number": 2,
            "time": 60.78499999999879,
            "value": 0.9448818897637795
          },
          {
            "number": 2,
            "time": 60.78562499999879,
            "value": 0.937007874015748
          },
          {
            "number": 2,
            "time": 60.78624999999879,
            "value": 0.937007874015748
          },
          {
            "number": 2,
            "time": 60.78687499999879,
            "value": 0.937007874015748
          },
          {
            "number": 2,
            "time": 60.787499999998786,
            "value": 0.9291338582677166
          },
          {
            "number": 2,
            "time": 60.788124999998786,
            "value": 0.9291338582677166
          },
          {
            "number": 2,
            "time": 60.788749999998785,
            "value": 0.9133858267716536
          },
          {
            "number": 2,
            "time": 60.789374999998785,
            "value": 0.9133858267716536
          },
          {
            "number": 2,
            "time": 60.789999999998784,
            "value": 0.905511811023622
          },
          {
            "number": 2,
            "time": 60.79062499999878,
            "value": 0.905511811023622
          },
          {
            "number": 2,
            "time": 60.79124999999878,
            "value": 0.905511811023622
          },
          {
            "number": 2,
            "time": 60.79187499999878,
            "value": 0.8976377952755905
          },
          {
            "number": 2,
            "time": 60.79249999999878,
            "value": 0.8976377952755905
          },
          {
            "number": 2,
            "time": 60.79312499999878,
            "value": 0.889763779527559
          },
          {
            "number": 2,
            "time": 60.79374999999878,
            "value": 0.889763779527559
          },
          {
            "number": 2,
            "time": 60.79437499999878,
            "value": 0.889763779527559
          },
          {
            "number": 2,
            "time": 60.79499999999878,
            "value": 0.8818897637795275
          },
          {
            "number": 2,
            "time": 60.79562499999878,
            "value": 0.8818897637795275
          },
          {
            "number": 2,
            "time": 60.79624999999878,
            "value": 0.8818897637795275
          },
          {
            "number": 2,
            "time": 60.79687499999878,
            "value": 0.8740157480314961
          },
          {
            "number": 2,
            "time": 60.79749999999878,
            "value": 0.8740157480314961
          },
          {
            "number": 2,
            "time": 60.79812499999878,
            "value": 0.8661417322834646
          },
          {
            "number": 2,
            "time": 60.798749999998776,
            "value": 0.8661417322834646
          },
          {
            "number": 2,
            "time": 60.799374999998776,
            "value": 0.8661417322834646
          },
          {
            "number": 2,
            "time": 60.799999999998775,
            "value": 0.8582677165354331
          },
          {
            "number": 2,
            "time": 60.800624999998774,
            "value": 0.8582677165354331
          },
          {
            "number": 2,
            "time": 60.801249999998774,
            "value": 0.8503937007874016
          },
          {
            "number": 2,
            "time": 60.80187499999877,
            "value": 0.8503937007874016
          },
          {
            "number": 2,
            "time": 60.80249999999877,
            "value": 0.8503937007874016
          },
          {
            "number": 2,
            "time": 60.80312499999877,
            "value": 0.84251968503937
          },
          {
            "number": 2,
            "time": 60.80374999999877,
            "value": 0.84251968503937
          },
          {
            "number": 2,
            "time": 60.80437499999877,
            "value": 0.8346456692913385
          },
          {
            "number": 2,
            "time": 60.80499999999877,
            "value": 0.8346456692913385
          },
          {
            "number": 2,
            "time": 60.80562499999877,
            "value": 0.8346456692913385
          },
          {
            "number": 2,
            "time": 60.80624999999877,
            "value": 0.8267716535433071
          },
          {
            "number": 2,
            "time": 60.80687499999877,
            "value": 0.8267716535433071
          },
          {
            "number": 2,
            "time": 60.80749999999877,
            "value": 0.8110236220472441
          },
          {
            "number": 2,
            "time": 60.80812499999877,
            "value": 0.8110236220472441
          },
          {
            "number": 2,
            "time": 60.80874999999877,
            "value": 0.8110236220472441
          },
          {
            "number": 2,
            "time": 60.80937499999877,
            "value": 0.8031496062992126
          },
          {
            "number": 2,
            "time": 60.809999999998766,
            "value": 0.8031496062992126
          },
          {
            "number": 2,
            "time": 60.810624999998765,
            "value": 0.7952755905511811
          },
          {
            "number": 2,
            "time": 60.811249999998765,
            "value": 0.7952755905511811
          },
          {
            "number": 2,
            "time": 60.811874999998764,
            "value": 0.7952755905511811
          },
          {
            "number": 2,
            "time": 60.812499999998764,
            "value": 0.7874015748031497
          },
          {
            "number": 2,
            "time": 60.81312499999876,
            "value": 0.7874015748031497
          },
          {
            "number": 2,
            "time": 60.81374999999876,
            "value": 0.7795275590551181
          },
          {
            "number": 2,
            "time": 60.81437499999876,
            "value": 0.7795275590551181
          },
          {
            "number": 2,
            "time": 60.81499999999876,
            "value": 0.7795275590551181
          },
          {
            "number": 2,
            "time": 60.81562499999876,
            "value": 0.7716535433070866
          },
          {
            "number": 2,
            "time": 60.81624999999876,
            "value": 0.7716535433070866
          },
          {
            "number": 2,
            "time": 60.81687499999876,
            "value": 0.7716535433070866
          },
          {
            "number": 2,
            "time": 60.81749999999876,
            "value": 0.7637795275590551
          },
          {
            "number": 2,
            "time": 60.81812499999876,
            "value": 0.7637795275590551
          },
          {
            "number": 2,
            "time": 60.81874999999876,
            "value": 0.7559055118110236
          },
          {
            "number": 2,
            "time": 60.81937499999876,
            "value": 0.7559055118110236
          },
          {
            "number": 2,
            "time": 60.81999999999876,
            "value": 0.7559055118110236
          },
          {
            "number": 2,
            "time": 60.820624999998756,
            "value": 0.7480314960629921
          },
          {
            "number": 2,
            "time": 60.821249999998756,
            "value": 0.7480314960629921
          },
          {
            "number": 2,
            "time": 60.821874999998755,
            "value": 0.7401574803149606
          },
          {
            "number": 2,
            "time": 60.822499999998755,
            "value": 0.7401574803149606
          },
          {
            "number": 2,
            "time": 60.823124999998754,
            "value": 0.7401574803149606
          },
          {
            "number": 2,
            "time": 60.82374999999875,
            "value": 0.7322834645669292
          },
          {
            "number": 2,
            "time": 60.82437499999875,
            "value": 0.7322834645669292
          },
          {
            "number": 2,
            "time": 60.82687499999875,
            "value": 0.7244094488188977
          },
          {
            "number": 2,
            "time": 60.84624999999875,
            "value": 0.7165354330708661
          },
          {
            "number": 2,
            "time": 60.864999999998744,
            "value": 0.7086614173228346
          },
          {
            "number": 2,
            "time": 60.88437499999874,
            "value": 0.7007874015748031
          },
          {
            "number": 2,
            "time": 60.90374999999874,
            "value": 0.6929133858267716
          },
          {
            "number": 2,
            "time": 60.922499999998735,
            "value": 0.6850393700787402
          },
          {
            "number": 2,
            "time": 60.94187499999873,
            "value": 0.6771653543307087
          },
          {
            "number": 2,
            "time": 60.96124999999873,
            "value": 0.6692913385826772
          },
          {
            "number": 2,
            "time": 60.979999999998725,
            "value": 0.6614173228346457
          },
          {
            "number": 2,
            "time": 60.99937499999872,
            "value": 0.6535433070866141
          },
          {
            "number": 2,
            "time": 61.01812499999872,
            "value": 0.6456692913385826
          },
          {
            "number": 2,
            "time": 61.037499999998715,
            "value": 0.6377952755905512
          },
          {
            "number": 2,
            "time": 61.04999999999872,
            "value": 0.6377952755905512
          },
          {
            "number": 2,
            "time": 61.05687499999872,
            "value": 0.6299212598425197
          },
          {
            "number": 2,
            "time": 61.075624999998716,
            "value": 0.6220472440944882
          },
          {
            "number": 2,
            "time": 61.09499999999871,
            "value": 0.6141732283464567
          },
          {
            "number": 2,
            "time": 61.11437499999871,
            "value": 0.6062992125984252
          },
          {
            "number": 2,
            "time": 61.13312499999871,
            "value": 0.5984251968503937
          },
          {
            "number": 2,
            "time": 61.1524999999987,
            "value": 0.5905511811023622
          },
          {
            "number": 2,
            "time": 61.1718749999987,
            "value": 0.5826771653543307
          },
          {
            "number": 2,
            "time": 61.1906249999987,
            "value": 0.5748031496062992
          },
          {
            "number": 2,
            "time": 61.199999999998695,
            "value": 0.8582677165354331
          },
          {
            "number": 2,
            "time": 61.200624999998695,
            "value": 0.8582677165354331
          },
          {
            "number": 2,
            "time": 61.201249999998694,
            "value": 0.8503937007874016
          },
          {
            "number": 2,
            "time": 61.201874999998694,
            "value": 0.8503937007874016
          },
          {
            "number": 2,
            "time": 61.20249999999869,
            "value": 0.8503937007874016
          },
          {
            "number": 2,
            "time": 61.20312499999869,
            "value": 0.84251968503937
          },
          {
            "number": 2,
            "time": 61.20374999999869,
            "value": 0.84251968503937
          },
          {
            "number": 2,
            "time": 61.20437499999869,
            "value": 0.84251968503937
          },
          {
            "number": 2,
            "time": 61.20499999999869,
            "value": 0.84251968503937
          },
          {
            "number": 2,
            "time": 61.20562499999869,
            "value": 0.8346456692913385
          },
          {
            "number": 2,
            "time": 61.20624999999869,
            "value": 0.8346456692913385
          },
          {
            "number": 2,
            "time": 61.20687499999869,
            "value": 0.8346456692913385
          },
          {
            "number": 2,
            "time": 61.20749999999869,
            "value": 0.8267716535433071
          },
          {
            "number": 2,
            "time": 61.20812499999869,
            "value": 0.8267716535433071
          },
          {
            "number": 2,
            "time": 61.20874999999869,
            "value": 0.8267716535433071
          },
          {
            "number": 2,
            "time": 61.20937499999869,
            "value": 0.8188976377952756
          },
          {
            "number": 2,
            "time": 61.209999999998686,
            "value": 0.5669291338582677
          },
          {
            "number": 2,
            "time": 61.209999999998686,
            "value": 0.8110236220472441
          },
          {
            "number": 2,
            "time": 61.210624999998686,
            "value": 0.8031496062992126
          },
          {
            "number": 2,
            "time": 61.211249999998685,
            "value": 0.8031496062992126
          },
          {
            "number": 2,
            "time": 61.211874999998685,
            "value": 0.8031496062992126
          },
          {
            "number": 2,
            "time": 61.212499999998684,
            "value": 0.8031496062992126
          },
          {
            "number": 2,
            "time": 61.21312499999868,
            "value": 0.7952755905511811
          },
          {
            "number": 2,
            "time": 61.21374999999868,
            "value": 0.7952755905511811
          },
          {
            "number": 2,
            "time": 61.21437499999868,
            "value": 0.7952755905511811
          },
          {
            "number": 2,
            "time": 61.21499999999868,
            "value": 0.7874015748031497
          },
          {
            "number": 2,
            "time": 61.21562499999868,
            "value": 0.7874015748031497
          },
          {
            "number": 2,
            "time": 61.21624999999868,
            "value": 0.7874015748031497
          },
          {
            "number": 2,
            "time": 61.21687499999868,
            "value": 0.7795275590551181
          },
          {
            "number": 2,
            "time": 61.21749999999868,
            "value": 0.7795275590551181
          },
          {
            "number": 2,
            "time": 61.21812499999868,
            "value": 0.7795275590551181
          },
          {
            "number": 2,
            "time": 61.21874999999868,
            "value": 0.7795275590551181
          },
          {
            "number": 2,
            "time": 61.21937499999868,
            "value": 0.7716535433070866
          },
          {
            "number": 2,
            "time": 61.21999999999868,
            "value": 0.7716535433070866
          },
          {
            "number": 2,
            "time": 61.22062499999868,
            "value": 0.7716535433070866
          },
          {
            "number": 2,
            "time": 61.221249999998676,
            "value": 0.7637795275590551
          },
          {
            "number": 2,
            "time": 61.221874999998676,
            "value": 0.7637795275590551
          },
          {
            "number": 2,
            "time": 61.222499999998675,
            "value": 0.7637795275590551
          },
          {
            "number": 2,
            "time": 61.223124999998674,
            "value": 0.7559055118110236
          },
          {
            "number": 2,
            "time": 61.223749999998674,
            "value": 0.7559055118110236
          },
          {
            "number": 2,
            "time": 61.22437499999867,
            "value": 0.7559055118110236
          },
          {
            "number": 2,
            "time": 61.22499999999867,
            "value": 0.7559055118110236
          },
          {
            "number": 2,
            "time": 61.22562499999867,
            "value": 0.7480314960629921
          },
          {
            "number": 2,
            "time": 61.22624999999867,
            "value": 0.7480314960629921
          },
          {
            "number": 2,
            "time": 61.22687499999867,
            "value": 0.7480314960629921
          },
          {
            "number": 2,
            "time": 61.22749999999867,
            "value": 0.7401574803149606
          },
          {
            "number": 2,
            "time": 61.22812499999867,
            "value": 0.7401574803149606
          },
          {
            "number": 2,
            "time": 61.22874999999867,
            "value": 0.5590551181102362
          },
          {
            "number": 2,
            "time": 61.22874999999867,
            "value": 0.7244094488188977
          },
          {
            "number": 2,
            "time": 61.22937499999867,
            "value": 0.7244094488188977
          },
          {
            "number": 2,
            "time": 61.22999999999867,
            "value": 0.7244094488188977
          },
          {
            "number": 2,
            "time": 61.23062499999867,
            "value": 0.7244094488188977
          },
          {
            "number": 2,
            "time": 61.23124999999867,
            "value": 0.7165354330708661
          },
          {
            "number": 2,
            "time": 61.23187499999867,
            "value": 0.7165354330708661
          },
          {
            "number": 2,
            "time": 61.232499999998666,
            "value": 0.7165354330708661
          },
          {
            "number": 2,
            "time": 61.233124999998665,
            "value": 0.7086614173228346
          },
          {
            "number": 2,
            "time": 61.233749999998665,
            "value": 0.7086614173228346
          },
          {
            "number": 2,
            "time": 61.234374999998664,
            "value": 0.7086614173228346
          },
          {
            "number": 2,
            "time": 61.234999999998664,
            "value": 0.7007874015748031
          },
          {
            "number": 2,
            "time": 61.23562499999866,
            "value": 0.7007874015748031
          },
          {
            "number": 2,
            "time": 61.23624999999866,
            "value": 0.7007874015748031
          },
          {
            "number": 2,
            "time": 61.23687499999866,
            "value": 0.7007874015748031
          },
          {
            "number": 2,
            "time": 61.23749999999866,
            "value": 0.6929133858267716
          },
          {
            "number": 2,
            "time": 61.23812499999866,
            "value": 0.6929133858267716
          },
          {
            "number": 2,
            "time": 61.23874999999866,
            "value": 0.6929133858267716
          },
          {
            "number": 2,
            "time": 61.23937499999866,
            "value": 0.6850393700787402
          },
          {
            "number": 2,
            "time": 61.23999999999866,
            "value": 0.6850393700787402
          },
          {
            "number": 2,
            "time": 61.24062499999866,
            "value": 0.6850393700787402
          },
          {
            "number": 2,
            "time": 61.24124999999866,
            "value": 0.6771653543307087
          },
          {
            "number": 2,
            "time": 61.24187499999866,
            "value": 0.6771653543307087
          },
          {
            "number": 2,
            "time": 61.24249999999866,
            "value": 0.6771653543307087
          },
          {
            "number": 2,
            "time": 61.243124999998656,
            "value": 0.6771653543307087
          },
          {
            "number": 2,
            "time": 61.243749999998656,
            "value": 0.6692913385826772
          },
          {
            "number": 2,
            "time": 61.244374999998655,
            "value": 0.6692913385826772
          },
          {
            "number": 2,
            "time": 61.244999999998655,
            "value": 0.6692913385826772
          },
          {
            "number": 2,
            "time": 61.245624999998654,
            "value": 0.6614173228346457
          },
          {
            "number": 2,
            "time": 61.24624999999865,
            "value": 0.6614173228346457
          },
          {
            "number": 2,
            "time": 61.24687499999865,
            "value": 0.6614173228346457
          },
          {
            "number": 2,
            "time": 61.24749999999865,
            "value": 0.6614173228346457
          },
          {
            "number": 2,
            "time": 61.24812499999865,
            "value": 0.5511811023622047
          },
          {
            "number": 2,
            "time": 61.24812499999865,
            "value": 0.6456692913385826
          },
          {
            "number": 2,
            "time": 61.24874999999865,
            "value": 0.6456692913385826
          },
          {
            "number": 2,
            "time": 61.24937499999865,
            "value": 0.6377952755905512
          },
          {
            "number": 2,
            "time": 61.24999999999865,
            "value": 0.6377952755905512
          },
          {
            "number": 2,
            "time": 61.25062499999865,
            "value": 0.6377952755905512
          },
          {
            "number": 2,
            "time": 61.25124999999865,
            "value": 0.6377952755905512
          },
          {
            "number": 2,
            "time": 61.25187499999865,
            "value": 0.6299212598425197
          },
          {
            "number": 2,
            "time": 61.25249999999865,
            "value": 0.6299212598425197
          },
          {
            "number": 2,
            "time": 61.25312499999865,
            "value": 0.6299212598425197
          },
          {
            "number": 2,
            "time": 61.25374999999865,
            "value": 0.6220472440944882
          },
          {
            "number": 2,
            "time": 61.254374999998646,
            "value": 0.6220472440944882
          },
          {
            "number": 2,
            "time": 61.254999999998645,
            "value": 0.6220472440944882
          },
          {
            "number": 2,
            "time": 61.255624999998645,
            "value": 0.6220472440944882
          },
          {
            "number": 2,
            "time": 61.256249999998644,
            "value": 0.6141732283464567
          },
          {
            "number": 2,
            "time": 61.256874999998644,
            "value": 0.6141732283464567
          },
          {
            "number": 2,
            "time": 61.25749999999864,
            "value": 0.6141732283464567
          },
          {
            "number": 2,
            "time": 61.25812499999864,
            "value": 0.6062992125984252
          },
          {
            "number": 2,
            "time": 61.25874999999864,
            "value": 0.6062992125984252
          },
          {
            "number": 2,
            "time": 61.25937499999864,
            "value": 0.6062992125984252
          },
          {
            "number": 2,
            "time": 61.25999999999864,
            "value": 0.6062992125984252
          },
          {
            "number": 2,
            "time": 61.26062499999864,
            "value": 0.5984251968503937
          },
          {
            "number": 2,
            "time": 61.26124999999864,
            "value": 0.5984251968503937
          },
          {
            "number": 2,
            "time": 61.26187499999864,
            "value": 0.5984251968503937
          },
          {
            "number": 2,
            "time": 61.26249999999864,
            "value": 0.5905511811023622
          },
          {
            "number": 2,
            "time": 61.26312499999864,
            "value": 0.5905511811023622
          },
          {
            "number": 2,
            "time": 61.26374999999864,
            "value": 0.5905511811023622
          },
          {
            "number": 2,
            "time": 61.26437499999864,
            "value": 0.5826771653543307
          },
          {
            "number": 2,
            "time": 61.264999999998636,
            "value": 0.5826771653543307
          },
          {
            "number": 2,
            "time": 61.265624999998636,
            "value": 0.5826771653543307
          },
          {
            "number": 2,
            "time": 61.266249999998635,
            "value": 0.5826771653543307
          },
          {
            "number": 2,
            "time": 61.266874999998635,
            "value": 0.5748031496062992
          },
          {
            "number": 2,
            "time": 61.267499999998634,
            "value": 0.5433070866141733
          },
          {
            "number": 2,
            "time": 61.267499999998634,
            "value": 0.5669291338582677
          },
          {
            "number": 2,
            "time": 61.26812499999863,
            "value": 0.5669291338582677
          },
          {
            "number": 2,
            "time": 61.26874999999863,
            "value": 0.5590551181102362
          },
          {
            "number": 2,
            "time": 61.26937499999863,
            "value": 0.5590551181102362
          },
          {
            "number": 2,
            "time": 61.26999999999863,
            "value": 0.5590551181102362
          },
          {
            "number": 2,
            "time": 61.27062499999863,
            "value": 0.5590551181102362
          },
          {
            "number": 2,
            "time": 61.27124999999863,
            "value": 0.5511811023622047
          },
          {
            "number": 2,
            "time": 61.27187499999863,
            "value": 0.5511811023622047
          },
          {
            "number": 2,
            "time": 61.27249999999863,
            "value": 0.5511811023622047
          },
          {
            "number": 2,
            "time": 61.27312499999863,
            "value": 0.5433070866141733
          },
          {
            "number": 2,
            "time": 61.27374999999863,
            "value": 0.5433070866141733
          },
          {
            "number": 2,
            "time": 61.27437499999863,
            "value": 0.5433070866141733
          },
          {
            "number": 2,
            "time": 61.28624999999863,
            "value": 0.5354330708661418
          },
          {
            "number": 2,
            "time": 61.30562499999863,
            "value": 0.5275590551181102
          },
          {
            "number": 2,
            "time": 61.324999999998624,
            "value": 0.5196850393700787
          },
          {
            "number": 2,
            "time": 61.34374999999862,
            "value": 0.5118110236220472
          },
          {
            "number": 2,
            "time": 61.36312499999862,
            "value": 0.5039370078740157
          },
          {
            "number": 2,
            "time": 61.382499999998615,
            "value": 0.49606299212598426
          },
          {
            "number": 2,
            "time": 61.40124999999861,
            "value": 0.4881889763779528
          },
          {
            "number": 2,
            "time": 61.42062499999861,
            "value": 0.48031496062992124
          },
          {
            "number": 2,
            "time": 61.439374999998606,
            "value": 0.47244094488188976
          },
          {
            "number": 2,
            "time": 61.4587499999986,
            "value": 0.4645669291338583
          },
          {
            "number": 2,
            "time": 61.4781249999986,
            "value": 0.4566929133858268
          },
          {
            "number": 2,
            "time": 61.496874999998596,
            "value": 0.44881889763779526
          },
          {
            "number": 2,
            "time": 61.49999999999859,
            "value": 0.44881889763779526
          },
          {
            "number": 2,
            "time": 61.51624999999859,
            "value": 0.4409448818897638
          },
          {
            "number": 2,
            "time": 61.53562499999859,
            "value": 0.4330708661417323
          },
          {
            "number": 2,
            "time": 61.554374999998586,
            "value": 0.4251968503937008
          },
          {
            "number": 2,
            "time": 61.57374999999858,
            "value": 0.41732283464566927
          },
          {
            "number": 2,
            "time": 61.59312499999858,
            "value": 0.4094488188976378
          },
          {
            "number": 2,
            "time": 61.61187499999858,
            "value": 0.4015748031496063
          },
          {
            "number": 2,
            "time": 61.63124999999857,
            "value": 0.3937007874015748
          },
          {
            "number": 2,
            "time": 61.64999999999857,
            "value": 0.3858267716535433
          },
          {
            "number": 2,
            "time": 61.64999999999857,
            "value": 0.3858267716535433
          },
          {
            "number": 2,
            "time": 62.54999999999857,
            "value": 0.3858267716535433
          },
          {
            "number": 2,
            "time": 63.44999999999857,
            "value": 0.3858267716535433
          },
          {
            "number": 2,
            "time": 64.34999999999857,
            "value": 0.3858267716535433
          },
          {
            "number": 2,
            "time": 65.24999999999858,
            "value": 0.3858267716535433
          },
          {
            "number": 2,
            "time": 66.14999999999858,
            "value": 0.3858267716535433
          },
          {
            "number": 2,
            "time": 67.04999999999859,
            "value": 0.3858267716535433
          },
          {
            "number": 2,
            "time": 67.9499999999986,
            "value": 0.3858267716535433
          },
          {
            "number": 2,
            "time": 68.3999999999986,
            "value": 0.3858267716535433
          },
          {
            "number": 2,
            "time": 68.8499999999986,
            "value": 0.3858267716535433
          },
          {
            "number": 2,
            "time": 69.74999999999861,
            "value": 0.3858267716535433
          },
          {
            "number": 2,
            "time": 70.64999999999861,
            "value": 0.3858267716535433
          },
          {
            "number": 2,
            "time": 71.39999999999861,
            "value": 0.3858267716535433
          },
          {
            "number": 2,
            "time": 71.47499999999862,
            "value": 0.3858267716535433
          },
          {
            "number": 2,
            "time": 71.54999999999862,
            "value": 0.3858267716535433
          },
          {
            "number": 2,
            "time": 72.44999999999862,
            "value": 0.3858267716535433
          },
          {
            "number": 2,
            "time": 73.34999999999863,
            "value": 0.3858267716535433
          },
          {
            "number": 2,
            "time": 74.24999999999864,
            "value": 0.3858267716535433
          },
          {
            "number": 2,
            "time": 75.14999999999864,
            "value": 0.3858267716535433
          },
          {
            "number": 2,
            "time": 75.59999999999864,
            "value": 0.3858267716535433
          },
          {
            "number": 2,
            "time": 79.04999999999865,
            "value": 0.3858267716535433
          },
          {
            "number": 2,
            "time": 79.34999999999866,
            "value": 0.3858267716535433
          },
          {
            "number": 2,
            "time": 79.79999999999866,
            "value": 0.3858267716535433
          },
          {
            "number": 2,
            "time": 80.09999999999867,
            "value": 0.3858267716535433
          },
          {
            "number": 2,
            "time": 80.39999999999868,
            "value": 0.3858267716535433
          },
          {
            "number": 2,
            "time": 80.54999999999869,
            "value": 0.3858267716535433
          },
          {
            "number": 2,
            "time": 80.8499999999987,
            "value": 0.3858267716535433
          },
          {
            "number": 2,
            "time": 81.2999999999987,
            "value": 0.3858267716535433
          },
          {
            "number": 2,
            "time": 81.59999999999872,
            "value": 0.3858267716535433
          },
          {
            "number": 2,
            "time": 81.89999999999873,
            "value": 0.3858267716535433
          },
          {
            "number": 2,
            "time": 82.04999999999873,
            "value": 0.3858267716535433
          },
          {
            "number": 2,
            "time": 82.34999999999874,
            "value": 0.3858267716535433
          },
          {
            "number": 2,
            "time": 82.79999999999875,
            "value": 0.3858267716535433
          },
          {
            "number": 2,
            "time": 83.09999999999876,
            "value": 0.3858267716535433
          },
          {
            "number": 2,
            "time": 83.39999999999877,
            "value": 0.3858267716535433
          },
          {
            "number": 2,
            "time": 83.54999999999878,
            "value": 0.3858267716535433
          },
          {
            "number": 2,
            "time": 83.84999999999879,
            "value": 0.3858267716535433
          },
          {
            "number": 2,
            "time": 84.29999999999879,
            "value": 0.3858267716535433
          },
          {
            "number": 2,
            "time": 84.5999999999988,
            "value": 0.3858267716535433
          },
          {
            "number": 2,
            "time": 85.4999999999988,
            "value": 0.4566929133858268
          },
          {
            "number": 2,
            "time": 85.5062499999988,
            "value": 0.44881889763779526
          },
          {
            "number": 2,
            "time": 85.51437499999881,
            "value": 0.4409448818897638
          },
          {
            "number": 2,
            "time": 85.5218749999988,
            "value": 0.4330708661417323
          },
          {
            "number": 2,
            "time": 85.5293749999988,
            "value": 0.4251968503937008
          },
          {
            "number": 2,
            "time": 85.53687499999879,
            "value": 0.41732283464566927
          },
          {
            "number": 2,
            "time": 85.5449999999988,
            "value": 0.4094488188976378
          },
          {
            "number": 2,
            "time": 85.55249999999879,
            "value": 0.4015748031496063
          },
          {
            "number": 2,
            "time": 85.55999999999878,
            "value": 0.3937007874015748
          },
          {
            "number": 2,
            "time": 85.56749999999877,
            "value": 0.3858267716535433
          },
          {
            "number": 2,
            "time": 86.24999999999878,
            "value": 0.4566929133858268
          },
          {
            "number": 2,
            "time": 86.25624999999877,
            "value": 0.44881889763779526
          },
          {
            "number": 2,
            "time": 86.26437499999878,
            "value": 0.4409448818897638
          },
          {
            "number": 2,
            "time": 86.27187499999877,
            "value": 0.4330708661417323
          },
          {
            "number": 2,
            "time": 86.27937499999877,
            "value": 0.4251968503937008
          },
          {
            "number": 2,
            "time": 86.28687499999876,
            "value": 0.41732283464566927
          },
          {
            "number": 2,
            "time": 86.29499999999877,
            "value": 0.4094488188976378
          },
          {
            "number": 2,
            "time": 86.30249999999876,
            "value": 0.4015748031496063
          },
          {
            "number": 2,
            "time": 86.30999999999875,
            "value": 0.3937007874015748
          },
          {
            "number": 2,
            "time": 86.31749999999874,
            "value": 0.3858267716535433
          },
          {
            "number": 2,
            "time": 86.39999999999874,
            "value": 0.4566929133858268
          },
          {
            "number": 2,
            "time": 86.40624999999874,
            "value": 0.44881889763779526
          },
          {
            "number": 2,
            "time": 86.41437499999874,
            "value": 0.4409448818897638
          },
          {
            "number": 2,
            "time": 86.42187499999874,
            "value": 0.4330708661417323
          },
          {
            "number": 2,
            "time": 86.42937499999873,
            "value": 0.4251968503937008
          },
          {
            "number": 2,
            "time": 86.43687499999872,
            "value": 0.41732283464566927
          },
          {
            "number": 2,
            "time": 86.44499999999873,
            "value": 0.4094488188976378
          },
          {
            "number": 2,
            "time": 86.45249999999872,
            "value": 0.4015748031496063
          },
          {
            "number": 2,
            "time": 86.45999999999871,
            "value": 0.3937007874015748
          },
          {
            "number": 2,
            "time": 86.46749999999871,
            "value": 0.3858267716535433
          },
          {
            "number": 2,
            "time": 86.5499999999987,
            "value": 0.3858267716535433
          },
          {
            "number": 2,
            "time": 86.84999999999872,
            "value": 0.3858267716535433
          },
          {
            "number": 2,
            "time": 87.29999999999872,
            "value": 0.3858267716535433
          },
          {
            "number": 2,
            "time": 87.59999999999873,
            "value": 0.3858267716535433
          },
          {
            "number": 2,
            "time": 88.04999999999873,
            "value": 0.3858267716535433
          },
          {
            "number": 2,
            "time": 88.34999999999874,
            "value": 0.3858267716535433
          },
          {
            "number": 2,
            "time": 88.79999999999875,
            "value": 0.3858267716535433
          },
          {
            "number": 2,
            "time": 89.09999999999876,
            "value": 0.3858267716535433
          },
          {
            "number": 2,
            "time": 89.54999999999876,
            "value": 0.7559055118110236
          },
          {
            "number": 2,
            "time": 90.29999999999876,
            "value": 0.7559055118110236
          },
          {
            "number": 2,
            "time": 91.04999999999876,
            "value": 0.7559055118110236
          },
          {
            "number": 2,
            "time": 91.79999999999876,
            "value": 0.7559055118110236
          },
          {
            "number": 2,
            "time": 92.54999999999876,
            "value": 0.7559055118110236
          },
          {
            "number": 2,
            "time": 93.29999999999876,
            "value": 0.7559055118110236
          },
          {
            "number": 2,
            "time": 94.04999999999876,
            "value": 0.7559055118110236
          },
          {
            "number": 2,
            "time": 94.79999999999876,
            "value": 0.7559055118110236
          },
          {
            "number": 2,
            "time": 95.54999999999876,
            "value": 0.7559055118110236
          },
          {
            "number": 2,
            "time": 95.99999999999876,
            "value": 0.7559055118110236
          },
          {
            "number": 2,
            "time": 96.14999999999877,
            "value": 0.7559055118110236
          },
          {
            "number": 2,
            "time": 96.29999999999878,
            "value": 0.7559055118110236
          },
          {
            "number": 2,
            "time": 96.44999999999878,
            "value": 0.7559055118110236
          },
          {
            "number": 2,
            "time": 96.74999999999878,
            "value": 0.7559055118110236
          },
          {
            "number": 2,
            "time": 96.89999999999878,
            "value": 0.7559055118110236
          },
          {
            "number": 2,
            "time": 97.04999999999879,
            "value": 0.7559055118110236
          },
          {
            "number": 2,
            "time": 97.1999999999988,
            "value": 0.7559055118110236
          },
          {
            "number": 2,
            "time": 97.3499999999988,
            "value": 0.7559055118110236
          },
          {
            "number": 2,
            "time": 97.6499999999988,
            "value": 0.7559055118110236
          },
          {
            "number": 2,
            "time": 97.7999999999988,
            "value": 0.7559055118110236
          },
          {
            "number": 2,
            "time": 98.09999999999881,
            "value": 0.7559055118110236
          },
          {
            "number": 2,
            "time": 98.39999999999883,
            "value": 0.7559055118110236
          },
          {
            "number": 2,
            "time": 98.54999999999883,
            "value": 0.905511811023622
          },
          {
            "number": 2,
            "time": 98.55124999999883,
            "value": 0.8976377952755905
          },
          {
            "number": 2,
            "time": 98.55499999999883,
            "value": 0.889763779527559
          },
          {
            "number": 2,
            "time": 98.55874999999882,
            "value": 0.8818897637795275
          },
          {
            "number": 2,
            "time": 98.56312499999882,
            "value": 0.8740157480314961
          },
          {
            "number": 2,
            "time": 98.56687499999882,
            "value": 0.8661417322834646
          },
          {
            "number": 2,
            "time": 98.57062499999881,
            "value": 0.8582677165354331
          },
          {
            "number": 2,
            "time": 98.57437499999881,
            "value": 0.8503937007874016
          },
          {
            "number": 2,
            "time": 98.5787499999988,
            "value": 0.84251968503937
          },
          {
            "number": 2,
            "time": 98.5824999999988,
            "value": 0.8346456692913385
          },
          {
            "number": 2,
            "time": 98.5862499999988,
            "value": 0.8267716535433071
          },
          {
            "number": 2,
            "time": 98.5899999999988,
            "value": 0.8188976377952756
          },
          {
            "number": 2,
            "time": 98.59437499999879,
            "value": 0.8110236220472441
          },
          {
            "number": 2,
            "time": 98.59812499999879,
            "value": 0.8031496062992126
          },
          {
            "number": 2,
            "time": 98.60187499999878,
            "value": 0.7952755905511811
          },
          {
            "number": 2,
            "time": 98.60562499999878,
            "value": 0.7874015748031497
          },
          {
            "number": 2,
            "time": 98.60999999999878,
            "value": 0.7795275590551181
          },
          {
            "number": 2,
            "time": 98.61374999999877,
            "value": 0.7716535433070866
          },
          {
            "number": 2,
            "time": 98.61749999999877,
            "value": 0.7637795275590551
          },
          {
            "number": 2,
            "time": 98.62124999999877,
            "value": 0.7559055118110236
          },
          {
            "number": 2,
            "time": 98.99999999999876,
            "value": 0.7559055118110236
          },
          {
            "number": 2,
            "time": 99.29999999999878,
            "value": 0.7559055118110236
          },
          {
            "number": 2,
            "time": 99.74999999999878,
            "value": 0.7559055118110236
          },
          {
            "number": 2,
            "time": 99.89999999999878,
            "value": 0.7559055118110236
          },
          {
            "number": 2,
            "time": 100.04999999999879,
            "value": 0.905511811023622
          },
          {
            "number": 2,
            "time": 100.05124999999879,
            "value": 0.8976377952755905
          },
          {
            "number": 2,
            "time": 100.05499999999878,
            "value": 0.889763779527559
          },
          {
            "number": 2,
            "time": 100.05874999999878,
            "value": 0.8818897637795275
          },
          {
            "number": 2,
            "time": 100.06312499999878,
            "value": 0.8740157480314961
          },
          {
            "number": 2,
            "time": 100.06687499999877,
            "value": 0.8661417322834646
          },
          {
            "number": 2,
            "time": 100.07062499999877,
            "value": 0.8582677165354331
          },
          {
            "number": 2,
            "time": 100.07437499999877,
            "value": 0.8503937007874016
          },
          {
            "number": 2,
            "time": 100.07874999999876,
            "value": 0.84251968503937
          },
          {
            "number": 2,
            "time": 100.08249999999876,
            "value": 0.8346456692913385
          },
          {
            "number": 2,
            "time": 100.08624999999876,
            "value": 0.8267716535433071
          },
          {
            "number": 2,
            "time": 100.08999999999875,
            "value": 0.8188976377952756
          },
          {
            "number": 2,
            "time": 100.09437499999875,
            "value": 0.8110236220472441
          },
          {
            "number": 2,
            "time": 100.09812499999875,
            "value": 0.8031496062992126
          },
          {
            "number": 2,
            "time": 100.10187499999874,
            "value": 0.7952755905511811
          },
          {
            "number": 2,
            "time": 100.10562499999874,
            "value": 0.7874015748031497
          },
          {
            "number": 2,
            "time": 100.10999999999873,
            "value": 0.7795275590551181
          },
          {
            "number": 2,
            "time": 100.11374999999873,
            "value": 0.7716535433070866
          },
          {
            "number": 2,
            "time": 100.11749999999873,
            "value": 0.7637795275590551
          },
          {
            "number": 2,
            "time": 100.12124999999872,
            "value": 0.7559055118110236
          },
          {
            "number": 2,
            "time": 100.49999999999872,
            "value": 0.7559055118110236
          },
          {
            "number": 2,
            "time": 100.79999999999873,
            "value": 0.7559055118110236
          },
          {
            "number": 2,
            "time": 101.24999999999874,
            "value": 0.7559055118110236
          },
          {
            "number": 2,
            "time": 101.39999999999874,
            "value": 0.7559055118110236
          },
          {
            "number": 2,
            "time": 101.54999999999875,
            "value": 0.7559055118110236
          },
          {
            "number": 2,
            "time": 101.69999999999875,
            "value": 0.7559055118110236
          },
          {
            "number": 2,
            "time": 102.14999999999876,
            "value": 0.7559055118110236
          },
          {
            "number": 2,
            "time": 102.59999999999876,
            "value": 0.7559055118110236
          },
          {
            "number": 2,
            "time": 103.04999999999876,
            "value": 0.7559055118110236
          },
          {
            "number": 2,
            "time": 103.49999999999876,
            "value": 0.7559055118110236
          },
          {
            "number": 2,
            "time": 104.39999999999877,
            "value": 0.7559055118110236
          },
          {
            "number": 2,
            "time": 105.29999999999878,
            "value": 0.7559055118110236
          }
        ],
        "7": [
          {
            "number": 7,
            "time": 0,
            "value": 0.7874015748031497
          },
          {
            "number": 7,
            "time": 0,
            "value": 0.7874015748031497
          },
          {
            "number": 7,
            "time": 0,
            "value": 0.7874015748031497
          }
        ],
        "10": [
          {
            "number": 10,
            "time": 0,
            "value": 0.5039370078740157
          },
          {
            "number": 10,
            "time": 0,
            "value": 0.5039370078740157
          },
          {
            "number": 10,
            "time": 0,
            "value": 0.5039370078740157
          }
        ],
        "91": [
          {
            "number": 91,
            "time": 0,
            "value": 0
          },
          {
            "number": 91,
            "time": 0,
            "value": 0
          },
          {
            "number": 91,
            "time": 0,
            "value": 0
          }
        ],
        "93": [
          {
            "number": 93,
            "time": 0,
            "value": 0
          },
          {
            "number": 93,
            "time": 0,
            "value": 0
          },
          {
            "number": 93,
            "time": 0,
            "value": 0
          }
        ],
        "121": [
          {
            "number": 121,
            "time": 0,
            "value": 0
          },
          {
            "number": 121,
            "time": 0,
            "value": 0
          },
          {
            "number": 121,
            "time": 0,
            "value": 0
          }
        ]
      },
      "id": 4,
      "name": "Contrabass",
      "instrumentNumber": 44,
      "instrument": "tremolo strings",
      "instrumentFamily": "strings",
      "channelNumber": 12,
      "isPercussion": false
    }
  ]
}